<?xml version="1.0" encoding="utf-8" standalone="no"?>
<!DOCTYPE svg PUBLIC "-//W3C//DTD SVG 1.1//EN"
  "http://www.w3.org/Graphics/SVG/1.1/DTD/svg11.dtd">
<svg xmlns:xlink="http://www.w3.org/1999/xlink" width="360pt" height="288pt" viewBox="0 0 360 288" xmlns="http://www.w3.org/2000/svg" version="1.1">
 <metadata>
  <rdf:RDF xmlns:dc="http://purl.org/dc/elements/1.1/" xmlns:cc="http://creativecommons.org/ns#" xmlns:rdf="http://www.w3.org/1999/02/22-rdf-syntax-ns#">
   <cc:Work>
    <dc:type rdf:resource="http://purl.org/dc/dcmitype/StillImage"/>
    <dc:date>2022-11-10T09:40:49.577857</dc:date>
    <dc:format>image/svg+xml</dc:format>
    <dc:creator>
     <cc:Agent>
      <dc:title>Matplotlib v3.5.2, https://matplotlib.org/</dc:title>
     </cc:Agent>
    </dc:creator>
   </cc:Work>
  </rdf:RDF>
 </metadata>
 <defs>
  <style type="text/css">*{stroke-linejoin: round; stroke-linecap: butt}</style>
 </defs>
 <g id="figure_1">
  <g id="patch_1">
   <path d="M 0 288 
L 360 288 
L 360 0 
L 0 0 
z
" style="fill: #ffffff"/>
  </g>
  <g id="axes_1">
   <g id="patch_2">
    <path d="M 45 256.32 
L 324 256.32 
L 324 34.56 
L 45 34.56 
z
" style="fill: #eaeaf2"/>
   </g>
   <g id="matplotlib.axis_1">
    <g id="xtick_1">
     <g id="line2d_1">
      <path d="M 45 256.32 
L 45 34.56 
" clip-path="url(#p99784d2511)" style="fill: none; stroke: #ffffff; stroke-width: 0.8; stroke-linecap: round"/>
     </g>
     <g id="text_1">
      <!-- 0 -->
      <g style="fill: #262626" transform="translate(41.107344 273.340937)scale(0.14 -0.14)">
       <defs>
        <path id="ArialMT-30" d="M 266 2259 
Q 266 3072 433 3567 
Q 600 4063 929 4331 
Q 1259 4600 1759 4600 
Q 2128 4600 2406 4451 
Q 2684 4303 2865 4023 
Q 3047 3744 3150 3342 
Q 3253 2941 3253 2259 
Q 3253 1453 3087 958 
Q 2922 463 2592 192 
Q 2263 -78 1759 -78 
Q 1097 -78 719 397 
Q 266 969 266 2259 
z
M 844 2259 
Q 844 1131 1108 757 
Q 1372 384 1759 384 
Q 2147 384 2411 759 
Q 2675 1134 2675 2259 
Q 2675 3391 2411 3762 
Q 2147 4134 1753 4134 
Q 1366 4134 1134 3806 
Q 844 3388 844 2259 
z
" transform="scale(0.015625)"/>
       </defs>
       <use xlink:href="#ArialMT-30"/>
      </g>
     </g>
    </g>
    <g id="xtick_2">
     <g id="line2d_2">
      <path d="M 114.75 256.32 
L 114.75 34.56 
" clip-path="url(#p99784d2511)" style="fill: none; stroke: #ffffff; stroke-width: 0.8; stroke-linecap: round"/>
     </g>
     <g id="text_2">
      <!-- 20 -->
      <g style="fill: #262626" transform="translate(106.964687 273.340937)scale(0.14 -0.14)">
       <defs>
        <path id="ArialMT-32" d="M 3222 541 
L 3222 0 
L 194 0 
Q 188 203 259 391 
Q 375 700 629 1000 
Q 884 1300 1366 1694 
Q 2113 2306 2375 2664 
Q 2638 3022 2638 3341 
Q 2638 3675 2398 3904 
Q 2159 4134 1775 4134 
Q 1369 4134 1125 3890 
Q 881 3647 878 3216 
L 300 3275 
Q 359 3922 746 4261 
Q 1134 4600 1788 4600 
Q 2447 4600 2831 4234 
Q 3216 3869 3216 3328 
Q 3216 3053 3103 2787 
Q 2991 2522 2730 2228 
Q 2469 1934 1863 1422 
Q 1356 997 1212 845 
Q 1069 694 975 541 
L 3222 541 
z
" transform="scale(0.015625)"/>
       </defs>
       <use xlink:href="#ArialMT-32"/>
       <use xlink:href="#ArialMT-30" x="55.615234"/>
      </g>
     </g>
    </g>
    <g id="xtick_3">
     <g id="line2d_3">
      <path d="M 184.5 256.32 
L 184.5 34.56 
" clip-path="url(#p99784d2511)" style="fill: none; stroke: #ffffff; stroke-width: 0.8; stroke-linecap: round"/>
     </g>
     <g id="text_3">
      <!-- 40 -->
      <g style="fill: #262626" transform="translate(176.714687 273.340937)scale(0.14 -0.14)">
       <defs>
        <path id="ArialMT-34" d="M 2069 0 
L 2069 1097 
L 81 1097 
L 81 1613 
L 2172 4581 
L 2631 4581 
L 2631 1613 
L 3250 1613 
L 3250 1097 
L 2631 1097 
L 2631 0 
L 2069 0 
z
M 2069 1613 
L 2069 3678 
L 634 1613 
L 2069 1613 
z
" transform="scale(0.015625)"/>
       </defs>
       <use xlink:href="#ArialMT-34"/>
       <use xlink:href="#ArialMT-30" x="55.615234"/>
      </g>
     </g>
    </g>
    <g id="xtick_4">
     <g id="line2d_4">
      <path d="M 254.25 256.32 
L 254.25 34.56 
" clip-path="url(#p99784d2511)" style="fill: none; stroke: #ffffff; stroke-width: 0.8; stroke-linecap: round"/>
     </g>
     <g id="text_4">
      <!-- 60 -->
      <g style="fill: #262626" transform="translate(246.464688 273.340937)scale(0.14 -0.14)">
       <defs>
        <path id="ArialMT-36" d="M 3184 3459 
L 2625 3416 
Q 2550 3747 2413 3897 
Q 2184 4138 1850 4138 
Q 1581 4138 1378 3988 
Q 1113 3794 959 3422 
Q 806 3050 800 2363 
Q 1003 2672 1297 2822 
Q 1591 2972 1913 2972 
Q 2475 2972 2870 2558 
Q 3266 2144 3266 1488 
Q 3266 1056 3080 686 
Q 2894 316 2569 119 
Q 2244 -78 1831 -78 
Q 1128 -78 684 439 
Q 241 956 241 2144 
Q 241 3472 731 4075 
Q 1159 4600 1884 4600 
Q 2425 4600 2770 4297 
Q 3116 3994 3184 3459 
z
M 888 1484 
Q 888 1194 1011 928 
Q 1134 663 1356 523 
Q 1578 384 1822 384 
Q 2178 384 2434 671 
Q 2691 959 2691 1453 
Q 2691 1928 2437 2201 
Q 2184 2475 1800 2475 
Q 1419 2475 1153 2201 
Q 888 1928 888 1484 
z
" transform="scale(0.015625)"/>
       </defs>
       <use xlink:href="#ArialMT-36"/>
       <use xlink:href="#ArialMT-30" x="55.615234"/>
      </g>
     </g>
    </g>
    <g id="xtick_5">
     <g id="line2d_5">
      <path d="M 324 256.32 
L 324 34.56 
" clip-path="url(#p99784d2511)" style="fill: none; stroke: #ffffff; stroke-width: 0.8; stroke-linecap: round"/>
     </g>
     <g id="text_5">
      <!-- 80 -->
      <g style="fill: #262626" transform="translate(316.214688 273.340937)scale(0.14 -0.14)">
       <defs>
        <path id="ArialMT-38" d="M 1131 2484 
Q 781 2613 612 2850 
Q 444 3088 444 3419 
Q 444 3919 803 4259 
Q 1163 4600 1759 4600 
Q 2359 4600 2725 4251 
Q 3091 3903 3091 3403 
Q 3091 3084 2923 2848 
Q 2756 2613 2416 2484 
Q 2838 2347 3058 2040 
Q 3278 1734 3278 1309 
Q 3278 722 2862 322 
Q 2447 -78 1769 -78 
Q 1091 -78 675 323 
Q 259 725 259 1325 
Q 259 1772 486 2073 
Q 713 2375 1131 2484 
z
M 1019 3438 
Q 1019 3113 1228 2906 
Q 1438 2700 1772 2700 
Q 2097 2700 2305 2904 
Q 2513 3109 2513 3406 
Q 2513 3716 2298 3927 
Q 2084 4138 1766 4138 
Q 1444 4138 1231 3931 
Q 1019 3725 1019 3438 
z
M 838 1322 
Q 838 1081 952 856 
Q 1066 631 1291 507 
Q 1516 384 1775 384 
Q 2178 384 2440 643 
Q 2703 903 2703 1303 
Q 2703 1709 2433 1975 
Q 2163 2241 1756 2241 
Q 1359 2241 1098 1978 
Q 838 1716 838 1322 
z
" transform="scale(0.015625)"/>
       </defs>
       <use xlink:href="#ArialMT-38"/>
       <use xlink:href="#ArialMT-30" x="55.615234"/>
      </g>
     </g>
    </g>
   </g>
   <g id="matplotlib.axis_2">
    <g id="ytick_1">
     <g id="line2d_6">
      <path d="M 45 240.246113 
L 324 240.246113 
" clip-path="url(#p99784d2511)" style="fill: none; stroke: #ffffff; stroke-width: 0.8; stroke-linecap: round"/>
     </g>
     <g id="text_6">
      <!-- −50 -->
      <g style="fill: #262626" transform="translate(14.2525 245.256581)scale(0.14 -0.14)">
       <defs>
        <path id="ArialMT-2212" d="M 3381 1997 
L 356 1997 
L 356 2522 
L 3381 2522 
L 3381 1997 
z
" transform="scale(0.015625)"/>
        <path id="ArialMT-35" d="M 266 1200 
L 856 1250 
Q 922 819 1161 601 
Q 1400 384 1738 384 
Q 2144 384 2425 690 
Q 2706 997 2706 1503 
Q 2706 1984 2436 2262 
Q 2166 2541 1728 2541 
Q 1456 2541 1237 2417 
Q 1019 2294 894 2097 
L 366 2166 
L 809 4519 
L 3088 4519 
L 3088 3981 
L 1259 3981 
L 1013 2750 
Q 1425 3038 1878 3038 
Q 2478 3038 2890 2622 
Q 3303 2206 3303 1553 
Q 3303 931 2941 478 
Q 2500 -78 1738 -78 
Q 1113 -78 717 272 
Q 322 622 266 1200 
z
" transform="scale(0.015625)"/>
       </defs>
       <use xlink:href="#ArialMT-2212"/>
       <use xlink:href="#ArialMT-35" x="58.398438"/>
       <use xlink:href="#ArialMT-30" x="114.013672"/>
      </g>
     </g>
    </g>
    <g id="ytick_2">
     <g id="line2d_7">
      <path d="M 45 207.092534 
L 324 207.092534 
" clip-path="url(#p99784d2511)" style="fill: none; stroke: #ffffff; stroke-width: 0.8; stroke-linecap: round"/>
     </g>
     <g id="text_7">
      <!-- −40 -->
      <g style="fill: #262626" transform="translate(14.2525 212.103003)scale(0.14 -0.14)">
       <use xlink:href="#ArialMT-2212"/>
       <use xlink:href="#ArialMT-34" x="58.398438"/>
       <use xlink:href="#ArialMT-30" x="114.013672"/>
      </g>
     </g>
    </g>
    <g id="ytick_3">
     <g id="line2d_8">
      <path d="M 45 173.938956 
L 324 173.938956 
" clip-path="url(#p99784d2511)" style="fill: none; stroke: #ffffff; stroke-width: 0.8; stroke-linecap: round"/>
     </g>
     <g id="text_8">
      <!-- −30 -->
      <g style="fill: #262626" transform="translate(14.2525 178.949425)scale(0.14 -0.14)">
       <defs>
        <path id="ArialMT-33" d="M 269 1209 
L 831 1284 
Q 928 806 1161 595 
Q 1394 384 1728 384 
Q 2125 384 2398 659 
Q 2672 934 2672 1341 
Q 2672 1728 2419 1979 
Q 2166 2231 1775 2231 
Q 1616 2231 1378 2169 
L 1441 2663 
Q 1497 2656 1531 2656 
Q 1891 2656 2178 2843 
Q 2466 3031 2466 3422 
Q 2466 3731 2256 3934 
Q 2047 4138 1716 4138 
Q 1388 4138 1169 3931 
Q 950 3725 888 3313 
L 325 3413 
Q 428 3978 793 4289 
Q 1159 4600 1703 4600 
Q 2078 4600 2393 4439 
Q 2709 4278 2876 4000 
Q 3044 3722 3044 3409 
Q 3044 3113 2884 2869 
Q 2725 2625 2413 2481 
Q 2819 2388 3044 2092 
Q 3269 1797 3269 1353 
Q 3269 753 2831 336 
Q 2394 -81 1725 -81 
Q 1122 -81 723 278 
Q 325 638 269 1209 
z
" transform="scale(0.015625)"/>
       </defs>
       <use xlink:href="#ArialMT-2212"/>
       <use xlink:href="#ArialMT-33" x="58.398438"/>
       <use xlink:href="#ArialMT-30" x="114.013672"/>
      </g>
     </g>
    </g>
    <g id="ytick_4">
     <g id="line2d_9">
      <path d="M 45 140.785377 
L 324 140.785377 
" clip-path="url(#p99784d2511)" style="fill: none; stroke: #ffffff; stroke-width: 0.8; stroke-linecap: round"/>
     </g>
     <g id="text_9">
      <!-- −20 -->
      <g style="fill: #262626" transform="translate(14.2525 145.795846)scale(0.14 -0.14)">
       <use xlink:href="#ArialMT-2212"/>
       <use xlink:href="#ArialMT-32" x="58.398438"/>
       <use xlink:href="#ArialMT-30" x="114.013672"/>
      </g>
     </g>
    </g>
    <g id="ytick_5">
     <g id="line2d_10">
      <path d="M 45 107.631799 
L 324 107.631799 
" clip-path="url(#p99784d2511)" style="fill: none; stroke: #ffffff; stroke-width: 0.8; stroke-linecap: round"/>
     </g>
     <g id="text_10">
      <!-- −10 -->
      <g style="fill: #262626" transform="translate(14.2525 112.642268)scale(0.14 -0.14)">
       <defs>
        <path id="ArialMT-31" d="M 2384 0 
L 1822 0 
L 1822 3584 
Q 1619 3391 1289 3197 
Q 959 3003 697 2906 
L 697 3450 
Q 1169 3672 1522 3987 
Q 1875 4303 2022 4600 
L 2384 4600 
L 2384 0 
z
" transform="scale(0.015625)"/>
       </defs>
       <use xlink:href="#ArialMT-2212"/>
       <use xlink:href="#ArialMT-31" x="58.398438"/>
       <use xlink:href="#ArialMT-30" x="114.013672"/>
      </g>
     </g>
    </g>
    <g id="ytick_6">
     <g id="line2d_11">
      <path d="M 45 74.478221 
L 324 74.478221 
" clip-path="url(#p99784d2511)" style="fill: none; stroke: #ffffff; stroke-width: 0.8; stroke-linecap: round"/>
     </g>
     <g id="text_11">
      <!-- 0 -->
      <g style="fill: #262626" transform="translate(30.214688 79.488689)scale(0.14 -0.14)">
       <use xlink:href="#ArialMT-30"/>
      </g>
     </g>
    </g>
    <g id="ytick_7">
     <g id="line2d_12">
      <path d="M 45 41.324642 
L 324 41.324642 
" clip-path="url(#p99784d2511)" style="fill: none; stroke: #ffffff; stroke-width: 0.8; stroke-linecap: round"/>
     </g>
     <g id="text_12">
      <!-- 10 -->
      <g style="fill: #262626" transform="translate(22.429375 46.335111)scale(0.14 -0.14)">
       <use xlink:href="#ArialMT-31"/>
       <use xlink:href="#ArialMT-30" x="55.615234"/>
      </g>
     </g>
    </g>
   </g>
   <g id="PathCollection_1">
    <defs>
     <path id="m8ee7739989" d="M 0 1.322876 
C 0.350831 1.322876 0.68734 1.183489 0.935414 0.935414 
C 1.183489 0.68734 1.322876 0.350831 1.322876 0 
C 1.322876 -0.350831 1.183489 -0.68734 0.935414 -0.935414 
C 0.68734 -1.183489 0.350831 -1.322876 0 -1.322876 
C -0.350831 -1.322876 -0.68734 -1.183489 -0.935414 -0.935414 
C -1.183489 -0.68734 -1.322876 -0.350831 -1.322876 0 
C -1.322876 0.350831 -1.183489 0.68734 -0.935414 0.935414 
C -0.68734 1.183489 -0.350831 1.322876 0 1.322876 
z
" style="stroke: #0000ff; stroke-opacity: 0.5"/>
    </defs>
    <g clip-path="url(#p99784d2511)">
     <use xlink:href="#m8ee7739989" x="114.75" y="127.523946" style="fill: #0000ff; fill-opacity: 0.5; stroke: #0000ff; stroke-opacity: 0.5"/>
     <use xlink:href="#m8ee7739989" x="125.2125" y="94.370368" style="fill: #0000ff; fill-opacity: 0.5; stroke: #0000ff; stroke-opacity: 0.5"/>
     <use xlink:href="#m8ee7739989" x="93.825" y="140.785377" style="fill: #0000ff; fill-opacity: 0.5; stroke: #0000ff; stroke-opacity: 0.5"/>
     <use xlink:href="#m8ee7739989" x="149.625" y="127.523946" style="fill: #0000ff; fill-opacity: 0.5; stroke: #0000ff; stroke-opacity: 0.5"/>
     <use xlink:href="#m8ee7739989" x="149.625" y="137.47002" style="fill: #0000ff; fill-opacity: 0.5; stroke: #0000ff; stroke-opacity: 0.5"/>
     <use xlink:href="#m8ee7739989" x="278.6625" y="120.89323" style="fill: #0000ff; fill-opacity: 0.5; stroke: #0000ff; stroke-opacity: 0.5"/>
     <use xlink:href="#m8ee7739989" x="132.1875" y="101.001083" style="fill: #0000ff; fill-opacity: 0.5; stroke: #0000ff; stroke-opacity: 0.5"/>
     <use xlink:href="#m8ee7739989" x="163.575" y="114.262515" style="fill: #0000ff; fill-opacity: 0.5; stroke: #0000ff; stroke-opacity: 0.5"/>
     <use xlink:href="#m8ee7739989" x="100.8" y="54.586074" style="fill: #0000ff; fill-opacity: 0.5; stroke: #0000ff; stroke-opacity: 0.5"/>
     <use xlink:href="#m8ee7739989" x="104.2875" y="137.47002" style="fill: #0000ff; fill-opacity: 0.5; stroke: #0000ff; stroke-opacity: 0.5"/>
     <use xlink:href="#m8ee7739989" x="125.2125" y="127.523946" style="fill: #0000ff; fill-opacity: 0.5; stroke: #0000ff; stroke-opacity: 0.5"/>
     <use xlink:href="#m8ee7739989" x="83.3625" y="81.108936" style="fill: #0000ff; fill-opacity: 0.5; stroke: #0000ff; stroke-opacity: 0.5"/>
     <use xlink:href="#m8ee7739989" x="76.3875" y="147.416093" style="fill: #0000ff; fill-opacity: 0.5; stroke: #0000ff; stroke-opacity: 0.5"/>
     <use xlink:href="#m8ee7739989" x="55.4625" y="67.847505" style="fill: #0000ff; fill-opacity: 0.5; stroke: #0000ff; stroke-opacity: 0.5"/>
     <use xlink:href="#m8ee7739989" x="132.1875" y="87.739652" style="fill: #0000ff; fill-opacity: 0.5; stroke: #0000ff; stroke-opacity: 0.5"/>
     <use xlink:href="#m8ee7739989" x="212.4" y="120.89323" style="fill: #0000ff; fill-opacity: 0.5; stroke: #0000ff; stroke-opacity: 0.5"/>
     <use xlink:href="#m8ee7739989" x="163.575" y="94.370368" style="fill: #0000ff; fill-opacity: 0.5; stroke: #0000ff; stroke-opacity: 0.5"/>
     <use xlink:href="#m8ee7739989" x="111.2625" y="64.532147" style="fill: #0000ff; fill-opacity: 0.5; stroke: #0000ff; stroke-opacity: 0.5"/>
     <use xlink:href="#m8ee7739989" x="118.2375" y="107.631799" style="fill: #0000ff; fill-opacity: 0.5; stroke: #0000ff; stroke-opacity: 0.5"/>
     <use xlink:href="#m8ee7739989" x="121.725" y="127.523946" style="fill: #0000ff; fill-opacity: 0.5; stroke: #0000ff; stroke-opacity: 0.5"/>
     <use xlink:href="#m8ee7739989" x="135.675" y="97.685725" style="fill: #0000ff; fill-opacity: 0.5; stroke: #0000ff; stroke-opacity: 0.5"/>
     <use xlink:href="#m8ee7739989" x="104.2875" y="74.478221" style="fill: #0000ff; fill-opacity: 0.5; stroke: #0000ff; stroke-opacity: 0.5"/>
     <use xlink:href="#m8ee7739989" x="174.0375" y="57.901431" style="fill: #0000ff; fill-opacity: 0.5; stroke: #0000ff; stroke-opacity: 0.5"/>
     <use xlink:href="#m8ee7739989" x="191.475" y="137.47002" style="fill: #0000ff; fill-opacity: 0.5; stroke: #0000ff; stroke-opacity: 0.5"/>
     <use xlink:href="#m8ee7739989" x="177.525" y="154.046809" style="fill: #0000ff; fill-opacity: 0.5; stroke: #0000ff; stroke-opacity: 0.5"/>
     <use xlink:href="#m8ee7739989" x="177.525" y="124.208588" style="fill: #0000ff; fill-opacity: 0.5; stroke: #0000ff; stroke-opacity: 0.5"/>
     <use xlink:href="#m8ee7739989" x="93.825" y="140.785377" style="fill: #0000ff; fill-opacity: 0.5; stroke: #0000ff; stroke-opacity: 0.5"/>
     <use xlink:href="#m8ee7739989" x="118.2375" y="54.586074" style="fill: #0000ff; fill-opacity: 0.5; stroke: #0000ff; stroke-opacity: 0.5"/>
     <use xlink:href="#m8ee7739989" x="76.3875" y="177.254314" style="fill: #0000ff; fill-opacity: 0.5; stroke: #0000ff; stroke-opacity: 0.5"/>
    </g>
   </g>
   <g id="PolyCollection_1">
    <defs>
     <path id="m52e5b084c8" d="M 45 -219.682431 
L 45 -149.809586 
L 47.818182 -150.333565 
L 50.636364 -151.017689 
L 53.454545 -151.893077 
L 56.272727 -152.748984 
L 59.090909 -153.242829 
L 61.909091 -153.490118 
L 64.727273 -153.842879 
L 67.545455 -154.593758 
L 70.363636 -155.199106 
L 73.181818 -155.807298 
L 76 -156.415491 
L 78.818182 -156.986 
L 81.636364 -157.412359 
L 84.454545 -158.18769 
L 87.272727 -158.376507 
L 90.090909 -158.546813 
L 92.909091 -159.148393 
L 95.727273 -159.629384 
L 98.545455 -159.982367 
L 101.363636 -160.448274 
L 104.181818 -160.678688 
L 107 -161.061532 
L 109.818182 -161.341542 
L 112.636364 -161.574647 
L 115.454545 -161.950944 
L 118.272727 -162.286 
L 121.090909 -162.431812 
L 123.909091 -162.75229 
L 126.727273 -162.998964 
L 129.545455 -163.285179 
L 132.363636 -163.35919 
L 135.181818 -163.590494 
L 138 -163.700386 
L 140.818182 -163.765843 
L 143.636364 -163.869467 
L 146.454545 -163.900186 
L 149.272727 -163.969893 
L 152.090909 -164.038846 
L 154.909091 -163.952269 
L 157.727273 -163.731447 
L 160.545455 -163.143941 
L 163.363636 -162.764023 
L 166.181818 -162.314118 
L 169 -161.692748 
L 171.818182 -161.050809 
L 174.636364 -160.802704 
L 177.454545 -159.803153 
L 180.272727 -159.370988 
L 183.090909 -158.220435 
L 185.909091 -157.457138 
L 188.727273 -156.635254 
L 191.545455 -155.571298 
L 194.363636 -154.503395 
L 197.181818 -153.348189 
L 200 -152.367342 
L 202.818182 -151.470306 
L 205.636364 -150.675494 
L 208.454545 -149.438636 
L 211.272727 -148.186788 
L 214.090909 -147.03806 
L 216.909091 -146.053297 
L 219.727273 -145.068533 
L 222.545455 -144.08377 
L 225.363636 -143.099007 
L 228.181818 -142.114244 
L 231 -141.129019 
L 233.818182 -139.89431 
L 236.636364 -138.793214 
L 239.454545 -137.543691 
L 242.272727 -136.323379 
L 245.090909 -135.253627 
L 247.909091 -134.350857 
L 250.727273 -133.574517 
L 253.545455 -132.798176 
L 256.363636 -131.745832 
L 259.181818 -130.598598 
L 262 -129.451363 
L 264.818182 -128.363669 
L 267.636364 -127.379156 
L 270.454545 -126.394644 
L 273.272727 -125.410131 
L 276.090909 -124.425619 
L 278.909091 -123.441106 
L 281.727273 -122.456594 
L 284.545455 -121.193006 
L 287.363636 -119.923959 
L 290.181818 -118.654911 
L 293 -117.385864 
L 295.818182 -116.116816 
L 298.636364 -114.927305 
L 301.454545 -113.852462 
L 304.272727 -112.777619 
L 307.090909 -111.702941 
L 309.909091 -110.631164 
L 312.727273 -109.559387 
L 315.545455 -108.48761 
L 318.363636 -107.415833 
L 321.181818 -106.344056 
L 324 -105.272279 
L 324 -214.398862 
L 324 -214.398862 
L 321.181818 -213.822064 
L 318.363636 -213.25186 
L 315.545455 -212.886871 
L 312.727273 -212.521882 
L 309.909091 -212.156892 
L 307.090909 -211.791903 
L 304.272727 -211.426913 
L 301.454545 -211.061924 
L 298.636364 -210.514884 
L 295.818182 -209.970751 
L 293 -209.408742 
L 290.181818 -208.710903 
L 287.363636 -208.074593 
L 284.545455 -207.46314 
L 281.727273 -206.849509 
L 278.909091 -206.235877 
L 276.090909 -205.622246 
L 273.272727 -205.008615 
L 270.454545 -204.394984 
L 267.636364 -203.781352 
L 264.818182 -203.167721 
L 262 -202.55409 
L 259.181818 -202.212731 
L 256.363636 -201.990761 
L 253.545455 -201.76879 
L 250.727273 -201.54682 
L 247.909091 -201.275136 
L 245.090909 -200.720777 
L 242.272727 -200.15845 
L 239.454545 -199.596123 
L 236.636364 -199.033796 
L 233.818182 -198.428019 
L 231 -197.786495 
L 228.181818 -197.144971 
L 225.363636 -196.503448 
L 222.545455 -196.023061 
L 219.727273 -195.615179 
L 216.909091 -195.113619 
L 214.090909 -194.557283 
L 211.272727 -193.995933 
L 208.454545 -193.554077 
L 205.636364 -192.913705 
L 202.818182 -192.321429 
L 200 -191.98885 
L 197.181818 -191.833559 
L 194.363636 -191.683204 
L 191.545455 -191.192054 
L 188.727273 -191.020351 
L 185.909091 -190.347895 
L 183.090909 -190.084941 
L 180.272727 -189.878513 
L 177.454545 -189.14902 
L 174.636364 -188.837295 
L 171.818182 -188.726313 
L 169 -188.440148 
L 166.181818 -188.246443 
L 163.363636 -188.059416 
L 160.545455 -188.393361 
L 157.727273 -188.353783 
L 154.909091 -188.420809 
L 152.090909 -188.579998 
L 149.272727 -188.770747 
L 146.454545 -189.078459 
L 143.636364 -189.205027 
L 140.818182 -189.723643 
L 138 -190.155801 
L 135.181818 -190.443146 
L 132.363636 -190.886173 
L 129.545455 -191.416432 
L 126.727273 -192.023248 
L 123.909091 -192.43823 
L 121.090909 -193.195583 
L 118.272727 -193.748387 
L 115.454545 -194.618097 
L 112.636364 -195.449647 
L 109.818182 -196.074705 
L 107 -197.409385 
L 104.181818 -198.367148 
L 101.363636 -199.157746 
L 98.545455 -200.03234 
L 95.727273 -201.209243 
L 92.909091 -202.066784 
L 90.090909 -203.267246 
L 87.272727 -204.301864 
L 84.454545 -205.329465 
L 81.636364 -206.354216 
L 78.818182 -207.299033 
L 76 -208.414839 
L 73.181818 -209.447343 
L 70.363636 -210.68269 
L 67.545455 -211.655486 
L 64.727273 -212.56636 
L 61.909091 -213.559266 
L 59.090909 -214.534173 
L 56.272727 -215.547142 
L 53.454545 -216.649202 
L 50.636364 -217.585066 
L 47.818182 -218.633748 
L 45 -219.682431 
z
" style="stroke: #ffffff; stroke-opacity: 0.15"/>
    </defs>
    <g clip-path="url(#p99784d2511)">
     <use xlink:href="#m52e5b084c8" x="0" y="288" style="fill: #0000ff; fill-opacity: 0.15; stroke: #ffffff; stroke-opacity: 0.15"/>
    </g>
   </g>
   <g id="PathCollection_2">
    <defs>
     <path id="m526cc9a15b" d="M 0 1.322876 
C 0.350831 1.322876 0.68734 1.183489 0.935414 0.935414 
C 1.183489 0.68734 1.322876 0.350831 1.322876 0 
C 1.322876 -0.350831 1.183489 -0.68734 0.935414 -0.935414 
C 0.68734 -1.183489 0.350831 -1.322876 0 -1.322876 
C -0.350831 -1.322876 -0.68734 -1.183489 -0.935414 -0.935414 
C -1.183489 -0.68734 -1.322876 -0.350831 -1.322876 0 
C -1.322876 0.350831 -1.183489 0.68734 -0.935414 0.935414 
C -0.68734 1.183489 -0.350831 1.322876 0 1.322876 
z
" style="stroke: #ff0000; stroke-opacity: 0.5"/>
    </defs>
    <g clip-path="url(#p99784d2511)">
     <use xlink:href="#m526cc9a15b" x="111.2625" y="47.955358" style="fill: #ff0000; fill-opacity: 0.5; stroke: #ff0000; stroke-opacity: 0.5"/>
     <use xlink:href="#m526cc9a15b" x="139.1625" y="44.64" style="fill: #ff0000; fill-opacity: 0.5; stroke: #ff0000; stroke-opacity: 0.5"/>
     <use xlink:href="#m526cc9a15b" x="90.3375" y="150.731451" style="fill: #ff0000; fill-opacity: 0.5; stroke: #ff0000; stroke-opacity: 0.5"/>
     <use xlink:href="#m526cc9a15b" x="62.4375" y="77.793578" style="fill: #ff0000; fill-opacity: 0.5; stroke: #ff0000; stroke-opacity: 0.5"/>
     <use xlink:href="#m526cc9a15b" x="184.5" y="167.30824" style="fill: #ff0000; fill-opacity: 0.5; stroke: #ff0000; stroke-opacity: 0.5"/>
     <use xlink:href="#m526cc9a15b" x="139.1625" y="187.200387" style="fill: #ff0000; fill-opacity: 0.5; stroke: #ff0000; stroke-opacity: 0.5"/>
     <use xlink:href="#m526cc9a15b" x="111.2625" y="140.785377" style="fill: #ff0000; fill-opacity: 0.5; stroke: #ff0000; stroke-opacity: 0.5"/>
     <use xlink:href="#m526cc9a15b" x="170.55" y="160.677524" style="fill: #ff0000; fill-opacity: 0.5; stroke: #ff0000; stroke-opacity: 0.5"/>
     <use xlink:href="#m526cc9a15b" x="233.325" y="147.416093" style="fill: #ff0000; fill-opacity: 0.5; stroke: #ff0000; stroke-opacity: 0.5"/>
     <use xlink:href="#m526cc9a15b" x="160.0875" y="177.254314" style="fill: #ff0000; fill-opacity: 0.5; stroke: #ff0000; stroke-opacity: 0.5"/>
     <use xlink:href="#m526cc9a15b" x="201.9375" y="170.623598" style="fill: #ff0000; fill-opacity: 0.5; stroke: #ff0000; stroke-opacity: 0.5"/>
     <use xlink:href="#m526cc9a15b" x="135.675" y="134.154662" style="fill: #ff0000; fill-opacity: 0.5; stroke: #ff0000; stroke-opacity: 0.5"/>
     <use xlink:href="#m526cc9a15b" x="100.8" y="101.001083" style="fill: #ff0000; fill-opacity: 0.5; stroke: #ff0000; stroke-opacity: 0.5"/>
     <use xlink:href="#m526cc9a15b" x="135.675" y="117.577873" style="fill: #ff0000; fill-opacity: 0.5; stroke: #ff0000; stroke-opacity: 0.5"/>
     <use xlink:href="#m526cc9a15b" x="317.025" y="163.992882" style="fill: #ff0000; fill-opacity: 0.5; stroke: #ff0000; stroke-opacity: 0.5"/>
     <use xlink:href="#m526cc9a15b" x="135.675" y="134.154662" style="fill: #ff0000; fill-opacity: 0.5; stroke: #ff0000; stroke-opacity: 0.5"/>
     <use xlink:href="#m526cc9a15b" x="184.5" y="150.731451" style="fill: #ff0000; fill-opacity: 0.5; stroke: #ff0000; stroke-opacity: 0.5"/>
     <use xlink:href="#m526cc9a15b" x="128.7" y="154.046809" style="fill: #ff0000; fill-opacity: 0.5; stroke: #ff0000; stroke-opacity: 0.5"/>
     <use xlink:href="#m526cc9a15b" x="205.425" y="190.515745" style="fill: #ff0000; fill-opacity: 0.5; stroke: #ff0000; stroke-opacity: 0.5"/>
     <use xlink:href="#m526cc9a15b" x="229.8375" y="197.146461" style="fill: #ff0000; fill-opacity: 0.5; stroke: #ff0000; stroke-opacity: 0.5"/>
     <use xlink:href="#m526cc9a15b" x="132.1875" y="167.30824" style="fill: #ff0000; fill-opacity: 0.5; stroke: #ff0000; stroke-opacity: 0.5"/>
     <use xlink:href="#m526cc9a15b" x="65.925" y="144.100735" style="fill: #ff0000; fill-opacity: 0.5; stroke: #ff0000; stroke-opacity: 0.5"/>
     <use xlink:href="#m526cc9a15b" x="236.8125" y="114.262515" style="fill: #ff0000; fill-opacity: 0.5; stroke: #ff0000; stroke-opacity: 0.5"/>
     <use xlink:href="#m526cc9a15b" x="187.9875" y="134.154662" style="fill: #ff0000; fill-opacity: 0.5; stroke: #ff0000; stroke-opacity: 0.5"/>
     <use xlink:href="#m526cc9a15b" x="118.2375" y="144.100735" style="fill: #ff0000; fill-opacity: 0.5; stroke: #ff0000; stroke-opacity: 0.5"/>
     <use xlink:href="#m526cc9a15b" x="160.0875" y="87.739652" style="fill: #ff0000; fill-opacity: 0.5; stroke: #ff0000; stroke-opacity: 0.5"/>
     <use xlink:href="#m526cc9a15b" x="76.3875" y="64.532147" style="fill: #ff0000; fill-opacity: 0.5; stroke: #ff0000; stroke-opacity: 0.5"/>
     <use xlink:href="#m526cc9a15b" x="79.875" y="137.47002" style="fill: #ff0000; fill-opacity: 0.5; stroke: #ff0000; stroke-opacity: 0.5"/>
     <use xlink:href="#m526cc9a15b" x="107.775" y="94.370368" style="fill: #ff0000; fill-opacity: 0.5; stroke: #ff0000; stroke-opacity: 0.5"/>
     <use xlink:href="#m526cc9a15b" x="111.2625" y="160.677524" style="fill: #ff0000; fill-opacity: 0.5; stroke: #ff0000; stroke-opacity: 0.5"/>
    </g>
   </g>
   <g id="PolyCollection_2">
    <defs>
     <path id="mc377b9bc18" d="M 45 -211.892111 
L 45 -149.78934 
L 47.818182 -149.493218 
L 50.636364 -149.200377 
L 53.454545 -148.981162 
L 56.272727 -148.767468 
L 59.090909 -148.486314 
L 61.909091 -148.1573 
L 64.727273 -147.896976 
L 67.545455 -147.601021 
L 70.363636 -147.322145 
L 73.181818 -146.959863 
L 76 -146.65404 
L 78.818182 -146.321802 
L 81.636364 -145.989807 
L 84.454545 -145.661338 
L 87.272727 -145.353731 
L 90.090909 -145.012253 
L 92.909091 -144.697112 
L 95.727273 -144.325378 
L 98.545455 -143.987978 
L 101.363636 -143.650824 
L 104.181818 -143.302622 
L 107 -142.883701 
L 109.818182 -142.547317 
L 112.636364 -142.038047 
L 115.454545 -141.611418 
L 118.272727 -141.151498 
L 121.090909 -140.713184 
L 123.909091 -140.334712 
L 126.727273 -139.668178 
L 129.545455 -139.276278 
L 132.363636 -138.868535 
L 135.181818 -138.390491 
L 138 -137.884065 
L 140.818182 -137.522286 
L 143.636364 -137.097537 
L 146.454545 -136.33816 
L 149.272727 -135.435515 
L 152.090909 -134.490407 
L 154.909091 -133.570949 
L 157.727273 -133.078372 
L 160.545455 -132.545726 
L 163.363636 -131.383872 
L 166.181818 -130.144021 
L 169 -128.785877 
L 171.818182 -127.617968 
L 174.636364 -126.427551 
L 177.454545 -125.098893 
L 180.272727 -123.803455 
L 183.090909 -122.269055 
L 185.909091 -120.925042 
L 188.727273 -119.568847 
L 191.545455 -117.949896 
L 194.363636 -116.626279 
L 197.181818 -115.013454 
L 200 -113.406507 
L 202.818182 -111.688747 
L 205.636364 -110.098458 
L 208.454545 -108.857415 
L 211.272727 -107.229016 
L 214.090909 -105.393052 
L 216.909091 -103.983955 
L 219.727273 -102.329952 
L 222.545455 -100.609592 
L 225.363636 -99.094868 
L 228.181818 -97.507678 
L 231 -95.694883 
L 233.818182 -93.89268 
L 236.636364 -92.374504 
L 239.454545 -90.851871 
L 242.272727 -89.352174 
L 245.090909 -87.84101 
L 247.909091 -86.195546 
L 250.727273 -84.440735 
L 253.545455 -82.907109 
L 256.363636 -81.373483 
L 259.181818 -79.821925 
L 262 -77.907353 
L 264.818182 -75.99278 
L 267.636364 -74.078208 
L 270.454545 -72.200205 
L 273.272727 -70.728122 
L 276.090909 -69.25604 
L 278.909091 -67.791596 
L 281.727273 -66.328456 
L 284.545455 -64.865315 
L 287.363636 -63.402174 
L 290.181818 -61.939034 
L 293 -60.475893 
L 295.818182 -59.012752 
L 298.636364 -57.346227 
L 301.454545 -55.607434 
L 304.272727 -53.868641 
L 307.090909 -52.129848 
L 309.909091 -50.391055 
L 312.727273 -48.652262 
L 315.545455 -46.913469 
L 318.363636 -45.174676 
L 321.181818 -43.435883 
L 324 -41.76 
L 324 -132.570156 
L 324 -132.570156 
L 321.181818 -132.896817 
L 318.363636 -133.202095 
L 315.545455 -133.507373 
L 312.727273 -133.81265 
L 309.909091 -134.117928 
L 307.090909 -134.422439 
L 304.272727 -134.726009 
L 301.454545 -135.02958 
L 298.636364 -135.331544 
L 295.818182 -135.63213 
L 293 -135.932717 
L 290.181818 -136.233304 
L 287.363636 -136.53389 
L 284.545455 -136.833571 
L 281.727273 -137.251169 
L 278.909091 -137.435651 
L 276.090909 -137.769455 
L 273.272727 -138.041541 
L 270.454545 -138.23839 
L 267.636364 -138.465443 
L 264.818182 -138.692496 
L 262 -139.236531 
L 259.181818 -139.725571 
L 256.363636 -139.943334 
L 253.545455 -140.159959 
L 250.727273 -140.460194 
L 247.909091 -140.817416 
L 245.090909 -141.497334 
L 242.272727 -142.257205 
L 239.454545 -143.017077 
L 236.636364 -143.631037 
L 233.818182 -144.09805 
L 231 -144.820723 
L 228.181818 -145.132955 
L 225.363636 -145.285823 
L 222.545455 -145.392374 
L 219.727273 -145.792213 
L 216.909091 -146.284586 
L 214.090909 -146.924564 
L 211.272727 -147.608692 
L 208.454545 -148.153828 
L 205.636364 -148.779953 
L 202.818182 -149.518793 
L 200 -150.28284 
L 197.181818 -150.933919 
L 194.363636 -151.562035 
L 191.545455 -151.970929 
L 188.727273 -152.777133 
L 185.909091 -153.334098 
L 183.090909 -153.786171 
L 180.272727 -154.753733 
L 177.454545 -155.72574 
L 174.636364 -156.693827 
L 171.818182 -157.661913 
L 169 -158.576955 
L 166.181818 -159.316984 
L 163.363636 -159.839368 
L 160.545455 -160.609903 
L 157.727273 -161.528515 
L 154.909091 -162.423855 
L 152.090909 -163.438896 
L 149.272727 -164.500206 
L 146.454545 -165.235633 
L 143.636364 -166.339976 
L 140.818182 -167.55051 
L 138 -169.069889 
L 135.181818 -169.757037 
L 132.363636 -170.438125 
L 129.545455 -171.643142 
L 126.727273 -173.012877 
L 123.909091 -173.974897 
L 121.090909 -174.873786 
L 118.272727 -175.790342 
L 115.454545 -177.022297 
L 112.636364 -178.198504 
L 109.818182 -179.196494 
L 107 -180.496672 
L 104.181818 -181.872429 
L 101.363636 -183.502978 
L 98.545455 -184.768008 
L 95.727273 -185.711149 
L 92.909091 -187.04748 
L 90.090909 -188.215693 
L 87.272727 -189.501315 
L 84.454545 -190.791885 
L 81.636364 -192.080823 
L 78.818182 -193.825143 
L 76 -195.431036 
L 73.181818 -197.178049 
L 70.363636 -198.858659 
L 67.545455 -200.34734 
L 64.727273 -202.089065 
L 61.909091 -203.754497 
L 59.090909 -204.808058 
L 56.272727 -206.195814 
L 53.454545 -207.340925 
L 50.636364 -208.845411 
L 47.818182 -210.542697 
L 45 -211.892111 
z
" style="stroke: #ffffff; stroke-opacity: 0.15"/>
    </defs>
    <g clip-path="url(#p99784d2511)">
     <use xlink:href="#mc377b9bc18" x="0" y="288" style="fill: #ff0000; fill-opacity: 0.15; stroke: #ffffff; stroke-opacity: 0.15"/>
    </g>
   </g>
   <g id="line2d_13">
    <path d="M 45 101.378152 
L 47.818182 101.666714 
L 50.636364 101.955275 
L 53.454545 102.243837 
L 56.272727 102.532399 
L 59.090909 102.82096 
L 61.909091 103.109522 
L 64.727273 103.398084 
L 67.545455 103.686646 
L 70.363636 103.975207 
L 73.181818 104.263769 
L 76 104.552331 
L 78.818182 104.840893 
L 81.636364 105.129454 
L 84.454545 105.418016 
L 87.272727 105.706578 
L 90.090909 105.995139 
L 92.909091 106.283701 
L 95.727273 106.572263 
L 98.545455 106.860825 
L 101.363636 107.149386 
L 104.181818 107.437948 
L 107 107.72651 
L 109.818182 108.015071 
L 112.636364 108.303633 
L 115.454545 108.592195 
L 118.272727 108.880757 
L 121.090909 109.169318 
L 123.909091 109.45788 
L 126.727273 109.746442 
L 129.545455 110.035004 
L 132.363636 110.323565 
L 135.181818 110.612127 
L 138 110.900689 
L 140.818182 111.18925 
L 143.636364 111.477812 
L 146.454545 111.766374 
L 149.272727 112.054936 
L 152.090909 112.343497 
L 154.909091 112.632059 
L 157.727273 112.920621 
L 160.545455 113.209182 
L 163.363636 113.497744 
L 166.181818 113.786306 
L 169 114.074868 
L 171.818182 114.363429 
L 174.636364 114.651991 
L 177.454545 114.940553 
L 180.272727 115.229115 
L 183.090909 115.517676 
L 185.909091 115.806238 
L 188.727273 116.0948 
L 191.545455 116.383361 
L 194.363636 116.671923 
L 197.181818 116.960485 
L 200 117.249047 
L 202.818182 117.537608 
L 205.636364 117.82617 
L 208.454545 118.114732 
L 211.272727 118.403294 
L 214.090909 118.691855 
L 216.909091 118.980417 
L 219.727273 119.268979 
L 222.545455 119.55754 
L 225.363636 119.846102 
L 228.181818 120.134664 
L 231 120.423226 
L 233.818182 120.711787 
L 236.636364 121.000349 
L 239.454545 121.288911 
L 242.272727 121.577472 
L 245.090909 121.866034 
L 247.909091 122.154596 
L 250.727273 122.443158 
L 253.545455 122.731719 
L 256.363636 123.020281 
L 259.181818 123.308843 
L 262 123.597405 
L 264.818182 123.885966 
L 267.636364 124.174528 
L 270.454545 124.46309 
L 273.272727 124.751651 
L 276.090909 125.040213 
L 278.909091 125.328775 
L 281.727273 125.617337 
L 284.545455 125.905898 
L 287.363636 126.19446 
L 290.181818 126.483022 
L 293 126.771584 
L 295.818182 127.060145 
L 298.636364 127.348707 
L 301.454545 127.637269 
L 304.272727 127.92583 
L 307.090909 128.214392 
L 309.909091 128.502954 
L 312.727273 128.791516 
L 315.545455 129.080077 
L 318.363636 129.368639 
L 321.181818 129.657201 
L 324 129.945762 
" clip-path="url(#p99784d2511)" style="fill: none; stroke: #0000ff; stroke-width: 2.25; stroke-linecap: round"/>
   </g>
   <g id="line2d_14">
    <path d="M 45 108.33137 
L 47.818182 109.13016 
L 50.636364 109.928951 
L 53.454545 110.727741 
L 56.272727 111.526532 
L 59.090909 112.325323 
L 61.909091 113.124113 
L 64.727273 113.922904 
L 67.545455 114.721694 
L 70.363636 115.520485 
L 73.181818 116.319276 
L 76 117.118066 
L 78.818182 117.916857 
L 81.636364 118.715647 
L 84.454545 119.514438 
L 87.272727 120.313228 
L 90.090909 121.112019 
L 92.909091 121.91081 
L 95.727273 122.7096 
L 98.545455 123.508391 
L 101.363636 124.307181 
L 104.181818 125.105972 
L 107 125.904762 
L 109.818182 126.703553 
L 112.636364 127.502344 
L 115.454545 128.301134 
L 118.272727 129.099925 
L 121.090909 129.898715 
L 123.909091 130.697506 
L 126.727273 131.496296 
L 129.545455 132.295087 
L 132.363636 133.093878 
L 135.181818 133.892668 
L 138 134.691459 
L 140.818182 135.490249 
L 143.636364 136.28904 
L 146.454545 137.08783 
L 149.272727 137.886621 
L 152.090909 138.685412 
L 154.909091 139.484202 
L 157.727273 140.282993 
L 160.545455 141.081783 
L 163.363636 141.880574 
L 166.181818 142.679364 
L 169 143.478155 
L 171.818182 144.276946 
L 174.636364 145.075736 
L 177.454545 145.874527 
L 180.272727 146.673317 
L 183.090909 147.472108 
L 185.909091 148.270899 
L 188.727273 149.069689 
L 191.545455 149.86848 
L 194.363636 150.66727 
L 197.181818 151.466061 
L 200 152.264851 
L 202.818182 153.063642 
L 205.636364 153.862433 
L 208.454545 154.661223 
L 211.272727 155.460014 
L 214.090909 156.258804 
L 216.909091 157.057595 
L 219.727273 157.856385 
L 222.545455 158.655176 
L 225.363636 159.453967 
L 228.181818 160.252757 
L 231 161.051548 
L 233.818182 161.850338 
L 236.636364 162.649129 
L 239.454545 163.447919 
L 242.272727 164.24671 
L 245.090909 165.045501 
L 247.909091 165.844291 
L 250.727273 166.643082 
L 253.545455 167.441872 
L 256.363636 168.240663 
L 259.181818 169.039453 
L 262 169.838244 
L 264.818182 170.637035 
L 267.636364 171.435825 
L 270.454545 172.234616 
L 273.272727 173.033406 
L 276.090909 173.832197 
L 278.909091 174.630987 
L 281.727273 175.429778 
L 284.545455 176.228569 
L 287.363636 177.027359 
L 290.181818 177.82615 
L 293 178.62494 
L 295.818182 179.423731 
L 298.636364 180.222522 
L 301.454545 181.021312 
L 304.272727 181.820103 
L 307.090909 182.618893 
L 309.909091 183.417684 
L 312.727273 184.216474 
L 315.545455 185.015265 
L 318.363636 185.814056 
L 321.181818 186.612846 
L 324 187.411637 
" clip-path="url(#p99784d2511)" style="fill: none; stroke: #ff0000; stroke-width: 2.25; stroke-linecap: round"/>
   </g>
   <g id="patch_3">
    <path d="M 45 256.32 
L 45 34.56 
" style="fill: none; stroke: #ffffff; stroke-width: 0.8; stroke-linejoin: miter; stroke-linecap: square"/>
   </g>
   <g id="patch_4">
    <path d="M 324 256.32 
L 324 34.56 
" style="fill: none; stroke: #ffffff; stroke-width: 0.8; stroke-linejoin: miter; stroke-linecap: square"/>
   </g>
   <g id="patch_5">
    <path d="M 45 256.32 
L 324 256.32 
" style="fill: none; stroke: #ffffff; stroke-width: 0.8; stroke-linejoin: miter; stroke-linecap: square"/>
   </g>
   <g id="patch_6">
    <path d="M 45 34.56 
L 324 34.56 
" style="fill: none; stroke: #ffffff; stroke-width: 0.8; stroke-linejoin: miter; stroke-linecap: square"/>
   </g>
   <g id="text_13">
    <!-- BDI -->
    <g style="fill: #262626" transform="translate(169.000313 28.56)scale(0.18 -0.18)">
     <defs>
      <path id="Arial-BoldMT-42" d="M 469 4581 
L 2300 4581 
Q 2844 4581 3111 4536 
Q 3378 4491 3589 4347 
Q 3800 4203 3940 3964 
Q 4081 3725 4081 3428 
Q 4081 3106 3907 2837 
Q 3734 2569 3438 2434 
Q 3856 2313 4081 2019 
Q 4306 1725 4306 1328 
Q 4306 1016 4161 720 
Q 4016 425 3764 248 
Q 3513 72 3144 31 
Q 2913 6 2028 0 
L 469 0 
L 469 4581 
z
M 1394 3819 
L 1394 2759 
L 2000 2759 
Q 2541 2759 2672 2775 
Q 2909 2803 3045 2939 
Q 3181 3075 3181 3297 
Q 3181 3509 3064 3642 
Q 2947 3775 2716 3803 
Q 2578 3819 1925 3819 
L 1394 3819 
z
M 1394 1997 
L 1394 772 
L 2250 772 
Q 2750 772 2884 800 
Q 3091 838 3220 983 
Q 3350 1128 3350 1372 
Q 3350 1578 3250 1722 
Q 3150 1866 2961 1931 
Q 2772 1997 2141 1997 
L 1394 1997 
z
" transform="scale(0.015625)"/>
      <path id="Arial-BoldMT-44" d="M 463 4581 
L 2153 4581 
Q 2725 4581 3025 4494 
Q 3428 4375 3715 4072 
Q 4003 3769 4153 3330 
Q 4303 2891 4303 2247 
Q 4303 1681 4163 1272 
Q 3991 772 3672 463 
Q 3431 228 3022 97 
Q 2716 0 2203 0 
L 463 0 
L 463 4581 
z
M 1388 3806 
L 1388 772 
L 2078 772 
Q 2466 772 2638 816 
Q 2863 872 3011 1006 
Q 3159 1141 3253 1448 
Q 3347 1756 3347 2288 
Q 3347 2819 3253 3103 
Q 3159 3388 2990 3547 
Q 2822 3706 2563 3763 
Q 2369 3806 1803 3806 
L 1388 3806 
z
" transform="scale(0.015625)"/>
      <path id="Arial-BoldMT-49" d="M 438 0 
L 438 4581 
L 1363 4581 
L 1363 0 
L 438 0 
z
" transform="scale(0.015625)"/>
     </defs>
     <use xlink:href="#Arial-BoldMT-42"/>
     <use xlink:href="#Arial-BoldMT-44" x="72.216797"/>
     <use xlink:href="#Arial-BoldMT-49" x="144.433594"/>
    </g>
   </g>
  </g>
 </g>
 <defs>
  <clipPath id="p99784d2511">
   <rect x="45" y="34.56" width="279" height="221.76"/>
  </clipPath>
 </defs>
</svg>
