<?xml version="1.0" encoding="utf-8" standalone="no"?>
<!DOCTYPE svg PUBLIC "-//W3C//DTD SVG 1.1//EN"
  "http://www.w3.org/Graphics/SVG/1.1/DTD/svg11.dtd">
<svg xmlns:xlink="http://www.w3.org/1999/xlink" width="360pt" height="288pt" viewBox="0 0 360 288" xmlns="http://www.w3.org/2000/svg" version="1.1">
 <metadata>
  <rdf:RDF xmlns:dc="http://purl.org/dc/elements/1.1/" xmlns:cc="http://creativecommons.org/ns#" xmlns:rdf="http://www.w3.org/1999/02/22-rdf-syntax-ns#">
   <cc:Work>
    <dc:type rdf:resource="http://purl.org/dc/dcmitype/StillImage"/>
    <dc:date>2022-11-10T09:41:14.939984</dc:date>
    <dc:format>image/svg+xml</dc:format>
    <dc:creator>
     <cc:Agent>
      <dc:title>Matplotlib v3.5.2, https://matplotlib.org/</dc:title>
     </cc:Agent>
    </dc:creator>
   </cc:Work>
  </rdf:RDF>
 </metadata>
 <defs>
  <style type="text/css">*{stroke-linejoin: round; stroke-linecap: butt}</style>
 </defs>
 <g id="figure_1">
  <g id="patch_1">
   <path d="M 0 288 
L 360 288 
L 360 0 
L 0 0 
z
" style="fill: #ffffff"/>
  </g>
  <g id="axes_1">
   <g id="patch_2">
    <path d="M 45 256.32 
L 324 256.32 
L 324 34.56 
L 45 34.56 
z
" style="fill: #eaeaf2"/>
   </g>
   <g id="matplotlib.axis_1">
    <g id="xtick_1">
     <g id="line2d_1">
      <path d="M 45 256.32 
L 45 34.56 
" clip-path="url(#p4a95cf60a3)" style="fill: none; stroke: #ffffff; stroke-width: 0.8; stroke-linecap: round"/>
     </g>
     <g id="text_1">
      <!-- 0 -->
      <g style="fill: #262626" transform="translate(41.107344 273.340937)scale(0.14 -0.14)">
       <defs>
        <path id="ArialMT-30" d="M 266 2259 
Q 266 3072 433 3567 
Q 600 4063 929 4331 
Q 1259 4600 1759 4600 
Q 2128 4600 2406 4451 
Q 2684 4303 2865 4023 
Q 3047 3744 3150 3342 
Q 3253 2941 3253 2259 
Q 3253 1453 3087 958 
Q 2922 463 2592 192 
Q 2263 -78 1759 -78 
Q 1097 -78 719 397 
Q 266 969 266 2259 
z
M 844 2259 
Q 844 1131 1108 757 
Q 1372 384 1759 384 
Q 2147 384 2411 759 
Q 2675 1134 2675 2259 
Q 2675 3391 2411 3762 
Q 2147 4134 1753 4134 
Q 1366 4134 1134 3806 
Q 844 3388 844 2259 
z
" transform="scale(0.015625)"/>
       </defs>
       <use xlink:href="#ArialMT-30"/>
      </g>
     </g>
    </g>
    <g id="xtick_2">
     <g id="line2d_2">
      <path d="M 114.75 256.32 
L 114.75 34.56 
" clip-path="url(#p4a95cf60a3)" style="fill: none; stroke: #ffffff; stroke-width: 0.8; stroke-linecap: round"/>
     </g>
     <g id="text_2">
      <!-- 20 -->
      <g style="fill: #262626" transform="translate(106.964687 273.340937)scale(0.14 -0.14)">
       <defs>
        <path id="ArialMT-32" d="M 3222 541 
L 3222 0 
L 194 0 
Q 188 203 259 391 
Q 375 700 629 1000 
Q 884 1300 1366 1694 
Q 2113 2306 2375 2664 
Q 2638 3022 2638 3341 
Q 2638 3675 2398 3904 
Q 2159 4134 1775 4134 
Q 1369 4134 1125 3890 
Q 881 3647 878 3216 
L 300 3275 
Q 359 3922 746 4261 
Q 1134 4600 1788 4600 
Q 2447 4600 2831 4234 
Q 3216 3869 3216 3328 
Q 3216 3053 3103 2787 
Q 2991 2522 2730 2228 
Q 2469 1934 1863 1422 
Q 1356 997 1212 845 
Q 1069 694 975 541 
L 3222 541 
z
" transform="scale(0.015625)"/>
       </defs>
       <use xlink:href="#ArialMT-32"/>
       <use xlink:href="#ArialMT-30" x="55.615234"/>
      </g>
     </g>
    </g>
    <g id="xtick_3">
     <g id="line2d_3">
      <path d="M 184.5 256.32 
L 184.5 34.56 
" clip-path="url(#p4a95cf60a3)" style="fill: none; stroke: #ffffff; stroke-width: 0.8; stroke-linecap: round"/>
     </g>
     <g id="text_3">
      <!-- 40 -->
      <g style="fill: #262626" transform="translate(176.714687 273.340937)scale(0.14 -0.14)">
       <defs>
        <path id="ArialMT-34" d="M 2069 0 
L 2069 1097 
L 81 1097 
L 81 1613 
L 2172 4581 
L 2631 4581 
L 2631 1613 
L 3250 1613 
L 3250 1097 
L 2631 1097 
L 2631 0 
L 2069 0 
z
M 2069 1613 
L 2069 3678 
L 634 1613 
L 2069 1613 
z
" transform="scale(0.015625)"/>
       </defs>
       <use xlink:href="#ArialMT-34"/>
       <use xlink:href="#ArialMT-30" x="55.615234"/>
      </g>
     </g>
    </g>
    <g id="xtick_4">
     <g id="line2d_4">
      <path d="M 254.25 256.32 
L 254.25 34.56 
" clip-path="url(#p4a95cf60a3)" style="fill: none; stroke: #ffffff; stroke-width: 0.8; stroke-linecap: round"/>
     </g>
     <g id="text_4">
      <!-- 60 -->
      <g style="fill: #262626" transform="translate(246.464688 273.340937)scale(0.14 -0.14)">
       <defs>
        <path id="ArialMT-36" d="M 3184 3459 
L 2625 3416 
Q 2550 3747 2413 3897 
Q 2184 4138 1850 4138 
Q 1581 4138 1378 3988 
Q 1113 3794 959 3422 
Q 806 3050 800 2363 
Q 1003 2672 1297 2822 
Q 1591 2972 1913 2972 
Q 2475 2972 2870 2558 
Q 3266 2144 3266 1488 
Q 3266 1056 3080 686 
Q 2894 316 2569 119 
Q 2244 -78 1831 -78 
Q 1128 -78 684 439 
Q 241 956 241 2144 
Q 241 3472 731 4075 
Q 1159 4600 1884 4600 
Q 2425 4600 2770 4297 
Q 3116 3994 3184 3459 
z
M 888 1484 
Q 888 1194 1011 928 
Q 1134 663 1356 523 
Q 1578 384 1822 384 
Q 2178 384 2434 671 
Q 2691 959 2691 1453 
Q 2691 1928 2437 2201 
Q 2184 2475 1800 2475 
Q 1419 2475 1153 2201 
Q 888 1928 888 1484 
z
" transform="scale(0.015625)"/>
       </defs>
       <use xlink:href="#ArialMT-36"/>
       <use xlink:href="#ArialMT-30" x="55.615234"/>
      </g>
     </g>
    </g>
    <g id="xtick_5">
     <g id="line2d_5">
      <path d="M 324 256.32 
L 324 34.56 
" clip-path="url(#p4a95cf60a3)" style="fill: none; stroke: #ffffff; stroke-width: 0.8; stroke-linecap: round"/>
     </g>
     <g id="text_5">
      <!-- 80 -->
      <g style="fill: #262626" transform="translate(316.214688 273.340937)scale(0.14 -0.14)">
       <defs>
        <path id="ArialMT-38" d="M 1131 2484 
Q 781 2613 612 2850 
Q 444 3088 444 3419 
Q 444 3919 803 4259 
Q 1163 4600 1759 4600 
Q 2359 4600 2725 4251 
Q 3091 3903 3091 3403 
Q 3091 3084 2923 2848 
Q 2756 2613 2416 2484 
Q 2838 2347 3058 2040 
Q 3278 1734 3278 1309 
Q 3278 722 2862 322 
Q 2447 -78 1769 -78 
Q 1091 -78 675 323 
Q 259 725 259 1325 
Q 259 1772 486 2073 
Q 713 2375 1131 2484 
z
M 1019 3438 
Q 1019 3113 1228 2906 
Q 1438 2700 1772 2700 
Q 2097 2700 2305 2904 
Q 2513 3109 2513 3406 
Q 2513 3716 2298 3927 
Q 2084 4138 1766 4138 
Q 1444 4138 1231 3931 
Q 1019 3725 1019 3438 
z
M 838 1322 
Q 838 1081 952 856 
Q 1066 631 1291 507 
Q 1516 384 1775 384 
Q 2178 384 2440 643 
Q 2703 903 2703 1303 
Q 2703 1709 2433 1975 
Q 2163 2241 1756 2241 
Q 1359 2241 1098 1978 
Q 838 1716 838 1322 
z
" transform="scale(0.015625)"/>
       </defs>
       <use xlink:href="#ArialMT-38"/>
       <use xlink:href="#ArialMT-30" x="55.615234"/>
      </g>
     </g>
    </g>
   </g>
   <g id="matplotlib.axis_2">
    <g id="ytick_1">
     <g id="line2d_6">
      <path d="M 45 202.375924 
L 324 202.375924 
" clip-path="url(#p4a95cf60a3)" style="fill: none; stroke: #ffffff; stroke-width: 0.8; stroke-linecap: round"/>
     </g>
     <g id="text_6">
      <!-- 0 -->
      <g style="fill: #262626" transform="translate(30.214688 207.386393)scale(0.14 -0.14)">
       <use xlink:href="#ArialMT-30"/>
      </g>
     </g>
    </g>
    <g id="ytick_2">
     <g id="line2d_7">
      <path d="M 45 139.712959 
L 324 139.712959 
" clip-path="url(#p4a95cf60a3)" style="fill: none; stroke: #ffffff; stroke-width: 0.8; stroke-linecap: round"/>
     </g>
     <g id="text_7">
      <!-- 20 -->
      <g style="fill: #262626" transform="translate(22.429375 144.723428)scale(0.14 -0.14)">
       <use xlink:href="#ArialMT-32"/>
       <use xlink:href="#ArialMT-30" x="55.615234"/>
      </g>
     </g>
    </g>
    <g id="ytick_3">
     <g id="line2d_8">
      <path d="M 45 77.049993 
L 324 77.049993 
" clip-path="url(#p4a95cf60a3)" style="fill: none; stroke: #ffffff; stroke-width: 0.8; stroke-linecap: round"/>
     </g>
     <g id="text_8">
      <!-- 40 -->
      <g style="fill: #262626" transform="translate(22.429375 82.060462)scale(0.14 -0.14)">
       <use xlink:href="#ArialMT-34"/>
       <use xlink:href="#ArialMT-30" x="55.615234"/>
      </g>
     </g>
    </g>
   </g>
   <g id="PathCollection_1">
    <defs>
     <path id="mbdfeb6d24d" d="M 0 1.322876 
C 0.350831 1.322876 0.68734 1.183489 0.935414 0.935414 
C 1.183489 0.68734 1.322876 0.350831 1.322876 0 
C 1.322876 -0.350831 1.183489 -0.68734 0.935414 -0.935414 
C 0.68734 -1.183489 0.350831 -1.322876 0 -1.322876 
C -0.350831 -1.322876 -0.68734 -1.183489 -0.935414 -0.935414 
C -1.183489 -0.68734 -1.322876 -0.350831 -1.322876 0 
C -1.322876 0.350831 -1.183489 0.68734 -0.935414 0.935414 
C -0.68734 1.183489 -0.350831 1.322876 0 1.322876 
z
" style="stroke: #0000ff; stroke-opacity: 0.5"/>
    </defs>
    <g clip-path="url(#p4a95cf60a3)">
     <use xlink:href="#mbdfeb6d24d" x="114.75" y="158.511848" style="fill: #0000ff; fill-opacity: 0.5; stroke: #0000ff; stroke-opacity: 0.5"/>
     <use xlink:href="#mbdfeb6d24d" x="125.2125" y="180.443886" style="fill: #0000ff; fill-opacity: 0.5; stroke: #0000ff; stroke-opacity: 0.5"/>
     <use xlink:href="#mbdfeb6d24d" x="93.825" y="139.712959" style="fill: #0000ff; fill-opacity: 0.5; stroke: #0000ff; stroke-opacity: 0.5"/>
     <use xlink:href="#mbdfeb6d24d" x="149.625" y="196.109628" style="fill: #0000ff; fill-opacity: 0.5; stroke: #0000ff; stroke-opacity: 0.5"/>
     <use xlink:href="#mbdfeb6d24d" x="149.625" y="205.509072" style="fill: #0000ff; fill-opacity: 0.5; stroke: #0000ff; stroke-opacity: 0.5"/>
     <use xlink:href="#mbdfeb6d24d" x="278.6625" y="174.17759" style="fill: #0000ff; fill-opacity: 0.5; stroke: #0000ff; stroke-opacity: 0.5"/>
     <use xlink:href="#mbdfeb6d24d" x="132.1875" y="174.17759" style="fill: #0000ff; fill-opacity: 0.5; stroke: #0000ff; stroke-opacity: 0.5"/>
     <use xlink:href="#mbdfeb6d24d" x="163.575" y="177.310738" style="fill: #0000ff; fill-opacity: 0.5; stroke: #0000ff; stroke-opacity: 0.5"/>
     <use xlink:href="#mbdfeb6d24d" x="100.8" y="208.642221" style="fill: #0000ff; fill-opacity: 0.5; stroke: #0000ff; stroke-opacity: 0.5"/>
     <use xlink:href="#mbdfeb6d24d" x="104.2875" y="149.112404" style="fill: #0000ff; fill-opacity: 0.5; stroke: #0000ff; stroke-opacity: 0.5"/>
     <use xlink:href="#mbdfeb6d24d" x="125.2125" y="189.843331" style="fill: #0000ff; fill-opacity: 0.5; stroke: #0000ff; stroke-opacity: 0.5"/>
     <use xlink:href="#mbdfeb6d24d" x="83.3625" y="246.24" style="fill: #0000ff; fill-opacity: 0.5; stroke: #0000ff; stroke-opacity: 0.5"/>
     <use xlink:href="#mbdfeb6d24d" x="76.3875" y="177.310738" style="fill: #0000ff; fill-opacity: 0.5; stroke: #0000ff; stroke-opacity: 0.5"/>
     <use xlink:href="#mbdfeb6d24d" x="55.4625" y="196.109628" style="fill: #0000ff; fill-opacity: 0.5; stroke: #0000ff; stroke-opacity: 0.5"/>
     <use xlink:href="#mbdfeb6d24d" x="212.4" y="164.778145" style="fill: #0000ff; fill-opacity: 0.5; stroke: #0000ff; stroke-opacity: 0.5"/>
     <use xlink:href="#mbdfeb6d24d" x="163.575" y="189.843331" style="fill: #0000ff; fill-opacity: 0.5; stroke: #0000ff; stroke-opacity: 0.5"/>
     <use xlink:href="#mbdfeb6d24d" x="111.2625" y="224.307962" style="fill: #0000ff; fill-opacity: 0.5; stroke: #0000ff; stroke-opacity: 0.5"/>
     <use xlink:href="#mbdfeb6d24d" x="118.2375" y="145.979255" style="fill: #0000ff; fill-opacity: 0.5; stroke: #0000ff; stroke-opacity: 0.5"/>
     <use xlink:href="#mbdfeb6d24d" x="121.725" y="183.577035" style="fill: #0000ff; fill-opacity: 0.5; stroke: #0000ff; stroke-opacity: 0.5"/>
     <use xlink:href="#mbdfeb6d24d" x="135.675" y="211.775369" style="fill: #0000ff; fill-opacity: 0.5; stroke: #0000ff; stroke-opacity: 0.5"/>
     <use xlink:href="#mbdfeb6d24d" x="104.2875" y="208.642221" style="fill: #0000ff; fill-opacity: 0.5; stroke: #0000ff; stroke-opacity: 0.5"/>
     <use xlink:href="#mbdfeb6d24d" x="174.0375" y="214.908517" style="fill: #0000ff; fill-opacity: 0.5; stroke: #0000ff; stroke-opacity: 0.5"/>
     <use xlink:href="#mbdfeb6d24d" x="191.475" y="158.511848" style="fill: #0000ff; fill-opacity: 0.5; stroke: #0000ff; stroke-opacity: 0.5"/>
     <use xlink:href="#mbdfeb6d24d" x="177.525" y="155.3787" style="fill: #0000ff; fill-opacity: 0.5; stroke: #0000ff; stroke-opacity: 0.5"/>
     <use xlink:href="#mbdfeb6d24d" x="177.525" y="174.17759" style="fill: #0000ff; fill-opacity: 0.5; stroke: #0000ff; stroke-opacity: 0.5"/>
     <use xlink:href="#mbdfeb6d24d" x="93.825" y="161.644997" style="fill: #0000ff; fill-opacity: 0.5; stroke: #0000ff; stroke-opacity: 0.5"/>
     <use xlink:href="#mbdfeb6d24d" x="118.2375" y="205.509072" style="fill: #0000ff; fill-opacity: 0.5; stroke: #0000ff; stroke-opacity: 0.5"/>
     <use xlink:href="#mbdfeb6d24d" x="76.3875" y="114.647773" style="fill: #0000ff; fill-opacity: 0.5; stroke: #0000ff; stroke-opacity: 0.5"/>
    </g>
   </g>
   <g id="PolyCollection_1">
    <defs>
     <path id="m1be1c1b8fd" d="M 45 -130.02054 
L 45 -71.276736 
L 47.818182 -72.106346 
L 50.636364 -72.935955 
L 53.454545 -73.765564 
L 56.272727 -74.599762 
L 59.090909 -75.434102 
L 61.909091 -76.217393 
L 64.727273 -76.934269 
L 67.545455 -77.651144 
L 70.363636 -78.211963 
L 73.181818 -79.074582 
L 76 -79.866037 
L 78.818182 -80.788006 
L 81.636364 -81.402163 
L 84.454545 -82.230738 
L 87.272727 -82.886062 
L 90.090909 -83.55391 
L 92.909091 -84.52826 
L 95.727273 -85.401158 
L 98.545455 -86.257107 
L 101.363636 -87.155657 
L 104.181818 -87.79638 
L 107 -88.568148 
L 109.818182 -89.072849 
L 112.636364 -89.710738 
L 115.454545 -90.534809 
L 118.272727 -91.108912 
L 121.090909 -91.82401 
L 123.909091 -92.535729 
L 126.727273 -93.132384 
L 129.545455 -93.74038 
L 132.363636 -94.371488 
L 135.181818 -94.833988 
L 138 -95.099036 
L 140.818182 -95.269752 
L 143.636364 -95.620572 
L 146.454545 -96.252452 
L 149.272727 -96.600739 
L 152.090909 -96.79384 
L 154.909091 -96.971507 
L 157.727273 -96.697215 
L 160.545455 -96.65125 
L 163.363636 -96.822492 
L 166.181818 -96.542785 
L 169 -96.233879 
L 171.818182 -96.112224 
L 174.636364 -95.793987 
L 177.454545 -95.62577 
L 180.272727 -95.174602 
L 183.090909 -94.738233 
L 185.909091 -94.563174 
L 188.727273 -94.400108 
L 191.545455 -93.989055 
L 194.363636 -93.547109 
L 197.181818 -93.108188 
L 200 -92.381398 
L 202.818182 -91.977614 
L 205.636364 -91.467727 
L 208.454545 -91.095665 
L 211.272727 -90.374015 
L 214.090909 -89.627512 
L 216.909091 -89.028619 
L 219.727273 -88.449444 
L 222.545455 -87.792373 
L 225.363636 -87.116875 
L 228.181818 -86.450824 
L 231 -86.093967 
L 233.818182 -85.509475 
L 236.636364 -84.938472 
L 239.454545 -84.334181 
L 242.272727 -83.741824 
L 245.090909 -83.149466 
L 247.909091 -82.557109 
L 250.727273 -81.964751 
L 253.545455 -81.377032 
L 256.363636 -80.794563 
L 259.181818 -80.212093 
L 262 -79.629624 
L 264.818182 -79.051351 
L 267.636364 -78.675937 
L 270.454545 -78.300523 
L 273.272727 -77.718225 
L 276.090909 -77.091835 
L 278.909091 -76.465445 
L 281.727273 -75.839055 
L 284.545455 -75.212664 
L 287.363636 -74.586274 
L 290.181818 -73.959884 
L 293 -73.333494 
L 295.818182 -72.707104 
L 298.636364 -72.080713 
L 301.454545 -71.454323 
L 304.272727 -70.827933 
L 307.090909 -70.227589 
L 309.909091 -69.638684 
L 312.727273 -69.04978 
L 315.545455 -68.460875 
L 318.363636 -67.871971 
L 321.181818 -67.283066 
L 324 -66.694162 
L 324 -155.95839 
L 324 -155.95839 
L 321.181818 -155.190607 
L 318.363636 -154.422824 
L 315.545455 -153.655041 
L 312.727273 -152.887258 
L 309.909091 -152.119474 
L 307.090909 -151.351691 
L 304.272727 -150.583908 
L 301.454545 -149.816125 
L 298.636364 -149.048342 
L 295.818182 -148.280558 
L 293 -147.512775 
L 290.181818 -146.691866 
L 287.363636 -145.860288 
L 284.545455 -145.02871 
L 281.727273 -144.197133 
L 278.909091 -143.365555 
L 276.090909 -142.533977 
L 273.272727 -141.7024 
L 270.454545 -140.958214 
L 267.636364 -140.281804 
L 264.818182 -139.494444 
L 262 -138.592606 
L 259.181818 -137.669675 
L 256.363636 -136.693727 
L 253.545455 -135.858746 
L 250.727273 -135.010646 
L 247.909091 -134.221934 
L 245.090909 -133.426643 
L 242.272727 -132.638042 
L 239.454545 -131.870638 
L 236.636364 -131.055101 
L 233.818182 -130.261883 
L 231 -129.511047 
L 228.181818 -128.805289 
L 225.363636 -128.06945 
L 222.545455 -127.150876 
L 219.727273 -126.41419 
L 216.909091 -125.823531 
L 214.090909 -124.98952 
L 211.272727 -124.284755 
L 208.454545 -123.461318 
L 205.636364 -122.85912 
L 202.818182 -122.145949 
L 200 -121.892009 
L 197.181818 -121.324029 
L 194.363636 -120.763124 
L 191.545455 -120.112128 
L 188.727273 -119.585327 
L 185.909091 -119.054584 
L 183.090909 -118.432156 
L 180.272727 -118.223186 
L 177.454545 -118.095094 
L 174.636364 -117.74679 
L 171.818182 -117.299941 
L 169 -116.893107 
L 166.181818 -116.612138 
L 163.363636 -116.42463 
L 160.545455 -116.542895 
L 157.727273 -116.429728 
L 154.909091 -116.409857 
L 152.090909 -116.510595 
L 149.272727 -116.650664 
L 146.454545 -116.583757 
L 143.636364 -116.61535 
L 140.818182 -116.672423 
L 138 -116.799083 
L 135.181818 -116.937651 
L 132.363636 -117.127761 
L 129.545455 -117.178063 
L 126.727273 -117.518772 
L 123.909091 -117.713206 
L 121.090909 -118.014816 
L 118.272727 -118.331505 
L 115.454545 -118.628213 
L 112.636364 -118.776567 
L 109.818182 -119.386497 
L 107 -119.55617 
L 104.181818 -119.929455 
L 101.363636 -120.193217 
L 98.545455 -120.748126 
L 95.727273 -121.134638 
L 92.909091 -121.84941 
L 90.090909 -122.518033 
L 87.272727 -122.695931 
L 84.454545 -123.154302 
L 81.636364 -123.471948 
L 78.818182 -123.788232 
L 76 -124.166072 
L 73.181818 -124.749038 
L 70.363636 -125.332004 
L 67.545455 -125.91497 
L 64.727273 -126.331318 
L 61.909091 -126.736397 
L 59.090909 -127.251648 
L 56.272727 -127.845577 
L 53.454545 -128.224557 
L 50.636364 -128.945422 
L 47.818182 -129.561606 
L 45 -130.02054 
z
" style="stroke: #ffffff; stroke-opacity: 0.15"/>
    </defs>
    <g clip-path="url(#p4a95cf60a3)">
     <use xlink:href="#m1be1c1b8fd" x="0" y="288" style="fill: #0000ff; fill-opacity: 0.15; stroke: #ffffff; stroke-opacity: 0.15"/>
    </g>
   </g>
   <g id="PathCollection_2">
    <defs>
     <path id="mde2934f383" d="M 0 1.322876 
C 0.350831 1.322876 0.68734 1.183489 0.935414 0.935414 
C 1.183489 0.68734 1.322876 0.350831 1.322876 0 
C 1.322876 -0.350831 1.183489 -0.68734 0.935414 -0.935414 
C 0.68734 -1.183489 0.350831 -1.322876 0 -1.322876 
C -0.350831 -1.322876 -0.68734 -1.183489 -0.935414 -0.935414 
C -1.183489 -0.68734 -1.322876 -0.350831 -1.322876 0 
C -1.322876 0.350831 -1.183489 0.68734 -0.935414 0.935414 
C -0.68734 1.183489 -0.350831 1.322876 0 1.322876 
z
" style="stroke: #ff0000; stroke-opacity: 0.5"/>
    </defs>
    <g clip-path="url(#p4a95cf60a3)">
     <use xlink:href="#mde2934f383" x="111.2625" y="189.843331" style="fill: #ff0000; fill-opacity: 0.5; stroke: #ff0000; stroke-opacity: 0.5"/>
     <use xlink:href="#mde2934f383" x="139.1625" y="218.041666" style="fill: #ff0000; fill-opacity: 0.5; stroke: #ff0000; stroke-opacity: 0.5"/>
     <use xlink:href="#mde2934f383" x="90.3375" y="120.914069" style="fill: #ff0000; fill-opacity: 0.5; stroke: #ff0000; stroke-opacity: 0.5"/>
     <use xlink:href="#mde2934f383" x="62.4375" y="230.574259" style="fill: #ff0000; fill-opacity: 0.5; stroke: #ff0000; stroke-opacity: 0.5"/>
     <use xlink:href="#mde2934f383" x="184.5" y="164.778145" style="fill: #ff0000; fill-opacity: 0.5; stroke: #ff0000; stroke-opacity: 0.5"/>
     <use xlink:href="#mde2934f383" x="139.1625" y="133.446662" style="fill: #ff0000; fill-opacity: 0.5; stroke: #ff0000; stroke-opacity: 0.5"/>
     <use xlink:href="#mde2934f383" x="111.2625" y="149.112404" style="fill: #ff0000; fill-opacity: 0.5; stroke: #ff0000; stroke-opacity: 0.5"/>
     <use xlink:href="#mde2934f383" x="170.55" y="158.511848" style="fill: #ff0000; fill-opacity: 0.5; stroke: #ff0000; stroke-opacity: 0.5"/>
     <use xlink:href="#mde2934f383" x="233.325" y="108.381476" style="fill: #ff0000; fill-opacity: 0.5; stroke: #ff0000; stroke-opacity: 0.5"/>
     <use xlink:href="#mde2934f383" x="201.9375" y="136.57981" style="fill: #ff0000; fill-opacity: 0.5; stroke: #ff0000; stroke-opacity: 0.5"/>
     <use xlink:href="#mde2934f383" x="135.675" y="155.3787" style="fill: #ff0000; fill-opacity: 0.5; stroke: #ff0000; stroke-opacity: 0.5"/>
     <use xlink:href="#mde2934f383" x="135.675" y="189.843331" style="fill: #ff0000; fill-opacity: 0.5; stroke: #ff0000; stroke-opacity: 0.5"/>
     <use xlink:href="#mde2934f383" x="317.025" y="161.644997" style="fill: #ff0000; fill-opacity: 0.5; stroke: #ff0000; stroke-opacity: 0.5"/>
     <use xlink:href="#mde2934f383" x="135.675" y="164.778145" style="fill: #ff0000; fill-opacity: 0.5; stroke: #ff0000; stroke-opacity: 0.5"/>
     <use xlink:href="#mde2934f383" x="184.5" y="155.3787" style="fill: #ff0000; fill-opacity: 0.5; stroke: #ff0000; stroke-opacity: 0.5"/>
     <use xlink:href="#mde2934f383" x="128.7" y="111.514624" style="fill: #ff0000; fill-opacity: 0.5; stroke: #ff0000; stroke-opacity: 0.5"/>
     <use xlink:href="#mde2934f383" x="205.425" y="98.982031" style="fill: #ff0000; fill-opacity: 0.5; stroke: #ff0000; stroke-opacity: 0.5"/>
     <use xlink:href="#mde2934f383" x="229.8375" y="51.984807" style="fill: #ff0000; fill-opacity: 0.5; stroke: #ff0000; stroke-opacity: 0.5"/>
     <use xlink:href="#mde2934f383" x="132.1875" y="124.047217" style="fill: #ff0000; fill-opacity: 0.5; stroke: #ff0000; stroke-opacity: 0.5"/>
     <use xlink:href="#mde2934f383" x="65.925" y="164.778145" style="fill: #ff0000; fill-opacity: 0.5; stroke: #ff0000; stroke-opacity: 0.5"/>
     <use xlink:href="#mde2934f383" x="236.8125" y="177.310738" style="fill: #ff0000; fill-opacity: 0.5; stroke: #ff0000; stroke-opacity: 0.5"/>
     <use xlink:href="#mde2934f383" x="187.9875" y="127.180366" style="fill: #ff0000; fill-opacity: 0.5; stroke: #ff0000; stroke-opacity: 0.5"/>
     <use xlink:href="#mde2934f383" x="118.2375" y="127.180366" style="fill: #ff0000; fill-opacity: 0.5; stroke: #ff0000; stroke-opacity: 0.5"/>
     <use xlink:href="#mde2934f383" x="160.0875" y="180.443886" style="fill: #ff0000; fill-opacity: 0.5; stroke: #ff0000; stroke-opacity: 0.5"/>
     <use xlink:href="#mde2934f383" x="76.3875" y="192.976479" style="fill: #ff0000; fill-opacity: 0.5; stroke: #ff0000; stroke-opacity: 0.5"/>
     <use xlink:href="#mde2934f383" x="79.875" y="124.047217" style="fill: #ff0000; fill-opacity: 0.5; stroke: #ff0000; stroke-opacity: 0.5"/>
     <use xlink:href="#mde2934f383" x="107.775" y="192.976479" style="fill: #ff0000; fill-opacity: 0.5; stroke: #ff0000; stroke-opacity: 0.5"/>
     <use xlink:href="#mde2934f383" x="111.2625" y="139.712959" style="fill: #ff0000; fill-opacity: 0.5; stroke: #ff0000; stroke-opacity: 0.5"/>
    </g>
   </g>
   <g id="PolyCollection_2">
    <defs>
     <path id="m5b0346f4b8" d="M 45 -149.728126 
L 45 -78.935198 
L 47.818182 -80.412053 
L 50.636364 -82.077064 
L 53.454545 -83.420593 
L 56.272727 -84.761121 
L 59.090909 -86.126189 
L 61.909091 -87.425911 
L 64.727273 -88.756818 
L 67.545455 -90.045504 
L 70.363636 -91.422229 
L 73.181818 -92.80568 
L 76 -94.630168 
L 78.818182 -96.313288 
L 81.636364 -97.647376 
L 84.454545 -98.900561 
L 87.272727 -100.508332 
L 90.090909 -101.657503 
L 92.909091 -103.164232 
L 95.727273 -104.757226 
L 98.545455 -106.048547 
L 101.363636 -107.480658 
L 104.181818 -108.825919 
L 107 -109.94845 
L 109.818182 -111.011264 
L 112.636364 -112.13667 
L 115.454545 -113.374766 
L 118.272727 -114.381464 
L 121.090909 -115.354073 
L 123.909091 -116.208792 
L 126.727273 -116.790378 
L 129.545455 -117.599836 
L 132.363636 -118.725048 
L 135.181818 -119.341868 
L 138 -120.193383 
L 140.818182 -120.989755 
L 143.636364 -121.363504 
L 146.454545 -121.717769 
L 149.272727 -122.353694 
L 152.090909 -122.752339 
L 154.909091 -123.529647 
L 157.727273 -124.131484 
L 160.545455 -124.477898 
L 163.363636 -125.031915 
L 166.181818 -125.407688 
L 169 -126.100299 
L 171.818182 -126.206247 
L 174.636364 -126.536075 
L 177.454545 -126.877165 
L 180.272727 -127.169482 
L 183.090909 -127.262095 
L 185.909091 -127.237481 
L 188.727273 -127.273865 
L 191.545455 -127.437392 
L 194.363636 -127.648302 
L 197.181818 -127.504567 
L 200 -128.001468 
L 202.818182 -128.004088 
L 205.636364 -127.969545 
L 208.454545 -127.753167 
L 211.272727 -127.476484 
L 214.090909 -127.198283 
L 216.909091 -126.917661 
L 219.727273 -126.815027 
L 222.545455 -126.807993 
L 225.363636 -126.947201 
L 228.181818 -127.092682 
L 231 -127.396937 
L 233.818182 -127.596524 
L 236.636364 -127.568228 
L 239.454545 -127.534934 
L 242.272727 -127.494667 
L 245.090909 -127.459597 
L 247.909091 -127.426219 
L 250.727273 -127.480298 
L 253.545455 -127.752106 
L 256.363636 -127.649224 
L 259.181818 -127.732719 
L 262 -127.814257 
L 264.818182 -127.647992 
L 267.636364 -127.585413 
L 270.454545 -127.333898 
L 273.272727 -127.009351 
L 276.090909 -126.678561 
L 278.909091 -126.655258 
L 281.727273 -126.647459 
L 284.545455 -126.642865 
L 287.363636 -126.638272 
L 290.181818 -126.644781 
L 293 -126.621696 
L 295.818182 -126.606689 
L 298.636364 -126.494712 
L 301.454545 -126.367879 
L 304.272727 -126.241045 
L 307.090909 -125.911964 
L 309.909091 -125.541077 
L 312.727273 -125.17019 
L 315.545455 -124.90087 
L 318.363636 -124.857282 
L 321.181818 -124.818139 
L 324 -124.635529 
L 324 -243.36 
L 324 -243.36 
L 321.181818 -241.72658 
L 318.363636 -240.093159 
L 315.545455 -238.455057 
L 312.727273 -236.814028 
L 309.909091 -235.172998 
L 307.090909 -233.531969 
L 304.272727 -231.89094 
L 301.454545 -230.183522 
L 298.636364 -228.429366 
L 295.818182 -226.675209 
L 293 -224.921052 
L 290.181818 -223.166896 
L 287.363636 -221.412739 
L 284.545455 -219.809455 
L 281.727273 -218.318301 
L 278.909091 -216.910798 
L 276.090909 -215.509986 
L 273.272727 -213.8762 
L 270.454545 -212.357934 
L 267.636364 -210.735786 
L 264.818182 -209.069719 
L 262 -207.403653 
L 259.181818 -205.737587 
L 256.363636 -204.07152 
L 253.545455 -202.430464 
L 250.727273 -200.869679 
L 247.909091 -199.35227 
L 245.090909 -197.834152 
L 242.272727 -196.316034 
L 239.454545 -194.797916 
L 236.636364 -193.285313 
L 233.818182 -191.89164 
L 231 -190.677093 
L 228.181818 -189.458819 
L 225.363636 -188.175998 
L 222.545455 -186.893177 
L 219.727273 -185.099836 
L 216.909091 -183.094985 
L 214.090909 -181.217823 
L 211.272727 -179.703525 
L 208.454545 -178.189228 
L 205.636364 -176.717245 
L 202.818182 -175.272344 
L 200 -173.759297 
L 197.181818 -172.127725 
L 194.363636 -170.554108 
L 191.545455 -169.194538 
L 188.727273 -167.59463 
L 185.909091 -166.087605 
L 183.090909 -164.5673 
L 180.272727 -163.204523 
L 177.454545 -161.799131 
L 174.636364 -160.138374 
L 171.818182 -158.61497 
L 169 -157.109072 
L 166.181818 -156.008324 
L 163.363636 -154.770541 
L 160.545455 -153.630858 
L 157.727273 -152.707157 
L 154.909091 -151.713307 
L 152.090909 -151.16322 
L 149.272727 -150.373598 
L 146.454545 -150.239819 
L 143.636364 -149.490724 
L 140.818182 -148.875283 
L 138 -148.272112 
L 135.181818 -147.70211 
L 132.363636 -147.25713 
L 129.545455 -147.20358 
L 126.727273 -146.886458 
L 123.909091 -146.879018 
L 121.090909 -147.232715 
L 118.272727 -147.151949 
L 115.454545 -146.975032 
L 112.636364 -146.757112 
L 109.818182 -146.947713 
L 107 -147.13537 
L 104.181818 -147.22382 
L 101.363636 -147.354871 
L 98.545455 -147.629378 
L 95.727273 -147.775338 
L 92.909091 -148.054315 
L 90.090909 -148.127251 
L 87.272727 -148.121697 
L 84.454545 -148.459171 
L 81.636364 -148.796644 
L 78.818182 -149.088758 
L 76 -149.287677 
L 73.181818 -149.479421 
L 70.363636 -149.54908 
L 67.545455 -149.568974 
L 64.727273 -149.588868 
L 61.909091 -149.608762 
L 59.090909 -149.628656 
L 56.272727 -149.64855 
L 53.454545 -149.668444 
L 50.636364 -149.688338 
L 47.818182 -149.708232 
L 45 -149.728126 
z
" style="stroke: #ffffff; stroke-opacity: 0.15"/>
    </defs>
    <g clip-path="url(#p4a95cf60a3)">
     <use xlink:href="#m5b0346f4b8" x="0" y="288" style="fill: #ff0000; fill-opacity: 0.15; stroke: #ffffff; stroke-opacity: 0.15"/>
    </g>
   </g>
   <g id="line2d_9">
    <path d="M 45 185.701719 
L 47.818182 185.581635 
L 50.636364 185.461552 
L 53.454545 185.341469 
L 56.272727 185.221385 
L 59.090909 185.101302 
L 61.909091 184.981218 
L 64.727273 184.861135 
L 67.545455 184.741051 
L 70.363636 184.620968 
L 73.181818 184.500885 
L 76 184.380801 
L 78.818182 184.260718 
L 81.636364 184.140634 
L 84.454545 184.020551 
L 87.272727 183.900468 
L 90.090909 183.780384 
L 92.909091 183.660301 
L 95.727273 183.540217 
L 98.545455 183.420134 
L 101.363636 183.300051 
L 104.181818 183.179967 
L 107 183.059884 
L 109.818182 182.9398 
L 112.636364 182.819717 
L 115.454545 182.699634 
L 118.272727 182.57955 
L 121.090909 182.459467 
L 123.909091 182.339383 
L 126.727273 182.2193 
L 129.545455 182.099216 
L 132.363636 181.979133 
L 135.181818 181.85905 
L 138 181.738966 
L 140.818182 181.618883 
L 143.636364 181.498799 
L 146.454545 181.378716 
L 149.272727 181.258633 
L 152.090909 181.138549 
L 154.909091 181.018466 
L 157.727273 180.898382 
L 160.545455 180.778299 
L 163.363636 180.658216 
L 166.181818 180.538132 
L 169 180.418049 
L 171.818182 180.297965 
L 174.636364 180.177882 
L 177.454545 180.057798 
L 180.272727 179.937715 
L 183.090909 179.817632 
L 185.909091 179.697548 
L 188.727273 179.577465 
L 191.545455 179.457381 
L 194.363636 179.337298 
L 197.181818 179.217215 
L 200 179.097131 
L 202.818182 178.977048 
L 205.636364 178.856964 
L 208.454545 178.736881 
L 211.272727 178.616798 
L 214.090909 178.496714 
L 216.909091 178.376631 
L 219.727273 178.256547 
L 222.545455 178.136464 
L 225.363636 178.016381 
L 228.181818 177.896297 
L 231 177.776214 
L 233.818182 177.65613 
L 236.636364 177.536047 
L 239.454545 177.415963 
L 242.272727 177.29588 
L 245.090909 177.175797 
L 247.909091 177.055713 
L 250.727273 176.93563 
L 253.545455 176.815546 
L 256.363636 176.695463 
L 259.181818 176.57538 
L 262 176.455296 
L 264.818182 176.335213 
L 267.636364 176.215129 
L 270.454545 176.095046 
L 273.272727 175.974963 
L 276.090909 175.854879 
L 278.909091 175.734796 
L 281.727273 175.614712 
L 284.545455 175.494629 
L 287.363636 175.374546 
L 290.181818 175.254462 
L 293 175.134379 
L 295.818182 175.014295 
L 298.636364 174.894212 
L 301.454545 174.774128 
L 304.272727 174.654045 
L 307.090909 174.533962 
L 309.909091 174.413878 
L 312.727273 174.293795 
L 315.545455 174.173711 
L 318.363636 174.053628 
L 321.181818 173.933545 
L 324 173.813461 
" clip-path="url(#p4a95cf60a3)" style="fill: none; stroke: #0000ff; stroke-width: 2.25; stroke-linecap: round"/>
   </g>
   <g id="line2d_10">
    <path d="M 45 172.251425 
L 47.818182 171.720436 
L 50.636364 171.189447 
L 53.454545 170.658458 
L 56.272727 170.127469 
L 59.090909 169.59648 
L 61.909091 169.06549 
L 64.727273 168.534501 
L 67.545455 168.003512 
L 70.363636 167.472523 
L 73.181818 166.941534 
L 76 166.410545 
L 78.818182 165.879556 
L 81.636364 165.348567 
L 84.454545 164.817578 
L 87.272727 164.286589 
L 90.090909 163.7556 
L 92.909091 163.22461 
L 95.727273 162.693621 
L 98.545455 162.162632 
L 101.363636 161.631643 
L 104.181818 161.100654 
L 107 160.569665 
L 109.818182 160.038676 
L 112.636364 159.507687 
L 115.454545 158.976698 
L 118.272727 158.445709 
L 121.090909 157.91472 
L 123.909091 157.38373 
L 126.727273 156.852741 
L 129.545455 156.321752 
L 132.363636 155.790763 
L 135.181818 155.259774 
L 138 154.728785 
L 140.818182 154.197796 
L 143.636364 153.666807 
L 146.454545 153.135818 
L 149.272727 152.604829 
L 152.090909 152.073839 
L 154.909091 151.54285 
L 157.727273 151.011861 
L 160.545455 150.480872 
L 163.363636 149.949883 
L 166.181818 149.418894 
L 169 148.887905 
L 171.818182 148.356916 
L 174.636364 147.825927 
L 177.454545 147.294938 
L 180.272727 146.763949 
L 183.090909 146.232959 
L 185.909091 145.70197 
L 188.727273 145.170981 
L 191.545455 144.639992 
L 194.363636 144.109003 
L 197.181818 143.578014 
L 200 143.047025 
L 202.818182 142.516036 
L 205.636364 141.985047 
L 208.454545 141.454058 
L 211.272727 140.923069 
L 214.090909 140.392079 
L 216.909091 139.86109 
L 219.727273 139.330101 
L 222.545455 138.799112 
L 225.363636 138.268123 
L 228.181818 137.737134 
L 231 137.206145 
L 233.818182 136.675156 
L 236.636364 136.144167 
L 239.454545 135.613178 
L 242.272727 135.082188 
L 245.090909 134.551199 
L 247.909091 134.02021 
L 250.727273 133.489221 
L 253.545455 132.958232 
L 256.363636 132.427243 
L 259.181818 131.896254 
L 262 131.365265 
L 264.818182 130.834276 
L 267.636364 130.303287 
L 270.454545 129.772298 
L 273.272727 129.241308 
L 276.090909 128.710319 
L 278.909091 128.17933 
L 281.727273 127.648341 
L 284.545455 127.117352 
L 287.363636 126.586363 
L 290.181818 126.055374 
L 293 125.524385 
L 295.818182 124.993396 
L 298.636364 124.462407 
L 301.454545 123.931418 
L 304.272727 123.400428 
L 307.090909 122.869439 
L 309.909091 122.33845 
L 312.727273 121.807461 
L 315.545455 121.276472 
L 318.363636 120.745483 
L 321.181818 120.214494 
L 324 119.683505 
" clip-path="url(#p4a95cf60a3)" style="fill: none; stroke: #ff0000; stroke-width: 2.25; stroke-linecap: round"/>
   </g>
   <g id="patch_3">
    <path d="M 45 256.32 
L 45 34.56 
" style="fill: none; stroke: #ffffff; stroke-width: 0.8; stroke-linejoin: miter; stroke-linecap: square"/>
   </g>
   <g id="patch_4">
    <path d="M 324 256.32 
L 324 34.56 
" style="fill: none; stroke: #ffffff; stroke-width: 0.8; stroke-linejoin: miter; stroke-linecap: square"/>
   </g>
   <g id="patch_5">
    <path d="M 45 256.32 
L 324 256.32 
" style="fill: none; stroke: #ffffff; stroke-width: 0.8; stroke-linejoin: miter; stroke-linecap: square"/>
   </g>
   <g id="patch_6">
    <path d="M 45 34.56 
L 324 34.56 
" style="fill: none; stroke: #ffffff; stroke-width: 0.8; stroke-linejoin: miter; stroke-linecap: square"/>
   </g>
   <g id="text_9">
    <!-- WEMWBS -->
    <g style="fill: #262626" transform="translate(141.506719 28.56)scale(0.18 -0.18)">
     <defs>
      <path id="Arial-BoldMT-57" d="M 1116 0 
L 22 4581 
L 969 4581 
L 1659 1434 
L 2497 4581 
L 3597 4581 
L 4400 1381 
L 5103 4581 
L 6034 4581 
L 4922 0 
L 3941 0 
L 3028 3425 
L 2119 0 
L 1116 0 
z
" transform="scale(0.015625)"/>
      <path id="Arial-BoldMT-45" d="M 466 0 
L 466 4581 
L 3863 4581 
L 3863 3806 
L 1391 3806 
L 1391 2791 
L 3691 2791 
L 3691 2019 
L 1391 2019 
L 1391 772 
L 3950 772 
L 3950 0 
L 466 0 
z
" transform="scale(0.015625)"/>
      <path id="Arial-BoldMT-4d" d="M 453 0 
L 453 4581 
L 1838 4581 
L 2669 1456 
L 3491 4581 
L 4878 4581 
L 4878 0 
L 4019 0 
L 4019 3606 
L 3109 0 
L 2219 0 
L 1313 3606 
L 1313 0 
L 453 0 
z
" transform="scale(0.015625)"/>
      <path id="Arial-BoldMT-42" d="M 469 4581 
L 2300 4581 
Q 2844 4581 3111 4536 
Q 3378 4491 3589 4347 
Q 3800 4203 3940 3964 
Q 4081 3725 4081 3428 
Q 4081 3106 3907 2837 
Q 3734 2569 3438 2434 
Q 3856 2313 4081 2019 
Q 4306 1725 4306 1328 
Q 4306 1016 4161 720 
Q 4016 425 3764 248 
Q 3513 72 3144 31 
Q 2913 6 2028 0 
L 469 0 
L 469 4581 
z
M 1394 3819 
L 1394 2759 
L 2000 2759 
Q 2541 2759 2672 2775 
Q 2909 2803 3045 2939 
Q 3181 3075 3181 3297 
Q 3181 3509 3064 3642 
Q 2947 3775 2716 3803 
Q 2578 3819 1925 3819 
L 1394 3819 
z
M 1394 1997 
L 1394 772 
L 2250 772 
Q 2750 772 2884 800 
Q 3091 838 3220 983 
Q 3350 1128 3350 1372 
Q 3350 1578 3250 1722 
Q 3150 1866 2961 1931 
Q 2772 1997 2141 1997 
L 1394 1997 
z
" transform="scale(0.015625)"/>
      <path id="Arial-BoldMT-53" d="M 231 1491 
L 1131 1578 
Q 1213 1125 1461 912 
Q 1709 700 2131 700 
Q 2578 700 2804 889 
Q 3031 1078 3031 1331 
Q 3031 1494 2936 1608 
Q 2841 1722 2603 1806 
Q 2441 1863 1863 2006 
Q 1119 2191 819 2459 
Q 397 2838 397 3381 
Q 397 3731 595 4036 
Q 794 4341 1167 4500 
Q 1541 4659 2069 4659 
Q 2931 4659 3367 4281 
Q 3803 3903 3825 3272 
L 2900 3231 
Q 2841 3584 2645 3739 
Q 2450 3894 2059 3894 
Q 1656 3894 1428 3728 
Q 1281 3622 1281 3444 
Q 1281 3281 1419 3166 
Q 1594 3019 2269 2859 
Q 2944 2700 3267 2529 
Q 3591 2359 3773 2064 
Q 3956 1769 3956 1334 
Q 3956 941 3737 597 
Q 3519 253 3119 86 
Q 2719 -81 2122 -81 
Q 1253 -81 787 320 
Q 322 722 231 1491 
z
" transform="scale(0.015625)"/>
     </defs>
     <use xlink:href="#Arial-BoldMT-57"/>
     <use xlink:href="#Arial-BoldMT-45" x="94.384766"/>
     <use xlink:href="#Arial-BoldMT-4d" x="161.083984"/>
     <use xlink:href="#Arial-BoldMT-57" x="244.384766"/>
     <use xlink:href="#Arial-BoldMT-42" x="338.769531"/>
     <use xlink:href="#Arial-BoldMT-53" x="410.986328"/>
    </g>
   </g>
  </g>
 </g>
 <defs>
  <clipPath id="p4a95cf60a3">
   <rect x="45" y="34.56" width="279" height="221.76"/>
  </clipPath>
 </defs>
</svg>
