<?xml version="1.0" encoding="utf-8" standalone="no"?>
<!DOCTYPE svg PUBLIC "-//W3C//DTD SVG 1.1//EN"
  "http://www.w3.org/Graphics/SVG/1.1/DTD/svg11.dtd">
<svg xmlns:xlink="http://www.w3.org/1999/xlink" width="360pt" height="288pt" viewBox="0 0 360 288" xmlns="http://www.w3.org/2000/svg" version="1.1">
 <metadata>
  <rdf:RDF xmlns:dc="http://purl.org/dc/elements/1.1/" xmlns:cc="http://creativecommons.org/ns#" xmlns:rdf="http://www.w3.org/1999/02/22-rdf-syntax-ns#">
   <cc:Work>
    <dc:type rdf:resource="http://purl.org/dc/dcmitype/StillImage"/>
    <dc:date>2022-11-10T09:40:01.057543</dc:date>
    <dc:format>image/svg+xml</dc:format>
    <dc:creator>
     <cc:Agent>
      <dc:title>Matplotlib v3.5.2, https://matplotlib.org/</dc:title>
     </cc:Agent>
    </dc:creator>
   </cc:Work>
  </rdf:RDF>
 </metadata>
 <defs>
  <style type="text/css">*{stroke-linejoin: round; stroke-linecap: butt}</style>
 </defs>
 <g id="figure_1">
  <g id="patch_1">
   <path d="M 0 288 
L 360 288 
L 360 0 
L 0 0 
z
" style="fill: #ffffff"/>
  </g>
  <g id="axes_1">
   <g id="patch_2">
    <path d="M 45 256.32 
L 324 256.32 
L 324 34.56 
L 45 34.56 
z
" style="fill: #eaeaf2"/>
   </g>
   <g id="matplotlib.axis_1">
    <g id="xtick_1">
     <g id="line2d_1">
      <path d="M 76 256.32 
L 76 34.56 
" clip-path="url(#pb4a785691c)" style="fill: none; stroke: #ffffff; stroke-width: 0.8; stroke-linecap: round"/>
     </g>
     <g id="text_1">
      <!-- 30 -->
      <g style="fill: #262626" transform="translate(68.214687 273.340937)scale(0.14 -0.14)">
       <defs>
        <path id="ArialMT-33" d="M 269 1209 
L 831 1284 
Q 928 806 1161 595 
Q 1394 384 1728 384 
Q 2125 384 2398 659 
Q 2672 934 2672 1341 
Q 2672 1728 2419 1979 
Q 2166 2231 1775 2231 
Q 1616 2231 1378 2169 
L 1441 2663 
Q 1497 2656 1531 2656 
Q 1891 2656 2178 2843 
Q 2466 3031 2466 3422 
Q 2466 3731 2256 3934 
Q 2047 4138 1716 4138 
Q 1388 4138 1169 3931 
Q 950 3725 888 3313 
L 325 3413 
Q 428 3978 793 4289 
Q 1159 4600 1703 4600 
Q 2078 4600 2393 4439 
Q 2709 4278 2876 4000 
Q 3044 3722 3044 3409 
Q 3044 3113 2884 2869 
Q 2725 2625 2413 2481 
Q 2819 2388 3044 2092 
Q 3269 1797 3269 1353 
Q 3269 753 2831 336 
Q 2394 -81 1725 -81 
Q 1122 -81 723 278 
Q 325 638 269 1209 
z
" transform="scale(0.015625)"/>
        <path id="ArialMT-30" d="M 266 2259 
Q 266 3072 433 3567 
Q 600 4063 929 4331 
Q 1259 4600 1759 4600 
Q 2128 4600 2406 4451 
Q 2684 4303 2865 4023 
Q 3047 3744 3150 3342 
Q 3253 2941 3253 2259 
Q 3253 1453 3087 958 
Q 2922 463 2592 192 
Q 2263 -78 1759 -78 
Q 1097 -78 719 397 
Q 266 969 266 2259 
z
M 844 2259 
Q 844 1131 1108 757 
Q 1372 384 1759 384 
Q 2147 384 2411 759 
Q 2675 1134 2675 2259 
Q 2675 3391 2411 3762 
Q 2147 4134 1753 4134 
Q 1366 4134 1134 3806 
Q 844 3388 844 2259 
z
" transform="scale(0.015625)"/>
       </defs>
       <use xlink:href="#ArialMT-33"/>
       <use xlink:href="#ArialMT-30" x="55.615234"/>
      </g>
     </g>
    </g>
    <g id="xtick_2">
     <g id="line2d_2">
      <path d="M 138 256.32 
L 138 34.56 
" clip-path="url(#pb4a785691c)" style="fill: none; stroke: #ffffff; stroke-width: 0.8; stroke-linecap: round"/>
     </g>
     <g id="text_2">
      <!-- 40 -->
      <g style="fill: #262626" transform="translate(130.214687 273.340937)scale(0.14 -0.14)">
       <defs>
        <path id="ArialMT-34" d="M 2069 0 
L 2069 1097 
L 81 1097 
L 81 1613 
L 2172 4581 
L 2631 4581 
L 2631 1613 
L 3250 1613 
L 3250 1097 
L 2631 1097 
L 2631 0 
L 2069 0 
z
M 2069 1613 
L 2069 3678 
L 634 1613 
L 2069 1613 
z
" transform="scale(0.015625)"/>
       </defs>
       <use xlink:href="#ArialMT-34"/>
       <use xlink:href="#ArialMT-30" x="55.615234"/>
      </g>
     </g>
    </g>
    <g id="xtick_3">
     <g id="line2d_3">
      <path d="M 200 256.32 
L 200 34.56 
" clip-path="url(#pb4a785691c)" style="fill: none; stroke: #ffffff; stroke-width: 0.8; stroke-linecap: round"/>
     </g>
     <g id="text_3">
      <!-- 50 -->
      <g style="fill: #262626" transform="translate(192.214687 273.340937)scale(0.14 -0.14)">
       <defs>
        <path id="ArialMT-35" d="M 266 1200 
L 856 1250 
Q 922 819 1161 601 
Q 1400 384 1738 384 
Q 2144 384 2425 690 
Q 2706 997 2706 1503 
Q 2706 1984 2436 2262 
Q 2166 2541 1728 2541 
Q 1456 2541 1237 2417 
Q 1019 2294 894 2097 
L 366 2166 
L 809 4519 
L 3088 4519 
L 3088 3981 
L 1259 3981 
L 1013 2750 
Q 1425 3038 1878 3038 
Q 2478 3038 2890 2622 
Q 3303 2206 3303 1553 
Q 3303 931 2941 478 
Q 2500 -78 1738 -78 
Q 1113 -78 717 272 
Q 322 622 266 1200 
z
" transform="scale(0.015625)"/>
       </defs>
       <use xlink:href="#ArialMT-35"/>
       <use xlink:href="#ArialMT-30" x="55.615234"/>
      </g>
     </g>
    </g>
    <g id="xtick_4">
     <g id="line2d_4">
      <path d="M 262 256.32 
L 262 34.56 
" clip-path="url(#pb4a785691c)" style="fill: none; stroke: #ffffff; stroke-width: 0.8; stroke-linecap: round"/>
     </g>
     <g id="text_4">
      <!-- 60 -->
      <g style="fill: #262626" transform="translate(254.214687 273.340937)scale(0.14 -0.14)">
       <defs>
        <path id="ArialMT-36" d="M 3184 3459 
L 2625 3416 
Q 2550 3747 2413 3897 
Q 2184 4138 1850 4138 
Q 1581 4138 1378 3988 
Q 1113 3794 959 3422 
Q 806 3050 800 2363 
Q 1003 2672 1297 2822 
Q 1591 2972 1913 2972 
Q 2475 2972 2870 2558 
Q 3266 2144 3266 1488 
Q 3266 1056 3080 686 
Q 2894 316 2569 119 
Q 2244 -78 1831 -78 
Q 1128 -78 684 439 
Q 241 956 241 2144 
Q 241 3472 731 4075 
Q 1159 4600 1884 4600 
Q 2425 4600 2770 4297 
Q 3116 3994 3184 3459 
z
M 888 1484 
Q 888 1194 1011 928 
Q 1134 663 1356 523 
Q 1578 384 1822 384 
Q 2178 384 2434 671 
Q 2691 959 2691 1453 
Q 2691 1928 2437 2201 
Q 2184 2475 1800 2475 
Q 1419 2475 1153 2201 
Q 888 1928 888 1484 
z
" transform="scale(0.015625)"/>
       </defs>
       <use xlink:href="#ArialMT-36"/>
       <use xlink:href="#ArialMT-30" x="55.615234"/>
      </g>
     </g>
    </g>
    <g id="xtick_5">
     <g id="line2d_5">
      <path d="M 324 256.32 
L 324 34.56 
" clip-path="url(#pb4a785691c)" style="fill: none; stroke: #ffffff; stroke-width: 0.8; stroke-linecap: round"/>
     </g>
     <g id="text_5">
      <!-- 70 -->
      <g style="fill: #262626" transform="translate(316.214688 273.340937)scale(0.14 -0.14)">
       <defs>
        <path id="ArialMT-37" d="M 303 3981 
L 303 4522 
L 3269 4522 
L 3269 4084 
Q 2831 3619 2401 2847 
Q 1972 2075 1738 1259 
Q 1569 684 1522 0 
L 944 0 
Q 953 541 1156 1306 
Q 1359 2072 1739 2783 
Q 2119 3494 2547 3981 
L 303 3981 
z
" transform="scale(0.015625)"/>
       </defs>
       <use xlink:href="#ArialMT-37"/>
       <use xlink:href="#ArialMT-30" x="55.615234"/>
      </g>
     </g>
    </g>
   </g>
   <g id="matplotlib.axis_2">
    <g id="ytick_1">
     <g id="line2d_6">
      <path d="M 45 222.486356 
L 324 222.486356 
" clip-path="url(#pb4a785691c)" style="fill: none; stroke: #ffffff; stroke-width: 0.8; stroke-linecap: round"/>
     </g>
     <g id="text_6">
      <!-- −40 -->
      <g style="fill: #262626" transform="translate(14.2525 227.496825)scale(0.14 -0.14)">
       <defs>
        <path id="ArialMT-2212" d="M 3381 1997 
L 356 1997 
L 356 2522 
L 3381 2522 
L 3381 1997 
z
" transform="scale(0.015625)"/>
       </defs>
       <use xlink:href="#ArialMT-2212"/>
       <use xlink:href="#ArialMT-34" x="58.398438"/>
       <use xlink:href="#ArialMT-30" x="114.013672"/>
      </g>
     </g>
    </g>
    <g id="ytick_2">
     <g id="line2d_7">
      <path d="M 45 186.191182 
L 324 186.191182 
" clip-path="url(#pb4a785691c)" style="fill: none; stroke: #ffffff; stroke-width: 0.8; stroke-linecap: round"/>
     </g>
     <g id="text_7">
      <!-- −30 -->
      <g style="fill: #262626" transform="translate(14.2525 191.20165)scale(0.14 -0.14)">
       <use xlink:href="#ArialMT-2212"/>
       <use xlink:href="#ArialMT-33" x="58.398438"/>
       <use xlink:href="#ArialMT-30" x="114.013672"/>
      </g>
     </g>
    </g>
    <g id="ytick_3">
     <g id="line2d_8">
      <path d="M 45 149.896007 
L 324 149.896007 
" clip-path="url(#pb4a785691c)" style="fill: none; stroke: #ffffff; stroke-width: 0.8; stroke-linecap: round"/>
     </g>
     <g id="text_8">
      <!-- −20 -->
      <g style="fill: #262626" transform="translate(14.2525 154.906476)scale(0.14 -0.14)">
       <defs>
        <path id="ArialMT-32" d="M 3222 541 
L 3222 0 
L 194 0 
Q 188 203 259 391 
Q 375 700 629 1000 
Q 884 1300 1366 1694 
Q 2113 2306 2375 2664 
Q 2638 3022 2638 3341 
Q 2638 3675 2398 3904 
Q 2159 4134 1775 4134 
Q 1369 4134 1125 3890 
Q 881 3647 878 3216 
L 300 3275 
Q 359 3922 746 4261 
Q 1134 4600 1788 4600 
Q 2447 4600 2831 4234 
Q 3216 3869 3216 3328 
Q 3216 3053 3103 2787 
Q 2991 2522 2730 2228 
Q 2469 1934 1863 1422 
Q 1356 997 1212 845 
Q 1069 694 975 541 
L 3222 541 
z
" transform="scale(0.015625)"/>
       </defs>
       <use xlink:href="#ArialMT-2212"/>
       <use xlink:href="#ArialMT-32" x="58.398438"/>
       <use xlink:href="#ArialMT-30" x="114.013672"/>
      </g>
     </g>
    </g>
    <g id="ytick_4">
     <g id="line2d_9">
      <path d="M 45 113.600832 
L 324 113.600832 
" clip-path="url(#pb4a785691c)" style="fill: none; stroke: #ffffff; stroke-width: 0.8; stroke-linecap: round"/>
     </g>
     <g id="text_9">
      <!-- −10 -->
      <g style="fill: #262626" transform="translate(14.2525 118.611301)scale(0.14 -0.14)">
       <defs>
        <path id="ArialMT-31" d="M 2384 0 
L 1822 0 
L 1822 3584 
Q 1619 3391 1289 3197 
Q 959 3003 697 2906 
L 697 3450 
Q 1169 3672 1522 3987 
Q 1875 4303 2022 4600 
L 2384 4600 
L 2384 0 
z
" transform="scale(0.015625)"/>
       </defs>
       <use xlink:href="#ArialMT-2212"/>
       <use xlink:href="#ArialMT-31" x="58.398438"/>
       <use xlink:href="#ArialMT-30" x="114.013672"/>
      </g>
     </g>
    </g>
    <g id="ytick_5">
     <g id="line2d_10">
      <path d="M 45 77.305657 
L 324 77.305657 
" clip-path="url(#pb4a785691c)" style="fill: none; stroke: #ffffff; stroke-width: 0.8; stroke-linecap: round"/>
     </g>
     <g id="text_10">
      <!-- 0 -->
      <g style="fill: #262626" transform="translate(30.214688 82.316126)scale(0.14 -0.14)">
       <use xlink:href="#ArialMT-30"/>
      </g>
     </g>
    </g>
    <g id="ytick_6">
     <g id="line2d_11">
      <path d="M 45 41.010483 
L 324 41.010483 
" clip-path="url(#pb4a785691c)" style="fill: none; stroke: #ffffff; stroke-width: 0.8; stroke-linecap: round"/>
     </g>
     <g id="text_11">
      <!-- 10 -->
      <g style="fill: #262626" transform="translate(22.429375 46.020951)scale(0.14 -0.14)">
       <use xlink:href="#ArialMT-31"/>
       <use xlink:href="#ArialMT-30" x="55.615234"/>
      </g>
     </g>
    </g>
   </g>
   <g id="PathCollection_1">
    <defs>
     <path id="m4d1e97beec" d="M 0 1.322876 
C 0.350831 1.322876 0.68734 1.183489 0.935414 0.935414 
C 1.183489 0.68734 1.322876 0.350831 1.322876 0 
C 1.322876 -0.350831 1.183489 -0.68734 0.935414 -0.935414 
C 0.68734 -1.183489 0.350831 -1.322876 0 -1.322876 
C -0.350831 -1.322876 -0.68734 -1.183489 -0.935414 -0.935414 
C -1.183489 -0.68734 -1.322876 -0.350831 -1.322876 0 
C -1.322876 0.350831 -1.183489 0.68734 -0.935414 0.935414 
C -0.68734 1.183489 -0.350831 1.322876 0 1.322876 
z
" style="stroke: #0000ff; stroke-opacity: 0.5"/>
    </defs>
    <g clip-path="url(#pb4a785691c)">
     <use xlink:href="#m4d1e97beec" x="119.4" y="135.377937" style="fill: #0000ff; fill-opacity: 0.5; stroke: #0000ff; stroke-opacity: 0.5"/>
     <use xlink:href="#m4d1e97beec" x="76" y="99.082762" style="fill: #0000ff; fill-opacity: 0.5; stroke: #0000ff; stroke-opacity: 0.5"/>
     <use xlink:href="#m4d1e97beec" x="100.8" y="149.896007" style="fill: #0000ff; fill-opacity: 0.5; stroke: #0000ff; stroke-opacity: 0.5"/>
     <use xlink:href="#m4d1e97beec" x="131.8" y="135.377937" style="fill: #0000ff; fill-opacity: 0.5; stroke: #0000ff; stroke-opacity: 0.5"/>
     <use xlink:href="#m4d1e97beec" x="317.8" y="146.266489" style="fill: #0000ff; fill-opacity: 0.5; stroke: #0000ff; stroke-opacity: 0.5"/>
     <use xlink:href="#m4d1e97beec" x="125.6" y="128.118902" style="fill: #0000ff; fill-opacity: 0.5; stroke: #0000ff; stroke-opacity: 0.5"/>
     <use xlink:href="#m4d1e97beec" x="131.8" y="106.341797" style="fill: #0000ff; fill-opacity: 0.5; stroke: #0000ff; stroke-opacity: 0.5"/>
     <use xlink:href="#m4d1e97beec" x="156.6" y="120.859867" style="fill: #0000ff; fill-opacity: 0.5; stroke: #0000ff; stroke-opacity: 0.5"/>
     <use xlink:href="#m4d1e97beec" x="193.8" y="55.528552" style="fill: #0000ff; fill-opacity: 0.5; stroke: #0000ff; stroke-opacity: 0.5"/>
     <use xlink:href="#m4d1e97beec" x="200" y="146.266489" style="fill: #0000ff; fill-opacity: 0.5; stroke: #0000ff; stroke-opacity: 0.5"/>
     <use xlink:href="#m4d1e97beec" x="156.6" y="135.377937" style="fill: #0000ff; fill-opacity: 0.5; stroke: #0000ff; stroke-opacity: 0.5"/>
     <use xlink:href="#m4d1e97beec" x="212.4" y="84.564692" style="fill: #0000ff; fill-opacity: 0.5; stroke: #0000ff; stroke-opacity: 0.5"/>
     <use xlink:href="#m4d1e97beec" x="138" y="157.155042" style="fill: #0000ff; fill-opacity: 0.5; stroke: #0000ff; stroke-opacity: 0.5"/>
     <use xlink:href="#m4d1e97beec" x="107" y="70.046622" style="fill: #0000ff; fill-opacity: 0.5; stroke: #0000ff; stroke-opacity: 0.5"/>
     <use xlink:href="#m4d1e97beec" x="175.2" y="128.118902" style="fill: #0000ff; fill-opacity: 0.5; stroke: #0000ff; stroke-opacity: 0.5"/>
     <use xlink:href="#m4d1e97beec" x="268.2" y="99.082762" style="fill: #0000ff; fill-opacity: 0.5; stroke: #0000ff; stroke-opacity: 0.5"/>
     <use xlink:href="#m4d1e97beec" x="218.6" y="66.417105" style="fill: #0000ff; fill-opacity: 0.5; stroke: #0000ff; stroke-opacity: 0.5"/>
     <use xlink:href="#m4d1e97beec" x="82.2" y="113.600832" style="fill: #0000ff; fill-opacity: 0.5; stroke: #0000ff; stroke-opacity: 0.5"/>
     <use xlink:href="#m4d1e97beec" x="113.2" y="135.377937" style="fill: #0000ff; fill-opacity: 0.5; stroke: #0000ff; stroke-opacity: 0.5"/>
     <use xlink:href="#m4d1e97beec" x="138" y="102.71228" style="fill: #0000ff; fill-opacity: 0.5; stroke: #0000ff; stroke-opacity: 0.5"/>
     <use xlink:href="#m4d1e97beec" x="156.6" y="77.305657" style="fill: #0000ff; fill-opacity: 0.5; stroke: #0000ff; stroke-opacity: 0.5"/>
     <use xlink:href="#m4d1e97beec" x="237.2" y="59.15807" style="fill: #0000ff; fill-opacity: 0.5; stroke: #0000ff; stroke-opacity: 0.5"/>
     <use xlink:href="#m4d1e97beec" x="237.2" y="146.266489" style="fill: #0000ff; fill-opacity: 0.5; stroke: #0000ff; stroke-opacity: 0.5"/>
     <use xlink:href="#m4d1e97beec" x="162.8" y="164.414077" style="fill: #0000ff; fill-opacity: 0.5; stroke: #0000ff; stroke-opacity: 0.5"/>
     <use xlink:href="#m4d1e97beec" x="249.6" y="131.748419" style="fill: #0000ff; fill-opacity: 0.5; stroke: #0000ff; stroke-opacity: 0.5"/>
     <use xlink:href="#m4d1e97beec" x="243.4" y="149.896007" style="fill: #0000ff; fill-opacity: 0.5; stroke: #0000ff; stroke-opacity: 0.5"/>
     <use xlink:href="#m4d1e97beec" x="255.8" y="55.528552" style="fill: #0000ff; fill-opacity: 0.5; stroke: #0000ff; stroke-opacity: 0.5"/>
    </g>
   </g>
   <g id="PolyCollection_1">
    <defs>
     <path id="m2513fef26f" d="M 45 -188.990654 
L 45 -131.471998 
L 47.818182 -132.479581 
L 50.636364 -133.616707 
L 53.454545 -134.624939 
L 56.272727 -135.468149 
L 59.090909 -136.311358 
L 61.909091 -137.299358 
L 64.727273 -138.637648 
L 67.545455 -139.975937 
L 70.363636 -141.042214 
L 73.181818 -141.819869 
L 76 -142.563861 
L 78.818182 -143.299434 
L 81.636364 -144.136016 
L 84.454545 -145.034385 
L 87.272727 -145.76588 
L 90.090909 -146.268558 
L 92.909091 -147.15897 
L 95.727273 -147.719823 
L 98.545455 -148.451686 
L 101.363636 -149.185857 
L 104.181818 -149.723529 
L 107 -150.663705 
L 109.818182 -151.398522 
L 112.636364 -152.23646 
L 115.454545 -153.112945 
L 118.272727 -153.91212 
L 121.090909 -154.617641 
L 123.909091 -154.839625 
L 126.727273 -155.509676 
L 129.545455 -156.035782 
L 132.363636 -156.198854 
L 135.181818 -156.185459 
L 138 -156.352412 
L 140.818182 -156.652044 
L 143.636364 -156.562152 
L 146.454545 -156.98149 
L 149.272727 -157.162135 
L 152.090909 -157.191281 
L 154.909091 -157.217721 
L 157.727273 -157.179391 
L 160.545455 -157.0089 
L 163.363636 -157.029774 
L 166.181818 -156.916073 
L 169 -156.679028 
L 171.818182 -156.44481 
L 174.636364 -156.242494 
L 177.454545 -155.995453 
L 180.272727 -155.869688 
L 183.090909 -155.689916 
L 185.909091 -155.413766 
L 188.727273 -155.186656 
L 191.545455 -154.872454 
L 194.363636 -154.651335 
L 197.181818 -154.330604 
L 200 -154.080431 
L 202.818182 -153.907606 
L 205.636364 -153.733553 
L 208.454545 -153.560114 
L 211.272727 -153.144419 
L 214.090909 -152.883225 
L 216.909091 -152.643932 
L 219.727273 -152.343667 
L 222.545455 -152.014086 
L 225.363636 -151.684888 
L 228.181818 -151.590117 
L 231 -151.449674 
L 233.818182 -151.211307 
L 236.636364 -150.976378 
L 239.454545 -150.742918 
L 242.272727 -150.521056 
L 245.090909 -150.209491 
L 247.909091 -149.727801 
L 250.727273 -149.543093 
L 253.545455 -149.104887 
L 256.363636 -148.812361 
L 259.181818 -148.459134 
L 262 -148.091209 
L 264.818182 -147.816806 
L 267.636364 -147.542404 
L 270.454545 -147.2184 
L 273.272727 -146.817905 
L 276.090909 -146.306105 
L 278.909091 -145.863694 
L 281.727273 -145.598149 
L 284.545455 -145.258179 
L 287.363636 -145.051888 
L 290.181818 -144.796247 
L 293 -144.528542 
L 295.818182 -144.26527 
L 298.636364 -144.001998 
L 301.454545 -143.738726 
L 304.272727 -143.475453 
L 307.090909 -143.212181 
L 309.909091 -142.957241 
L 312.727273 -142.770999 
L 315.545455 -142.584757 
L 318.363636 -142.398515 
L 321.181818 -142.14284 
L 324 -141.771876 
L 324 -234.534512 
L 324 -234.534512 
L 321.181818 -233.669111 
L 318.363636 -232.803691 
L 315.545455 -231.917055 
L 312.727273 -230.987889 
L 309.909091 -230.057074 
L 307.090909 -229.128936 
L 304.272727 -228.194746 
L 301.454545 -227.0896 
L 298.636364 -226.036602 
L 295.818182 -225.031835 
L 293 -224.027068 
L 290.181818 -223.022302 
L 287.363636 -222.017535 
L 284.545455 -221.010155 
L 281.727273 -219.999383 
L 278.909091 -218.988612 
L 276.090909 -217.977841 
L 273.272727 -216.894702 
L 270.454545 -215.728055 
L 267.636364 -214.561409 
L 264.818182 -213.394762 
L 262 -212.461108 
L 259.181818 -211.586115 
L 256.363636 -210.711122 
L 253.545455 -209.83613 
L 250.727273 -208.886662 
L 247.909091 -207.766455 
L 245.090909 -206.646247 
L 242.272727 -205.52604 
L 239.454545 -204.405833 
L 236.636364 -203.285626 
L 233.818182 -202.165419 
L 231 -201.045212 
L 228.181818 -200.421325 
L 225.363636 -199.859717 
L 222.545455 -198.868476 
L 219.727273 -197.877234 
L 216.909091 -196.87727 
L 214.090909 -196.102853 
L 211.272727 -195.709323 
L 208.454545 -195.30656 
L 205.636364 -194.385303 
L 202.818182 -193.813073 
L 200 -193.277457 
L 197.181818 -192.412372 
L 194.363636 -191.538291 
L 191.545455 -190.718918 
L 188.727273 -190.024066 
L 185.909091 -189.061169 
L 183.090909 -188.436629 
L 180.272727 -187.844083 
L 177.454545 -186.882496 
L 174.636364 -185.987063 
L 171.818182 -185.923682 
L 169 -185.254775 
L 166.181818 -185.001431 
L 163.363636 -184.944319 
L 160.545455 -184.408359 
L 157.727273 -183.9262 
L 154.909091 -183.641232 
L 152.090909 -183.521398 
L 149.272727 -183.183669 
L 146.454545 -183.133342 
L 143.636364 -183.015489 
L 140.818182 -183.052937 
L 138 -182.78731 
L 135.181818 -182.877711 
L 132.363636 -182.878417 
L 129.545455 -182.892148 
L 126.727273 -182.747404 
L 123.909091 -182.811549 
L 121.090909 -182.809673 
L 118.272727 -182.757096 
L 115.454545 -182.830402 
L 112.636364 -182.985306 
L 109.818182 -183.268426 
L 107 -183.551545 
L 104.181818 -183.654891 
L 101.363636 -183.927455 
L 98.545455 -184.227611 
L 95.727273 -184.425231 
L 92.909091 -184.444688 
L 90.090909 -184.673322 
L 87.272727 -184.84504 
L 84.454545 -185.147994 
L 81.636364 -185.307721 
L 78.818182 -185.624082 
L 76 -185.891565 
L 73.181818 -185.991213 
L 70.363636 -186.150717 
L 67.545455 -186.459095 
L 64.727273 -186.882671 
L 61.909091 -187.081273 
L 59.090909 -187.440282 
L 56.272727 -187.786756 
L 53.454545 -188.088548 
L 50.636364 -188.39034 
L 47.818182 -188.692132 
L 45 -188.990654 
z
" style="stroke: #ffffff; stroke-opacity: 0.15"/>
    </defs>
    <g clip-path="url(#pb4a785691c)">
     <use xlink:href="#m2513fef26f" x="0" y="288" style="fill: #0000ff; fill-opacity: 0.15; stroke: #ffffff; stroke-opacity: 0.15"/>
    </g>
   </g>
   <g id="PathCollection_2">
    <defs>
     <path id="md49831267c" d="M 0 1.322876 
C 0.350831 1.322876 0.68734 1.183489 0.935414 0.935414 
C 1.183489 0.68734 1.322876 0.350831 1.322876 0 
C 1.322876 -0.350831 1.183489 -0.68734 0.935414 -0.935414 
C 0.68734 -1.183489 0.350831 -1.322876 0 -1.322876 
C -0.350831 -1.322876 -0.68734 -1.183489 -0.935414 -0.935414 
C -1.183489 -0.68734 -1.322876 -0.350831 -1.322876 0 
C -1.322876 0.350831 -1.183489 0.68734 -0.935414 0.935414 
C -0.68734 1.183489 -0.350831 1.322876 0 1.322876 
z
" style="stroke: #ff0000; stroke-opacity: 0.5"/>
    </defs>
    <g clip-path="url(#pb4a785691c)">
     <use xlink:href="#md49831267c" x="88.4" y="48.269517" style="fill: #ff0000; fill-opacity: 0.5; stroke: #ff0000; stroke-opacity: 0.5"/>
     <use xlink:href="#md49831267c" x="107" y="44.64" style="fill: #ff0000; fill-opacity: 0.5; stroke: #ff0000; stroke-opacity: 0.5"/>
     <use xlink:href="#md49831267c" x="100.8" y="160.784559" style="fill: #ff0000; fill-opacity: 0.5; stroke: #ff0000; stroke-opacity: 0.5"/>
     <use xlink:href="#md49831267c" x="63.6" y="80.935175" style="fill: #ff0000; fill-opacity: 0.5; stroke: #ff0000; stroke-opacity: 0.5"/>
     <use xlink:href="#md49831267c" x="206.2" y="178.932147" style="fill: #ff0000; fill-opacity: 0.5; stroke: #ff0000; stroke-opacity: 0.5"/>
     <use xlink:href="#md49831267c" x="150.4" y="200.709251" style="fill: #ff0000; fill-opacity: 0.5; stroke: #ff0000; stroke-opacity: 0.5"/>
     <use xlink:href="#md49831267c" x="119.4" y="149.896007" style="fill: #ff0000; fill-opacity: 0.5; stroke: #ff0000; stroke-opacity: 0.5"/>
     <use xlink:href="#md49831267c" x="150.4" y="171.673112" style="fill: #ff0000; fill-opacity: 0.5; stroke: #ff0000; stroke-opacity: 0.5"/>
     <use xlink:href="#md49831267c" x="237.2" y="157.155042" style="fill: #ff0000; fill-opacity: 0.5; stroke: #ff0000; stroke-opacity: 0.5"/>
     <use xlink:href="#md49831267c" x="249.6" y="182.561664" style="fill: #ff0000; fill-opacity: 0.5; stroke: #ff0000; stroke-opacity: 0.5"/>
     <use xlink:href="#md49831267c" x="187.6" y="142.636972" style="fill: #ff0000; fill-opacity: 0.5; stroke: #ff0000; stroke-opacity: 0.5"/>
     <use xlink:href="#md49831267c" x="181.4" y="124.489384" style="fill: #ff0000; fill-opacity: 0.5; stroke: #ff0000; stroke-opacity: 0.5"/>
     <use xlink:href="#md49831267c" x="156.6" y="175.302629" style="fill: #ff0000; fill-opacity: 0.5; stroke: #ff0000; stroke-opacity: 0.5"/>
     <use xlink:href="#md49831267c" x="206.2" y="142.636972" style="fill: #ff0000; fill-opacity: 0.5; stroke: #ff0000; stroke-opacity: 0.5"/>
     <use xlink:href="#md49831267c" x="162.8" y="160.784559" style="fill: #ff0000; fill-opacity: 0.5; stroke: #ff0000; stroke-opacity: 0.5"/>
     <use xlink:href="#md49831267c" x="262" y="164.414077" style="fill: #ff0000; fill-opacity: 0.5; stroke: #ff0000; stroke-opacity: 0.5"/>
     <use xlink:href="#md49831267c" x="255.8" y="204.338769" style="fill: #ff0000; fill-opacity: 0.5; stroke: #ff0000; stroke-opacity: 0.5"/>
     <use xlink:href="#md49831267c" x="156.6" y="211.597804" style="fill: #ff0000; fill-opacity: 0.5; stroke: #ff0000; stroke-opacity: 0.5"/>
     <use xlink:href="#md49831267c" x="218.6" y="178.932147" style="fill: #ff0000; fill-opacity: 0.5; stroke: #ff0000; stroke-opacity: 0.5"/>
     <use xlink:href="#md49831267c" x="138" y="153.525524" style="fill: #ff0000; fill-opacity: 0.5; stroke: #ff0000; stroke-opacity: 0.5"/>
     <use xlink:href="#md49831267c" x="169" y="120.859867" style="fill: #ff0000; fill-opacity: 0.5; stroke: #ff0000; stroke-opacity: 0.5"/>
     <use xlink:href="#md49831267c" x="162.8" y="142.636972" style="fill: #ff0000; fill-opacity: 0.5; stroke: #ff0000; stroke-opacity: 0.5"/>
     <use xlink:href="#md49831267c" x="293" y="153.525524" style="fill: #ff0000; fill-opacity: 0.5; stroke: #ff0000; stroke-opacity: 0.5"/>
     <use xlink:href="#md49831267c" x="82.2" y="91.823727" style="fill: #ff0000; fill-opacity: 0.5; stroke: #ff0000; stroke-opacity: 0.5"/>
     <use xlink:href="#md49831267c" x="69.8" y="66.417105" style="fill: #ff0000; fill-opacity: 0.5; stroke: #ff0000; stroke-opacity: 0.5"/>
     <use xlink:href="#md49831267c" x="94.6" y="146.266489" style="fill: #ff0000; fill-opacity: 0.5; stroke: #ff0000; stroke-opacity: 0.5"/>
     <use xlink:href="#md49831267c" x="63.6" y="99.082762" style="fill: #ff0000; fill-opacity: 0.5; stroke: #ff0000; stroke-opacity: 0.5"/>
     <use xlink:href="#md49831267c" x="107" y="171.673112" style="fill: #ff0000; fill-opacity: 0.5; stroke: #ff0000; stroke-opacity: 0.5"/>
    </g>
   </g>
   <g id="PolyCollection_2">
    <defs>
     <path id="m64c9136751" d="M 45 -219.430712 
L 45 -147.352058 
L 47.818182 -146.91848 
L 50.636364 -146.581255 
L 53.454545 -146.198626 
L 56.272727 -145.84801 
L 59.090909 -145.503195 
L 61.909091 -145.168404 
L 64.727273 -144.814243 
L 67.545455 -144.362645 
L 70.363636 -143.856387 
L 73.181818 -143.350371 
L 76 -142.848414 
L 78.818182 -142.348909 
L 81.636364 -142.004588 
L 84.454545 -141.707411 
L 87.272727 -141.410235 
L 90.090909 -141.081649 
L 92.909091 -140.657212 
L 95.727273 -140.320572 
L 98.545455 -139.996645 
L 101.363636 -139.485574 
L 104.181818 -138.974502 
L 107 -138.51948 
L 109.818182 -138.039833 
L 112.636364 -137.430207 
L 115.454545 -136.871024 
L 118.272727 -136.407336 
L 121.090909 -135.943103 
L 123.909091 -135.542638 
L 126.727273 -134.8658 
L 129.545455 -134.3543 
L 132.363636 -133.843657 
L 135.181818 -133.405869 
L 138 -132.96808 
L 140.818182 -132.396973 
L 143.636364 -131.932359 
L 146.454545 -131.274587 
L 149.272727 -130.716127 
L 152.090909 -130.250285 
L 154.909091 -129.506231 
L 157.727273 -128.748801 
L 160.545455 -127.87166 
L 163.363636 -127.202412 
L 166.181818 -126.328929 
L 169 -125.435269 
L 171.818182 -124.36371 
L 174.636364 -123.298822 
L 177.454545 -122.431853 
L 180.272727 -121.428489 
L 183.090909 -120.495051 
L 185.909091 -119.515683 
L 188.727273 -118.262544 
L 191.545455 -117.275451 
L 194.363636 -115.676649 
L 197.181818 -114.153109 
L 200 -112.709444 
L 202.818182 -111.206252 
L 205.636364 -109.693962 
L 208.454545 -108.139293 
L 211.272727 -106.613695 
L 214.090909 -104.974488 
L 216.909091 -103.266336 
L 219.727273 -101.558183 
L 222.545455 -99.890358 
L 225.363636 -98.254569 
L 228.181818 -96.61878 
L 231 -94.982991 
L 233.818182 -93.354823 
L 236.636364 -91.982647 
L 239.454545 -90.297704 
L 242.272727 -88.736953 
L 245.090909 -87.396484 
L 247.909091 -86.058535 
L 250.727273 -84.351749 
L 253.545455 -82.95673 
L 256.363636 -81.234908 
L 259.181818 -79.792343 
L 262 -78.231715 
L 264.818182 -76.499699 
L 267.636364 -74.769056 
L 270.454545 -73.266713 
L 273.272727 -71.921026 
L 276.090909 -70.326652 
L 278.909091 -68.734669 
L 281.727273 -67.052384 
L 284.545455 -65.447907 
L 287.363636 -63.777428 
L 290.181818 -62.081066 
L 293 -60.392556 
L 295.818182 -58.877054 
L 298.636364 -57.426821 
L 301.454545 -55.810251 
L 304.272727 -54.05397 
L 307.090909 -52.297688 
L 309.909091 -50.541407 
L 312.727273 -48.785126 
L 315.545455 -47.028844 
L 318.363636 -45.272563 
L 321.181818 -43.516281 
L 324 -41.76 
L 324 -111.367748 
L 324 -111.367748 
L 321.181818 -111.704912 
L 318.363636 -112.042076 
L 315.545455 -112.37924 
L 312.727273 -112.716404 
L 309.909091 -113.053568 
L 307.090909 -113.401727 
L 304.272727 -113.730993 
L 301.454545 -114.132447 
L 298.636364 -114.786784 
L 295.818182 -115.348159 
L 293 -115.893203 
L 290.181818 -116.560227 
L 287.363636 -117.149643 
L 284.545455 -117.528336 
L 281.727273 -117.987572 
L 278.909091 -118.627658 
L 276.090909 -119.178867 
L 273.272727 -119.729767 
L 270.454545 -120.151279 
L 267.636364 -120.820525 
L 264.818182 -121.307864 
L 262 -121.552783 
L 259.181818 -122.092399 
L 256.363636 -122.670621 
L 253.545455 -123.197201 
L 250.727273 -123.694531 
L 247.909091 -124.496156 
L 245.090909 -125.260352 
L 242.272727 -126.115142 
L 239.454545 -126.896886 
L 236.636364 -127.87891 
L 233.818182 -128.460824 
L 231 -128.991334 
L 228.181818 -129.541465 
L 225.363636 -130.391313 
L 222.545455 -131.248568 
L 219.727273 -131.888159 
L 216.909091 -132.951373 
L 214.090909 -133.798068 
L 211.272727 -134.838063 
L 208.454545 -135.742904 
L 205.636364 -136.958917 
L 202.818182 -138.033116 
L 200 -139.186392 
L 197.181818 -140.275047 
L 194.363636 -141.334805 
L 191.545455 -142.457419 
L 188.727273 -143.755424 
L 185.909091 -145.013099 
L 183.090909 -146.407282 
L 180.272727 -147.732535 
L 177.454545 -149.050463 
L 174.636364 -150.28344 
L 171.818182 -151.651983 
L 169 -152.823635 
L 166.181818 -154.100446 
L 163.363636 -155.468677 
L 160.545455 -156.747075 
L 157.727273 -158.128455 
L 154.909091 -159.622808 
L 152.090909 -161.055508 
L 149.272727 -162.45828 
L 146.454545 -163.653539 
L 143.636364 -165.017553 
L 140.818182 -166.348498 
L 138 -167.77657 
L 135.181818 -169.071971 
L 132.363636 -170.665345 
L 129.545455 -172.111859 
L 126.727273 -173.634915 
L 123.909091 -175.159468 
L 121.090909 -176.633897 
L 118.272727 -178.187052 
L 115.454545 -179.747792 
L 112.636364 -181.315186 
L 109.818182 -182.876885 
L 107 -184.438583 
L 104.181818 -185.952214 
L 101.363636 -187.419259 
L 98.545455 -189.146988 
L 95.727273 -190.718242 
L 92.909091 -192.838453 
L 90.090909 -194.290777 
L 87.272727 -195.679086 
L 84.454545 -197.067396 
L 81.636364 -198.530631 
L 78.818182 -200.473612 
L 76 -202.193012 
L 73.181818 -203.719372 
L 70.363636 -205.594303 
L 67.545455 -207.056156 
L 64.727273 -208.694802 
L 61.909091 -210.227674 
L 59.090909 -211.668991 
L 56.272727 -213.241132 
L 53.454545 -214.67069 
L 50.636364 -216.302977 
L 47.818182 -217.894004 
L 45 -219.430712 
z
" style="stroke: #ffffff; stroke-opacity: 0.15"/>
    </defs>
    <g clip-path="url(#pb4a785691c)">
     <use xlink:href="#m64c9136751" x="0" y="288" style="fill: #ff0000; fill-opacity: 0.15; stroke: #ffffff; stroke-opacity: 0.15"/>
    </g>
   </g>
   <g id="line2d_12">
    <path d="M 45 122.568305 
L 47.818182 122.401006 
L 50.636364 122.233708 
L 53.454545 122.066409 
L 56.272727 121.89911 
L 59.090909 121.731811 
L 61.909091 121.564512 
L 64.727273 121.397214 
L 67.545455 121.229915 
L 70.363636 121.062616 
L 73.181818 120.895317 
L 76 120.728019 
L 78.818182 120.56072 
L 81.636364 120.393421 
L 84.454545 120.226122 
L 87.272727 120.058823 
L 90.090909 119.891525 
L 92.909091 119.724226 
L 95.727273 119.556927 
L 98.545455 119.389628 
L 101.363636 119.222329 
L 104.181818 119.055031 
L 107 118.887732 
L 109.818182 118.720433 
L 112.636364 118.553134 
L 115.454545 118.385835 
L 118.272727 118.218537 
L 121.090909 118.051238 
L 123.909091 117.883939 
L 126.727273 117.71664 
L 129.545455 117.549342 
L 132.363636 117.382043 
L 135.181818 117.214744 
L 138 117.047445 
L 140.818182 116.880146 
L 143.636364 116.712848 
L 146.454545 116.545549 
L 149.272727 116.37825 
L 152.090909 116.210951 
L 154.909091 116.043652 
L 157.727273 115.876354 
L 160.545455 115.709055 
L 163.363636 115.541756 
L 166.181818 115.374457 
L 169 115.207158 
L 171.818182 115.03986 
L 174.636364 114.872561 
L 177.454545 114.705262 
L 180.272727 114.537963 
L 183.090909 114.370665 
L 185.909091 114.203366 
L 188.727273 114.036067 
L 191.545455 113.868768 
L 194.363636 113.701469 
L 197.181818 113.534171 
L 200 113.366872 
L 202.818182 113.199573 
L 205.636364 113.032274 
L 208.454545 112.864975 
L 211.272727 112.697677 
L 214.090909 112.530378 
L 216.909091 112.363079 
L 219.727273 112.19578 
L 222.545455 112.028481 
L 225.363636 111.861183 
L 228.181818 111.693884 
L 231 111.526585 
L 233.818182 111.359286 
L 236.636364 111.191988 
L 239.454545 111.024689 
L 242.272727 110.85739 
L 245.090909 110.690091 
L 247.909091 110.522792 
L 250.727273 110.355494 
L 253.545455 110.188195 
L 256.363636 110.020896 
L 259.181818 109.853597 
L 262 109.686298 
L 264.818182 109.519 
L 267.636364 109.351701 
L 270.454545 109.184402 
L 273.272727 109.017103 
L 276.090909 108.849805 
L 278.909091 108.682506 
L 281.727273 108.515207 
L 284.545455 108.347908 
L 287.363636 108.180609 
L 290.181818 108.013311 
L 293 107.846012 
L 295.818182 107.678713 
L 298.636364 107.511414 
L 301.454545 107.344115 
L 304.272727 107.176817 
L 307.090909 107.009518 
L 309.909091 106.842219 
L 312.727273 106.67492 
L 315.545455 106.507621 
L 318.363636 106.340323 
L 321.181818 106.173024 
L 324 106.005725 
" clip-path="url(#pb4a785691c)" style="fill: none; stroke: #0000ff; stroke-width: 2.25; stroke-linecap: round"/>
   </g>
   <g id="line2d_13">
    <path d="M 45 101.688174 
L 47.818182 102.753811 
L 50.636364 103.819447 
L 53.454545 104.885083 
L 56.272727 105.950719 
L 59.090909 107.016355 
L 61.909091 108.081991 
L 64.727273 109.147627 
L 67.545455 110.213263 
L 70.363636 111.278899 
L 73.181818 112.344535 
L 76 113.410171 
L 78.818182 114.475807 
L 81.636364 115.541443 
L 84.454545 116.607079 
L 87.272727 117.672716 
L 90.090909 118.738352 
L 92.909091 119.803988 
L 95.727273 120.869624 
L 98.545455 121.93526 
L 101.363636 123.000896 
L 104.181818 124.066532 
L 107 125.132168 
L 109.818182 126.197804 
L 112.636364 127.26344 
L 115.454545 128.329076 
L 118.272727 129.394712 
L 121.090909 130.460348 
L 123.909091 131.525985 
L 126.727273 132.591621 
L 129.545455 133.657257 
L 132.363636 134.722893 
L 135.181818 135.788529 
L 138 136.854165 
L 140.818182 137.919801 
L 143.636364 138.985437 
L 146.454545 140.051073 
L 149.272727 141.116709 
L 152.090909 142.182345 
L 154.909091 143.247981 
L 157.727273 144.313617 
L 160.545455 145.379253 
L 163.363636 146.44489 
L 166.181818 147.510526 
L 169 148.576162 
L 171.818182 149.641798 
L 174.636364 150.707434 
L 177.454545 151.77307 
L 180.272727 152.838706 
L 183.090909 153.904342 
L 185.909091 154.969978 
L 188.727273 156.035614 
L 191.545455 157.10125 
L 194.363636 158.166886 
L 197.181818 159.232522 
L 200 160.298158 
L 202.818182 161.363795 
L 205.636364 162.429431 
L 208.454545 163.495067 
L 211.272727 164.560703 
L 214.090909 165.626339 
L 216.909091 166.691975 
L 219.727273 167.757611 
L 222.545455 168.823247 
L 225.363636 169.888883 
L 228.181818 170.954519 
L 231 172.020155 
L 233.818182 173.085791 
L 236.636364 174.151427 
L 239.454545 175.217064 
L 242.272727 176.2827 
L 245.090909 177.348336 
L 247.909091 178.413972 
L 250.727273 179.479608 
L 253.545455 180.545244 
L 256.363636 181.61088 
L 259.181818 182.676516 
L 262 183.742152 
L 264.818182 184.807788 
L 267.636364 185.873424 
L 270.454545 186.93906 
L 273.272727 188.004696 
L 276.090909 189.070332 
L 278.909091 190.135969 
L 281.727273 191.201605 
L 284.545455 192.267241 
L 287.363636 193.332877 
L 290.181818 194.398513 
L 293 195.464149 
L 295.818182 196.529785 
L 298.636364 197.595421 
L 301.454545 198.661057 
L 304.272727 199.726693 
L 307.090909 200.792329 
L 309.909091 201.857965 
L 312.727273 202.923601 
L 315.545455 203.989237 
L 318.363636 205.054874 
L 321.181818 206.12051 
L 324 207.186146 
" clip-path="url(#pb4a785691c)" style="fill: none; stroke: #ff0000; stroke-width: 2.25; stroke-linecap: round"/>
   </g>
   <g id="patch_3">
    <path d="M 45 256.32 
L 45 34.56 
" style="fill: none; stroke: #ffffff; stroke-width: 0.8; stroke-linejoin: miter; stroke-linecap: square"/>
   </g>
   <g id="patch_4">
    <path d="M 324 256.32 
L 324 34.56 
" style="fill: none; stroke: #ffffff; stroke-width: 0.8; stroke-linejoin: miter; stroke-linecap: square"/>
   </g>
   <g id="patch_5">
    <path d="M 45 256.32 
L 324 256.32 
" style="fill: none; stroke: #ffffff; stroke-width: 0.8; stroke-linejoin: miter; stroke-linecap: square"/>
   </g>
   <g id="patch_6">
    <path d="M 45 34.56 
L 324 34.56 
" style="fill: none; stroke: #ffffff; stroke-width: 0.8; stroke-linejoin: miter; stroke-linecap: square"/>
   </g>
   <g id="text_12">
    <!-- BDI -->
    <g style="fill: #262626" transform="translate(169.000313 28.56)scale(0.18 -0.18)">
     <defs>
      <path id="Arial-BoldMT-42" d="M 469 4581 
L 2300 4581 
Q 2844 4581 3111 4536 
Q 3378 4491 3589 4347 
Q 3800 4203 3940 3964 
Q 4081 3725 4081 3428 
Q 4081 3106 3907 2837 
Q 3734 2569 3438 2434 
Q 3856 2313 4081 2019 
Q 4306 1725 4306 1328 
Q 4306 1016 4161 720 
Q 4016 425 3764 248 
Q 3513 72 3144 31 
Q 2913 6 2028 0 
L 469 0 
L 469 4581 
z
M 1394 3819 
L 1394 2759 
L 2000 2759 
Q 2541 2759 2672 2775 
Q 2909 2803 3045 2939 
Q 3181 3075 3181 3297 
Q 3181 3509 3064 3642 
Q 2947 3775 2716 3803 
Q 2578 3819 1925 3819 
L 1394 3819 
z
M 1394 1997 
L 1394 772 
L 2250 772 
Q 2750 772 2884 800 
Q 3091 838 3220 983 
Q 3350 1128 3350 1372 
Q 3350 1578 3250 1722 
Q 3150 1866 2961 1931 
Q 2772 1997 2141 1997 
L 1394 1997 
z
" transform="scale(0.015625)"/>
      <path id="Arial-BoldMT-44" d="M 463 4581 
L 2153 4581 
Q 2725 4581 3025 4494 
Q 3428 4375 3715 4072 
Q 4003 3769 4153 3330 
Q 4303 2891 4303 2247 
Q 4303 1681 4163 1272 
Q 3991 772 3672 463 
Q 3431 228 3022 97 
Q 2716 0 2203 0 
L 463 0 
L 463 4581 
z
M 1388 3806 
L 1388 772 
L 2078 772 
Q 2466 772 2638 816 
Q 2863 872 3011 1006 
Q 3159 1141 3253 1448 
Q 3347 1756 3347 2288 
Q 3347 2819 3253 3103 
Q 3159 3388 2990 3547 
Q 2822 3706 2563 3763 
Q 2369 3806 1803 3806 
L 1388 3806 
z
" transform="scale(0.015625)"/>
      <path id="Arial-BoldMT-49" d="M 438 0 
L 438 4581 
L 1363 4581 
L 1363 0 
L 438 0 
z
" transform="scale(0.015625)"/>
     </defs>
     <use xlink:href="#Arial-BoldMT-42"/>
     <use xlink:href="#Arial-BoldMT-44" x="72.216797"/>
     <use xlink:href="#Arial-BoldMT-49" x="144.433594"/>
    </g>
   </g>
  </g>
 </g>
 <defs>
  <clipPath id="pb4a785691c">
   <rect x="45" y="34.56" width="279" height="221.76"/>
  </clipPath>
 </defs>
</svg>
