<?xml version="1.0" encoding="utf-8" standalone="no"?>
<!DOCTYPE svg PUBLIC "-//W3C//DTD SVG 1.1//EN"
  "http://www.w3.org/Graphics/SVG/1.1/DTD/svg11.dtd">
<svg xmlns:xlink="http://www.w3.org/1999/xlink" width="360pt" height="288pt" viewBox="0 0 360 288" xmlns="http://www.w3.org/2000/svg" version="1.1">
 <metadata>
  <rdf:RDF xmlns:dc="http://purl.org/dc/elements/1.1/" xmlns:cc="http://creativecommons.org/ns#" xmlns:rdf="http://www.w3.org/1999/02/22-rdf-syntax-ns#">
   <cc:Work>
    <dc:type rdf:resource="http://purl.org/dc/dcmitype/StillImage"/>
    <dc:date>2022-11-10T09:40:08.166109</dc:date>
    <dc:format>image/svg+xml</dc:format>
    <dc:creator>
     <cc:Agent>
      <dc:title>Matplotlib v3.5.2, https://matplotlib.org/</dc:title>
     </cc:Agent>
    </dc:creator>
   </cc:Work>
  </rdf:RDF>
 </metadata>
 <defs>
  <style type="text/css">*{stroke-linejoin: round; stroke-linecap: butt}</style>
 </defs>
 <g id="figure_1">
  <g id="patch_1">
   <path d="M 0 288 
L 360 288 
L 360 0 
L 0 0 
z
" style="fill: #ffffff"/>
  </g>
  <g id="axes_1">
   <g id="patch_2">
    <path d="M 45 256.32 
L 324 256.32 
L 324 34.56 
L 45 34.56 
z
" style="fill: #eaeaf2"/>
   </g>
   <g id="matplotlib.axis_1">
    <g id="xtick_1">
     <g id="line2d_1">
      <path d="M 76 256.32 
L 76 34.56 
" clip-path="url(#pf6913bf7b7)" style="fill: none; stroke: #ffffff; stroke-width: 0.8; stroke-linecap: round"/>
     </g>
     <g id="text_1">
      <!-- 30 -->
      <g style="fill: #262626" transform="translate(68.214687 273.340937)scale(0.14 -0.14)">
       <defs>
        <path id="ArialMT-33" d="M 269 1209 
L 831 1284 
Q 928 806 1161 595 
Q 1394 384 1728 384 
Q 2125 384 2398 659 
Q 2672 934 2672 1341 
Q 2672 1728 2419 1979 
Q 2166 2231 1775 2231 
Q 1616 2231 1378 2169 
L 1441 2663 
Q 1497 2656 1531 2656 
Q 1891 2656 2178 2843 
Q 2466 3031 2466 3422 
Q 2466 3731 2256 3934 
Q 2047 4138 1716 4138 
Q 1388 4138 1169 3931 
Q 950 3725 888 3313 
L 325 3413 
Q 428 3978 793 4289 
Q 1159 4600 1703 4600 
Q 2078 4600 2393 4439 
Q 2709 4278 2876 4000 
Q 3044 3722 3044 3409 
Q 3044 3113 2884 2869 
Q 2725 2625 2413 2481 
Q 2819 2388 3044 2092 
Q 3269 1797 3269 1353 
Q 3269 753 2831 336 
Q 2394 -81 1725 -81 
Q 1122 -81 723 278 
Q 325 638 269 1209 
z
" transform="scale(0.015625)"/>
        <path id="ArialMT-30" d="M 266 2259 
Q 266 3072 433 3567 
Q 600 4063 929 4331 
Q 1259 4600 1759 4600 
Q 2128 4600 2406 4451 
Q 2684 4303 2865 4023 
Q 3047 3744 3150 3342 
Q 3253 2941 3253 2259 
Q 3253 1453 3087 958 
Q 2922 463 2592 192 
Q 2263 -78 1759 -78 
Q 1097 -78 719 397 
Q 266 969 266 2259 
z
M 844 2259 
Q 844 1131 1108 757 
Q 1372 384 1759 384 
Q 2147 384 2411 759 
Q 2675 1134 2675 2259 
Q 2675 3391 2411 3762 
Q 2147 4134 1753 4134 
Q 1366 4134 1134 3806 
Q 844 3388 844 2259 
z
" transform="scale(0.015625)"/>
       </defs>
       <use xlink:href="#ArialMT-33"/>
       <use xlink:href="#ArialMT-30" x="55.615234"/>
      </g>
     </g>
    </g>
    <g id="xtick_2">
     <g id="line2d_2">
      <path d="M 138 256.32 
L 138 34.56 
" clip-path="url(#pf6913bf7b7)" style="fill: none; stroke: #ffffff; stroke-width: 0.8; stroke-linecap: round"/>
     </g>
     <g id="text_2">
      <!-- 40 -->
      <g style="fill: #262626" transform="translate(130.214687 273.340937)scale(0.14 -0.14)">
       <defs>
        <path id="ArialMT-34" d="M 2069 0 
L 2069 1097 
L 81 1097 
L 81 1613 
L 2172 4581 
L 2631 4581 
L 2631 1613 
L 3250 1613 
L 3250 1097 
L 2631 1097 
L 2631 0 
L 2069 0 
z
M 2069 1613 
L 2069 3678 
L 634 1613 
L 2069 1613 
z
" transform="scale(0.015625)"/>
       </defs>
       <use xlink:href="#ArialMT-34"/>
       <use xlink:href="#ArialMT-30" x="55.615234"/>
      </g>
     </g>
    </g>
    <g id="xtick_3">
     <g id="line2d_3">
      <path d="M 200 256.32 
L 200 34.56 
" clip-path="url(#pf6913bf7b7)" style="fill: none; stroke: #ffffff; stroke-width: 0.8; stroke-linecap: round"/>
     </g>
     <g id="text_3">
      <!-- 50 -->
      <g style="fill: #262626" transform="translate(192.214687 273.340937)scale(0.14 -0.14)">
       <defs>
        <path id="ArialMT-35" d="M 266 1200 
L 856 1250 
Q 922 819 1161 601 
Q 1400 384 1738 384 
Q 2144 384 2425 690 
Q 2706 997 2706 1503 
Q 2706 1984 2436 2262 
Q 2166 2541 1728 2541 
Q 1456 2541 1237 2417 
Q 1019 2294 894 2097 
L 366 2166 
L 809 4519 
L 3088 4519 
L 3088 3981 
L 1259 3981 
L 1013 2750 
Q 1425 3038 1878 3038 
Q 2478 3038 2890 2622 
Q 3303 2206 3303 1553 
Q 3303 931 2941 478 
Q 2500 -78 1738 -78 
Q 1113 -78 717 272 
Q 322 622 266 1200 
z
" transform="scale(0.015625)"/>
       </defs>
       <use xlink:href="#ArialMT-35"/>
       <use xlink:href="#ArialMT-30" x="55.615234"/>
      </g>
     </g>
    </g>
    <g id="xtick_4">
     <g id="line2d_4">
      <path d="M 262 256.32 
L 262 34.56 
" clip-path="url(#pf6913bf7b7)" style="fill: none; stroke: #ffffff; stroke-width: 0.8; stroke-linecap: round"/>
     </g>
     <g id="text_4">
      <!-- 60 -->
      <g style="fill: #262626" transform="translate(254.214687 273.340937)scale(0.14 -0.14)">
       <defs>
        <path id="ArialMT-36" d="M 3184 3459 
L 2625 3416 
Q 2550 3747 2413 3897 
Q 2184 4138 1850 4138 
Q 1581 4138 1378 3988 
Q 1113 3794 959 3422 
Q 806 3050 800 2363 
Q 1003 2672 1297 2822 
Q 1591 2972 1913 2972 
Q 2475 2972 2870 2558 
Q 3266 2144 3266 1488 
Q 3266 1056 3080 686 
Q 2894 316 2569 119 
Q 2244 -78 1831 -78 
Q 1128 -78 684 439 
Q 241 956 241 2144 
Q 241 3472 731 4075 
Q 1159 4600 1884 4600 
Q 2425 4600 2770 4297 
Q 3116 3994 3184 3459 
z
M 888 1484 
Q 888 1194 1011 928 
Q 1134 663 1356 523 
Q 1578 384 1822 384 
Q 2178 384 2434 671 
Q 2691 959 2691 1453 
Q 2691 1928 2437 2201 
Q 2184 2475 1800 2475 
Q 1419 2475 1153 2201 
Q 888 1928 888 1484 
z
" transform="scale(0.015625)"/>
       </defs>
       <use xlink:href="#ArialMT-36"/>
       <use xlink:href="#ArialMT-30" x="55.615234"/>
      </g>
     </g>
    </g>
    <g id="xtick_5">
     <g id="line2d_5">
      <path d="M 324 256.32 
L 324 34.56 
" clip-path="url(#pf6913bf7b7)" style="fill: none; stroke: #ffffff; stroke-width: 0.8; stroke-linecap: round"/>
     </g>
     <g id="text_5">
      <!-- 70 -->
      <g style="fill: #262626" transform="translate(316.214688 273.340937)scale(0.14 -0.14)">
       <defs>
        <path id="ArialMT-37" d="M 303 3981 
L 303 4522 
L 3269 4522 
L 3269 4084 
Q 2831 3619 2401 2847 
Q 1972 2075 1738 1259 
Q 1569 684 1522 0 
L 944 0 
Q 953 541 1156 1306 
Q 1359 2072 1739 2783 
Q 2119 3494 2547 3981 
L 303 3981 
z
" transform="scale(0.015625)"/>
       </defs>
       <use xlink:href="#ArialMT-37"/>
       <use xlink:href="#ArialMT-30" x="55.615234"/>
      </g>
     </g>
    </g>
   </g>
   <g id="matplotlib.axis_2">
    <g id="ytick_1">
     <g id="line2d_6">
      <path d="M 45 254.696968 
L 324 254.696968 
" clip-path="url(#pf6913bf7b7)" style="fill: none; stroke: #ffffff; stroke-width: 0.8; stroke-linecap: round"/>
     </g>
     <g id="text_6">
      <!-- −40 -->
      <g style="fill: #262626" transform="translate(14.2525 259.707437)scale(0.14 -0.14)">
       <defs>
        <path id="ArialMT-2212" d="M 3381 1997 
L 356 1997 
L 356 2522 
L 3381 2522 
L 3381 1997 
z
" transform="scale(0.015625)"/>
       </defs>
       <use xlink:href="#ArialMT-2212"/>
       <use xlink:href="#ArialMT-34" x="58.398438"/>
       <use xlink:href="#ArialMT-30" x="114.013672"/>
      </g>
     </g>
    </g>
    <g id="ytick_2">
     <g id="line2d_7">
      <path d="M 45 212.685574 
L 324 212.685574 
" clip-path="url(#pf6913bf7b7)" style="fill: none; stroke: #ffffff; stroke-width: 0.8; stroke-linecap: round"/>
     </g>
     <g id="text_7">
      <!-- −30 -->
      <g style="fill: #262626" transform="translate(14.2525 217.696043)scale(0.14 -0.14)">
       <use xlink:href="#ArialMT-2212"/>
       <use xlink:href="#ArialMT-33" x="58.398438"/>
       <use xlink:href="#ArialMT-30" x="114.013672"/>
      </g>
     </g>
    </g>
    <g id="ytick_3">
     <g id="line2d_8">
      <path d="M 45 170.674181 
L 324 170.674181 
" clip-path="url(#pf6913bf7b7)" style="fill: none; stroke: #ffffff; stroke-width: 0.8; stroke-linecap: round"/>
     </g>
     <g id="text_8">
      <!-- −20 -->
      <g style="fill: #262626" transform="translate(14.2525 175.684649)scale(0.14 -0.14)">
       <defs>
        <path id="ArialMT-32" d="M 3222 541 
L 3222 0 
L 194 0 
Q 188 203 259 391 
Q 375 700 629 1000 
Q 884 1300 1366 1694 
Q 2113 2306 2375 2664 
Q 2638 3022 2638 3341 
Q 2638 3675 2398 3904 
Q 2159 4134 1775 4134 
Q 1369 4134 1125 3890 
Q 881 3647 878 3216 
L 300 3275 
Q 359 3922 746 4261 
Q 1134 4600 1788 4600 
Q 2447 4600 2831 4234 
Q 3216 3869 3216 3328 
Q 3216 3053 3103 2787 
Q 2991 2522 2730 2228 
Q 2469 1934 1863 1422 
Q 1356 997 1212 845 
Q 1069 694 975 541 
L 3222 541 
z
" transform="scale(0.015625)"/>
       </defs>
       <use xlink:href="#ArialMT-2212"/>
       <use xlink:href="#ArialMT-32" x="58.398438"/>
       <use xlink:href="#ArialMT-30" x="114.013672"/>
      </g>
     </g>
    </g>
    <g id="ytick_4">
     <g id="line2d_9">
      <path d="M 45 128.662787 
L 324 128.662787 
" clip-path="url(#pf6913bf7b7)" style="fill: none; stroke: #ffffff; stroke-width: 0.8; stroke-linecap: round"/>
     </g>
     <g id="text_9">
      <!-- −10 -->
      <g style="fill: #262626" transform="translate(14.2525 133.673256)scale(0.14 -0.14)">
       <defs>
        <path id="ArialMT-31" d="M 2384 0 
L 1822 0 
L 1822 3584 
Q 1619 3391 1289 3197 
Q 959 3003 697 2906 
L 697 3450 
Q 1169 3672 1522 3987 
Q 1875 4303 2022 4600 
L 2384 4600 
L 2384 0 
z
" transform="scale(0.015625)"/>
       </defs>
       <use xlink:href="#ArialMT-2212"/>
       <use xlink:href="#ArialMT-31" x="58.398438"/>
       <use xlink:href="#ArialMT-30" x="114.013672"/>
      </g>
     </g>
    </g>
    <g id="ytick_5">
     <g id="line2d_10">
      <path d="M 45 86.651394 
L 324 86.651394 
" clip-path="url(#pf6913bf7b7)" style="fill: none; stroke: #ffffff; stroke-width: 0.8; stroke-linecap: round"/>
     </g>
     <g id="text_10">
      <!-- 0 -->
      <g style="fill: #262626" transform="translate(30.214688 91.661862)scale(0.14 -0.14)">
       <use xlink:href="#ArialMT-30"/>
      </g>
     </g>
    </g>
    <g id="ytick_6">
     <g id="line2d_11">
      <path d="M 45 44.64 
L 324 44.64 
" clip-path="url(#pf6913bf7b7)" style="fill: none; stroke: #ffffff; stroke-width: 0.8; stroke-linecap: round"/>
     </g>
     <g id="text_11">
      <!-- 10 -->
      <g style="fill: #262626" transform="translate(22.429375 49.650469)scale(0.14 -0.14)">
       <use xlink:href="#ArialMT-31"/>
       <use xlink:href="#ArialMT-30" x="55.615234"/>
      </g>
     </g>
    </g>
   </g>
   <g id="PathCollection_1">
    <defs>
     <path id="mf420c9ea37" d="M 0 1.322876 
C 0.350831 1.322876 0.68734 1.183489 0.935414 0.935414 
C 1.183489 0.68734 1.322876 0.350831 1.322876 0 
C 1.322876 -0.350831 1.183489 -0.68734 0.935414 -0.935414 
C 0.68734 -1.183489 0.350831 -1.322876 0 -1.322876 
C -0.350831 -1.322876 -0.68734 -1.183489 -0.935414 -0.935414 
C -1.183489 -0.68734 -1.322876 -0.350831 -1.322876 0 
C -1.322876 0.350831 -1.183489 0.68734 -0.935414 0.935414 
C -0.68734 1.183489 -0.350831 1.322876 0 1.322876 
z
" style="stroke: #0000ff; stroke-opacity: 0.5"/>
    </defs>
    <g clip-path="url(#pf6913bf7b7)">
     <use xlink:href="#mf420c9ea37" x="119.4" y="170.674181" style="fill: #0000ff; fill-opacity: 0.5; stroke: #0000ff; stroke-opacity: 0.5"/>
     <use xlink:href="#mf420c9ea37" x="76" y="120.260508" style="fill: #0000ff; fill-opacity: 0.5; stroke: #0000ff; stroke-opacity: 0.5"/>
     <use xlink:href="#mf420c9ea37" x="100.8" y="145.467345" style="fill: #0000ff; fill-opacity: 0.5; stroke: #0000ff; stroke-opacity: 0.5"/>
     <use xlink:href="#mf420c9ea37" x="131.8" y="103.455951" style="fill: #0000ff; fill-opacity: 0.5; stroke: #0000ff; stroke-opacity: 0.5"/>
     <use xlink:href="#mf420c9ea37" x="317.8" y="90.852533" style="fill: #0000ff; fill-opacity: 0.5; stroke: #0000ff; stroke-opacity: 0.5"/>
     <use xlink:href="#mf420c9ea37" x="125.6" y="128.662787" style="fill: #0000ff; fill-opacity: 0.5; stroke: #0000ff; stroke-opacity: 0.5"/>
     <use xlink:href="#mf420c9ea37" x="131.8" y="116.059369" style="fill: #0000ff; fill-opacity: 0.5; stroke: #0000ff; stroke-opacity: 0.5"/>
     <use xlink:href="#mf420c9ea37" x="156.6" y="95.053672" style="fill: #0000ff; fill-opacity: 0.5; stroke: #0000ff; stroke-opacity: 0.5"/>
     <use xlink:href="#mf420c9ea37" x="193.8" y="53.042279" style="fill: #0000ff; fill-opacity: 0.5; stroke: #0000ff; stroke-opacity: 0.5"/>
     <use xlink:href="#mf420c9ea37" x="200" y="158.070763" style="fill: #0000ff; fill-opacity: 0.5; stroke: #0000ff; stroke-opacity: 0.5"/>
     <use xlink:href="#mf420c9ea37" x="156.6" y="116.059369" style="fill: #0000ff; fill-opacity: 0.5; stroke: #0000ff; stroke-opacity: 0.5"/>
     <use xlink:href="#mf420c9ea37" x="212.4" y="90.852533" style="fill: #0000ff; fill-opacity: 0.5; stroke: #0000ff; stroke-opacity: 0.5"/>
     <use xlink:href="#mf420c9ea37" x="138" y="141.266205" style="fill: #0000ff; fill-opacity: 0.5; stroke: #0000ff; stroke-opacity: 0.5"/>
     <use xlink:href="#mf420c9ea37" x="107" y="95.053672" style="fill: #0000ff; fill-opacity: 0.5; stroke: #0000ff; stroke-opacity: 0.5"/>
     <use xlink:href="#mf420c9ea37" x="175.2" y="141.266205" style="fill: #0000ff; fill-opacity: 0.5; stroke: #0000ff; stroke-opacity: 0.5"/>
     <use xlink:href="#mf420c9ea37" x="268.2" y="61.444557" style="fill: #0000ff; fill-opacity: 0.5; stroke: #0000ff; stroke-opacity: 0.5"/>
     <use xlink:href="#mf420c9ea37" x="218.6" y="74.047975" style="fill: #0000ff; fill-opacity: 0.5; stroke: #0000ff; stroke-opacity: 0.5"/>
     <use xlink:href="#mf420c9ea37" x="82.2" y="74.047975" style="fill: #0000ff; fill-opacity: 0.5; stroke: #0000ff; stroke-opacity: 0.5"/>
     <use xlink:href="#mf420c9ea37" x="113.2" y="149.668484" style="fill: #0000ff; fill-opacity: 0.5; stroke: #0000ff; stroke-opacity: 0.5"/>
     <use xlink:href="#mf420c9ea37" x="138" y="128.662787" style="fill: #0000ff; fill-opacity: 0.5; stroke: #0000ff; stroke-opacity: 0.5"/>
     <use xlink:href="#mf420c9ea37" x="156.6" y="95.053672" style="fill: #0000ff; fill-opacity: 0.5; stroke: #0000ff; stroke-opacity: 0.5"/>
     <use xlink:href="#mf420c9ea37" x="237.2" y="53.042279" style="fill: #0000ff; fill-opacity: 0.5; stroke: #0000ff; stroke-opacity: 0.5"/>
     <use xlink:href="#mf420c9ea37" x="237.2" y="137.065066" style="fill: #0000ff; fill-opacity: 0.5; stroke: #0000ff; stroke-opacity: 0.5"/>
     <use xlink:href="#mf420c9ea37" x="162.8" y="183.277599" style="fill: #0000ff; fill-opacity: 0.5; stroke: #0000ff; stroke-opacity: 0.5"/>
     <use xlink:href="#mf420c9ea37" x="249.6" y="103.455951" style="fill: #0000ff; fill-opacity: 0.5; stroke: #0000ff; stroke-opacity: 0.5"/>
     <use xlink:href="#mf420c9ea37" x="243.4" y="132.863926" style="fill: #0000ff; fill-opacity: 0.5; stroke: #0000ff; stroke-opacity: 0.5"/>
     <use xlink:href="#mf420c9ea37" x="255.8" y="99.254812" style="fill: #0000ff; fill-opacity: 0.5; stroke: #0000ff; stroke-opacity: 0.5"/>
    </g>
   </g>
   <g id="PolyCollection_1">
    <defs>
     <path id="ma40366dfa8" d="M 45 -178.182205 
L 45 -120.225619 
L 47.818182 -121.194503 
L 50.636364 -122.387456 
L 53.454545 -123.621945 
L 56.272727 -124.856434 
L 59.090909 -126.049201 
L 61.909091 -127.068688 
L 64.727273 -128.321721 
L 67.545455 -129.501152 
L 70.363636 -130.557109 
L 73.181818 -131.538515 
L 76 -132.762062 
L 78.818182 -134.07282 
L 81.636364 -135.100818 
L 84.454545 -136.310554 
L 87.272727 -137.536418 
L 90.090909 -138.700519 
L 92.909091 -139.755884 
L 95.727273 -140.638077 
L 98.545455 -141.427372 
L 101.363636 -142.259772 
L 104.181818 -143.2697 
L 107 -144.039657 
L 109.818182 -144.779307 
L 112.636364 -145.461092 
L 115.454545 -146.339641 
L 118.272727 -147.458383 
L 121.090909 -148.480719 
L 123.909091 -149.294126 
L 126.727273 -150.05119 
L 129.545455 -150.925984 
L 132.363636 -151.86352 
L 135.181818 -152.554236 
L 138 -153.119393 
L 140.818182 -153.769273 
L 143.636364 -154.623178 
L 146.454545 -155.463586 
L 149.272727 -156.151558 
L 152.090909 -156.792645 
L 154.909091 -157.399511 
L 157.727273 -158.089771 
L 160.545455 -158.78158 
L 163.363636 -159.461593 
L 166.181818 -159.894079 
L 169 -160.366652 
L 171.818182 -160.845566 
L 174.636364 -161.185171 
L 177.454545 -161.600386 
L 180.272727 -162.044086 
L 183.090909 -162.477195 
L 185.909091 -162.95194 
L 188.727273 -163.396492 
L 191.545455 -163.955832 
L 194.363636 -164.295126 
L 197.181818 -164.61896 
L 200 -164.968609 
L 202.818182 -165.07256 
L 205.636364 -165.520732 
L 208.454545 -165.641089 
L 211.272727 -166.123353 
L 214.090909 -166.64607 
L 216.909091 -167.047898 
L 219.727273 -167.18989 
L 222.545455 -167.528784 
L 225.363636 -167.933332 
L 228.181818 -168.062548 
L 231 -168.149762 
L 233.818182 -168.127087 
L 236.636364 -168.117639 
L 239.454545 -168.177248 
L 242.272727 -168.117459 
L 245.090909 -168.400325 
L 247.909091 -168.396311 
L 250.727273 -168.689689 
L 253.545455 -168.941678 
L 256.363636 -169.263623 
L 259.181818 -169.407838 
L 262 -169.429203 
L 264.818182 -169.450568 
L 267.636364 -169.47859 
L 270.454545 -169.507467 
L 273.272727 -169.692315 
L 276.090909 -169.788766 
L 278.909091 -169.751614 
L 281.727273 -169.757368 
L 284.545455 -169.768149 
L 287.363636 -169.994917 
L 290.181818 -170.224027 
L 293 -170.453138 
L 295.818182 -170.39953 
L 298.636364 -170.313984 
L 301.454545 -170.230536 
L 304.272727 -170.150179 
L 307.090909 -170.316132 
L 309.909091 -170.523071 
L 312.727273 -170.730009 
L 315.545455 -170.939342 
L 318.363636 -170.965186 
L 321.181818 -170.968365 
L 324 -170.971544 
L 324 -240.641261 
L 324 -240.641261 
L 321.181818 -239.534847 
L 318.363636 -238.417187 
L 315.545455 -237.263872 
L 312.727273 -236.033526 
L 309.909091 -234.804182 
L 307.090909 -233.574837 
L 304.272727 -232.353433 
L 301.454545 -231.166753 
L 298.636364 -229.981684 
L 295.818182 -228.802237 
L 293 -227.621997 
L 290.181818 -226.438428 
L 287.363636 -225.254858 
L 284.545455 -224.071289 
L 281.727273 -222.88772 
L 278.909091 -221.704705 
L 276.090909 -220.811797 
L 273.272727 -219.82559 
L 270.454545 -218.770372 
L 267.636364 -217.791746 
L 264.818182 -216.783976 
L 262 -215.593422 
L 259.181818 -214.397837 
L 256.363636 -213.202253 
L 253.545455 -212.29927 
L 250.727273 -211.124145 
L 247.909091 -209.945944 
L 245.090909 -208.863657 
L 242.272727 -207.878005 
L 239.454545 -206.90407 
L 236.636364 -205.92545 
L 233.818182 -205.291222 
L 231 -204.30649 
L 228.181818 -203.404099 
L 225.363636 -202.982698 
L 222.545455 -201.671001 
L 219.727273 -200.634823 
L 216.909091 -199.859981 
L 214.090909 -199.08514 
L 211.272727 -198.313075 
L 208.454545 -197.330831 
L 205.636364 -196.522194 
L 202.818182 -195.588773 
L 200 -194.826379 
L 197.181818 -193.755952 
L 194.363636 -193.090414 
L 191.545455 -192.25328 
L 188.727273 -191.462362 
L 185.909091 -190.640561 
L 183.090909 -189.889869 
L 180.272727 -189.359302 
L 177.454545 -188.773362 
L 174.636364 -188.084808 
L 171.818182 -187.442732 
L 169 -187.051447 
L 166.181818 -186.283269 
L 163.363636 -185.590165 
L 160.545455 -185.270383 
L 157.727273 -184.944269 
L 154.909091 -184.489166 
L 152.090909 -183.799472 
L 149.272727 -183.239834 
L 146.454545 -182.54482 
L 143.636364 -182.193649 
L 140.818182 -181.852452 
L 138 -181.526574 
L 135.181818 -181.195628 
L 132.363636 -181.050514 
L 129.545455 -180.944542 
L 126.727273 -180.698516 
L 123.909091 -180.586567 
L 121.090909 -180.367972 
L 118.272727 -180.056387 
L 115.454545 -180.041618 
L 112.636364 -179.839969 
L 109.818182 -179.530676 
L 107 -179.213931 
L 104.181818 -179.048374 
L 101.363636 -178.798109 
L 98.545455 -178.758038 
L 95.727273 -178.76266 
L 92.909091 -178.700224 
L 90.090909 -178.521181 
L 87.272727 -178.412278 
L 84.454545 -178.243142 
L 81.636364 -178.186371 
L 78.818182 -178.135448 
L 76 -178.097877 
L 73.181818 -178.033602 
L 70.363636 -177.988317 
L 67.545455 -177.943064 
L 64.727273 -178.102843 
L 61.909091 -178.135818 
L 59.090909 -178.145379 
L 56.272727 -178.030709 
L 53.454545 -178.088699 
L 50.636364 -178.066365 
L 47.818182 -178.152281 
L 45 -178.182205 
z
" style="stroke: #ffffff; stroke-opacity: 0.15"/>
    </defs>
    <g clip-path="url(#pf6913bf7b7)">
     <use xlink:href="#ma40366dfa8" x="0" y="288" style="fill: #0000ff; fill-opacity: 0.15; stroke: #ffffff; stroke-opacity: 0.15"/>
    </g>
   </g>
   <g id="PathCollection_2">
    <defs>
     <path id="m419e375254" d="M 0 1.322876 
C 0.350831 1.322876 0.68734 1.183489 0.935414 0.935414 
C 1.183489 0.68734 1.322876 0.350831 1.322876 0 
C 1.322876 -0.350831 1.183489 -0.68734 0.935414 -0.935414 
C 0.68734 -1.183489 0.350831 -1.322876 0 -1.322876 
C -0.350831 -1.322876 -0.68734 -1.183489 -0.935414 -0.935414 
C -1.183489 -0.68734 -1.322876 -0.350831 -1.322876 0 
C -1.322876 0.350831 -1.183489 0.68734 -0.935414 0.935414 
C -0.68734 1.183489 -0.350831 1.322876 0 1.322876 
z
" style="stroke: #ff0000; stroke-opacity: 0.5"/>
    </defs>
    <g clip-path="url(#pf6913bf7b7)">
     <use xlink:href="#m419e375254" x="107" y="111.85823" style="fill: #ff0000; fill-opacity: 0.5; stroke: #ff0000; stroke-opacity: 0.5"/>
     <use xlink:href="#m419e375254" x="100.8" y="153.869623" style="fill: #ff0000; fill-opacity: 0.5; stroke: #ff0000; stroke-opacity: 0.5"/>
     <use xlink:href="#m419e375254" x="63.6" y="82.450254" style="fill: #ff0000; fill-opacity: 0.5; stroke: #ff0000; stroke-opacity: 0.5"/>
     <use xlink:href="#m419e375254" x="206.2" y="153.869623" style="fill: #ff0000; fill-opacity: 0.5; stroke: #ff0000; stroke-opacity: 0.5"/>
     <use xlink:href="#m419e375254" x="150.4" y="195.881017" style="fill: #ff0000; fill-opacity: 0.5; stroke: #ff0000; stroke-opacity: 0.5"/>
     <use xlink:href="#m419e375254" x="119.4" y="162.271902" style="fill: #ff0000; fill-opacity: 0.5; stroke: #ff0000; stroke-opacity: 0.5"/>
     <use xlink:href="#m419e375254" x="150.4" y="162.271902" style="fill: #ff0000; fill-opacity: 0.5; stroke: #ff0000; stroke-opacity: 0.5"/>
     <use xlink:href="#m419e375254" x="237.2" y="191.679877" style="fill: #ff0000; fill-opacity: 0.5; stroke: #ff0000; stroke-opacity: 0.5"/>
     <use xlink:href="#m419e375254" x="249.6" y="187.478738" style="fill: #ff0000; fill-opacity: 0.5; stroke: #ff0000; stroke-opacity: 0.5"/>
     <use xlink:href="#m419e375254" x="187.6" y="124.461648" style="fill: #ff0000; fill-opacity: 0.5; stroke: #ff0000; stroke-opacity: 0.5"/>
     <use xlink:href="#m419e375254" x="181.4" y="170.674181" style="fill: #ff0000; fill-opacity: 0.5; stroke: #ff0000; stroke-opacity: 0.5"/>
     <use xlink:href="#m419e375254" x="156.6" y="162.271902" style="fill: #ff0000; fill-opacity: 0.5; stroke: #ff0000; stroke-opacity: 0.5"/>
     <use xlink:href="#m419e375254" x="206.2" y="166.473041" style="fill: #ff0000; fill-opacity: 0.5; stroke: #ff0000; stroke-opacity: 0.5"/>
     <use xlink:href="#m419e375254" x="262" y="158.070763" style="fill: #ff0000; fill-opacity: 0.5; stroke: #ff0000; stroke-opacity: 0.5"/>
     <use xlink:href="#m419e375254" x="255.8" y="204.283296" style="fill: #ff0000; fill-opacity: 0.5; stroke: #ff0000; stroke-opacity: 0.5"/>
     <use xlink:href="#m419e375254" x="156.6" y="179.076459" style="fill: #ff0000; fill-opacity: 0.5; stroke: #ff0000; stroke-opacity: 0.5"/>
     <use xlink:href="#m419e375254" x="218.6" y="166.473041" style="fill: #ff0000; fill-opacity: 0.5; stroke: #ff0000; stroke-opacity: 0.5"/>
     <use xlink:href="#m419e375254" x="138" y="158.070763" style="fill: #ff0000; fill-opacity: 0.5; stroke: #ff0000; stroke-opacity: 0.5"/>
     <use xlink:href="#m419e375254" x="169" y="111.85823" style="fill: #ff0000; fill-opacity: 0.5; stroke: #ff0000; stroke-opacity: 0.5"/>
     <use xlink:href="#m419e375254" x="162.8" y="149.668484" style="fill: #ff0000; fill-opacity: 0.5; stroke: #ff0000; stroke-opacity: 0.5"/>
     <use xlink:href="#m419e375254" x="293" y="179.076459" style="fill: #ff0000; fill-opacity: 0.5; stroke: #ff0000; stroke-opacity: 0.5"/>
     <use xlink:href="#m419e375254" x="82.2" y="95.053672" style="fill: #ff0000; fill-opacity: 0.5; stroke: #ff0000; stroke-opacity: 0.5"/>
     <use xlink:href="#m419e375254" x="69.8" y="74.047975" style="fill: #ff0000; fill-opacity: 0.5; stroke: #ff0000; stroke-opacity: 0.5"/>
     <use xlink:href="#m419e375254" x="94.6" y="170.674181" style="fill: #ff0000; fill-opacity: 0.5; stroke: #ff0000; stroke-opacity: 0.5"/>
     <use xlink:href="#m419e375254" x="63.6" y="44.64" style="fill: #ff0000; fill-opacity: 0.5; stroke: #ff0000; stroke-opacity: 0.5"/>
     <use xlink:href="#m419e375254" x="107" y="137.065066" style="fill: #ff0000; fill-opacity: 0.5; stroke: #ff0000; stroke-opacity: 0.5"/>
    </g>
   </g>
   <g id="PolyCollection_2">
    <defs>
     <path id="mebd57941a5" d="M 45 -215.26882 
L 45 -144.386027 
L 47.818182 -143.985969 
L 50.636364 -143.585912 
L 53.454545 -143.185854 
L 56.272727 -142.775559 
L 59.090909 -142.324786 
L 61.909091 -141.972906 
L 64.727273 -141.578895 
L 67.545455 -141.179563 
L 70.363636 -140.780231 
L 73.181818 -140.409985 
L 76 -139.977909 
L 78.818182 -139.572874 
L 81.636364 -139.167839 
L 84.454545 -138.762804 
L 87.272727 -138.3596 
L 90.090909 -137.959545 
L 92.909091 -137.559491 
L 95.727273 -137.134528 
L 98.545455 -136.556213 
L 101.363636 -136.061814 
L 104.181818 -135.599076 
L 107 -135.227771 
L 109.818182 -134.745122 
L 112.636364 -134.262473 
L 115.454545 -133.779824 
L 118.272727 -133.225216 
L 121.090909 -132.447467 
L 123.909091 -131.765477 
L 126.727273 -131.021785 
L 129.545455 -130.884124 
L 132.363636 -130.397662 
L 135.181818 -129.807748 
L 138 -129.381705 
L 140.818182 -129.062522 
L 143.636364 -128.464878 
L 146.454545 -128.003623 
L 149.272727 -127.546699 
L 152.090909 -126.87755 
L 154.909091 -126.243986 
L 157.727273 -125.508558 
L 160.545455 -124.815451 
L 163.363636 -124.204214 
L 166.181818 -123.552317 
L 169 -122.74824 
L 171.818182 -122.196356 
L 174.636364 -121.121609 
L 177.454545 -120.290568 
L 180.272727 -119.611556 
L 183.090909 -118.983466 
L 185.909091 -118.143533 
L 188.727273 -117.238694 
L 191.545455 -116.110818 
L 194.363636 -114.591213 
L 197.181818 -113.157097 
L 200 -111.851947 
L 202.818182 -110.281821 
L 205.636364 -108.791917 
L 208.454545 -107.249654 
L 211.272727 -106.016565 
L 214.090909 -104.400065 
L 216.909091 -102.820836 
L 219.727273 -101.188951 
L 222.545455 -99.54097 
L 225.363636 -97.918768 
L 228.181818 -96.296565 
L 231 -94.683318 
L 233.818182 -93.13956 
L 236.636364 -91.745202 
L 239.454545 -90.150004 
L 242.272727 -88.50458 
L 245.090909 -86.708848 
L 247.909091 -85.233346 
L 250.727273 -83.681215 
L 253.545455 -82.066365 
L 256.363636 -80.451514 
L 259.181818 -78.804639 
L 262 -77.219871 
L 264.818182 -75.602814 
L 267.636364 -73.855278 
L 270.454545 -72.179952 
L 273.272727 -70.527262 
L 276.090909 -68.965655 
L 278.909091 -67.418017 
L 281.727273 -65.870379 
L 284.545455 -64.283417 
L 287.363636 -62.632401 
L 290.181818 -60.861767 
L 293 -59.091643 
L 295.818182 -57.487358 
L 298.636364 -55.97027 
L 301.454545 -54.479048 
L 304.272727 -52.975338 
L 307.090909 -51.360353 
L 309.909091 -49.745369 
L 312.727273 -48.130384 
L 315.545455 -46.515399 
L 318.363636 -44.907312 
L 321.181818 -43.333656 
L 324 -41.76 
L 324 -104.663022 
L 324 -104.663022 
L 321.181818 -105.06244 
L 318.363636 -105.4612 
L 315.545455 -105.85996 
L 312.727273 -106.257583 
L 309.909091 -106.661469 
L 307.090909 -107.063643 
L 304.272727 -107.465817 
L 301.454545 -107.867991 
L 298.636364 -108.268708 
L 295.818182 -108.669339 
L 293 -109.049109 
L 290.181818 -109.398241 
L 287.363636 -109.848372 
L 284.545455 -110.304192 
L 281.727273 -110.859396 
L 278.909091 -111.246211 
L 276.090909 -111.658213 
L 273.272727 -112.300362 
L 270.454545 -113.112342 
L 267.636364 -113.944081 
L 264.818182 -114.562587 
L 262 -115.194872 
L 259.181818 -115.847206 
L 256.363636 -116.667533 
L 253.545455 -117.382182 
L 250.727273 -117.957887 
L 247.909091 -118.712575 
L 245.090909 -119.315238 
L 242.272727 -119.977985 
L 239.454545 -120.934961 
L 236.636364 -121.591441 
L 233.818182 -122.350696 
L 231 -122.886061 
L 228.181818 -123.690573 
L 225.363636 -124.491055 
L 222.545455 -125.375596 
L 219.727273 -126.235972 
L 216.909091 -127.164219 
L 214.090909 -128.037181 
L 211.272727 -128.912923 
L 208.454545 -130.027468 
L 205.636364 -131.086553 
L 202.818182 -132.242461 
L 200 -133.398178 
L 197.181818 -134.664551 
L 194.363636 -135.719606 
L 191.545455 -136.760173 
L 188.727273 -137.796669 
L 185.909091 -138.957476 
L 183.090909 -140.257255 
L 180.272727 -141.476528 
L 177.454545 -142.667699 
L 174.636364 -144.100785 
L 171.818182 -145.518531 
L 169 -146.98115 
L 166.181818 -148.465079 
L 163.363636 -149.960067 
L 160.545455 -151.45501 
L 157.727273 -152.867953 
L 154.909091 -154.229154 
L 152.090909 -155.782357 
L 149.272727 -157.274748 
L 146.454545 -158.515869 
L 143.636364 -159.955412 
L 140.818182 -161.626534 
L 138 -163.017436 
L 135.181818 -164.549013 
L 132.363636 -166.036317 
L 129.545455 -167.527967 
L 126.727273 -168.867722 
L 123.909091 -170.448681 
L 121.090909 -172.08913 
L 118.272727 -173.706486 
L 115.454545 -175.334541 
L 112.636364 -176.855994 
L 109.818182 -178.316113 
L 107 -179.799875 
L 104.181818 -181.34303 
L 101.363636 -182.842522 
L 98.545455 -184.61679 
L 95.727273 -186.223162 
L 92.909091 -187.775029 
L 90.090909 -189.326895 
L 87.272727 -190.896065 
L 84.454545 -192.439858 
L 81.636364 -194.001068 
L 78.818182 -195.573578 
L 76 -197.457869 
L 73.181818 -199.34216 
L 70.363636 -201.226452 
L 67.545455 -202.925845 
L 64.727273 -204.276133 
L 61.909091 -205.626421 
L 59.090909 -206.976709 
L 56.272727 -208.326998 
L 53.454545 -209.956176 
L 50.636364 -211.727058 
L 47.818182 -213.497939 
L 45 -215.26882 
z
" style="stroke: #ffffff; stroke-opacity: 0.15"/>
    </defs>
    <g clip-path="url(#pf6913bf7b7)">
     <use xlink:href="#mebd57941a5" x="0" y="288" style="fill: #ff0000; fill-opacity: 0.15; stroke: #ffffff; stroke-opacity: 0.15"/>
    </g>
   </g>
   <g id="line2d_12">
    <path d="M 45 137.669609 
L 47.818182 137.134311 
L 50.636364 136.599013 
L 53.454545 136.063715 
L 56.272727 135.528417 
L 59.090909 134.993119 
L 61.909091 134.457821 
L 64.727273 133.922523 
L 67.545455 133.387225 
L 70.363636 132.851927 
L 73.181818 132.316629 
L 76 131.781331 
L 78.818182 131.246033 
L 81.636364 130.710735 
L 84.454545 130.175437 
L 87.272727 129.640139 
L 90.090909 129.104841 
L 92.909091 128.569543 
L 95.727273 128.034245 
L 98.545455 127.498947 
L 101.363636 126.963649 
L 104.181818 126.428351 
L 107 125.893053 
L 109.818182 125.357755 
L 112.636364 124.822457 
L 115.454545 124.287159 
L 118.272727 123.751861 
L 121.090909 123.216563 
L 123.909091 122.681265 
L 126.727273 122.145967 
L 129.545455 121.610669 
L 132.363636 121.075371 
L 135.181818 120.540073 
L 138 120.004775 
L 140.818182 119.469477 
L 143.636364 118.934179 
L 146.454545 118.398881 
L 149.272727 117.863583 
L 152.090909 117.328285 
L 154.909091 116.792987 
L 157.727273 116.257689 
L 160.545455 115.722391 
L 163.363636 115.187093 
L 166.181818 114.651795 
L 169 114.116497 
L 171.818182 113.581199 
L 174.636364 113.045901 
L 177.454545 112.510603 
L 180.272727 111.975305 
L 183.090909 111.440007 
L 185.909091 110.904708 
L 188.727273 110.36941 
L 191.545455 109.834112 
L 194.363636 109.298814 
L 197.181818 108.763516 
L 200 108.228218 
L 202.818182 107.69292 
L 205.636364 107.157622 
L 208.454545 106.622324 
L 211.272727 106.087026 
L 214.090909 105.551728 
L 216.909091 105.01643 
L 219.727273 104.481132 
L 222.545455 103.945834 
L 225.363636 103.410536 
L 228.181818 102.875238 
L 231 102.33994 
L 233.818182 101.804642 
L 236.636364 101.269344 
L 239.454545 100.734046 
L 242.272727 100.198748 
L 245.090909 99.66345 
L 247.909091 99.128152 
L 250.727273 98.592854 
L 253.545455 98.057556 
L 256.363636 97.522258 
L 259.181818 96.98696 
L 262 96.451662 
L 264.818182 95.916364 
L 267.636364 95.381066 
L 270.454545 94.845768 
L 273.272727 94.31047 
L 276.090909 93.775172 
L 278.909091 93.239874 
L 281.727273 92.704576 
L 284.545455 92.169278 
L 287.363636 91.63398 
L 290.181818 91.098682 
L 293 90.563384 
L 295.818182 90.028086 
L 298.636364 89.492788 
L 301.454545 88.95749 
L 304.272727 88.422192 
L 307.090909 87.886894 
L 309.909091 87.351596 
L 312.727273 86.816298 
L 315.545455 86.281 
L 318.363636 85.745702 
L 321.181818 85.210404 
L 324 84.675106 
" clip-path="url(#pf6913bf7b7)" style="fill: none; stroke: #0000ff; stroke-width: 2.25; stroke-linecap: round"/>
   </g>
   <g id="line2d_13">
    <path d="M 45 101.700047 
L 47.818182 102.832692 
L 50.636364 103.965337 
L 53.454545 105.097982 
L 56.272727 106.230627 
L 59.090909 107.363272 
L 61.909091 108.495917 
L 64.727273 109.628562 
L 67.545455 110.761208 
L 70.363636 111.893853 
L 73.181818 113.026498 
L 76 114.159143 
L 78.818182 115.291788 
L 81.636364 116.424433 
L 84.454545 117.557078 
L 87.272727 118.689723 
L 90.090909 119.822368 
L 92.909091 120.955014 
L 95.727273 122.087659 
L 98.545455 123.220304 
L 101.363636 124.352949 
L 104.181818 125.485594 
L 107 126.618239 
L 109.818182 127.750884 
L 112.636364 128.883529 
L 115.454545 130.016174 
L 118.272727 131.148819 
L 121.090909 132.281465 
L 123.909091 133.41411 
L 126.727273 134.546755 
L 129.545455 135.6794 
L 132.363636 136.812045 
L 135.181818 137.94469 
L 138 139.077335 
L 140.818182 140.20998 
L 143.636364 141.342625 
L 146.454545 142.475271 
L 149.272727 143.607916 
L 152.090909 144.740561 
L 154.909091 145.873206 
L 157.727273 147.005851 
L 160.545455 148.138496 
L 163.363636 149.271141 
L 166.181818 150.403786 
L 169 151.536431 
L 171.818182 152.669077 
L 174.636364 153.801722 
L 177.454545 154.934367 
L 180.272727 156.067012 
L 183.090909 157.199657 
L 185.909091 158.332302 
L 188.727273 159.464947 
L 191.545455 160.597592 
L 194.363636 161.730237 
L 197.181818 162.862882 
L 200 163.995528 
L 202.818182 165.128173 
L 205.636364 166.260818 
L 208.454545 167.393463 
L 211.272727 168.526108 
L 214.090909 169.658753 
L 216.909091 170.791398 
L 219.727273 171.924043 
L 222.545455 173.056688 
L 225.363636 174.189334 
L 228.181818 175.321979 
L 231 176.454624 
L 233.818182 177.587269 
L 236.636364 178.719914 
L 239.454545 179.852559 
L 242.272727 180.985204 
L 245.090909 182.117849 
L 247.909091 183.250494 
L 250.727273 184.38314 
L 253.545455 185.515785 
L 256.363636 186.64843 
L 259.181818 187.781075 
L 262 188.91372 
L 264.818182 190.046365 
L 267.636364 191.17901 
L 270.454545 192.311655 
L 273.272727 193.4443 
L 276.090909 194.576946 
L 278.909091 195.709591 
L 281.727273 196.842236 
L 284.545455 197.974881 
L 287.363636 199.107526 
L 290.181818 200.240171 
L 293 201.372816 
L 295.818182 202.505461 
L 298.636364 203.638106 
L 301.454545 204.770751 
L 304.272727 205.903397 
L 307.090909 207.036042 
L 309.909091 208.168687 
L 312.727273 209.301332 
L 315.545455 210.433977 
L 318.363636 211.566622 
L 321.181818 212.699267 
L 324 213.831912 
" clip-path="url(#pf6913bf7b7)" style="fill: none; stroke: #ff0000; stroke-width: 2.25; stroke-linecap: round"/>
   </g>
   <g id="patch_3">
    <path d="M 45 256.32 
L 45 34.56 
" style="fill: none; stroke: #ffffff; stroke-width: 0.8; stroke-linejoin: miter; stroke-linecap: square"/>
   </g>
   <g id="patch_4">
    <path d="M 324 256.32 
L 324 34.56 
" style="fill: none; stroke: #ffffff; stroke-width: 0.8; stroke-linejoin: miter; stroke-linecap: square"/>
   </g>
   <g id="patch_5">
    <path d="M 45 256.32 
L 324 256.32 
" style="fill: none; stroke: #ffffff; stroke-width: 0.8; stroke-linejoin: miter; stroke-linecap: square"/>
   </g>
   <g id="patch_6">
    <path d="M 45 34.56 
L 324 34.56 
" style="fill: none; stroke: #ffffff; stroke-width: 0.8; stroke-linejoin: miter; stroke-linecap: square"/>
   </g>
   <g id="text_12">
    <!-- MADRS -->
    <g style="fill: #262626" transform="translate(151.500937 28.56)scale(0.18 -0.18)">
     <defs>
      <path id="Arial-BoldMT-4d" d="M 453 0 
L 453 4581 
L 1838 4581 
L 2669 1456 
L 3491 4581 
L 4878 4581 
L 4878 0 
L 4019 0 
L 4019 3606 
L 3109 0 
L 2219 0 
L 1313 3606 
L 1313 0 
L 453 0 
z
" transform="scale(0.015625)"/>
      <path id="Arial-BoldMT-41" d="M 4597 0 
L 3591 0 
L 3191 1041 
L 1359 1041 
L 981 0 
L 0 0 
L 1784 4581 
L 2763 4581 
L 4597 0 
z
M 2894 1813 
L 2263 3513 
L 1644 1813 
L 2894 1813 
z
" transform="scale(0.015625)"/>
      <path id="Arial-BoldMT-44" d="M 463 4581 
L 2153 4581 
Q 2725 4581 3025 4494 
Q 3428 4375 3715 4072 
Q 4003 3769 4153 3330 
Q 4303 2891 4303 2247 
Q 4303 1681 4163 1272 
Q 3991 772 3672 463 
Q 3431 228 3022 97 
Q 2716 0 2203 0 
L 463 0 
L 463 4581 
z
M 1388 3806 
L 1388 772 
L 2078 772 
Q 2466 772 2638 816 
Q 2863 872 3011 1006 
Q 3159 1141 3253 1448 
Q 3347 1756 3347 2288 
Q 3347 2819 3253 3103 
Q 3159 3388 2990 3547 
Q 2822 3706 2563 3763 
Q 2369 3806 1803 3806 
L 1388 3806 
z
" transform="scale(0.015625)"/>
      <path id="Arial-BoldMT-52" d="M 469 0 
L 469 4581 
L 2416 4581 
Q 3150 4581 3483 4457 
Q 3816 4334 4016 4018 
Q 4216 3703 4216 3297 
Q 4216 2781 3912 2445 
Q 3609 2109 3006 2022 
Q 3306 1847 3501 1637 
Q 3697 1428 4028 894 
L 4588 0 
L 3481 0 
L 2813 997 
Q 2456 1531 2325 1670 
Q 2194 1809 2047 1861 
Q 1900 1913 1581 1913 
L 1394 1913 
L 1394 0 
L 469 0 
z
M 1394 2644 
L 2078 2644 
Q 2744 2644 2909 2700 
Q 3075 2756 3169 2893 
Q 3263 3031 3263 3238 
Q 3263 3469 3139 3611 
Q 3016 3753 2791 3791 
Q 2678 3806 2116 3806 
L 1394 3806 
L 1394 2644 
z
" transform="scale(0.015625)"/>
      <path id="Arial-BoldMT-53" d="M 231 1491 
L 1131 1578 
Q 1213 1125 1461 912 
Q 1709 700 2131 700 
Q 2578 700 2804 889 
Q 3031 1078 3031 1331 
Q 3031 1494 2936 1608 
Q 2841 1722 2603 1806 
Q 2441 1863 1863 2006 
Q 1119 2191 819 2459 
Q 397 2838 397 3381 
Q 397 3731 595 4036 
Q 794 4341 1167 4500 
Q 1541 4659 2069 4659 
Q 2931 4659 3367 4281 
Q 3803 3903 3825 3272 
L 2900 3231 
Q 2841 3584 2645 3739 
Q 2450 3894 2059 3894 
Q 1656 3894 1428 3728 
Q 1281 3622 1281 3444 
Q 1281 3281 1419 3166 
Q 1594 3019 2269 2859 
Q 2944 2700 3267 2529 
Q 3591 2359 3773 2064 
Q 3956 1769 3956 1334 
Q 3956 941 3737 597 
Q 3519 253 3119 86 
Q 2719 -81 2122 -81 
Q 1253 -81 787 320 
Q 322 722 231 1491 
z
" transform="scale(0.015625)"/>
     </defs>
     <use xlink:href="#Arial-BoldMT-4d"/>
     <use xlink:href="#Arial-BoldMT-41" x="83.300781"/>
     <use xlink:href="#Arial-BoldMT-44" x="155.517578"/>
     <use xlink:href="#Arial-BoldMT-52" x="227.734375"/>
     <use xlink:href="#Arial-BoldMT-53" x="299.951172"/>
    </g>
   </g>
  </g>
 </g>
 <defs>
  <clipPath id="pf6913bf7b7">
   <rect x="45" y="34.56" width="279" height="221.76"/>
  </clipPath>
 </defs>
</svg>
