<?xml version="1.0" encoding="utf-8" standalone="no"?>
<!DOCTYPE svg PUBLIC "-//W3C//DTD SVG 1.1//EN"
  "http://www.w3.org/Graphics/SVG/1.1/DTD/svg11.dtd">
<svg xmlns:xlink="http://www.w3.org/1999/xlink" width="360pt" height="288pt" viewBox="0 0 360 288" xmlns="http://www.w3.org/2000/svg" version="1.1">
 <metadata>
  <rdf:RDF xmlns:dc="http://purl.org/dc/elements/1.1/" xmlns:cc="http://creativecommons.org/ns#" xmlns:rdf="http://www.w3.org/1999/02/22-rdf-syntax-ns#">
   <cc:Work>
    <dc:type rdf:resource="http://purl.org/dc/dcmitype/StillImage"/>
    <dc:date>2022-11-10T09:39:54.557093</dc:date>
    <dc:format>image/svg+xml</dc:format>
    <dc:creator>
     <cc:Agent>
      <dc:title>Matplotlib v3.5.2, https://matplotlib.org/</dc:title>
     </cc:Agent>
    </dc:creator>
   </cc:Work>
  </rdf:RDF>
 </metadata>
 <defs>
  <style type="text/css">*{stroke-linejoin: round; stroke-linecap: butt}</style>
 </defs>
 <g id="figure_1">
  <g id="patch_1">
   <path d="M 0 288 
L 360 288 
L 360 0 
L 0 0 
z
" style="fill: #ffffff"/>
  </g>
  <g id="axes_1">
   <g id="patch_2">
    <path d="M 45 256.32 
L 324 256.32 
L 324 34.56 
L 45 34.56 
z
" style="fill: #eaeaf2"/>
   </g>
   <g id="matplotlib.axis_1">
    <g id="xtick_1">
     <g id="line2d_1">
      <path d="M 76 256.32 
L 76 34.56 
" clip-path="url(#pac9fca2005)" style="fill: none; stroke: #ffffff; stroke-width: 0.8; stroke-linecap: round"/>
     </g>
     <g id="text_1">
      <!-- 30 -->
      <g style="fill: #262626" transform="translate(68.214687 273.340937)scale(0.14 -0.14)">
       <defs>
        <path id="ArialMT-33" d="M 269 1209 
L 831 1284 
Q 928 806 1161 595 
Q 1394 384 1728 384 
Q 2125 384 2398 659 
Q 2672 934 2672 1341 
Q 2672 1728 2419 1979 
Q 2166 2231 1775 2231 
Q 1616 2231 1378 2169 
L 1441 2663 
Q 1497 2656 1531 2656 
Q 1891 2656 2178 2843 
Q 2466 3031 2466 3422 
Q 2466 3731 2256 3934 
Q 2047 4138 1716 4138 
Q 1388 4138 1169 3931 
Q 950 3725 888 3313 
L 325 3413 
Q 428 3978 793 4289 
Q 1159 4600 1703 4600 
Q 2078 4600 2393 4439 
Q 2709 4278 2876 4000 
Q 3044 3722 3044 3409 
Q 3044 3113 2884 2869 
Q 2725 2625 2413 2481 
Q 2819 2388 3044 2092 
Q 3269 1797 3269 1353 
Q 3269 753 2831 336 
Q 2394 -81 1725 -81 
Q 1122 -81 723 278 
Q 325 638 269 1209 
z
" transform="scale(0.015625)"/>
        <path id="ArialMT-30" d="M 266 2259 
Q 266 3072 433 3567 
Q 600 4063 929 4331 
Q 1259 4600 1759 4600 
Q 2128 4600 2406 4451 
Q 2684 4303 2865 4023 
Q 3047 3744 3150 3342 
Q 3253 2941 3253 2259 
Q 3253 1453 3087 958 
Q 2922 463 2592 192 
Q 2263 -78 1759 -78 
Q 1097 -78 719 397 
Q 266 969 266 2259 
z
M 844 2259 
Q 844 1131 1108 757 
Q 1372 384 1759 384 
Q 2147 384 2411 759 
Q 2675 1134 2675 2259 
Q 2675 3391 2411 3762 
Q 2147 4134 1753 4134 
Q 1366 4134 1134 3806 
Q 844 3388 844 2259 
z
" transform="scale(0.015625)"/>
       </defs>
       <use xlink:href="#ArialMT-33"/>
       <use xlink:href="#ArialMT-30" x="55.615234"/>
      </g>
     </g>
    </g>
    <g id="xtick_2">
     <g id="line2d_2">
      <path d="M 138 256.32 
L 138 34.56 
" clip-path="url(#pac9fca2005)" style="fill: none; stroke: #ffffff; stroke-width: 0.8; stroke-linecap: round"/>
     </g>
     <g id="text_2">
      <!-- 40 -->
      <g style="fill: #262626" transform="translate(130.214687 273.340937)scale(0.14 -0.14)">
       <defs>
        <path id="ArialMT-34" d="M 2069 0 
L 2069 1097 
L 81 1097 
L 81 1613 
L 2172 4581 
L 2631 4581 
L 2631 1613 
L 3250 1613 
L 3250 1097 
L 2631 1097 
L 2631 0 
L 2069 0 
z
M 2069 1613 
L 2069 3678 
L 634 1613 
L 2069 1613 
z
" transform="scale(0.015625)"/>
       </defs>
       <use xlink:href="#ArialMT-34"/>
       <use xlink:href="#ArialMT-30" x="55.615234"/>
      </g>
     </g>
    </g>
    <g id="xtick_3">
     <g id="line2d_3">
      <path d="M 200 256.32 
L 200 34.56 
" clip-path="url(#pac9fca2005)" style="fill: none; stroke: #ffffff; stroke-width: 0.8; stroke-linecap: round"/>
     </g>
     <g id="text_3">
      <!-- 50 -->
      <g style="fill: #262626" transform="translate(192.214687 273.340937)scale(0.14 -0.14)">
       <defs>
        <path id="ArialMT-35" d="M 266 1200 
L 856 1250 
Q 922 819 1161 601 
Q 1400 384 1738 384 
Q 2144 384 2425 690 
Q 2706 997 2706 1503 
Q 2706 1984 2436 2262 
Q 2166 2541 1728 2541 
Q 1456 2541 1237 2417 
Q 1019 2294 894 2097 
L 366 2166 
L 809 4519 
L 3088 4519 
L 3088 3981 
L 1259 3981 
L 1013 2750 
Q 1425 3038 1878 3038 
Q 2478 3038 2890 2622 
Q 3303 2206 3303 1553 
Q 3303 931 2941 478 
Q 2500 -78 1738 -78 
Q 1113 -78 717 272 
Q 322 622 266 1200 
z
" transform="scale(0.015625)"/>
       </defs>
       <use xlink:href="#ArialMT-35"/>
       <use xlink:href="#ArialMT-30" x="55.615234"/>
      </g>
     </g>
    </g>
    <g id="xtick_4">
     <g id="line2d_4">
      <path d="M 262 256.32 
L 262 34.56 
" clip-path="url(#pac9fca2005)" style="fill: none; stroke: #ffffff; stroke-width: 0.8; stroke-linecap: round"/>
     </g>
     <g id="text_4">
      <!-- 60 -->
      <g style="fill: #262626" transform="translate(254.214687 273.340937)scale(0.14 -0.14)">
       <defs>
        <path id="ArialMT-36" d="M 3184 3459 
L 2625 3416 
Q 2550 3747 2413 3897 
Q 2184 4138 1850 4138 
Q 1581 4138 1378 3988 
Q 1113 3794 959 3422 
Q 806 3050 800 2363 
Q 1003 2672 1297 2822 
Q 1591 2972 1913 2972 
Q 2475 2972 2870 2558 
Q 3266 2144 3266 1488 
Q 3266 1056 3080 686 
Q 2894 316 2569 119 
Q 2244 -78 1831 -78 
Q 1128 -78 684 439 
Q 241 956 241 2144 
Q 241 3472 731 4075 
Q 1159 4600 1884 4600 
Q 2425 4600 2770 4297 
Q 3116 3994 3184 3459 
z
M 888 1484 
Q 888 1194 1011 928 
Q 1134 663 1356 523 
Q 1578 384 1822 384 
Q 2178 384 2434 671 
Q 2691 959 2691 1453 
Q 2691 1928 2437 2201 
Q 2184 2475 1800 2475 
Q 1419 2475 1153 2201 
Q 888 1928 888 1484 
z
" transform="scale(0.015625)"/>
       </defs>
       <use xlink:href="#ArialMT-36"/>
       <use xlink:href="#ArialMT-30" x="55.615234"/>
      </g>
     </g>
    </g>
    <g id="xtick_5">
     <g id="line2d_5">
      <path d="M 324 256.32 
L 324 34.56 
" clip-path="url(#pac9fca2005)" style="fill: none; stroke: #ffffff; stroke-width: 0.8; stroke-linecap: round"/>
     </g>
     <g id="text_5">
      <!-- 70 -->
      <g style="fill: #262626" transform="translate(316.214688 273.340937)scale(0.14 -0.14)">
       <defs>
        <path id="ArialMT-37" d="M 303 3981 
L 303 4522 
L 3269 4522 
L 3269 4084 
Q 2831 3619 2401 2847 
Q 1972 2075 1738 1259 
Q 1569 684 1522 0 
L 944 0 
Q 953 541 1156 1306 
Q 1359 2072 1739 2783 
Q 2119 3494 2547 3981 
L 303 3981 
z
" transform="scale(0.015625)"/>
       </defs>
       <use xlink:href="#ArialMT-37"/>
       <use xlink:href="#ArialMT-30" x="55.615234"/>
      </g>
     </g>
    </g>
   </g>
   <g id="matplotlib.axis_2">
    <g id="ytick_1">
     <g id="line2d_6">
      <path d="M 45 222.870667 
L 324 222.870667 
" clip-path="url(#pac9fca2005)" style="fill: none; stroke: #ffffff; stroke-width: 0.8; stroke-linecap: round"/>
     </g>
     <g id="text_6">
      <!-- −20 -->
      <g style="fill: #262626" transform="translate(14.2525 227.881136)scale(0.14 -0.14)">
       <defs>
        <path id="ArialMT-2212" d="M 3381 1997 
L 356 1997 
L 356 2522 
L 3381 2522 
L 3381 1997 
z
" transform="scale(0.015625)"/>
        <path id="ArialMT-32" d="M 3222 541 
L 3222 0 
L 194 0 
Q 188 203 259 391 
Q 375 700 629 1000 
Q 884 1300 1366 1694 
Q 2113 2306 2375 2664 
Q 2638 3022 2638 3341 
Q 2638 3675 2398 3904 
Q 2159 4134 1775 4134 
Q 1369 4134 1125 3890 
Q 881 3647 878 3216 
L 300 3275 
Q 359 3922 746 4261 
Q 1134 4600 1788 4600 
Q 2447 4600 2831 4234 
Q 3216 3869 3216 3328 
Q 3216 3053 3103 2787 
Q 2991 2522 2730 2228 
Q 2469 1934 1863 1422 
Q 1356 997 1212 845 
Q 1069 694 975 541 
L 3222 541 
z
" transform="scale(0.015625)"/>
       </defs>
       <use xlink:href="#ArialMT-2212"/>
       <use xlink:href="#ArialMT-32" x="58.398438"/>
       <use xlink:href="#ArialMT-30" x="114.013672"/>
      </g>
     </g>
    </g>
    <g id="ytick_2">
     <g id="line2d_7">
      <path d="M 45 188.595539 
L 324 188.595539 
" clip-path="url(#pac9fca2005)" style="fill: none; stroke: #ffffff; stroke-width: 0.8; stroke-linecap: round"/>
     </g>
     <g id="text_7">
      <!-- −15 -->
      <g style="fill: #262626" transform="translate(14.2525 193.606008)scale(0.14 -0.14)">
       <defs>
        <path id="ArialMT-31" d="M 2384 0 
L 1822 0 
L 1822 3584 
Q 1619 3391 1289 3197 
Q 959 3003 697 2906 
L 697 3450 
Q 1169 3672 1522 3987 
Q 1875 4303 2022 4600 
L 2384 4600 
L 2384 0 
z
" transform="scale(0.015625)"/>
       </defs>
       <use xlink:href="#ArialMT-2212"/>
       <use xlink:href="#ArialMT-31" x="58.398438"/>
       <use xlink:href="#ArialMT-35" x="114.013672"/>
      </g>
     </g>
    </g>
    <g id="ytick_3">
     <g id="line2d_8">
      <path d="M 45 154.320411 
L 324 154.320411 
" clip-path="url(#pac9fca2005)" style="fill: none; stroke: #ffffff; stroke-width: 0.8; stroke-linecap: round"/>
     </g>
     <g id="text_8">
      <!-- −10 -->
      <g style="fill: #262626" transform="translate(14.2525 159.330879)scale(0.14 -0.14)">
       <use xlink:href="#ArialMT-2212"/>
       <use xlink:href="#ArialMT-31" x="58.398438"/>
       <use xlink:href="#ArialMT-30" x="114.013672"/>
      </g>
     </g>
    </g>
    <g id="ytick_4">
     <g id="line2d_9">
      <path d="M 45 120.045282 
L 324 120.045282 
" clip-path="url(#pac9fca2005)" style="fill: none; stroke: #ffffff; stroke-width: 0.8; stroke-linecap: round"/>
     </g>
     <g id="text_9">
      <!-- −5 -->
      <g style="fill: #262626" transform="translate(22.037813 125.055751)scale(0.14 -0.14)">
       <use xlink:href="#ArialMT-2212"/>
       <use xlink:href="#ArialMT-35" x="58.398438"/>
      </g>
     </g>
    </g>
    <g id="ytick_5">
     <g id="line2d_10">
      <path d="M 45 85.770154 
L 324 85.770154 
" clip-path="url(#pac9fca2005)" style="fill: none; stroke: #ffffff; stroke-width: 0.8; stroke-linecap: round"/>
     </g>
     <g id="text_10">
      <!-- 0 -->
      <g style="fill: #262626" transform="translate(30.214688 90.780623)scale(0.14 -0.14)">
       <use xlink:href="#ArialMT-30"/>
      </g>
     </g>
    </g>
    <g id="ytick_6">
     <g id="line2d_11">
      <path d="M 45 51.495026 
L 324 51.495026 
" clip-path="url(#pac9fca2005)" style="fill: none; stroke: #ffffff; stroke-width: 0.8; stroke-linecap: round"/>
     </g>
     <g id="text_11">
      <!-- 5 -->
      <g style="fill: #262626" transform="translate(30.214688 56.505494)scale(0.14 -0.14)">
       <use xlink:href="#ArialMT-35"/>
      </g>
     </g>
    </g>
   </g>
   <g id="PathCollection_1">
    <defs>
     <path id="mf5a1616f0a" d="M 0 1.322876 
C 0.350831 1.322876 0.68734 1.183489 0.935414 0.935414 
C 1.183489 0.68734 1.322876 0.350831 1.322876 0 
C 1.322876 -0.350831 1.183489 -0.68734 0.935414 -0.935414 
C 0.68734 -1.183489 0.350831 -1.322876 0 -1.322876 
C -0.350831 -1.322876 -0.68734 -1.183489 -0.935414 -0.935414 
C -1.183489 -0.68734 -1.322876 -0.350831 -1.322876 0 
C -1.322876 0.350831 -1.183489 0.68734 -0.935414 0.935414 
C -0.68734 1.183489 -0.350831 1.322876 0 1.322876 
z
" style="stroke: #0000ff; stroke-opacity: 0.5"/>
    </defs>
    <g clip-path="url(#pac9fca2005)">
     <use xlink:href="#mf5a1616f0a" x="119.4" y="161.175436" style="fill: #0000ff; fill-opacity: 0.5; stroke: #0000ff; stroke-opacity: 0.5"/>
     <use xlink:href="#mf5a1616f0a" x="76" y="99.480205" style="fill: #0000ff; fill-opacity: 0.5; stroke: #0000ff; stroke-opacity: 0.5"/>
     <use xlink:href="#mf5a1616f0a" x="100.8" y="147.465385" style="fill: #0000ff; fill-opacity: 0.5; stroke: #0000ff; stroke-opacity: 0.5"/>
     <use xlink:href="#mf5a1616f0a" x="131.8" y="120.045282" style="fill: #0000ff; fill-opacity: 0.5; stroke: #0000ff; stroke-opacity: 0.5"/>
     <use xlink:href="#mf5a1616f0a" x="317.8" y="106.335231" style="fill: #0000ff; fill-opacity: 0.5; stroke: #0000ff; stroke-opacity: 0.5"/>
     <use xlink:href="#mf5a1616f0a" x="125.6" y="133.755334" style="fill: #0000ff; fill-opacity: 0.5; stroke: #0000ff; stroke-opacity: 0.5"/>
     <use xlink:href="#mf5a1616f0a" x="131.8" y="113.190257" style="fill: #0000ff; fill-opacity: 0.5; stroke: #0000ff; stroke-opacity: 0.5"/>
     <use xlink:href="#mf5a1616f0a" x="156.6" y="113.190257" style="fill: #0000ff; fill-opacity: 0.5; stroke: #0000ff; stroke-opacity: 0.5"/>
     <use xlink:href="#mf5a1616f0a" x="193.8" y="58.350051" style="fill: #0000ff; fill-opacity: 0.5; stroke: #0000ff; stroke-opacity: 0.5"/>
     <use xlink:href="#mf5a1616f0a" x="200" y="181.740513" style="fill: #0000ff; fill-opacity: 0.5; stroke: #0000ff; stroke-opacity: 0.5"/>
     <use xlink:href="#mf5a1616f0a" x="156.6" y="147.465385" style="fill: #0000ff; fill-opacity: 0.5; stroke: #0000ff; stroke-opacity: 0.5"/>
     <use xlink:href="#mf5a1616f0a" x="212.4" y="92.62518" style="fill: #0000ff; fill-opacity: 0.5; stroke: #0000ff; stroke-opacity: 0.5"/>
     <use xlink:href="#mf5a1616f0a" x="138" y="133.755334" style="fill: #0000ff; fill-opacity: 0.5; stroke: #0000ff; stroke-opacity: 0.5"/>
     <use xlink:href="#mf5a1616f0a" x="107" y="92.62518" style="fill: #0000ff; fill-opacity: 0.5; stroke: #0000ff; stroke-opacity: 0.5"/>
     <use xlink:href="#mf5a1616f0a" x="175.2" y="106.335231" style="fill: #0000ff; fill-opacity: 0.5; stroke: #0000ff; stroke-opacity: 0.5"/>
     <use xlink:href="#mf5a1616f0a" x="268.2" y="92.62518" style="fill: #0000ff; fill-opacity: 0.5; stroke: #0000ff; stroke-opacity: 0.5"/>
     <use xlink:href="#mf5a1616f0a" x="218.6" y="85.770154" style="fill: #0000ff; fill-opacity: 0.5; stroke: #0000ff; stroke-opacity: 0.5"/>
     <use xlink:href="#mf5a1616f0a" x="82.2" y="106.335231" style="fill: #0000ff; fill-opacity: 0.5; stroke: #0000ff; stroke-opacity: 0.5"/>
     <use xlink:href="#mf5a1616f0a" x="113.2" y="133.755334" style="fill: #0000ff; fill-opacity: 0.5; stroke: #0000ff; stroke-opacity: 0.5"/>
     <use xlink:href="#mf5a1616f0a" x="138" y="99.480205" style="fill: #0000ff; fill-opacity: 0.5; stroke: #0000ff; stroke-opacity: 0.5"/>
     <use xlink:href="#mf5a1616f0a" x="156.6" y="44.64" style="fill: #0000ff; fill-opacity: 0.5; stroke: #0000ff; stroke-opacity: 0.5"/>
     <use xlink:href="#mf5a1616f0a" x="237.2" y="78.915128" style="fill: #0000ff; fill-opacity: 0.5; stroke: #0000ff; stroke-opacity: 0.5"/>
     <use xlink:href="#mf5a1616f0a" x="237.2" y="133.755334" style="fill: #0000ff; fill-opacity: 0.5; stroke: #0000ff; stroke-opacity: 0.5"/>
     <use xlink:href="#mf5a1616f0a" x="162.8" y="216.015642" style="fill: #0000ff; fill-opacity: 0.5; stroke: #0000ff; stroke-opacity: 0.5"/>
     <use xlink:href="#mf5a1616f0a" x="249.6" y="85.770154" style="fill: #0000ff; fill-opacity: 0.5; stroke: #0000ff; stroke-opacity: 0.5"/>
     <use xlink:href="#mf5a1616f0a" x="243.4" y="168.030462" style="fill: #0000ff; fill-opacity: 0.5; stroke: #0000ff; stroke-opacity: 0.5"/>
     <use xlink:href="#mf5a1616f0a" x="255.8" y="92.62518" style="fill: #0000ff; fill-opacity: 0.5; stroke: #0000ff; stroke-opacity: 0.5"/>
    </g>
   </g>
   <g id="PolyCollection_1">
    <defs>
     <path id="m40d639e520" d="M 45 -179.793073 
L 45 -131.357579 
L 47.818182 -132.16124 
L 50.636364 -132.880688 
L 53.454545 -133.601406 
L 56.272727 -134.498574 
L 59.090909 -135.523773 
L 61.909091 -136.348874 
L 64.727273 -136.880953 
L 67.545455 -137.713258 
L 70.363636 -138.575149 
L 73.181818 -139.521902 
L 76 -140.286982 
L 78.818182 -141.133478 
L 81.636364 -141.881318 
L 84.454545 -142.702193 
L 87.272727 -143.411014 
L 90.090909 -143.94821 
L 92.909091 -144.677706 
L 95.727273 -145.612802 
L 98.545455 -146.322859 
L 101.363636 -147.050402 
L 104.181818 -147.665409 
L 107 -148.219942 
L 109.818182 -148.742408 
L 112.636364 -149.166705 
L 115.454545 -149.891293 
L 118.272727 -150.329107 
L 121.090909 -150.899452 
L 123.909091 -151.496839 
L 126.727273 -152.179287 
L 129.545455 -152.788077 
L 132.363636 -153.327487 
L 135.181818 -153.863147 
L 138 -154.360522 
L 140.818182 -154.854357 
L 143.636364 -154.881656 
L 146.454545 -155.471759 
L 149.272727 -156.0622 
L 152.090909 -156.195225 
L 154.909091 -156.110089 
L 157.727273 -156.600834 
L 160.545455 -157.093078 
L 163.363636 -157.275475 
L 166.181818 -157.592621 
L 169 -157.572352 
L 171.818182 -157.869489 
L 174.636364 -158.166626 
L 177.454545 -158.296398 
L 180.272727 -158.348767 
L 183.090909 -158.349597 
L 185.909091 -158.73399 
L 188.727273 -158.714103 
L 191.545455 -159.038386 
L 194.363636 -159.38944 
L 197.181818 -159.632066 
L 200 -159.65355 
L 202.818182 -159.558759 
L 205.636364 -159.706505 
L 208.454545 -159.646286 
L 211.272727 -159.708975 
L 214.090909 -159.671875 
L 216.909091 -159.410414 
L 219.727273 -159.212987 
L 222.545455 -159.08127 
L 225.363636 -159.226412 
L 228.181818 -159.08287 
L 231 -159.474447 
L 233.818182 -159.233478 
L 236.636364 -159.493677 
L 239.454545 -159.208462 
L 242.272727 -159.362488 
L 245.090909 -159.429125 
L 247.909091 -159.291932 
L 250.727273 -159.043773 
L 253.545455 -158.802326 
L 256.363636 -158.56965 
L 259.181818 -158.671745 
L 262 -158.804568 
L 264.818182 -158.937392 
L 267.636364 -159.062179 
L 270.454545 -159.014906 
L 273.272727 -158.972593 
L 276.090909 -158.932027 
L 278.909091 -158.770097 
L 281.727273 -158.521561 
L 284.545455 -158.273025 
L 287.363636 -158.024489 
L 290.181818 -157.775953 
L 293 -157.527417 
L 295.818182 -157.516644 
L 298.636364 -157.504774 
L 301.454545 -157.248918 
L 304.272727 -156.993062 
L 307.090909 -156.737206 
L 309.909091 -156.481351 
L 312.727273 -156.225495 
L 315.545455 -155.973607 
L 318.363636 -155.723954 
L 321.181818 -155.627063 
L 324 -155.673421 
L 324 -221.236289 
L 324 -221.236289 
L 321.181818 -220.276106 
L 318.363636 -219.442517 
L 315.545455 -218.673828 
L 312.727273 -217.90514 
L 309.909091 -217.136452 
L 307.090909 -216.232316 
L 304.272727 -215.375629 
L 301.454545 -214.576267 
L 298.636364 -213.755638 
L 295.818182 -212.848948 
L 293 -211.942286 
L 290.181818 -211.099372 
L 287.363636 -210.383309 
L 284.545455 -209.584797 
L 281.727273 -208.905401 
L 278.909091 -208.20182 
L 276.090909 -207.534698 
L 273.272727 -206.711386 
L 270.454545 -205.933203 
L 267.636364 -205.223262 
L 264.818182 -204.690025 
L 262 -203.978583 
L 259.181818 -203.265272 
L 256.363636 -202.551961 
L 253.545455 -201.801729 
L 250.727273 -200.961984 
L 247.909091 -200.251361 
L 245.090909 -199.529006 
L 242.272727 -198.767691 
L 239.454545 -198.030237 
L 236.636364 -197.384461 
L 233.818182 -196.703285 
L 231 -196.108294 
L 228.181818 -195.432991 
L 225.363636 -194.718875 
L 222.545455 -194.053854 
L 219.727273 -193.743865 
L 216.909091 -193.169053 
L 214.090909 -192.436267 
L 211.272727 -191.842043 
L 208.454545 -191.100235 
L 205.636364 -190.575297 
L 202.818182 -190.166597 
L 200 -189.629203 
L 197.181818 -189.169567 
L 194.363636 -188.857222 
L 191.545455 -188.265038 
L 188.727273 -187.864051 
L 185.909091 -187.536129 
L 183.090909 -187.265983 
L 180.272727 -186.976995 
L 177.454545 -186.690955 
L 174.636364 -186.289362 
L 171.818182 -185.93769 
L 169 -185.633887 
L 166.181818 -185.318266 
L 163.363636 -184.865091 
L 160.545455 -184.617889 
L 157.727273 -184.366411 
L 154.909091 -184.053527 
L 152.090909 -184.12515 
L 149.272727 -183.857775 
L 146.454545 -183.585492 
L 143.636364 -183.276484 
L 140.818182 -183.059623 
L 138 -182.792568 
L 135.181818 -182.54597 
L 132.363636 -182.415695 
L 129.545455 -182.307555 
L 126.727273 -182.088341 
L 123.909091 -181.830177 
L 121.090909 -181.573066 
L 118.272727 -181.318036 
L 115.454545 -181.226034 
L 112.636364 -180.82063 
L 109.818182 -180.637789 
L 107 -180.461362 
L 104.181818 -180.286367 
L 101.363636 -180.116471 
L 98.545455 -179.955791 
L 95.727273 -179.94936 
L 92.909091 -179.897938 
L 90.090909 -179.712039 
L 87.272727 -179.450909 
L 84.454545 -179.25517 
L 81.636364 -179.293439 
L 78.818182 -179.358375 
L 76 -179.423311 
L 73.181818 -179.540012 
L 70.363636 -179.57961 
L 67.545455 -179.515908 
L 64.727273 -179.404177 
L 61.909091 -179.310743 
L 59.090909 -179.339421 
L 56.272727 -179.38638 
L 53.454545 -179.33832 
L 50.636364 -179.514476 
L 47.818182 -179.764424 
L 45 -179.793073 
z
" style="stroke: #ffffff; stroke-opacity: 0.15"/>
    </defs>
    <g clip-path="url(#pac9fca2005)">
     <use xlink:href="#m40d639e520" x="0" y="288" style="fill: #0000ff; fill-opacity: 0.15; stroke: #ffffff; stroke-opacity: 0.15"/>
    </g>
   </g>
   <g id="PathCollection_2">
    <defs>
     <path id="m4cb0d1e8b3" d="M 0 1.322876 
C 0.350831 1.322876 0.68734 1.183489 0.935414 0.935414 
C 1.183489 0.68734 1.322876 0.350831 1.322876 0 
C 1.322876 -0.350831 1.183489 -0.68734 0.935414 -0.935414 
C 0.68734 -1.183489 0.350831 -1.322876 0 -1.322876 
C -0.350831 -1.322876 -0.68734 -1.183489 -0.935414 -0.935414 
C -1.183489 -0.68734 -1.322876 -0.350831 -1.322876 0 
C -1.322876 0.350831 -1.183489 0.68734 -0.935414 0.935414 
C -0.68734 1.183489 -0.350831 1.322876 0 1.322876 
z
" style="stroke: #ff0000; stroke-opacity: 0.5"/>
    </defs>
    <g clip-path="url(#pac9fca2005)">
     <use xlink:href="#m4cb0d1e8b3" x="107" y="113.190257" style="fill: #ff0000; fill-opacity: 0.5; stroke: #ff0000; stroke-opacity: 0.5"/>
     <use xlink:href="#m4cb0d1e8b3" x="100.8" y="188.595539" style="fill: #ff0000; fill-opacity: 0.5; stroke: #ff0000; stroke-opacity: 0.5"/>
     <use xlink:href="#m4cb0d1e8b3" x="63.6" y="85.770154" style="fill: #ff0000; fill-opacity: 0.5; stroke: #ff0000; stroke-opacity: 0.5"/>
     <use xlink:href="#m4cb0d1e8b3" x="206.2" y="140.610359" style="fill: #ff0000; fill-opacity: 0.5; stroke: #ff0000; stroke-opacity: 0.5"/>
     <use xlink:href="#m4cb0d1e8b3" x="150.4" y="188.595539" style="fill: #ff0000; fill-opacity: 0.5; stroke: #ff0000; stroke-opacity: 0.5"/>
     <use xlink:href="#m4cb0d1e8b3" x="119.4" y="161.175436" style="fill: #ff0000; fill-opacity: 0.5; stroke: #ff0000; stroke-opacity: 0.5"/>
     <use xlink:href="#m4cb0d1e8b3" x="150.4" y="202.30559" style="fill: #ff0000; fill-opacity: 0.5; stroke: #ff0000; stroke-opacity: 0.5"/>
     <use xlink:href="#m4cb0d1e8b3" x="237.2" y="188.595539" style="fill: #ff0000; fill-opacity: 0.5; stroke: #ff0000; stroke-opacity: 0.5"/>
     <use xlink:href="#m4cb0d1e8b3" x="249.6" y="188.595539" style="fill: #ff0000; fill-opacity: 0.5; stroke: #ff0000; stroke-opacity: 0.5"/>
     <use xlink:href="#m4cb0d1e8b3" x="187.6" y="126.900308" style="fill: #ff0000; fill-opacity: 0.5; stroke: #ff0000; stroke-opacity: 0.5"/>
     <use xlink:href="#m4cb0d1e8b3" x="181.4" y="188.595539" style="fill: #ff0000; fill-opacity: 0.5; stroke: #ff0000; stroke-opacity: 0.5"/>
     <use xlink:href="#m4cb0d1e8b3" x="156.6" y="195.450565" style="fill: #ff0000; fill-opacity: 0.5; stroke: #ff0000; stroke-opacity: 0.5"/>
     <use xlink:href="#m4cb0d1e8b3" x="206.2" y="140.610359" style="fill: #ff0000; fill-opacity: 0.5; stroke: #ff0000; stroke-opacity: 0.5"/>
     <use xlink:href="#m4cb0d1e8b3" x="262" y="195.450565" style="fill: #ff0000; fill-opacity: 0.5; stroke: #ff0000; stroke-opacity: 0.5"/>
     <use xlink:href="#m4cb0d1e8b3" x="255.8" y="202.30559" style="fill: #ff0000; fill-opacity: 0.5; stroke: #ff0000; stroke-opacity: 0.5"/>
     <use xlink:href="#m4cb0d1e8b3" x="156.6" y="181.740513" style="fill: #ff0000; fill-opacity: 0.5; stroke: #ff0000; stroke-opacity: 0.5"/>
     <use xlink:href="#m4cb0d1e8b3" x="218.6" y="174.885488" style="fill: #ff0000; fill-opacity: 0.5; stroke: #ff0000; stroke-opacity: 0.5"/>
     <use xlink:href="#m4cb0d1e8b3" x="138" y="188.595539" style="fill: #ff0000; fill-opacity: 0.5; stroke: #ff0000; stroke-opacity: 0.5"/>
     <use xlink:href="#m4cb0d1e8b3" x="169" y="147.465385" style="fill: #ff0000; fill-opacity: 0.5; stroke: #ff0000; stroke-opacity: 0.5"/>
     <use xlink:href="#m4cb0d1e8b3" x="162.8" y="147.465385" style="fill: #ff0000; fill-opacity: 0.5; stroke: #ff0000; stroke-opacity: 0.5"/>
     <use xlink:href="#m4cb0d1e8b3" x="293" y="195.450565" style="fill: #ff0000; fill-opacity: 0.5; stroke: #ff0000; stroke-opacity: 0.5"/>
     <use xlink:href="#m4cb0d1e8b3" x="82.2" y="106.335231" style="fill: #ff0000; fill-opacity: 0.5; stroke: #ff0000; stroke-opacity: 0.5"/>
     <use xlink:href="#m4cb0d1e8b3" x="69.8" y="65.205077" style="fill: #ff0000; fill-opacity: 0.5; stroke: #ff0000; stroke-opacity: 0.5"/>
     <use xlink:href="#m4cb0d1e8b3" x="94.6" y="174.885488" style="fill: #ff0000; fill-opacity: 0.5; stroke: #ff0000; stroke-opacity: 0.5"/>
     <use xlink:href="#m4cb0d1e8b3" x="63.6" y="78.915128" style="fill: #ff0000; fill-opacity: 0.5; stroke: #ff0000; stroke-opacity: 0.5"/>
     <use xlink:href="#m4cb0d1e8b3" x="107" y="174.885488" style="fill: #ff0000; fill-opacity: 0.5; stroke: #ff0000; stroke-opacity: 0.5"/>
    </g>
   </g>
   <g id="PolyCollection_2">
    <defs>
     <path id="m6335c562a7" d="M 45 -207.589474 
L 45 -121.233426 
L 47.818182 -120.850931 
L 50.636364 -120.674082 
L 53.454545 -120.595744 
L 56.272727 -120.517405 
L 59.090909 -120.342503 
L 61.909091 -119.974286 
L 64.727273 -119.606068 
L 67.545455 -119.286466 
L 70.363636 -119.177857 
L 73.181818 -118.860233 
L 76 -118.54261 
L 78.818182 -118.195667 
L 81.636364 -117.756342 
L 84.454545 -117.361415 
L 87.272727 -117.279339 
L 90.090909 -116.960117 
L 92.909091 -116.640894 
L 95.727273 -116.321671 
L 98.545455 -115.979975 
L 101.363636 -115.547512 
L 104.181818 -115.301104 
L 107 -114.931707 
L 109.818182 -114.56231 
L 112.636364 -114.192913 
L 115.454545 -113.829598 
L 118.272727 -113.468392 
L 121.090909 -113.153343 
L 123.909091 -113.008308 
L 126.727273 -112.791219 
L 129.545455 -112.414832 
L 132.363636 -112.038445 
L 135.181818 -111.641175 
L 138 -111.117745 
L 140.818182 -110.742465 
L 143.636364 -110.506253 
L 146.454545 -110.159668 
L 149.272727 -109.787957 
L 152.090909 -109.467713 
L 154.909091 -109.074005 
L 157.727273 -108.680807 
L 160.545455 -108.488918 
L 163.363636 -108.311114 
L 166.181818 -108.132651 
L 169 -107.917031 
L 171.818182 -107.672149 
L 174.636364 -107.148431 
L 177.454545 -106.535994 
L 180.272727 -105.919354 
L 183.090909 -105.241824 
L 185.909091 -104.689096 
L 188.727273 -104.074278 
L 191.545455 -103.3001 
L 194.363636 -102.37527 
L 197.181818 -101.704787 
L 200 -100.792393 
L 202.818182 -99.744899 
L 205.636364 -98.97684 
L 208.454545 -98.049291 
L 211.272727 -97.145429 
L 214.090909 -96.073355 
L 216.909091 -95.026561 
L 219.727273 -93.921896 
L 222.545455 -92.546315 
L 225.363636 -91.246941 
L 228.181818 -89.7983 
L 231 -88.590691 
L 233.818182 -87.02263 
L 236.636364 -85.46577 
L 239.454545 -84.300804 
L 242.272727 -83.366639 
L 245.090909 -81.810629 
L 247.909091 -80.196335 
L 250.727273 -78.58204 
L 253.545455 -77.151889 
L 256.363636 -75.56769 
L 259.181818 -74.297687 
L 262 -73.030585 
L 264.818182 -71.635916 
L 267.636364 -70.267405 
L 270.454545 -68.986456 
L 273.272727 -67.705506 
L 276.090909 -66.400932 
L 278.909091 -65.142561 
L 281.727273 -63.870097 
L 284.545455 -62.632828 
L 287.363636 -61.294219 
L 290.181818 -59.796517 
L 293 -58.291 
L 295.818182 -56.785484 
L 298.636364 -55.279968 
L 301.454545 -53.774451 
L 304.272727 -52.268935 
L 307.090909 -50.763419 
L 309.909091 -49.261313 
L 312.727273 -47.76105 
L 315.545455 -46.260788 
L 318.363636 -44.760525 
L 321.181818 -43.260263 
L 324 -41.76 
L 324 -98.193027 
L 324 -98.193027 
L 321.181818 -98.479512 
L 318.363636 -98.659171 
L 315.545455 -98.834867 
L 312.727273 -99.010562 
L 309.909091 -99.42368 
L 307.090909 -99.823704 
L 304.272727 -100.262148 
L 301.454545 -100.706285 
L 298.636364 -101.141182 
L 295.818182 -101.483295 
L 293 -101.914961 
L 290.181818 -102.334934 
L 287.363636 -102.76692 
L 284.545455 -103.198907 
L 281.727273 -103.630894 
L 278.909091 -104.062807 
L 276.090909 -104.409694 
L 273.272727 -104.810636 
L 270.454545 -105.358842 
L 267.636364 -105.790829 
L 264.818182 -106.147356 
L 262 -106.654803 
L 259.181818 -107.171923 
L 256.363636 -107.723081 
L 253.545455 -108.17943 
L 250.727273 -109.06962 
L 247.909091 -109.851929 
L 245.090909 -111.023961 
L 242.272727 -111.854077 
L 239.454545 -112.346318 
L 236.636364 -113.214197 
L 233.818182 -113.955935 
L 231 -114.660748 
L 228.181818 -115.790038 
L 225.363636 -116.651945 
L 222.545455 -117.498985 
L 219.727273 -118.542936 
L 216.909091 -119.825727 
L 214.090909 -120.760869 
L 211.272727 -121.628564 
L 208.454545 -122.657083 
L 205.636364 -123.889318 
L 202.818182 -124.984199 
L 200 -126.346458 
L 197.181818 -127.709766 
L 194.363636 -129.079467 
L 191.545455 -130.441405 
L 188.727273 -131.642494 
L 185.909091 -132.919532 
L 183.090909 -134.435921 
L 180.272727 -135.900088 
L 177.454545 -137.266869 
L 174.636364 -138.572757 
L 171.818182 -139.726673 
L 169 -140.980847 
L 166.181818 -142.416462 
L 163.363636 -143.916333 
L 160.545455 -145.412863 
L 157.727273 -146.814617 
L 154.909091 -148.197369 
L 152.090909 -149.733458 
L 149.272727 -151.269547 
L 146.454545 -152.805636 
L 143.636364 -154.341724 
L 140.818182 -155.877072 
L 138 -157.291127 
L 135.181818 -158.618848 
L 132.363636 -160.060744 
L 129.545455 -161.64475 
L 126.727273 -163.228418 
L 123.909091 -164.842852 
L 121.090909 -166.395627 
L 118.272727 -167.892694 
L 115.454545 -169.334868 
L 112.636364 -170.882161 
L 109.818182 -172.410714 
L 107 -173.961097 
L 104.181818 -175.412619 
L 101.363636 -176.985431 
L 98.545455 -178.596117 
L 95.727273 -179.941233 
L 92.909091 -181.454923 
L 90.090909 -183.015027 
L 87.272727 -184.592501 
L 84.454545 -186.132518 
L 81.636364 -187.654236 
L 78.818182 -189.205883 
L 76 -190.756368 
L 73.181818 -192.306563 
L 70.363636 -193.856758 
L 67.545455 -195.406954 
L 64.727273 -196.941001 
L 61.909091 -198.462624 
L 59.090909 -199.984247 
L 56.272727 -201.505871 
L 53.454545 -203.027361 
L 50.636364 -204.548065 
L 47.818182 -206.068769 
L 45 -207.589474 
z
" style="stroke: #ffffff; stroke-opacity: 0.15"/>
    </defs>
    <g clip-path="url(#pac9fca2005)">
     <use xlink:href="#m6335c562a7" x="0" y="288" style="fill: #ff0000; fill-opacity: 0.15; stroke: #ffffff; stroke-opacity: 0.15"/>
    </g>
   </g>
   <g id="line2d_12">
    <path d="M 45 128.895465 
L 47.818182 128.564404 
L 50.636364 128.233343 
L 53.454545 127.902282 
L 56.272727 127.571221 
L 59.090909 127.24016 
L 61.909091 126.909099 
L 64.727273 126.578038 
L 67.545455 126.246977 
L 70.363636 125.915916 
L 73.181818 125.584854 
L 76 125.253793 
L 78.818182 124.922732 
L 81.636364 124.591671 
L 84.454545 124.26061 
L 87.272727 123.929549 
L 90.090909 123.598488 
L 92.909091 123.267427 
L 95.727273 122.936366 
L 98.545455 122.605305 
L 101.363636 122.274244 
L 104.181818 121.943183 
L 107 121.612122 
L 109.818182 121.281061 
L 112.636364 120.95 
L 115.454545 120.618939 
L 118.272727 120.287878 
L 121.090909 119.956817 
L 123.909091 119.625756 
L 126.727273 119.294695 
L 129.545455 118.963633 
L 132.363636 118.632572 
L 135.181818 118.301511 
L 138 117.97045 
L 140.818182 117.639389 
L 143.636364 117.308328 
L 146.454545 116.977267 
L 149.272727 116.646206 
L 152.090909 116.315145 
L 154.909091 115.984084 
L 157.727273 115.653023 
L 160.545455 115.321962 
L 163.363636 114.990901 
L 166.181818 114.65984 
L 169 114.328779 
L 171.818182 113.997718 
L 174.636364 113.666657 
L 177.454545 113.335596 
L 180.272727 113.004535 
L 183.090909 112.673474 
L 185.909091 112.342412 
L 188.727273 112.011351 
L 191.545455 111.68029 
L 194.363636 111.349229 
L 197.181818 111.018168 
L 200 110.687107 
L 202.818182 110.356046 
L 205.636364 110.024985 
L 208.454545 109.693924 
L 211.272727 109.362863 
L 214.090909 109.031802 
L 216.909091 108.700741 
L 219.727273 108.36968 
L 222.545455 108.038619 
L 225.363636 107.707558 
L 228.181818 107.376497 
L 231 107.045436 
L 233.818182 106.714375 
L 236.636364 106.383314 
L 239.454545 106.052253 
L 242.272727 105.721191 
L 245.090909 105.39013 
L 247.909091 105.059069 
L 250.727273 104.728008 
L 253.545455 104.396947 
L 256.363636 104.065886 
L 259.181818 103.734825 
L 262 103.403764 
L 264.818182 103.072703 
L 267.636364 102.741642 
L 270.454545 102.410581 
L 273.272727 102.07952 
L 276.090909 101.748459 
L 278.909091 101.417398 
L 281.727273 101.086337 
L 284.545455 100.755276 
L 287.363636 100.424215 
L 290.181818 100.093154 
L 293 99.762093 
L 295.818182 99.431031 
L 298.636364 99.09997 
L 301.454545 98.768909 
L 304.272727 98.437848 
L 307.090909 98.106787 
L 309.909091 97.775726 
L 312.727273 97.444665 
L 315.545455 97.113604 
L 318.363636 96.782543 
L 321.181818 96.451482 
L 324 96.120421 
" clip-path="url(#pac9fca2005)" style="fill: none; stroke: #0000ff; stroke-width: 2.25; stroke-linecap: round"/>
   </g>
   <g id="line2d_13">
    <path d="M 45 115.696427 
L 47.818182 116.756138 
L 50.636364 117.815849 
L 53.454545 118.87556 
L 56.272727 119.935271 
L 59.090909 120.994982 
L 61.909091 122.054693 
L 64.727273 123.114404 
L 67.545455 124.174115 
L 70.363636 125.233827 
L 73.181818 126.293538 
L 76 127.353249 
L 78.818182 128.41296 
L 81.636364 129.472671 
L 84.454545 130.532382 
L 87.272727 131.592093 
L 90.090909 132.651804 
L 92.909091 133.711515 
L 95.727273 134.771226 
L 98.545455 135.830937 
L 101.363636 136.890648 
L 104.181818 137.950359 
L 107 139.010071 
L 109.818182 140.069782 
L 112.636364 141.129493 
L 115.454545 142.189204 
L 118.272727 143.248915 
L 121.090909 144.308626 
L 123.909091 145.368337 
L 126.727273 146.428048 
L 129.545455 147.487759 
L 132.363636 148.54747 
L 135.181818 149.607181 
L 138 150.666892 
L 140.818182 151.726603 
L 143.636364 152.786314 
L 146.454545 153.846026 
L 149.272727 154.905737 
L 152.090909 155.965448 
L 154.909091 157.025159 
L 157.727273 158.08487 
L 160.545455 159.144581 
L 163.363636 160.204292 
L 166.181818 161.264003 
L 169 162.323714 
L 171.818182 163.383425 
L 174.636364 164.443136 
L 177.454545 165.502847 
L 180.272727 166.562558 
L 183.090909 167.622269 
L 185.909091 168.681981 
L 188.727273 169.741692 
L 191.545455 170.801403 
L 194.363636 171.861114 
L 197.181818 172.920825 
L 200 173.980536 
L 202.818182 175.040247 
L 205.636364 176.099958 
L 208.454545 177.159669 
L 211.272727 178.21938 
L 214.090909 179.279091 
L 216.909091 180.338802 
L 219.727273 181.398513 
L 222.545455 182.458225 
L 225.363636 183.517936 
L 228.181818 184.577647 
L 231 185.637358 
L 233.818182 186.697069 
L 236.636364 187.75678 
L 239.454545 188.816491 
L 242.272727 189.876202 
L 245.090909 190.935913 
L 247.909091 191.995624 
L 250.727273 193.055335 
L 253.545455 194.115046 
L 256.363636 195.174757 
L 259.181818 196.234468 
L 262 197.29418 
L 264.818182 198.353891 
L 267.636364 199.413602 
L 270.454545 200.473313 
L 273.272727 201.533024 
L 276.090909 202.592735 
L 278.909091 203.652446 
L 281.727273 204.712157 
L 284.545455 205.771868 
L 287.363636 206.831579 
L 290.181818 207.89129 
L 293 208.951001 
L 295.818182 210.010712 
L 298.636364 211.070423 
L 301.454545 212.130135 
L 304.272727 213.189846 
L 307.090909 214.249557 
L 309.909091 215.309268 
L 312.727273 216.368979 
L 315.545455 217.42869 
L 318.363636 218.488401 
L 321.181818 219.548112 
L 324 220.607823 
" clip-path="url(#pac9fca2005)" style="fill: none; stroke: #ff0000; stroke-width: 2.25; stroke-linecap: round"/>
   </g>
   <g id="patch_3">
    <path d="M 45 256.32 
L 45 34.56 
" style="fill: none; stroke: #ffffff; stroke-width: 0.8; stroke-linejoin: miter; stroke-linecap: square"/>
   </g>
   <g id="patch_4">
    <path d="M 324 256.32 
L 324 34.56 
" style="fill: none; stroke: #ffffff; stroke-width: 0.8; stroke-linejoin: miter; stroke-linecap: square"/>
   </g>
   <g id="patch_5">
    <path d="M 45 256.32 
L 324 256.32 
" style="fill: none; stroke: #ffffff; stroke-width: 0.8; stroke-linejoin: miter; stroke-linecap: square"/>
   </g>
   <g id="patch_6">
    <path d="M 45 34.56 
L 324 34.56 
" style="fill: none; stroke: #ffffff; stroke-width: 0.8; stroke-linejoin: miter; stroke-linecap: square"/>
   </g>
   <g id="text_12">
    <!-- HAMD -->
    <g style="fill: #262626" transform="translate(157.504219 28.56)scale(0.18 -0.18)">
     <defs>
      <path id="Arial-BoldMT-48" d="M 469 0 
L 469 4581 
L 1394 4581 
L 1394 2778 
L 3206 2778 
L 3206 4581 
L 4131 4581 
L 4131 0 
L 3206 0 
L 3206 2003 
L 1394 2003 
L 1394 0 
L 469 0 
z
" transform="scale(0.015625)"/>
      <path id="Arial-BoldMT-41" d="M 4597 0 
L 3591 0 
L 3191 1041 
L 1359 1041 
L 981 0 
L 0 0 
L 1784 4581 
L 2763 4581 
L 4597 0 
z
M 2894 1813 
L 2263 3513 
L 1644 1813 
L 2894 1813 
z
" transform="scale(0.015625)"/>
      <path id="Arial-BoldMT-4d" d="M 453 0 
L 453 4581 
L 1838 4581 
L 2669 1456 
L 3491 4581 
L 4878 4581 
L 4878 0 
L 4019 0 
L 4019 3606 
L 3109 0 
L 2219 0 
L 1313 3606 
L 1313 0 
L 453 0 
z
" transform="scale(0.015625)"/>
      <path id="Arial-BoldMT-44" d="M 463 4581 
L 2153 4581 
Q 2725 4581 3025 4494 
Q 3428 4375 3715 4072 
Q 4003 3769 4153 3330 
Q 4303 2891 4303 2247 
Q 4303 1681 4163 1272 
Q 3991 772 3672 463 
Q 3431 228 3022 97 
Q 2716 0 2203 0 
L 463 0 
L 463 4581 
z
M 1388 3806 
L 1388 772 
L 2078 772 
Q 2466 772 2638 816 
Q 2863 872 3011 1006 
Q 3159 1141 3253 1448 
Q 3347 1756 3347 2288 
Q 3347 2819 3253 3103 
Q 3159 3388 2990 3547 
Q 2822 3706 2563 3763 
Q 2369 3806 1803 3806 
L 1388 3806 
z
" transform="scale(0.015625)"/>
     </defs>
     <use xlink:href="#Arial-BoldMT-48"/>
     <use xlink:href="#Arial-BoldMT-41" x="72.216797"/>
     <use xlink:href="#Arial-BoldMT-4d" x="144.433594"/>
     <use xlink:href="#Arial-BoldMT-44" x="227.734375"/>
    </g>
   </g>
  </g>
 </g>
 <defs>
  <clipPath id="pac9fca2005">
   <rect x="45" y="34.56" width="279" height="221.76"/>
  </clipPath>
 </defs>
</svg>
