<?xml version="1.0" encoding="utf-8" standalone="no"?>
<!DOCTYPE svg PUBLIC "-//W3C//DTD SVG 1.1//EN"
  "http://www.w3.org/Graphics/SVG/1.1/DTD/svg11.dtd">
<svg xmlns:xlink="http://www.w3.org/1999/xlink" width="360pt" height="288pt" viewBox="0 0 360 288" xmlns="http://www.w3.org/2000/svg" version="1.1">
 <metadata>
  <rdf:RDF xmlns:dc="http://purl.org/dc/elements/1.1/" xmlns:cc="http://creativecommons.org/ns#" xmlns:rdf="http://www.w3.org/1999/02/22-rdf-syntax-ns#">
   <cc:Work>
    <dc:type rdf:resource="http://purl.org/dc/dcmitype/StillImage"/>
    <dc:date>2022-11-10T09:40:58.245577</dc:date>
    <dc:format>image/svg+xml</dc:format>
    <dc:creator>
     <cc:Agent>
      <dc:title>Matplotlib v3.5.2, https://matplotlib.org/</dc:title>
     </cc:Agent>
    </dc:creator>
   </cc:Work>
  </rdf:RDF>
 </metadata>
 <defs>
  <style type="text/css">*{stroke-linejoin: round; stroke-linecap: butt}</style>
 </defs>
 <g id="figure_1">
  <g id="patch_1">
   <path d="M 0 288 
L 360 288 
L 360 0 
L 0 0 
z
" style="fill: #ffffff"/>
  </g>
  <g id="axes_1">
   <g id="patch_2">
    <path d="M 45 256.32 
L 324 256.32 
L 324 34.56 
L 45 34.56 
z
" style="fill: #eaeaf2"/>
   </g>
   <g id="matplotlib.axis_1">
    <g id="xtick_1">
     <g id="line2d_1">
      <path d="M 45 256.32 
L 45 34.56 
" clip-path="url(#p101bf6f1da)" style="fill: none; stroke: #ffffff; stroke-width: 0.8; stroke-linecap: round"/>
     </g>
     <g id="text_1">
      <!-- 0 -->
      <g style="fill: #262626" transform="translate(41.107344 273.340937)scale(0.14 -0.14)">
       <defs>
        <path id="ArialMT-30" d="M 266 2259 
Q 266 3072 433 3567 
Q 600 4063 929 4331 
Q 1259 4600 1759 4600 
Q 2128 4600 2406 4451 
Q 2684 4303 2865 4023 
Q 3047 3744 3150 3342 
Q 3253 2941 3253 2259 
Q 3253 1453 3087 958 
Q 2922 463 2592 192 
Q 2263 -78 1759 -78 
Q 1097 -78 719 397 
Q 266 969 266 2259 
z
M 844 2259 
Q 844 1131 1108 757 
Q 1372 384 1759 384 
Q 2147 384 2411 759 
Q 2675 1134 2675 2259 
Q 2675 3391 2411 3762 
Q 2147 4134 1753 4134 
Q 1366 4134 1134 3806 
Q 844 3388 844 2259 
z
" transform="scale(0.015625)"/>
       </defs>
       <use xlink:href="#ArialMT-30"/>
      </g>
     </g>
    </g>
    <g id="xtick_2">
     <g id="line2d_2">
      <path d="M 114.75 256.32 
L 114.75 34.56 
" clip-path="url(#p101bf6f1da)" style="fill: none; stroke: #ffffff; stroke-width: 0.8; stroke-linecap: round"/>
     </g>
     <g id="text_2">
      <!-- 20 -->
      <g style="fill: #262626" transform="translate(106.964687 273.340937)scale(0.14 -0.14)">
       <defs>
        <path id="ArialMT-32" d="M 3222 541 
L 3222 0 
L 194 0 
Q 188 203 259 391 
Q 375 700 629 1000 
Q 884 1300 1366 1694 
Q 2113 2306 2375 2664 
Q 2638 3022 2638 3341 
Q 2638 3675 2398 3904 
Q 2159 4134 1775 4134 
Q 1369 4134 1125 3890 
Q 881 3647 878 3216 
L 300 3275 
Q 359 3922 746 4261 
Q 1134 4600 1788 4600 
Q 2447 4600 2831 4234 
Q 3216 3869 3216 3328 
Q 3216 3053 3103 2787 
Q 2991 2522 2730 2228 
Q 2469 1934 1863 1422 
Q 1356 997 1212 845 
Q 1069 694 975 541 
L 3222 541 
z
" transform="scale(0.015625)"/>
       </defs>
       <use xlink:href="#ArialMT-32"/>
       <use xlink:href="#ArialMT-30" x="55.615234"/>
      </g>
     </g>
    </g>
    <g id="xtick_3">
     <g id="line2d_3">
      <path d="M 184.5 256.32 
L 184.5 34.56 
" clip-path="url(#p101bf6f1da)" style="fill: none; stroke: #ffffff; stroke-width: 0.8; stroke-linecap: round"/>
     </g>
     <g id="text_3">
      <!-- 40 -->
      <g style="fill: #262626" transform="translate(176.714687 273.340937)scale(0.14 -0.14)">
       <defs>
        <path id="ArialMT-34" d="M 2069 0 
L 2069 1097 
L 81 1097 
L 81 1613 
L 2172 4581 
L 2631 4581 
L 2631 1613 
L 3250 1613 
L 3250 1097 
L 2631 1097 
L 2631 0 
L 2069 0 
z
M 2069 1613 
L 2069 3678 
L 634 1613 
L 2069 1613 
z
" transform="scale(0.015625)"/>
       </defs>
       <use xlink:href="#ArialMT-34"/>
       <use xlink:href="#ArialMT-30" x="55.615234"/>
      </g>
     </g>
    </g>
    <g id="xtick_4">
     <g id="line2d_4">
      <path d="M 254.25 256.32 
L 254.25 34.56 
" clip-path="url(#p101bf6f1da)" style="fill: none; stroke: #ffffff; stroke-width: 0.8; stroke-linecap: round"/>
     </g>
     <g id="text_4">
      <!-- 60 -->
      <g style="fill: #262626" transform="translate(246.464688 273.340937)scale(0.14 -0.14)">
       <defs>
        <path id="ArialMT-36" d="M 3184 3459 
L 2625 3416 
Q 2550 3747 2413 3897 
Q 2184 4138 1850 4138 
Q 1581 4138 1378 3988 
Q 1113 3794 959 3422 
Q 806 3050 800 2363 
Q 1003 2672 1297 2822 
Q 1591 2972 1913 2972 
Q 2475 2972 2870 2558 
Q 3266 2144 3266 1488 
Q 3266 1056 3080 686 
Q 2894 316 2569 119 
Q 2244 -78 1831 -78 
Q 1128 -78 684 439 
Q 241 956 241 2144 
Q 241 3472 731 4075 
Q 1159 4600 1884 4600 
Q 2425 4600 2770 4297 
Q 3116 3994 3184 3459 
z
M 888 1484 
Q 888 1194 1011 928 
Q 1134 663 1356 523 
Q 1578 384 1822 384 
Q 2178 384 2434 671 
Q 2691 959 2691 1453 
Q 2691 1928 2437 2201 
Q 2184 2475 1800 2475 
Q 1419 2475 1153 2201 
Q 888 1928 888 1484 
z
" transform="scale(0.015625)"/>
       </defs>
       <use xlink:href="#ArialMT-36"/>
       <use xlink:href="#ArialMT-30" x="55.615234"/>
      </g>
     </g>
    </g>
    <g id="xtick_5">
     <g id="line2d_5">
      <path d="M 324 256.32 
L 324 34.56 
" clip-path="url(#p101bf6f1da)" style="fill: none; stroke: #ffffff; stroke-width: 0.8; stroke-linecap: round"/>
     </g>
     <g id="text_5">
      <!-- 80 -->
      <g style="fill: #262626" transform="translate(316.214688 273.340937)scale(0.14 -0.14)">
       <defs>
        <path id="ArialMT-38" d="M 1131 2484 
Q 781 2613 612 2850 
Q 444 3088 444 3419 
Q 444 3919 803 4259 
Q 1163 4600 1759 4600 
Q 2359 4600 2725 4251 
Q 3091 3903 3091 3403 
Q 3091 3084 2923 2848 
Q 2756 2613 2416 2484 
Q 2838 2347 3058 2040 
Q 3278 1734 3278 1309 
Q 3278 722 2862 322 
Q 2447 -78 1769 -78 
Q 1091 -78 675 323 
Q 259 725 259 1325 
Q 259 1772 486 2073 
Q 713 2375 1131 2484 
z
M 1019 3438 
Q 1019 3113 1228 2906 
Q 1438 2700 1772 2700 
Q 2097 2700 2305 2904 
Q 2513 3109 2513 3406 
Q 2513 3716 2298 3927 
Q 2084 4138 1766 4138 
Q 1444 4138 1231 3931 
Q 1019 3725 1019 3438 
z
M 838 1322 
Q 838 1081 952 856 
Q 1066 631 1291 507 
Q 1516 384 1775 384 
Q 2178 384 2440 643 
Q 2703 903 2703 1303 
Q 2703 1709 2433 1975 
Q 2163 2241 1756 2241 
Q 1359 2241 1098 1978 
Q 838 1716 838 1322 
z
" transform="scale(0.015625)"/>
       </defs>
       <use xlink:href="#ArialMT-38"/>
       <use xlink:href="#ArialMT-30" x="55.615234"/>
      </g>
     </g>
    </g>
   </g>
   <g id="matplotlib.axis_2">
    <g id="ytick_1">
     <g id="line2d_6">
      <path d="M 45 252.967245 
L 324 252.967245 
" clip-path="url(#p101bf6f1da)" style="fill: none; stroke: #ffffff; stroke-width: 0.8; stroke-linecap: round"/>
     </g>
     <g id="text_6">
      <!-- −40 -->
      <g style="fill: #262626" transform="translate(14.2525 257.977714)scale(0.14 -0.14)">
       <defs>
        <path id="ArialMT-2212" d="M 3381 1997 
L 356 1997 
L 356 2522 
L 3381 2522 
L 3381 1997 
z
" transform="scale(0.015625)"/>
       </defs>
       <use xlink:href="#ArialMT-2212"/>
       <use xlink:href="#ArialMT-34" x="58.398438"/>
       <use xlink:href="#ArialMT-30" x="114.013672"/>
      </g>
     </g>
    </g>
    <g id="ytick_2">
     <g id="line2d_7">
      <path d="M 45 216.632267 
L 324 216.632267 
" clip-path="url(#p101bf6f1da)" style="fill: none; stroke: #ffffff; stroke-width: 0.8; stroke-linecap: round"/>
     </g>
     <g id="text_7">
      <!-- −30 -->
      <g style="fill: #262626" transform="translate(14.2525 221.642736)scale(0.14 -0.14)">
       <defs>
        <path id="ArialMT-33" d="M 269 1209 
L 831 1284 
Q 928 806 1161 595 
Q 1394 384 1728 384 
Q 2125 384 2398 659 
Q 2672 934 2672 1341 
Q 2672 1728 2419 1979 
Q 2166 2231 1775 2231 
Q 1616 2231 1378 2169 
L 1441 2663 
Q 1497 2656 1531 2656 
Q 1891 2656 2178 2843 
Q 2466 3031 2466 3422 
Q 2466 3731 2256 3934 
Q 2047 4138 1716 4138 
Q 1388 4138 1169 3931 
Q 950 3725 888 3313 
L 325 3413 
Q 428 3978 793 4289 
Q 1159 4600 1703 4600 
Q 2078 4600 2393 4439 
Q 2709 4278 2876 4000 
Q 3044 3722 3044 3409 
Q 3044 3113 2884 2869 
Q 2725 2625 2413 2481 
Q 2819 2388 3044 2092 
Q 3269 1797 3269 1353 
Q 3269 753 2831 336 
Q 2394 -81 1725 -81 
Q 1122 -81 723 278 
Q 325 638 269 1209 
z
" transform="scale(0.015625)"/>
       </defs>
       <use xlink:href="#ArialMT-2212"/>
       <use xlink:href="#ArialMT-33" x="58.398438"/>
       <use xlink:href="#ArialMT-30" x="114.013672"/>
      </g>
     </g>
    </g>
    <g id="ytick_3">
     <g id="line2d_8">
      <path d="M 45 180.29729 
L 324 180.29729 
" clip-path="url(#p101bf6f1da)" style="fill: none; stroke: #ffffff; stroke-width: 0.8; stroke-linecap: round"/>
     </g>
     <g id="text_8">
      <!-- −20 -->
      <g style="fill: #262626" transform="translate(14.2525 185.307758)scale(0.14 -0.14)">
       <use xlink:href="#ArialMT-2212"/>
       <use xlink:href="#ArialMT-32" x="58.398438"/>
       <use xlink:href="#ArialMT-30" x="114.013672"/>
      </g>
     </g>
    </g>
    <g id="ytick_4">
     <g id="line2d_9">
      <path d="M 45 143.962312 
L 324 143.962312 
" clip-path="url(#p101bf6f1da)" style="fill: none; stroke: #ffffff; stroke-width: 0.8; stroke-linecap: round"/>
     </g>
     <g id="text_9">
      <!-- −10 -->
      <g style="fill: #262626" transform="translate(14.2525 148.972781)scale(0.14 -0.14)">
       <defs>
        <path id="ArialMT-31" d="M 2384 0 
L 1822 0 
L 1822 3584 
Q 1619 3391 1289 3197 
Q 959 3003 697 2906 
L 697 3450 
Q 1169 3672 1522 3987 
Q 1875 4303 2022 4600 
L 2384 4600 
L 2384 0 
z
" transform="scale(0.015625)"/>
       </defs>
       <use xlink:href="#ArialMT-2212"/>
       <use xlink:href="#ArialMT-31" x="58.398438"/>
       <use xlink:href="#ArialMT-30" x="114.013672"/>
      </g>
     </g>
    </g>
    <g id="ytick_5">
     <g id="line2d_10">
      <path d="M 45 107.627334 
L 324 107.627334 
" clip-path="url(#p101bf6f1da)" style="fill: none; stroke: #ffffff; stroke-width: 0.8; stroke-linecap: round"/>
     </g>
     <g id="text_10">
      <!-- 0 -->
      <g style="fill: #262626" transform="translate(30.214688 112.637803)scale(0.14 -0.14)">
       <use xlink:href="#ArialMT-30"/>
      </g>
     </g>
    </g>
    <g id="ytick_6">
     <g id="line2d_11">
      <path d="M 45 71.292356 
L 324 71.292356 
" clip-path="url(#p101bf6f1da)" style="fill: none; stroke: #ffffff; stroke-width: 0.8; stroke-linecap: round"/>
     </g>
     <g id="text_11">
      <!-- 10 -->
      <g style="fill: #262626" transform="translate(22.429375 76.302825)scale(0.14 -0.14)">
       <use xlink:href="#ArialMT-31"/>
       <use xlink:href="#ArialMT-30" x="55.615234"/>
      </g>
     </g>
    </g>
    <g id="ytick_7">
     <g id="line2d_12">
      <path d="M 45 34.957378 
L 324 34.957378 
" clip-path="url(#p101bf6f1da)" style="fill: none; stroke: #ffffff; stroke-width: 0.8; stroke-linecap: round"/>
     </g>
     <g id="text_12">
      <!-- 20 -->
      <g style="fill: #262626" transform="translate(22.429375 39.967847)scale(0.14 -0.14)">
       <use xlink:href="#ArialMT-32"/>
       <use xlink:href="#ArialMT-30" x="55.615234"/>
      </g>
     </g>
    </g>
   </g>
   <g id="PathCollection_1">
    <defs>
     <path id="mb03eb1dc36" d="M 0 1.322876 
C 0.350831 1.322876 0.68734 1.183489 0.935414 0.935414 
C 1.183489 0.68734 1.322876 0.350831 1.322876 0 
C 1.322876 -0.350831 1.183489 -0.68734 0.935414 -0.935414 
C 0.68734 -1.183489 0.350831 -1.322876 0 -1.322876 
C -0.350831 -1.322876 -0.68734 -1.183489 -0.935414 -0.935414 
C -1.183489 -0.68734 -1.322876 -0.350831 -1.322876 0 
C -1.322876 0.350831 -1.183489 0.68734 -0.935414 0.935414 
C -0.68734 1.183489 -0.350831 1.322876 0 1.322876 
z
" style="stroke: #0000ff; stroke-opacity: 0.5"/>
    </defs>
    <g clip-path="url(#p101bf6f1da)">
     <use xlink:href="#mb03eb1dc36" x="114.75" y="180.29729" style="fill: #0000ff; fill-opacity: 0.5; stroke: #0000ff; stroke-opacity: 0.5"/>
     <use xlink:href="#mb03eb1dc36" x="125.2125" y="136.695316" style="fill: #0000ff; fill-opacity: 0.5; stroke: #0000ff; stroke-opacity: 0.5"/>
     <use xlink:href="#mb03eb1dc36" x="93.825" y="158.496303" style="fill: #0000ff; fill-opacity: 0.5; stroke: #0000ff; stroke-opacity: 0.5"/>
     <use xlink:href="#mb03eb1dc36" x="149.625" y="122.161325" style="fill: #0000ff; fill-opacity: 0.5; stroke: #0000ff; stroke-opacity: 0.5"/>
     <use xlink:href="#mb03eb1dc36" x="149.625" y="111.260832" style="fill: #0000ff; fill-opacity: 0.5; stroke: #0000ff; stroke-opacity: 0.5"/>
     <use xlink:href="#mb03eb1dc36" x="278.6625" y="143.962312" style="fill: #0000ff; fill-opacity: 0.5; stroke: #0000ff; stroke-opacity: 0.5"/>
     <use xlink:href="#mb03eb1dc36" x="132.1875" y="133.061818" style="fill: #0000ff; fill-opacity: 0.5; stroke: #0000ff; stroke-opacity: 0.5"/>
     <use xlink:href="#mb03eb1dc36" x="163.575" y="114.894329" style="fill: #0000ff; fill-opacity: 0.5; stroke: #0000ff; stroke-opacity: 0.5"/>
     <use xlink:href="#mb03eb1dc36" x="100.8" y="78.559352" style="fill: #0000ff; fill-opacity: 0.5; stroke: #0000ff; stroke-opacity: 0.5"/>
     <use xlink:href="#mb03eb1dc36" x="104.2875" y="169.396796" style="fill: #0000ff; fill-opacity: 0.5; stroke: #0000ff; stroke-opacity: 0.5"/>
     <use xlink:href="#mb03eb1dc36" x="125.2125" y="133.061818" style="fill: #0000ff; fill-opacity: 0.5; stroke: #0000ff; stroke-opacity: 0.5"/>
     <use xlink:href="#mb03eb1dc36" x="83.3625" y="111.260832" style="fill: #0000ff; fill-opacity: 0.5; stroke: #0000ff; stroke-opacity: 0.5"/>
     <use xlink:href="#mb03eb1dc36" x="76.3875" y="154.862805" style="fill: #0000ff; fill-opacity: 0.5; stroke: #0000ff; stroke-opacity: 0.5"/>
     <use xlink:href="#mb03eb1dc36" x="55.4625" y="114.894329" style="fill: #0000ff; fill-opacity: 0.5; stroke: #0000ff; stroke-opacity: 0.5"/>
     <use xlink:href="#mb03eb1dc36" x="132.1875" y="114.894329" style="fill: #0000ff; fill-opacity: 0.5; stroke: #0000ff; stroke-opacity: 0.5"/>
     <use xlink:href="#mb03eb1dc36" x="212.4" y="154.862805" style="fill: #0000ff; fill-opacity: 0.5; stroke: #0000ff; stroke-opacity: 0.5"/>
     <use xlink:href="#mb03eb1dc36" x="163.575" y="85.826347" style="fill: #0000ff; fill-opacity: 0.5; stroke: #0000ff; stroke-opacity: 0.5"/>
     <use xlink:href="#mb03eb1dc36" x="111.2625" y="96.726841" style="fill: #0000ff; fill-opacity: 0.5; stroke: #0000ff; stroke-opacity: 0.5"/>
     <use xlink:href="#mb03eb1dc36" x="118.2375" y="96.726841" style="fill: #0000ff; fill-opacity: 0.5; stroke: #0000ff; stroke-opacity: 0.5"/>
     <use xlink:href="#mb03eb1dc36" x="121.725" y="162.129801" style="fill: #0000ff; fill-opacity: 0.5; stroke: #0000ff; stroke-opacity: 0.5"/>
     <use xlink:href="#mb03eb1dc36" x="135.675" y="143.962312" style="fill: #0000ff; fill-opacity: 0.5; stroke: #0000ff; stroke-opacity: 0.5"/>
     <use xlink:href="#mb03eb1dc36" x="104.2875" y="114.894329" style="fill: #0000ff; fill-opacity: 0.5; stroke: #0000ff; stroke-opacity: 0.5"/>
     <use xlink:href="#mb03eb1dc36" x="174.0375" y="78.559352" style="fill: #0000ff; fill-opacity: 0.5; stroke: #0000ff; stroke-opacity: 0.5"/>
     <use xlink:href="#mb03eb1dc36" x="191.475" y="151.229307" style="fill: #0000ff; fill-opacity: 0.5; stroke: #0000ff; stroke-opacity: 0.5"/>
     <use xlink:href="#mb03eb1dc36" x="177.525" y="191.197783" style="fill: #0000ff; fill-opacity: 0.5; stroke: #0000ff; stroke-opacity: 0.5"/>
     <use xlink:href="#mb03eb1dc36" x="177.525" y="122.161325" style="fill: #0000ff; fill-opacity: 0.5; stroke: #0000ff; stroke-opacity: 0.5"/>
     <use xlink:href="#mb03eb1dc36" x="93.825" y="147.59581" style="fill: #0000ff; fill-opacity: 0.5; stroke: #0000ff; stroke-opacity: 0.5"/>
     <use xlink:href="#mb03eb1dc36" x="118.2375" y="118.527827" style="fill: #0000ff; fill-opacity: 0.5; stroke: #0000ff; stroke-opacity: 0.5"/>
     <use xlink:href="#mb03eb1dc36" x="76.3875" y="220.265765" style="fill: #0000ff; fill-opacity: 0.5; stroke: #0000ff; stroke-opacity: 0.5"/>
    </g>
   </g>
   <g id="PolyCollection_1">
    <defs>
     <path id="m799faddcc8" d="M 45 -181.08696 
L 45 -118.189541 
L 47.818182 -119.044366 
L 50.636364 -120.069523 
L 53.454545 -120.937497 
L 56.272727 -122.159649 
L 59.090909 -123.386753 
L 61.909091 -124.367738 
L 64.727273 -125.782844 
L 67.545455 -126.828999 
L 70.363636 -128.187258 
L 73.181818 -129.495293 
L 76 -130.615468 
L 78.818182 -131.135579 
L 81.636364 -132.320822 
L 84.454545 -132.92403 
L 87.272727 -133.560247 
L 90.090909 -134.029194 
L 92.909091 -134.302017 
L 95.727273 -135.699585 
L 98.545455 -136.523044 
L 101.363636 -137.399982 
L 104.181818 -138.389014 
L 107 -139.599709 
L 109.818182 -140.190884 
L 112.636364 -141.022235 
L 115.454545 -141.901528 
L 118.272727 -142.713281 
L 121.090909 -142.829842 
L 123.909091 -142.83325 
L 126.727273 -143.036806 
L 129.545455 -143.25263 
L 132.363636 -143.241673 
L 135.181818 -143.340169 
L 138 -143.26301 
L 140.818182 -143.542139 
L 143.636364 -143.622053 
L 146.454545 -143.737226 
L 149.272727 -143.842304 
L 152.090909 -143.568049 
L 154.909091 -143.068812 
L 157.727273 -142.937953 
L 160.545455 -142.650737 
L 163.363636 -142.740413 
L 166.181818 -142.743798 
L 169 -142.774941 
L 171.818182 -142.633659 
L 174.636364 -142.360334 
L 177.454545 -142.214922 
L 180.272727 -141.846747 
L 183.090909 -141.214386 
L 185.909091 -140.791186 
L 188.727273 -140.239165 
L 191.545455 -139.766055 
L 194.363636 -139.537428 
L 197.181818 -138.995704 
L 200 -138.570131 
L 202.818182 -138.149539 
L 205.636364 -137.739131 
L 208.454545 -137.328723 
L 211.272727 -136.918315 
L 214.090909 -136.529485 
L 216.909091 -136.123372 
L 219.727273 -135.673578 
L 222.545455 -135.228523 
L 225.363636 -134.837958 
L 228.181818 -134.422003 
L 231 -134.008316 
L 233.818182 -133.54267 
L 236.636364 -132.986069 
L 239.454545 -132.62312 
L 242.272727 -132.161016 
L 245.090909 -131.679667 
L 247.909091 -131.010417 
L 250.727273 -130.343029 
L 253.545455 -129.676199 
L 256.363636 -129.009369 
L 259.181818 -128.332931 
L 262 -127.63021 
L 264.818182 -126.944969 
L 267.636364 -126.193849 
L 270.454545 -125.556774 
L 273.272727 -124.843197 
L 276.090909 -124.12962 
L 278.909091 -123.416043 
L 281.727273 -122.709302 
L 284.545455 -122.223474 
L 287.363636 -121.57319 
L 290.181818 -120.730402 
L 293 -119.989952 
L 295.818182 -119.385521 
L 298.636364 -118.78109 
L 301.454545 -118.176659 
L 304.272727 -117.572229 
L 307.090909 -116.946646 
L 309.909091 -116.337113 
L 312.727273 -115.735776 
L 315.545455 -115.06144 
L 318.363636 -114.343209 
L 321.181818 -113.624978 
L 324 -112.922727 
L 324 -243.36 
L 324 -243.36 
L 321.181818 -242.107684 
L 318.363636 -240.855368 
L 315.545455 -239.603052 
L 312.727273 -238.350736 
L 309.909091 -237.098419 
L 307.090909 -235.846103 
L 304.272727 -234.593787 
L 301.454545 -233.341471 
L 298.636364 -232.089155 
L 295.818182 -230.836839 
L 293 -229.621697 
L 290.181818 -228.416696 
L 287.363636 -227.211696 
L 284.545455 -226.006695 
L 281.727273 -224.801694 
L 278.909091 -223.596693 
L 276.090909 -222.391692 
L 273.272727 -221.186691 
L 270.454545 -219.98169 
L 267.636364 -218.776689 
L 264.818182 -217.571688 
L 262 -216.366687 
L 259.181818 -215.161687 
L 256.363636 -213.956686 
L 253.545455 -212.751685 
L 250.727273 -211.546684 
L 247.909091 -210.341683 
L 245.090909 -209.136682 
L 242.272727 -207.931681 
L 239.454545 -206.72668 
L 236.636364 -205.521679 
L 233.818182 -204.316678 
L 231 -203.110502 
L 228.181818 -201.868133 
L 225.363636 -200.667586 
L 222.545455 -199.496675 
L 219.727273 -198.245609 
L 216.909091 -196.988615 
L 214.090909 -195.864082 
L 211.272727 -194.688478 
L 208.454545 -193.491888 
L 205.636364 -192.451278 
L 202.818182 -191.562211 
L 200 -190.711469 
L 197.181818 -189.704485 
L 194.363636 -188.356769 
L 191.545455 -187.432666 
L 188.727273 -186.44953 
L 185.909091 -185.45825 
L 183.090909 -184.276797 
L 180.272727 -183.488387 
L 177.454545 -182.503367 
L 174.636364 -181.509852 
L 171.818182 -180.280033 
L 169 -178.969878 
L 166.181818 -177.70941 
L 163.363636 -176.327445 
L 160.545455 -175.219656 
L 157.727273 -173.904936 
L 154.909091 -172.923532 
L 152.090909 -171.820458 
L 149.272727 -171.469229 
L 146.454545 -170.707287 
L 143.636364 -169.912866 
L 140.818182 -169.564339 
L 138 -168.973963 
L 135.181818 -168.922487 
L 132.363636 -168.86499 
L 129.545455 -168.89724 
L 126.727273 -168.977476 
L 123.909091 -168.966716 
L 121.090909 -169.053673 
L 118.272727 -169.225917 
L 115.454545 -169.699506 
L 112.636364 -170.142825 
L 109.818182 -170.429944 
L 107 -171.019701 
L 104.181818 -171.314171 
L 101.363636 -171.715739 
L 98.545455 -172.184401 
L 95.727273 -172.485195 
L 92.909091 -172.864348 
L 90.090909 -173.26074 
L 87.272727 -173.541619 
L 84.454545 -173.952217 
L 81.636364 -174.528718 
L 78.818182 -174.910525 
L 76 -175.292331 
L 73.181818 -175.670801 
L 70.363636 -176.146523 
L 67.545455 -176.750895 
L 64.727273 -177.186967 
L 61.909091 -177.721605 
L 59.090909 -178.14201 
L 56.272727 -178.559529 
L 53.454545 -179.150184 
L 50.636364 -179.736787 
L 47.818182 -180.278332 
L 45 -181.08696 
z
" style="stroke: #ffffff; stroke-opacity: 0.15"/>
    </defs>
    <g clip-path="url(#p101bf6f1da)">
     <use xlink:href="#m799faddcc8" x="0" y="288" style="fill: #0000ff; fill-opacity: 0.15; stroke: #ffffff; stroke-opacity: 0.15"/>
    </g>
   </g>
   <g id="PathCollection_2">
    <defs>
     <path id="m7f5edc7004" d="M 0 1.322876 
C 0.350831 1.322876 0.68734 1.183489 0.935414 0.935414 
C 1.183489 0.68734 1.322876 0.350831 1.322876 0 
C 1.322876 -0.350831 1.183489 -0.68734 0.935414 -0.935414 
C 0.68734 -1.183489 0.350831 -1.322876 0 -1.322876 
C -0.350831 -1.322876 -0.68734 -1.183489 -0.935414 -0.935414 
C -1.183489 -0.68734 -1.322876 -0.350831 -1.322876 0 
C -1.322876 0.350831 -1.183489 0.68734 -0.935414 0.935414 
C -0.68734 1.183489 -0.350831 1.322876 0 1.322876 
z
" style="stroke: #ff0000; stroke-opacity: 0.5"/>
    </defs>
    <g clip-path="url(#p101bf6f1da)">
     <use xlink:href="#m7f5edc7004" x="139.1625" y="129.428321" style="fill: #ff0000; fill-opacity: 0.5; stroke: #ff0000; stroke-opacity: 0.5"/>
     <use xlink:href="#m7f5edc7004" x="90.3375" y="165.763298" style="fill: #ff0000; fill-opacity: 0.5; stroke: #ff0000; stroke-opacity: 0.5"/>
     <use xlink:href="#m7f5edc7004" x="62.4375" y="103.993836" style="fill: #ff0000; fill-opacity: 0.5; stroke: #ff0000; stroke-opacity: 0.5"/>
     <use xlink:href="#m7f5edc7004" x="184.5" y="165.763298" style="fill: #ff0000; fill-opacity: 0.5; stroke: #ff0000; stroke-opacity: 0.5"/>
     <use xlink:href="#m7f5edc7004" x="139.1625" y="202.098276" style="fill: #ff0000; fill-opacity: 0.5; stroke: #ff0000; stroke-opacity: 0.5"/>
     <use xlink:href="#m7f5edc7004" x="111.2625" y="173.030294" style="fill: #ff0000; fill-opacity: 0.5; stroke: #ff0000; stroke-opacity: 0.5"/>
     <use xlink:href="#m7f5edc7004" x="170.55" y="173.030294" style="fill: #ff0000; fill-opacity: 0.5; stroke: #ff0000; stroke-opacity: 0.5"/>
     <use xlink:href="#m7f5edc7004" x="233.325" y="198.464779" style="fill: #ff0000; fill-opacity: 0.5; stroke: #ff0000; stroke-opacity: 0.5"/>
     <use xlink:href="#m7f5edc7004" x="160.0875" y="183.930787" style="fill: #ff0000; fill-opacity: 0.5; stroke: #ff0000; stroke-opacity: 0.5"/>
     <use xlink:href="#m7f5edc7004" x="201.9375" y="194.831281" style="fill: #ff0000; fill-opacity: 0.5; stroke: #ff0000; stroke-opacity: 0.5"/>
     <use xlink:href="#m7f5edc7004" x="135.675" y="140.328814" style="fill: #ff0000; fill-opacity: 0.5; stroke: #ff0000; stroke-opacity: 0.5"/>
     <use xlink:href="#m7f5edc7004" x="100.8" y="133.061818" style="fill: #ff0000; fill-opacity: 0.5; stroke: #ff0000; stroke-opacity: 0.5"/>
     <use xlink:href="#m7f5edc7004" x="135.675" y="180.29729" style="fill: #ff0000; fill-opacity: 0.5; stroke: #ff0000; stroke-opacity: 0.5"/>
     <use xlink:href="#m7f5edc7004" x="317.025" y="173.030294" style="fill: #ff0000; fill-opacity: 0.5; stroke: #ff0000; stroke-opacity: 0.5"/>
     <use xlink:href="#m7f5edc7004" x="135.675" y="176.663792" style="fill: #ff0000; fill-opacity: 0.5; stroke: #ff0000; stroke-opacity: 0.5"/>
     <use xlink:href="#m7f5edc7004" x="128.7" y="169.396796" style="fill: #ff0000; fill-opacity: 0.5; stroke: #ff0000; stroke-opacity: 0.5"/>
     <use xlink:href="#m7f5edc7004" x="205.425" y="209.365272" style="fill: #ff0000; fill-opacity: 0.5; stroke: #ff0000; stroke-opacity: 0.5"/>
     <use xlink:href="#m7f5edc7004" x="229.8375" y="187.564285" style="fill: #ff0000; fill-opacity: 0.5; stroke: #ff0000; stroke-opacity: 0.5"/>
     <use xlink:href="#m7f5edc7004" x="132.1875" y="176.663792" style="fill: #ff0000; fill-opacity: 0.5; stroke: #ff0000; stroke-opacity: 0.5"/>
     <use xlink:href="#m7f5edc7004" x="65.925" y="169.396796" style="fill: #ff0000; fill-opacity: 0.5; stroke: #ff0000; stroke-opacity: 0.5"/>
     <use xlink:href="#m7f5edc7004" x="236.8125" y="129.428321" style="fill: #ff0000; fill-opacity: 0.5; stroke: #ff0000; stroke-opacity: 0.5"/>
     <use xlink:href="#m7f5edc7004" x="187.9875" y="162.129801" style="fill: #ff0000; fill-opacity: 0.5; stroke: #ff0000; stroke-opacity: 0.5"/>
     <use xlink:href="#m7f5edc7004" x="118.2375" y="187.564285" style="fill: #ff0000; fill-opacity: 0.5; stroke: #ff0000; stroke-opacity: 0.5"/>
     <use xlink:href="#m7f5edc7004" x="160.0875" y="114.894329" style="fill: #ff0000; fill-opacity: 0.5; stroke: #ff0000; stroke-opacity: 0.5"/>
     <use xlink:href="#m7f5edc7004" x="76.3875" y="96.726841" style="fill: #ff0000; fill-opacity: 0.5; stroke: #ff0000; stroke-opacity: 0.5"/>
     <use xlink:href="#m7f5edc7004" x="79.875" y="180.29729" style="fill: #ff0000; fill-opacity: 0.5; stroke: #ff0000; stroke-opacity: 0.5"/>
     <use xlink:href="#m7f5edc7004" x="107.775" y="71.292356" style="fill: #ff0000; fill-opacity: 0.5; stroke: #ff0000; stroke-opacity: 0.5"/>
     <use xlink:href="#m7f5edc7004" x="111.2625" y="151.229307" style="fill: #ff0000; fill-opacity: 0.5; stroke: #ff0000; stroke-opacity: 0.5"/>
    </g>
   </g>
   <g id="PolyCollection_2">
    <defs>
     <path id="m20fcfc5a0d" d="M 45 -176.196909 
L 45 -117.462165 
L 47.818182 -117.442712 
L 50.636364 -117.329016 
L 53.454545 -117.215321 
L 56.272727 -117.079398 
L 59.090909 -116.933179 
L 61.909091 -116.792442 
L 64.727273 -116.692586 
L 67.545455 -116.530503 
L 70.363636 -116.544065 
L 73.181818 -116.429686 
L 76 -116.322168 
L 78.818182 -116.228354 
L 81.636364 -116.317823 
L 84.454545 -116.497059 
L 87.272727 -116.392769 
L 90.090909 -116.28179 
L 92.909091 -116.111461 
L 95.727273 -115.924772 
L 98.545455 -115.909356 
L 101.363636 -115.630545 
L 104.181818 -115.465851 
L 107 -115.247257 
L 109.818182 -114.893192 
L 112.636364 -114.836084 
L 115.454545 -114.554132 
L 118.272727 -114.363347 
L 121.090909 -113.922382 
L 123.909091 -113.668993 
L 126.727273 -113.472879 
L 129.545455 -113.35118 
L 132.363636 -113.067963 
L 135.181818 -112.825389 
L 138 -112.689675 
L 140.818182 -112.530926 
L 143.636364 -112.145944 
L 146.454545 -111.899874 
L 149.272727 -111.551378 
L 152.090909 -110.941338 
L 154.909091 -110.572467 
L 157.727273 -109.74334 
L 160.545455 -109.094197 
L 163.363636 -108.190933 
L 166.181818 -107.68822 
L 169 -106.953185 
L 171.818182 -105.943225 
L 174.636364 -105.382317 
L 177.454545 -104.590892 
L 180.272727 -103.543038 
L 183.090909 -102.989667 
L 185.909091 -102.056307 
L 188.727273 -100.755874 
L 191.545455 -99.721435 
L 194.363636 -98.625313 
L 197.181818 -97.598655 
L 200 -96.755475 
L 202.818182 -95.751388 
L 205.636364 -94.476062 
L 208.454545 -93.208399 
L 211.272727 -92.639616 
L 214.090909 -91.318621 
L 216.909091 -90.168735 
L 219.727273 -89.016078 
L 222.545455 -87.589994 
L 225.363636 -86.450543 
L 228.181818 -85.22276 
L 231 -84.086051 
L 233.818182 -82.8541 
L 236.636364 -81.497929 
L 239.454545 -80.141757 
L 242.272727 -78.785585 
L 245.090909 -77.431669 
L 247.909091 -76.232669 
L 250.727273 -75.07629 
L 253.545455 -73.922009 
L 256.363636 -72.767729 
L 259.181818 -71.613448 
L 262 -70.459168 
L 264.818182 -69.304887 
L 267.636364 -68.146087 
L 270.454545 -66.940276 
L 273.272727 -65.765666 
L 276.090909 -64.644468 
L 278.909091 -63.514659 
L 281.727273 -62.108132 
L 284.545455 -60.680551 
L 287.363636 -59.25297 
L 290.181818 -57.825388 
L 293 -56.397807 
L 295.818182 -55.015385 
L 298.636364 -53.687742 
L 301.454545 -52.3601 
L 304.272727 -51.032458 
L 307.090909 -49.704816 
L 309.909091 -48.377174 
L 312.727273 -47.049532 
L 315.545455 -45.726658 
L 318.363636 -44.404438 
L 321.181818 -43.082219 
L 324 -41.76 
L 324 -124.268186 
L 324 -124.268186 
L 321.181818 -124.353032 
L 318.363636 -124.436414 
L 315.545455 -124.517165 
L 312.727273 -124.642373 
L 309.909091 -124.817162 
L 307.090909 -124.991951 
L 304.272727 -125.16674 
L 301.454545 -125.341529 
L 298.636364 -125.513571 
L 295.818182 -125.531505 
L 293 -125.40323 
L 290.181818 -125.274954 
L 287.363636 -125.324675 
L 284.545455 -125.405426 
L 281.727273 -125.486177 
L 278.909091 -125.566928 
L 276.090909 -125.645406 
L 273.272727 -125.797664 
L 270.454545 -125.981777 
L 267.636364 -126.165889 
L 264.818182 -126.342255 
L 262 -126.333723 
L 259.181818 -126.325192 
L 256.363636 -126.514491 
L 253.545455 -126.730866 
L 250.727273 -126.944837 
L 247.909091 -127.158808 
L 245.090909 -127.311328 
L 242.272727 -127.387054 
L 239.454545 -127.626853 
L 236.636364 -127.662566 
L 233.818182 -127.684132 
L 231 -127.861107 
L 228.181818 -127.966775 
L 225.363636 -128.220268 
L 222.545455 -128.401975 
L 219.727273 -128.285946 
L 216.909091 -128.365358 
L 214.090909 -128.45174 
L 211.272727 -128.542798 
L 208.454545 -128.637266 
L 205.636364 -129.054647 
L 202.818182 -129.557356 
L 200 -129.539224 
L 197.181818 -129.691263 
L 194.363636 -129.769962 
L 191.545455 -130.166053 
L 188.727273 -130.544974 
L 185.909091 -130.730978 
L 183.090909 -131.002134 
L 180.272727 -131.576242 
L 177.454545 -132.065627 
L 174.636364 -132.450211 
L 171.818182 -132.938665 
L 169 -133.425896 
L 166.181818 -133.831594 
L 163.363636 -134.241464 
L 160.545455 -134.984495 
L 157.727273 -135.541844 
L 154.909091 -136.162865 
L 152.090909 -136.499334 
L 149.272727 -137.266643 
L 146.454545 -137.832587 
L 143.636364 -138.499966 
L 140.818182 -139.384735 
L 138 -140.085385 
L 135.181818 -140.803701 
L 132.363636 -141.50085 
L 129.545455 -142.40253 
L 126.727273 -143.35393 
L 123.909091 -144.351823 
L 121.090909 -145.333128 
L 118.272727 -146.305769 
L 115.454545 -147.276334 
L 112.636364 -148.265041 
L 109.818182 -149.227864 
L 107 -150.203239 
L 104.181818 -151.183224 
L 101.363636 -152.155896 
L 98.545455 -153.270621 
L 95.727273 -154.183908 
L 92.909091 -155.227578 
L 90.090909 -156.349911 
L 87.272727 -157.810132 
L 84.454545 -159.26141 
L 81.636364 -160.412445 
L 78.818182 -161.614872 
L 76 -162.541786 
L 73.181818 -163.726068 
L 70.363636 -164.717445 
L 67.545455 -165.697861 
L 64.727273 -166.86708 
L 61.909091 -168.157935 
L 59.090909 -169.751332 
L 56.272727 -171.339757 
L 53.454545 -172.576931 
L 50.636364 -173.791985 
L 47.818182 -174.994447 
L 45 -176.196909 
z
" style="stroke: #ffffff; stroke-opacity: 0.15"/>
    </defs>
    <g clip-path="url(#p101bf6f1da)">
     <use xlink:href="#m20fcfc5a0d" x="0" y="288" style="fill: #ff0000; fill-opacity: 0.15; stroke: #ffffff; stroke-opacity: 0.15"/>
    </g>
   </g>
   <g id="line2d_13">
    <path d="M 45 130.952291 
L 47.818182 130.974367 
L 50.636364 130.996443 
L 53.454545 131.018519 
L 56.272727 131.040595 
L 59.090909 131.06267 
L 61.909091 131.084746 
L 64.727273 131.106822 
L 67.545455 131.128898 
L 70.363636 131.150974 
L 73.181818 131.17305 
L 76 131.195126 
L 78.818182 131.217202 
L 81.636364 131.239278 
L 84.454545 131.261353 
L 87.272727 131.283429 
L 90.090909 131.305505 
L 92.909091 131.327581 
L 95.727273 131.349657 
L 98.545455 131.371733 
L 101.363636 131.393809 
L 104.181818 131.415885 
L 107 131.437961 
L 109.818182 131.460036 
L 112.636364 131.482112 
L 115.454545 131.504188 
L 118.272727 131.526264 
L 121.090909 131.54834 
L 123.909091 131.570416 
L 126.727273 131.592492 
L 129.545455 131.614568 
L 132.363636 131.636644 
L 135.181818 131.658719 
L 138 131.680795 
L 140.818182 131.702871 
L 143.636364 131.724947 
L 146.454545 131.747023 
L 149.272727 131.769099 
L 152.090909 131.791175 
L 154.909091 131.813251 
L 157.727273 131.835327 
L 160.545455 131.857402 
L 163.363636 131.879478 
L 166.181818 131.901554 
L 169 131.92363 
L 171.818182 131.945706 
L 174.636364 131.967782 
L 177.454545 131.989858 
L 180.272727 132.011934 
L 183.090909 132.03401 
L 185.909091 132.056085 
L 188.727273 132.078161 
L 191.545455 132.100237 
L 194.363636 132.122313 
L 197.181818 132.144389 
L 200 132.166465 
L 202.818182 132.188541 
L 205.636364 132.210617 
L 208.454545 132.232693 
L 211.272727 132.254768 
L 214.090909 132.276844 
L 216.909091 132.29892 
L 219.727273 132.320996 
L 222.545455 132.343072 
L 225.363636 132.365148 
L 228.181818 132.387224 
L 231 132.4093 
L 233.818182 132.431375 
L 236.636364 132.453451 
L 239.454545 132.475527 
L 242.272727 132.497603 
L 245.090909 132.519679 
L 247.909091 132.541755 
L 250.727273 132.563831 
L 253.545455 132.585907 
L 256.363636 132.607983 
L 259.181818 132.630058 
L 262 132.652134 
L 264.818182 132.67421 
L 267.636364 132.696286 
L 270.454545 132.718362 
L 273.272727 132.740438 
L 276.090909 132.762514 
L 278.909091 132.78459 
L 281.727273 132.806666 
L 284.545455 132.828741 
L 287.363636 132.850817 
L 290.181818 132.872893 
L 293 132.894969 
L 295.818182 132.917045 
L 298.636364 132.939121 
L 301.454545 132.961197 
L 304.272727 132.983273 
L 307.090909 133.005349 
L 309.909091 133.027424 
L 312.727273 133.0495 
L 315.545455 133.071576 
L 318.363636 133.093652 
L 321.181818 133.115728 
L 324 133.137804 
" clip-path="url(#p101bf6f1da)" style="fill: none; stroke: #0000ff; stroke-width: 2.25; stroke-linecap: round"/>
   </g>
   <g id="line2d_14">
    <path d="M 45 143.699274 
L 47.818182 144.233453 
L 50.636364 144.767631 
L 53.454545 145.30181 
L 56.272727 145.835989 
L 59.090909 146.370168 
L 61.909091 146.904346 
L 64.727273 147.438525 
L 67.545455 147.972704 
L 70.363636 148.506882 
L 73.181818 149.041061 
L 76 149.57524 
L 78.818182 150.109419 
L 81.636364 150.643597 
L 84.454545 151.177776 
L 87.272727 151.711955 
L 90.090909 152.246133 
L 92.909091 152.780312 
L 95.727273 153.314491 
L 98.545455 153.84867 
L 101.363636 154.382848 
L 104.181818 154.917027 
L 107 155.451206 
L 109.818182 155.985384 
L 112.636364 156.519563 
L 115.454545 157.053742 
L 118.272727 157.587921 
L 121.090909 158.122099 
L 123.909091 158.656278 
L 126.727273 159.190457 
L 129.545455 159.724636 
L 132.363636 160.258814 
L 135.181818 160.792993 
L 138 161.327172 
L 140.818182 161.86135 
L 143.636364 162.395529 
L 146.454545 162.929708 
L 149.272727 163.463887 
L 152.090909 163.998065 
L 154.909091 164.532244 
L 157.727273 165.066423 
L 160.545455 165.600601 
L 163.363636 166.13478 
L 166.181818 166.668959 
L 169 167.203138 
L 171.818182 167.737316 
L 174.636364 168.271495 
L 177.454545 168.805674 
L 180.272727 169.339852 
L 183.090909 169.874031 
L 185.909091 170.40821 
L 188.727273 170.942389 
L 191.545455 171.476567 
L 194.363636 172.010746 
L 197.181818 172.544925 
L 200 173.079104 
L 202.818182 173.613282 
L 205.636364 174.147461 
L 208.454545 174.68164 
L 211.272727 175.215818 
L 214.090909 175.749997 
L 216.909091 176.284176 
L 219.727273 176.818355 
L 222.545455 177.352533 
L 225.363636 177.886712 
L 228.181818 178.420891 
L 231 178.955069 
L 233.818182 179.489248 
L 236.636364 180.023427 
L 239.454545 180.557606 
L 242.272727 181.091784 
L 245.090909 181.625963 
L 247.909091 182.160142 
L 250.727273 182.69432 
L 253.545455 183.228499 
L 256.363636 183.762678 
L 259.181818 184.296857 
L 262 184.831035 
L 264.818182 185.365214 
L 267.636364 185.899393 
L 270.454545 186.433572 
L 273.272727 186.96775 
L 276.090909 187.501929 
L 278.909091 188.036108 
L 281.727273 188.570286 
L 284.545455 189.104465 
L 287.363636 189.638644 
L 290.181818 190.172823 
L 293 190.707001 
L 295.818182 191.24118 
L 298.636364 191.775359 
L 301.454545 192.309537 
L 304.272727 192.843716 
L 307.090909 193.377895 
L 309.909091 193.912074 
L 312.727273 194.446252 
L 315.545455 194.980431 
L 318.363636 195.51461 
L 321.181818 196.048789 
L 324 196.582967 
" clip-path="url(#p101bf6f1da)" style="fill: none; stroke: #ff0000; stroke-width: 2.25; stroke-linecap: round"/>
   </g>
   <g id="patch_3">
    <path d="M 45 256.32 
L 45 34.56 
" style="fill: none; stroke: #ffffff; stroke-width: 0.8; stroke-linejoin: miter; stroke-linecap: square"/>
   </g>
   <g id="patch_4">
    <path d="M 324 256.32 
L 324 34.56 
" style="fill: none; stroke: #ffffff; stroke-width: 0.8; stroke-linejoin: miter; stroke-linecap: square"/>
   </g>
   <g id="patch_5">
    <path d="M 45 256.32 
L 324 256.32 
" style="fill: none; stroke: #ffffff; stroke-width: 0.8; stroke-linejoin: miter; stroke-linecap: square"/>
   </g>
   <g id="patch_6">
    <path d="M 45 34.56 
L 324 34.56 
" style="fill: none; stroke: #ffffff; stroke-width: 0.8; stroke-linejoin: miter; stroke-linecap: square"/>
   </g>
   <g id="text_13">
    <!-- MADRS -->
    <g style="fill: #262626" transform="translate(151.500937 28.56)scale(0.18 -0.18)">
     <defs>
      <path id="Arial-BoldMT-4d" d="M 453 0 
L 453 4581 
L 1838 4581 
L 2669 1456 
L 3491 4581 
L 4878 4581 
L 4878 0 
L 4019 0 
L 4019 3606 
L 3109 0 
L 2219 0 
L 1313 3606 
L 1313 0 
L 453 0 
z
" transform="scale(0.015625)"/>
      <path id="Arial-BoldMT-41" d="M 4597 0 
L 3591 0 
L 3191 1041 
L 1359 1041 
L 981 0 
L 0 0 
L 1784 4581 
L 2763 4581 
L 4597 0 
z
M 2894 1813 
L 2263 3513 
L 1644 1813 
L 2894 1813 
z
" transform="scale(0.015625)"/>
      <path id="Arial-BoldMT-44" d="M 463 4581 
L 2153 4581 
Q 2725 4581 3025 4494 
Q 3428 4375 3715 4072 
Q 4003 3769 4153 3330 
Q 4303 2891 4303 2247 
Q 4303 1681 4163 1272 
Q 3991 772 3672 463 
Q 3431 228 3022 97 
Q 2716 0 2203 0 
L 463 0 
L 463 4581 
z
M 1388 3806 
L 1388 772 
L 2078 772 
Q 2466 772 2638 816 
Q 2863 872 3011 1006 
Q 3159 1141 3253 1448 
Q 3347 1756 3347 2288 
Q 3347 2819 3253 3103 
Q 3159 3388 2990 3547 
Q 2822 3706 2563 3763 
Q 2369 3806 1803 3806 
L 1388 3806 
z
" transform="scale(0.015625)"/>
      <path id="Arial-BoldMT-52" d="M 469 0 
L 469 4581 
L 2416 4581 
Q 3150 4581 3483 4457 
Q 3816 4334 4016 4018 
Q 4216 3703 4216 3297 
Q 4216 2781 3912 2445 
Q 3609 2109 3006 2022 
Q 3306 1847 3501 1637 
Q 3697 1428 4028 894 
L 4588 0 
L 3481 0 
L 2813 997 
Q 2456 1531 2325 1670 
Q 2194 1809 2047 1861 
Q 1900 1913 1581 1913 
L 1394 1913 
L 1394 0 
L 469 0 
z
M 1394 2644 
L 2078 2644 
Q 2744 2644 2909 2700 
Q 3075 2756 3169 2893 
Q 3263 3031 3263 3238 
Q 3263 3469 3139 3611 
Q 3016 3753 2791 3791 
Q 2678 3806 2116 3806 
L 1394 3806 
L 1394 2644 
z
" transform="scale(0.015625)"/>
      <path id="Arial-BoldMT-53" d="M 231 1491 
L 1131 1578 
Q 1213 1125 1461 912 
Q 1709 700 2131 700 
Q 2578 700 2804 889 
Q 3031 1078 3031 1331 
Q 3031 1494 2936 1608 
Q 2841 1722 2603 1806 
Q 2441 1863 1863 2006 
Q 1119 2191 819 2459 
Q 397 2838 397 3381 
Q 397 3731 595 4036 
Q 794 4341 1167 4500 
Q 1541 4659 2069 4659 
Q 2931 4659 3367 4281 
Q 3803 3903 3825 3272 
L 2900 3231 
Q 2841 3584 2645 3739 
Q 2450 3894 2059 3894 
Q 1656 3894 1428 3728 
Q 1281 3622 1281 3444 
Q 1281 3281 1419 3166 
Q 1594 3019 2269 2859 
Q 2944 2700 3267 2529 
Q 3591 2359 3773 2064 
Q 3956 1769 3956 1334 
Q 3956 941 3737 597 
Q 3519 253 3119 86 
Q 2719 -81 2122 -81 
Q 1253 -81 787 320 
Q 322 722 231 1491 
z
" transform="scale(0.015625)"/>
     </defs>
     <use xlink:href="#Arial-BoldMT-4d"/>
     <use xlink:href="#Arial-BoldMT-41" x="83.300781"/>
     <use xlink:href="#Arial-BoldMT-44" x="155.517578"/>
     <use xlink:href="#Arial-BoldMT-52" x="227.734375"/>
     <use xlink:href="#Arial-BoldMT-53" x="299.951172"/>
    </g>
   </g>
  </g>
 </g>
 <defs>
  <clipPath id="p101bf6f1da">
   <rect x="45" y="34.56" width="279" height="221.76"/>
  </clipPath>
 </defs>
</svg>
