<?xml version="1.0" encoding="utf-8" standalone="no"?>
<!DOCTYPE svg PUBLIC "-//W3C//DTD SVG 1.1//EN"
  "http://www.w3.org/Graphics/SVG/1.1/DTD/svg11.dtd">
<svg xmlns:xlink="http://www.w3.org/1999/xlink" width="360pt" height="288pt" viewBox="0 0 360 288" xmlns="http://www.w3.org/2000/svg" version="1.1">
 <metadata>
  <rdf:RDF xmlns:dc="http://purl.org/dc/elements/1.1/" xmlns:cc="http://creativecommons.org/ns#" xmlns:rdf="http://www.w3.org/1999/02/22-rdf-syntax-ns#">
   <cc:Work>
    <dc:type rdf:resource="http://purl.org/dc/dcmitype/StillImage"/>
    <dc:date>2022-11-10T09:40:15.846521</dc:date>
    <dc:format>image/svg+xml</dc:format>
    <dc:creator>
     <cc:Agent>
      <dc:title>Matplotlib v3.5.2, https://matplotlib.org/</dc:title>
     </cc:Agent>
    </dc:creator>
   </cc:Work>
  </rdf:RDF>
 </metadata>
 <defs>
  <style type="text/css">*{stroke-linejoin: round; stroke-linecap: butt}</style>
 </defs>
 <g id="figure_1">
  <g id="patch_1">
   <path d="M 0 288 
L 360 288 
L 360 0 
L 0 0 
z
" style="fill: #ffffff"/>
  </g>
  <g id="axes_1">
   <g id="patch_2">
    <path d="M 45 256.32 
L 324 256.32 
L 324 34.56 
L 45 34.56 
z
" style="fill: #eaeaf2"/>
   </g>
   <g id="matplotlib.axis_1">
    <g id="xtick_1">
     <g id="line2d_1">
      <path d="M 76 256.32 
L 76 34.56 
" clip-path="url(#p1959bbbf2c)" style="fill: none; stroke: #ffffff; stroke-width: 0.8; stroke-linecap: round"/>
     </g>
     <g id="text_1">
      <!-- 30 -->
      <g style="fill: #262626" transform="translate(68.214687 273.340937)scale(0.14 -0.14)">
       <defs>
        <path id="ArialMT-33" d="M 269 1209 
L 831 1284 
Q 928 806 1161 595 
Q 1394 384 1728 384 
Q 2125 384 2398 659 
Q 2672 934 2672 1341 
Q 2672 1728 2419 1979 
Q 2166 2231 1775 2231 
Q 1616 2231 1378 2169 
L 1441 2663 
Q 1497 2656 1531 2656 
Q 1891 2656 2178 2843 
Q 2466 3031 2466 3422 
Q 2466 3731 2256 3934 
Q 2047 4138 1716 4138 
Q 1388 4138 1169 3931 
Q 950 3725 888 3313 
L 325 3413 
Q 428 3978 793 4289 
Q 1159 4600 1703 4600 
Q 2078 4600 2393 4439 
Q 2709 4278 2876 4000 
Q 3044 3722 3044 3409 
Q 3044 3113 2884 2869 
Q 2725 2625 2413 2481 
Q 2819 2388 3044 2092 
Q 3269 1797 3269 1353 
Q 3269 753 2831 336 
Q 2394 -81 1725 -81 
Q 1122 -81 723 278 
Q 325 638 269 1209 
z
" transform="scale(0.015625)"/>
        <path id="ArialMT-30" d="M 266 2259 
Q 266 3072 433 3567 
Q 600 4063 929 4331 
Q 1259 4600 1759 4600 
Q 2128 4600 2406 4451 
Q 2684 4303 2865 4023 
Q 3047 3744 3150 3342 
Q 3253 2941 3253 2259 
Q 3253 1453 3087 958 
Q 2922 463 2592 192 
Q 2263 -78 1759 -78 
Q 1097 -78 719 397 
Q 266 969 266 2259 
z
M 844 2259 
Q 844 1131 1108 757 
Q 1372 384 1759 384 
Q 2147 384 2411 759 
Q 2675 1134 2675 2259 
Q 2675 3391 2411 3762 
Q 2147 4134 1753 4134 
Q 1366 4134 1134 3806 
Q 844 3388 844 2259 
z
" transform="scale(0.015625)"/>
       </defs>
       <use xlink:href="#ArialMT-33"/>
       <use xlink:href="#ArialMT-30" x="55.615234"/>
      </g>
     </g>
    </g>
    <g id="xtick_2">
     <g id="line2d_2">
      <path d="M 138 256.32 
L 138 34.56 
" clip-path="url(#p1959bbbf2c)" style="fill: none; stroke: #ffffff; stroke-width: 0.8; stroke-linecap: round"/>
     </g>
     <g id="text_2">
      <!-- 40 -->
      <g style="fill: #262626" transform="translate(130.214687 273.340937)scale(0.14 -0.14)">
       <defs>
        <path id="ArialMT-34" d="M 2069 0 
L 2069 1097 
L 81 1097 
L 81 1613 
L 2172 4581 
L 2631 4581 
L 2631 1613 
L 3250 1613 
L 3250 1097 
L 2631 1097 
L 2631 0 
L 2069 0 
z
M 2069 1613 
L 2069 3678 
L 634 1613 
L 2069 1613 
z
" transform="scale(0.015625)"/>
       </defs>
       <use xlink:href="#ArialMT-34"/>
       <use xlink:href="#ArialMT-30" x="55.615234"/>
      </g>
     </g>
    </g>
    <g id="xtick_3">
     <g id="line2d_3">
      <path d="M 200 256.32 
L 200 34.56 
" clip-path="url(#p1959bbbf2c)" style="fill: none; stroke: #ffffff; stroke-width: 0.8; stroke-linecap: round"/>
     </g>
     <g id="text_3">
      <!-- 50 -->
      <g style="fill: #262626" transform="translate(192.214687 273.340937)scale(0.14 -0.14)">
       <defs>
        <path id="ArialMT-35" d="M 266 1200 
L 856 1250 
Q 922 819 1161 601 
Q 1400 384 1738 384 
Q 2144 384 2425 690 
Q 2706 997 2706 1503 
Q 2706 1984 2436 2262 
Q 2166 2541 1728 2541 
Q 1456 2541 1237 2417 
Q 1019 2294 894 2097 
L 366 2166 
L 809 4519 
L 3088 4519 
L 3088 3981 
L 1259 3981 
L 1013 2750 
Q 1425 3038 1878 3038 
Q 2478 3038 2890 2622 
Q 3303 2206 3303 1553 
Q 3303 931 2941 478 
Q 2500 -78 1738 -78 
Q 1113 -78 717 272 
Q 322 622 266 1200 
z
" transform="scale(0.015625)"/>
       </defs>
       <use xlink:href="#ArialMT-35"/>
       <use xlink:href="#ArialMT-30" x="55.615234"/>
      </g>
     </g>
    </g>
    <g id="xtick_4">
     <g id="line2d_4">
      <path d="M 262 256.32 
L 262 34.56 
" clip-path="url(#p1959bbbf2c)" style="fill: none; stroke: #ffffff; stroke-width: 0.8; stroke-linecap: round"/>
     </g>
     <g id="text_4">
      <!-- 60 -->
      <g style="fill: #262626" transform="translate(254.214687 273.340937)scale(0.14 -0.14)">
       <defs>
        <path id="ArialMT-36" d="M 3184 3459 
L 2625 3416 
Q 2550 3747 2413 3897 
Q 2184 4138 1850 4138 
Q 1581 4138 1378 3988 
Q 1113 3794 959 3422 
Q 806 3050 800 2363 
Q 1003 2672 1297 2822 
Q 1591 2972 1913 2972 
Q 2475 2972 2870 2558 
Q 3266 2144 3266 1488 
Q 3266 1056 3080 686 
Q 2894 316 2569 119 
Q 2244 -78 1831 -78 
Q 1128 -78 684 439 
Q 241 956 241 2144 
Q 241 3472 731 4075 
Q 1159 4600 1884 4600 
Q 2425 4600 2770 4297 
Q 3116 3994 3184 3459 
z
M 888 1484 
Q 888 1194 1011 928 
Q 1134 663 1356 523 
Q 1578 384 1822 384 
Q 2178 384 2434 671 
Q 2691 959 2691 1453 
Q 2691 1928 2437 2201 
Q 2184 2475 1800 2475 
Q 1419 2475 1153 2201 
Q 888 1928 888 1484 
z
" transform="scale(0.015625)"/>
       </defs>
       <use xlink:href="#ArialMT-36"/>
       <use xlink:href="#ArialMT-30" x="55.615234"/>
      </g>
     </g>
    </g>
    <g id="xtick_5">
     <g id="line2d_5">
      <path d="M 324 256.32 
L 324 34.56 
" clip-path="url(#p1959bbbf2c)" style="fill: none; stroke: #ffffff; stroke-width: 0.8; stroke-linecap: round"/>
     </g>
     <g id="text_5">
      <!-- 70 -->
      <g style="fill: #262626" transform="translate(316.214688 273.340937)scale(0.14 -0.14)">
       <defs>
        <path id="ArialMT-37" d="M 303 3981 
L 303 4522 
L 3269 4522 
L 3269 4084 
Q 2831 3619 2401 2847 
Q 1972 2075 1738 1259 
Q 1569 684 1522 0 
L 944 0 
Q 953 541 1156 1306 
Q 1359 2072 1739 2783 
Q 2119 3494 2547 3981 
L 303 3981 
z
" transform="scale(0.015625)"/>
       </defs>
       <use xlink:href="#ArialMT-37"/>
       <use xlink:href="#ArialMT-30" x="55.615234"/>
      </g>
     </g>
    </g>
   </g>
   <g id="matplotlib.axis_2">
    <g id="ytick_1">
     <g id="line2d_6">
      <path d="M 45 239.147455 
L 324 239.147455 
" clip-path="url(#p1959bbbf2c)" style="fill: none; stroke: #ffffff; stroke-width: 0.8; stroke-linecap: round"/>
     </g>
     <g id="text_6">
      <!-- −50 -->
      <g style="fill: #262626" transform="translate(14.2525 244.157924)scale(0.14 -0.14)">
       <defs>
        <path id="ArialMT-2212" d="M 3381 1997 
L 356 1997 
L 356 2522 
L 3381 2522 
L 3381 1997 
z
" transform="scale(0.015625)"/>
       </defs>
       <use xlink:href="#ArialMT-2212"/>
       <use xlink:href="#ArialMT-35" x="58.398438"/>
       <use xlink:href="#ArialMT-30" x="114.013672"/>
      </g>
     </g>
    </g>
    <g id="ytick_2">
     <g id="line2d_7">
      <path d="M 45 206.729546 
L 324 206.729546 
" clip-path="url(#p1959bbbf2c)" style="fill: none; stroke: #ffffff; stroke-width: 0.8; stroke-linecap: round"/>
     </g>
     <g id="text_7">
      <!-- −40 -->
      <g style="fill: #262626" transform="translate(14.2525 211.740015)scale(0.14 -0.14)">
       <use xlink:href="#ArialMT-2212"/>
       <use xlink:href="#ArialMT-34" x="58.398438"/>
       <use xlink:href="#ArialMT-30" x="114.013672"/>
      </g>
     </g>
    </g>
    <g id="ytick_3">
     <g id="line2d_8">
      <path d="M 45 174.311637 
L 324 174.311637 
" clip-path="url(#p1959bbbf2c)" style="fill: none; stroke: #ffffff; stroke-width: 0.8; stroke-linecap: round"/>
     </g>
     <g id="text_8">
      <!-- −30 -->
      <g style="fill: #262626" transform="translate(14.2525 179.322106)scale(0.14 -0.14)">
       <use xlink:href="#ArialMT-2212"/>
       <use xlink:href="#ArialMT-33" x="58.398438"/>
       <use xlink:href="#ArialMT-30" x="114.013672"/>
      </g>
     </g>
    </g>
    <g id="ytick_4">
     <g id="line2d_9">
      <path d="M 45 141.893728 
L 324 141.893728 
" clip-path="url(#p1959bbbf2c)" style="fill: none; stroke: #ffffff; stroke-width: 0.8; stroke-linecap: round"/>
     </g>
     <g id="text_9">
      <!-- −20 -->
      <g style="fill: #262626" transform="translate(14.2525 146.904196)scale(0.14 -0.14)">
       <defs>
        <path id="ArialMT-32" d="M 3222 541 
L 3222 0 
L 194 0 
Q 188 203 259 391 
Q 375 700 629 1000 
Q 884 1300 1366 1694 
Q 2113 2306 2375 2664 
Q 2638 3022 2638 3341 
Q 2638 3675 2398 3904 
Q 2159 4134 1775 4134 
Q 1369 4134 1125 3890 
Q 881 3647 878 3216 
L 300 3275 
Q 359 3922 746 4261 
Q 1134 4600 1788 4600 
Q 2447 4600 2831 4234 
Q 3216 3869 3216 3328 
Q 3216 3053 3103 2787 
Q 2991 2522 2730 2228 
Q 2469 1934 1863 1422 
Q 1356 997 1212 845 
Q 1069 694 975 541 
L 3222 541 
z
" transform="scale(0.015625)"/>
       </defs>
       <use xlink:href="#ArialMT-2212"/>
       <use xlink:href="#ArialMT-32" x="58.398438"/>
       <use xlink:href="#ArialMT-30" x="114.013672"/>
      </g>
     </g>
    </g>
    <g id="ytick_5">
     <g id="line2d_10">
      <path d="M 45 109.475818 
L 324 109.475818 
" clip-path="url(#p1959bbbf2c)" style="fill: none; stroke: #ffffff; stroke-width: 0.8; stroke-linecap: round"/>
     </g>
     <g id="text_10">
      <!-- −10 -->
      <g style="fill: #262626" transform="translate(14.2525 114.486287)scale(0.14 -0.14)">
       <defs>
        <path id="ArialMT-31" d="M 2384 0 
L 1822 0 
L 1822 3584 
Q 1619 3391 1289 3197 
Q 959 3003 697 2906 
L 697 3450 
Q 1169 3672 1522 3987 
Q 1875 4303 2022 4600 
L 2384 4600 
L 2384 0 
z
" transform="scale(0.015625)"/>
       </defs>
       <use xlink:href="#ArialMT-2212"/>
       <use xlink:href="#ArialMT-31" x="58.398438"/>
       <use xlink:href="#ArialMT-30" x="114.013672"/>
      </g>
     </g>
    </g>
    <g id="ytick_6">
     <g id="line2d_11">
      <path d="M 45 77.057909 
L 324 77.057909 
" clip-path="url(#p1959bbbf2c)" style="fill: none; stroke: #ffffff; stroke-width: 0.8; stroke-linecap: round"/>
     </g>
     <g id="text_11">
      <!-- 0 -->
      <g style="fill: #262626" transform="translate(30.214688 82.068378)scale(0.14 -0.14)">
       <use xlink:href="#ArialMT-30"/>
      </g>
     </g>
    </g>
    <g id="ytick_7">
     <g id="line2d_12">
      <path d="M 45 44.64 
L 324 44.64 
" clip-path="url(#p1959bbbf2c)" style="fill: none; stroke: #ffffff; stroke-width: 0.8; stroke-linecap: round"/>
     </g>
     <g id="text_12">
      <!-- 10 -->
      <g style="fill: #262626" transform="translate(22.429375 49.650469)scale(0.14 -0.14)">
       <use xlink:href="#ArialMT-31"/>
       <use xlink:href="#ArialMT-30" x="55.615234"/>
      </g>
     </g>
    </g>
   </g>
   <g id="PathCollection_1">
    <defs>
     <path id="mb0e8b70f5d" d="M 0 1.322876 
C 0.350831 1.322876 0.68734 1.183489 0.935414 0.935414 
C 1.183489 0.68734 1.322876 0.350831 1.322876 0 
C 1.322876 -0.350831 1.183489 -0.68734 0.935414 -0.935414 
C 0.68734 -1.183489 0.350831 -1.322876 0 -1.322876 
C -0.350831 -1.322876 -0.68734 -1.183489 -0.935414 -0.935414 
C -1.183489 -0.68734 -1.322876 -0.350831 -1.322876 0 
C -1.322876 0.350831 -1.183489 0.68734 -0.935414 0.935414 
C -0.68734 1.183489 -0.350831 1.322876 0 1.322876 
z
" style="stroke: #0000ff; stroke-opacity: 0.5"/>
    </defs>
    <g clip-path="url(#p1959bbbf2c)">
     <use xlink:href="#mb0e8b70f5d" x="119.4" y="90.025073" style="fill: #0000ff; fill-opacity: 0.5; stroke: #0000ff; stroke-opacity: 0.5"/>
     <use xlink:href="#mb0e8b70f5d" x="76" y="77.057909" style="fill: #0000ff; fill-opacity: 0.5; stroke: #0000ff; stroke-opacity: 0.5"/>
     <use xlink:href="#mb0e8b70f5d" x="100.8" y="141.893728" style="fill: #0000ff; fill-opacity: 0.5; stroke: #0000ff; stroke-opacity: 0.5"/>
     <use xlink:href="#mb0e8b70f5d" x="131.8" y="102.992237" style="fill: #0000ff; fill-opacity: 0.5; stroke: #0000ff; stroke-opacity: 0.5"/>
     <use xlink:href="#mb0e8b70f5d" x="317.8" y="96.508655" style="fill: #0000ff; fill-opacity: 0.5; stroke: #0000ff; stroke-opacity: 0.5"/>
     <use xlink:href="#mb0e8b70f5d" x="125.6" y="109.475818" style="fill: #0000ff; fill-opacity: 0.5; stroke: #0000ff; stroke-opacity: 0.5"/>
     <use xlink:href="#mb0e8b70f5d" x="131.8" y="80.2997" style="fill: #0000ff; fill-opacity: 0.5; stroke: #0000ff; stroke-opacity: 0.5"/>
     <use xlink:href="#mb0e8b70f5d" x="156.6" y="112.717609" style="fill: #0000ff; fill-opacity: 0.5; stroke: #0000ff; stroke-opacity: 0.5"/>
     <use xlink:href="#mb0e8b70f5d" x="193.8" y="44.64" style="fill: #0000ff; fill-opacity: 0.5; stroke: #0000ff; stroke-opacity: 0.5"/>
     <use xlink:href="#mb0e8b70f5d" x="200" y="122.442982" style="fill: #0000ff; fill-opacity: 0.5; stroke: #0000ff; stroke-opacity: 0.5"/>
     <use xlink:href="#mb0e8b70f5d" x="156.6" y="102.992237" style="fill: #0000ff; fill-opacity: 0.5; stroke: #0000ff; stroke-opacity: 0.5"/>
     <use xlink:href="#mb0e8b70f5d" x="212.4" y="77.057909" style="fill: #0000ff; fill-opacity: 0.5; stroke: #0000ff; stroke-opacity: 0.5"/>
     <use xlink:href="#mb0e8b70f5d" x="138" y="122.442982" style="fill: #0000ff; fill-opacity: 0.5; stroke: #0000ff; stroke-opacity: 0.5"/>
     <use xlink:href="#mb0e8b70f5d" x="107" y="83.541491" style="fill: #0000ff; fill-opacity: 0.5; stroke: #0000ff; stroke-opacity: 0.5"/>
     <use xlink:href="#mb0e8b70f5d" x="175.2" y="109.475818" style="fill: #0000ff; fill-opacity: 0.5; stroke: #0000ff; stroke-opacity: 0.5"/>
     <use xlink:href="#mb0e8b70f5d" x="268.2" y="77.057909" style="fill: #0000ff; fill-opacity: 0.5; stroke: #0000ff; stroke-opacity: 0.5"/>
     <use xlink:href="#mb0e8b70f5d" x="218.6" y="86.783282" style="fill: #0000ff; fill-opacity: 0.5; stroke: #0000ff; stroke-opacity: 0.5"/>
     <use xlink:href="#mb0e8b70f5d" x="82.2" y="141.893728" style="fill: #0000ff; fill-opacity: 0.5; stroke: #0000ff; stroke-opacity: 0.5"/>
     <use xlink:href="#mb0e8b70f5d" x="113.2" y="102.992237" style="fill: #0000ff; fill-opacity: 0.5; stroke: #0000ff; stroke-opacity: 0.5"/>
     <use xlink:href="#mb0e8b70f5d" x="138" y="102.992237" style="fill: #0000ff; fill-opacity: 0.5; stroke: #0000ff; stroke-opacity: 0.5"/>
     <use xlink:href="#mb0e8b70f5d" x="156.6" y="80.2997" style="fill: #0000ff; fill-opacity: 0.5; stroke: #0000ff; stroke-opacity: 0.5"/>
     <use xlink:href="#mb0e8b70f5d" x="237.2" y="77.057909" style="fill: #0000ff; fill-opacity: 0.5; stroke: #0000ff; stroke-opacity: 0.5"/>
     <use xlink:href="#mb0e8b70f5d" x="237.2" y="106.234028" style="fill: #0000ff; fill-opacity: 0.5; stroke: #0000ff; stroke-opacity: 0.5"/>
     <use xlink:href="#mb0e8b70f5d" x="162.8" y="184.03701" style="fill: #0000ff; fill-opacity: 0.5; stroke: #0000ff; stroke-opacity: 0.5"/>
     <use xlink:href="#mb0e8b70f5d" x="249.6" y="122.442982" style="fill: #0000ff; fill-opacity: 0.5; stroke: #0000ff; stroke-opacity: 0.5"/>
     <use xlink:href="#mb0e8b70f5d" x="243.4" y="145.135519" style="fill: #0000ff; fill-opacity: 0.5; stroke: #0000ff; stroke-opacity: 0.5"/>
     <use xlink:href="#mb0e8b70f5d" x="255.8" y="96.508655" style="fill: #0000ff; fill-opacity: 0.5; stroke: #0000ff; stroke-opacity: 0.5"/>
    </g>
   </g>
   <g id="PolyCollection_1">
    <defs>
     <path id="mebc05695c4" d="M 45 -202.132877 
L 45 -155.446944 
L 47.818182 -155.883652 
L 50.636364 -156.405589 
L 53.454545 -156.819554 
L 56.272727 -157.36816 
L 59.090909 -157.92476 
L 61.909091 -158.424697 
L 64.727273 -158.992094 
L 67.545455 -159.574265 
L 70.363636 -160.150073 
L 73.181818 -160.698821 
L 76 -161.103605 
L 78.818182 -161.603496 
L 81.636364 -162.04711 
L 84.454545 -162.494204 
L 87.272727 -163.021974 
L 90.090909 -163.599829 
L 92.909091 -164.182738 
L 95.727273 -164.77319 
L 98.545455 -165.506752 
L 101.363636 -166.104757 
L 104.181818 -166.56082 
L 107 -167.074711 
L 109.818182 -167.592105 
L 112.636364 -168.116517 
L 115.454545 -168.743425 
L 118.272727 -169.219565 
L 121.090909 -169.63634 
L 123.909091 -170.034078 
L 126.727273 -170.256357 
L 129.545455 -170.489701 
L 132.363636 -170.910278 
L 135.181818 -171.176521 
L 138 -171.648658 
L 140.818182 -172.077146 
L 143.636364 -172.382393 
L 146.454545 -172.676977 
L 149.272727 -172.980505 
L 152.090909 -173.601424 
L 154.909091 -173.761703 
L 157.727273 -174.172606 
L 160.545455 -174.498827 
L 163.363636 -174.708471 
L 166.181818 -174.912331 
L 169 -175.082214 
L 171.818182 -175.314623 
L 174.636364 -175.493106 
L 177.454545 -175.715174 
L 180.272727 -175.878913 
L 183.090909 -175.803347 
L 185.909091 -175.947993 
L 188.727273 -176.137434 
L 191.545455 -176.235426 
L 194.363636 -175.895515 
L 197.181818 -175.751273 
L 200 -175.600041 
L 202.818182 -175.27182 
L 205.636364 -175.533574 
L 208.454545 -175.276082 
L 211.272727 -174.95929 
L 214.090909 -174.893726 
L 216.909091 -174.462632 
L 219.727273 -174.059268 
L 222.545455 -173.756641 
L 225.363636 -173.525122 
L 228.181818 -173.200434 
L 231 -173.164773 
L 233.818182 -173.253676 
L 236.636364 -173.04805 
L 239.454545 -172.944147 
L 242.272727 -172.880383 
L 245.090909 -172.831447 
L 247.909091 -172.78251 
L 250.727273 -172.726824 
L 253.545455 -172.434158 
L 256.363636 -172.079727 
L 259.181818 -171.725494 
L 262 -171.381269 
L 264.818182 -171.027468 
L 267.636364 -170.733459 
L 270.454545 -170.480692 
L 273.272727 -170.104886 
L 276.090909 -169.72908 
L 278.909091 -169.353274 
L 281.727273 -168.97805 
L 284.545455 -168.70758 
L 287.363636 -168.536102 
L 290.181818 -168.412484 
L 293 -168.288866 
L 295.818182 -168.165247 
L 298.636364 -167.810572 
L 301.454545 -167.38808 
L 304.272727 -167.132152 
L 307.090909 -166.902463 
L 309.909091 -166.672774 
L 312.727273 -166.443086 
L 315.545455 -166.213397 
L 318.363636 -165.983708 
L 321.181818 -165.75402 
L 324 -165.393349 
L 324 -217.277157 
L 324 -217.277157 
L 321.181818 -216.686865 
L 318.363636 -216.120639 
L 315.545455 -215.618228 
L 312.727273 -214.909002 
L 309.909091 -214.313331 
L 307.090909 -213.834268 
L 304.272727 -213.259803 
L 301.454545 -212.624989 
L 298.636364 -211.985375 
L 295.818182 -211.449264 
L 293 -210.980077 
L 290.181818 -210.361708 
L 287.363636 -209.69573 
L 284.545455 -209.277881 
L 281.727273 -209.1248 
L 278.909091 -208.662063 
L 276.090909 -208.187287 
L 273.272727 -207.586344 
L 270.454545 -207.149168 
L 267.636364 -206.744136 
L 264.818182 -206.338636 
L 262 -205.875063 
L 259.181818 -205.329012 
L 256.363636 -205.011363 
L 253.545455 -204.717022 
L 250.727273 -204.221434 
L 247.909091 -203.650655 
L 245.090909 -203.09419 
L 242.272727 -202.506156 
L 239.454545 -201.934297 
L 236.636364 -201.358086 
L 233.818182 -200.80188 
L 231 -200.376942 
L 228.181818 -200.048923 
L 225.363636 -199.658047 
L 222.545455 -199.282749 
L 219.727273 -198.915836 
L 216.909091 -198.448095 
L 214.090909 -197.988103 
L 211.272727 -197.682111 
L 208.454545 -197.327538 
L 205.636364 -197.041411 
L 202.818182 -196.90907 
L 200 -196.8788 
L 197.181818 -196.644075 
L 194.363636 -196.241443 
L 191.545455 -196.164331 
L 188.727273 -196.117706 
L 185.909091 -195.857963 
L 183.090909 -195.785325 
L 180.272727 -195.720795 
L 177.454545 -195.717128 
L 174.636364 -195.711935 
L 171.818182 -195.771099 
L 169 -195.706129 
L 166.181818 -195.617179 
L 163.363636 -195.631805 
L 160.545455 -195.591995 
L 157.727273 -195.634838 
L 154.909091 -195.57391 
L 152.090909 -195.679231 
L 149.272727 -195.696652 
L 146.454545 -195.673164 
L 143.636364 -195.856245 
L 140.818182 -195.956819 
L 138 -195.98887 
L 135.181818 -196.16177 
L 132.363636 -196.265878 
L 129.545455 -196.331881 
L 126.727273 -196.317263 
L 123.909091 -196.34169 
L 121.090909 -196.367032 
L 118.272727 -196.39316 
L 115.454545 -196.417373 
L 112.636364 -196.441587 
L 109.818182 -196.708151 
L 107 -196.981726 
L 104.181818 -197.25668 
L 101.363636 -197.5803 
L 98.545455 -197.809418 
L 95.727273 -198.042482 
L 92.909091 -198.1032 
L 90.090909 -198.161151 
L 87.272727 -198.217858 
L 84.454545 -198.519031 
L 81.636364 -198.59417 
L 78.818182 -199.002385 
L 76 -199.511671 
L 73.181818 -199.700656 
L 70.363636 -199.849477 
L 67.545455 -199.998298 
L 64.727273 -200.147119 
L 61.909091 -200.429222 
L 59.090909 -200.624433 
L 56.272727 -200.976749 
L 53.454545 -201.269711 
L 50.636364 -201.456567 
L 47.818182 -201.659894 
L 45 -202.132877 
z
" style="stroke: #ffffff; stroke-opacity: 0.15"/>
    </defs>
    <g clip-path="url(#p1959bbbf2c)">
     <use xlink:href="#mebc05695c4" x="0" y="288" style="fill: #0000ff; fill-opacity: 0.15; stroke: #ffffff; stroke-opacity: 0.15"/>
    </g>
   </g>
   <g id="PathCollection_2">
    <defs>
     <path id="mf336a81a6b" d="M 0 1.322876 
C 0.350831 1.322876 0.68734 1.183489 0.935414 0.935414 
C 1.183489 0.68734 1.322876 0.350831 1.322876 0 
C 1.322876 -0.350831 1.183489 -0.68734 0.935414 -0.935414 
C 0.68734 -1.183489 0.350831 -1.322876 0 -1.322876 
C -0.350831 -1.322876 -0.68734 -1.183489 -0.935414 -0.935414 
C -1.183489 -0.68734 -1.322876 -0.350831 -1.322876 0 
C -1.322876 0.350831 -1.183489 0.68734 -0.935414 0.935414 
C -0.68734 1.183489 -0.350831 1.322876 0 1.322876 
z
" style="stroke: #ff0000; stroke-opacity: 0.5"/>
    </defs>
    <g clip-path="url(#p1959bbbf2c)">
     <use xlink:href="#mf336a81a6b" x="88.4" y="64.090746" style="fill: #ff0000; fill-opacity: 0.5; stroke: #ff0000; stroke-opacity: 0.5"/>
     <use xlink:href="#mf336a81a6b" x="107" y="70.574327" style="fill: #ff0000; fill-opacity: 0.5; stroke: #ff0000; stroke-opacity: 0.5"/>
     <use xlink:href="#mf336a81a6b" x="100.8" y="112.717609" style="fill: #ff0000; fill-opacity: 0.5; stroke: #ff0000; stroke-opacity: 0.5"/>
     <use xlink:href="#mf336a81a6b" x="63.6" y="83.541491" style="fill: #ff0000; fill-opacity: 0.5; stroke: #ff0000; stroke-opacity: 0.5"/>
     <use xlink:href="#mf336a81a6b" x="206.2" y="141.893728" style="fill: #ff0000; fill-opacity: 0.5; stroke: #ff0000; stroke-opacity: 0.5"/>
     <use xlink:href="#mf336a81a6b" x="150.4" y="206.729546" style="fill: #ff0000; fill-opacity: 0.5; stroke: #ff0000; stroke-opacity: 0.5"/>
     <use xlink:href="#mf336a81a6b" x="119.4" y="119.201191" style="fill: #ff0000; fill-opacity: 0.5; stroke: #ff0000; stroke-opacity: 0.5"/>
     <use xlink:href="#mf336a81a6b" x="150.4" y="135.410146" style="fill: #ff0000; fill-opacity: 0.5; stroke: #ff0000; stroke-opacity: 0.5"/>
     <use xlink:href="#mf336a81a6b" x="237.2" y="158.102682" style="fill: #ff0000; fill-opacity: 0.5; stroke: #ff0000; stroke-opacity: 0.5"/>
     <use xlink:href="#mf336a81a6b" x="249.6" y="177.553428" style="fill: #ff0000; fill-opacity: 0.5; stroke: #ff0000; stroke-opacity: 0.5"/>
     <use xlink:href="#mf336a81a6b" x="187.6" y="109.475818" style="fill: #ff0000; fill-opacity: 0.5; stroke: #ff0000; stroke-opacity: 0.5"/>
     <use xlink:href="#mf336a81a6b" x="181.4" y="102.992237" style="fill: #ff0000; fill-opacity: 0.5; stroke: #ff0000; stroke-opacity: 0.5"/>
     <use xlink:href="#mf336a81a6b" x="156.6" y="125.684773" style="fill: #ff0000; fill-opacity: 0.5; stroke: #ff0000; stroke-opacity: 0.5"/>
     <use xlink:href="#mf336a81a6b" x="206.2" y="148.37731" style="fill: #ff0000; fill-opacity: 0.5; stroke: #ff0000; stroke-opacity: 0.5"/>
     <use xlink:href="#mf336a81a6b" x="162.8" y="128.926564" style="fill: #ff0000; fill-opacity: 0.5; stroke: #ff0000; stroke-opacity: 0.5"/>
     <use xlink:href="#mf336a81a6b" x="262" y="219.69671" style="fill: #ff0000; fill-opacity: 0.5; stroke: #ff0000; stroke-opacity: 0.5"/>
     <use xlink:href="#mf336a81a6b" x="255.8" y="219.69671" style="fill: #ff0000; fill-opacity: 0.5; stroke: #ff0000; stroke-opacity: 0.5"/>
     <use xlink:href="#mf336a81a6b" x="156.6" y="197.004173" style="fill: #ff0000; fill-opacity: 0.5; stroke: #ff0000; stroke-opacity: 0.5"/>
     <use xlink:href="#mf336a81a6b" x="218.6" y="158.102682" style="fill: #ff0000; fill-opacity: 0.5; stroke: #ff0000; stroke-opacity: 0.5"/>
     <use xlink:href="#mf336a81a6b" x="138" y="109.475818" style="fill: #ff0000; fill-opacity: 0.5; stroke: #ff0000; stroke-opacity: 0.5"/>
     <use xlink:href="#mf336a81a6b" x="169" y="86.783282" style="fill: #ff0000; fill-opacity: 0.5; stroke: #ff0000; stroke-opacity: 0.5"/>
     <use xlink:href="#mf336a81a6b" x="162.8" y="164.586264" style="fill: #ff0000; fill-opacity: 0.5; stroke: #ff0000; stroke-opacity: 0.5"/>
     <use xlink:href="#mf336a81a6b" x="293" y="148.37731" style="fill: #ff0000; fill-opacity: 0.5; stroke: #ff0000; stroke-opacity: 0.5"/>
     <use xlink:href="#mf336a81a6b" x="82.2" y="60.848955" style="fill: #ff0000; fill-opacity: 0.5; stroke: #ff0000; stroke-opacity: 0.5"/>
     <use xlink:href="#mf336a81a6b" x="69.8" y="80.2997" style="fill: #ff0000; fill-opacity: 0.5; stroke: #ff0000; stroke-opacity: 0.5"/>
     <use xlink:href="#mf336a81a6b" x="94.6" y="109.475818" style="fill: #ff0000; fill-opacity: 0.5; stroke: #ff0000; stroke-opacity: 0.5"/>
     <use xlink:href="#mf336a81a6b" x="63.6" y="73.816118" style="fill: #ff0000; fill-opacity: 0.5; stroke: #ff0000; stroke-opacity: 0.5"/>
     <use xlink:href="#mf336a81a6b" x="107" y="184.03701" style="fill: #ff0000; fill-opacity: 0.5; stroke: #ff0000; stroke-opacity: 0.5"/>
    </g>
   </g>
   <g id="PolyCollection_2">
    <defs>
     <path id="mcf54de650f" d="M 45 -236.463944 
L 45 -187.438179 
L 47.818182 -186.429685 
L 50.636364 -185.332644 
L 53.454545 -184.066292 
L 56.272727 -182.831579 
L 59.090909 -181.779192 
L 61.909091 -180.732528 
L 64.727273 -179.685864 
L 67.545455 -178.6392 
L 70.363636 -177.592536 
L 73.181818 -176.461274 
L 76 -175.499209 
L 78.818182 -174.452545 
L 81.636364 -173.405881 
L 84.454545 -172.359452 
L 87.272727 -171.348611 
L 90.090909 -170.554714 
L 92.909091 -169.477705 
L 95.727273 -168.527647 
L 98.545455 -167.587467 
L 101.363636 -166.647592 
L 104.181818 -165.568314 
L 107 -164.471501 
L 109.818182 -163.374688 
L 112.636364 -162.277874 
L 115.454545 -161.181061 
L 118.272727 -160.084247 
L 121.090909 -158.987434 
L 123.909091 -158.007829 
L 126.727273 -156.837716 
L 129.545455 -155.691941 
L 132.363636 -154.556817 
L 135.181818 -153.408249 
L 138 -152.216775 
L 140.818182 -150.965028 
L 143.636364 -149.847959 
L 146.454545 -148.537926 
L 149.272727 -147.301995 
L 152.090909 -145.959085 
L 154.909091 -144.755941 
L 157.727273 -143.214499 
L 160.545455 -142.315107 
L 163.363636 -141.075746 
L 166.181818 -139.475831 
L 169 -138.460378 
L 171.818182 -137.382142 
L 174.636364 -135.606704 
L 177.454545 -134.027649 
L 180.272727 -132.420637 
L 183.090909 -131.215265 
L 185.909091 -129.524252 
L 188.727273 -128.363702 
L 191.545455 -126.813241 
L 194.363636 -125.235681 
L 197.181818 -123.298364 
L 200 -121.609885 
L 202.818182 -120.21125 
L 205.636364 -118.425303 
L 208.454545 -116.505765 
L 211.272727 -114.599283 
L 214.090909 -112.742885 
L 216.909091 -110.793567 
L 219.727273 -109.014688 
L 222.545455 -107.101764 
L 225.363636 -105.19013 
L 228.181818 -103.75053 
L 231 -102.150401 
L 233.818182 -100.44305 
L 236.636364 -98.514932 
L 239.454545 -96.575514 
L 242.272727 -94.711862 
L 245.090909 -92.855533 
L 247.909091 -91.092768 
L 250.727273 -89.458133 
L 253.545455 -87.696444 
L 256.363636 -85.800196 
L 259.181818 -84.030589 
L 262 -82.285789 
L 264.818182 -80.409994 
L 267.636364 -78.534715 
L 270.454545 -76.700033 
L 273.272727 -74.938018 
L 276.090909 -73.053781 
L 278.909091 -71.185591 
L 281.727273 -69.260392 
L 284.545455 -67.338192 
L 287.363636 -65.579868 
L 290.181818 -63.832211 
L 293 -62.064181 
L 295.818182 -60.226001 
L 298.636364 -58.37823 
L 301.454545 -56.530478 
L 304.272727 -54.685684 
L 307.090909 -52.840889 
L 309.909091 -50.996094 
L 312.727273 -49.117372 
L 315.545455 -47.129769 
L 318.363636 -45.310567 
L 321.181818 -43.535283 
L 324 -41.76 
L 324 -110.282756 
L 324 -110.282756 
L 321.181818 -111.175593 
L 318.363636 -112.104331 
L 315.545455 -113.033458 
L 312.727273 -113.953578 
L 309.909091 -114.738367 
L 307.090909 -115.756268 
L 304.272727 -116.753433 
L 301.454545 -117.686912 
L 298.636364 -118.616106 
L 295.818182 -119.548015 
L 293 -120.470929 
L 290.181818 -121.323477 
L 287.363636 -122.285483 
L 284.545455 -123.247489 
L 281.727273 -124.203266 
L 278.909091 -125.174898 
L 276.090909 -126.14053 
L 273.272727 -127.102406 
L 270.454545 -128.064283 
L 267.636364 -129.126752 
L 264.818182 -129.988036 
L 262 -130.95228 
L 259.181818 -131.913713 
L 256.363636 -132.878162 
L 253.545455 -133.880534 
L 250.727273 -134.905617 
L 247.909091 -135.926989 
L 245.090909 -136.787579 
L 242.272727 -137.978148 
L 239.454545 -139.005946 
L 236.636364 -140.029962 
L 233.818182 -141.049885 
L 231 -141.984116 
L 228.181818 -142.895669 
L 225.363636 -144.002526 
L 222.545455 -145.151764 
L 219.727273 -146.180439 
L 216.909091 -147.35743 
L 214.090909 -148.449425 
L 211.272727 -149.477809 
L 208.454545 -150.509029 
L 205.636364 -151.571488 
L 202.818182 -152.565743 
L 200 -153.69779 
L 197.181818 -154.888498 
L 194.363636 -155.98625 
L 191.545455 -157.103068 
L 188.727273 -158.162018 
L 185.909091 -159.315368 
L 183.090909 -160.426671 
L 180.272727 -161.669178 
L 177.454545 -162.911686 
L 174.636364 -163.903403 
L 171.818182 -164.996854 
L 169 -166.411853 
L 166.181818 -167.544391 
L 163.363636 -168.958973 
L 160.545455 -170.172593 
L 157.727273 -171.591189 
L 154.909091 -172.859326 
L 152.090909 -174.199228 
L 149.272727 -175.494764 
L 146.454545 -176.928324 
L 143.636364 -178.519454 
L 140.818182 -179.937169 
L 138 -181.356396 
L 135.181818 -182.772861 
L 132.363636 -184.251261 
L 129.545455 -185.861909 
L 126.727273 -187.168716 
L 123.909091 -188.626134 
L 121.090909 -190.189068 
L 118.272727 -191.789471 
L 115.454545 -193.493672 
L 112.636364 -195.01006 
L 109.818182 -196.667617 
L 107 -198.124231 
L 104.181818 -199.739252 
L 101.363636 -201.599918 
L 98.545455 -203.291318 
L 95.727273 -204.936244 
L 92.909091 -206.576994 
L 90.090909 -208.226113 
L 87.272727 -209.835146 
L 84.454545 -211.502514 
L 81.636364 -213.133743 
L 78.818182 -214.790947 
L 76 -216.542392 
L 73.181818 -218.231922 
L 70.363636 -220.191487 
L 67.545455 -221.888241 
L 64.727273 -223.711467 
L 61.909091 -225.410204 
L 59.090909 -227.212717 
L 56.272727 -229.139771 
L 53.454545 -230.892981 
L 50.636364 -232.533037 
L 47.818182 -234.440332 
L 45 -236.463944 
z
" style="stroke: #ffffff; stroke-opacity: 0.15"/>
    </defs>
    <g clip-path="url(#p1959bbbf2c)">
     <use xlink:href="#mcf54de650f" x="0" y="288" style="fill: #ff0000; fill-opacity: 0.15; stroke: #ffffff; stroke-opacity: 0.15"/>
    </g>
   </g>
   <g id="line2d_13">
    <path d="M 45 109.40297 
L 47.818182 109.252276 
L 50.636364 109.101583 
L 53.454545 108.950889 
L 56.272727 108.800195 
L 59.090909 108.649502 
L 61.909091 108.498808 
L 64.727273 108.348115 
L 67.545455 108.197421 
L 70.363636 108.046728 
L 73.181818 107.896034 
L 76 107.74534 
L 78.818182 107.594647 
L 81.636364 107.443953 
L 84.454545 107.29326 
L 87.272727 107.142566 
L 90.090909 106.991873 
L 92.909091 106.841179 
L 95.727273 106.690485 
L 98.545455 106.539792 
L 101.363636 106.389098 
L 104.181818 106.238405 
L 107 106.087711 
L 109.818182 105.937018 
L 112.636364 105.786324 
L 115.454545 105.63563 
L 118.272727 105.484937 
L 121.090909 105.334243 
L 123.909091 105.18355 
L 126.727273 105.032856 
L 129.545455 104.882163 
L 132.363636 104.731469 
L 135.181818 104.580775 
L 138 104.430082 
L 140.818182 104.279388 
L 143.636364 104.128695 
L 146.454545 103.978001 
L 149.272727 103.827308 
L 152.090909 103.676614 
L 154.909091 103.52592 
L 157.727273 103.375227 
L 160.545455 103.224533 
L 163.363636 103.07384 
L 166.181818 102.923146 
L 169 102.772453 
L 171.818182 102.621759 
L 174.636364 102.471065 
L 177.454545 102.320372 
L 180.272727 102.169678 
L 183.090909 102.018985 
L 185.909091 101.868291 
L 188.727273 101.717598 
L 191.545455 101.566904 
L 194.363636 101.41621 
L 197.181818 101.265517 
L 200 101.114823 
L 202.818182 100.96413 
L 205.636364 100.813436 
L 208.454545 100.662743 
L 211.272727 100.512049 
L 214.090909 100.361355 
L 216.909091 100.210662 
L 219.727273 100.059968 
L 222.545455 99.909275 
L 225.363636 99.758581 
L 228.181818 99.607888 
L 231 99.457194 
L 233.818182 99.3065 
L 236.636364 99.155807 
L 239.454545 99.005113 
L 242.272727 98.85442 
L 245.090909 98.703726 
L 247.909091 98.553033 
L 250.727273 98.402339 
L 253.545455 98.251645 
L 256.363636 98.100952 
L 259.181818 97.950258 
L 262 97.799565 
L 264.818182 97.648871 
L 267.636364 97.498178 
L 270.454545 97.347484 
L 273.272727 97.19679 
L 276.090909 97.046097 
L 278.909091 96.895403 
L 281.727273 96.74471 
L 284.545455 96.594016 
L 287.363636 96.443323 
L 290.181818 96.292629 
L 293 96.141935 
L 295.818182 95.991242 
L 298.636364 95.840548 
L 301.454545 95.689855 
L 304.272727 95.539161 
L 307.090909 95.388468 
L 309.909091 95.237774 
L 312.727273 95.08708 
L 315.545455 94.936387 
L 318.363636 94.785693 
L 321.181818 94.635 
L 324 94.484306 
" clip-path="url(#p1959bbbf2c)" style="fill: none; stroke: #0000ff; stroke-width: 2.25; stroke-linecap: round"/>
   </g>
   <g id="line2d_14">
    <path d="M 45 68.055237 
L 47.818182 69.533735 
L 50.636364 71.012233 
L 53.454545 72.490731 
L 56.272727 73.96923 
L 59.090909 75.447728 
L 61.909091 76.926226 
L 64.727273 78.404724 
L 67.545455 79.883222 
L 70.363636 81.361721 
L 73.181818 82.840219 
L 76 84.318717 
L 78.818182 85.797215 
L 81.636364 87.275713 
L 84.454545 88.754212 
L 87.272727 90.23271 
L 90.090909 91.711208 
L 92.909091 93.189706 
L 95.727273 94.668204 
L 98.545455 96.146702 
L 101.363636 97.625201 
L 104.181818 99.103699 
L 107 100.582197 
L 109.818182 102.060695 
L 112.636364 103.539193 
L 115.454545 105.017692 
L 118.272727 106.49619 
L 121.090909 107.974688 
L 123.909091 109.453186 
L 126.727273 110.931684 
L 129.545455 112.410183 
L 132.363636 113.888681 
L 135.181818 115.367179 
L 138 116.845677 
L 140.818182 118.324175 
L 143.636364 119.802673 
L 146.454545 121.281172 
L 149.272727 122.75967 
L 152.090909 124.238168 
L 154.909091 125.716666 
L 157.727273 127.195164 
L 160.545455 128.673663 
L 163.363636 130.152161 
L 166.181818 131.630659 
L 169 133.109157 
L 171.818182 134.587655 
L 174.636364 136.066154 
L 177.454545 137.544652 
L 180.272727 139.02315 
L 183.090909 140.501648 
L 185.909091 141.980146 
L 188.727273 143.458644 
L 191.545455 144.937143 
L 194.363636 146.415641 
L 197.181818 147.894139 
L 200 149.372637 
L 202.818182 150.851135 
L 205.636364 152.329634 
L 208.454545 153.808132 
L 211.272727 155.28663 
L 214.090909 156.765128 
L 216.909091 158.243626 
L 219.727273 159.722125 
L 222.545455 161.200623 
L 225.363636 162.679121 
L 228.181818 164.157619 
L 231 165.636117 
L 233.818182 167.114615 
L 236.636364 168.593114 
L 239.454545 170.071612 
L 242.272727 171.55011 
L 245.090909 173.028608 
L 247.909091 174.507106 
L 250.727273 175.985605 
L 253.545455 177.464103 
L 256.363636 178.942601 
L 259.181818 180.421099 
L 262 181.899597 
L 264.818182 183.378096 
L 267.636364 184.856594 
L 270.454545 186.335092 
L 273.272727 187.81359 
L 276.090909 189.292088 
L 278.909091 190.770586 
L 281.727273 192.249085 
L 284.545455 193.727583 
L 287.363636 195.206081 
L 290.181818 196.684579 
L 293 198.163077 
L 295.818182 199.641576 
L 298.636364 201.120074 
L 301.454545 202.598572 
L 304.272727 204.07707 
L 307.090909 205.555568 
L 309.909091 207.034067 
L 312.727273 208.512565 
L 315.545455 209.991063 
L 318.363636 211.469561 
L 321.181818 212.948059 
L 324 214.426557 
" clip-path="url(#p1959bbbf2c)" style="fill: none; stroke: #ff0000; stroke-width: 2.25; stroke-linecap: round"/>
   </g>
   <g id="patch_3">
    <path d="M 45 256.32 
L 45 34.56 
" style="fill: none; stroke: #ffffff; stroke-width: 0.8; stroke-linejoin: miter; stroke-linecap: square"/>
   </g>
   <g id="patch_4">
    <path d="M 324 256.32 
L 324 34.56 
" style="fill: none; stroke: #ffffff; stroke-width: 0.8; stroke-linejoin: miter; stroke-linecap: square"/>
   </g>
   <g id="patch_5">
    <path d="M 45 256.32 
L 324 256.32 
" style="fill: none; stroke: #ffffff; stroke-width: 0.8; stroke-linejoin: miter; stroke-linecap: square"/>
   </g>
   <g id="patch_6">
    <path d="M 45 34.56 
L 324 34.56 
" style="fill: none; stroke: #ffffff; stroke-width: 0.8; stroke-linejoin: miter; stroke-linecap: square"/>
   </g>
   <g id="text_13">
    <!-- STAIT -->
    <g style="fill: #262626" transform="translate(159.166406 28.56)scale(0.18 -0.18)">
     <defs>
      <path id="Arial-BoldMT-53" d="M 231 1491 
L 1131 1578 
Q 1213 1125 1461 912 
Q 1709 700 2131 700 
Q 2578 700 2804 889 
Q 3031 1078 3031 1331 
Q 3031 1494 2936 1608 
Q 2841 1722 2603 1806 
Q 2441 1863 1863 2006 
Q 1119 2191 819 2459 
Q 397 2838 397 3381 
Q 397 3731 595 4036 
Q 794 4341 1167 4500 
Q 1541 4659 2069 4659 
Q 2931 4659 3367 4281 
Q 3803 3903 3825 3272 
L 2900 3231 
Q 2841 3584 2645 3739 
Q 2450 3894 2059 3894 
Q 1656 3894 1428 3728 
Q 1281 3622 1281 3444 
Q 1281 3281 1419 3166 
Q 1594 3019 2269 2859 
Q 2944 2700 3267 2529 
Q 3591 2359 3773 2064 
Q 3956 1769 3956 1334 
Q 3956 941 3737 597 
Q 3519 253 3119 86 
Q 2719 -81 2122 -81 
Q 1253 -81 787 320 
Q 322 722 231 1491 
z
" transform="scale(0.015625)"/>
      <path id="Arial-BoldMT-54" d="M 1497 0 
L 1497 3806 
L 138 3806 
L 138 4581 
L 3778 4581 
L 3778 3806 
L 2422 3806 
L 2422 0 
L 1497 0 
z
" transform="scale(0.015625)"/>
      <path id="Arial-BoldMT-41" d="M 4597 0 
L 3591 0 
L 3191 1041 
L 1359 1041 
L 981 0 
L 0 0 
L 1784 4581 
L 2763 4581 
L 4597 0 
z
M 2894 1813 
L 2263 3513 
L 1644 1813 
L 2894 1813 
z
" transform="scale(0.015625)"/>
      <path id="Arial-BoldMT-49" d="M 438 0 
L 438 4581 
L 1363 4581 
L 1363 0 
L 438 0 
z
" transform="scale(0.015625)"/>
     </defs>
     <use xlink:href="#Arial-BoldMT-53"/>
     <use xlink:href="#Arial-BoldMT-54" x="66.699219"/>
     <use xlink:href="#Arial-BoldMT-41" x="120.408203"/>
     <use xlink:href="#Arial-BoldMT-49" x="192.625"/>
     <use xlink:href="#Arial-BoldMT-54" x="220.408203"/>
    </g>
   </g>
  </g>
 </g>
 <defs>
  <clipPath id="p1959bbbf2c">
   <rect x="45" y="34.56" width="279" height="221.76"/>
  </clipPath>
 </defs>
</svg>
