<?xml version="1.0" encoding="utf-8" standalone="no"?>
<!DOCTYPE svg PUBLIC "-//W3C//DTD SVG 1.1//EN"
  "http://www.w3.org/Graphics/SVG/1.1/DTD/svg11.dtd">
<svg xmlns:xlink="http://www.w3.org/1999/xlink" width="360pt" height="288pt" viewBox="0 0 360 288" xmlns="http://www.w3.org/2000/svg" version="1.1">
 <metadata>
  <rdf:RDF xmlns:dc="http://purl.org/dc/elements/1.1/" xmlns:cc="http://creativecommons.org/ns#" xmlns:rdf="http://www.w3.org/1999/02/22-rdf-syntax-ns#">
   <cc:Work>
    <dc:type rdf:resource="http://purl.org/dc/dcmitype/StillImage"/>
    <dc:date>2022-11-10T09:40:32.676730</dc:date>
    <dc:format>image/svg+xml</dc:format>
    <dc:creator>
     <cc:Agent>
      <dc:title>Matplotlib v3.5.2, https://matplotlib.org/</dc:title>
     </cc:Agent>
    </dc:creator>
   </cc:Work>
  </rdf:RDF>
 </metadata>
 <defs>
  <style type="text/css">*{stroke-linejoin: round; stroke-linecap: butt}</style>
 </defs>
 <g id="figure_1">
  <g id="patch_1">
   <path d="M 0 288 
L 360 288 
L 360 0 
L 0 0 
z
" style="fill: #ffffff"/>
  </g>
  <g id="axes_1">
   <g id="patch_2">
    <path d="M 45 256.32 
L 324 256.32 
L 324 34.56 
L 45 34.56 
z
" style="fill: #eaeaf2"/>
   </g>
   <g id="matplotlib.axis_1">
    <g id="xtick_1">
     <g id="line2d_1">
      <path d="M 45 256.32 
L 45 34.56 
" clip-path="url(#pb529f29484)" style="fill: none; stroke: #ffffff; stroke-width: 0.8; stroke-linecap: round"/>
     </g>
     <g id="text_1">
      <!-- 0 -->
      <g style="fill: #262626" transform="translate(41.107344 273.340937)scale(0.14 -0.14)">
       <defs>
        <path id="ArialMT-30" d="M 266 2259 
Q 266 3072 433 3567 
Q 600 4063 929 4331 
Q 1259 4600 1759 4600 
Q 2128 4600 2406 4451 
Q 2684 4303 2865 4023 
Q 3047 3744 3150 3342 
Q 3253 2941 3253 2259 
Q 3253 1453 3087 958 
Q 2922 463 2592 192 
Q 2263 -78 1759 -78 
Q 1097 -78 719 397 
Q 266 969 266 2259 
z
M 844 2259 
Q 844 1131 1108 757 
Q 1372 384 1759 384 
Q 2147 384 2411 759 
Q 2675 1134 2675 2259 
Q 2675 3391 2411 3762 
Q 2147 4134 1753 4134 
Q 1366 4134 1134 3806 
Q 844 3388 844 2259 
z
" transform="scale(0.015625)"/>
       </defs>
       <use xlink:href="#ArialMT-30"/>
      </g>
     </g>
    </g>
    <g id="xtick_2">
     <g id="line2d_2">
      <path d="M 114.75 256.32 
L 114.75 34.56 
" clip-path="url(#pb529f29484)" style="fill: none; stroke: #ffffff; stroke-width: 0.8; stroke-linecap: round"/>
     </g>
     <g id="text_2">
      <!-- 20 -->
      <g style="fill: #262626" transform="translate(106.964687 273.340937)scale(0.14 -0.14)">
       <defs>
        <path id="ArialMT-32" d="M 3222 541 
L 3222 0 
L 194 0 
Q 188 203 259 391 
Q 375 700 629 1000 
Q 884 1300 1366 1694 
Q 2113 2306 2375 2664 
Q 2638 3022 2638 3341 
Q 2638 3675 2398 3904 
Q 2159 4134 1775 4134 
Q 1369 4134 1125 3890 
Q 881 3647 878 3216 
L 300 3275 
Q 359 3922 746 4261 
Q 1134 4600 1788 4600 
Q 2447 4600 2831 4234 
Q 3216 3869 3216 3328 
Q 3216 3053 3103 2787 
Q 2991 2522 2730 2228 
Q 2469 1934 1863 1422 
Q 1356 997 1212 845 
Q 1069 694 975 541 
L 3222 541 
z
" transform="scale(0.015625)"/>
       </defs>
       <use xlink:href="#ArialMT-32"/>
       <use xlink:href="#ArialMT-30" x="55.615234"/>
      </g>
     </g>
    </g>
    <g id="xtick_3">
     <g id="line2d_3">
      <path d="M 184.5 256.32 
L 184.5 34.56 
" clip-path="url(#pb529f29484)" style="fill: none; stroke: #ffffff; stroke-width: 0.8; stroke-linecap: round"/>
     </g>
     <g id="text_3">
      <!-- 40 -->
      <g style="fill: #262626" transform="translate(176.714687 273.340937)scale(0.14 -0.14)">
       <defs>
        <path id="ArialMT-34" d="M 2069 0 
L 2069 1097 
L 81 1097 
L 81 1613 
L 2172 4581 
L 2631 4581 
L 2631 1613 
L 3250 1613 
L 3250 1097 
L 2631 1097 
L 2631 0 
L 2069 0 
z
M 2069 1613 
L 2069 3678 
L 634 1613 
L 2069 1613 
z
" transform="scale(0.015625)"/>
       </defs>
       <use xlink:href="#ArialMT-34"/>
       <use xlink:href="#ArialMT-30" x="55.615234"/>
      </g>
     </g>
    </g>
    <g id="xtick_4">
     <g id="line2d_4">
      <path d="M 254.25 256.32 
L 254.25 34.56 
" clip-path="url(#pb529f29484)" style="fill: none; stroke: #ffffff; stroke-width: 0.8; stroke-linecap: round"/>
     </g>
     <g id="text_4">
      <!-- 60 -->
      <g style="fill: #262626" transform="translate(246.464688 273.340937)scale(0.14 -0.14)">
       <defs>
        <path id="ArialMT-36" d="M 3184 3459 
L 2625 3416 
Q 2550 3747 2413 3897 
Q 2184 4138 1850 4138 
Q 1581 4138 1378 3988 
Q 1113 3794 959 3422 
Q 806 3050 800 2363 
Q 1003 2672 1297 2822 
Q 1591 2972 1913 2972 
Q 2475 2972 2870 2558 
Q 3266 2144 3266 1488 
Q 3266 1056 3080 686 
Q 2894 316 2569 119 
Q 2244 -78 1831 -78 
Q 1128 -78 684 439 
Q 241 956 241 2144 
Q 241 3472 731 4075 
Q 1159 4600 1884 4600 
Q 2425 4600 2770 4297 
Q 3116 3994 3184 3459 
z
M 888 1484 
Q 888 1194 1011 928 
Q 1134 663 1356 523 
Q 1578 384 1822 384 
Q 2178 384 2434 671 
Q 2691 959 2691 1453 
Q 2691 1928 2437 2201 
Q 2184 2475 1800 2475 
Q 1419 2475 1153 2201 
Q 888 1928 888 1484 
z
" transform="scale(0.015625)"/>
       </defs>
       <use xlink:href="#ArialMT-36"/>
       <use xlink:href="#ArialMT-30" x="55.615234"/>
      </g>
     </g>
    </g>
    <g id="xtick_5">
     <g id="line2d_5">
      <path d="M 324 256.32 
L 324 34.56 
" clip-path="url(#pb529f29484)" style="fill: none; stroke: #ffffff; stroke-width: 0.8; stroke-linecap: round"/>
     </g>
     <g id="text_5">
      <!-- 80 -->
      <g style="fill: #262626" transform="translate(316.214688 273.340937)scale(0.14 -0.14)">
       <defs>
        <path id="ArialMT-38" d="M 1131 2484 
Q 781 2613 612 2850 
Q 444 3088 444 3419 
Q 444 3919 803 4259 
Q 1163 4600 1759 4600 
Q 2359 4600 2725 4251 
Q 3091 3903 3091 3403 
Q 3091 3084 2923 2848 
Q 2756 2613 2416 2484 
Q 2838 2347 3058 2040 
Q 3278 1734 3278 1309 
Q 3278 722 2862 322 
Q 2447 -78 1769 -78 
Q 1091 -78 675 323 
Q 259 725 259 1325 
Q 259 1772 486 2073 
Q 713 2375 1131 2484 
z
M 1019 3438 
Q 1019 3113 1228 2906 
Q 1438 2700 1772 2700 
Q 2097 2700 2305 2904 
Q 2513 3109 2513 3406 
Q 2513 3716 2298 3927 
Q 2084 4138 1766 4138 
Q 1444 4138 1231 3931 
Q 1019 3725 1019 3438 
z
M 838 1322 
Q 838 1081 952 856 
Q 1066 631 1291 507 
Q 1516 384 1775 384 
Q 2178 384 2440 643 
Q 2703 903 2703 1303 
Q 2703 1709 2433 1975 
Q 2163 2241 1756 2241 
Q 1359 2241 1098 1978 
Q 838 1716 838 1322 
z
" transform="scale(0.015625)"/>
       </defs>
       <use xlink:href="#ArialMT-38"/>
       <use xlink:href="#ArialMT-30" x="55.615234"/>
      </g>
     </g>
    </g>
   </g>
   <g id="matplotlib.axis_2">
    <g id="ytick_1">
     <g id="line2d_6">
      <path d="M 45 243.973313 
L 324 243.973313 
" clip-path="url(#pb529f29484)" style="fill: none; stroke: #ffffff; stroke-width: 0.8; stroke-linecap: round"/>
     </g>
     <g id="text_6">
      <!-- −20 -->
      <g style="fill: #262626" transform="translate(14.2525 248.983782)scale(0.14 -0.14)">
       <defs>
        <path id="ArialMT-2212" d="M 3381 1997 
L 356 1997 
L 356 2522 
L 3381 2522 
L 3381 1997 
z
" transform="scale(0.015625)"/>
       </defs>
       <use xlink:href="#ArialMT-2212"/>
       <use xlink:href="#ArialMT-32" x="58.398438"/>
       <use xlink:href="#ArialMT-30" x="114.013672"/>
      </g>
     </g>
    </g>
    <g id="ytick_2">
     <g id="line2d_7">
      <path d="M 45 204.106651 
L 324 204.106651 
" clip-path="url(#pb529f29484)" style="fill: none; stroke: #ffffff; stroke-width: 0.8; stroke-linecap: round"/>
     </g>
     <g id="text_7">
      <!-- −15 -->
      <g style="fill: #262626" transform="translate(14.2525 209.117119)scale(0.14 -0.14)">
       <defs>
        <path id="ArialMT-31" d="M 2384 0 
L 1822 0 
L 1822 3584 
Q 1619 3391 1289 3197 
Q 959 3003 697 2906 
L 697 3450 
Q 1169 3672 1522 3987 
Q 1875 4303 2022 4600 
L 2384 4600 
L 2384 0 
z
" transform="scale(0.015625)"/>
        <path id="ArialMT-35" d="M 266 1200 
L 856 1250 
Q 922 819 1161 601 
Q 1400 384 1738 384 
Q 2144 384 2425 690 
Q 2706 997 2706 1503 
Q 2706 1984 2436 2262 
Q 2166 2541 1728 2541 
Q 1456 2541 1237 2417 
Q 1019 2294 894 2097 
L 366 2166 
L 809 4519 
L 3088 4519 
L 3088 3981 
L 1259 3981 
L 1013 2750 
Q 1425 3038 1878 3038 
Q 2478 3038 2890 2622 
Q 3303 2206 3303 1553 
Q 3303 931 2941 478 
Q 2500 -78 1738 -78 
Q 1113 -78 717 272 
Q 322 622 266 1200 
z
" transform="scale(0.015625)"/>
       </defs>
       <use xlink:href="#ArialMT-2212"/>
       <use xlink:href="#ArialMT-31" x="58.398438"/>
       <use xlink:href="#ArialMT-35" x="114.013672"/>
      </g>
     </g>
    </g>
    <g id="ytick_3">
     <g id="line2d_8">
      <path d="M 45 164.239988 
L 324 164.239988 
" clip-path="url(#pb529f29484)" style="fill: none; stroke: #ffffff; stroke-width: 0.8; stroke-linecap: round"/>
     </g>
     <g id="text_8">
      <!-- −10 -->
      <g style="fill: #262626" transform="translate(14.2525 169.250457)scale(0.14 -0.14)">
       <use xlink:href="#ArialMT-2212"/>
       <use xlink:href="#ArialMT-31" x="58.398438"/>
       <use xlink:href="#ArialMT-30" x="114.013672"/>
      </g>
     </g>
    </g>
    <g id="ytick_4">
     <g id="line2d_9">
      <path d="M 45 124.373325 
L 324 124.373325 
" clip-path="url(#pb529f29484)" style="fill: none; stroke: #ffffff; stroke-width: 0.8; stroke-linecap: round"/>
     </g>
     <g id="text_9">
      <!-- −5 -->
      <g style="fill: #262626" transform="translate(22.037813 129.383794)scale(0.14 -0.14)">
       <use xlink:href="#ArialMT-2212"/>
       <use xlink:href="#ArialMT-35" x="58.398438"/>
      </g>
     </g>
    </g>
    <g id="ytick_5">
     <g id="line2d_10">
      <path d="M 45 84.506663 
L 324 84.506663 
" clip-path="url(#pb529f29484)" style="fill: none; stroke: #ffffff; stroke-width: 0.8; stroke-linecap: round"/>
     </g>
     <g id="text_10">
      <!-- 0 -->
      <g style="fill: #262626" transform="translate(30.214688 89.517131)scale(0.14 -0.14)">
       <use xlink:href="#ArialMT-30"/>
      </g>
     </g>
    </g>
    <g id="ytick_6">
     <g id="line2d_11">
      <path d="M 45 44.64 
L 324 44.64 
" clip-path="url(#pb529f29484)" style="fill: none; stroke: #ffffff; stroke-width: 0.8; stroke-linecap: round"/>
     </g>
     <g id="text_11">
      <!-- 5 -->
      <g style="fill: #262626" transform="translate(30.214688 49.650469)scale(0.14 -0.14)">
       <use xlink:href="#ArialMT-35"/>
      </g>
     </g>
    </g>
   </g>
   <g id="PathCollection_1">
    <defs>
     <path id="mc0685d82e5" d="M 0 1.322876 
C 0.350831 1.322876 0.68734 1.183489 0.935414 0.935414 
C 1.183489 0.68734 1.322876 0.350831 1.322876 0 
C 1.322876 -0.350831 1.183489 -0.68734 0.935414 -0.935414 
C 0.68734 -1.183489 0.350831 -1.322876 0 -1.322876 
C -0.350831 -1.322876 -0.68734 -1.183489 -0.935414 -0.935414 
C -1.183489 -0.68734 -1.322876 -0.350831 -1.322876 0 
C -1.322876 0.350831 -1.183489 0.68734 -0.935414 0.935414 
C -0.68734 1.183489 -0.350831 1.322876 0 1.322876 
z
" style="stroke: #0000ff; stroke-opacity: 0.5"/>
    </defs>
    <g clip-path="url(#pb529f29484)">
     <use xlink:href="#mc0685d82e5" x="114.75" y="188.159986" style="fill: #0000ff; fill-opacity: 0.5; stroke: #0000ff; stroke-opacity: 0.5"/>
     <use xlink:href="#mc0685d82e5" x="125.2125" y="100.453328" style="fill: #0000ff; fill-opacity: 0.5; stroke: #0000ff; stroke-opacity: 0.5"/>
     <use xlink:href="#mc0685d82e5" x="93.825" y="196.133318" style="fill: #0000ff; fill-opacity: 0.5; stroke: #0000ff; stroke-opacity: 0.5"/>
     <use xlink:href="#mc0685d82e5" x="149.625" y="132.346658" style="fill: #0000ff; fill-opacity: 0.5; stroke: #0000ff; stroke-opacity: 0.5"/>
     <use xlink:href="#mc0685d82e5" x="149.625" y="140.31999" style="fill: #0000ff; fill-opacity: 0.5; stroke: #0000ff; stroke-opacity: 0.5"/>
     <use xlink:href="#mc0685d82e5" x="278.6625" y="164.239988" style="fill: #0000ff; fill-opacity: 0.5; stroke: #0000ff; stroke-opacity: 0.5"/>
     <use xlink:href="#mc0685d82e5" x="132.1875" y="116.399993" style="fill: #0000ff; fill-opacity: 0.5; stroke: #0000ff; stroke-opacity: 0.5"/>
     <use xlink:href="#mc0685d82e5" x="163.575" y="140.31999" style="fill: #0000ff; fill-opacity: 0.5; stroke: #0000ff; stroke-opacity: 0.5"/>
     <use xlink:href="#mc0685d82e5" x="100.8" y="60.586665" style="fill: #0000ff; fill-opacity: 0.5; stroke: #0000ff; stroke-opacity: 0.5"/>
     <use xlink:href="#mc0685d82e5" x="104.2875" y="188.159986" style="fill: #0000ff; fill-opacity: 0.5; stroke: #0000ff; stroke-opacity: 0.5"/>
     <use xlink:href="#mc0685d82e5" x="125.2125" y="172.21332" style="fill: #0000ff; fill-opacity: 0.5; stroke: #0000ff; stroke-opacity: 0.5"/>
     <use xlink:href="#mc0685d82e5" x="83.3625" y="92.479995" style="fill: #0000ff; fill-opacity: 0.5; stroke: #0000ff; stroke-opacity: 0.5"/>
     <use xlink:href="#mc0685d82e5" x="76.3875" y="188.159986" style="fill: #0000ff; fill-opacity: 0.5; stroke: #0000ff; stroke-opacity: 0.5"/>
     <use xlink:href="#mc0685d82e5" x="55.4625" y="76.53333" style="fill: #0000ff; fill-opacity: 0.5; stroke: #0000ff; stroke-opacity: 0.5"/>
     <use xlink:href="#mc0685d82e5" x="132.1875" y="100.453328" style="fill: #0000ff; fill-opacity: 0.5; stroke: #0000ff; stroke-opacity: 0.5"/>
     <use xlink:href="#mc0685d82e5" x="212.4" y="196.133318" style="fill: #0000ff; fill-opacity: 0.5; stroke: #0000ff; stroke-opacity: 0.5"/>
     <use xlink:href="#mc0685d82e5" x="163.575" y="116.399993" style="fill: #0000ff; fill-opacity: 0.5; stroke: #0000ff; stroke-opacity: 0.5"/>
     <use xlink:href="#mc0685d82e5" x="111.2625" y="68.559998" style="fill: #0000ff; fill-opacity: 0.5; stroke: #0000ff; stroke-opacity: 0.5"/>
     <use xlink:href="#mc0685d82e5" x="118.2375" y="140.31999" style="fill: #0000ff; fill-opacity: 0.5; stroke: #0000ff; stroke-opacity: 0.5"/>
     <use xlink:href="#mc0685d82e5" x="121.725" y="132.346658" style="fill: #0000ff; fill-opacity: 0.5; stroke: #0000ff; stroke-opacity: 0.5"/>
     <use xlink:href="#mc0685d82e5" x="135.675" y="116.399993" style="fill: #0000ff; fill-opacity: 0.5; stroke: #0000ff; stroke-opacity: 0.5"/>
     <use xlink:href="#mc0685d82e5" x="104.2875" y="100.453328" style="fill: #0000ff; fill-opacity: 0.5; stroke: #0000ff; stroke-opacity: 0.5"/>
     <use xlink:href="#mc0685d82e5" x="174.0375" y="84.506663" style="fill: #0000ff; fill-opacity: 0.5; stroke: #0000ff; stroke-opacity: 0.5"/>
     <use xlink:href="#mc0685d82e5" x="191.475" y="140.31999" style="fill: #0000ff; fill-opacity: 0.5; stroke: #0000ff; stroke-opacity: 0.5"/>
     <use xlink:href="#mc0685d82e5" x="177.525" y="180.186653" style="fill: #0000ff; fill-opacity: 0.5; stroke: #0000ff; stroke-opacity: 0.5"/>
     <use xlink:href="#mc0685d82e5" x="177.525" y="164.239988" style="fill: #0000ff; fill-opacity: 0.5; stroke: #0000ff; stroke-opacity: 0.5"/>
     <use xlink:href="#mc0685d82e5" x="93.825" y="100.453328" style="fill: #0000ff; fill-opacity: 0.5; stroke: #0000ff; stroke-opacity: 0.5"/>
     <use xlink:href="#mc0685d82e5" x="118.2375" y="100.453328" style="fill: #0000ff; fill-opacity: 0.5; stroke: #0000ff; stroke-opacity: 0.5"/>
     <use xlink:href="#mc0685d82e5" x="76.3875" y="228.026648" style="fill: #0000ff; fill-opacity: 0.5; stroke: #0000ff; stroke-opacity: 0.5"/>
    </g>
   </g>
   <g id="PolyCollection_1">
    <defs>
     <path id="m3c952342ec" d="M 45 -221.600107 
L 45 -123.51712 
L 47.818182 -123.908995 
L 50.636364 -124.301953 
L 53.454545 -124.712489 
L 56.272727 -125.632584 
L 59.090909 -126.742367 
L 61.909091 -127.541805 
L 64.727273 -127.681663 
L 67.545455 -128.223408 
L 70.363636 -128.878417 
L 73.181818 -129.316843 
L 76 -129.616448 
L 78.818182 -129.923013 
L 81.636364 -130.531225 
L 84.454545 -131.125307 
L 87.272727 -131.15289 
L 90.090909 -131.180473 
L 92.909091 -131.663952 
L 95.727273 -132.147604 
L 98.545455 -132.495077 
L 101.363636 -132.827407 
L 104.181818 -132.639887 
L 107 -132.921656 
L 109.818182 -133.255566 
L 112.636364 -133.875832 
L 115.454545 -134.074955 
L 118.272727 -134.576281 
L 121.090909 -135.179148 
L 123.909091 -135.130609 
L 126.727273 -135.529972 
L 129.545455 -135.599307 
L 132.363636 -135.931921 
L 135.181818 -136.180616 
L 138 -136.271881 
L 140.818182 -136.529979 
L 143.636364 -136.620383 
L 146.454545 -136.575439 
L 149.272727 -135.873238 
L 152.090909 -135.869624 
L 154.909091 -135.758728 
L 157.727273 -135.714893 
L 160.545455 -135.376767 
L 163.363636 -134.678154 
L 166.181818 -133.85592 
L 169 -133.158551 
L 171.818182 -132.311326 
L 174.636364 -131.609605 
L 177.454545 -130.149111 
L 180.272727 -129.088871 
L 183.090909 -127.875684 
L 185.909091 -126.199938 
L 188.727273 -124.854803 
L 191.545455 -123.444055 
L 194.363636 -121.866313 
L 197.181818 -120.052 
L 200 -118.391432 
L 202.818182 -116.648626 
L 205.636364 -114.908886 
L 208.454545 -113.246848 
L 211.272727 -111.509269 
L 214.090909 -109.750474 
L 216.909091 -108.22696 
L 219.727273 -106.500859 
L 222.545455 -104.591383 
L 225.363636 -102.795521 
L 228.181818 -100.977015 
L 231 -99.343045 
L 233.818182 -97.801859 
L 236.636364 -96.152062 
L 239.454545 -94.343237 
L 242.272727 -92.663366 
L 245.090909 -91.035904 
L 247.909091 -89.408442 
L 250.727273 -87.78098 
L 253.545455 -86.154292 
L 256.363636 -84.356125 
L 259.181818 -82.534972 
L 262 -80.713819 
L 264.818182 -78.895302 
L 267.636364 -77.077225 
L 270.454545 -75.259148 
L 273.272727 -73.588968 
L 276.090909 -71.965558 
L 278.909091 -70.342149 
L 281.727273 -68.374003 
L 284.545455 -66.389562 
L 287.363636 -64.4116 
L 290.181818 -62.666092 
L 293 -60.922726 
L 295.818182 -59.179359 
L 298.636364 -57.435993 
L 301.454545 -55.692626 
L 304.272727 -53.94926 
L 307.090909 -52.205893 
L 309.909091 -50.462527 
L 312.727273 -48.71916 
L 315.545455 -46.975794 
L 318.363636 -45.23689 
L 321.181818 -43.498445 
L 324 -41.76 
L 324 -199.640837 
L 324 -199.640837 
L 321.181818 -198.943954 
L 318.363636 -198.24707 
L 315.545455 -197.550187 
L 312.727273 -196.741234 
L 309.909091 -195.65831 
L 307.090909 -194.575386 
L 304.272727 -193.526141 
L 301.454545 -192.839954 
L 298.636364 -192.153766 
L 295.818182 -191.467579 
L 293 -190.781392 
L 290.181818 -190.513005 
L 287.363636 -190.42248 
L 284.545455 -189.997805 
L 281.727273 -189.326368 
L 278.909091 -188.651806 
L 276.090909 -187.959763 
L 273.272727 -187.26772 
L 270.454545 -186.575677 
L 267.636364 -185.883634 
L 264.818182 -185.568567 
L 262 -184.673123 
L 259.181818 -183.76995 
L 256.363636 -182.875792 
L 253.545455 -181.981634 
L 250.727273 -181.087476 
L 247.909091 -180.193318 
L 245.090909 -179.29916 
L 242.272727 -178.43002 
L 239.454545 -177.743833 
L 236.636364 -177.057645 
L 233.818182 -176.371458 
L 231 -175.685271 
L 228.181818 -174.999083 
L 225.363636 -174.312896 
L 222.545455 -173.62 
L 219.727273 -172.918793 
L 216.909091 -172.042311 
L 214.090909 -170.769826 
L 211.272727 -169.890713 
L 208.454545 -169.528353 
L 205.636364 -169.479164 
L 202.818182 -168.796609 
L 200 -168.122741 
L 197.181818 -167.448873 
L 194.363636 -166.922497 
L 191.545455 -167.306976 
L 188.727273 -166.68395 
L 185.909091 -166.534215 
L 183.090909 -165.940588 
L 180.272727 -165.833037 
L 177.454545 -165.255629 
L 174.636364 -164.757701 
L 171.818182 -164.02149 
L 169 -164.455662 
L 166.181818 -164.76629 
L 163.363636 -165.254495 
L 160.545455 -165.53204 
L 157.727273 -165.89982 
L 154.909091 -166.197746 
L 152.090909 -167.051123 
L 149.272727 -167.852694 
L 146.454545 -168.743068 
L 143.636364 -169.905167 
L 140.818182 -170.650405 
L 138 -171.627104 
L 135.181818 -172.621554 
L 132.363636 -173.77275 
L 129.545455 -174.906997 
L 126.727273 -175.975678 
L 123.909091 -177.220378 
L 121.090909 -178.531763 
L 118.272727 -180.049366 
L 115.454545 -181.225404 
L 112.636364 -182.536914 
L 109.818182 -183.736091 
L 107 -185.101323 
L 104.181818 -186.637078 
L 101.363636 -187.941913 
L 98.545455 -189.425285 
L 95.727273 -190.940938 
L 92.909091 -192.618722 
L 90.090909 -194.321068 
L 87.272727 -195.924528 
L 84.454545 -197.648394 
L 81.636364 -199.310198 
L 78.818182 -200.991132 
L 76 -202.79844 
L 73.181818 -204.606686 
L 70.363636 -206.410366 
L 67.545455 -208.199619 
L 64.727273 -209.77891 
L 61.909091 -211.562728 
L 59.090909 -213.321507 
L 56.272727 -215.028099 
L 53.454545 -216.582868 
L 50.636364 -218.135537 
L 47.818182 -219.794247 
L 45 -221.600107 
z
" style="stroke: #ffffff; stroke-opacity: 0.15"/>
    </defs>
    <g clip-path="url(#pb529f29484)">
     <use xlink:href="#m3c952342ec" x="0" y="288" style="fill: #0000ff; fill-opacity: 0.15; stroke: #ffffff; stroke-opacity: 0.15"/>
    </g>
   </g>
   <g id="PathCollection_2">
    <defs>
     <path id="mf6b244ff34" d="M 0 1.322876 
C 0.350831 1.322876 0.68734 1.183489 0.935414 0.935414 
C 1.183489 0.68734 1.322876 0.350831 1.322876 0 
C 1.322876 -0.350831 1.183489 -0.68734 0.935414 -0.935414 
C 0.68734 -1.183489 0.350831 -1.322876 0 -1.322876 
C -0.350831 -1.322876 -0.68734 -1.183489 -0.935414 -0.935414 
C -1.183489 -0.68734 -1.322876 -0.350831 -1.322876 0 
C -1.322876 0.350831 -1.183489 0.68734 -0.935414 0.935414 
C -0.68734 1.183489 -0.350831 1.322876 0 1.322876 
z
" style="stroke: #ff0000; stroke-opacity: 0.5"/>
    </defs>
    <g clip-path="url(#pb529f29484)">
     <use xlink:href="#mf6b244ff34" x="111.2625" y="68.559998" style="fill: #ff0000; fill-opacity: 0.5; stroke: #ff0000; stroke-opacity: 0.5"/>
     <use xlink:href="#mf6b244ff34" x="139.1625" y="44.64" style="fill: #ff0000; fill-opacity: 0.5; stroke: #ff0000; stroke-opacity: 0.5"/>
     <use xlink:href="#mf6b244ff34" x="90.3375" y="180.186653" style="fill: #ff0000; fill-opacity: 0.5; stroke: #ff0000; stroke-opacity: 0.5"/>
     <use xlink:href="#mf6b244ff34" x="62.4375" y="60.586665" style="fill: #ff0000; fill-opacity: 0.5; stroke: #ff0000; stroke-opacity: 0.5"/>
     <use xlink:href="#mf6b244ff34" x="184.5" y="156.266655" style="fill: #ff0000; fill-opacity: 0.5; stroke: #ff0000; stroke-opacity: 0.5"/>
     <use xlink:href="#mf6b244ff34" x="139.1625" y="204.106651" style="fill: #ff0000; fill-opacity: 0.5; stroke: #ff0000; stroke-opacity: 0.5"/>
     <use xlink:href="#mf6b244ff34" x="111.2625" y="148.293323" style="fill: #ff0000; fill-opacity: 0.5; stroke: #ff0000; stroke-opacity: 0.5"/>
     <use xlink:href="#mf6b244ff34" x="170.55" y="220.053316" style="fill: #ff0000; fill-opacity: 0.5; stroke: #ff0000; stroke-opacity: 0.5"/>
     <use xlink:href="#mf6b244ff34" x="233.325" y="172.21332" style="fill: #ff0000; fill-opacity: 0.5; stroke: #ff0000; stroke-opacity: 0.5"/>
     <use xlink:href="#mf6b244ff34" x="160.0875" y="132.346658" style="fill: #ff0000; fill-opacity: 0.5; stroke: #ff0000; stroke-opacity: 0.5"/>
     <use xlink:href="#mf6b244ff34" x="201.9375" y="196.133318" style="fill: #ff0000; fill-opacity: 0.5; stroke: #ff0000; stroke-opacity: 0.5"/>
     <use xlink:href="#mf6b244ff34" x="135.675" y="92.479995" style="fill: #ff0000; fill-opacity: 0.5; stroke: #ff0000; stroke-opacity: 0.5"/>
     <use xlink:href="#mf6b244ff34" x="100.8" y="108.42666" style="fill: #ff0000; fill-opacity: 0.5; stroke: #ff0000; stroke-opacity: 0.5"/>
     <use xlink:href="#mf6b244ff34" x="135.675" y="132.346658" style="fill: #ff0000; fill-opacity: 0.5; stroke: #ff0000; stroke-opacity: 0.5"/>
     <use xlink:href="#mf6b244ff34" x="317.025" y="164.239988" style="fill: #ff0000; fill-opacity: 0.5; stroke: #ff0000; stroke-opacity: 0.5"/>
     <use xlink:href="#mf6b244ff34" x="135.675" y="148.293323" style="fill: #ff0000; fill-opacity: 0.5; stroke: #ff0000; stroke-opacity: 0.5"/>
     <use xlink:href="#mf6b244ff34" x="184.5" y="172.21332" style="fill: #ff0000; fill-opacity: 0.5; stroke: #ff0000; stroke-opacity: 0.5"/>
     <use xlink:href="#mf6b244ff34" x="128.7" y="156.266655" style="fill: #ff0000; fill-opacity: 0.5; stroke: #ff0000; stroke-opacity: 0.5"/>
     <use xlink:href="#mf6b244ff34" x="205.425" y="204.106651" style="fill: #ff0000; fill-opacity: 0.5; stroke: #ff0000; stroke-opacity: 0.5"/>
     <use xlink:href="#mf6b244ff34" x="229.8375" y="188.159986" style="fill: #ff0000; fill-opacity: 0.5; stroke: #ff0000; stroke-opacity: 0.5"/>
     <use xlink:href="#mf6b244ff34" x="132.1875" y="188.159986" style="fill: #ff0000; fill-opacity: 0.5; stroke: #ff0000; stroke-opacity: 0.5"/>
     <use xlink:href="#mf6b244ff34" x="65.925" y="164.239988" style="fill: #ff0000; fill-opacity: 0.5; stroke: #ff0000; stroke-opacity: 0.5"/>
     <use xlink:href="#mf6b244ff34" x="236.8125" y="124.373325" style="fill: #ff0000; fill-opacity: 0.5; stroke: #ff0000; stroke-opacity: 0.5"/>
     <use xlink:href="#mf6b244ff34" x="187.9875" y="132.346658" style="fill: #ff0000; fill-opacity: 0.5; stroke: #ff0000; stroke-opacity: 0.5"/>
     <use xlink:href="#mf6b244ff34" x="118.2375" y="188.159986" style="fill: #ff0000; fill-opacity: 0.5; stroke: #ff0000; stroke-opacity: 0.5"/>
     <use xlink:href="#mf6b244ff34" x="160.0875" y="52.613333" style="fill: #ff0000; fill-opacity: 0.5; stroke: #ff0000; stroke-opacity: 0.5"/>
     <use xlink:href="#mf6b244ff34" x="76.3875" y="92.479995" style="fill: #ff0000; fill-opacity: 0.5; stroke: #ff0000; stroke-opacity: 0.5"/>
     <use xlink:href="#mf6b244ff34" x="79.875" y="180.186653" style="fill: #ff0000; fill-opacity: 0.5; stroke: #ff0000; stroke-opacity: 0.5"/>
     <use xlink:href="#mf6b244ff34" x="107.775" y="100.453328" style="fill: #ff0000; fill-opacity: 0.5; stroke: #ff0000; stroke-opacity: 0.5"/>
     <use xlink:href="#mf6b244ff34" x="111.2625" y="196.133318" style="fill: #ff0000; fill-opacity: 0.5; stroke: #ff0000; stroke-opacity: 0.5"/>
    </g>
   </g>
   <g id="PolyCollection_2">
    <defs>
     <path id="m1103fef985" d="M 45 -203.936168 
L 45 -126.123695 
L 47.818182 -125.693365 
L 50.636364 -125.347218 
L 53.454545 -125.448468 
L 56.272727 -125.643656 
L 59.090909 -125.636161 
L 61.909091 -125.778225 
L 64.727273 -125.895378 
L 67.545455 -125.860426 
L 70.363636 -125.812498 
L 73.181818 -125.797311 
L 76 -125.762894 
L 78.818182 -125.728478 
L 81.636364 -125.498067 
L 84.454545 -125.419871 
L 87.272727 -125.398161 
L 90.090909 -125.444624 
L 92.909091 -125.496217 
L 95.727273 -125.499345 
L 98.545455 -125.435586 
L 101.363636 -125.341389 
L 104.181818 -125.207311 
L 107 -125.071866 
L 109.818182 -124.942659 
L 112.636364 -124.807181 
L 115.454545 -124.676034 
L 118.272727 -124.544887 
L 121.090909 -124.683084 
L 123.909091 -124.693845 
L 126.727273 -124.643608 
L 129.545455 -124.436604 
L 132.363636 -124.080167 
L 135.181818 -123.751557 
L 138 -123.610331 
L 140.818182 -123.235977 
L 143.636364 -122.82543 
L 146.454545 -122.313222 
L 149.272727 -121.836162 
L 152.090909 -121.31435 
L 154.909091 -120.417385 
L 157.727273 -120.275819 
L 160.545455 -120.039202 
L 163.363636 -119.751267 
L 166.181818 -119.25365 
L 169 -118.883064 
L 171.818182 -118.051765 
L 174.636364 -117.086305 
L 177.454545 -116.334089 
L 180.272727 -115.269468 
L 183.090909 -114.468341 
L 185.909091 -113.253926 
L 188.727273 -112.049132 
L 191.545455 -110.751138 
L 194.363636 -109.589588 
L 197.181818 -108.14362 
L 200 -106.773409 
L 202.818182 -105.538934 
L 205.636364 -104.442913 
L 208.454545 -103.541043 
L 211.272727 -102.283588 
L 214.090909 -101.083843 
L 216.909091 -99.775255 
L 219.727273 -98.468585 
L 222.545455 -97.161914 
L 225.363636 -95.76111 
L 228.181818 -94.329008 
L 231 -93.241902 
L 233.818182 -91.906791 
L 236.636364 -90.400761 
L 239.454545 -88.875871 
L 242.272727 -87.289536 
L 245.090909 -85.979609 
L 247.909091 -84.398153 
L 250.727273 -82.801633 
L 253.545455 -81.463326 
L 256.363636 -80.1307 
L 259.181818 -78.800613 
L 262 -77.354137 
L 264.818182 -76.016305 
L 267.636364 -74.589365 
L 270.454545 -73.337355 
L 273.272727 -72.112221 
L 276.090909 -70.820088 
L 278.909091 -69.350644 
L 281.727273 -67.766763 
L 284.545455 -66.317819 
L 287.363636 -64.978726 
L 290.181818 -63.214062 
L 293 -61.406614 
L 295.818182 -59.91233 
L 298.636364 -58.534871 
L 301.454545 -57.258834 
L 304.272727 -55.994581 
L 307.090909 -54.399984 
L 309.909091 -52.907646 
L 312.727273 -51.336745 
L 315.545455 -49.765844 
L 318.363636 -48.200462 
L 321.181818 -46.655272 
L 324 -45.449857 
L 324 -139.095372 
L 324 -139.095372 
L 321.181818 -139.241574 
L 318.363636 -139.10294 
L 315.545455 -138.956514 
L 312.727273 -138.810089 
L 309.909091 -138.663664 
L 307.090909 -138.675371 
L 304.272727 -138.768064 
L 301.454545 -138.833316 
L 298.636364 -138.915652 
L 295.818182 -138.997987 
L 293 -139.080323 
L 290.181818 -139.160406 
L 287.363636 -139.211199 
L 284.545455 -139.01794 
L 281.727273 -138.82468 
L 278.909091 -138.969411 
L 276.090909 -139.335588 
L 273.272727 -139.640491 
L 270.454545 -140.078965 
L 267.636364 -140.065014 
L 264.818182 -139.958619 
L 262 -139.989639 
L 259.181818 -140.202685 
L 256.363636 -140.669239 
L 253.545455 -140.643127 
L 250.727273 -140.919525 
L 247.909091 -141.338537 
L 245.090909 -141.756902 
L 242.272727 -141.939316 
L 239.454545 -142.336602 
L 236.636364 -142.733888 
L 233.818182 -143.128145 
L 231 -143.466719 
L 228.181818 -143.598402 
L 225.363636 -143.704444 
L 222.545455 -143.832126 
L 219.727273 -143.951864 
L 216.909091 -144.456635 
L 214.090909 -145.026552 
L 211.272727 -145.77772 
L 208.454545 -146.077257 
L 205.636364 -146.309927 
L 202.818182 -146.921894 
L 200 -147.765529 
L 197.181818 -147.860258 
L 194.363636 -148.3741 
L 191.545455 -149.054359 
L 188.727273 -149.401784 
L 185.909091 -149.919712 
L 183.090909 -150.438237 
L 180.272727 -150.839854 
L 177.454545 -151.070811 
L 174.636364 -151.753364 
L 171.818182 -152.505849 
L 169 -153.22272 
L 166.181818 -153.987676 
L 163.363636 -154.883995 
L 160.545455 -155.761788 
L 157.727273 -156.64342 
L 154.909091 -157.51585 
L 152.090909 -158.206623 
L 149.272727 -158.882362 
L 146.454545 -159.86765 
L 143.636364 -160.414924 
L 140.818182 -161.260384 
L 138 -162.157261 
L 135.181818 -162.792754 
L 132.363636 -164.036427 
L 129.545455 -164.972753 
L 126.727273 -166.046988 
L 123.909091 -166.951317 
L 121.090909 -168.118338 
L 118.272727 -169.767561 
L 115.454545 -170.98775 
L 112.636364 -172.058099 
L 109.818182 -173.132686 
L 107 -174.20255 
L 104.181818 -175.255468 
L 101.363636 -176.772971 
L 98.545455 -178.222482 
L 95.727273 -179.349951 
L 92.909091 -180.442156 
L 90.090909 -181.636889 
L 87.272727 -183.095349 
L 84.454545 -184.553808 
L 81.636364 -186.022826 
L 78.818182 -187.315981 
L 76 -188.24778 
L 73.181818 -189.47232 
L 70.363636 -190.873395 
L 67.545455 -192.35418 
L 64.727273 -193.803916 
L 61.909091 -195.253628 
L 59.090909 -196.703339 
L 56.272727 -198.153051 
L 53.454545 -199.59897 
L 50.636364 -200.932614 
L 47.818182 -202.370363 
L 45 -203.936168 
z
" style="stroke: #ffffff; stroke-opacity: 0.15"/>
    </defs>
    <g clip-path="url(#pb529f29484)">
     <use xlink:href="#m1103fef985" x="0" y="288" style="fill: #ff0000; fill-opacity: 0.15; stroke: #ffffff; stroke-opacity: 0.15"/>
    </g>
   </g>
   <g id="line2d_12">
    <path d="M 45 111.76673 
L 47.818182 112.436864 
L 50.636364 113.106998 
L 53.454545 113.777132 
L 56.272727 114.447266 
L 59.090909 115.1174 
L 61.909091 115.787534 
L 64.727273 116.457669 
L 67.545455 117.127803 
L 70.363636 117.797937 
L 73.181818 118.468071 
L 76 119.138205 
L 78.818182 119.808339 
L 81.636364 120.478473 
L 84.454545 121.148607 
L 87.272727 121.818741 
L 90.090909 122.488875 
L 92.909091 123.159009 
L 95.727273 123.829143 
L 98.545455 124.499277 
L 101.363636 125.169411 
L 104.181818 125.839545 
L 107 126.509679 
L 109.818182 127.179813 
L 112.636364 127.849947 
L 115.454545 128.520081 
L 118.272727 129.190215 
L 121.090909 129.860349 
L 123.909091 130.530483 
L 126.727273 131.200617 
L 129.545455 131.870752 
L 132.363636 132.540886 
L 135.181818 133.21102 
L 138 133.881154 
L 140.818182 134.551288 
L 143.636364 135.221422 
L 146.454545 135.891556 
L 149.272727 136.56169 
L 152.090909 137.231824 
L 154.909091 137.901958 
L 157.727273 138.572092 
L 160.545455 139.242226 
L 163.363636 139.91236 
L 166.181818 140.582494 
L 169 141.252628 
L 171.818182 141.922762 
L 174.636364 142.592896 
L 177.454545 143.26303 
L 180.272727 143.933164 
L 183.090909 144.603298 
L 185.909091 145.273432 
L 188.727273 145.943566 
L 191.545455 146.6137 
L 194.363636 147.283835 
L 197.181818 147.953969 
L 200 148.624103 
L 202.818182 149.294237 
L 205.636364 149.964371 
L 208.454545 150.634505 
L 211.272727 151.304639 
L 214.090909 151.974773 
L 216.909091 152.644907 
L 219.727273 153.315041 
L 222.545455 153.985175 
L 225.363636 154.655309 
L 228.181818 155.325443 
L 231 155.995577 
L 233.818182 156.665711 
L 236.636364 157.335845 
L 239.454545 158.005979 
L 242.272727 158.676113 
L 245.090909 159.346247 
L 247.909091 160.016381 
L 250.727273 160.686515 
L 253.545455 161.356649 
L 256.363636 162.026783 
L 259.181818 162.696918 
L 262 163.367052 
L 264.818182 164.037186 
L 267.636364 164.70732 
L 270.454545 165.377454 
L 273.272727 166.047588 
L 276.090909 166.717722 
L 278.909091 167.387856 
L 281.727273 168.05799 
L 284.545455 168.728124 
L 287.363636 169.398258 
L 290.181818 170.068392 
L 293 170.738526 
L 295.818182 171.40866 
L 298.636364 172.078794 
L 301.454545 172.748928 
L 304.272727 173.419062 
L 307.090909 174.089196 
L 309.909091 174.75933 
L 312.727273 175.429464 
L 315.545455 176.099598 
L 318.363636 176.769732 
L 321.181818 177.439866 
L 324 178.110001 
" clip-path="url(#pb529f29484)" style="fill: none; stroke: #0000ff; stroke-width: 2.25; stroke-linecap: round"/>
   </g>
   <g id="line2d_13">
    <path d="M 45 123.143768 
L 47.818182 123.799669 
L 50.636364 124.455571 
L 53.454545 125.111472 
L 56.272727 125.767373 
L 59.090909 126.423274 
L 61.909091 127.079176 
L 64.727273 127.735077 
L 67.545455 128.390978 
L 70.363636 129.046879 
L 73.181818 129.702781 
L 76 130.358682 
L 78.818182 131.014583 
L 81.636364 131.670484 
L 84.454545 132.326386 
L 87.272727 132.982287 
L 90.090909 133.638188 
L 92.909091 134.29409 
L 95.727273 134.949991 
L 98.545455 135.605892 
L 101.363636 136.261793 
L 104.181818 136.917695 
L 107 137.573596 
L 109.818182 138.229497 
L 112.636364 138.885398 
L 115.454545 139.5413 
L 118.272727 140.197201 
L 121.090909 140.853102 
L 123.909091 141.509003 
L 126.727273 142.164905 
L 129.545455 142.820806 
L 132.363636 143.476707 
L 135.181818 144.132609 
L 138 144.78851 
L 140.818182 145.444411 
L 143.636364 146.100312 
L 146.454545 146.756214 
L 149.272727 147.412115 
L 152.090909 148.068016 
L 154.909091 148.723917 
L 157.727273 149.379819 
L 160.545455 150.03572 
L 163.363636 150.691621 
L 166.181818 151.347522 
L 169 152.003424 
L 171.818182 152.659325 
L 174.636364 153.315226 
L 177.454545 153.971127 
L 180.272727 154.627029 
L 183.090909 155.28293 
L 185.909091 155.938831 
L 188.727273 156.594733 
L 191.545455 157.250634 
L 194.363636 157.906535 
L 197.181818 158.562436 
L 200 159.218338 
L 202.818182 159.874239 
L 205.636364 160.53014 
L 208.454545 161.186041 
L 211.272727 161.841943 
L 214.090909 162.497844 
L 216.909091 163.153745 
L 219.727273 163.809646 
L 222.545455 164.465548 
L 225.363636 165.121449 
L 228.181818 165.77735 
L 231 166.433252 
L 233.818182 167.089153 
L 236.636364 167.745054 
L 239.454545 168.400955 
L 242.272727 169.056857 
L 245.090909 169.712758 
L 247.909091 170.368659 
L 250.727273 171.02456 
L 253.545455 171.680462 
L 256.363636 172.336363 
L 259.181818 172.992264 
L 262 173.648165 
L 264.818182 174.304067 
L 267.636364 174.959968 
L 270.454545 175.615869 
L 273.272727 176.271771 
L 276.090909 176.927672 
L 278.909091 177.583573 
L 281.727273 178.239474 
L 284.545455 178.895376 
L 287.363636 179.551277 
L 290.181818 180.207178 
L 293 180.863079 
L 295.818182 181.518981 
L 298.636364 182.174882 
L 301.454545 182.830783 
L 304.272727 183.486684 
L 307.090909 184.142586 
L 309.909091 184.798487 
L 312.727273 185.454388 
L 315.545455 186.110289 
L 318.363636 186.766191 
L 321.181818 187.422092 
L 324 188.077993 
" clip-path="url(#pb529f29484)" style="fill: none; stroke: #ff0000; stroke-width: 2.25; stroke-linecap: round"/>
   </g>
   <g id="patch_3">
    <path d="M 45 256.32 
L 45 34.56 
" style="fill: none; stroke: #ffffff; stroke-width: 0.8; stroke-linejoin: miter; stroke-linecap: square"/>
   </g>
   <g id="patch_4">
    <path d="M 324 256.32 
L 324 34.56 
" style="fill: none; stroke: #ffffff; stroke-width: 0.8; stroke-linejoin: miter; stroke-linecap: square"/>
   </g>
   <g id="patch_5">
    <path d="M 45 256.32 
L 324 256.32 
" style="fill: none; stroke: #ffffff; stroke-width: 0.8; stroke-linejoin: miter; stroke-linecap: square"/>
   </g>
   <g id="patch_6">
    <path d="M 45 34.56 
L 324 34.56 
" style="fill: none; stroke: #ffffff; stroke-width: 0.8; stroke-linejoin: miter; stroke-linecap: square"/>
   </g>
   <g id="text_12">
    <!-- QIDS -->
    <g style="fill: #262626" transform="translate(162.496406 28.56)scale(0.18 -0.18)">
     <defs>
      <path id="Arial-BoldMT-51" d="M 4153 581 
Q 4494 338 4894 194 
L 4553 -459 
Q 4344 -397 4144 -288 
Q 4100 -266 3528 119 
Q 3078 -78 2531 -78 
Q 1475 -78 876 544 
Q 278 1166 278 2291 
Q 278 3413 878 4036 
Q 1478 4659 2506 4659 
Q 3525 4659 4122 4036 
Q 4719 3413 4719 2291 
Q 4719 1697 4553 1247 
Q 4428 903 4153 581 
z
M 3409 1103 
Q 3588 1313 3677 1609 
Q 3766 1906 3766 2291 
Q 3766 3084 3416 3476 
Q 3066 3869 2500 3869 
Q 1934 3869 1582 3475 
Q 1231 3081 1231 2291 
Q 1231 1488 1582 1089 
Q 1934 691 2472 691 
Q 2672 691 2850 756 
Q 2569 941 2278 1044 
L 2538 1572 
Q 2994 1416 3409 1103 
z
" transform="scale(0.015625)"/>
      <path id="Arial-BoldMT-49" d="M 438 0 
L 438 4581 
L 1363 4581 
L 1363 0 
L 438 0 
z
" transform="scale(0.015625)"/>
      <path id="Arial-BoldMT-44" d="M 463 4581 
L 2153 4581 
Q 2725 4581 3025 4494 
Q 3428 4375 3715 4072 
Q 4003 3769 4153 3330 
Q 4303 2891 4303 2247 
Q 4303 1681 4163 1272 
Q 3991 772 3672 463 
Q 3431 228 3022 97 
Q 2716 0 2203 0 
L 463 0 
L 463 4581 
z
M 1388 3806 
L 1388 772 
L 2078 772 
Q 2466 772 2638 816 
Q 2863 872 3011 1006 
Q 3159 1141 3253 1448 
Q 3347 1756 3347 2288 
Q 3347 2819 3253 3103 
Q 3159 3388 2990 3547 
Q 2822 3706 2563 3763 
Q 2369 3806 1803 3806 
L 1388 3806 
z
" transform="scale(0.015625)"/>
      <path id="Arial-BoldMT-53" d="M 231 1491 
L 1131 1578 
Q 1213 1125 1461 912 
Q 1709 700 2131 700 
Q 2578 700 2804 889 
Q 3031 1078 3031 1331 
Q 3031 1494 2936 1608 
Q 2841 1722 2603 1806 
Q 2441 1863 1863 2006 
Q 1119 2191 819 2459 
Q 397 2838 397 3381 
Q 397 3731 595 4036 
Q 794 4341 1167 4500 
Q 1541 4659 2069 4659 
Q 2931 4659 3367 4281 
Q 3803 3903 3825 3272 
L 2900 3231 
Q 2841 3584 2645 3739 
Q 2450 3894 2059 3894 
Q 1656 3894 1428 3728 
Q 1281 3622 1281 3444 
Q 1281 3281 1419 3166 
Q 1594 3019 2269 2859 
Q 2944 2700 3267 2529 
Q 3591 2359 3773 2064 
Q 3956 1769 3956 1334 
Q 3956 941 3737 597 
Q 3519 253 3119 86 
Q 2719 -81 2122 -81 
Q 1253 -81 787 320 
Q 322 722 231 1491 
z
" transform="scale(0.015625)"/>
     </defs>
     <use xlink:href="#Arial-BoldMT-51"/>
     <use xlink:href="#Arial-BoldMT-49" x="77.783203"/>
     <use xlink:href="#Arial-BoldMT-44" x="105.566406"/>
     <use xlink:href="#Arial-BoldMT-53" x="177.783203"/>
    </g>
   </g>
  </g>
 </g>
 <defs>
  <clipPath id="pb529f29484">
   <rect x="45" y="34.56" width="279" height="221.76"/>
  </clipPath>
 </defs>
</svg>
