<?xml version="1.0" encoding="utf-8" standalone="no"?>
<!DOCTYPE svg PUBLIC "-//W3C//DTD SVG 1.1//EN"
  "http://www.w3.org/Graphics/SVG/1.1/DTD/svg11.dtd">
<svg xmlns:xlink="http://www.w3.org/1999/xlink" width="360pt" height="288pt" viewBox="0 0 360 288" xmlns="http://www.w3.org/2000/svg" version="1.1">
 <metadata>
  <rdf:RDF xmlns:dc="http://purl.org/dc/elements/1.1/" xmlns:cc="http://creativecommons.org/ns#" xmlns:rdf="http://www.w3.org/1999/02/22-rdf-syntax-ns#">
   <cc:Work>
    <dc:type rdf:resource="http://purl.org/dc/dcmitype/StillImage"/>
    <dc:date>2022-11-10T09:40:41.641048</dc:date>
    <dc:format>image/svg+xml</dc:format>
    <dc:creator>
     <cc:Agent>
      <dc:title>Matplotlib v3.5.2, https://matplotlib.org/</dc:title>
     </cc:Agent>
    </dc:creator>
   </cc:Work>
  </rdf:RDF>
 </metadata>
 <defs>
  <style type="text/css">*{stroke-linejoin: round; stroke-linecap: butt}</style>
 </defs>
 <g id="figure_1">
  <g id="patch_1">
   <path d="M 0 288 
L 360 288 
L 360 0 
L 0 0 
z
" style="fill: #ffffff"/>
  </g>
  <g id="axes_1">
   <g id="patch_2">
    <path d="M 45 256.32 
L 324 256.32 
L 324 34.56 
L 45 34.56 
z
" style="fill: #eaeaf2"/>
   </g>
   <g id="matplotlib.axis_1">
    <g id="xtick_1">
     <g id="line2d_1">
      <path d="M 45 256.32 
L 45 34.56 
" clip-path="url(#p9f196a6408)" style="fill: none; stroke: #ffffff; stroke-width: 0.8; stroke-linecap: round"/>
     </g>
     <g id="text_1">
      <!-- 0 -->
      <g style="fill: #262626" transform="translate(41.107344 273.340937)scale(0.14 -0.14)">
       <defs>
        <path id="ArialMT-30" d="M 266 2259 
Q 266 3072 433 3567 
Q 600 4063 929 4331 
Q 1259 4600 1759 4600 
Q 2128 4600 2406 4451 
Q 2684 4303 2865 4023 
Q 3047 3744 3150 3342 
Q 3253 2941 3253 2259 
Q 3253 1453 3087 958 
Q 2922 463 2592 192 
Q 2263 -78 1759 -78 
Q 1097 -78 719 397 
Q 266 969 266 2259 
z
M 844 2259 
Q 844 1131 1108 757 
Q 1372 384 1759 384 
Q 2147 384 2411 759 
Q 2675 1134 2675 2259 
Q 2675 3391 2411 3762 
Q 2147 4134 1753 4134 
Q 1366 4134 1134 3806 
Q 844 3388 844 2259 
z
" transform="scale(0.015625)"/>
       </defs>
       <use xlink:href="#ArialMT-30"/>
      </g>
     </g>
    </g>
    <g id="xtick_2">
     <g id="line2d_2">
      <path d="M 114.75 256.32 
L 114.75 34.56 
" clip-path="url(#p9f196a6408)" style="fill: none; stroke: #ffffff; stroke-width: 0.8; stroke-linecap: round"/>
     </g>
     <g id="text_2">
      <!-- 20 -->
      <g style="fill: #262626" transform="translate(106.964687 273.340937)scale(0.14 -0.14)">
       <defs>
        <path id="ArialMT-32" d="M 3222 541 
L 3222 0 
L 194 0 
Q 188 203 259 391 
Q 375 700 629 1000 
Q 884 1300 1366 1694 
Q 2113 2306 2375 2664 
Q 2638 3022 2638 3341 
Q 2638 3675 2398 3904 
Q 2159 4134 1775 4134 
Q 1369 4134 1125 3890 
Q 881 3647 878 3216 
L 300 3275 
Q 359 3922 746 4261 
Q 1134 4600 1788 4600 
Q 2447 4600 2831 4234 
Q 3216 3869 3216 3328 
Q 3216 3053 3103 2787 
Q 2991 2522 2730 2228 
Q 2469 1934 1863 1422 
Q 1356 997 1212 845 
Q 1069 694 975 541 
L 3222 541 
z
" transform="scale(0.015625)"/>
       </defs>
       <use xlink:href="#ArialMT-32"/>
       <use xlink:href="#ArialMT-30" x="55.615234"/>
      </g>
     </g>
    </g>
    <g id="xtick_3">
     <g id="line2d_3">
      <path d="M 184.5 256.32 
L 184.5 34.56 
" clip-path="url(#p9f196a6408)" style="fill: none; stroke: #ffffff; stroke-width: 0.8; stroke-linecap: round"/>
     </g>
     <g id="text_3">
      <!-- 40 -->
      <g style="fill: #262626" transform="translate(176.714687 273.340937)scale(0.14 -0.14)">
       <defs>
        <path id="ArialMT-34" d="M 2069 0 
L 2069 1097 
L 81 1097 
L 81 1613 
L 2172 4581 
L 2631 4581 
L 2631 1613 
L 3250 1613 
L 3250 1097 
L 2631 1097 
L 2631 0 
L 2069 0 
z
M 2069 1613 
L 2069 3678 
L 634 1613 
L 2069 1613 
z
" transform="scale(0.015625)"/>
       </defs>
       <use xlink:href="#ArialMT-34"/>
       <use xlink:href="#ArialMT-30" x="55.615234"/>
      </g>
     </g>
    </g>
    <g id="xtick_4">
     <g id="line2d_4">
      <path d="M 254.25 256.32 
L 254.25 34.56 
" clip-path="url(#p9f196a6408)" style="fill: none; stroke: #ffffff; stroke-width: 0.8; stroke-linecap: round"/>
     </g>
     <g id="text_4">
      <!-- 60 -->
      <g style="fill: #262626" transform="translate(246.464688 273.340937)scale(0.14 -0.14)">
       <defs>
        <path id="ArialMT-36" d="M 3184 3459 
L 2625 3416 
Q 2550 3747 2413 3897 
Q 2184 4138 1850 4138 
Q 1581 4138 1378 3988 
Q 1113 3794 959 3422 
Q 806 3050 800 2363 
Q 1003 2672 1297 2822 
Q 1591 2972 1913 2972 
Q 2475 2972 2870 2558 
Q 3266 2144 3266 1488 
Q 3266 1056 3080 686 
Q 2894 316 2569 119 
Q 2244 -78 1831 -78 
Q 1128 -78 684 439 
Q 241 956 241 2144 
Q 241 3472 731 4075 
Q 1159 4600 1884 4600 
Q 2425 4600 2770 4297 
Q 3116 3994 3184 3459 
z
M 888 1484 
Q 888 1194 1011 928 
Q 1134 663 1356 523 
Q 1578 384 1822 384 
Q 2178 384 2434 671 
Q 2691 959 2691 1453 
Q 2691 1928 2437 2201 
Q 2184 2475 1800 2475 
Q 1419 2475 1153 2201 
Q 888 1928 888 1484 
z
" transform="scale(0.015625)"/>
       </defs>
       <use xlink:href="#ArialMT-36"/>
       <use xlink:href="#ArialMT-30" x="55.615234"/>
      </g>
     </g>
    </g>
    <g id="xtick_5">
     <g id="line2d_5">
      <path d="M 324 256.32 
L 324 34.56 
" clip-path="url(#p9f196a6408)" style="fill: none; stroke: #ffffff; stroke-width: 0.8; stroke-linecap: round"/>
     </g>
     <g id="text_5">
      <!-- 80 -->
      <g style="fill: #262626" transform="translate(316.214688 273.340937)scale(0.14 -0.14)">
       <defs>
        <path id="ArialMT-38" d="M 1131 2484 
Q 781 2613 612 2850 
Q 444 3088 444 3419 
Q 444 3919 803 4259 
Q 1163 4600 1759 4600 
Q 2359 4600 2725 4251 
Q 3091 3903 3091 3403 
Q 3091 3084 2923 2848 
Q 2756 2613 2416 2484 
Q 2838 2347 3058 2040 
Q 3278 1734 3278 1309 
Q 3278 722 2862 322 
Q 2447 -78 1769 -78 
Q 1091 -78 675 323 
Q 259 725 259 1325 
Q 259 1772 486 2073 
Q 713 2375 1131 2484 
z
M 1019 3438 
Q 1019 3113 1228 2906 
Q 1438 2700 1772 2700 
Q 2097 2700 2305 2904 
Q 2513 3109 2513 3406 
Q 2513 3716 2298 3927 
Q 2084 4138 1766 4138 
Q 1444 4138 1231 3931 
Q 1019 3725 1019 3438 
z
M 838 1322 
Q 838 1081 952 856 
Q 1066 631 1291 507 
Q 1516 384 1775 384 
Q 2178 384 2440 643 
Q 2703 903 2703 1303 
Q 2703 1709 2433 1975 
Q 2163 2241 1756 2241 
Q 1359 2241 1098 1978 
Q 838 1716 838 1322 
z
" transform="scale(0.015625)"/>
       </defs>
       <use xlink:href="#ArialMT-38"/>
       <use xlink:href="#ArialMT-30" x="55.615234"/>
      </g>
     </g>
    </g>
   </g>
   <g id="matplotlib.axis_2">
    <g id="ytick_1">
     <g id="line2d_6">
      <path d="M 45 227.224259 
L 324 227.224259 
" clip-path="url(#p9f196a6408)" style="fill: none; stroke: #ffffff; stroke-width: 0.8; stroke-linecap: round"/>
     </g>
     <g id="text_6">
      <!-- −20 -->
      <g style="fill: #262626" transform="translate(14.2525 232.234728)scale(0.14 -0.14)">
       <defs>
        <path id="ArialMT-2212" d="M 3381 1997 
L 356 1997 
L 356 2522 
L 3381 2522 
L 3381 1997 
z
" transform="scale(0.015625)"/>
       </defs>
       <use xlink:href="#ArialMT-2212"/>
       <use xlink:href="#ArialMT-32" x="58.398438"/>
       <use xlink:href="#ArialMT-30" x="114.013672"/>
      </g>
     </g>
    </g>
    <g id="ytick_2">
     <g id="line2d_7">
      <path d="M 45 195.082923 
L 324 195.082923 
" clip-path="url(#p9f196a6408)" style="fill: none; stroke: #ffffff; stroke-width: 0.8; stroke-linecap: round"/>
     </g>
     <g id="text_7">
      <!-- −15 -->
      <g style="fill: #262626" transform="translate(14.2525 200.093392)scale(0.14 -0.14)">
       <defs>
        <path id="ArialMT-31" d="M 2384 0 
L 1822 0 
L 1822 3584 
Q 1619 3391 1289 3197 
Q 959 3003 697 2906 
L 697 3450 
Q 1169 3672 1522 3987 
Q 1875 4303 2022 4600 
L 2384 4600 
L 2384 0 
z
" transform="scale(0.015625)"/>
        <path id="ArialMT-35" d="M 266 1200 
L 856 1250 
Q 922 819 1161 601 
Q 1400 384 1738 384 
Q 2144 384 2425 690 
Q 2706 997 2706 1503 
Q 2706 1984 2436 2262 
Q 2166 2541 1728 2541 
Q 1456 2541 1237 2417 
Q 1019 2294 894 2097 
L 366 2166 
L 809 4519 
L 3088 4519 
L 3088 3981 
L 1259 3981 
L 1013 2750 
Q 1425 3038 1878 3038 
Q 2478 3038 2890 2622 
Q 3303 2206 3303 1553 
Q 3303 931 2941 478 
Q 2500 -78 1738 -78 
Q 1113 -78 717 272 
Q 322 622 266 1200 
z
" transform="scale(0.015625)"/>
       </defs>
       <use xlink:href="#ArialMT-2212"/>
       <use xlink:href="#ArialMT-31" x="58.398438"/>
       <use xlink:href="#ArialMT-35" x="114.013672"/>
      </g>
     </g>
    </g>
    <g id="ytick_3">
     <g id="line2d_8">
      <path d="M 45 162.941587 
L 324 162.941587 
" clip-path="url(#p9f196a6408)" style="fill: none; stroke: #ffffff; stroke-width: 0.8; stroke-linecap: round"/>
     </g>
     <g id="text_8">
      <!-- −10 -->
      <g style="fill: #262626" transform="translate(14.2525 167.952056)scale(0.14 -0.14)">
       <use xlink:href="#ArialMT-2212"/>
       <use xlink:href="#ArialMT-31" x="58.398438"/>
       <use xlink:href="#ArialMT-30" x="114.013672"/>
      </g>
     </g>
    </g>
    <g id="ytick_4">
     <g id="line2d_9">
      <path d="M 45 130.800251 
L 324 130.800251 
" clip-path="url(#p9f196a6408)" style="fill: none; stroke: #ffffff; stroke-width: 0.8; stroke-linecap: round"/>
     </g>
     <g id="text_9">
      <!-- −5 -->
      <g style="fill: #262626" transform="translate(22.037813 135.81072)scale(0.14 -0.14)">
       <use xlink:href="#ArialMT-2212"/>
       <use xlink:href="#ArialMT-35" x="58.398438"/>
      </g>
     </g>
    </g>
    <g id="ytick_5">
     <g id="line2d_10">
      <path d="M 45 98.658915 
L 324 98.658915 
" clip-path="url(#p9f196a6408)" style="fill: none; stroke: #ffffff; stroke-width: 0.8; stroke-linecap: round"/>
     </g>
     <g id="text_10">
      <!-- 0 -->
      <g style="fill: #262626" transform="translate(30.214688 103.669384)scale(0.14 -0.14)">
       <use xlink:href="#ArialMT-30"/>
      </g>
     </g>
    </g>
    <g id="ytick_6">
     <g id="line2d_11">
      <path d="M 45 66.51758 
L 324 66.51758 
" clip-path="url(#p9f196a6408)" style="fill: none; stroke: #ffffff; stroke-width: 0.8; stroke-linecap: round"/>
     </g>
     <g id="text_11">
      <!-- 5 -->
      <g style="fill: #262626" transform="translate(30.214688 71.528048)scale(0.14 -0.14)">
       <use xlink:href="#ArialMT-35"/>
      </g>
     </g>
    </g>
   </g>
   <g id="PathCollection_1">
    <defs>
     <path id="m2280482b36" d="M 0 1.322876 
C 0.350831 1.322876 0.68734 1.183489 0.935414 0.935414 
C 1.183489 0.68734 1.322876 0.350831 1.322876 0 
C 1.322876 -0.350831 1.183489 -0.68734 0.935414 -0.935414 
C 0.68734 -1.183489 0.350831 -1.322876 0 -1.322876 
C -0.350831 -1.322876 -0.68734 -1.183489 -0.935414 -0.935414 
C -1.183489 -0.68734 -1.322876 -0.350831 -1.322876 0 
C -1.322876 0.350831 -1.183489 0.68734 -0.935414 0.935414 
C -0.68734 1.183489 -0.350831 1.322876 0 1.322876 
z
" style="stroke: #0000ff; stroke-opacity: 0.5"/>
    </defs>
    <g clip-path="url(#p9f196a6408)">
     <use xlink:href="#m2280482b36" x="114.75" y="169.369854" style="fill: #0000ff; fill-opacity: 0.5; stroke: #0000ff; stroke-opacity: 0.5"/>
     <use xlink:href="#m2280482b36" x="125.2125" y="111.51545" style="fill: #0000ff; fill-opacity: 0.5; stroke: #0000ff; stroke-opacity: 0.5"/>
     <use xlink:href="#m2280482b36" x="93.825" y="156.51332" style="fill: #0000ff; fill-opacity: 0.5; stroke: #0000ff; stroke-opacity: 0.5"/>
     <use xlink:href="#m2280482b36" x="149.625" y="130.800251" style="fill: #0000ff; fill-opacity: 0.5; stroke: #0000ff; stroke-opacity: 0.5"/>
     <use xlink:href="#m2280482b36" x="149.625" y="117.943717" style="fill: #0000ff; fill-opacity: 0.5; stroke: #0000ff; stroke-opacity: 0.5"/>
     <use xlink:href="#m2280482b36" x="278.6625" y="143.656786" style="fill: #0000ff; fill-opacity: 0.5; stroke: #0000ff; stroke-opacity: 0.5"/>
     <use xlink:href="#m2280482b36" x="132.1875" y="124.371984" style="fill: #0000ff; fill-opacity: 0.5; stroke: #0000ff; stroke-opacity: 0.5"/>
     <use xlink:href="#m2280482b36" x="163.575" y="124.371984" style="fill: #0000ff; fill-opacity: 0.5; stroke: #0000ff; stroke-opacity: 0.5"/>
     <use xlink:href="#m2280482b36" x="100.8" y="72.945847" style="fill: #0000ff; fill-opacity: 0.5; stroke: #0000ff; stroke-opacity: 0.5"/>
     <use xlink:href="#m2280482b36" x="104.2875" y="188.654656" style="fill: #0000ff; fill-opacity: 0.5; stroke: #0000ff; stroke-opacity: 0.5"/>
     <use xlink:href="#m2280482b36" x="125.2125" y="156.51332" style="fill: #0000ff; fill-opacity: 0.5; stroke: #0000ff; stroke-opacity: 0.5"/>
     <use xlink:href="#m2280482b36" x="83.3625" y="105.087183" style="fill: #0000ff; fill-opacity: 0.5; stroke: #0000ff; stroke-opacity: 0.5"/>
     <use xlink:href="#m2280482b36" x="76.3875" y="143.656786" style="fill: #0000ff; fill-opacity: 0.5; stroke: #0000ff; stroke-opacity: 0.5"/>
     <use xlink:href="#m2280482b36" x="55.4625" y="105.087183" style="fill: #0000ff; fill-opacity: 0.5; stroke: #0000ff; stroke-opacity: 0.5"/>
     <use xlink:href="#m2280482b36" x="132.1875" y="105.087183" style="fill: #0000ff; fill-opacity: 0.5; stroke: #0000ff; stroke-opacity: 0.5"/>
     <use xlink:href="#m2280482b36" x="212.4" y="117.943717" style="fill: #0000ff; fill-opacity: 0.5; stroke: #0000ff; stroke-opacity: 0.5"/>
     <use xlink:href="#m2280482b36" x="163.575" y="105.087183" style="fill: #0000ff; fill-opacity: 0.5; stroke: #0000ff; stroke-opacity: 0.5"/>
     <use xlink:href="#m2280482b36" x="111.2625" y="98.658915" style="fill: #0000ff; fill-opacity: 0.5; stroke: #0000ff; stroke-opacity: 0.5"/>
     <use xlink:href="#m2280482b36" x="118.2375" y="117.943717" style="fill: #0000ff; fill-opacity: 0.5; stroke: #0000ff; stroke-opacity: 0.5"/>
     <use xlink:href="#m2280482b36" x="121.725" y="143.656786" style="fill: #0000ff; fill-opacity: 0.5; stroke: #0000ff; stroke-opacity: 0.5"/>
     <use xlink:href="#m2280482b36" x="135.675" y="111.51545" style="fill: #0000ff; fill-opacity: 0.5; stroke: #0000ff; stroke-opacity: 0.5"/>
     <use xlink:href="#m2280482b36" x="104.2875" y="60.089312" style="fill: #0000ff; fill-opacity: 0.5; stroke: #0000ff; stroke-opacity: 0.5"/>
     <use xlink:href="#m2280482b36" x="174.0375" y="92.230648" style="fill: #0000ff; fill-opacity: 0.5; stroke: #0000ff; stroke-opacity: 0.5"/>
     <use xlink:href="#m2280482b36" x="191.475" y="143.656786" style="fill: #0000ff; fill-opacity: 0.5; stroke: #0000ff; stroke-opacity: 0.5"/>
     <use xlink:href="#m2280482b36" x="177.525" y="220.795992" style="fill: #0000ff; fill-opacity: 0.5; stroke: #0000ff; stroke-opacity: 0.5"/>
     <use xlink:href="#m2280482b36" x="177.525" y="98.658915" style="fill: #0000ff; fill-opacity: 0.5; stroke: #0000ff; stroke-opacity: 0.5"/>
     <use xlink:href="#m2280482b36" x="93.825" y="175.798122" style="fill: #0000ff; fill-opacity: 0.5; stroke: #0000ff; stroke-opacity: 0.5"/>
     <use xlink:href="#m2280482b36" x="118.2375" y="105.087183" style="fill: #0000ff; fill-opacity: 0.5; stroke: #0000ff; stroke-opacity: 0.5"/>
     <use xlink:href="#m2280482b36" x="76.3875" y="220.795992" style="fill: #0000ff; fill-opacity: 0.5; stroke: #0000ff; stroke-opacity: 0.5"/>
    </g>
   </g>
   <g id="PolyCollection_1">
    <defs>
     <path id="m6d8d3bc98c" d="M 45 -189.633754 
L 45 -115.495974 
L 47.818182 -116.841857 
L 50.636364 -118.236358 
L 53.454545 -119.639086 
L 56.272727 -120.786178 
L 59.090909 -121.855932 
L 61.909091 -123.011501 
L 64.727273 -124.327253 
L 67.545455 -125.439555 
L 70.363636 -126.331839 
L 73.181818 -127.131299 
L 76 -128.182013 
L 78.818182 -129.07176 
L 81.636364 -130.244353 
L 84.454545 -131.072461 
L 87.272727 -131.87429 
L 90.090909 -133.047099 
L 92.909091 -133.714355 
L 95.727273 -134.625776 
L 98.545455 -135.734038 
L 101.363636 -136.925979 
L 104.181818 -137.808672 
L 107 -138.967582 
L 109.818182 -139.636569 
L 112.636364 -140.234775 
L 115.454545 -141.256801 
L 118.272727 -142.433999 
L 121.090909 -143.217724 
L 123.909091 -143.664313 
L 126.727273 -143.952193 
L 129.545455 -144.561895 
L 132.363636 -144.667253 
L 135.181818 -145.084685 
L 138 -144.969822 
L 140.818182 -145.501301 
L 143.636364 -145.609926 
L 146.454545 -145.341538 
L 149.272727 -145.417095 
L 152.090909 -145.749831 
L 154.909091 -145.671146 
L 157.727273 -145.483488 
L 160.545455 -145.085508 
L 163.363636 -144.676402 
L 166.181818 -144.280394 
L 169 -144.006889 
L 171.818182 -143.933289 
L 174.636364 -143.856726 
L 177.454545 -143.60624 
L 180.272727 -143.20412 
L 183.090909 -142.584721 
L 185.909091 -142.241453 
L 188.727273 -141.924134 
L 191.545455 -141.606815 
L 194.363636 -141.2969 
L 197.181818 -140.992997 
L 200 -140.769536 
L 202.818182 -140.367665 
L 205.636364 -140.132969 
L 208.454545 -139.941245 
L 211.272727 -139.750664 
L 214.090909 -139.560004 
L 216.909091 -138.927434 
L 219.727273 -138.529364 
L 222.545455 -138.172659 
L 225.363636 -137.641106 
L 228.181818 -136.764636 
L 231 -135.91838 
L 233.818182 -135.445039 
L 236.636364 -134.89484 
L 239.454545 -134.122873 
L 242.272727 -133.745771 
L 245.090909 -133.371376 
L 247.909091 -132.998636 
L 250.727273 -132.664504 
L 253.545455 -132.250984 
L 256.363636 -131.873794 
L 259.181818 -131.411246 
L 262 -131.036225 
L 264.818182 -130.684407 
L 267.636364 -130.33259 
L 270.454545 -129.615273 
L 273.272727 -129.059289 
L 276.090909 -128.658601 
L 278.909091 -128.160001 
L 281.727273 -127.731201 
L 284.545455 -127.325386 
L 287.363636 -126.919571 
L 290.181818 -126.446142 
L 293 -125.846372 
L 295.818182 -125.246602 
L 298.636364 -124.760878 
L 301.454545 -124.295492 
L 304.272727 -123.832441 
L 307.090909 -123.36939 
L 309.909091 -122.954119 
L 312.727273 -122.310609 
L 315.545455 -121.554193 
L 318.363636 -120.80271 
L 321.181818 -120.40181 
L 324 -120.061505 
L 324 -243.36 
L 324 -243.36 
L 321.181818 -242.09879 
L 318.363636 -240.763076 
L 315.545455 -239.423593 
L 312.727273 -238.08411 
L 309.909091 -236.744626 
L 307.090909 -235.405143 
L 304.272727 -234.06566 
L 301.454545 -232.726177 
L 298.636364 -231.386693 
L 295.818182 -230.04721 
L 293 -228.707727 
L 290.181818 -227.368243 
L 287.363636 -226.02876 
L 284.545455 -224.689277 
L 281.727273 -223.349794 
L 278.909091 -222.030661 
L 276.090909 -220.875299 
L 273.272727 -219.719938 
L 270.454545 -218.564576 
L 267.636364 -217.409214 
L 264.818182 -216.252055 
L 262 -215.091616 
L 259.181818 -213.788058 
L 256.363636 -212.314891 
L 253.545455 -210.836754 
L 250.727273 -209.358616 
L 247.909091 -208.257173 
L 245.090909 -206.995865 
L 242.272727 -205.575577 
L 239.454545 -204.146271 
L 236.636364 -202.716964 
L 233.818182 -201.287658 
L 231 -200.050029 
L 228.181818 -198.957298 
L 225.363636 -197.528022 
L 222.545455 -196.195448 
L 219.727273 -195.170709 
L 216.909091 -194.147072 
L 214.090909 -193.123435 
L 211.272727 -192.099798 
L 208.454545 -191.143023 
L 205.636364 -190.057684 
L 202.818182 -189.040837 
L 200 -187.956834 
L 197.181818 -186.703734 
L 194.363636 -185.627197 
L 191.545455 -184.651266 
L 188.727273 -183.58413 
L 185.909091 -182.639705 
L 183.090909 -181.646763 
L 180.272727 -180.645404 
L 177.454545 -179.044572 
L 174.636364 -178.147877 
L 171.818182 -177.663074 
L 169 -176.946964 
L 166.181818 -176.074498 
L 163.363636 -175.434123 
L 160.545455 -174.739525 
L 157.727273 -173.973116 
L 154.909091 -173.754853 
L 152.090909 -173.718148 
L 149.272727 -173.872105 
L 146.454545 -173.873234 
L 143.636364 -174.006197 
L 140.818182 -174.038598 
L 138 -174.259825 
L 135.181818 -174.516307 
L 132.363636 -174.899836 
L 129.545455 -175.263788 
L 126.727273 -175.669984 
L 123.909091 -176.056374 
L 121.090909 -176.442765 
L 118.272727 -176.828914 
L 115.454545 -177.214118 
L 112.636364 -177.599323 
L 109.818182 -177.984527 
L 107 -178.484518 
L 104.181818 -178.973188 
L 101.363636 -179.356778 
L 98.545455 -179.738218 
L 95.727273 -180.445346 
L 92.909091 -180.927547 
L 90.090909 -181.404167 
L 87.272727 -181.794642 
L 84.454545 -182.157337 
L 81.636364 -182.654826 
L 78.818182 -183.158289 
L 76 -183.5475 
L 73.181818 -183.984158 
L 70.363636 -184.510459 
L 67.545455 -185.084752 
L 64.727273 -185.989721 
L 61.909091 -186.510606 
L 59.090909 -186.94224 
L 56.272727 -187.414325 
L 53.454545 -187.933947 
L 50.636364 -188.52964 
L 47.818182 -189.1048 
L 45 -189.633754 
z
" style="stroke: #ffffff; stroke-opacity: 0.15"/>
    </defs>
    <g clip-path="url(#p9f196a6408)">
     <use xlink:href="#m6d8d3bc98c" x="0" y="288" style="fill: #0000ff; fill-opacity: 0.15; stroke: #ffffff; stroke-opacity: 0.15"/>
    </g>
   </g>
   <g id="PathCollection_2">
    <defs>
     <path id="m44dc4a096e" d="M 0 1.322876 
C 0.350831 1.322876 0.68734 1.183489 0.935414 0.935414 
C 1.183489 0.68734 1.322876 0.350831 1.322876 0 
C 1.322876 -0.350831 1.183489 -0.68734 0.935414 -0.935414 
C 0.68734 -1.183489 0.350831 -1.322876 0 -1.322876 
C -0.350831 -1.322876 -0.68734 -1.183489 -0.935414 -0.935414 
C -1.183489 -0.68734 -1.322876 -0.350831 -1.322876 0 
C -1.322876 0.350831 -1.183489 0.68734 -0.935414 0.935414 
C -0.68734 1.183489 -0.350831 1.322876 0 1.322876 
z
" style="stroke: #ff0000; stroke-opacity: 0.5"/>
    </defs>
    <g clip-path="url(#p9f196a6408)">
     <use xlink:href="#m44dc4a096e" x="139.1625" y="124.371984" style="fill: #ff0000; fill-opacity: 0.5; stroke: #ff0000; stroke-opacity: 0.5"/>
     <use xlink:href="#m44dc4a096e" x="90.3375" y="195.082923" style="fill: #ff0000; fill-opacity: 0.5; stroke: #ff0000; stroke-opacity: 0.5"/>
     <use xlink:href="#m44dc4a096e" x="62.4375" y="98.658915" style="fill: #ff0000; fill-opacity: 0.5; stroke: #ff0000; stroke-opacity: 0.5"/>
     <use xlink:href="#m44dc4a096e" x="184.5" y="150.085053" style="fill: #ff0000; fill-opacity: 0.5; stroke: #ff0000; stroke-opacity: 0.5"/>
     <use xlink:href="#m44dc4a096e" x="139.1625" y="195.082923" style="fill: #ff0000; fill-opacity: 0.5; stroke: #ff0000; stroke-opacity: 0.5"/>
     <use xlink:href="#m44dc4a096e" x="111.2625" y="169.369854" style="fill: #ff0000; fill-opacity: 0.5; stroke: #ff0000; stroke-opacity: 0.5"/>
     <use xlink:href="#m44dc4a096e" x="170.55" y="207.939457" style="fill: #ff0000; fill-opacity: 0.5; stroke: #ff0000; stroke-opacity: 0.5"/>
     <use xlink:href="#m44dc4a096e" x="233.325" y="195.082923" style="fill: #ff0000; fill-opacity: 0.5; stroke: #ff0000; stroke-opacity: 0.5"/>
     <use xlink:href="#m44dc4a096e" x="160.0875" y="195.082923" style="fill: #ff0000; fill-opacity: 0.5; stroke: #ff0000; stroke-opacity: 0.5"/>
     <use xlink:href="#m44dc4a096e" x="201.9375" y="195.082923" style="fill: #ff0000; fill-opacity: 0.5; stroke: #ff0000; stroke-opacity: 0.5"/>
     <use xlink:href="#m44dc4a096e" x="135.675" y="137.228519" style="fill: #ff0000; fill-opacity: 0.5; stroke: #ff0000; stroke-opacity: 0.5"/>
     <use xlink:href="#m44dc4a096e" x="100.8" y="143.656786" style="fill: #ff0000; fill-opacity: 0.5; stroke: #ff0000; stroke-opacity: 0.5"/>
     <use xlink:href="#m44dc4a096e" x="135.675" y="195.082923" style="fill: #ff0000; fill-opacity: 0.5; stroke: #ff0000; stroke-opacity: 0.5"/>
     <use xlink:href="#m44dc4a096e" x="317.025" y="201.51119" style="fill: #ff0000; fill-opacity: 0.5; stroke: #ff0000; stroke-opacity: 0.5"/>
     <use xlink:href="#m44dc4a096e" x="135.675" y="150.085053" style="fill: #ff0000; fill-opacity: 0.5; stroke: #ff0000; stroke-opacity: 0.5"/>
     <use xlink:href="#m44dc4a096e" x="128.7" y="201.51119" style="fill: #ff0000; fill-opacity: 0.5; stroke: #ff0000; stroke-opacity: 0.5"/>
     <use xlink:href="#m44dc4a096e" x="205.425" y="207.939457" style="fill: #ff0000; fill-opacity: 0.5; stroke: #ff0000; stroke-opacity: 0.5"/>
     <use xlink:href="#m44dc4a096e" x="229.8375" y="188.654656" style="fill: #ff0000; fill-opacity: 0.5; stroke: #ff0000; stroke-opacity: 0.5"/>
     <use xlink:href="#m44dc4a096e" x="132.1875" y="182.226389" style="fill: #ff0000; fill-opacity: 0.5; stroke: #ff0000; stroke-opacity: 0.5"/>
     <use xlink:href="#m44dc4a096e" x="65.925" y="195.082923" style="fill: #ff0000; fill-opacity: 0.5; stroke: #ff0000; stroke-opacity: 0.5"/>
     <use xlink:href="#m44dc4a096e" x="236.8125" y="156.51332" style="fill: #ff0000; fill-opacity: 0.5; stroke: #ff0000; stroke-opacity: 0.5"/>
     <use xlink:href="#m44dc4a096e" x="187.9875" y="156.51332" style="fill: #ff0000; fill-opacity: 0.5; stroke: #ff0000; stroke-opacity: 0.5"/>
     <use xlink:href="#m44dc4a096e" x="118.2375" y="201.51119" style="fill: #ff0000; fill-opacity: 0.5; stroke: #ff0000; stroke-opacity: 0.5"/>
     <use xlink:href="#m44dc4a096e" x="160.0875" y="117.943717" style="fill: #ff0000; fill-opacity: 0.5; stroke: #ff0000; stroke-opacity: 0.5"/>
     <use xlink:href="#m44dc4a096e" x="76.3875" y="79.374114" style="fill: #ff0000; fill-opacity: 0.5; stroke: #ff0000; stroke-opacity: 0.5"/>
     <use xlink:href="#m44dc4a096e" x="79.875" y="182.226389" style="fill: #ff0000; fill-opacity: 0.5; stroke: #ff0000; stroke-opacity: 0.5"/>
     <use xlink:href="#m44dc4a096e" x="107.775" y="92.230648" style="fill: #ff0000; fill-opacity: 0.5; stroke: #ff0000; stroke-opacity: 0.5"/>
     <use xlink:href="#m44dc4a096e" x="111.2625" y="182.226389" style="fill: #ff0000; fill-opacity: 0.5; stroke: #ff0000; stroke-opacity: 0.5"/>
    </g>
   </g>
   <g id="PolyCollection_2">
    <defs>
     <path id="m1d0d650a6f" d="M 45 -177.695943 
L 45 -105.099408 
L 47.818182 -104.970209 
L 50.636364 -104.800139 
L 53.454545 -104.630069 
L 56.272727 -104.459999 
L 59.090909 -104.290031 
L 61.909091 -104.130449 
L 64.727273 -104.182264 
L 67.545455 -104.1517 
L 70.363636 -104.032692 
L 73.181818 -103.913683 
L 76 -103.794675 
L 78.818182 -103.675782 
L 81.636364 -103.444666 
L 84.454545 -103.176285 
L 87.272727 -102.907905 
L 90.090909 -102.639524 
L 92.909091 -102.377412 
L 95.727273 -102.387708 
L 98.545455 -102.138968 
L 101.363636 -102.310244 
L 104.181818 -102.486595 
L 107 -102.406017 
L 109.818182 -102.182551 
L 112.636364 -102.266564 
L 115.454545 -102.144398 
L 118.272727 -102.030019 
L 121.090909 -101.920797 
L 123.909091 -101.916365 
L 126.727273 -101.731758 
L 129.545455 -101.571149 
L 132.363636 -101.451735 
L 135.181818 -101.284182 
L 138 -101.024074 
L 140.818182 -100.800272 
L 143.636364 -100.612057 
L 146.454545 -100.423842 
L 149.272727 -100.089464 
L 152.090909 -99.710257 
L 154.909091 -99.445536 
L 157.727273 -99.186425 
L 160.545455 -98.911368 
L 163.363636 -98.713564 
L 166.181818 -98.404784 
L 169 -98.152503 
L 171.818182 -97.878575 
L 174.636364 -97.44945 
L 177.454545 -97.257103 
L 180.272727 -97.092985 
L 183.090909 -96.808407 
L 185.909091 -96.570633 
L 188.727273 -96.287628 
L 191.545455 -95.753534 
L 194.363636 -94.856862 
L 197.181818 -94.237647 
L 200 -93.609319 
L 202.818182 -93.040083 
L 205.636364 -92.036737 
L 208.454545 -91.238743 
L 211.272727 -90.530804 
L 214.090909 -89.347883 
L 216.909091 -88.416716 
L 219.727273 -87.181876 
L 222.545455 -85.899112 
L 225.363636 -84.769414 
L 228.181818 -83.85092 
L 231 -82.7949 
L 233.818182 -81.679412 
L 236.636364 -80.886359 
L 239.454545 -79.803429 
L 242.272727 -78.720224 
L 245.090909 -77.637019 
L 247.909091 -76.553814 
L 250.727273 -75.470609 
L 253.545455 -74.387404 
L 256.363636 -73.2853 
L 259.181818 -71.877399 
L 262 -70.469497 
L 264.818182 -69.311185 
L 267.636364 -68.268529 
L 270.454545 -67.247886 
L 273.272727 -65.951261 
L 276.090909 -64.80781 
L 278.909091 -63.681135 
L 281.727273 -62.391954 
L 284.545455 -61.189032 
L 287.363636 -59.867013 
L 290.181818 -58.545095 
L 293 -57.232674 
L 295.818182 -55.920253 
L 298.636364 -54.554918 
L 301.454545 -53.211786 
L 304.272727 -51.721432 
L 307.090909 -50.290287 
L 309.909091 -48.867169 
L 312.727273 -47.444052 
L 315.545455 -46.020934 
L 318.363636 -44.597816 
L 321.181818 -43.175408 
L 324 -41.76 
L 324 -116.231156 
L 324 -116.231156 
L 321.181818 -116.271235 
L 318.363636 -116.212323 
L 315.545455 -116.327506 
L 312.727273 -116.406416 
L 309.909091 -116.454007 
L 307.090909 -116.427941 
L 304.272727 -116.545299 
L 301.454545 -116.592291 
L 298.636364 -116.555436 
L 295.818182 -116.468043 
L 293 -116.579019 
L 290.181818 -116.688946 
L 287.363636 -116.618958 
L 284.545455 -116.508184 
L 281.727273 -116.39741 
L 278.909091 -116.286637 
L 276.090909 -116.377047 
L 273.272727 -116.519399 
L 270.454545 -116.574308 
L 267.636364 -116.55364 
L 264.818182 -116.532972 
L 262 -116.555143 
L 259.181818 -116.659274 
L 256.363636 -116.8564 
L 253.545455 -117.177805 
L 250.727273 -117.387418 
L 247.909091 -117.312415 
L 245.090909 -117.237411 
L 242.272727 -117.269512 
L 239.454545 -117.585828 
L 236.636364 -117.640243 
L 233.818182 -117.730774 
L 231 -118.129747 
L 228.181818 -117.99598 
L 225.363636 -118.252277 
L 222.545455 -118.354255 
L 219.727273 -118.261625 
L 216.909091 -118.964259 
L 214.090909 -119.318266 
L 211.272727 -119.580474 
L 208.454545 -119.961042 
L 205.636364 -120.261678 
L 202.818182 -120.859078 
L 200 -121.284513 
L 197.181818 -121.434454 
L 194.363636 -121.953635 
L 191.545455 -122.330427 
L 188.727273 -122.938534 
L 185.909091 -123.593006 
L 183.090909 -124.103946 
L 180.272727 -124.828656 
L 177.454545 -125.636634 
L 174.636364 -126.231336 
L 171.818182 -127.067664 
L 169 -127.710888 
L 166.181818 -128.570447 
L 163.363636 -129.175223 
L 160.545455 -129.795848 
L 157.727273 -130.503179 
L 154.909091 -131.677385 
L 152.090909 -132.60346 
L 149.272727 -133.789811 
L 146.454545 -134.751074 
L 143.636364 -135.987307 
L 140.818182 -137.178926 
L 138 -138.278081 
L 135.181818 -139.194777 
L 132.363636 -140.094402 
L 129.545455 -141.076747 
L 126.727273 -142.132996 
L 123.909091 -143.561009 
L 121.090909 -144.807073 
L 118.272727 -145.73699 
L 115.454545 -146.949757 
L 112.636364 -148.367502 
L 109.818182 -149.416814 
L 107 -150.375479 
L 104.181818 -151.315015 
L 101.363636 -152.802075 
L 98.545455 -154.01875 
L 95.727273 -154.976537 
L 92.909091 -156.241941 
L 90.090909 -157.779684 
L 87.272727 -159.158009 
L 84.454545 -160.218604 
L 81.636364 -161.27657 
L 78.818182 -162.461422 
L 76 -163.794439 
L 73.181818 -165.288458 
L 70.363636 -166.684086 
L 67.545455 -167.892889 
L 64.727273 -169.145862 
L 61.909091 -170.328535 
L 59.090909 -171.511208 
L 56.272727 -172.857145 
L 53.454545 -174.142724 
L 50.636364 -175.327528 
L 47.818182 -176.512332 
L 45 -177.695943 
z
" style="stroke: #ffffff; stroke-opacity: 0.15"/>
    </defs>
    <g clip-path="url(#p9f196a6408)">
     <use xlink:href="#m1d0d650a6f" x="0" y="288" style="fill: #ff0000; fill-opacity: 0.15; stroke: #ffffff; stroke-opacity: 0.15"/>
    </g>
   </g>
   <g id="line2d_12">
    <path d="M 45 128.650975 
L 47.818182 128.596055 
L 50.636364 128.541135 
L 53.454545 128.486216 
L 56.272727 128.431296 
L 59.090909 128.376376 
L 61.909091 128.321457 
L 64.727273 128.266537 
L 67.545455 128.211617 
L 70.363636 128.156698 
L 73.181818 128.101778 
L 76 128.046858 
L 78.818182 127.991938 
L 81.636364 127.937019 
L 84.454545 127.882099 
L 87.272727 127.827179 
L 90.090909 127.77226 
L 92.909091 127.71734 
L 95.727273 127.66242 
L 98.545455 127.607501 
L 101.363636 127.552581 
L 104.181818 127.497661 
L 107 127.442741 
L 109.818182 127.387822 
L 112.636364 127.332902 
L 115.454545 127.277982 
L 118.272727 127.223063 
L 121.090909 127.168143 
L 123.909091 127.113223 
L 126.727273 127.058304 
L 129.545455 127.003384 
L 132.363636 126.948464 
L 135.181818 126.893544 
L 138 126.838625 
L 140.818182 126.783705 
L 143.636364 126.728785 
L 146.454545 126.673866 
L 149.272727 126.618946 
L 152.090909 126.564026 
L 154.909091 126.509107 
L 157.727273 126.454187 
L 160.545455 126.399267 
L 163.363636 126.344347 
L 166.181818 126.289428 
L 169 126.234508 
L 171.818182 126.179588 
L 174.636364 126.124669 
L 177.454545 126.069749 
L 180.272727 126.014829 
L 183.090909 125.959909 
L 185.909091 125.90499 
L 188.727273 125.85007 
L 191.545455 125.79515 
L 194.363636 125.740231 
L 197.181818 125.685311 
L 200 125.630391 
L 202.818182 125.575472 
L 205.636364 125.520552 
L 208.454545 125.465632 
L 211.272727 125.410712 
L 214.090909 125.355793 
L 216.909091 125.300873 
L 219.727273 125.245953 
L 222.545455 125.191034 
L 225.363636 125.136114 
L 228.181818 125.081194 
L 231 125.026275 
L 233.818182 124.971355 
L 236.636364 124.916435 
L 239.454545 124.861515 
L 242.272727 124.806596 
L 245.090909 124.751676 
L 247.909091 124.696756 
L 250.727273 124.641837 
L 253.545455 124.586917 
L 256.363636 124.531997 
L 259.181818 124.477078 
L 262 124.422158 
L 264.818182 124.367238 
L 267.636364 124.312318 
L 270.454545 124.257399 
L 273.272727 124.202479 
L 276.090909 124.147559 
L 278.909091 124.09264 
L 281.727273 124.03772 
L 284.545455 123.9828 
L 287.363636 123.927881 
L 290.181818 123.872961 
L 293 123.818041 
L 295.818182 123.763121 
L 298.636364 123.708202 
L 301.454545 123.653282 
L 304.272727 123.598362 
L 307.090909 123.543443 
L 309.909091 123.488523 
L 312.727273 123.433603 
L 315.545455 123.378684 
L 318.363636 123.323764 
L 321.181818 123.268844 
L 324 123.213924 
" clip-path="url(#p9f196a6408)" style="fill: none; stroke: #0000ff; stroke-width: 2.25; stroke-linecap: round"/>
   </g>
   <g id="line2d_13">
    <path d="M 45 147.767859 
L 47.818182 148.344007 
L 50.636364 148.920154 
L 53.454545 149.496302 
L 56.272727 150.07245 
L 59.090909 150.648598 
L 61.909091 151.224745 
L 64.727273 151.800893 
L 67.545455 152.377041 
L 70.363636 152.953189 
L 73.181818 153.529337 
L 76 154.105484 
L 78.818182 154.681632 
L 81.636364 155.25778 
L 84.454545 155.833928 
L 87.272727 156.410075 
L 90.090909 156.986223 
L 92.909091 157.562371 
L 95.727273 158.138519 
L 98.545455 158.714666 
L 101.363636 159.290814 
L 104.181818 159.866962 
L 107 160.44311 
L 109.818182 161.019258 
L 112.636364 161.595405 
L 115.454545 162.171553 
L 118.272727 162.747701 
L 121.090909 163.323849 
L 123.909091 163.899996 
L 126.727273 164.476144 
L 129.545455 165.052292 
L 132.363636 165.62844 
L 135.181818 166.204587 
L 138 166.780735 
L 140.818182 167.356883 
L 143.636364 167.933031 
L 146.454545 168.509179 
L 149.272727 169.085326 
L 152.090909 169.661474 
L 154.909091 170.237622 
L 157.727273 170.81377 
L 160.545455 171.389917 
L 163.363636 171.966065 
L 166.181818 172.542213 
L 169 173.118361 
L 171.818182 173.694508 
L 174.636364 174.270656 
L 177.454545 174.846804 
L 180.272727 175.422952 
L 183.090909 175.9991 
L 185.909091 176.575247 
L 188.727273 177.151395 
L 191.545455 177.727543 
L 194.363636 178.303691 
L 197.181818 178.879838 
L 200 179.455986 
L 202.818182 180.032134 
L 205.636364 180.608282 
L 208.454545 181.184429 
L 211.272727 181.760577 
L 214.090909 182.336725 
L 216.909091 182.912873 
L 219.727273 183.489021 
L 222.545455 184.065168 
L 225.363636 184.641316 
L 228.181818 185.217464 
L 231 185.793612 
L 233.818182 186.369759 
L 236.636364 186.945907 
L 239.454545 187.522055 
L 242.272727 188.098203 
L 245.090909 188.67435 
L 247.909091 189.250498 
L 250.727273 189.826646 
L 253.545455 190.402794 
L 256.363636 190.978942 
L 259.181818 191.555089 
L 262 192.131237 
L 264.818182 192.707385 
L 267.636364 193.283533 
L 270.454545 193.85968 
L 273.272727 194.435828 
L 276.090909 195.011976 
L 278.909091 195.588124 
L 281.727273 196.164271 
L 284.545455 196.740419 
L 287.363636 197.316567 
L 290.181818 197.892715 
L 293 198.468863 
L 295.818182 199.04501 
L 298.636364 199.621158 
L 301.454545 200.197306 
L 304.272727 200.773454 
L 307.090909 201.349601 
L 309.909091 201.925749 
L 312.727273 202.501897 
L 315.545455 203.078045 
L 318.363636 203.654192 
L 321.181818 204.23034 
L 324 204.806488 
" clip-path="url(#p9f196a6408)" style="fill: none; stroke: #ff0000; stroke-width: 2.25; stroke-linecap: round"/>
   </g>
   <g id="patch_3">
    <path d="M 45 256.32 
L 45 34.56 
" style="fill: none; stroke: #ffffff; stroke-width: 0.8; stroke-linejoin: miter; stroke-linecap: square"/>
   </g>
   <g id="patch_4">
    <path d="M 324 256.32 
L 324 34.56 
" style="fill: none; stroke: #ffffff; stroke-width: 0.8; stroke-linejoin: miter; stroke-linecap: square"/>
   </g>
   <g id="patch_5">
    <path d="M 45 256.32 
L 324 256.32 
" style="fill: none; stroke: #ffffff; stroke-width: 0.8; stroke-linejoin: miter; stroke-linecap: square"/>
   </g>
   <g id="patch_6">
    <path d="M 45 34.56 
L 324 34.56 
" style="fill: none; stroke: #ffffff; stroke-width: 0.8; stroke-linejoin: miter; stroke-linecap: square"/>
   </g>
   <g id="text_12">
    <!-- HAMD -->
    <g style="fill: #262626" transform="translate(157.504219 28.56)scale(0.18 -0.18)">
     <defs>
      <path id="Arial-BoldMT-48" d="M 469 0 
L 469 4581 
L 1394 4581 
L 1394 2778 
L 3206 2778 
L 3206 4581 
L 4131 4581 
L 4131 0 
L 3206 0 
L 3206 2003 
L 1394 2003 
L 1394 0 
L 469 0 
z
" transform="scale(0.015625)"/>
      <path id="Arial-BoldMT-41" d="M 4597 0 
L 3591 0 
L 3191 1041 
L 1359 1041 
L 981 0 
L 0 0 
L 1784 4581 
L 2763 4581 
L 4597 0 
z
M 2894 1813 
L 2263 3513 
L 1644 1813 
L 2894 1813 
z
" transform="scale(0.015625)"/>
      <path id="Arial-BoldMT-4d" d="M 453 0 
L 453 4581 
L 1838 4581 
L 2669 1456 
L 3491 4581 
L 4878 4581 
L 4878 0 
L 4019 0 
L 4019 3606 
L 3109 0 
L 2219 0 
L 1313 3606 
L 1313 0 
L 453 0 
z
" transform="scale(0.015625)"/>
      <path id="Arial-BoldMT-44" d="M 463 4581 
L 2153 4581 
Q 2725 4581 3025 4494 
Q 3428 4375 3715 4072 
Q 4003 3769 4153 3330 
Q 4303 2891 4303 2247 
Q 4303 1681 4163 1272 
Q 3991 772 3672 463 
Q 3431 228 3022 97 
Q 2716 0 2203 0 
L 463 0 
L 463 4581 
z
M 1388 3806 
L 1388 772 
L 2078 772 
Q 2466 772 2638 816 
Q 2863 872 3011 1006 
Q 3159 1141 3253 1448 
Q 3347 1756 3347 2288 
Q 3347 2819 3253 3103 
Q 3159 3388 2990 3547 
Q 2822 3706 2563 3763 
Q 2369 3806 1803 3806 
L 1388 3806 
z
" transform="scale(0.015625)"/>
     </defs>
     <use xlink:href="#Arial-BoldMT-48"/>
     <use xlink:href="#Arial-BoldMT-41" x="72.216797"/>
     <use xlink:href="#Arial-BoldMT-4d" x="144.433594"/>
     <use xlink:href="#Arial-BoldMT-44" x="227.734375"/>
    </g>
   </g>
  </g>
 </g>
 <defs>
  <clipPath id="p9f196a6408">
   <rect x="45" y="34.56" width="279" height="221.76"/>
  </clipPath>
 </defs>
</svg>
