<?xml version="1.0" encoding="utf-8" standalone="no"?>
<!DOCTYPE svg PUBLIC "-//W3C//DTD SVG 1.1//EN"
  "http://www.w3.org/Graphics/SVG/1.1/DTD/svg11.dtd">
<svg xmlns:xlink="http://www.w3.org/1999/xlink" width="360pt" height="288pt" viewBox="0 0 360 288" xmlns="http://www.w3.org/2000/svg" version="1.1">
 <metadata>
  <rdf:RDF xmlns:dc="http://purl.org/dc/elements/1.1/" xmlns:cc="http://creativecommons.org/ns#" xmlns:rdf="http://www.w3.org/1999/02/22-rdf-syntax-ns#">
   <cc:Work>
    <dc:type rdf:resource="http://purl.org/dc/dcmitype/StillImage"/>
    <dc:date>2022-11-10T09:41:07.237777</dc:date>
    <dc:format>image/svg+xml</dc:format>
    <dc:creator>
     <cc:Agent>
      <dc:title>Matplotlib v3.5.2, https://matplotlib.org/</dc:title>
     </cc:Agent>
    </dc:creator>
   </cc:Work>
  </rdf:RDF>
 </metadata>
 <defs>
  <style type="text/css">*{stroke-linejoin: round; stroke-linecap: butt}</style>
 </defs>
 <g id="figure_1">
  <g id="patch_1">
   <path d="M 0 288 
L 360 288 
L 360 0 
L 0 0 
z
" style="fill: #ffffff"/>
  </g>
  <g id="axes_1">
   <g id="patch_2">
    <path d="M 45 256.32 
L 324 256.32 
L 324 34.56 
L 45 34.56 
z
" style="fill: #eaeaf2"/>
   </g>
   <g id="matplotlib.axis_1">
    <g id="xtick_1">
     <g id="line2d_1">
      <path d="M 45 256.32 
L 45 34.56 
" clip-path="url(#p06ec04592c)" style="fill: none; stroke: #ffffff; stroke-width: 0.8; stroke-linecap: round"/>
     </g>
     <g id="text_1">
      <!-- 0 -->
      <g style="fill: #262626" transform="translate(41.107344 273.340937)scale(0.14 -0.14)">
       <defs>
        <path id="ArialMT-30" d="M 266 2259 
Q 266 3072 433 3567 
Q 600 4063 929 4331 
Q 1259 4600 1759 4600 
Q 2128 4600 2406 4451 
Q 2684 4303 2865 4023 
Q 3047 3744 3150 3342 
Q 3253 2941 3253 2259 
Q 3253 1453 3087 958 
Q 2922 463 2592 192 
Q 2263 -78 1759 -78 
Q 1097 -78 719 397 
Q 266 969 266 2259 
z
M 844 2259 
Q 844 1131 1108 757 
Q 1372 384 1759 384 
Q 2147 384 2411 759 
Q 2675 1134 2675 2259 
Q 2675 3391 2411 3762 
Q 2147 4134 1753 4134 
Q 1366 4134 1134 3806 
Q 844 3388 844 2259 
z
" transform="scale(0.015625)"/>
       </defs>
       <use xlink:href="#ArialMT-30"/>
      </g>
     </g>
    </g>
    <g id="xtick_2">
     <g id="line2d_2">
      <path d="M 114.75 256.32 
L 114.75 34.56 
" clip-path="url(#p06ec04592c)" style="fill: none; stroke: #ffffff; stroke-width: 0.8; stroke-linecap: round"/>
     </g>
     <g id="text_2">
      <!-- 20 -->
      <g style="fill: #262626" transform="translate(106.964687 273.340937)scale(0.14 -0.14)">
       <defs>
        <path id="ArialMT-32" d="M 3222 541 
L 3222 0 
L 194 0 
Q 188 203 259 391 
Q 375 700 629 1000 
Q 884 1300 1366 1694 
Q 2113 2306 2375 2664 
Q 2638 3022 2638 3341 
Q 2638 3675 2398 3904 
Q 2159 4134 1775 4134 
Q 1369 4134 1125 3890 
Q 881 3647 878 3216 
L 300 3275 
Q 359 3922 746 4261 
Q 1134 4600 1788 4600 
Q 2447 4600 2831 4234 
Q 3216 3869 3216 3328 
Q 3216 3053 3103 2787 
Q 2991 2522 2730 2228 
Q 2469 1934 1863 1422 
Q 1356 997 1212 845 
Q 1069 694 975 541 
L 3222 541 
z
" transform="scale(0.015625)"/>
       </defs>
       <use xlink:href="#ArialMT-32"/>
       <use xlink:href="#ArialMT-30" x="55.615234"/>
      </g>
     </g>
    </g>
    <g id="xtick_3">
     <g id="line2d_3">
      <path d="M 184.5 256.32 
L 184.5 34.56 
" clip-path="url(#p06ec04592c)" style="fill: none; stroke: #ffffff; stroke-width: 0.8; stroke-linecap: round"/>
     </g>
     <g id="text_3">
      <!-- 40 -->
      <g style="fill: #262626" transform="translate(176.714687 273.340937)scale(0.14 -0.14)">
       <defs>
        <path id="ArialMT-34" d="M 2069 0 
L 2069 1097 
L 81 1097 
L 81 1613 
L 2172 4581 
L 2631 4581 
L 2631 1613 
L 3250 1613 
L 3250 1097 
L 2631 1097 
L 2631 0 
L 2069 0 
z
M 2069 1613 
L 2069 3678 
L 634 1613 
L 2069 1613 
z
" transform="scale(0.015625)"/>
       </defs>
       <use xlink:href="#ArialMT-34"/>
       <use xlink:href="#ArialMT-30" x="55.615234"/>
      </g>
     </g>
    </g>
    <g id="xtick_4">
     <g id="line2d_4">
      <path d="M 254.25 256.32 
L 254.25 34.56 
" clip-path="url(#p06ec04592c)" style="fill: none; stroke: #ffffff; stroke-width: 0.8; stroke-linecap: round"/>
     </g>
     <g id="text_4">
      <!-- 60 -->
      <g style="fill: #262626" transform="translate(246.464688 273.340937)scale(0.14 -0.14)">
       <defs>
        <path id="ArialMT-36" d="M 3184 3459 
L 2625 3416 
Q 2550 3747 2413 3897 
Q 2184 4138 1850 4138 
Q 1581 4138 1378 3988 
Q 1113 3794 959 3422 
Q 806 3050 800 2363 
Q 1003 2672 1297 2822 
Q 1591 2972 1913 2972 
Q 2475 2972 2870 2558 
Q 3266 2144 3266 1488 
Q 3266 1056 3080 686 
Q 2894 316 2569 119 
Q 2244 -78 1831 -78 
Q 1128 -78 684 439 
Q 241 956 241 2144 
Q 241 3472 731 4075 
Q 1159 4600 1884 4600 
Q 2425 4600 2770 4297 
Q 3116 3994 3184 3459 
z
M 888 1484 
Q 888 1194 1011 928 
Q 1134 663 1356 523 
Q 1578 384 1822 384 
Q 2178 384 2434 671 
Q 2691 959 2691 1453 
Q 2691 1928 2437 2201 
Q 2184 2475 1800 2475 
Q 1419 2475 1153 2201 
Q 888 1928 888 1484 
z
" transform="scale(0.015625)"/>
       </defs>
       <use xlink:href="#ArialMT-36"/>
       <use xlink:href="#ArialMT-30" x="55.615234"/>
      </g>
     </g>
    </g>
    <g id="xtick_5">
     <g id="line2d_5">
      <path d="M 324 256.32 
L 324 34.56 
" clip-path="url(#p06ec04592c)" style="fill: none; stroke: #ffffff; stroke-width: 0.8; stroke-linecap: round"/>
     </g>
     <g id="text_5">
      <!-- 80 -->
      <g style="fill: #262626" transform="translate(316.214688 273.340937)scale(0.14 -0.14)">
       <defs>
        <path id="ArialMT-38" d="M 1131 2484 
Q 781 2613 612 2850 
Q 444 3088 444 3419 
Q 444 3919 803 4259 
Q 1163 4600 1759 4600 
Q 2359 4600 2725 4251 
Q 3091 3903 3091 3403 
Q 3091 3084 2923 2848 
Q 2756 2613 2416 2484 
Q 2838 2347 3058 2040 
Q 3278 1734 3278 1309 
Q 3278 722 2862 322 
Q 2447 -78 1769 -78 
Q 1091 -78 675 323 
Q 259 725 259 1325 
Q 259 1772 486 2073 
Q 713 2375 1131 2484 
z
M 1019 3438 
Q 1019 3113 1228 2906 
Q 1438 2700 1772 2700 
Q 2097 2700 2305 2904 
Q 2513 3109 2513 3406 
Q 2513 3716 2298 3927 
Q 2084 4138 1766 4138 
Q 1444 4138 1231 3931 
Q 1019 3725 1019 3438 
z
M 838 1322 
Q 838 1081 952 856 
Q 1066 631 1291 507 
Q 1516 384 1775 384 
Q 2178 384 2440 643 
Q 2703 903 2703 1303 
Q 2703 1709 2433 1975 
Q 2163 2241 1756 2241 
Q 1359 2241 1098 1978 
Q 838 1716 838 1322 
z
" transform="scale(0.015625)"/>
       </defs>
       <use xlink:href="#ArialMT-38"/>
       <use xlink:href="#ArialMT-30" x="55.615234"/>
      </g>
     </g>
    </g>
   </g>
   <g id="matplotlib.axis_2">
    <g id="ytick_1">
     <g id="line2d_6">
      <path d="M 45 196.699295 
L 324 196.699295 
" clip-path="url(#p06ec04592c)" style="fill: none; stroke: #ffffff; stroke-width: 0.8; stroke-linecap: round"/>
     </g>
     <g id="text_6">
      <!-- −40 -->
      <g style="fill: #262626" transform="translate(14.2525 201.709764)scale(0.14 -0.14)">
       <defs>
        <path id="ArialMT-2212" d="M 3381 1997 
L 356 1997 
L 356 2522 
L 3381 2522 
L 3381 1997 
z
" transform="scale(0.015625)"/>
       </defs>
       <use xlink:href="#ArialMT-2212"/>
       <use xlink:href="#ArialMT-34" x="58.398438"/>
       <use xlink:href="#ArialMT-30" x="114.013672"/>
      </g>
     </g>
    </g>
    <g id="ytick_2">
     <g id="line2d_7">
      <path d="M 45 135.875577 
L 324 135.875577 
" clip-path="url(#p06ec04592c)" style="fill: none; stroke: #ffffff; stroke-width: 0.8; stroke-linecap: round"/>
     </g>
     <g id="text_7">
      <!-- −20 -->
      <g style="fill: #262626" transform="translate(14.2525 140.886046)scale(0.14 -0.14)">
       <use xlink:href="#ArialMT-2212"/>
       <use xlink:href="#ArialMT-32" x="58.398438"/>
       <use xlink:href="#ArialMT-30" x="114.013672"/>
      </g>
     </g>
    </g>
    <g id="ytick_3">
     <g id="line2d_8">
      <path d="M 45 75.051859 
L 324 75.051859 
" clip-path="url(#p06ec04592c)" style="fill: none; stroke: #ffffff; stroke-width: 0.8; stroke-linecap: round"/>
     </g>
     <g id="text_8">
      <!-- 0 -->
      <g style="fill: #262626" transform="translate(30.214688 80.062328)scale(0.14 -0.14)">
       <use xlink:href="#ArialMT-30"/>
      </g>
     </g>
    </g>
   </g>
   <g id="PathCollection_1">
    <defs>
     <path id="md619cc6dc4" d="M 0 1.322876 
C 0.350831 1.322876 0.68734 1.183489 0.935414 0.935414 
C 1.183489 0.68734 1.322876 0.350831 1.322876 0 
C 1.322876 -0.350831 1.183489 -0.68734 0.935414 -0.935414 
C 0.68734 -1.183489 0.350831 -1.322876 0 -1.322876 
C -0.350831 -1.322876 -0.68734 -1.183489 -0.935414 -0.935414 
C -1.183489 -0.68734 -1.322876 -0.350831 -1.322876 0 
C -1.322876 0.350831 -1.183489 0.68734 -0.935414 0.935414 
C -0.68734 1.183489 -0.350831 1.322876 0 1.322876 
z
" style="stroke: #0000ff; stroke-opacity: 0.5"/>
    </defs>
    <g clip-path="url(#p06ec04592c)">
     <use xlink:href="#md619cc6dc4" x="114.75" y="87.216603" style="fill: #0000ff; fill-opacity: 0.5; stroke: #0000ff; stroke-opacity: 0.5"/>
     <use xlink:href="#md619cc6dc4" x="125.2125" y="75.051859" style="fill: #0000ff; fill-opacity: 0.5; stroke: #0000ff; stroke-opacity: 0.5"/>
     <use xlink:href="#md619cc6dc4" x="93.825" y="135.875577" style="fill: #0000ff; fill-opacity: 0.5; stroke: #0000ff; stroke-opacity: 0.5"/>
     <use xlink:href="#md619cc6dc4" x="149.625" y="99.381346" style="fill: #0000ff; fill-opacity: 0.5; stroke: #0000ff; stroke-opacity: 0.5"/>
     <use xlink:href="#md619cc6dc4" x="149.625" y="93.298974" style="fill: #0000ff; fill-opacity: 0.5; stroke: #0000ff; stroke-opacity: 0.5"/>
     <use xlink:href="#md619cc6dc4" x="278.6625" y="105.463718" style="fill: #0000ff; fill-opacity: 0.5; stroke: #0000ff; stroke-opacity: 0.5"/>
     <use xlink:href="#md619cc6dc4" x="132.1875" y="78.093045" style="fill: #0000ff; fill-opacity: 0.5; stroke: #0000ff; stroke-opacity: 0.5"/>
     <use xlink:href="#md619cc6dc4" x="163.575" y="108.504904" style="fill: #0000ff; fill-opacity: 0.5; stroke: #0000ff; stroke-opacity: 0.5"/>
     <use xlink:href="#md619cc6dc4" x="100.8" y="44.64" style="fill: #0000ff; fill-opacity: 0.5; stroke: #0000ff; stroke-opacity: 0.5"/>
     <use xlink:href="#md619cc6dc4" x="104.2875" y="117.628462" style="fill: #0000ff; fill-opacity: 0.5; stroke: #0000ff; stroke-opacity: 0.5"/>
     <use xlink:href="#md619cc6dc4" x="125.2125" y="99.381346" style="fill: #0000ff; fill-opacity: 0.5; stroke: #0000ff; stroke-opacity: 0.5"/>
     <use xlink:href="#md619cc6dc4" x="83.3625" y="75.051859" style="fill: #0000ff; fill-opacity: 0.5; stroke: #0000ff; stroke-opacity: 0.5"/>
     <use xlink:href="#md619cc6dc4" x="76.3875" y="117.628462" style="fill: #0000ff; fill-opacity: 0.5; stroke: #0000ff; stroke-opacity: 0.5"/>
     <use xlink:href="#md619cc6dc4" x="55.4625" y="81.134231" style="fill: #0000ff; fill-opacity: 0.5; stroke: #0000ff; stroke-opacity: 0.5"/>
     <use xlink:href="#md619cc6dc4" x="132.1875" y="84.175417" style="fill: #0000ff; fill-opacity: 0.5; stroke: #0000ff; stroke-opacity: 0.5"/>
     <use xlink:href="#md619cc6dc4" x="212.4" y="105.463718" style="fill: #0000ff; fill-opacity: 0.5; stroke: #0000ff; stroke-opacity: 0.5"/>
     <use xlink:href="#md619cc6dc4" x="163.575" y="75.051859" style="fill: #0000ff; fill-opacity: 0.5; stroke: #0000ff; stroke-opacity: 0.5"/>
     <use xlink:href="#md619cc6dc4" x="111.2625" y="84.175417" style="fill: #0000ff; fill-opacity: 0.5; stroke: #0000ff; stroke-opacity: 0.5"/>
     <use xlink:href="#md619cc6dc4" x="118.2375" y="135.875577" style="fill: #0000ff; fill-opacity: 0.5; stroke: #0000ff; stroke-opacity: 0.5"/>
     <use xlink:href="#md619cc6dc4" x="121.725" y="99.381346" style="fill: #0000ff; fill-opacity: 0.5; stroke: #0000ff; stroke-opacity: 0.5"/>
     <use xlink:href="#md619cc6dc4" x="135.675" y="99.381346" style="fill: #0000ff; fill-opacity: 0.5; stroke: #0000ff; stroke-opacity: 0.5"/>
     <use xlink:href="#md619cc6dc4" x="104.2875" y="78.093045" style="fill: #0000ff; fill-opacity: 0.5; stroke: #0000ff; stroke-opacity: 0.5"/>
     <use xlink:href="#md619cc6dc4" x="174.0375" y="75.051859" style="fill: #0000ff; fill-opacity: 0.5; stroke: #0000ff; stroke-opacity: 0.5"/>
     <use xlink:href="#md619cc6dc4" x="191.475" y="102.422532" style="fill: #0000ff; fill-opacity: 0.5; stroke: #0000ff; stroke-opacity: 0.5"/>
     <use xlink:href="#md619cc6dc4" x="177.525" y="175.410994" style="fill: #0000ff; fill-opacity: 0.5; stroke: #0000ff; stroke-opacity: 0.5"/>
     <use xlink:href="#md619cc6dc4" x="177.525" y="117.628462" style="fill: #0000ff; fill-opacity: 0.5; stroke: #0000ff; stroke-opacity: 0.5"/>
     <use xlink:href="#md619cc6dc4" x="93.825" y="138.916763" style="fill: #0000ff; fill-opacity: 0.5; stroke: #0000ff; stroke-opacity: 0.5"/>
     <use xlink:href="#md619cc6dc4" x="118.2375" y="93.298974" style="fill: #0000ff; fill-opacity: 0.5; stroke: #0000ff; stroke-opacity: 0.5"/>
     <use xlink:href="#md619cc6dc4" x="76.3875" y="184.534551" style="fill: #0000ff; fill-opacity: 0.5; stroke: #0000ff; stroke-opacity: 0.5"/>
    </g>
   </g>
   <g id="PolyCollection_1">
    <defs>
     <path id="me177d01d9b" d="M 45 -214.452013 
L 45 -161.387838 
L 47.818182 -162.28881 
L 50.636364 -163.105604 
L 53.454545 -163.880098 
L 56.272727 -164.710585 
L 59.090909 -165.462684 
L 61.909091 -165.94513 
L 64.727273 -166.64836 
L 67.545455 -167.129828 
L 70.363636 -167.5199 
L 73.181818 -167.91158 
L 76 -168.308971 
L 78.818182 -168.689844 
L 81.636364 -169.337836 
L 84.454545 -169.780332 
L 87.272727 -170.17568 
L 90.090909 -170.88926 
L 92.909091 -171.40524 
L 95.727273 -171.928198 
L 98.545455 -172.479038 
L 101.363636 -173.203227 
L 104.181818 -173.927698 
L 107 -174.405554 
L 109.818182 -174.797815 
L 112.636364 -175.036686 
L 115.454545 -175.267189 
L 118.272727 -175.748269 
L 121.090909 -176.370502 
L 123.909091 -176.760768 
L 126.727273 -177.082336 
L 129.545455 -177.614811 
L 132.363636 -177.55289 
L 135.181818 -177.631951 
L 138 -177.426573 
L 140.818182 -177.685471 
L 143.636364 -177.86016 
L 146.454545 -177.922254 
L 149.272727 -177.952916 
L 152.090909 -177.823962 
L 154.909091 -177.922579 
L 157.727273 -177.769743 
L 160.545455 -177.670929 
L 163.363636 -177.495352 
L 166.181818 -177.358156 
L 169 -177.147485 
L 171.818182 -176.738951 
L 174.636364 -176.378589 
L 177.454545 -175.624264 
L 180.272727 -174.913319 
L 183.090909 -174.641435 
L 185.909091 -173.842585 
L 188.727273 -173.683734 
L 191.545455 -173.078328 
L 194.363636 -172.611737 
L 197.181818 -172.319926 
L 200 -171.354392 
L 202.818182 -170.589945 
L 205.636364 -170.272855 
L 208.454545 -169.583676 
L 211.272727 -168.814279 
L 214.090909 -168.323776 
L 216.909091 -167.923208 
L 219.727273 -167.347301 
L 222.545455 -166.854291 
L 225.363636 -166.021336 
L 228.181818 -165.203166 
L 231 -164.81178 
L 233.818182 -164.546109 
L 236.636364 -163.878454 
L 239.454545 -163.173875 
L 242.272727 -162.465832 
L 245.090909 -161.634189 
L 247.909091 -160.802547 
L 250.727273 -160.025761 
L 253.545455 -159.510136 
L 256.363636 -158.950015 
L 259.181818 -158.240734 
L 262 -157.531454 
L 264.818182 -156.822174 
L 267.636364 -156.112893 
L 270.454545 -155.407286 
L 273.272727 -154.706176 
L 276.090909 -154.006038 
L 278.909091 -153.3059 
L 281.727273 -152.605762 
L 284.545455 -151.905625 
L 287.363636 -151.348461 
L 290.181818 -150.842918 
L 293 -150.080667 
L 295.818182 -149.318416 
L 298.636364 -148.556165 
L 301.454545 -147.793913 
L 304.272727 -147.031662 
L 307.090909 -146.269411 
L 309.909091 -145.620721 
L 312.727273 -145.027119 
L 315.545455 -144.434772 
L 318.363636 -143.844156 
L 321.181818 -143.25354 
L 324 -142.662925 
L 324 -236.975907 
L 324 -236.975907 
L 321.181818 -236.098411 
L 318.363636 -235.219928 
L 315.545455 -234.341444 
L 312.727273 -233.462961 
L 309.909091 -232.584477 
L 307.090909 -231.705994 
L 304.272727 -230.827511 
L 301.454545 -229.949027 
L 298.636364 -229.070544 
L 295.818182 -228.235124 
L 293 -227.541042 
L 290.181818 -226.846959 
L 287.363636 -226.152877 
L 284.545455 -225.458794 
L 281.727273 -224.764712 
L 278.909091 -224.070629 
L 276.090909 -223.376547 
L 273.272727 -222.682464 
L 270.454545 -221.988382 
L 267.636364 -221.294299 
L 264.818182 -220.600217 
L 262 -219.906134 
L 259.181818 -219.212052 
L 256.363636 -218.517969 
L 253.545455 -217.823887 
L 250.727273 -217.129804 
L 247.909091 -216.435721 
L 245.090909 -215.741639 
L 242.272727 -215.047556 
L 239.454545 -214.353474 
L 236.636364 -213.659391 
L 233.818182 -212.965309 
L 231 -212.377352 
L 228.181818 -211.910313 
L 225.363636 -211.433387 
L 222.545455 -210.950255 
L 219.727273 -209.738705 
L 216.909091 -208.782857 
L 214.090909 -208.083562 
L 211.272727 -207.384268 
L 208.454545 -206.684974 
L 205.636364 -206.047705 
L 202.818182 -205.423882 
L 200 -204.817296 
L 197.181818 -204.233684 
L 194.363636 -203.761094 
L 191.545455 -202.731136 
L 188.727273 -202.021912 
L 185.909091 -201.384978 
L 183.090909 -200.850604 
L 180.272727 -200.445056 
L 177.454545 -200.094222 
L 174.636364 -199.665972 
L 171.818182 -199.446855 
L 169 -198.754553 
L 166.181818 -198.475731 
L 163.363636 -198.205789 
L 160.545455 -198.344913 
L 157.727273 -198.063283 
L 154.909091 -198.054666 
L 152.090909 -197.754033 
L 149.272727 -197.888002 
L 146.454545 -197.874237 
L 143.636364 -198.030387 
L 140.818182 -197.935992 
L 138 -198.141616 
L 135.181818 -198.303249 
L 132.363636 -198.606385 
L 129.545455 -198.974672 
L 126.727273 -199.29995 
L 123.909091 -199.572277 
L 121.090909 -199.895736 
L 118.272727 -200.251296 
L 115.454545 -200.724676 
L 112.636364 -201.129651 
L 109.818182 -201.542611 
L 107 -201.960131 
L 104.181818 -202.465308 
L 101.363636 -203.102105 
L 98.545455 -203.706122 
L 95.727273 -204.130849 
L 92.909091 -204.584004 
L 90.090909 -205.273938 
L 87.272727 -205.809521 
L 84.454545 -206.305537 
L 81.636364 -206.93065 
L 78.818182 -207.402227 
L 76 -207.872741 
L 73.181818 -208.588092 
L 70.363636 -209.533216 
L 67.545455 -209.968641 
L 64.727273 -210.401719 
L 61.909091 -210.834797 
L 59.090909 -211.267875 
L 56.272727 -212.088993 
L 53.454545 -212.629895 
L 50.636364 -213.287591 
L 47.818182 -213.901538 
L 45 -214.452013 
z
" style="stroke: #ffffff; stroke-opacity: 0.15"/>
    </defs>
    <g clip-path="url(#p06ec04592c)">
     <use xlink:href="#me177d01d9b" x="0" y="288" style="fill: #0000ff; fill-opacity: 0.15; stroke: #ffffff; stroke-opacity: 0.15"/>
    </g>
   </g>
   <g id="PathCollection_2">
    <defs>
     <path id="ma6c3ba7b60" d="M 0 1.322876 
C 0.350831 1.322876 0.68734 1.183489 0.935414 0.935414 
C 1.183489 0.68734 1.322876 0.350831 1.322876 0 
C 1.322876 -0.350831 1.183489 -0.68734 0.935414 -0.935414 
C 0.68734 -1.183489 0.350831 -1.322876 0 -1.322876 
C -0.350831 -1.322876 -0.68734 -1.183489 -0.935414 -0.935414 
C -1.183489 -0.68734 -1.322876 -0.350831 -1.322876 0 
C -1.322876 0.350831 -1.183489 0.68734 -0.935414 0.935414 
C -0.68734 1.183489 -0.350831 1.322876 0 1.322876 
z
" style="stroke: #ff0000; stroke-opacity: 0.5"/>
    </defs>
    <g clip-path="url(#p06ec04592c)">
     <use xlink:href="#ma6c3ba7b60" x="111.2625" y="62.887115" style="fill: #ff0000; fill-opacity: 0.5; stroke: #ff0000; stroke-opacity: 0.5"/>
     <use xlink:href="#ma6c3ba7b60" x="139.1625" y="68.969487" style="fill: #ff0000; fill-opacity: 0.5; stroke: #ff0000; stroke-opacity: 0.5"/>
     <use xlink:href="#ma6c3ba7b60" x="90.3375" y="108.504904" style="fill: #ff0000; fill-opacity: 0.5; stroke: #ff0000; stroke-opacity: 0.5"/>
     <use xlink:href="#ma6c3ba7b60" x="62.4375" y="81.134231" style="fill: #ff0000; fill-opacity: 0.5; stroke: #ff0000; stroke-opacity: 0.5"/>
     <use xlink:href="#ma6c3ba7b60" x="184.5" y="135.875577" style="fill: #ff0000; fill-opacity: 0.5; stroke: #ff0000; stroke-opacity: 0.5"/>
     <use xlink:href="#ma6c3ba7b60" x="139.1625" y="196.699295" style="fill: #ff0000; fill-opacity: 0.5; stroke: #ff0000; stroke-opacity: 0.5"/>
     <use xlink:href="#ma6c3ba7b60" x="111.2625" y="114.587276" style="fill: #ff0000; fill-opacity: 0.5; stroke: #ff0000; stroke-opacity: 0.5"/>
     <use xlink:href="#ma6c3ba7b60" x="170.55" y="129.793205" style="fill: #ff0000; fill-opacity: 0.5; stroke: #ff0000; stroke-opacity: 0.5"/>
     <use xlink:href="#ma6c3ba7b60" x="233.325" y="151.081506" style="fill: #ff0000; fill-opacity: 0.5; stroke: #ff0000; stroke-opacity: 0.5"/>
     <use xlink:href="#ma6c3ba7b60" x="160.0875" y="178.452179" style="fill: #ff0000; fill-opacity: 0.5; stroke: #ff0000; stroke-opacity: 0.5"/>
     <use xlink:href="#ma6c3ba7b60" x="201.9375" y="169.328622" style="fill: #ff0000; fill-opacity: 0.5; stroke: #ff0000; stroke-opacity: 0.5"/>
     <use xlink:href="#ma6c3ba7b60" x="135.675" y="105.463718" style="fill: #ff0000; fill-opacity: 0.5; stroke: #ff0000; stroke-opacity: 0.5"/>
     <use xlink:href="#ma6c3ba7b60" x="100.8" y="90.257788" style="fill: #ff0000; fill-opacity: 0.5; stroke: #ff0000; stroke-opacity: 0.5"/>
     <use xlink:href="#ma6c3ba7b60" x="135.675" y="99.381346" style="fill: #ff0000; fill-opacity: 0.5; stroke: #ff0000; stroke-opacity: 0.5"/>
     <use xlink:href="#ma6c3ba7b60" x="317.025" y="120.669647" style="fill: #ff0000; fill-opacity: 0.5; stroke: #ff0000; stroke-opacity: 0.5"/>
     <use xlink:href="#ma6c3ba7b60" x="135.675" y="141.957949" style="fill: #ff0000; fill-opacity: 0.5; stroke: #ff0000; stroke-opacity: 0.5"/>
     <use xlink:href="#ma6c3ba7b60" x="184.5" y="123.710833" style="fill: #ff0000; fill-opacity: 0.5; stroke: #ff0000; stroke-opacity: 0.5"/>
     <use xlink:href="#ma6c3ba7b60" x="128.7" y="208.864038" style="fill: #ff0000; fill-opacity: 0.5; stroke: #ff0000; stroke-opacity: 0.5"/>
     <use xlink:href="#ma6c3ba7b60" x="205.425" y="208.864038" style="fill: #ff0000; fill-opacity: 0.5; stroke: #ff0000; stroke-opacity: 0.5"/>
     <use xlink:href="#ma6c3ba7b60" x="229.8375" y="187.575737" style="fill: #ff0000; fill-opacity: 0.5; stroke: #ff0000; stroke-opacity: 0.5"/>
     <use xlink:href="#ma6c3ba7b60" x="132.1875" y="151.081506" style="fill: #ff0000; fill-opacity: 0.5; stroke: #ff0000; stroke-opacity: 0.5"/>
     <use xlink:href="#ma6c3ba7b60" x="65.925" y="105.463718" style="fill: #ff0000; fill-opacity: 0.5; stroke: #ff0000; stroke-opacity: 0.5"/>
     <use xlink:href="#ma6c3ba7b60" x="236.8125" y="84.175417" style="fill: #ff0000; fill-opacity: 0.5; stroke: #ff0000; stroke-opacity: 0.5"/>
     <use xlink:href="#ma6c3ba7b60" x="187.9875" y="157.163878" style="fill: #ff0000; fill-opacity: 0.5; stroke: #ff0000; stroke-opacity: 0.5"/>
     <use xlink:href="#ma6c3ba7b60" x="118.2375" y="141.957949" style="fill: #ff0000; fill-opacity: 0.5; stroke: #ff0000; stroke-opacity: 0.5"/>
     <use xlink:href="#ma6c3ba7b60" x="160.0875" y="59.845929" style="fill: #ff0000; fill-opacity: 0.5; stroke: #ff0000; stroke-opacity: 0.5"/>
     <use xlink:href="#ma6c3ba7b60" x="76.3875" y="78.093045" style="fill: #ff0000; fill-opacity: 0.5; stroke: #ff0000; stroke-opacity: 0.5"/>
     <use xlink:href="#ma6c3ba7b60" x="79.875" y="105.463718" style="fill: #ff0000; fill-opacity: 0.5; stroke: #ff0000; stroke-opacity: 0.5"/>
     <use xlink:href="#ma6c3ba7b60" x="107.775" y="72.010673" style="fill: #ff0000; fill-opacity: 0.5; stroke: #ff0000; stroke-opacity: 0.5"/>
     <use xlink:href="#ma6c3ba7b60" x="111.2625" y="175.410994" style="fill: #ff0000; fill-opacity: 0.5; stroke: #ff0000; stroke-opacity: 0.5"/>
    </g>
   </g>
   <g id="PolyCollection_2">
    <defs>
     <path id="m9f4c3727f5" d="M 45 -220.944038 
L 45 -162.629915 
L 47.818182 -162.665599 
L 50.636364 -162.352609 
L 53.454545 -161.884886 
L 56.272727 -161.601611 
L 59.090909 -161.07105 
L 61.909091 -160.736703 
L 64.727273 -160.38375 
L 67.545455 -160.09364 
L 70.363636 -159.803531 
L 73.181818 -159.513421 
L 76 -159.223311 
L 78.818182 -158.933201 
L 81.636364 -158.643091 
L 84.454545 -158.358105 
L 87.272727 -158.079225 
L 90.090909 -157.800345 
L 92.909091 -157.521465 
L 95.727273 -157.235015 
L 98.545455 -156.944055 
L 101.363636 -156.510525 
L 104.181818 -155.761766 
L 107 -155.093963 
L 109.818182 -154.652475 
L 112.636364 -154.167943 
L 115.454545 -153.644135 
L 118.272727 -153.564625 
L 121.090909 -152.850075 
L 123.909091 -152.09988 
L 126.727273 -151.40923 
L 129.545455 -151.095585 
L 132.363636 -149.914108 
L 135.181818 -149.416813 
L 138 -148.560908 
L 140.818182 -147.370604 
L 143.636364 -146.47406 
L 146.454545 -145.17655 
L 149.272727 -143.892778 
L 152.090909 -142.600851 
L 154.909091 -141.666734 
L 157.727273 -140.385811 
L 160.545455 -139.341477 
L 163.363636 -137.835438 
L 166.181818 -136.189022 
L 169 -134.93356 
L 171.818182 -133.886964 
L 174.636364 -132.478395 
L 177.454545 -130.971107 
L 180.272727 -129.777066 
L 183.090909 -128.385701 
L 185.909091 -127.029102 
L 188.727273 -125.459795 
L 191.545455 -123.765553 
L 194.363636 -122.017187 
L 197.181818 -120.148577 
L 200 -118.60105 
L 202.818182 -117.008921 
L 205.636364 -115.640953 
L 208.454545 -113.873272 
L 211.272727 -112.052342 
L 214.090909 -110.596662 
L 216.909091 -108.945929 
L 219.727273 -107.052085 
L 222.545455 -105.16349 
L 225.363636 -103.466001 
L 228.181818 -101.745951 
L 231 -99.946489 
L 233.818182 -98.147027 
L 236.636364 -96.347566 
L 239.454545 -94.548104 
L 242.272727 -92.748642 
L 245.090909 -90.949181 
L 247.909091 -89.149719 
L 250.727273 -87.350257 
L 253.545455 -85.550795 
L 256.363636 -83.753602 
L 259.181818 -82.171889 
L 262 -80.626593 
L 264.818182 -78.641863 
L 267.636364 -76.747861 
L 270.454545 -75.090702 
L 273.272727 -73.436547 
L 276.090909 -71.782393 
L 278.909091 -70.128238 
L 281.727273 -68.413324 
L 284.545455 -66.635684 
L 287.363636 -64.858044 
L 290.181818 -63.080405 
L 293 -61.204538 
L 295.818182 -59.266086 
L 298.636364 -57.330763 
L 301.454545 -55.599653 
L 304.272727 -53.98168 
L 307.090909 -52.367517 
L 309.909091 -50.636926 
L 312.727273 -48.859287 
L 315.545455 -47.081647 
L 318.363636 -45.307764 
L 321.181818 -43.533882 
L 324 -41.76 
L 324 -156.703145 
L 324 -156.703145 
L 321.181818 -156.773254 
L 318.363636 -156.836608 
L 315.545455 -157.036739 
L 312.727273 -157.22815 
L 309.909091 -157.292473 
L 307.090909 -157.351803 
L 304.272727 -157.459391 
L 301.454545 -157.739821 
L 298.636364 -157.823474 
L 295.818182 -157.994459 
L 293 -158.306923 
L 290.181818 -158.49997 
L 287.363636 -158.699247 
L 284.545455 -158.997254 
L 281.727273 -159.408669 
L 278.909091 -159.880774 
L 276.090909 -160.196884 
L 273.272727 -160.511516 
L 270.454545 -160.826148 
L 267.636364 -161.14078 
L 264.818182 -161.455412 
L 262 -161.771423 
L 259.181818 -162.04768 
L 256.363636 -162.289081 
L 253.545455 -162.486562 
L 250.727273 -162.824912 
L 247.909091 -163.163262 
L 245.090909 -163.464586 
L 242.272727 -163.554242 
L 239.454545 -163.758913 
L 236.636364 -164.056191 
L 233.818182 -164.350849 
L 231 -164.648565 
L 228.181818 -165.073544 
L 225.363636 -165.356147 
L 222.545455 -165.539139 
L 219.727273 -165.766879 
L 216.909091 -166.085051 
L 214.090909 -166.382439 
L 211.272727 -166.727822 
L 208.454545 -167.108604 
L 205.636364 -167.471184 
L 202.818182 -167.760158 
L 200 -168.04326 
L 197.181818 -168.330478 
L 194.363636 -168.701163 
L 191.545455 -169.032069 
L 188.727273 -169.494341 
L 185.909091 -170.228134 
L 183.090909 -170.622527 
L 180.272727 -171.26758 
L 177.454545 -171.659262 
L 174.636364 -172.33962 
L 171.818182 -172.940883 
L 169 -173.379601 
L 166.181818 -173.89173 
L 163.363636 -174.371181 
L 160.545455 -174.690561 
L 157.727273 -175.131435 
L 154.909091 -175.574027 
L 152.090909 -176.172417 
L 149.272727 -176.98575 
L 146.454545 -177.508221 
L 143.636364 -178.031696 
L 140.818182 -178.589078 
L 138 -179.655504 
L 135.181818 -180.381597 
L 132.363636 -181.263872 
L 129.545455 -181.850541 
L 126.727273 -182.733466 
L 123.909091 -183.378175 
L 121.090909 -184.498642 
L 118.272727 -185.450014 
L 115.454545 -186.262378 
L 112.636364 -187.171761 
L 109.818182 -188.289316 
L 107 -189.504233 
L 104.181818 -190.818186 
L 101.363636 -192.030889 
L 98.545455 -193.253909 
L 95.727273 -194.22461 
L 92.909091 -195.685761 
L 90.090909 -196.728019 
L 87.272727 -198.127092 
L 84.454545 -199.352779 
L 81.636364 -201.113907 
L 78.818182 -202.686894 
L 76 -204.207094 
L 73.181818 -205.565307 
L 70.363636 -207.01805 
L 67.545455 -208.339921 
L 64.727273 -209.896815 
L 61.909091 -211.401031 
L 59.090909 -213.05722 
L 56.272727 -214.603957 
L 53.454545 -215.995445 
L 50.636364 -217.368852 
L 47.818182 -219.232183 
L 45 -220.944038 
z
" style="stroke: #ffffff; stroke-opacity: 0.15"/>
    </defs>
    <g clip-path="url(#p06ec04592c)">
     <use xlink:href="#m9f4c3727f5" x="0" y="288" style="fill: #ff0000; fill-opacity: 0.15; stroke: #ffffff; stroke-opacity: 0.15"/>
    </g>
   </g>
   <g id="line2d_9">
    <path d="M 45 98.19974 
L 47.818182 98.242008 
L 50.636364 98.284275 
L 53.454545 98.326543 
L 56.272727 98.36881 
L 59.090909 98.411077 
L 61.909091 98.453345 
L 64.727273 98.495612 
L 67.545455 98.537879 
L 70.363636 98.580147 
L 73.181818 98.622414 
L 76 98.664681 
L 78.818182 98.706949 
L 81.636364 98.749216 
L 84.454545 98.791483 
L 87.272727 98.833751 
L 90.090909 98.876018 
L 92.909091 98.918285 
L 95.727273 98.960553 
L 98.545455 99.00282 
L 101.363636 99.045088 
L 104.181818 99.087355 
L 107 99.129622 
L 109.818182 99.17189 
L 112.636364 99.214157 
L 115.454545 99.256424 
L 118.272727 99.298692 
L 121.090909 99.340959 
L 123.909091 99.383226 
L 126.727273 99.425494 
L 129.545455 99.467761 
L 132.363636 99.510028 
L 135.181818 99.552296 
L 138 99.594563 
L 140.818182 99.63683 
L 143.636364 99.679098 
L 146.454545 99.721365 
L 149.272727 99.763632 
L 152.090909 99.8059 
L 154.909091 99.848167 
L 157.727273 99.890435 
L 160.545455 99.932702 
L 163.363636 99.974969 
L 166.181818 100.017237 
L 169 100.059504 
L 171.818182 100.101771 
L 174.636364 100.144039 
L 177.454545 100.186306 
L 180.272727 100.228573 
L 183.090909 100.270841 
L 185.909091 100.313108 
L 188.727273 100.355375 
L 191.545455 100.397643 
L 194.363636 100.43991 
L 197.181818 100.482177 
L 200 100.524445 
L 202.818182 100.566712 
L 205.636364 100.608979 
L 208.454545 100.651247 
L 211.272727 100.693514 
L 214.090909 100.735782 
L 216.909091 100.778049 
L 219.727273 100.820316 
L 222.545455 100.862584 
L 225.363636 100.904851 
L 228.181818 100.947118 
L 231 100.989386 
L 233.818182 101.031653 
L 236.636364 101.07392 
L 239.454545 101.116188 
L 242.272727 101.158455 
L 245.090909 101.200722 
L 247.909091 101.24299 
L 250.727273 101.285257 
L 253.545455 101.327524 
L 256.363636 101.369792 
L 259.181818 101.412059 
L 262 101.454327 
L 264.818182 101.496594 
L 267.636364 101.538861 
L 270.454545 101.581129 
L 273.272727 101.623396 
L 276.090909 101.665663 
L 278.909091 101.707931 
L 281.727273 101.750198 
L 284.545455 101.792465 
L 287.363636 101.834733 
L 290.181818 101.877 
L 293 101.919267 
L 295.818182 101.961535 
L 298.636364 102.003802 
L 301.454545 102.046069 
L 304.272727 102.088337 
L 307.090909 102.130604 
L 309.909091 102.172871 
L 312.727273 102.215139 
L 315.545455 102.257406 
L 318.363636 102.299674 
L 321.181818 102.341941 
L 324 102.384208 
" clip-path="url(#p06ec04592c)" style="fill: none; stroke: #0000ff; stroke-width: 2.25; stroke-linecap: round"/>
   </g>
   <g id="line2d_10">
    <path d="M 45 97.641866 
L 47.818182 98.400562 
L 50.636364 99.159259 
L 53.454545 99.917956 
L 56.272727 100.676653 
L 59.090909 101.43535 
L 61.909091 102.194047 
L 64.727273 102.952744 
L 67.545455 103.711441 
L 70.363636 104.470138 
L 73.181818 105.228835 
L 76 105.987532 
L 78.818182 106.746229 
L 81.636364 107.504926 
L 84.454545 108.263623 
L 87.272727 109.02232 
L 90.090909 109.781017 
L 92.909091 110.539714 
L 95.727273 111.29841 
L 98.545455 112.057107 
L 101.363636 112.815804 
L 104.181818 113.574501 
L 107 114.333198 
L 109.818182 115.091895 
L 112.636364 115.850592 
L 115.454545 116.609289 
L 118.272727 117.367986 
L 121.090909 118.126683 
L 123.909091 118.88538 
L 126.727273 119.644077 
L 129.545455 120.402774 
L 132.363636 121.161471 
L 135.181818 121.920168 
L 138 122.678865 
L 140.818182 123.437562 
L 143.636364 124.196259 
L 146.454545 124.954955 
L 149.272727 125.713652 
L 152.090909 126.472349 
L 154.909091 127.231046 
L 157.727273 127.989743 
L 160.545455 128.74844 
L 163.363636 129.507137 
L 166.181818 130.265834 
L 169 131.024531 
L 171.818182 131.783228 
L 174.636364 132.541925 
L 177.454545 133.300622 
L 180.272727 134.059319 
L 183.090909 134.818016 
L 185.909091 135.576713 
L 188.727273 136.33541 
L 191.545455 137.094107 
L 194.363636 137.852803 
L 197.181818 138.6115 
L 200 139.370197 
L 202.818182 140.128894 
L 205.636364 140.887591 
L 208.454545 141.646288 
L 211.272727 142.404985 
L 214.090909 143.163682 
L 216.909091 143.922379 
L 219.727273 144.681076 
L 222.545455 145.439773 
L 225.363636 146.19847 
L 228.181818 146.957167 
L 231 147.715864 
L 233.818182 148.474561 
L 236.636364 149.233258 
L 239.454545 149.991955 
L 242.272727 150.750651 
L 245.090909 151.509348 
L 247.909091 152.268045 
L 250.727273 153.026742 
L 253.545455 153.785439 
L 256.363636 154.544136 
L 259.181818 155.302833 
L 262 156.06153 
L 264.818182 156.820227 
L 267.636364 157.578924 
L 270.454545 158.337621 
L 273.272727 159.096318 
L 276.090909 159.855015 
L 278.909091 160.613712 
L 281.727273 161.372409 
L 284.545455 162.131106 
L 287.363636 162.889803 
L 290.181818 163.6485 
L 293 164.407196 
L 295.818182 165.165893 
L 298.636364 165.92459 
L 301.454545 166.683287 
L 304.272727 167.441984 
L 307.090909 168.200681 
L 309.909091 168.959378 
L 312.727273 169.718075 
L 315.545455 170.476772 
L 318.363636 171.235469 
L 321.181818 171.994166 
L 324 172.752863 
" clip-path="url(#p06ec04592c)" style="fill: none; stroke: #ff0000; stroke-width: 2.25; stroke-linecap: round"/>
   </g>
   <g id="patch_3">
    <path d="M 45 256.32 
L 45 34.56 
" style="fill: none; stroke: #ffffff; stroke-width: 0.8; stroke-linejoin: miter; stroke-linecap: square"/>
   </g>
   <g id="patch_4">
    <path d="M 324 256.32 
L 324 34.56 
" style="fill: none; stroke: #ffffff; stroke-width: 0.8; stroke-linejoin: miter; stroke-linecap: square"/>
   </g>
   <g id="patch_5">
    <path d="M 45 256.32 
L 324 256.32 
" style="fill: none; stroke: #ffffff; stroke-width: 0.8; stroke-linejoin: miter; stroke-linecap: square"/>
   </g>
   <g id="patch_6">
    <path d="M 45 34.56 
L 324 34.56 
" style="fill: none; stroke: #ffffff; stroke-width: 0.8; stroke-linejoin: miter; stroke-linecap: square"/>
   </g>
   <g id="text_9">
    <!-- STAIT -->
    <g style="fill: #262626" transform="translate(159.166406 28.56)scale(0.18 -0.18)">
     <defs>
      <path id="Arial-BoldMT-53" d="M 231 1491 
L 1131 1578 
Q 1213 1125 1461 912 
Q 1709 700 2131 700 
Q 2578 700 2804 889 
Q 3031 1078 3031 1331 
Q 3031 1494 2936 1608 
Q 2841 1722 2603 1806 
Q 2441 1863 1863 2006 
Q 1119 2191 819 2459 
Q 397 2838 397 3381 
Q 397 3731 595 4036 
Q 794 4341 1167 4500 
Q 1541 4659 2069 4659 
Q 2931 4659 3367 4281 
Q 3803 3903 3825 3272 
L 2900 3231 
Q 2841 3584 2645 3739 
Q 2450 3894 2059 3894 
Q 1656 3894 1428 3728 
Q 1281 3622 1281 3444 
Q 1281 3281 1419 3166 
Q 1594 3019 2269 2859 
Q 2944 2700 3267 2529 
Q 3591 2359 3773 2064 
Q 3956 1769 3956 1334 
Q 3956 941 3737 597 
Q 3519 253 3119 86 
Q 2719 -81 2122 -81 
Q 1253 -81 787 320 
Q 322 722 231 1491 
z
" transform="scale(0.015625)"/>
      <path id="Arial-BoldMT-54" d="M 1497 0 
L 1497 3806 
L 138 3806 
L 138 4581 
L 3778 4581 
L 3778 3806 
L 2422 3806 
L 2422 0 
L 1497 0 
z
" transform="scale(0.015625)"/>
      <path id="Arial-BoldMT-41" d="M 4597 0 
L 3591 0 
L 3191 1041 
L 1359 1041 
L 981 0 
L 0 0 
L 1784 4581 
L 2763 4581 
L 4597 0 
z
M 2894 1813 
L 2263 3513 
L 1644 1813 
L 2894 1813 
z
" transform="scale(0.015625)"/>
      <path id="Arial-BoldMT-49" d="M 438 0 
L 438 4581 
L 1363 4581 
L 1363 0 
L 438 0 
z
" transform="scale(0.015625)"/>
     </defs>
     <use xlink:href="#Arial-BoldMT-53"/>
     <use xlink:href="#Arial-BoldMT-54" x="66.699219"/>
     <use xlink:href="#Arial-BoldMT-41" x="120.408203"/>
     <use xlink:href="#Arial-BoldMT-49" x="192.625"/>
     <use xlink:href="#Arial-BoldMT-54" x="220.408203"/>
    </g>
   </g>
  </g>
 </g>
 <defs>
  <clipPath id="p06ec04592c">
   <rect x="45" y="34.56" width="279" height="221.76"/>
  </clipPath>
 </defs>
</svg>
