<?xml version="1.0" encoding="utf-8" standalone="no"?>
<!DOCTYPE svg PUBLIC "-//W3C//DTD SVG 1.1//EN"
  "http://www.w3.org/Graphics/SVG/1.1/DTD/svg11.dtd">
<svg xmlns:xlink="http://www.w3.org/1999/xlink" width="360pt" height="288pt" viewBox="0 0 360 288" xmlns="http://www.w3.org/2000/svg" version="1.1">
 <metadata>
  <rdf:RDF xmlns:dc="http://purl.org/dc/elements/1.1/" xmlns:cc="http://creativecommons.org/ns#" xmlns:rdf="http://www.w3.org/1999/02/22-rdf-syntax-ns#">
   <cc:Work>
    <dc:type rdf:resource="http://purl.org/dc/dcmitype/StillImage"/>
    <dc:date>2022-11-10T09:39:25.487692</dc:date>
    <dc:format>image/svg+xml</dc:format>
    <dc:creator>
     <cc:Agent>
      <dc:title>Matplotlib v3.5.2, https://matplotlib.org/</dc:title>
     </cc:Agent>
    </dc:creator>
   </cc:Work>
  </rdf:RDF>
 </metadata>
 <defs>
  <style type="text/css">*{stroke-linejoin: round; stroke-linecap: butt}</style>
 </defs>
 <g id="figure_1">
  <g id="patch_1">
   <path d="M 0 288 
L 360 288 
L 360 0 
L 0 0 
z
" style="fill: #ffffff"/>
  </g>
  <g id="axes_1">
   <g id="patch_2">
    <path d="M 45 256.32 
L 324 256.32 
L 324 34.56 
L 45 34.56 
z
" style="fill: #eaeaf2"/>
   </g>
   <g id="matplotlib.axis_1">
    <g id="xtick_1">
     <g id="line2d_1">
      <path d="M 45 256.32 
L 45 34.56 
" clip-path="url(#pc3b20c1bda)" style="fill: none; stroke: #ffffff; stroke-width: 0.8; stroke-linecap: round"/>
     </g>
     <g id="text_1">
      <!-- 0 -->
      <g style="fill: #262626" transform="translate(41.107344 273.340937)scale(0.14 -0.14)">
       <defs>
        <path id="ArialMT-30" d="M 266 2259 
Q 266 3072 433 3567 
Q 600 4063 929 4331 
Q 1259 4600 1759 4600 
Q 2128 4600 2406 4451 
Q 2684 4303 2865 4023 
Q 3047 3744 3150 3342 
Q 3253 2941 3253 2259 
Q 3253 1453 3087 958 
Q 2922 463 2592 192 
Q 2263 -78 1759 -78 
Q 1097 -78 719 397 
Q 266 969 266 2259 
z
M 844 2259 
Q 844 1131 1108 757 
Q 1372 384 1759 384 
Q 2147 384 2411 759 
Q 2675 1134 2675 2259 
Q 2675 3391 2411 3762 
Q 2147 4134 1753 4134 
Q 1366 4134 1134 3806 
Q 844 3388 844 2259 
z
" transform="scale(0.015625)"/>
       </defs>
       <use xlink:href="#ArialMT-30"/>
      </g>
     </g>
    </g>
    <g id="xtick_2">
     <g id="line2d_2">
      <path d="M 100.8 256.32 
L 100.8 34.56 
" clip-path="url(#pc3b20c1bda)" style="fill: none; stroke: #ffffff; stroke-width: 0.8; stroke-linecap: round"/>
     </g>
     <g id="text_2">
      <!-- 20 -->
      <g style="fill: #262626" transform="translate(93.014687 273.340937)scale(0.14 -0.14)">
       <defs>
        <path id="ArialMT-32" d="M 3222 541 
L 3222 0 
L 194 0 
Q 188 203 259 391 
Q 375 700 629 1000 
Q 884 1300 1366 1694 
Q 2113 2306 2375 2664 
Q 2638 3022 2638 3341 
Q 2638 3675 2398 3904 
Q 2159 4134 1775 4134 
Q 1369 4134 1125 3890 
Q 881 3647 878 3216 
L 300 3275 
Q 359 3922 746 4261 
Q 1134 4600 1788 4600 
Q 2447 4600 2831 4234 
Q 3216 3869 3216 3328 
Q 3216 3053 3103 2787 
Q 2991 2522 2730 2228 
Q 2469 1934 1863 1422 
Q 1356 997 1212 845 
Q 1069 694 975 541 
L 3222 541 
z
" transform="scale(0.015625)"/>
       </defs>
       <use xlink:href="#ArialMT-32"/>
       <use xlink:href="#ArialMT-30" x="55.615234"/>
      </g>
     </g>
    </g>
    <g id="xtick_3">
     <g id="line2d_3">
      <path d="M 156.6 256.32 
L 156.6 34.56 
" clip-path="url(#pc3b20c1bda)" style="fill: none; stroke: #ffffff; stroke-width: 0.8; stroke-linecap: round"/>
     </g>
     <g id="text_3">
      <!-- 40 -->
      <g style="fill: #262626" transform="translate(148.814687 273.340937)scale(0.14 -0.14)">
       <defs>
        <path id="ArialMT-34" d="M 2069 0 
L 2069 1097 
L 81 1097 
L 81 1613 
L 2172 4581 
L 2631 4581 
L 2631 1613 
L 3250 1613 
L 3250 1097 
L 2631 1097 
L 2631 0 
L 2069 0 
z
M 2069 1613 
L 2069 3678 
L 634 1613 
L 2069 1613 
z
" transform="scale(0.015625)"/>
       </defs>
       <use xlink:href="#ArialMT-34"/>
       <use xlink:href="#ArialMT-30" x="55.615234"/>
      </g>
     </g>
    </g>
    <g id="xtick_4">
     <g id="line2d_4">
      <path d="M 212.4 256.32 
L 212.4 34.56 
" clip-path="url(#pc3b20c1bda)" style="fill: none; stroke: #ffffff; stroke-width: 0.8; stroke-linecap: round"/>
     </g>
     <g id="text_4">
      <!-- 60 -->
      <g style="fill: #262626" transform="translate(204.614688 273.340937)scale(0.14 -0.14)">
       <defs>
        <path id="ArialMT-36" d="M 3184 3459 
L 2625 3416 
Q 2550 3747 2413 3897 
Q 2184 4138 1850 4138 
Q 1581 4138 1378 3988 
Q 1113 3794 959 3422 
Q 806 3050 800 2363 
Q 1003 2672 1297 2822 
Q 1591 2972 1913 2972 
Q 2475 2972 2870 2558 
Q 3266 2144 3266 1488 
Q 3266 1056 3080 686 
Q 2894 316 2569 119 
Q 2244 -78 1831 -78 
Q 1128 -78 684 439 
Q 241 956 241 2144 
Q 241 3472 731 4075 
Q 1159 4600 1884 4600 
Q 2425 4600 2770 4297 
Q 3116 3994 3184 3459 
z
M 888 1484 
Q 888 1194 1011 928 
Q 1134 663 1356 523 
Q 1578 384 1822 384 
Q 2178 384 2434 671 
Q 2691 959 2691 1453 
Q 2691 1928 2437 2201 
Q 2184 2475 1800 2475 
Q 1419 2475 1153 2201 
Q 888 1928 888 1484 
z
" transform="scale(0.015625)"/>
       </defs>
       <use xlink:href="#ArialMT-36"/>
       <use xlink:href="#ArialMT-30" x="55.615234"/>
      </g>
     </g>
    </g>
    <g id="xtick_5">
     <g id="line2d_5">
      <path d="M 268.2 256.32 
L 268.2 34.56 
" clip-path="url(#pc3b20c1bda)" style="fill: none; stroke: #ffffff; stroke-width: 0.8; stroke-linecap: round"/>
     </g>
     <g id="text_5">
      <!-- 80 -->
      <g style="fill: #262626" transform="translate(260.414688 273.340937)scale(0.14 -0.14)">
       <defs>
        <path id="ArialMT-38" d="M 1131 2484 
Q 781 2613 612 2850 
Q 444 3088 444 3419 
Q 444 3919 803 4259 
Q 1163 4600 1759 4600 
Q 2359 4600 2725 4251 
Q 3091 3903 3091 3403 
Q 3091 3084 2923 2848 
Q 2756 2613 2416 2484 
Q 2838 2347 3058 2040 
Q 3278 1734 3278 1309 
Q 3278 722 2862 322 
Q 2447 -78 1769 -78 
Q 1091 -78 675 323 
Q 259 725 259 1325 
Q 259 1772 486 2073 
Q 713 2375 1131 2484 
z
M 1019 3438 
Q 1019 3113 1228 2906 
Q 1438 2700 1772 2700 
Q 2097 2700 2305 2904 
Q 2513 3109 2513 3406 
Q 2513 3716 2298 3927 
Q 2084 4138 1766 4138 
Q 1444 4138 1231 3931 
Q 1019 3725 1019 3438 
z
M 838 1322 
Q 838 1081 952 856 
Q 1066 631 1291 507 
Q 1516 384 1775 384 
Q 2178 384 2440 643 
Q 2703 903 2703 1303 
Q 2703 1709 2433 1975 
Q 2163 2241 1756 2241 
Q 1359 2241 1098 1978 
Q 838 1716 838 1322 
z
" transform="scale(0.015625)"/>
       </defs>
       <use xlink:href="#ArialMT-38"/>
       <use xlink:href="#ArialMT-30" x="55.615234"/>
      </g>
     </g>
    </g>
    <g id="xtick_6">
     <g id="line2d_6">
      <path d="M 324 256.32 
L 324 34.56 
" clip-path="url(#pc3b20c1bda)" style="fill: none; stroke: #ffffff; stroke-width: 0.8; stroke-linecap: round"/>
     </g>
     <g id="text_6">
      <!-- 100 -->
      <g style="fill: #262626" transform="translate(312.322031 273.340937)scale(0.14 -0.14)">
       <defs>
        <path id="ArialMT-31" d="M 2384 0 
L 1822 0 
L 1822 3584 
Q 1619 3391 1289 3197 
Q 959 3003 697 2906 
L 697 3450 
Q 1169 3672 1522 3987 
Q 1875 4303 2022 4600 
L 2384 4600 
L 2384 0 
z
" transform="scale(0.015625)"/>
       </defs>
       <use xlink:href="#ArialMT-31"/>
       <use xlink:href="#ArialMT-30" x="55.615234"/>
       <use xlink:href="#ArialMT-30" x="111.230469"/>
      </g>
     </g>
    </g>
   </g>
   <g id="matplotlib.axis_2">
    <g id="ytick_1">
     <g id="line2d_7">
      <path d="M 45 220.327209 
L 324 220.327209 
" clip-path="url(#pc3b20c1bda)" style="fill: none; stroke: #ffffff; stroke-width: 0.8; stroke-linecap: round"/>
     </g>
     <g id="text_7">
      <!-- −30 -->
      <g style="fill: #262626" transform="translate(14.2525 225.337678)scale(0.14 -0.14)">
       <defs>
        <path id="ArialMT-2212" d="M 3381 1997 
L 356 1997 
L 356 2522 
L 3381 2522 
L 3381 1997 
z
" transform="scale(0.015625)"/>
        <path id="ArialMT-33" d="M 269 1209 
L 831 1284 
Q 928 806 1161 595 
Q 1394 384 1728 384 
Q 2125 384 2398 659 
Q 2672 934 2672 1341 
Q 2672 1728 2419 1979 
Q 2166 2231 1775 2231 
Q 1616 2231 1378 2169 
L 1441 2663 
Q 1497 2656 1531 2656 
Q 1891 2656 2178 2843 
Q 2466 3031 2466 3422 
Q 2466 3731 2256 3934 
Q 2047 4138 1716 4138 
Q 1388 4138 1169 3931 
Q 950 3725 888 3313 
L 325 3413 
Q 428 3978 793 4289 
Q 1159 4600 1703 4600 
Q 2078 4600 2393 4439 
Q 2709 4278 2876 4000 
Q 3044 3722 3044 3409 
Q 3044 3113 2884 2869 
Q 2725 2625 2413 2481 
Q 2819 2388 3044 2092 
Q 3269 1797 3269 1353 
Q 3269 753 2831 336 
Q 2394 -81 1725 -81 
Q 1122 -81 723 278 
Q 325 638 269 1209 
z
" transform="scale(0.015625)"/>
       </defs>
       <use xlink:href="#ArialMT-2212"/>
       <use xlink:href="#ArialMT-33" x="58.398438"/>
       <use xlink:href="#ArialMT-30" x="114.013672"/>
      </g>
     </g>
    </g>
    <g id="ytick_2">
     <g id="line2d_8">
      <path d="M 45 176.405407 
L 324 176.405407 
" clip-path="url(#pc3b20c1bda)" style="fill: none; stroke: #ffffff; stroke-width: 0.8; stroke-linecap: round"/>
     </g>
     <g id="text_8">
      <!-- −20 -->
      <g style="fill: #262626" transform="translate(14.2525 181.415876)scale(0.14 -0.14)">
       <use xlink:href="#ArialMT-2212"/>
       <use xlink:href="#ArialMT-32" x="58.398438"/>
       <use xlink:href="#ArialMT-30" x="114.013672"/>
      </g>
     </g>
    </g>
    <g id="ytick_3">
     <g id="line2d_9">
      <path d="M 45 132.483605 
L 324 132.483605 
" clip-path="url(#pc3b20c1bda)" style="fill: none; stroke: #ffffff; stroke-width: 0.8; stroke-linecap: round"/>
     </g>
     <g id="text_9">
      <!-- −10 -->
      <g style="fill: #262626" transform="translate(14.2525 137.494073)scale(0.14 -0.14)">
       <use xlink:href="#ArialMT-2212"/>
       <use xlink:href="#ArialMT-31" x="58.398438"/>
       <use xlink:href="#ArialMT-30" x="114.013672"/>
      </g>
     </g>
    </g>
    <g id="ytick_4">
     <g id="line2d_10">
      <path d="M 45 88.561802 
L 324 88.561802 
" clip-path="url(#pc3b20c1bda)" style="fill: none; stroke: #ffffff; stroke-width: 0.8; stroke-linecap: round"/>
     </g>
     <g id="text_10">
      <!-- 0 -->
      <g style="fill: #262626" transform="translate(30.214688 93.572271)scale(0.14 -0.14)">
       <use xlink:href="#ArialMT-30"/>
      </g>
     </g>
    </g>
    <g id="ytick_5">
     <g id="line2d_11">
      <path d="M 45 44.64 
L 324 44.64 
" clip-path="url(#pc3b20c1bda)" style="fill: none; stroke: #ffffff; stroke-width: 0.8; stroke-linecap: round"/>
     </g>
     <g id="text_11">
      <!-- 10 -->
      <g style="fill: #262626" transform="translate(22.429375 49.650469)scale(0.14 -0.14)">
       <use xlink:href="#ArialMT-31"/>
       <use xlink:href="#ArialMT-30" x="55.615234"/>
      </g>
     </g>
    </g>
   </g>
   <g id="PathCollection_1">
    <defs>
     <path id="m9203d06cfc" d="M 0 1.322876 
C 0.350831 1.322876 0.68734 1.183489 0.935414 0.935414 
C 1.183489 0.68734 1.322876 0.350831 1.322876 0 
C 1.322876 -0.350831 1.183489 -0.68734 0.935414 -0.935414 
C 0.68734 -1.183489 0.350831 -1.322876 0 -1.322876 
C -0.350831 -1.322876 -0.68734 -1.183489 -0.935414 -0.935414 
C -1.183489 -0.68734 -1.322876 -0.350831 -1.322876 0 
C -1.322876 0.350831 -1.183489 0.68734 -0.935414 0.935414 
C -0.68734 1.183489 -0.350831 1.322876 0 1.322876 
z
" style="stroke: #0000ff; stroke-opacity: 0.5"/>
    </defs>
    <g clip-path="url(#pc3b20c1bda)">
     <use xlink:href="#m9203d06cfc" x="72.9" y="176.405407" style="fill: #0000ff; fill-opacity: 0.5; stroke: #0000ff; stroke-opacity: 0.5"/>
     <use xlink:href="#m9203d06cfc" x="187.29" y="123.699244" style="fill: #0000ff; fill-opacity: 0.5; stroke: #0000ff; stroke-opacity: 0.5"/>
     <use xlink:href="#m9203d06cfc" x="128.7" y="150.052326" style="fill: #0000ff; fill-opacity: 0.5; stroke: #0000ff; stroke-opacity: 0.5"/>
     <use xlink:href="#m9203d06cfc" x="201.24" y="106.130523" style="fill: #0000ff; fill-opacity: 0.5; stroke: #0000ff; stroke-opacity: 0.5"/>
     <use xlink:href="#m9203d06cfc" x="137.07" y="92.953983" style="fill: #0000ff; fill-opacity: 0.5; stroke: #0000ff; stroke-opacity: 0.5"/>
     <use xlink:href="#m9203d06cfc" x="156.6" y="132.483605" style="fill: #0000ff; fill-opacity: 0.5; stroke: #0000ff; stroke-opacity: 0.5"/>
     <use xlink:href="#m9203d06cfc" x="142.65" y="119.307064" style="fill: #0000ff; fill-opacity: 0.5; stroke: #0000ff; stroke-opacity: 0.5"/>
     <use xlink:href="#m9203d06cfc" x="128.7" y="97.346163" style="fill: #0000ff; fill-opacity: 0.5; stroke: #0000ff; stroke-opacity: 0.5"/>
     <use xlink:href="#m9203d06cfc" x="53.37" y="53.42436" style="fill: #0000ff; fill-opacity: 0.5; stroke: #0000ff; stroke-opacity: 0.5"/>
     <use xlink:href="#m9203d06cfc" x="184.5" y="163.228866" style="fill: #0000ff; fill-opacity: 0.5; stroke: #0000ff; stroke-opacity: 0.5"/>
     <use xlink:href="#m9203d06cfc" x="254.25" y="119.307064" style="fill: #0000ff; fill-opacity: 0.5; stroke: #0000ff; stroke-opacity: 0.5"/>
     <use xlink:href="#m9203d06cfc" x="58.95" y="92.953983" style="fill: #0000ff; fill-opacity: 0.5; stroke: #0000ff; stroke-opacity: 0.5"/>
     <use xlink:href="#m9203d06cfc" x="184.5" y="145.660145" style="fill: #0000ff; fill-opacity: 0.5; stroke: #0000ff; stroke-opacity: 0.5"/>
     <use xlink:href="#m9203d06cfc" x="58.95" y="97.346163" style="fill: #0000ff; fill-opacity: 0.5; stroke: #0000ff; stroke-opacity: 0.5"/>
     <use xlink:href="#m9203d06cfc" x="45" y="97.346163" style="fill: #0000ff; fill-opacity: 0.5; stroke: #0000ff; stroke-opacity: 0.5"/>
     <use xlink:href="#m9203d06cfc" x="100.8" y="145.660145" style="fill: #0000ff; fill-opacity: 0.5; stroke: #0000ff; stroke-opacity: 0.5"/>
     <use xlink:href="#m9203d06cfc" x="72.9" y="62.208721" style="fill: #0000ff; fill-opacity: 0.5; stroke: #0000ff; stroke-opacity: 0.5"/>
     <use xlink:href="#m9203d06cfc" x="72.9" y="75.385262" style="fill: #0000ff; fill-opacity: 0.5; stroke: #0000ff; stroke-opacity: 0.5"/>
     <use xlink:href="#m9203d06cfc" x="100.8" y="75.385262" style="fill: #0000ff; fill-opacity: 0.5; stroke: #0000ff; stroke-opacity: 0.5"/>
     <use xlink:href="#m9203d06cfc" x="128.7" y="132.483605" style="fill: #0000ff; fill-opacity: 0.5; stroke: #0000ff; stroke-opacity: 0.5"/>
     <use xlink:href="#m9203d06cfc" x="86.85" y="97.346163" style="fill: #0000ff; fill-opacity: 0.5; stroke: #0000ff; stroke-opacity: 0.5"/>
     <use xlink:href="#m9203d06cfc" x="72.9" y="53.42436" style="fill: #0000ff; fill-opacity: 0.5; stroke: #0000ff; stroke-opacity: 0.5"/>
     <use xlink:href="#m9203d06cfc" x="114.75" y="141.267965" style="fill: #0000ff; fill-opacity: 0.5; stroke: #0000ff; stroke-opacity: 0.5"/>
     <use xlink:href="#m9203d06cfc" x="229.14" y="189.581948" style="fill: #0000ff; fill-opacity: 0.5; stroke: #0000ff; stroke-opacity: 0.5"/>
     <use xlink:href="#m9203d06cfc" x="47.79" y="106.130523" style="fill: #0000ff; fill-opacity: 0.5; stroke: #0000ff; stroke-opacity: 0.5"/>
     <use xlink:href="#m9203d06cfc" x="190.08" y="136.875785" style="fill: #0000ff; fill-opacity: 0.5; stroke: #0000ff; stroke-opacity: 0.5"/>
     <use xlink:href="#m9203d06cfc" x="184.5" y="101.738343" style="fill: #0000ff; fill-opacity: 0.5; stroke: #0000ff; stroke-opacity: 0.5"/>
     <use xlink:href="#m9203d06cfc" x="184.5" y="224.719389" style="fill: #0000ff; fill-opacity: 0.5; stroke: #0000ff; stroke-opacity: 0.5"/>
    </g>
   </g>
   <g id="PolyCollection_1">
    <defs>
     <path id="ma7e4ad930d" d="M 45 -222.836593 
L 45 -178.553251 
L 47.818182 -178.144854 
L 50.636364 -177.736457 
L 53.454545 -177.32853 
L 56.272727 -176.923926 
L 59.090909 -176.351626 
L 61.909091 -175.906875 
L 64.727273 -175.397087 
L 67.545455 -174.813863 
L 70.363636 -174.191637 
L 73.181818 -173.564135 
L 76 -172.933751 
L 78.818182 -172.303367 
L 81.636364 -171.455739 
L 84.454545 -170.656502 
L 87.272727 -169.905469 
L 90.090909 -169.428353 
L 92.909091 -169.019609 
L 95.727273 -168.458895 
L 98.545455 -167.021028 
L 101.363636 -166.033179 
L 104.181818 -165.363128 
L 107 -164.981304 
L 109.818182 -164.034684 
L 112.636364 -163.317777 
L 115.454545 -162.122815 
L 118.272727 -160.969432 
L 121.090909 -159.710113 
L 123.909091 -159.055956 
L 126.727273 -157.990991 
L 129.545455 -156.985191 
L 132.363636 -155.579591 
L 135.181818 -154.29128 
L 138 -152.654891 
L 140.818182 -150.834185 
L 143.636364 -149.226318 
L 146.454545 -147.586827 
L 149.272727 -146.111777 
L 152.090909 -144.651394 
L 154.909091 -143.351918 
L 157.727273 -142.064511 
L 160.545455 -140.514553 
L 163.363636 -139.033424 
L 166.181818 -137.388672 
L 169 -135.761253 
L 171.818182 -134.090874 
L 174.636364 -132.341764 
L 177.454545 -130.692144 
L 180.272727 -129.261483 
L 183.090909 -127.587765 
L 185.909091 -125.575306 
L 188.727273 -123.795631 
L 191.545455 -122.090017 
L 194.363636 -120.437186 
L 197.181818 -118.856283 
L 200 -117.27538 
L 202.818182 -115.515563 
L 205.636364 -113.674612 
L 208.454545 -111.838404 
L 211.272727 -110.127853 
L 214.090909 -108.42072 
L 216.909091 -106.710048 
L 219.727273 -105.00053 
L 222.545455 -103.373812 
L 225.363636 -101.838779 
L 228.181818 -100.158558 
L 231 -98.411865 
L 233.818182 -96.665172 
L 236.636364 -94.918479 
L 239.454545 -93.171785 
L 242.272727 -91.425092 
L 245.090909 -89.678399 
L 247.909091 -87.931706 
L 250.727273 -86.204564 
L 253.545455 -84.494698 
L 256.363636 -82.784832 
L 259.181818 -81.074967 
L 262 -79.365101 
L 264.818182 -77.655235 
L 267.636364 -75.945369 
L 270.454545 -74.235503 
L 273.272727 -72.525637 
L 276.090909 -70.815771 
L 278.909091 -69.105906 
L 281.727273 -67.39604 
L 284.545455 -65.686174 
L 287.363636 -63.976308 
L 290.181818 -62.266442 
L 293 -60.556576 
L 295.818182 -58.84671 
L 298.636364 -57.136845 
L 301.454545 -55.427096 
L 304.272727 -53.718709 
L 307.090909 -52.010322 
L 309.909091 -50.301935 
L 312.727273 -48.593548 
L 315.545455 -46.885161 
L 318.363636 -45.176774 
L 321.181818 -43.468387 
L 324 -41.76 
L 324 -145.51315 
L 324 -145.51315 
L 321.181818 -145.983681 
L 318.363636 -146.454212 
L 315.545455 -146.867717 
L 312.727273 -147.144494 
L 309.909091 -147.657191 
L 307.090909 -148.243036 
L 304.272727 -148.827559 
L 301.454545 -149.322939 
L 298.636364 -149.803591 
L 295.818182 -150.283863 
L 293 -150.764134 
L 290.181818 -151.244406 
L 287.363636 -151.724678 
L 284.545455 -152.200535 
L 281.727273 -152.722117 
L 278.909091 -153.153174 
L 276.090909 -153.4898 
L 273.272727 -153.834446 
L 270.454545 -154.332041 
L 267.636364 -154.936062 
L 264.818182 -155.349755 
L 262 -155.855759 
L 259.181818 -156.202579 
L 256.363636 -156.55325 
L 253.545455 -156.984777 
L 250.727273 -157.462422 
L 247.909091 -157.802456 
L 245.090909 -158.325127 
L 242.272727 -158.847798 
L 239.454545 -159.370245 
L 236.636364 -159.848906 
L 233.818182 -160.264577 
L 231 -160.624414 
L 228.181818 -160.98425 
L 225.363636 -161.464408 
L 222.545455 -162.088872 
L 219.727273 -162.717889 
L 216.909091 -163.455391 
L 214.090909 -164.052441 
L 211.272727 -164.466286 
L 208.454545 -164.897673 
L 205.636364 -165.535857 
L 202.818182 -166.081976 
L 200 -166.558268 
L 197.181818 -167.049362 
L 194.363636 -167.692612 
L 191.545455 -168.259094 
L 188.727273 -168.753892 
L 185.909091 -169.362321 
L 183.090909 -169.963447 
L 180.272727 -170.579029 
L 177.454545 -171.278475 
L 174.636364 -171.977921 
L 171.818182 -172.677367 
L 169 -173.325873 
L 166.181818 -174.034789 
L 163.363636 -174.70234 
L 160.545455 -175.465476 
L 157.727273 -176.161535 
L 154.909091 -176.870451 
L 152.090909 -177.519534 
L 149.272727 -178.252106 
L 146.454545 -178.863849 
L 143.636364 -179.676192 
L 140.818182 -180.419155 
L 138 -181.218595 
L 135.181818 -182.066262 
L 132.363636 -183.194044 
L 129.545455 -184.304791 
L 126.727273 -185.502691 
L 123.909091 -186.181268 
L 121.090909 -186.873691 
L 118.272727 -187.785351 
L 115.454545 -188.528321 
L 112.636364 -189.495856 
L 109.818182 -190.882 
L 107 -191.822846 
L 104.181818 -192.903693 
L 101.363636 -194.321721 
L 98.545455 -195.655238 
L 95.727273 -197.070482 
L 92.909091 -198.44395 
L 90.090909 -199.584365 
L 87.272727 -201.10525 
L 84.454545 -202.49705 
L 81.636364 -203.774519 
L 78.818182 -205.31745 
L 76 -206.837163 
L 73.181818 -208.138487 
L 70.363636 -209.681555 
L 67.545455 -211.224624 
L 64.727273 -212.666576 
L 61.909091 -214.164773 
L 59.090909 -215.619052 
L 56.272727 -216.983975 
L 53.454545 -218.538379 
L 50.636364 -219.981476 
L 47.818182 -221.417353 
L 45 -222.836593 
z
" style="stroke: #ffffff; stroke-opacity: 0.15"/>
    </defs>
    <g clip-path="url(#pc3b20c1bda)">
     <use xlink:href="#ma7e4ad930d" x="0" y="288" style="fill: #0000ff; fill-opacity: 0.15; stroke: #ffffff; stroke-opacity: 0.15"/>
    </g>
   </g>
   <g id="PathCollection_2">
    <defs>
     <path id="m6f4500ddb5" d="M 0 1.322876 
C 0.350831 1.322876 0.68734 1.183489 0.935414 0.935414 
C 1.183489 0.68734 1.322876 0.350831 1.322876 0 
C 1.322876 -0.350831 1.183489 -0.68734 0.935414 -0.935414 
C 0.68734 -1.183489 0.350831 -1.322876 0 -1.322876 
C -0.350831 -1.322876 -0.68734 -1.183489 -0.935414 -0.935414 
C -1.183489 -0.68734 -1.322876 -0.350831 -1.322876 0 
C -1.322876 0.350831 -1.183489 0.68734 -0.935414 0.935414 
C -0.68734 1.183489 -0.350831 1.322876 0 1.322876 
z
" style="stroke: #ff0000; stroke-opacity: 0.5"/>
    </defs>
    <g clip-path="url(#pc3b20c1bda)">
     <use xlink:href="#m6f4500ddb5" x="318.42" y="114.914884" style="fill: #ff0000; fill-opacity: 0.5; stroke: #ff0000; stroke-opacity: 0.5"/>
     <use xlink:href="#m6f4500ddb5" x="114.75" y="158.836686" style="fill: #ff0000; fill-opacity: 0.5; stroke: #ff0000; stroke-opacity: 0.5"/>
     <use xlink:href="#m6f4500ddb5" x="184.5" y="84.169622" style="fill: #ff0000; fill-opacity: 0.5; stroke: #ff0000; stroke-opacity: 0.5"/>
     <use xlink:href="#m6f4500ddb5" x="229.14" y="158.836686" style="fill: #ff0000; fill-opacity: 0.5; stroke: #ff0000; stroke-opacity: 0.5"/>
     <use xlink:href="#m6f4500ddb5" x="254.25" y="202.758488" style="fill: #ff0000; fill-opacity: 0.5; stroke: #ff0000; stroke-opacity: 0.5"/>
     <use xlink:href="#m6f4500ddb5" x="53.37" y="167.621046" style="fill: #ff0000; fill-opacity: 0.5; stroke: #ff0000; stroke-opacity: 0.5"/>
     <use xlink:href="#m6f4500ddb5" x="268.2" y="167.621046" style="fill: #ff0000; fill-opacity: 0.5; stroke: #ff0000; stroke-opacity: 0.5"/>
     <use xlink:href="#m6f4500ddb5" x="137.07" y="198.366308" style="fill: #ff0000; fill-opacity: 0.5; stroke: #ff0000; stroke-opacity: 0.5"/>
     <use xlink:href="#m6f4500ddb5" x="184.5" y="180.797587" style="fill: #ff0000; fill-opacity: 0.5; stroke: #ff0000; stroke-opacity: 0.5"/>
     <use xlink:href="#m6f4500ddb5" x="248.67" y="193.974128" style="fill: #ff0000; fill-opacity: 0.5; stroke: #ff0000; stroke-opacity: 0.5"/>
     <use xlink:href="#m6f4500ddb5" x="296.1" y="128.091424" style="fill: #ff0000; fill-opacity: 0.5; stroke: #ff0000; stroke-opacity: 0.5"/>
     <use xlink:href="#m6f4500ddb5" x="254.25" y="119.307064" style="fill: #ff0000; fill-opacity: 0.5; stroke: #ff0000; stroke-opacity: 0.5"/>
     <use xlink:href="#m6f4500ddb5" x="240.3" y="176.405407" style="fill: #ff0000; fill-opacity: 0.5; stroke: #ff0000; stroke-opacity: 0.5"/>
     <use xlink:href="#m6f4500ddb5" x="184.5" y="167.621046" style="fill: #ff0000; fill-opacity: 0.5; stroke: #ff0000; stroke-opacity: 0.5"/>
     <use xlink:href="#m6f4500ddb5" x="220.77" y="172.013227" style="fill: #ff0000; fill-opacity: 0.5; stroke: #ff0000; stroke-opacity: 0.5"/>
     <use xlink:href="#m6f4500ddb5" x="120.33" y="211.542849" style="fill: #ff0000; fill-opacity: 0.5; stroke: #ff0000; stroke-opacity: 0.5"/>
     <use xlink:href="#m6f4500ddb5" x="173.34" y="185.189767" style="fill: #ff0000; fill-opacity: 0.5; stroke: #ff0000; stroke-opacity: 0.5"/>
     <use xlink:href="#m6f4500ddb5" x="240.3" y="172.013227" style="fill: #ff0000; fill-opacity: 0.5; stroke: #ff0000; stroke-opacity: 0.5"/>
     <use xlink:href="#m6f4500ddb5" x="156.6" y="163.228866" style="fill: #ff0000; fill-opacity: 0.5; stroke: #ff0000; stroke-opacity: 0.5"/>
     <use xlink:href="#m6f4500ddb5" x="226.35" y="114.914884" style="fill: #ff0000; fill-opacity: 0.5; stroke: #ff0000; stroke-opacity: 0.5"/>
     <use xlink:href="#m6f4500ddb5" x="212.4" y="154.444506" style="fill: #ff0000; fill-opacity: 0.5; stroke: #ff0000; stroke-opacity: 0.5"/>
     <use xlink:href="#m6f4500ddb5" x="268.2" y="185.189767" style="fill: #ff0000; fill-opacity: 0.5; stroke: #ff0000; stroke-opacity: 0.5"/>
     <use xlink:href="#m6f4500ddb5" x="212.4" y="97.346163" style="fill: #ff0000; fill-opacity: 0.5; stroke: #ff0000; stroke-opacity: 0.5"/>
     <use xlink:href="#m6f4500ddb5" x="215.19" y="176.405407" style="fill: #ff0000; fill-opacity: 0.5; stroke: #ff0000; stroke-opacity: 0.5"/>
     <use xlink:href="#m6f4500ddb5" x="184.5" y="44.64" style="fill: #ff0000; fill-opacity: 0.5; stroke: #ff0000; stroke-opacity: 0.5"/>
     <use xlink:href="#m6f4500ddb5" x="212.4" y="141.267965" style="fill: #ff0000; fill-opacity: 0.5; stroke: #ff0000; stroke-opacity: 0.5"/>
    </g>
   </g>
   <g id="PolyCollection_2">
    <defs>
     <path id="m08d8773962" d="M 45 -152.82663 
L 45 -69.289223 
L 47.818182 -70.146685 
L 50.636364 -70.990118 
L 53.454545 -71.834081 
L 56.272727 -72.85104 
L 59.090909 -73.901049 
L 61.909091 -74.773674 
L 64.727273 -75.613313 
L 67.545455 -76.457226 
L 70.363636 -77.37287 
L 73.181818 -78.426991 
L 76 -79.481113 
L 78.818182 -80.535234 
L 81.636364 -81.485424 
L 84.454545 -82.376196 
L 87.272727 -83.135935 
L 90.090909 -83.706011 
L 92.909091 -84.277809 
L 95.727273 -85.151318 
L 98.545455 -86.22914 
L 101.363636 -87.307 
L 104.181818 -88.077792 
L 107 -88.750826 
L 109.818182 -89.744045 
L 112.636364 -90.868676 
L 115.454545 -91.631138 
L 118.272727 -92.327593 
L 121.090909 -93.028506 
L 123.909091 -93.750293 
L 126.727273 -94.944126 
L 129.545455 -96.010462 
L 132.363636 -96.787636 
L 135.181818 -97.471152 
L 138 -98.499499 
L 140.818182 -99.367131 
L 143.636364 -100.203473 
L 146.454545 -101.071113 
L 149.272727 -102.05859 
L 152.090909 -103.049254 
L 154.909091 -103.851059 
L 157.727273 -104.799567 
L 160.545455 -105.538428 
L 163.363636 -106.20316 
L 166.181818 -106.977358 
L 169 -107.715473 
L 171.818182 -108.21169 
L 174.636364 -108.979496 
L 177.454545 -109.860614 
L 180.272727 -110.261884 
L 183.090909 -110.827157 
L 185.909091 -111.750147 
L 188.727273 -112.67935 
L 191.545455 -112.892115 
L 194.363636 -113.499287 
L 197.181818 -113.976791 
L 200 -114.024008 
L 202.818182 -114.247134 
L 205.636364 -114.710927 
L 208.454545 -114.895105 
L 211.272727 -115.182711 
L 214.090909 -115.281993 
L 216.909091 -115.429472 
L 219.727273 -115.483995 
L 222.545455 -115.699013 
L 225.363636 -115.79358 
L 228.181818 -115.864517 
L 231 -115.906147 
L 233.818182 -115.852619 
L 236.636364 -115.766423 
L 239.454545 -115.590364 
L 242.272727 -115.535952 
L 245.090909 -115.378591 
L 247.909091 -115.257991 
L 250.727273 -115.127909 
L 253.545455 -115.020558 
L 256.363636 -114.803698 
L 259.181818 -114.761171 
L 262 -114.821112 
L 264.818182 -114.677346 
L 267.636364 -114.505096 
L 270.454545 -114.399051 
L 273.272727 -114.401835 
L 276.090909 -114.237413 
L 278.909091 -114.053429 
L 281.727273 -113.865574 
L 284.545455 -113.669751 
L 287.363636 -113.486929 
L 290.181818 -113.197669 
L 293 -112.967847 
L 295.818182 -112.915426 
L 298.636364 -112.728765 
L 301.454545 -112.517637 
L 304.272727 -112.348517 
L 307.090909 -112.163025 
L 309.909091 -111.972054 
L 312.727273 -111.783881 
L 315.545455 -111.595708 
L 318.363636 -111.407535 
L 321.181818 -111.219363 
L 324 -111.03119 
L 324 -169.73919 
L 324 -169.73919 
L 321.181818 -168.751282 
L 318.363636 -167.742074 
L 315.545455 -166.894883 
L 312.727273 -166.050671 
L 309.909091 -165.147508 
L 307.090909 -164.392262 
L 304.272727 -163.75718 
L 301.454545 -163.114915 
L 298.636364 -162.364254 
L 295.818182 -161.510789 
L 293 -160.725179 
L 290.181818 -159.906531 
L 287.363636 -158.87361 
L 284.545455 -158.086252 
L 281.727273 -157.104686 
L 278.909091 -156.34137 
L 276.090909 -155.809381 
L 273.272727 -154.998512 
L 270.454545 -154.48225 
L 267.636364 -153.819705 
L 264.818182 -153.327082 
L 262 -152.591276 
L 259.181818 -151.985512 
L 256.363636 -151.454194 
L 253.545455 -150.73142 
L 250.727273 -150.154165 
L 247.909091 -149.760562 
L 245.090909 -149.373066 
L 242.272727 -148.984391 
L 239.454545 -148.598073 
L 236.636364 -148.336928 
L 233.818182 -148.030811 
L 231 -148.240455 
L 228.181818 -147.767399 
L 225.363636 -147.298934 
L 222.545455 -146.996876 
L 219.727273 -146.927941 
L 216.909091 -146.78286 
L 214.090909 -146.745277 
L 211.272727 -146.469018 
L 208.454545 -146.341463 
L 205.636364 -146.104291 
L 202.818182 -145.996423 
L 200 -145.876392 
L 197.181818 -145.713115 
L 194.363636 -145.548248 
L 191.545455 -145.39278 
L 188.727273 -145.346204 
L 185.909091 -145.163111 
L 183.090909 -145.304054 
L 180.272727 -145.486865 
L 177.454545 -145.119342 
L 174.636364 -144.91601 
L 171.818182 -145.471743 
L 169 -145.451143 
L 166.181818 -145.306732 
L 163.363636 -145.352967 
L 160.545455 -145.002394 
L 157.727273 -144.823377 
L 154.909091 -144.547552 
L 152.090909 -144.451696 
L 149.272727 -144.623678 
L 146.454545 -144.666119 
L 143.636364 -145.109799 
L 140.818182 -145.139643 
L 138 -145.158279 
L 135.181818 -145.176915 
L 132.363636 -145.182672 
L 129.545455 -145.163067 
L 126.727273 -145.143462 
L 123.909091 -145.123858 
L 121.090909 -145.175966 
L 118.272727 -145.301005 
L 115.454545 -145.330075 
L 112.636364 -145.522303 
L 109.818182 -145.850082 
L 107 -146.17786 
L 104.181818 -146.505638 
L 101.363636 -146.832504 
L 98.545455 -147.150143 
L 95.727273 -147.467783 
L 92.909091 -147.785422 
L 90.090909 -148.042905 
L 87.272727 -148.437245 
L 84.454545 -148.767373 
L 81.636364 -149.0975 
L 78.818182 -149.427628 
L 76 -149.755387 
L 73.181818 -150.078758 
L 70.363636 -150.402128 
L 67.545455 -150.725499 
L 64.727273 -151.048869 
L 61.909091 -151.372239 
L 59.090909 -151.69561 
L 56.272727 -151.945181 
L 53.454545 -152.16826 
L 50.636364 -152.391339 
L 47.818182 -152.610304 
L 45 -152.82663 
z
" style="stroke: #ffffff; stroke-opacity: 0.15"/>
    </defs>
    <g clip-path="url(#pc3b20c1bda)">
     <use xlink:href="#m08d8773962" x="0" y="288" style="fill: #ff0000; fill-opacity: 0.15; stroke: #ffffff; stroke-opacity: 0.15"/>
    </g>
   </g>
   <g id="line2d_12">
    <path d="M 45 86.578066 
L 47.818182 87.578057 
L 50.636364 88.578047 
L 53.454545 89.578038 
L 56.272727 90.578028 
L 59.090909 91.578019 
L 61.909091 92.57801 
L 64.727273 93.578 
L 67.545455 94.577991 
L 70.363636 95.577981 
L 73.181818 96.577972 
L 76 97.577962 
L 78.818182 98.577953 
L 81.636364 99.577943 
L 84.454545 100.577934 
L 87.272727 101.577924 
L 90.090909 102.577915 
L 92.909091 103.577905 
L 95.727273 104.577896 
L 98.545455 105.577886 
L 101.363636 106.577877 
L 104.181818 107.577868 
L 107 108.577858 
L 109.818182 109.577849 
L 112.636364 110.577839 
L 115.454545 111.57783 
L 118.272727 112.57782 
L 121.090909 113.577811 
L 123.909091 114.577801 
L 126.727273 115.577792 
L 129.545455 116.577782 
L 132.363636 117.577773 
L 135.181818 118.577763 
L 138 119.577754 
L 140.818182 120.577744 
L 143.636364 121.577735 
L 146.454545 122.577726 
L 149.272727 123.577716 
L 152.090909 124.577707 
L 154.909091 125.577697 
L 157.727273 126.577688 
L 160.545455 127.577678 
L 163.363636 128.577669 
L 166.181818 129.577659 
L 169 130.57765 
L 171.818182 131.57764 
L 174.636364 132.577631 
L 177.454545 133.577621 
L 180.272727 134.577612 
L 183.090909 135.577603 
L 185.909091 136.577593 
L 188.727273 137.577584 
L 191.545455 138.577574 
L 194.363636 139.577565 
L 197.181818 140.577555 
L 200 141.577546 
L 202.818182 142.577536 
L 205.636364 143.577527 
L 208.454545 144.577517 
L 211.272727 145.577508 
L 214.090909 146.577498 
L 216.909091 147.577489 
L 219.727273 148.577479 
L 222.545455 149.57747 
L 225.363636 150.577461 
L 228.181818 151.577451 
L 231 152.577442 
L 233.818182 153.577432 
L 236.636364 154.577423 
L 239.454545 155.577413 
L 242.272727 156.577404 
L 245.090909 157.577394 
L 247.909091 158.577385 
L 250.727273 159.577375 
L 253.545455 160.577366 
L 256.363636 161.577356 
L 259.181818 162.577347 
L 262 163.577338 
L 264.818182 164.577328 
L 267.636364 165.577319 
L 270.454545 166.577309 
L 273.272727 167.5773 
L 276.090909 168.57729 
L 278.909091 169.577281 
L 281.727273 170.577271 
L 284.545455 171.577262 
L 287.363636 172.577252 
L 290.181818 173.577243 
L 293 174.577233 
L 295.818182 175.577224 
L 298.636364 176.577214 
L 301.454545 177.577205 
L 304.272727 178.577196 
L 307.090909 179.577186 
L 309.909091 180.577177 
L 312.727273 181.577167 
L 315.545455 182.577158 
L 318.363636 183.577148 
L 321.181818 184.577139 
L 324 185.577129 
" clip-path="url(#pc3b20c1bda)" style="fill: none; stroke: #0000ff; stroke-width: 2.25; stroke-linecap: round"/>
   </g>
   <g id="line2d_13">
    <path d="M 45 185.047623 
L 47.818182 184.626238 
L 50.636364 184.204854 
L 53.454545 183.783469 
L 56.272727 183.362085 
L 59.090909 182.9407 
L 61.909091 182.519315 
L 64.727273 182.097931 
L 67.545455 181.676546 
L 70.363636 181.255162 
L 73.181818 180.833777 
L 76 180.412393 
L 78.818182 179.991008 
L 81.636364 179.569624 
L 84.454545 179.148239 
L 87.272727 178.726855 
L 90.090909 178.30547 
L 92.909091 177.884086 
L 95.727273 177.462701 
L 98.545455 177.041317 
L 101.363636 176.619932 
L 104.181818 176.198548 
L 107 175.777163 
L 109.818182 175.355779 
L 112.636364 174.934394 
L 115.454545 174.51301 
L 118.272727 174.091625 
L 121.090909 173.67024 
L 123.909091 173.248856 
L 126.727273 172.827471 
L 129.545455 172.406087 
L 132.363636 171.984702 
L 135.181818 171.563318 
L 138 171.141933 
L 140.818182 170.720549 
L 143.636364 170.299164 
L 146.454545 169.87778 
L 149.272727 169.456395 
L 152.090909 169.035011 
L 154.909091 168.613626 
L 157.727273 168.192242 
L 160.545455 167.770857 
L 163.363636 167.349473 
L 166.181818 166.928088 
L 169 166.506704 
L 171.818182 166.085319 
L 174.636364 165.663935 
L 177.454545 165.24255 
L 180.272727 164.821165 
L 183.090909 164.399781 
L 185.909091 163.978396 
L 188.727273 163.557012 
L 191.545455 163.135627 
L 194.363636 162.714243 
L 197.181818 162.292858 
L 200 161.871474 
L 202.818182 161.450089 
L 205.636364 161.028705 
L 208.454545 160.60732 
L 211.272727 160.185936 
L 214.090909 159.764551 
L 216.909091 159.343167 
L 219.727273 158.921782 
L 222.545455 158.500398 
L 225.363636 158.079013 
L 228.181818 157.657629 
L 231 157.236244 
L 233.818182 156.81486 
L 236.636364 156.393475 
L 239.454545 155.97209 
L 242.272727 155.550706 
L 245.090909 155.129321 
L 247.909091 154.707937 
L 250.727273 154.286552 
L 253.545455 153.865168 
L 256.363636 153.443783 
L 259.181818 153.022399 
L 262 152.601014 
L 264.818182 152.17963 
L 267.636364 151.758245 
L 270.454545 151.336861 
L 273.272727 150.915476 
L 276.090909 150.494092 
L 278.909091 150.072707 
L 281.727273 149.651323 
L 284.545455 149.229938 
L 287.363636 148.808554 
L 290.181818 148.387169 
L 293 147.965784 
L 295.818182 147.5444 
L 298.636364 147.123015 
L 301.454545 146.701631 
L 304.272727 146.280246 
L 307.090909 145.858862 
L 309.909091 145.437477 
L 312.727273 145.016093 
L 315.545455 144.594708 
L 318.363636 144.173324 
L 321.181818 143.751939 
L 324 143.330555 
" clip-path="url(#pc3b20c1bda)" style="fill: none; stroke: #ff0000; stroke-width: 2.25; stroke-linecap: round"/>
   </g>
   <g id="patch_3">
    <path d="M 45 256.32 
L 45 34.56 
" style="fill: none; stroke: #ffffff; stroke-width: 0.8; stroke-linejoin: miter; stroke-linecap: square"/>
   </g>
   <g id="patch_4">
    <path d="M 324 256.32 
L 324 34.56 
" style="fill: none; stroke: #ffffff; stroke-width: 0.8; stroke-linejoin: miter; stroke-linecap: square"/>
   </g>
   <g id="patch_5">
    <path d="M 45 256.32 
L 324 256.32 
" style="fill: none; stroke: #ffffff; stroke-width: 0.8; stroke-linejoin: miter; stroke-linecap: square"/>
   </g>
   <g id="patch_6">
    <path d="M 45 34.56 
L 324 34.56 
" style="fill: none; stroke: #ffffff; stroke-width: 0.8; stroke-linejoin: miter; stroke-linecap: square"/>
   </g>
   <g id="text_12">
    <!-- MADRS -->
    <g style="fill: #262626" transform="translate(151.500937 28.56)scale(0.18 -0.18)">
     <defs>
      <path id="Arial-BoldMT-4d" d="M 453 0 
L 453 4581 
L 1838 4581 
L 2669 1456 
L 3491 4581 
L 4878 4581 
L 4878 0 
L 4019 0 
L 4019 3606 
L 3109 0 
L 2219 0 
L 1313 3606 
L 1313 0 
L 453 0 
z
" transform="scale(0.015625)"/>
      <path id="Arial-BoldMT-41" d="M 4597 0 
L 3591 0 
L 3191 1041 
L 1359 1041 
L 981 0 
L 0 0 
L 1784 4581 
L 2763 4581 
L 4597 0 
z
M 2894 1813 
L 2263 3513 
L 1644 1813 
L 2894 1813 
z
" transform="scale(0.015625)"/>
      <path id="Arial-BoldMT-44" d="M 463 4581 
L 2153 4581 
Q 2725 4581 3025 4494 
Q 3428 4375 3715 4072 
Q 4003 3769 4153 3330 
Q 4303 2891 4303 2247 
Q 4303 1681 4163 1272 
Q 3991 772 3672 463 
Q 3431 228 3022 97 
Q 2716 0 2203 0 
L 463 0 
L 463 4581 
z
M 1388 3806 
L 1388 772 
L 2078 772 
Q 2466 772 2638 816 
Q 2863 872 3011 1006 
Q 3159 1141 3253 1448 
Q 3347 1756 3347 2288 
Q 3347 2819 3253 3103 
Q 3159 3388 2990 3547 
Q 2822 3706 2563 3763 
Q 2369 3806 1803 3806 
L 1388 3806 
z
" transform="scale(0.015625)"/>
      <path id="Arial-BoldMT-52" d="M 469 0 
L 469 4581 
L 2416 4581 
Q 3150 4581 3483 4457 
Q 3816 4334 4016 4018 
Q 4216 3703 4216 3297 
Q 4216 2781 3912 2445 
Q 3609 2109 3006 2022 
Q 3306 1847 3501 1637 
Q 3697 1428 4028 894 
L 4588 0 
L 3481 0 
L 2813 997 
Q 2456 1531 2325 1670 
Q 2194 1809 2047 1861 
Q 1900 1913 1581 1913 
L 1394 1913 
L 1394 0 
L 469 0 
z
M 1394 2644 
L 2078 2644 
Q 2744 2644 2909 2700 
Q 3075 2756 3169 2893 
Q 3263 3031 3263 3238 
Q 3263 3469 3139 3611 
Q 3016 3753 2791 3791 
Q 2678 3806 2116 3806 
L 1394 3806 
L 1394 2644 
z
" transform="scale(0.015625)"/>
      <path id="Arial-BoldMT-53" d="M 231 1491 
L 1131 1578 
Q 1213 1125 1461 912 
Q 1709 700 2131 700 
Q 2578 700 2804 889 
Q 3031 1078 3031 1331 
Q 3031 1494 2936 1608 
Q 2841 1722 2603 1806 
Q 2441 1863 1863 2006 
Q 1119 2191 819 2459 
Q 397 2838 397 3381 
Q 397 3731 595 4036 
Q 794 4341 1167 4500 
Q 1541 4659 2069 4659 
Q 2931 4659 3367 4281 
Q 3803 3903 3825 3272 
L 2900 3231 
Q 2841 3584 2645 3739 
Q 2450 3894 2059 3894 
Q 1656 3894 1428 3728 
Q 1281 3622 1281 3444 
Q 1281 3281 1419 3166 
Q 1594 3019 2269 2859 
Q 2944 2700 3267 2529 
Q 3591 2359 3773 2064 
Q 3956 1769 3956 1334 
Q 3956 941 3737 597 
Q 3519 253 3119 86 
Q 2719 -81 2122 -81 
Q 1253 -81 787 320 
Q 322 722 231 1491 
z
" transform="scale(0.015625)"/>
     </defs>
     <use xlink:href="#Arial-BoldMT-4d"/>
     <use xlink:href="#Arial-BoldMT-41" x="83.300781"/>
     <use xlink:href="#Arial-BoldMT-44" x="155.517578"/>
     <use xlink:href="#Arial-BoldMT-52" x="227.734375"/>
     <use xlink:href="#Arial-BoldMT-53" x="299.951172"/>
    </g>
   </g>
  </g>
 </g>
 <defs>
  <clipPath id="pc3b20c1bda">
   <rect x="45" y="34.56" width="279" height="221.76"/>
  </clipPath>
 </defs>
</svg>
