<?xml version="1.0" encoding="utf-8" standalone="no"?>
<!DOCTYPE svg PUBLIC "-//W3C//DTD SVG 1.1//EN"
  "http://www.w3.org/Graphics/SVG/1.1/DTD/svg11.dtd">
<svg xmlns:xlink="http://www.w3.org/1999/xlink" width="360pt" height="288pt" viewBox="0 0 360 288" xmlns="http://www.w3.org/2000/svg" version="1.1">
 <metadata>
  <rdf:RDF xmlns:dc="http://purl.org/dc/elements/1.1/" xmlns:cc="http://creativecommons.org/ns#" xmlns:rdf="http://www.w3.org/1999/02/22-rdf-syntax-ns#">
   <cc:Work>
    <dc:type rdf:resource="http://purl.org/dc/dcmitype/StillImage"/>
    <dc:date>2022-11-10T09:39:17.659392</dc:date>
    <dc:format>image/svg+xml</dc:format>
    <dc:creator>
     <cc:Agent>
      <dc:title>Matplotlib v3.5.2, https://matplotlib.org/</dc:title>
     </cc:Agent>
    </dc:creator>
   </cc:Work>
  </rdf:RDF>
 </metadata>
 <defs>
  <style type="text/css">*{stroke-linejoin: round; stroke-linecap: butt}</style>
 </defs>
 <g id="figure_1">
  <g id="patch_1">
   <path d="M 0 288 
L 360 288 
L 360 0 
L 0 0 
z
" style="fill: #ffffff"/>
  </g>
  <g id="axes_1">
   <g id="patch_2">
    <path d="M 45 256.32 
L 324 256.32 
L 324 34.56 
L 45 34.56 
z
" style="fill: #eaeaf2"/>
   </g>
   <g id="matplotlib.axis_1">
    <g id="xtick_1">
     <g id="line2d_1">
      <path d="M 45 256.32 
L 45 34.56 
" clip-path="url(#pf0574f9324)" style="fill: none; stroke: #ffffff; stroke-width: 0.8; stroke-linecap: round"/>
     </g>
     <g id="text_1">
      <!-- 0 -->
      <g style="fill: #262626" transform="translate(41.107344 273.340937)scale(0.14 -0.14)">
       <defs>
        <path id="ArialMT-30" d="M 266 2259 
Q 266 3072 433 3567 
Q 600 4063 929 4331 
Q 1259 4600 1759 4600 
Q 2128 4600 2406 4451 
Q 2684 4303 2865 4023 
Q 3047 3744 3150 3342 
Q 3253 2941 3253 2259 
Q 3253 1453 3087 958 
Q 2922 463 2592 192 
Q 2263 -78 1759 -78 
Q 1097 -78 719 397 
Q 266 969 266 2259 
z
M 844 2259 
Q 844 1131 1108 757 
Q 1372 384 1759 384 
Q 2147 384 2411 759 
Q 2675 1134 2675 2259 
Q 2675 3391 2411 3762 
Q 2147 4134 1753 4134 
Q 1366 4134 1134 3806 
Q 844 3388 844 2259 
z
" transform="scale(0.015625)"/>
       </defs>
       <use xlink:href="#ArialMT-30"/>
      </g>
     </g>
    </g>
    <g id="xtick_2">
     <g id="line2d_2">
      <path d="M 100.8 256.32 
L 100.8 34.56 
" clip-path="url(#pf0574f9324)" style="fill: none; stroke: #ffffff; stroke-width: 0.8; stroke-linecap: round"/>
     </g>
     <g id="text_2">
      <!-- 20 -->
      <g style="fill: #262626" transform="translate(93.014687 273.340937)scale(0.14 -0.14)">
       <defs>
        <path id="ArialMT-32" d="M 3222 541 
L 3222 0 
L 194 0 
Q 188 203 259 391 
Q 375 700 629 1000 
Q 884 1300 1366 1694 
Q 2113 2306 2375 2664 
Q 2638 3022 2638 3341 
Q 2638 3675 2398 3904 
Q 2159 4134 1775 4134 
Q 1369 4134 1125 3890 
Q 881 3647 878 3216 
L 300 3275 
Q 359 3922 746 4261 
Q 1134 4600 1788 4600 
Q 2447 4600 2831 4234 
Q 3216 3869 3216 3328 
Q 3216 3053 3103 2787 
Q 2991 2522 2730 2228 
Q 2469 1934 1863 1422 
Q 1356 997 1212 845 
Q 1069 694 975 541 
L 3222 541 
z
" transform="scale(0.015625)"/>
       </defs>
       <use xlink:href="#ArialMT-32"/>
       <use xlink:href="#ArialMT-30" x="55.615234"/>
      </g>
     </g>
    </g>
    <g id="xtick_3">
     <g id="line2d_3">
      <path d="M 156.6 256.32 
L 156.6 34.56 
" clip-path="url(#pf0574f9324)" style="fill: none; stroke: #ffffff; stroke-width: 0.8; stroke-linecap: round"/>
     </g>
     <g id="text_3">
      <!-- 40 -->
      <g style="fill: #262626" transform="translate(148.814687 273.340937)scale(0.14 -0.14)">
       <defs>
        <path id="ArialMT-34" d="M 2069 0 
L 2069 1097 
L 81 1097 
L 81 1613 
L 2172 4581 
L 2631 4581 
L 2631 1613 
L 3250 1613 
L 3250 1097 
L 2631 1097 
L 2631 0 
L 2069 0 
z
M 2069 1613 
L 2069 3678 
L 634 1613 
L 2069 1613 
z
" transform="scale(0.015625)"/>
       </defs>
       <use xlink:href="#ArialMT-34"/>
       <use xlink:href="#ArialMT-30" x="55.615234"/>
      </g>
     </g>
    </g>
    <g id="xtick_4">
     <g id="line2d_4">
      <path d="M 212.4 256.32 
L 212.4 34.56 
" clip-path="url(#pf0574f9324)" style="fill: none; stroke: #ffffff; stroke-width: 0.8; stroke-linecap: round"/>
     </g>
     <g id="text_4">
      <!-- 60 -->
      <g style="fill: #262626" transform="translate(204.614688 273.340937)scale(0.14 -0.14)">
       <defs>
        <path id="ArialMT-36" d="M 3184 3459 
L 2625 3416 
Q 2550 3747 2413 3897 
Q 2184 4138 1850 4138 
Q 1581 4138 1378 3988 
Q 1113 3794 959 3422 
Q 806 3050 800 2363 
Q 1003 2672 1297 2822 
Q 1591 2972 1913 2972 
Q 2475 2972 2870 2558 
Q 3266 2144 3266 1488 
Q 3266 1056 3080 686 
Q 2894 316 2569 119 
Q 2244 -78 1831 -78 
Q 1128 -78 684 439 
Q 241 956 241 2144 
Q 241 3472 731 4075 
Q 1159 4600 1884 4600 
Q 2425 4600 2770 4297 
Q 3116 3994 3184 3459 
z
M 888 1484 
Q 888 1194 1011 928 
Q 1134 663 1356 523 
Q 1578 384 1822 384 
Q 2178 384 2434 671 
Q 2691 959 2691 1453 
Q 2691 1928 2437 2201 
Q 2184 2475 1800 2475 
Q 1419 2475 1153 2201 
Q 888 1928 888 1484 
z
" transform="scale(0.015625)"/>
       </defs>
       <use xlink:href="#ArialMT-36"/>
       <use xlink:href="#ArialMT-30" x="55.615234"/>
      </g>
     </g>
    </g>
    <g id="xtick_5">
     <g id="line2d_5">
      <path d="M 268.2 256.32 
L 268.2 34.56 
" clip-path="url(#pf0574f9324)" style="fill: none; stroke: #ffffff; stroke-width: 0.8; stroke-linecap: round"/>
     </g>
     <g id="text_5">
      <!-- 80 -->
      <g style="fill: #262626" transform="translate(260.414688 273.340937)scale(0.14 -0.14)">
       <defs>
        <path id="ArialMT-38" d="M 1131 2484 
Q 781 2613 612 2850 
Q 444 3088 444 3419 
Q 444 3919 803 4259 
Q 1163 4600 1759 4600 
Q 2359 4600 2725 4251 
Q 3091 3903 3091 3403 
Q 3091 3084 2923 2848 
Q 2756 2613 2416 2484 
Q 2838 2347 3058 2040 
Q 3278 1734 3278 1309 
Q 3278 722 2862 322 
Q 2447 -78 1769 -78 
Q 1091 -78 675 323 
Q 259 725 259 1325 
Q 259 1772 486 2073 
Q 713 2375 1131 2484 
z
M 1019 3438 
Q 1019 3113 1228 2906 
Q 1438 2700 1772 2700 
Q 2097 2700 2305 2904 
Q 2513 3109 2513 3406 
Q 2513 3716 2298 3927 
Q 2084 4138 1766 4138 
Q 1444 4138 1231 3931 
Q 1019 3725 1019 3438 
z
M 838 1322 
Q 838 1081 952 856 
Q 1066 631 1291 507 
Q 1516 384 1775 384 
Q 2178 384 2440 643 
Q 2703 903 2703 1303 
Q 2703 1709 2433 1975 
Q 2163 2241 1756 2241 
Q 1359 2241 1098 1978 
Q 838 1716 838 1322 
z
" transform="scale(0.015625)"/>
       </defs>
       <use xlink:href="#ArialMT-38"/>
       <use xlink:href="#ArialMT-30" x="55.615234"/>
      </g>
     </g>
    </g>
    <g id="xtick_6">
     <g id="line2d_6">
      <path d="M 324 256.32 
L 324 34.56 
" clip-path="url(#pf0574f9324)" style="fill: none; stroke: #ffffff; stroke-width: 0.8; stroke-linecap: round"/>
     </g>
     <g id="text_6">
      <!-- 100 -->
      <g style="fill: #262626" transform="translate(312.322031 273.340937)scale(0.14 -0.14)">
       <defs>
        <path id="ArialMT-31" d="M 2384 0 
L 1822 0 
L 1822 3584 
Q 1619 3391 1289 3197 
Q 959 3003 697 2906 
L 697 3450 
Q 1169 3672 1522 3987 
Q 1875 4303 2022 4600 
L 2384 4600 
L 2384 0 
z
" transform="scale(0.015625)"/>
       </defs>
       <use xlink:href="#ArialMT-31"/>
       <use xlink:href="#ArialMT-30" x="55.615234"/>
       <use xlink:href="#ArialMT-30" x="111.230469"/>
      </g>
     </g>
    </g>
   </g>
   <g id="matplotlib.axis_2">
    <g id="ytick_1">
     <g id="line2d_7">
      <path d="M 45 236.151025 
L 324 236.151025 
" clip-path="url(#pf0574f9324)" style="fill: none; stroke: #ffffff; stroke-width: 0.8; stroke-linecap: round"/>
     </g>
     <g id="text_7">
      <!-- −40 -->
      <g style="fill: #262626" transform="translate(14.2525 241.161494)scale(0.14 -0.14)">
       <defs>
        <path id="ArialMT-2212" d="M 3381 1997 
L 356 1997 
L 356 2522 
L 3381 2522 
L 3381 1997 
z
" transform="scale(0.015625)"/>
       </defs>
       <use xlink:href="#ArialMT-2212"/>
       <use xlink:href="#ArialMT-34" x="58.398438"/>
       <use xlink:href="#ArialMT-30" x="114.013672"/>
      </g>
     </g>
    </g>
    <g id="ytick_2">
     <g id="line2d_8">
      <path d="M 45 197.067142 
L 324 197.067142 
" clip-path="url(#pf0574f9324)" style="fill: none; stroke: #ffffff; stroke-width: 0.8; stroke-linecap: round"/>
     </g>
     <g id="text_8">
      <!-- −30 -->
      <g style="fill: #262626" transform="translate(14.2525 202.077611)scale(0.14 -0.14)">
       <defs>
        <path id="ArialMT-33" d="M 269 1209 
L 831 1284 
Q 928 806 1161 595 
Q 1394 384 1728 384 
Q 2125 384 2398 659 
Q 2672 934 2672 1341 
Q 2672 1728 2419 1979 
Q 2166 2231 1775 2231 
Q 1616 2231 1378 2169 
L 1441 2663 
Q 1497 2656 1531 2656 
Q 1891 2656 2178 2843 
Q 2466 3031 2466 3422 
Q 2466 3731 2256 3934 
Q 2047 4138 1716 4138 
Q 1388 4138 1169 3931 
Q 950 3725 888 3313 
L 325 3413 
Q 428 3978 793 4289 
Q 1159 4600 1703 4600 
Q 2078 4600 2393 4439 
Q 2709 4278 2876 4000 
Q 3044 3722 3044 3409 
Q 3044 3113 2884 2869 
Q 2725 2625 2413 2481 
Q 2819 2388 3044 2092 
Q 3269 1797 3269 1353 
Q 3269 753 2831 336 
Q 2394 -81 1725 -81 
Q 1122 -81 723 278 
Q 325 638 269 1209 
z
" transform="scale(0.015625)"/>
       </defs>
       <use xlink:href="#ArialMT-2212"/>
       <use xlink:href="#ArialMT-33" x="58.398438"/>
       <use xlink:href="#ArialMT-30" x="114.013672"/>
      </g>
     </g>
    </g>
    <g id="ytick_3">
     <g id="line2d_9">
      <path d="M 45 157.98326 
L 324 157.98326 
" clip-path="url(#pf0574f9324)" style="fill: none; stroke: #ffffff; stroke-width: 0.8; stroke-linecap: round"/>
     </g>
     <g id="text_9">
      <!-- −20 -->
      <g style="fill: #262626" transform="translate(14.2525 162.993729)scale(0.14 -0.14)">
       <use xlink:href="#ArialMT-2212"/>
       <use xlink:href="#ArialMT-32" x="58.398438"/>
       <use xlink:href="#ArialMT-30" x="114.013672"/>
      </g>
     </g>
    </g>
    <g id="ytick_4">
     <g id="line2d_10">
      <path d="M 45 118.899377 
L 324 118.899377 
" clip-path="url(#pf0574f9324)" style="fill: none; stroke: #ffffff; stroke-width: 0.8; stroke-linecap: round"/>
     </g>
     <g id="text_10">
      <!-- −10 -->
      <g style="fill: #262626" transform="translate(14.2525 123.909846)scale(0.14 -0.14)">
       <use xlink:href="#ArialMT-2212"/>
       <use xlink:href="#ArialMT-31" x="58.398438"/>
       <use xlink:href="#ArialMT-30" x="114.013672"/>
      </g>
     </g>
    </g>
    <g id="ytick_5">
     <g id="line2d_11">
      <path d="M 45 79.815494 
L 324 79.815494 
" clip-path="url(#pf0574f9324)" style="fill: none; stroke: #ffffff; stroke-width: 0.8; stroke-linecap: round"/>
     </g>
     <g id="text_11">
      <!-- 0 -->
      <g style="fill: #262626" transform="translate(30.214688 84.825963)scale(0.14 -0.14)">
       <use xlink:href="#ArialMT-30"/>
      </g>
     </g>
    </g>
    <g id="ytick_6">
     <g id="line2d_12">
      <path d="M 45 40.731612 
L 324 40.731612 
" clip-path="url(#pf0574f9324)" style="fill: none; stroke: #ffffff; stroke-width: 0.8; stroke-linecap: round"/>
     </g>
     <g id="text_12">
      <!-- 10 -->
      <g style="fill: #262626" transform="translate(22.429375 45.74208)scale(0.14 -0.14)">
       <use xlink:href="#ArialMT-31"/>
       <use xlink:href="#ArialMT-30" x="55.615234"/>
      </g>
     </g>
    </g>
   </g>
   <g id="PathCollection_1">
    <defs>
     <path id="m2972b004bb" d="M 0 1.322876 
C 0.350831 1.322876 0.68734 1.183489 0.935414 0.935414 
C 1.183489 0.68734 1.322876 0.350831 1.322876 0 
C 1.322876 -0.350831 1.183489 -0.68734 0.935414 -0.935414 
C 0.68734 -1.183489 0.350831 -1.322876 0 -1.322876 
C -0.350831 -1.322876 -0.68734 -1.183489 -0.935414 -0.935414 
C -1.183489 -0.68734 -1.322876 -0.350831 -1.322876 0 
C -1.322876 0.350831 -1.183489 0.68734 -0.935414 0.935414 
C -0.68734 1.183489 -0.350831 1.322876 0 1.322876 
z
" style="stroke: #0000ff; stroke-opacity: 0.5"/>
    </defs>
    <g clip-path="url(#pf0574f9324)">
     <use xlink:href="#m2972b004bb" x="72.9" y="142.349707" style="fill: #0000ff; fill-opacity: 0.5; stroke: #0000ff; stroke-opacity: 0.5"/>
     <use xlink:href="#m2972b004bb" x="187.29" y="103.265824" style="fill: #0000ff; fill-opacity: 0.5; stroke: #0000ff; stroke-opacity: 0.5"/>
     <use xlink:href="#m2972b004bb" x="128.7" y="157.98326" style="fill: #0000ff; fill-opacity: 0.5; stroke: #0000ff; stroke-opacity: 0.5"/>
     <use xlink:href="#m2972b004bb" x="201.24" y="142.349707" style="fill: #0000ff; fill-opacity: 0.5; stroke: #0000ff; stroke-opacity: 0.5"/>
     <use xlink:href="#m2972b004bb" x="137.07" y="154.074872" style="fill: #0000ff; fill-opacity: 0.5; stroke: #0000ff; stroke-opacity: 0.5"/>
     <use xlink:href="#m2972b004bb" x="156.6" y="134.53293" style="fill: #0000ff; fill-opacity: 0.5; stroke: #0000ff; stroke-opacity: 0.5"/>
     <use xlink:href="#m2972b004bb" x="142.65" y="111.082601" style="fill: #0000ff; fill-opacity: 0.5; stroke: #0000ff; stroke-opacity: 0.5"/>
     <use xlink:href="#m2972b004bb" x="128.7" y="126.716154" style="fill: #0000ff; fill-opacity: 0.5; stroke: #0000ff; stroke-opacity: 0.5"/>
     <use xlink:href="#m2972b004bb" x="53.37" y="56.365165" style="fill: #0000ff; fill-opacity: 0.5; stroke: #0000ff; stroke-opacity: 0.5"/>
     <use xlink:href="#m2972b004bb" x="184.5" y="154.074872" style="fill: #0000ff; fill-opacity: 0.5; stroke: #0000ff; stroke-opacity: 0.5"/>
     <use xlink:href="#m2972b004bb" x="254.25" y="142.349707" style="fill: #0000ff; fill-opacity: 0.5; stroke: #0000ff; stroke-opacity: 0.5"/>
     <use xlink:href="#m2972b004bb" x="58.95" y="87.632271" style="fill: #0000ff; fill-opacity: 0.5; stroke: #0000ff; stroke-opacity: 0.5"/>
     <use xlink:href="#m2972b004bb" x="184.5" y="165.800036" style="fill: #0000ff; fill-opacity: 0.5; stroke: #0000ff; stroke-opacity: 0.5"/>
     <use xlink:href="#m2972b004bb" x="58.95" y="71.998718" style="fill: #0000ff; fill-opacity: 0.5; stroke: #0000ff; stroke-opacity: 0.5"/>
     <use xlink:href="#m2972b004bb" x="45" y="95.449047" style="fill: #0000ff; fill-opacity: 0.5; stroke: #0000ff; stroke-opacity: 0.5"/>
     <use xlink:href="#m2972b004bb" x="100.8" y="134.53293" style="fill: #0000ff; fill-opacity: 0.5; stroke: #0000ff; stroke-opacity: 0.5"/>
     <use xlink:href="#m2972b004bb" x="72.9" y="103.265824" style="fill: #0000ff; fill-opacity: 0.5; stroke: #0000ff; stroke-opacity: 0.5"/>
     <use xlink:href="#m2972b004bb" x="72.9" y="68.09033" style="fill: #0000ff; fill-opacity: 0.5; stroke: #0000ff; stroke-opacity: 0.5"/>
     <use xlink:href="#m2972b004bb" x="100.8" y="118.899377" style="fill: #0000ff; fill-opacity: 0.5; stroke: #0000ff; stroke-opacity: 0.5"/>
     <use xlink:href="#m2972b004bb" x="128.7" y="107.174212" style="fill: #0000ff; fill-opacity: 0.5; stroke: #0000ff; stroke-opacity: 0.5"/>
     <use xlink:href="#m2972b004bb" x="86.85" y="79.815494" style="fill: #0000ff; fill-opacity: 0.5; stroke: #0000ff; stroke-opacity: 0.5"/>
     <use xlink:href="#m2972b004bb" x="72.9" y="60.273553" style="fill: #0000ff; fill-opacity: 0.5; stroke: #0000ff; stroke-opacity: 0.5"/>
     <use xlink:href="#m2972b004bb" x="114.75" y="154.074872" style="fill: #0000ff; fill-opacity: 0.5; stroke: #0000ff; stroke-opacity: 0.5"/>
     <use xlink:href="#m2972b004bb" x="229.14" y="173.616813" style="fill: #0000ff; fill-opacity: 0.5; stroke: #0000ff; stroke-opacity: 0.5"/>
     <use xlink:href="#m2972b004bb" x="47.79" y="138.441318" style="fill: #0000ff; fill-opacity: 0.5; stroke: #0000ff; stroke-opacity: 0.5"/>
     <use xlink:href="#m2972b004bb" x="190.08" y="157.98326" style="fill: #0000ff; fill-opacity: 0.5; stroke: #0000ff; stroke-opacity: 0.5"/>
     <use xlink:href="#m2972b004bb" x="184.5" y="56.365165" style="fill: #0000ff; fill-opacity: 0.5; stroke: #0000ff; stroke-opacity: 0.5"/>
     <use xlink:href="#m2972b004bb" x="184.5" y="200.975531" style="fill: #0000ff; fill-opacity: 0.5; stroke: #0000ff; stroke-opacity: 0.5"/>
    </g>
   </g>
   <g id="PolyCollection_1">
    <defs>
     <path id="m77403ebb8e" d="M 45 -218.537736 
L 45 -176.235325 
L 47.818182 -175.700894 
L 50.636364 -175.274878 
L 53.454545 -174.620566 
L 56.272727 -174.082054 
L 59.090909 -173.280223 
L 61.909091 -172.452957 
L 64.727273 -171.626179 
L 67.545455 -170.808528 
L 70.363636 -170.022461 
L 73.181818 -169.440584 
L 76 -168.650949 
L 78.818182 -167.750806 
L 81.636364 -166.844881 
L 84.454545 -166.288323 
L 87.272727 -165.502341 
L 90.090909 -164.736187 
L 92.909091 -163.925845 
L 95.727273 -163.13656 
L 98.545455 -162.321247 
L 101.363636 -161.557413 
L 104.181818 -160.768002 
L 107 -159.836404 
L 109.818182 -158.875052 
L 112.636364 -157.820299 
L 115.454545 -156.794649 
L 118.272727 -155.812884 
L 121.090909 -154.485192 
L 123.909091 -153.833809 
L 126.727273 -152.82561 
L 129.545455 -151.816559 
L 132.363636 -150.885251 
L 135.181818 -149.795213 
L 138 -148.701648 
L 140.818182 -147.05567 
L 143.636364 -145.517806 
L 146.454545 -144.738542 
L 149.272727 -143.678041 
L 152.090909 -142.12385 
L 154.909091 -140.713659 
L 157.727273 -139.124573 
L 160.545455 -137.550277 
L 163.363636 -136.073212 
L 166.181818 -134.665095 
L 169 -133.110907 
L 171.818182 -131.556608 
L 174.636364 -130.03362 
L 177.454545 -128.326529 
L 180.272727 -126.992734 
L 183.090909 -125.374905 
L 185.909091 -123.703615 
L 188.727273 -122.032325 
L 191.545455 -120.399276 
L 194.363636 -118.963456 
L 197.181818 -117.431636 
L 200 -115.658061 
L 202.818182 -114.14233 
L 205.636364 -112.459653 
L 208.454545 -110.779978 
L 211.272727 -109.100303 
L 214.090909 -107.423008 
L 216.909091 -105.743196 
L 219.727273 -104.015011 
L 222.545455 -102.31369 
L 225.363636 -100.67774 
L 228.181818 -98.914138 
L 231 -97.058723 
L 233.818182 -95.276896 
L 236.636364 -93.601586 
L 239.454545 -91.933001 
L 242.272727 -90.361445 
L 245.090909 -88.758757 
L 247.909091 -86.91666 
L 250.727273 -85.238689 
L 253.545455 -83.54031 
L 256.363636 -81.897801 
L 259.181818 -80.223781 
L 262 -78.549762 
L 264.818182 -76.876625 
L 267.636364 -75.206396 
L 270.454545 -73.536168 
L 273.272727 -71.86594 
L 276.090909 -70.261252 
L 278.909091 -68.670626 
L 281.727273 -67.078016 
L 284.545455 -65.330659 
L 287.363636 -63.533602 
L 290.181818 -61.829915 
L 293 -60.154393 
L 295.818182 -58.482025 
L 298.636364 -56.810399 
L 301.454545 -55.138774 
L 304.272727 -53.402859 
L 307.090909 -51.680026 
L 309.909091 -50.033169 
L 312.727273 -48.388506 
L 315.545455 -46.743843 
L 318.363636 -45.09918 
L 321.181818 -43.431882 
L 324 -41.76 
L 324 -133.737373 
L 324 -133.737373 
L 321.181818 -134.192411 
L 318.363636 -134.647448 
L 315.545455 -135.102486 
L 312.727273 -135.693049 
L 309.909091 -136.318943 
L 307.090909 -136.843261 
L 304.272727 -137.300975 
L 301.454545 -137.779994 
L 298.636364 -138.367966 
L 295.818182 -138.95374 
L 293 -139.539513 
L 290.181818 -140.117661 
L 287.363636 -140.573831 
L 284.545455 -141.028794 
L 281.727273 -141.483757 
L 278.909091 -141.933198 
L 276.090909 -142.39959 
L 273.272727 -142.969528 
L 270.454545 -143.748517 
L 267.636364 -144.294557 
L 264.818182 -144.73423 
L 262 -145.171825 
L 259.181818 -145.606608 
L 256.363636 -146.041392 
L 253.545455 -146.485406 
L 250.727273 -147.023147 
L 247.909091 -147.560889 
L 245.090909 -148.09863 
L 242.272727 -148.636048 
L 239.454545 -149.171581 
L 236.636364 -149.707115 
L 233.818182 -150.242649 
L 231 -150.790455 
L 228.181818 -151.400496 
L 225.363636 -152.010538 
L 222.545455 -152.664672 
L 219.727273 -153.412192 
L 216.909091 -154.016451 
L 214.090909 -154.445398 
L 211.272727 -155.151093 
L 208.454545 -155.904582 
L 205.636364 -156.587326 
L 202.818182 -156.920467 
L 200 -157.500915 
L 197.181818 -158.110957 
L 194.363636 -158.64335 
L 191.545455 -159.339424 
L 188.727273 -159.961199 
L 185.909091 -160.575924 
L 183.090909 -161.182504 
L 180.272727 -161.789083 
L 177.454545 -162.401634 
L 174.636364 -162.743334 
L 171.818182 -163.026649 
L 169 -163.912834 
L 166.181818 -164.845201 
L 163.363636 -165.789148 
L 160.545455 -166.709069 
L 157.727273 -167.667131 
L 154.909091 -168.407645 
L 152.090909 -169.006158 
L 149.272727 -169.914779 
L 146.454545 -170.889737 
L 143.636364 -171.864695 
L 140.818182 -172.843681 
L 138 -173.828942 
L 135.181818 -174.821736 
L 132.363636 -175.631779 
L 129.545455 -176.65979 
L 126.727273 -177.645883 
L 123.909091 -178.697721 
L 121.090909 -179.754184 
L 118.272727 -180.845731 
L 115.454545 -182.046859 
L 112.636364 -183.137623 
L 109.818182 -184.332819 
L 107 -185.74741 
L 104.181818 -187.295589 
L 101.363636 -188.545098 
L 98.545455 -190.027883 
L 95.727273 -191.11579 
L 92.909091 -192.606264 
L 90.090909 -193.968929 
L 87.272727 -195.271772 
L 84.454545 -196.80661 
L 81.636364 -198.392268 
L 78.818182 -199.870049 
L 76 -201.16788 
L 73.181818 -202.733297 
L 70.363636 -204.339919 
L 67.545455 -205.931951 
L 64.727273 -207.302756 
L 61.909091 -208.807741 
L 59.090909 -210.466985 
L 56.272727 -212.180317 
L 53.454545 -213.915748 
L 50.636364 -215.381206 
L 47.818182 -216.916227 
L 45 -218.537736 
z
" style="stroke: #ffffff; stroke-opacity: 0.15"/>
    </defs>
    <g clip-path="url(#pf0574f9324)">
     <use xlink:href="#m77403ebb8e" x="0" y="288" style="fill: #0000ff; fill-opacity: 0.15; stroke: #ffffff; stroke-opacity: 0.15"/>
    </g>
   </g>
   <g id="PathCollection_2">
    <defs>
     <path id="md00dd7af92" d="M 0 1.322876 
C 0.350831 1.322876 0.68734 1.183489 0.935414 0.935414 
C 1.183489 0.68734 1.322876 0.350831 1.322876 0 
C 1.322876 -0.350831 1.183489 -0.68734 0.935414 -0.935414 
C 0.68734 -1.183489 0.350831 -1.322876 0 -1.322876 
C -0.350831 -1.322876 -0.68734 -1.183489 -0.935414 -0.935414 
C -1.183489 -0.68734 -1.322876 -0.350831 -1.322876 0 
C -1.322876 0.350831 -1.183489 0.68734 -0.935414 0.935414 
C -0.68734 1.183489 -0.350831 1.322876 0 1.322876 
z
" style="stroke: #ff0000; stroke-opacity: 0.5"/>
    </defs>
    <g clip-path="url(#pf0574f9324)">
     <use xlink:href="#md00dd7af92" x="106.38" y="48.548388" style="fill: #ff0000; fill-opacity: 0.5; stroke: #ff0000; stroke-opacity: 0.5"/>
     <use xlink:href="#md00dd7af92" x="318.42" y="44.64" style="fill: #ff0000; fill-opacity: 0.5; stroke: #ff0000; stroke-opacity: 0.5"/>
     <use xlink:href="#md00dd7af92" x="114.75" y="169.708425" style="fill: #ff0000; fill-opacity: 0.5; stroke: #ff0000; stroke-opacity: 0.5"/>
     <use xlink:href="#md00dd7af92" x="184.5" y="83.723883" style="fill: #ff0000; fill-opacity: 0.5; stroke: #ff0000; stroke-opacity: 0.5"/>
     <use xlink:href="#md00dd7af92" x="229.14" y="189.250366" style="fill: #ff0000; fill-opacity: 0.5; stroke: #ff0000; stroke-opacity: 0.5"/>
     <use xlink:href="#md00dd7af92" x="254.25" y="212.700696" style="fill: #ff0000; fill-opacity: 0.5; stroke: #ff0000; stroke-opacity: 0.5"/>
     <use xlink:href="#md00dd7af92" x="53.37" y="157.98326" style="fill: #ff0000; fill-opacity: 0.5; stroke: #ff0000; stroke-opacity: 0.5"/>
     <use xlink:href="#md00dd7af92" x="268.2" y="181.433589" style="fill: #ff0000; fill-opacity: 0.5; stroke: #ff0000; stroke-opacity: 0.5"/>
     <use xlink:href="#md00dd7af92" x="137.07" y="165.800036" style="fill: #ff0000; fill-opacity: 0.5; stroke: #ff0000; stroke-opacity: 0.5"/>
     <use xlink:href="#md00dd7af92" x="184.5" y="200.975531" style="fill: #ff0000; fill-opacity: 0.5; stroke: #ff0000; stroke-opacity: 0.5"/>
     <use xlink:href="#md00dd7af92" x="248.67" y="193.158754" style="fill: #ff0000; fill-opacity: 0.5; stroke: #ff0000; stroke-opacity: 0.5"/>
     <use xlink:href="#md00dd7af92" x="296.1" y="150.166483" style="fill: #ff0000; fill-opacity: 0.5; stroke: #ff0000; stroke-opacity: 0.5"/>
     <use xlink:href="#md00dd7af92" x="254.25" y="111.082601" style="fill: #ff0000; fill-opacity: 0.5; stroke: #ff0000; stroke-opacity: 0.5"/>
     <use xlink:href="#md00dd7af92" x="240.3" y="130.624542" style="fill: #ff0000; fill-opacity: 0.5; stroke: #ff0000; stroke-opacity: 0.5"/>
     <use xlink:href="#md00dd7af92" x="184.5" y="185.341978" style="fill: #ff0000; fill-opacity: 0.5; stroke: #ff0000; stroke-opacity: 0.5"/>
     <use xlink:href="#md00dd7af92" x="220.77" y="150.166483" style="fill: #ff0000; fill-opacity: 0.5; stroke: #ff0000; stroke-opacity: 0.5"/>
     <use xlink:href="#md00dd7af92" x="120.33" y="216.609084" style="fill: #ff0000; fill-opacity: 0.5; stroke: #ff0000; stroke-opacity: 0.5"/>
     <use xlink:href="#md00dd7af92" x="173.34" y="224.42586" style="fill: #ff0000; fill-opacity: 0.5; stroke: #ff0000; stroke-opacity: 0.5"/>
     <use xlink:href="#md00dd7af92" x="240.3" y="189.250366" style="fill: #ff0000; fill-opacity: 0.5; stroke: #ff0000; stroke-opacity: 0.5"/>
     <use xlink:href="#md00dd7af92" x="156.6" y="161.891648" style="fill: #ff0000; fill-opacity: 0.5; stroke: #ff0000; stroke-opacity: 0.5"/>
     <use xlink:href="#md00dd7af92" x="226.35" y="126.716154" style="fill: #ff0000; fill-opacity: 0.5; stroke: #ff0000; stroke-opacity: 0.5"/>
     <use xlink:href="#md00dd7af92" x="212.4" y="150.166483" style="fill: #ff0000; fill-opacity: 0.5; stroke: #ff0000; stroke-opacity: 0.5"/>
     <use xlink:href="#md00dd7af92" x="268.2" y="161.891648" style="fill: #ff0000; fill-opacity: 0.5; stroke: #ff0000; stroke-opacity: 0.5"/>
     <use xlink:href="#md00dd7af92" x="212.4" y="95.449047" style="fill: #ff0000; fill-opacity: 0.5; stroke: #ff0000; stroke-opacity: 0.5"/>
     <use xlink:href="#md00dd7af92" x="215.19" y="154.074872" style="fill: #ff0000; fill-opacity: 0.5; stroke: #ff0000; stroke-opacity: 0.5"/>
     <use xlink:href="#md00dd7af92" x="184.5" y="103.265824" style="fill: #ff0000; fill-opacity: 0.5; stroke: #ff0000; stroke-opacity: 0.5"/>
     <use xlink:href="#md00dd7af92" x="212.4" y="181.433589" style="fill: #ff0000; fill-opacity: 0.5; stroke: #ff0000; stroke-opacity: 0.5"/>
    </g>
   </g>
   <g id="PolyCollection_2">
    <defs>
     <path id="m926e0faa70" d="M 45 -200.004252 
L 45 -53.301924 
L 47.818182 -54.43467 
L 50.636364 -55.771711 
L 53.454545 -57.269522 
L 56.272727 -58.767334 
L 59.090909 -60.181587 
L 61.909091 -61.313063 
L 64.727273 -62.551855 
L 67.545455 -63.932559 
L 70.363636 -65.313264 
L 73.181818 -66.693968 
L 76 -68.078897 
L 78.818182 -69.233942 
L 81.636364 -70.316413 
L 84.454545 -71.398884 
L 87.272727 -72.481355 
L 90.090909 -73.506799 
L 92.909091 -74.476745 
L 95.727273 -75.446692 
L 98.545455 -76.260192 
L 101.363636 -77.073352 
L 104.181818 -78.183335 
L 107 -79.302236 
L 109.818182 -80.296425 
L 112.636364 -81.266372 
L 115.454545 -82.236319 
L 118.272727 -83.22401 
L 121.090909 -84.788092 
L 123.909091 -86.042679 
L 126.727273 -87.176111 
L 129.545455 -88.34515 
L 132.363636 -89.590426 
L 135.181818 -90.773846 
L 138 -91.797236 
L 140.818182 -92.92876 
L 143.636364 -94.006217 
L 146.454545 -95.083674 
L 149.272727 -96.188507 
L 152.090909 -97.312207 
L 154.909091 -98.343712 
L 157.727273 -99.559608 
L 160.545455 -100.509385 
L 163.363636 -101.540607 
L 166.181818 -102.793182 
L 169 -103.781588 
L 171.818182 -104.770324 
L 174.636364 -105.955166 
L 177.454545 -106.77516 
L 180.272727 -107.49896 
L 183.090909 -107.875279 
L 185.909091 -108.304091 
L 188.727273 -109.207657 
L 191.545455 -110.013402 
L 194.363636 -110.104835 
L 197.181818 -110.951957 
L 200 -111.416176 
L 202.818182 -111.924249 
L 205.636364 -112.201237 
L 208.454545 -112.499614 
L 211.272727 -112.850399 
L 214.090909 -113.167561 
L 216.909091 -113.165669 
L 219.727273 -113.169625 
L 222.545455 -113.126118 
L 225.363636 -113.323114 
L 228.181818 -113.519479 
L 231 -113.3697 
L 233.818182 -113.064689 
L 236.636364 -112.786883 
L 239.454545 -112.366517 
L 242.272727 -112.134675 
L 245.090909 -111.997848 
L 247.909091 -111.781211 
L 250.727273 -110.691378 
L 253.545455 -110.440231 
L 256.363636 -110.090289 
L 259.181818 -109.507797 
L 262 -109.073692 
L 264.818182 -108.492541 
L 267.636364 -108.168622 
L 270.454545 -107.507525 
L 273.272727 -106.921899 
L 276.090909 -106.310689 
L 278.909091 -105.129957 
L 281.727273 -104.632633 
L 284.545455 -103.566157 
L 287.363636 -103.009315 
L 290.181818 -102.210751 
L 293 -101.689335 
L 295.818182 -100.908824 
L 298.636364 -99.811732 
L 301.454545 -99.03846 
L 304.272727 -97.894691 
L 307.090909 -96.750922 
L 309.909091 -95.782473 
L 312.727273 -94.627671 
L 315.545455 -93.641023 
L 318.363636 -93.227437 
L 321.181818 -92.663066 
L 324 -92.262572 
L 324 -190.821032 
L 324 -190.821032 
L 321.181818 -189.45008 
L 318.363636 -188.109298 
L 315.545455 -186.98765 
L 312.727273 -185.866001 
L 309.909091 -184.746062 
L 307.090909 -183.630399 
L 304.272727 -182.524735 
L 301.454545 -181.56195 
L 298.636364 -180.290772 
L 295.818182 -179.312315 
L 293 -178.433559 
L 290.181818 -177.469644 
L 287.363636 -176.315469 
L 284.545455 -175.07987 
L 281.727273 -173.844271 
L 278.909091 -173.161269 
L 276.090909 -172.141315 
L 273.272727 -170.968091 
L 270.454545 -169.794392 
L 267.636364 -168.345371 
L 264.818182 -166.865673 
L 262 -165.149585 
L 259.181818 -163.96286 
L 256.363636 -163.157689 
L 253.545455 -161.799142 
L 250.727273 -160.961043 
L 247.909091 -160.05113 
L 245.090909 -159.196653 
L 242.272727 -158.020272 
L 239.454545 -157.178825 
L 236.636364 -156.531497 
L 233.818182 -155.616031 
L 231 -155.022985 
L 228.181818 -154.448314 
L 225.363636 -153.888465 
L 222.545455 -153.660964 
L 219.727273 -153.003679 
L 216.909091 -152.314843 
L 214.090909 -152.033835 
L 211.272727 -151.810796 
L 208.454545 -151.645564 
L 205.636364 -151.379757 
L 202.818182 -151.082597 
L 200 -150.830845 
L 197.181818 -150.872304 
L 194.363636 -151.080916 
L 191.545455 -150.988596 
L 188.727273 -151.269212 
L 185.909091 -151.822042 
L 183.090909 -152.453602 
L 180.272727 -153.217358 
L 177.454545 -153.363412 
L 174.636364 -154.166179 
L 171.818182 -154.523267 
L 169 -155.244609 
L 166.181818 -155.893914 
L 163.363636 -156.454985 
L 160.545455 -157.320333 
L 157.727273 -158.217589 
L 154.909091 -159.11753 
L 152.090909 -159.746492 
L 149.272727 -160.402205 
L 146.454545 -161.255235 
L 143.636364 -162.357676 
L 140.818182 -163.378494 
L 138 -164.444206 
L 135.181818 -165.349868 
L 132.363636 -165.752968 
L 129.545455 -166.632003 
L 126.727273 -167.667986 
L 123.909091 -168.858963 
L 121.090909 -169.969883 
L 118.272727 -171.188099 
L 115.454545 -172.541516 
L 112.636364 -173.832887 
L 109.818182 -174.900108 
L 107 -175.878751 
L 104.181818 -176.857394 
L 101.363636 -177.836037 
L 98.545455 -178.888697 
L 95.727273 -180.001013 
L 92.909091 -181.113328 
L 90.090909 -182.225643 
L 87.272727 -183.337959 
L 84.454545 -184.450274 
L 81.636364 -185.56259 
L 78.818182 -186.578557 
L 76 -187.65477 
L 73.181818 -188.845813 
L 70.363636 -189.935545 
L 67.545455 -190.999261 
L 64.727273 -192.062978 
L 61.909091 -193.126694 
L 59.090909 -194.190411 
L 56.272727 -195.307094 
L 53.454545 -196.481383 
L 50.636364 -197.655673 
L 47.818182 -198.829962 
L 45 -200.004252 
z
" style="stroke: #ffffff; stroke-opacity: 0.15"/>
    </defs>
    <g clip-path="url(#pf0574f9324)">
     <use xlink:href="#m926e0faa70" x="0" y="288" style="fill: #ff0000; fill-opacity: 0.15; stroke: #ffffff; stroke-opacity: 0.15"/>
    </g>
   </g>
   <g id="line2d_13">
    <path d="M 45 91.106553 
L 47.818182 92.173814 
L 50.636364 93.241074 
L 53.454545 94.308335 
L 56.272727 95.375596 
L 59.090909 96.442857 
L 61.909091 97.510117 
L 64.727273 98.577378 
L 67.545455 99.644639 
L 70.363636 100.711899 
L 73.181818 101.77916 
L 76 102.846421 
L 78.818182 103.913681 
L 81.636364 104.980942 
L 84.454545 106.048203 
L 87.272727 107.115463 
L 90.090909 108.182724 
L 92.909091 109.249985 
L 95.727273 110.317245 
L 98.545455 111.384506 
L 101.363636 112.451767 
L 104.181818 113.519027 
L 107 114.586288 
L 109.818182 115.653549 
L 112.636364 116.720809 
L 115.454545 117.78807 
L 118.272727 118.855331 
L 121.090909 119.922592 
L 123.909091 120.989852 
L 126.727273 122.057113 
L 129.545455 123.124374 
L 132.363636 124.191634 
L 135.181818 125.258895 
L 138 126.326156 
L 140.818182 127.393416 
L 143.636364 128.460677 
L 146.454545 129.527938 
L 149.272727 130.595198 
L 152.090909 131.662459 
L 154.909091 132.72972 
L 157.727273 133.79698 
L 160.545455 134.864241 
L 163.363636 135.931502 
L 166.181818 136.998762 
L 169 138.066023 
L 171.818182 139.133284 
L 174.636364 140.200544 
L 177.454545 141.267805 
L 180.272727 142.335066 
L 183.090909 143.402327 
L 185.909091 144.469587 
L 188.727273 145.536848 
L 191.545455 146.604109 
L 194.363636 147.671369 
L 197.181818 148.73863 
L 200 149.805891 
L 202.818182 150.873151 
L 205.636364 151.940412 
L 208.454545 153.007673 
L 211.272727 154.074933 
L 214.090909 155.142194 
L 216.909091 156.209455 
L 219.727273 157.276715 
L 222.545455 158.343976 
L 225.363636 159.411237 
L 228.181818 160.478497 
L 231 161.545758 
L 233.818182 162.613019 
L 236.636364 163.680279 
L 239.454545 164.74754 
L 242.272727 165.814801 
L 245.090909 166.882062 
L 247.909091 167.949322 
L 250.727273 169.016583 
L 253.545455 170.083844 
L 256.363636 171.151104 
L 259.181818 172.218365 
L 262 173.285626 
L 264.818182 174.352886 
L 267.636364 175.420147 
L 270.454545 176.487408 
L 273.272727 177.554668 
L 276.090909 178.621929 
L 278.909091 179.68919 
L 281.727273 180.75645 
L 284.545455 181.823711 
L 287.363636 182.890972 
L 290.181818 183.958232 
L 293 185.025493 
L 295.818182 186.092754 
L 298.636364 187.160014 
L 301.454545 188.227275 
L 304.272727 189.294536 
L 307.090909 190.361797 
L 309.909091 191.429057 
L 312.727273 192.496318 
L 315.545455 193.563579 
L 318.363636 194.630839 
L 321.181818 195.6981 
L 324 196.765361 
" clip-path="url(#pf0574f9324)" style="fill: none; stroke: #0000ff; stroke-width: 2.25; stroke-linecap: round"/>
   </g>
   <g id="line2d_14">
    <path d="M 45 170.562454 
L 47.818182 170.33561 
L 50.636364 170.108765 
L 53.454545 169.881921 
L 56.272727 169.655076 
L 59.090909 169.428232 
L 61.909091 169.201387 
L 64.727273 168.974543 
L 67.545455 168.747698 
L 70.363636 168.520854 
L 73.181818 168.294009 
L 76 168.067165 
L 78.818182 167.84032 
L 81.636364 167.613476 
L 84.454545 167.386631 
L 87.272727 167.159787 
L 90.090909 166.932942 
L 92.909091 166.706097 
L 95.727273 166.479253 
L 98.545455 166.252408 
L 101.363636 166.025564 
L 104.181818 165.798719 
L 107 165.571875 
L 109.818182 165.34503 
L 112.636364 165.118186 
L 115.454545 164.891341 
L 118.272727 164.664497 
L 121.090909 164.437652 
L 123.909091 164.210808 
L 126.727273 163.983963 
L 129.545455 163.757119 
L 132.363636 163.530274 
L 135.181818 163.30343 
L 138 163.076585 
L 140.818182 162.849741 
L 143.636364 162.622896 
L 146.454545 162.396051 
L 149.272727 162.169207 
L 152.090909 161.942362 
L 154.909091 161.715518 
L 157.727273 161.488673 
L 160.545455 161.261829 
L 163.363636 161.034984 
L 166.181818 160.80814 
L 169 160.581295 
L 171.818182 160.354451 
L 174.636364 160.127606 
L 177.454545 159.900762 
L 180.272727 159.673917 
L 183.090909 159.447073 
L 185.909091 159.220228 
L 188.727273 158.993384 
L 191.545455 158.766539 
L 194.363636 158.539695 
L 197.181818 158.31285 
L 200 158.086006 
L 202.818182 157.859161 
L 205.636364 157.632316 
L 208.454545 157.405472 
L 211.272727 157.178627 
L 214.090909 156.951783 
L 216.909091 156.724938 
L 219.727273 156.498094 
L 222.545455 156.271249 
L 225.363636 156.044405 
L 228.181818 155.81756 
L 231 155.590716 
L 233.818182 155.363871 
L 236.636364 155.137027 
L 239.454545 154.910182 
L 242.272727 154.683338 
L 245.090909 154.456493 
L 247.909091 154.229649 
L 250.727273 154.002804 
L 253.545455 153.77596 
L 256.363636 153.549115 
L 259.181818 153.32227 
L 262 153.095426 
L 264.818182 152.868581 
L 267.636364 152.641737 
L 270.454545 152.414892 
L 273.272727 152.188048 
L 276.090909 151.961203 
L 278.909091 151.734359 
L 281.727273 151.507514 
L 284.545455 151.28067 
L 287.363636 151.053825 
L 290.181818 150.826981 
L 293 150.600136 
L 295.818182 150.373292 
L 298.636364 150.146447 
L 301.454545 149.919603 
L 304.272727 149.692758 
L 307.090909 149.465914 
L 309.909091 149.239069 
L 312.727273 149.012224 
L 315.545455 148.78538 
L 318.363636 148.558535 
L 321.181818 148.331691 
L 324 148.104846 
" clip-path="url(#pf0574f9324)" style="fill: none; stroke: #ff0000; stroke-width: 2.25; stroke-linecap: round"/>
   </g>
   <g id="patch_3">
    <path d="M 45 256.32 
L 45 34.56 
" style="fill: none; stroke: #ffffff; stroke-width: 0.8; stroke-linejoin: miter; stroke-linecap: square"/>
   </g>
   <g id="patch_4">
    <path d="M 324 256.32 
L 324 34.56 
" style="fill: none; stroke: #ffffff; stroke-width: 0.8; stroke-linejoin: miter; stroke-linecap: square"/>
   </g>
   <g id="patch_5">
    <path d="M 45 256.32 
L 324 256.32 
" style="fill: none; stroke: #ffffff; stroke-width: 0.8; stroke-linejoin: miter; stroke-linecap: square"/>
   </g>
   <g id="patch_6">
    <path d="M 45 34.56 
L 324 34.56 
" style="fill: none; stroke: #ffffff; stroke-width: 0.8; stroke-linejoin: miter; stroke-linecap: square"/>
   </g>
   <g id="text_13">
    <!-- BDI -->
    <g style="fill: #262626" transform="translate(169.000313 28.56)scale(0.18 -0.18)">
     <defs>
      <path id="Arial-BoldMT-42" d="M 469 4581 
L 2300 4581 
Q 2844 4581 3111 4536 
Q 3378 4491 3589 4347 
Q 3800 4203 3940 3964 
Q 4081 3725 4081 3428 
Q 4081 3106 3907 2837 
Q 3734 2569 3438 2434 
Q 3856 2313 4081 2019 
Q 4306 1725 4306 1328 
Q 4306 1016 4161 720 
Q 4016 425 3764 248 
Q 3513 72 3144 31 
Q 2913 6 2028 0 
L 469 0 
L 469 4581 
z
M 1394 3819 
L 1394 2759 
L 2000 2759 
Q 2541 2759 2672 2775 
Q 2909 2803 3045 2939 
Q 3181 3075 3181 3297 
Q 3181 3509 3064 3642 
Q 2947 3775 2716 3803 
Q 2578 3819 1925 3819 
L 1394 3819 
z
M 1394 1997 
L 1394 772 
L 2250 772 
Q 2750 772 2884 800 
Q 3091 838 3220 983 
Q 3350 1128 3350 1372 
Q 3350 1578 3250 1722 
Q 3150 1866 2961 1931 
Q 2772 1997 2141 1997 
L 1394 1997 
z
" transform="scale(0.015625)"/>
      <path id="Arial-BoldMT-44" d="M 463 4581 
L 2153 4581 
Q 2725 4581 3025 4494 
Q 3428 4375 3715 4072 
Q 4003 3769 4153 3330 
Q 4303 2891 4303 2247 
Q 4303 1681 4163 1272 
Q 3991 772 3672 463 
Q 3431 228 3022 97 
Q 2716 0 2203 0 
L 463 0 
L 463 4581 
z
M 1388 3806 
L 1388 772 
L 2078 772 
Q 2466 772 2638 816 
Q 2863 872 3011 1006 
Q 3159 1141 3253 1448 
Q 3347 1756 3347 2288 
Q 3347 2819 3253 3103 
Q 3159 3388 2990 3547 
Q 2822 3706 2563 3763 
Q 2369 3806 1803 3806 
L 1388 3806 
z
" transform="scale(0.015625)"/>
      <path id="Arial-BoldMT-49" d="M 438 0 
L 438 4581 
L 1363 4581 
L 1363 0 
L 438 0 
z
" transform="scale(0.015625)"/>
     </defs>
     <use xlink:href="#Arial-BoldMT-42"/>
     <use xlink:href="#Arial-BoldMT-44" x="72.216797"/>
     <use xlink:href="#Arial-BoldMT-49" x="144.433594"/>
    </g>
   </g>
  </g>
 </g>
 <defs>
  <clipPath id="pf0574f9324">
   <rect x="45" y="34.56" width="279" height="221.76"/>
  </clipPath>
 </defs>
</svg>
