<?xml version="1.0" encoding="utf-8" standalone="no"?>
<!DOCTYPE svg PUBLIC "-//W3C//DTD SVG 1.1//EN"
  "http://www.w3.org/Graphics/SVG/1.1/DTD/svg11.dtd">
<svg xmlns:xlink="http://www.w3.org/1999/xlink" width="360pt" height="288pt" viewBox="0 0 360 288" xmlns="http://www.w3.org/2000/svg" version="1.1">
 <metadata>
  <rdf:RDF xmlns:dc="http://purl.org/dc/elements/1.1/" xmlns:cc="http://creativecommons.org/ns#" xmlns:rdf="http://www.w3.org/1999/02/22-rdf-syntax-ns#">
   <cc:Work>
    <dc:type rdf:resource="http://purl.org/dc/dcmitype/StillImage"/>
    <dc:date>2022-11-10T09:38:59.049894</dc:date>
    <dc:format>image/svg+xml</dc:format>
    <dc:creator>
     <cc:Agent>
      <dc:title>Matplotlib v3.5.2, https://matplotlib.org/</dc:title>
     </cc:Agent>
    </dc:creator>
   </cc:Work>
  </rdf:RDF>
 </metadata>
 <defs>
  <style type="text/css">*{stroke-linejoin: round; stroke-linecap: butt}</style>
 </defs>
 <g id="figure_1">
  <g id="patch_1">
   <path d="M 0 288 
L 360 288 
L 360 0 
L 0 0 
z
" style="fill: #ffffff"/>
  </g>
  <g id="axes_1">
   <g id="patch_2">
    <path d="M 45 256.32 
L 324 256.32 
L 324 34.56 
L 45 34.56 
z
" style="fill: #eaeaf2"/>
   </g>
   <g id="matplotlib.axis_1">
    <g id="xtick_1">
     <g id="line2d_1">
      <path d="M 45 256.32 
L 45 34.56 
" clip-path="url(#p981d47364b)" style="fill: none; stroke: #ffffff; stroke-width: 0.8; stroke-linecap: round"/>
     </g>
     <g id="text_1">
      <!-- 0 -->
      <g style="fill: #262626" transform="translate(41.107344 273.340937)scale(0.14 -0.14)">
       <defs>
        <path id="ArialMT-30" d="M 266 2259 
Q 266 3072 433 3567 
Q 600 4063 929 4331 
Q 1259 4600 1759 4600 
Q 2128 4600 2406 4451 
Q 2684 4303 2865 4023 
Q 3047 3744 3150 3342 
Q 3253 2941 3253 2259 
Q 3253 1453 3087 958 
Q 2922 463 2592 192 
Q 2263 -78 1759 -78 
Q 1097 -78 719 397 
Q 266 969 266 2259 
z
M 844 2259 
Q 844 1131 1108 757 
Q 1372 384 1759 384 
Q 2147 384 2411 759 
Q 2675 1134 2675 2259 
Q 2675 3391 2411 3762 
Q 2147 4134 1753 4134 
Q 1366 4134 1134 3806 
Q 844 3388 844 2259 
z
" transform="scale(0.015625)"/>
       </defs>
       <use xlink:href="#ArialMT-30"/>
      </g>
     </g>
    </g>
    <g id="xtick_2">
     <g id="line2d_2">
      <path d="M 100.8 256.32 
L 100.8 34.56 
" clip-path="url(#p981d47364b)" style="fill: none; stroke: #ffffff; stroke-width: 0.8; stroke-linecap: round"/>
     </g>
     <g id="text_2">
      <!-- 20 -->
      <g style="fill: #262626" transform="translate(93.014687 273.340937)scale(0.14 -0.14)">
       <defs>
        <path id="ArialMT-32" d="M 3222 541 
L 3222 0 
L 194 0 
Q 188 203 259 391 
Q 375 700 629 1000 
Q 884 1300 1366 1694 
Q 2113 2306 2375 2664 
Q 2638 3022 2638 3341 
Q 2638 3675 2398 3904 
Q 2159 4134 1775 4134 
Q 1369 4134 1125 3890 
Q 881 3647 878 3216 
L 300 3275 
Q 359 3922 746 4261 
Q 1134 4600 1788 4600 
Q 2447 4600 2831 4234 
Q 3216 3869 3216 3328 
Q 3216 3053 3103 2787 
Q 2991 2522 2730 2228 
Q 2469 1934 1863 1422 
Q 1356 997 1212 845 
Q 1069 694 975 541 
L 3222 541 
z
" transform="scale(0.015625)"/>
       </defs>
       <use xlink:href="#ArialMT-32"/>
       <use xlink:href="#ArialMT-30" x="55.615234"/>
      </g>
     </g>
    </g>
    <g id="xtick_3">
     <g id="line2d_3">
      <path d="M 156.6 256.32 
L 156.6 34.56 
" clip-path="url(#p981d47364b)" style="fill: none; stroke: #ffffff; stroke-width: 0.8; stroke-linecap: round"/>
     </g>
     <g id="text_3">
      <!-- 40 -->
      <g style="fill: #262626" transform="translate(148.814687 273.340937)scale(0.14 -0.14)">
       <defs>
        <path id="ArialMT-34" d="M 2069 0 
L 2069 1097 
L 81 1097 
L 81 1613 
L 2172 4581 
L 2631 4581 
L 2631 1613 
L 3250 1613 
L 3250 1097 
L 2631 1097 
L 2631 0 
L 2069 0 
z
M 2069 1613 
L 2069 3678 
L 634 1613 
L 2069 1613 
z
" transform="scale(0.015625)"/>
       </defs>
       <use xlink:href="#ArialMT-34"/>
       <use xlink:href="#ArialMT-30" x="55.615234"/>
      </g>
     </g>
    </g>
    <g id="xtick_4">
     <g id="line2d_4">
      <path d="M 212.4 256.32 
L 212.4 34.56 
" clip-path="url(#p981d47364b)" style="fill: none; stroke: #ffffff; stroke-width: 0.8; stroke-linecap: round"/>
     </g>
     <g id="text_4">
      <!-- 60 -->
      <g style="fill: #262626" transform="translate(204.614688 273.340937)scale(0.14 -0.14)">
       <defs>
        <path id="ArialMT-36" d="M 3184 3459 
L 2625 3416 
Q 2550 3747 2413 3897 
Q 2184 4138 1850 4138 
Q 1581 4138 1378 3988 
Q 1113 3794 959 3422 
Q 806 3050 800 2363 
Q 1003 2672 1297 2822 
Q 1591 2972 1913 2972 
Q 2475 2972 2870 2558 
Q 3266 2144 3266 1488 
Q 3266 1056 3080 686 
Q 2894 316 2569 119 
Q 2244 -78 1831 -78 
Q 1128 -78 684 439 
Q 241 956 241 2144 
Q 241 3472 731 4075 
Q 1159 4600 1884 4600 
Q 2425 4600 2770 4297 
Q 3116 3994 3184 3459 
z
M 888 1484 
Q 888 1194 1011 928 
Q 1134 663 1356 523 
Q 1578 384 1822 384 
Q 2178 384 2434 671 
Q 2691 959 2691 1453 
Q 2691 1928 2437 2201 
Q 2184 2475 1800 2475 
Q 1419 2475 1153 2201 
Q 888 1928 888 1484 
z
" transform="scale(0.015625)"/>
       </defs>
       <use xlink:href="#ArialMT-36"/>
       <use xlink:href="#ArialMT-30" x="55.615234"/>
      </g>
     </g>
    </g>
    <g id="xtick_5">
     <g id="line2d_5">
      <path d="M 268.2 256.32 
L 268.2 34.56 
" clip-path="url(#p981d47364b)" style="fill: none; stroke: #ffffff; stroke-width: 0.8; stroke-linecap: round"/>
     </g>
     <g id="text_5">
      <!-- 80 -->
      <g style="fill: #262626" transform="translate(260.414688 273.340937)scale(0.14 -0.14)">
       <defs>
        <path id="ArialMT-38" d="M 1131 2484 
Q 781 2613 612 2850 
Q 444 3088 444 3419 
Q 444 3919 803 4259 
Q 1163 4600 1759 4600 
Q 2359 4600 2725 4251 
Q 3091 3903 3091 3403 
Q 3091 3084 2923 2848 
Q 2756 2613 2416 2484 
Q 2838 2347 3058 2040 
Q 3278 1734 3278 1309 
Q 3278 722 2862 322 
Q 2447 -78 1769 -78 
Q 1091 -78 675 323 
Q 259 725 259 1325 
Q 259 1772 486 2073 
Q 713 2375 1131 2484 
z
M 1019 3438 
Q 1019 3113 1228 2906 
Q 1438 2700 1772 2700 
Q 2097 2700 2305 2904 
Q 2513 3109 2513 3406 
Q 2513 3716 2298 3927 
Q 2084 4138 1766 4138 
Q 1444 4138 1231 3931 
Q 1019 3725 1019 3438 
z
M 838 1322 
Q 838 1081 952 856 
Q 1066 631 1291 507 
Q 1516 384 1775 384 
Q 2178 384 2440 643 
Q 2703 903 2703 1303 
Q 2703 1709 2433 1975 
Q 2163 2241 1756 2241 
Q 1359 2241 1098 1978 
Q 838 1716 838 1322 
z
" transform="scale(0.015625)"/>
       </defs>
       <use xlink:href="#ArialMT-38"/>
       <use xlink:href="#ArialMT-30" x="55.615234"/>
      </g>
     </g>
    </g>
    <g id="xtick_6">
     <g id="line2d_6">
      <path d="M 324 256.32 
L 324 34.56 
" clip-path="url(#p981d47364b)" style="fill: none; stroke: #ffffff; stroke-width: 0.8; stroke-linecap: round"/>
     </g>
     <g id="text_6">
      <!-- 100 -->
      <g style="fill: #262626" transform="translate(312.322031 273.340937)scale(0.14 -0.14)">
       <defs>
        <path id="ArialMT-31" d="M 2384 0 
L 1822 0 
L 1822 3584 
Q 1619 3391 1289 3197 
Q 959 3003 697 2906 
L 697 3450 
Q 1169 3672 1522 3987 
Q 1875 4303 2022 4600 
L 2384 4600 
L 2384 0 
z
" transform="scale(0.015625)"/>
       </defs>
       <use xlink:href="#ArialMT-31"/>
       <use xlink:href="#ArialMT-30" x="55.615234"/>
       <use xlink:href="#ArialMT-30" x="111.230469"/>
      </g>
     </g>
    </g>
   </g>
   <g id="matplotlib.axis_2">
    <g id="ytick_1">
     <g id="line2d_7">
      <path d="M 45 226.034975 
L 324 226.034975 
" clip-path="url(#p981d47364b)" style="fill: none; stroke: #ffffff; stroke-width: 0.8; stroke-linecap: round"/>
     </g>
     <g id="text_7">
      <!-- −20 -->
      <g style="fill: #262626" transform="translate(14.2525 231.045444)scale(0.14 -0.14)">
       <defs>
        <path id="ArialMT-2212" d="M 3381 1997 
L 356 1997 
L 356 2522 
L 3381 2522 
L 3381 1997 
z
" transform="scale(0.015625)"/>
       </defs>
       <use xlink:href="#ArialMT-2212"/>
       <use xlink:href="#ArialMT-32" x="58.398438"/>
       <use xlink:href="#ArialMT-30" x="114.013672"/>
      </g>
     </g>
    </g>
    <g id="ytick_2">
     <g id="line2d_8">
      <path d="M 45 189.75598 
L 324 189.75598 
" clip-path="url(#p981d47364b)" style="fill: none; stroke: #ffffff; stroke-width: 0.8; stroke-linecap: round"/>
     </g>
     <g id="text_8">
      <!-- −15 -->
      <g style="fill: #262626" transform="translate(14.2525 194.766449)scale(0.14 -0.14)">
       <defs>
        <path id="ArialMT-35" d="M 266 1200 
L 856 1250 
Q 922 819 1161 601 
Q 1400 384 1738 384 
Q 2144 384 2425 690 
Q 2706 997 2706 1503 
Q 2706 1984 2436 2262 
Q 2166 2541 1728 2541 
Q 1456 2541 1237 2417 
Q 1019 2294 894 2097 
L 366 2166 
L 809 4519 
L 3088 4519 
L 3088 3981 
L 1259 3981 
L 1013 2750 
Q 1425 3038 1878 3038 
Q 2478 3038 2890 2622 
Q 3303 2206 3303 1553 
Q 3303 931 2941 478 
Q 2500 -78 1738 -78 
Q 1113 -78 717 272 
Q 322 622 266 1200 
z
" transform="scale(0.015625)"/>
       </defs>
       <use xlink:href="#ArialMT-2212"/>
       <use xlink:href="#ArialMT-31" x="58.398438"/>
       <use xlink:href="#ArialMT-35" x="114.013672"/>
      </g>
     </g>
    </g>
    <g id="ytick_3">
     <g id="line2d_9">
      <path d="M 45 153.476985 
L 324 153.476985 
" clip-path="url(#p981d47364b)" style="fill: none; stroke: #ffffff; stroke-width: 0.8; stroke-linecap: round"/>
     </g>
     <g id="text_9">
      <!-- −10 -->
      <g style="fill: #262626" transform="translate(14.2525 158.487454)scale(0.14 -0.14)">
       <use xlink:href="#ArialMT-2212"/>
       <use xlink:href="#ArialMT-31" x="58.398438"/>
       <use xlink:href="#ArialMT-30" x="114.013672"/>
      </g>
     </g>
    </g>
    <g id="ytick_4">
     <g id="line2d_10">
      <path d="M 45 117.19799 
L 324 117.19799 
" clip-path="url(#p981d47364b)" style="fill: none; stroke: #ffffff; stroke-width: 0.8; stroke-linecap: round"/>
     </g>
     <g id="text_10">
      <!-- −5 -->
      <g style="fill: #262626" transform="translate(22.037813 122.208459)scale(0.14 -0.14)">
       <use xlink:href="#ArialMT-2212"/>
       <use xlink:href="#ArialMT-35" x="58.398438"/>
      </g>
     </g>
    </g>
    <g id="ytick_5">
     <g id="line2d_11">
      <path d="M 45 80.918995 
L 324 80.918995 
" clip-path="url(#p981d47364b)" style="fill: none; stroke: #ffffff; stroke-width: 0.8; stroke-linecap: round"/>
     </g>
     <g id="text_11">
      <!-- 0 -->
      <g style="fill: #262626" transform="translate(30.214688 85.929464)scale(0.14 -0.14)">
       <use xlink:href="#ArialMT-30"/>
      </g>
     </g>
    </g>
    <g id="ytick_6">
     <g id="line2d_12">
      <path d="M 45 44.64 
L 324 44.64 
" clip-path="url(#p981d47364b)" style="fill: none; stroke: #ffffff; stroke-width: 0.8; stroke-linecap: round"/>
     </g>
     <g id="text_12">
      <!-- 5 -->
      <g style="fill: #262626" transform="translate(30.214688 49.650469)scale(0.14 -0.14)">
       <use xlink:href="#ArialMT-35"/>
      </g>
     </g>
    </g>
   </g>
   <g id="PathCollection_1">
    <defs>
     <path id="m59b534fe21" d="M 0 1.322876 
C 0.350831 1.322876 0.68734 1.183489 0.935414 0.935414 
C 1.183489 0.68734 1.322876 0.350831 1.322876 0 
C 1.322876 -0.350831 1.183489 -0.68734 0.935414 -0.935414 
C 0.68734 -1.183489 0.350831 -1.322876 0 -1.322876 
C -0.350831 -1.322876 -0.68734 -1.183489 -0.935414 -0.935414 
C -1.183489 -0.68734 -1.322876 -0.350831 -1.322876 0 
C -1.322876 0.350831 -1.183489 0.68734 -0.935414 0.935414 
C -0.68734 1.183489 -0.350831 1.322876 0 1.322876 
z
" style="stroke: #0000ff; stroke-opacity: 0.5"/>
    </defs>
    <g clip-path="url(#p981d47364b)">
     <use xlink:href="#m59b534fe21" x="72.9" y="175.244382" style="fill: #0000ff; fill-opacity: 0.5; stroke: #0000ff; stroke-opacity: 0.5"/>
     <use xlink:href="#m59b534fe21" x="187.29" y="95.430593" style="fill: #0000ff; fill-opacity: 0.5; stroke: #0000ff; stroke-opacity: 0.5"/>
     <use xlink:href="#m59b534fe21" x="128.7" y="182.500181" style="fill: #0000ff; fill-opacity: 0.5; stroke: #0000ff; stroke-opacity: 0.5"/>
     <use xlink:href="#m59b534fe21" x="201.24" y="124.453789" style="fill: #0000ff; fill-opacity: 0.5; stroke: #0000ff; stroke-opacity: 0.5"/>
     <use xlink:href="#m59b534fe21" x="137.07" y="131.709588" style="fill: #0000ff; fill-opacity: 0.5; stroke: #0000ff; stroke-opacity: 0.5"/>
     <use xlink:href="#m59b534fe21" x="156.6" y="153.476985" style="fill: #0000ff; fill-opacity: 0.5; stroke: #0000ff; stroke-opacity: 0.5"/>
     <use xlink:href="#m59b534fe21" x="142.65" y="109.942191" style="fill: #0000ff; fill-opacity: 0.5; stroke: #0000ff; stroke-opacity: 0.5"/>
     <use xlink:href="#m59b534fe21" x="128.7" y="131.709588" style="fill: #0000ff; fill-opacity: 0.5; stroke: #0000ff; stroke-opacity: 0.5"/>
     <use xlink:href="#m59b534fe21" x="53.37" y="59.151598" style="fill: #0000ff; fill-opacity: 0.5; stroke: #0000ff; stroke-opacity: 0.5"/>
     <use xlink:href="#m59b534fe21" x="184.5" y="175.244382" style="fill: #0000ff; fill-opacity: 0.5; stroke: #0000ff; stroke-opacity: 0.5"/>
     <use xlink:href="#m59b534fe21" x="254.25" y="160.732784" style="fill: #0000ff; fill-opacity: 0.5; stroke: #0000ff; stroke-opacity: 0.5"/>
     <use xlink:href="#m59b534fe21" x="58.95" y="88.174794" style="fill: #0000ff; fill-opacity: 0.5; stroke: #0000ff; stroke-opacity: 0.5"/>
     <use xlink:href="#m59b534fe21" x="184.5" y="175.244382" style="fill: #0000ff; fill-opacity: 0.5; stroke: #0000ff; stroke-opacity: 0.5"/>
     <use xlink:href="#m59b534fe21" x="58.95" y="73.663196" style="fill: #0000ff; fill-opacity: 0.5; stroke: #0000ff; stroke-opacity: 0.5"/>
     <use xlink:href="#m59b534fe21" x="45" y="95.430593" style="fill: #0000ff; fill-opacity: 0.5; stroke: #0000ff; stroke-opacity: 0.5"/>
     <use xlink:href="#m59b534fe21" x="100.8" y="182.500181" style="fill: #0000ff; fill-opacity: 0.5; stroke: #0000ff; stroke-opacity: 0.5"/>
     <use xlink:href="#m59b534fe21" x="72.9" y="109.942191" style="fill: #0000ff; fill-opacity: 0.5; stroke: #0000ff; stroke-opacity: 0.5"/>
     <use xlink:href="#m59b534fe21" x="72.9" y="66.407397" style="fill: #0000ff; fill-opacity: 0.5; stroke: #0000ff; stroke-opacity: 0.5"/>
     <use xlink:href="#m59b534fe21" x="100.8" y="131.709588" style="fill: #0000ff; fill-opacity: 0.5; stroke: #0000ff; stroke-opacity: 0.5"/>
     <use xlink:href="#m59b534fe21" x="128.7" y="109.942191" style="fill: #0000ff; fill-opacity: 0.5; stroke: #0000ff; stroke-opacity: 0.5"/>
     <use xlink:href="#m59b534fe21" x="86.85" y="95.430593" style="fill: #0000ff; fill-opacity: 0.5; stroke: #0000ff; stroke-opacity: 0.5"/>
     <use xlink:href="#m59b534fe21" x="72.9" y="80.918995" style="fill: #0000ff; fill-opacity: 0.5; stroke: #0000ff; stroke-opacity: 0.5"/>
     <use xlink:href="#m59b534fe21" x="114.75" y="131.709588" style="fill: #0000ff; fill-opacity: 0.5; stroke: #0000ff; stroke-opacity: 0.5"/>
     <use xlink:href="#m59b534fe21" x="229.14" y="167.988583" style="fill: #0000ff; fill-opacity: 0.5; stroke: #0000ff; stroke-opacity: 0.5"/>
     <use xlink:href="#m59b534fe21" x="47.79" y="153.476985" style="fill: #0000ff; fill-opacity: 0.5; stroke: #0000ff; stroke-opacity: 0.5"/>
     <use xlink:href="#m59b534fe21" x="190.08" y="95.430593" style="fill: #0000ff; fill-opacity: 0.5; stroke: #0000ff; stroke-opacity: 0.5"/>
     <use xlink:href="#m59b534fe21" x="184.5" y="95.430593" style="fill: #0000ff; fill-opacity: 0.5; stroke: #0000ff; stroke-opacity: 0.5"/>
     <use xlink:href="#m59b534fe21" x="184.5" y="211.523377" style="fill: #0000ff; fill-opacity: 0.5; stroke: #0000ff; stroke-opacity: 0.5"/>
    </g>
   </g>
   <g id="PolyCollection_1">
    <defs>
     <path id="m92dcbd9f1f" d="M 45 -211.378261 
L 45 -158.226244 
L 47.818182 -157.716537 
L 50.636364 -157.207035 
L 53.454545 -156.790139 
L 56.272727 -156.439133 
L 59.090909 -156.613071 
L 61.909091 -156.526992 
L 64.727273 -156.366984 
L 67.545455 -156.114419 
L 70.363636 -155.719217 
L 73.181818 -155.390131 
L 76 -155.062383 
L 78.818182 -154.734636 
L 81.636364 -154.406889 
L 84.454545 -154.079141 
L 87.272727 -153.600562 
L 90.090909 -153.122444 
L 92.909091 -153.182332 
L 95.727273 -152.779607 
L 98.545455 -152.158242 
L 101.363636 -151.545318 
L 104.181818 -150.956608 
L 107 -150.322246 
L 109.818182 -150.179576 
L 112.636364 -149.632681 
L 115.454545 -149.081317 
L 118.272727 -148.352312 
L 121.090909 -147.819934 
L 123.909091 -147.407272 
L 126.727273 -146.726651 
L 129.545455 -145.907795 
L 132.363636 -144.643999 
L 135.181818 -143.74175 
L 138 -142.91596 
L 140.818182 -142.014839 
L 143.636364 -140.879058 
L 146.454545 -139.898006 
L 149.272727 -138.7006 
L 152.090909 -137.337083 
L 154.909091 -135.904598 
L 157.727273 -134.776479 
L 160.545455 -133.332821 
L 163.363636 -131.588521 
L 166.181818 -130.069402 
L 169 -129.008021 
L 171.818182 -127.805442 
L 174.636364 -126.647258 
L 177.454545 -125.222734 
L 180.272727 -123.623179 
L 183.090909 -122.168117 
L 185.909091 -120.672602 
L 188.727273 -119.076436 
L 191.545455 -117.693438 
L 194.363636 -115.962224 
L 197.181818 -114.459659 
L 200 -113.116452 
L 202.818182 -111.533247 
L 205.636364 -110.249528 
L 208.454545 -108.503964 
L 211.272727 -107.017432 
L 214.090909 -105.654684 
L 216.909091 -104.292536 
L 219.727273 -102.86158 
L 222.545455 -101.322143 
L 225.363636 -99.833407 
L 228.181818 -98.394227 
L 231 -96.955047 
L 233.818182 -95.515868 
L 236.636364 -94.076688 
L 239.454545 -92.381061 
L 242.272727 -90.662928 
L 245.090909 -88.94124 
L 247.909091 -87.218298 
L 250.727273 -85.629502 
L 253.545455 -84.14602 
L 256.363636 -82.662538 
L 259.181818 -80.924723 
L 262 -79.141269 
L 264.818182 -77.357814 
L 267.636364 -75.574359 
L 270.454545 -73.790904 
L 273.272727 -72.011756 
L 276.090909 -70.464025 
L 278.909091 -69.035398 
L 281.727273 -67.606771 
L 284.545455 -66.094178 
L 287.363636 -64.403053 
L 290.181818 -62.665499 
L 293 -60.923374 
L 295.818182 -59.181249 
L 298.636364 -57.439124 
L 301.454545 -55.697 
L 304.272727 -53.954875 
L 307.090909 -52.21275 
L 309.909091 -50.470625 
L 312.727273 -48.7285 
L 315.545455 -46.986375 
L 318.363636 -45.24425 
L 321.181818 -43.502125 
L 324 -41.76 
L 324 -152.424175 
L 324 -152.424175 
L 321.181818 -152.37503 
L 318.363636 -152.325884 
L 315.545455 -152.276739 
L 312.727273 -152.227593 
L 309.909091 -152.314186 
L 307.090909 -152.581383 
L 304.272727 -152.947105 
L 301.454545 -153.351542 
L 298.636364 -153.755979 
L 295.818182 -153.997624 
L 293 -153.929116 
L 290.181818 -154.169218 
L 287.363636 -154.431742 
L 284.545455 -154.694267 
L 281.727273 -154.769602 
L 278.909091 -155.164301 
L 276.090909 -155.503613 
L 273.272727 -155.850498 
L 270.454545 -156.309751 
L 267.636364 -156.76333 
L 264.818182 -157.154676 
L 262 -157.36338 
L 259.181818 -157.572083 
L 256.363636 -157.905092 
L 253.545455 -158.279298 
L 250.727273 -158.649519 
L 247.909091 -159.016678 
L 245.090909 -159.383837 
L 242.272727 -159.750996 
L 239.454545 -160.054357 
L 236.636364 -160.230425 
L 233.818182 -160.388423 
L 231 -160.314195 
L 228.181818 -160.161221 
L 225.363636 -160.341033 
L 222.545455 -160.525281 
L 219.727273 -160.449471 
L 216.909091 -160.601977 
L 214.090909 -160.705445 
L 211.272727 -160.575351 
L 208.454545 -161.201106 
L 205.636364 -161.3724 
L 202.818182 -161.473365 
L 200 -161.568442 
L 197.181818 -161.583745 
L 194.363636 -162.068467 
L 191.545455 -162.642988 
L 188.727273 -163.09188 
L 185.909091 -163.465401 
L 183.090909 -163.953306 
L 180.272727 -164.067896 
L 177.454545 -164.391601 
L 174.636364 -164.863967 
L 171.818182 -165.240496 
L 169 -165.720479 
L 166.181818 -165.90971 
L 163.363636 -166.64313 
L 160.545455 -167.564115 
L 157.727273 -168.205061 
L 154.909091 -168.762179 
L 152.090909 -169.743214 
L 149.272727 -169.818076 
L 146.454545 -170.707908 
L 143.636364 -171.354145 
L 140.818182 -172.258325 
L 138 -173.009975 
L 135.181818 -173.791203 
L 132.363636 -174.407238 
L 129.545455 -175.037729 
L 126.727273 -175.959277 
L 123.909091 -176.904966 
L 121.090909 -177.877767 
L 118.272727 -178.890572 
L 115.454545 -179.947966 
L 112.636364 -181.00155 
L 109.818182 -182.041151 
L 107 -183.064348 
L 104.181818 -184.012668 
L 101.363636 -185.010871 
L 98.545455 -186.124173 
L 95.727273 -187.293511 
L 92.909091 -188.412876 
L 90.090909 -189.526281 
L 87.272727 -190.667275 
L 84.454545 -191.987125 
L 81.636364 -193.201677 
L 78.818182 -194.505957 
L 76 -195.933132 
L 73.181818 -197.418104 
L 70.363636 -198.792285 
L 67.545455 -200.18912 
L 64.727273 -201.388654 
L 61.909091 -202.689766 
L 59.090909 -203.990877 
L 56.272727 -205.550474 
L 53.454545 -206.919524 
L 50.636364 -208.687573 
L 47.818182 -209.943775 
L 45 -211.378261 
z
" style="stroke: #ffffff; stroke-opacity: 0.15"/>
    </defs>
    <g clip-path="url(#p981d47364b)">
     <use xlink:href="#m92dcbd9f1f" x="0" y="288" style="fill: #0000ff; fill-opacity: 0.15; stroke: #ffffff; stroke-opacity: 0.15"/>
    </g>
   </g>
   <g id="PathCollection_2">
    <defs>
     <path id="md99d1790d1" d="M 0 1.322876 
C 0.350831 1.322876 0.68734 1.183489 0.935414 0.935414 
C 1.183489 0.68734 1.322876 0.350831 1.322876 0 
C 1.322876 -0.350831 1.183489 -0.68734 0.935414 -0.935414 
C 0.68734 -1.183489 0.350831 -1.322876 0 -1.322876 
C -0.350831 -1.322876 -0.68734 -1.183489 -0.935414 -0.935414 
C -1.183489 -0.68734 -1.322876 -0.350831 -1.322876 0 
C -1.322876 0.350831 -1.183489 0.68734 -0.935414 0.935414 
C -0.68734 1.183489 -0.350831 1.322876 0 1.322876 
z
" style="stroke: #ff0000; stroke-opacity: 0.5"/>
    </defs>
    <g clip-path="url(#p981d47364b)">
     <use xlink:href="#md99d1790d1" x="106.38" y="66.407397" style="fill: #ff0000; fill-opacity: 0.5; stroke: #ff0000; stroke-opacity: 0.5"/>
     <use xlink:href="#md99d1790d1" x="318.42" y="44.64" style="fill: #ff0000; fill-opacity: 0.5; stroke: #ff0000; stroke-opacity: 0.5"/>
     <use xlink:href="#md99d1790d1" x="114.75" y="167.988583" style="fill: #ff0000; fill-opacity: 0.5; stroke: #ff0000; stroke-opacity: 0.5"/>
     <use xlink:href="#md99d1790d1" x="184.5" y="59.151598" style="fill: #ff0000; fill-opacity: 0.5; stroke: #ff0000; stroke-opacity: 0.5"/>
     <use xlink:href="#md99d1790d1" x="229.14" y="146.221186" style="fill: #ff0000; fill-opacity: 0.5; stroke: #ff0000; stroke-opacity: 0.5"/>
     <use xlink:href="#md99d1790d1" x="254.25" y="189.75598" style="fill: #ff0000; fill-opacity: 0.5; stroke: #ff0000; stroke-opacity: 0.5"/>
     <use xlink:href="#md99d1790d1" x="53.37" y="138.965387" style="fill: #ff0000; fill-opacity: 0.5; stroke: #ff0000; stroke-opacity: 0.5"/>
     <use xlink:href="#md99d1790d1" x="268.2" y="204.267578" style="fill: #ff0000; fill-opacity: 0.5; stroke: #ff0000; stroke-opacity: 0.5"/>
     <use xlink:href="#md99d1790d1" x="137.07" y="160.732784" style="fill: #ff0000; fill-opacity: 0.5; stroke: #ff0000; stroke-opacity: 0.5"/>
     <use xlink:href="#md99d1790d1" x="184.5" y="124.453789" style="fill: #ff0000; fill-opacity: 0.5; stroke: #ff0000; stroke-opacity: 0.5"/>
     <use xlink:href="#md99d1790d1" x="248.67" y="182.500181" style="fill: #ff0000; fill-opacity: 0.5; stroke: #ff0000; stroke-opacity: 0.5"/>
     <use xlink:href="#md99d1790d1" x="296.1" y="88.174794" style="fill: #ff0000; fill-opacity: 0.5; stroke: #ff0000; stroke-opacity: 0.5"/>
     <use xlink:href="#md99d1790d1" x="254.25" y="102.686392" style="fill: #ff0000; fill-opacity: 0.5; stroke: #ff0000; stroke-opacity: 0.5"/>
     <use xlink:href="#md99d1790d1" x="240.3" y="124.453789" style="fill: #ff0000; fill-opacity: 0.5; stroke: #ff0000; stroke-opacity: 0.5"/>
     <use xlink:href="#md99d1790d1" x="184.5" y="153.476985" style="fill: #ff0000; fill-opacity: 0.5; stroke: #ff0000; stroke-opacity: 0.5"/>
     <use xlink:href="#md99d1790d1" x="220.77" y="138.965387" style="fill: #ff0000; fill-opacity: 0.5; stroke: #ff0000; stroke-opacity: 0.5"/>
     <use xlink:href="#md99d1790d1" x="120.33" y="189.75598" style="fill: #ff0000; fill-opacity: 0.5; stroke: #ff0000; stroke-opacity: 0.5"/>
     <use xlink:href="#md99d1790d1" x="173.34" y="175.244382" style="fill: #ff0000; fill-opacity: 0.5; stroke: #ff0000; stroke-opacity: 0.5"/>
     <use xlink:href="#md99d1790d1" x="240.3" y="175.244382" style="fill: #ff0000; fill-opacity: 0.5; stroke: #ff0000; stroke-opacity: 0.5"/>
     <use xlink:href="#md99d1790d1" x="156.6" y="153.476985" style="fill: #ff0000; fill-opacity: 0.5; stroke: #ff0000; stroke-opacity: 0.5"/>
     <use xlink:href="#md99d1790d1" x="226.35" y="117.19799" style="fill: #ff0000; fill-opacity: 0.5; stroke: #ff0000; stroke-opacity: 0.5"/>
     <use xlink:href="#md99d1790d1" x="212.4" y="124.453789" style="fill: #ff0000; fill-opacity: 0.5; stroke: #ff0000; stroke-opacity: 0.5"/>
     <use xlink:href="#md99d1790d1" x="268.2" y="175.244382" style="fill: #ff0000; fill-opacity: 0.5; stroke: #ff0000; stroke-opacity: 0.5"/>
     <use xlink:href="#md99d1790d1" x="212.4" y="51.895799" style="fill: #ff0000; fill-opacity: 0.5; stroke: #ff0000; stroke-opacity: 0.5"/>
     <use xlink:href="#md99d1790d1" x="215.19" y="167.988583" style="fill: #ff0000; fill-opacity: 0.5; stroke: #ff0000; stroke-opacity: 0.5"/>
     <use xlink:href="#md99d1790d1" x="184.5" y="95.430593" style="fill: #ff0000; fill-opacity: 0.5; stroke: #ff0000; stroke-opacity: 0.5"/>
     <use xlink:href="#md99d1790d1" x="212.4" y="182.500181" style="fill: #ff0000; fill-opacity: 0.5; stroke: #ff0000; stroke-opacity: 0.5"/>
    </g>
   </g>
   <g id="PolyCollection_2">
    <defs>
     <path id="mebb9465cca" d="M 45 -198.476878 
L 45 -76.002651 
L 47.818182 -77.256134 
L 50.636364 -78.509616 
L 53.454545 -79.898832 
L 56.272727 -81.22157 
L 59.090909 -82.576794 
L 61.909091 -83.934339 
L 64.727273 -85.292591 
L 67.545455 -86.650843 
L 70.363636 -88.011351 
L 73.181818 -89.241357 
L 76 -90.245968 
L 78.818182 -91.679657 
L 81.636364 -92.908743 
L 84.454545 -94.095303 
L 87.272727 -95.281863 
L 90.090909 -96.468423 
L 92.909091 -97.654983 
L 95.727273 -98.841543 
L 98.545455 -100.028103 
L 101.363636 -101.216685 
L 104.181818 -102.437524 
L 107 -103.589361 
L 109.818182 -104.923502 
L 112.636364 -106.024129 
L 115.454545 -107.276224 
L 118.272727 -108.527208 
L 121.090909 -109.922322 
L 123.909091 -111.141797 
L 126.727273 -112.660932 
L 129.545455 -114.060159 
L 132.363636 -114.887933 
L 135.181818 -116.024886 
L 138 -117.279159 
L 140.818182 -118.54809 
L 143.636364 -119.793363 
L 146.454545 -121.034342 
L 149.272727 -122.128208 
L 152.090909 -122.546708 
L 154.909091 -123.47423 
L 157.727273 -124.655136 
L 160.545455 -125.26201 
L 163.363636 -125.899919 
L 166.181818 -126.439898 
L 169 -127.144395 
L 171.818182 -127.537823 
L 174.636364 -127.619053 
L 177.454545 -127.960534 
L 180.272727 -128.127939 
L 183.090909 -128.389041 
L 185.909091 -128.477327 
L 188.727273 -128.794144 
L 191.545455 -129.109553 
L 194.363636 -129.026696 
L 197.181818 -128.935706 
L 200 -129.242207 
L 202.818182 -129.211545 
L 205.636364 -128.924212 
L 208.454545 -128.463001 
L 211.272727 -128.126764 
L 214.090909 -127.869139 
L 216.909091 -127.494832 
L 219.727273 -127.040759 
L 222.545455 -126.736961 
L 225.363636 -126.360195 
L 228.181818 -125.977038 
L 231 -125.6031 
L 233.818182 -125.096661 
L 236.636364 -124.483746 
L 239.454545 -124.025505 
L 242.272727 -123.371787 
L 245.090909 -123.067921 
L 247.909091 -122.8109 
L 250.727273 -122.169856 
L 253.545455 -121.630262 
L 256.363636 -121.09122 
L 259.181818 -120.88442 
L 262 -120.682097 
L 264.818182 -120.42416 
L 267.636364 -119.827882 
L 270.454545 -119.421239 
L 273.272727 -118.50744 
L 276.090909 -117.999783 
L 278.909091 -117.383223 
L 281.727273 -116.561316 
L 284.545455 -115.713347 
L 287.363636 -114.869676 
L 290.181818 -114.030188 
L 293 -113.321841 
L 295.818182 -112.755079 
L 298.636364 -112.248574 
L 301.454545 -111.742069 
L 304.272727 -110.947761 
L 307.090909 -110.350235 
L 309.909091 -109.415687 
L 312.727273 -109.149274 
L 315.545455 -108.551289 
L 318.363636 -107.958372 
L 321.181818 -107.263386 
L 324 -106.341572 
L 324 -209.74787 
L 324 -209.74787 
L 321.181818 -208.373503 
L 318.363636 -207.042464 
L 315.545455 -205.748149 
L 312.727273 -204.405149 
L 309.909091 -202.930669 
L 307.090909 -201.501665 
L 304.272727 -200.127298 
L 301.454545 -198.783255 
L 298.636364 -197.704528 
L 295.818182 -196.51944 
L 293 -195.380796 
L 290.181818 -194.0922 
L 287.363636 -192.692782 
L 284.545455 -191.293363 
L 281.727273 -190.106952 
L 278.909091 -188.825318 
L 276.090909 -187.403 
L 273.272727 -186.894299 
L 270.454545 -186.190397 
L 267.636364 -185.167286 
L 264.818182 -184.05173 
L 262 -182.918167 
L 259.181818 -181.784816 
L 256.363636 -180.98161 
L 253.545455 -180.065495 
L 250.727273 -179.053411 
L 247.909091 -178.40779 
L 245.090909 -177.312603 
L 242.272727 -176.144261 
L 239.454545 -175.174106 
L 236.636364 -174.357931 
L 233.818182 -173.841918 
L 231 -172.594685 
L 228.181818 -171.443957 
L 225.363636 -170.964965 
L 222.545455 -170.485973 
L 219.727273 -169.983011 
L 216.909091 -169.383812 
L 214.090909 -168.783485 
L 211.272727 -168.273877 
L 208.454545 -167.723731 
L 205.636364 -167.333274 
L 202.818182 -166.980286 
L 200 -166.471744 
L 197.181818 -166.201168 
L 194.363636 -165.80736 
L 191.545455 -165.5764 
L 188.727273 -165.87122 
L 185.909091 -165.837476 
L 183.090909 -165.77158 
L 180.272727 -165.796574 
L 177.454545 -166.019013 
L 174.636364 -166.214067 
L 171.818182 -166.647784 
L 169 -166.917658 
L 166.181818 -167.446265 
L 163.363636 -167.953825 
L 160.545455 -168.018567 
L 157.727273 -168.037911 
L 154.909091 -168.391427 
L 152.090909 -168.930171 
L 149.272727 -169.615587 
L 146.454545 -170.199319 
L 143.636364 -170.865452 
L 140.818182 -171.687658 
L 138 -172.419917 
L 135.181818 -173.08096 
L 132.363636 -173.609626 
L 129.545455 -174.396882 
L 126.727273 -175.209084 
L 123.909091 -175.923306 
L 121.090909 -176.626546 
L 118.272727 -177.540427 
L 115.454545 -178.419133 
L 112.636364 -179.224486 
L 109.818182 -180.314793 
L 107 -181.242846 
L 104.181818 -181.635627 
L 101.363636 -182.478028 
L 98.545455 -183.234876 
L 95.727273 -184.039087 
L 92.909091 -184.843298 
L 90.090909 -185.647509 
L 87.272727 -186.45172 
L 84.454545 -187.255931 
L 81.636364 -188.060142 
L 78.818182 -188.860177 
L 76 -189.65914 
L 73.181818 -190.458103 
L 70.363636 -191.257066 
L 67.545455 -192.021424 
L 64.727273 -192.693945 
L 61.909091 -193.366466 
L 59.090909 -194.038987 
L 56.272727 -194.826207 
L 53.454545 -195.754209 
L 50.636364 -196.68221 
L 47.818182 -197.610212 
L 45 -198.476878 
z
" style="stroke: #ffffff; stroke-opacity: 0.15"/>
    </defs>
    <g clip-path="url(#p981d47364b)">
     <use xlink:href="#mebb9465cca" x="0" y="288" style="fill: #ff0000; fill-opacity: 0.15; stroke: #ffffff; stroke-opacity: 0.15"/>
    </g>
   </g>
   <g id="line2d_13">
    <path d="M 45 99.89236 
L 47.818182 100.752789 
L 50.636364 101.613218 
L 53.454545 102.473646 
L 56.272727 103.334075 
L 59.090909 104.194504 
L 61.909091 105.054933 
L 64.727273 105.915361 
L 67.545455 106.77579 
L 70.363636 107.636219 
L 73.181818 108.496647 
L 76 109.357076 
L 78.818182 110.217505 
L 81.636364 111.077933 
L 84.454545 111.938362 
L 87.272727 112.798791 
L 90.090909 113.659219 
L 92.909091 114.519648 
L 95.727273 115.380077 
L 98.545455 116.240505 
L 101.363636 117.100934 
L 104.181818 117.961363 
L 107 118.821792 
L 109.818182 119.68222 
L 112.636364 120.542649 
L 115.454545 121.403078 
L 118.272727 122.263506 
L 121.090909 123.123935 
L 123.909091 123.984364 
L 126.727273 124.844792 
L 129.545455 125.705221 
L 132.363636 126.56565 
L 135.181818 127.426078 
L 138 128.286507 
L 140.818182 129.146936 
L 143.636364 130.007365 
L 146.454545 130.867793 
L 149.272727 131.728222 
L 152.090909 132.588651 
L 154.909091 133.449079 
L 157.727273 134.309508 
L 160.545455 135.169937 
L 163.363636 136.030365 
L 166.181818 136.890794 
L 169 137.751223 
L 171.818182 138.611651 
L 174.636364 139.47208 
L 177.454545 140.332509 
L 180.272727 141.192937 
L 183.090909 142.053366 
L 185.909091 142.913795 
L 188.727273 143.774224 
L 191.545455 144.634652 
L 194.363636 145.495081 
L 197.181818 146.35551 
L 200 147.215938 
L 202.818182 148.076367 
L 205.636364 148.936796 
L 208.454545 149.797224 
L 211.272727 150.657653 
L 214.090909 151.518082 
L 216.909091 152.37851 
L 219.727273 153.238939 
L 222.545455 154.099368 
L 225.363636 154.959797 
L 228.181818 155.820225 
L 231 156.680654 
L 233.818182 157.541083 
L 236.636364 158.401511 
L 239.454545 159.26194 
L 242.272727 160.122369 
L 245.090909 160.982797 
L 247.909091 161.843226 
L 250.727273 162.703655 
L 253.545455 163.564083 
L 256.363636 164.424512 
L 259.181818 165.284941 
L 262 166.145369 
L 264.818182 167.005798 
L 267.636364 167.866227 
L 270.454545 168.726656 
L 273.272727 169.587084 
L 276.090909 170.447513 
L 278.909091 171.307942 
L 281.727273 172.16837 
L 284.545455 173.028799 
L 287.363636 173.889228 
L 290.181818 174.749656 
L 293 175.610085 
L 295.818182 176.470514 
L 298.636364 177.330942 
L 301.454545 178.191371 
L 304.272727 179.0518 
L 307.090909 179.912229 
L 309.909091 180.772657 
L 312.727273 181.633086 
L 315.545455 182.493515 
L 318.363636 183.353943 
L 321.181818 184.214372 
L 324 185.074801 
" clip-path="url(#p981d47364b)" style="fill: none; stroke: #0000ff; stroke-width: 2.25; stroke-linecap: round"/>
   </g>
   <g id="line2d_14">
    <path d="M 45 148.13461 
L 47.818182 147.980239 
L 50.636364 147.825868 
L 53.454545 147.671496 
L 56.272727 147.517125 
L 59.090909 147.362753 
L 61.909091 147.208382 
L 64.727273 147.05401 
L 67.545455 146.899639 
L 70.363636 146.745268 
L 73.181818 146.590896 
L 76 146.436525 
L 78.818182 146.282153 
L 81.636364 146.127782 
L 84.454545 145.97341 
L 87.272727 145.819039 
L 90.090909 145.664668 
L 92.909091 145.510296 
L 95.727273 145.355925 
L 98.545455 145.201553 
L 101.363636 145.047182 
L 104.181818 144.89281 
L 107 144.738439 
L 109.818182 144.584067 
L 112.636364 144.429696 
L 115.454545 144.275325 
L 118.272727 144.120953 
L 121.090909 143.966582 
L 123.909091 143.81221 
L 126.727273 143.657839 
L 129.545455 143.503467 
L 132.363636 143.349096 
L 135.181818 143.194725 
L 138 143.040353 
L 140.818182 142.885982 
L 143.636364 142.73161 
L 146.454545 142.577239 
L 149.272727 142.422867 
L 152.090909 142.268496 
L 154.909091 142.114124 
L 157.727273 141.959753 
L 160.545455 141.805382 
L 163.363636 141.65101 
L 166.181818 141.496639 
L 169 141.342267 
L 171.818182 141.187896 
L 174.636364 141.033524 
L 177.454545 140.879153 
L 180.272727 140.724782 
L 183.090909 140.57041 
L 185.909091 140.416039 
L 188.727273 140.261667 
L 191.545455 140.107296 
L 194.363636 139.952924 
L 197.181818 139.798553 
L 200 139.644182 
L 202.818182 139.48981 
L 205.636364 139.335439 
L 208.454545 139.181067 
L 211.272727 139.026696 
L 214.090909 138.872324 
L 216.909091 138.717953 
L 219.727273 138.563581 
L 222.545455 138.40921 
L 225.363636 138.254839 
L 228.181818 138.100467 
L 231 137.946096 
L 233.818182 137.791724 
L 236.636364 137.637353 
L 239.454545 137.482981 
L 242.272727 137.32861 
L 245.090909 137.174239 
L 247.909091 137.019867 
L 250.727273 136.865496 
L 253.545455 136.711124 
L 256.363636 136.556753 
L 259.181818 136.402381 
L 262 136.24801 
L 264.818182 136.093638 
L 267.636364 135.939267 
L 270.454545 135.784896 
L 273.272727 135.630524 
L 276.090909 135.476153 
L 278.909091 135.321781 
L 281.727273 135.16741 
L 284.545455 135.013038 
L 287.363636 134.858667 
L 290.181818 134.704296 
L 293 134.549924 
L 295.818182 134.395553 
L 298.636364 134.241181 
L 301.454545 134.08681 
L 304.272727 133.932438 
L 307.090909 133.778067 
L 309.909091 133.623695 
L 312.727273 133.469324 
L 315.545455 133.314953 
L 318.363636 133.160581 
L 321.181818 133.00621 
L 324 132.851838 
" clip-path="url(#p981d47364b)" style="fill: none; stroke: #ff0000; stroke-width: 2.25; stroke-linecap: round"/>
   </g>
   <g id="patch_3">
    <path d="M 45 256.32 
L 45 34.56 
" style="fill: none; stroke: #ffffff; stroke-width: 0.8; stroke-linejoin: miter; stroke-linecap: square"/>
   </g>
   <g id="patch_4">
    <path d="M 324 256.32 
L 324 34.56 
" style="fill: none; stroke: #ffffff; stroke-width: 0.8; stroke-linejoin: miter; stroke-linecap: square"/>
   </g>
   <g id="patch_5">
    <path d="M 45 256.32 
L 324 256.32 
" style="fill: none; stroke: #ffffff; stroke-width: 0.8; stroke-linejoin: miter; stroke-linecap: square"/>
   </g>
   <g id="patch_6">
    <path d="M 45 34.56 
L 324 34.56 
" style="fill: none; stroke: #ffffff; stroke-width: 0.8; stroke-linejoin: miter; stroke-linecap: square"/>
   </g>
   <g id="text_13">
    <!-- QIDS -->
    <g style="fill: #262626" transform="translate(162.496406 28.56)scale(0.18 -0.18)">
     <defs>
      <path id="Arial-BoldMT-51" d="M 4153 581 
Q 4494 338 4894 194 
L 4553 -459 
Q 4344 -397 4144 -288 
Q 4100 -266 3528 119 
Q 3078 -78 2531 -78 
Q 1475 -78 876 544 
Q 278 1166 278 2291 
Q 278 3413 878 4036 
Q 1478 4659 2506 4659 
Q 3525 4659 4122 4036 
Q 4719 3413 4719 2291 
Q 4719 1697 4553 1247 
Q 4428 903 4153 581 
z
M 3409 1103 
Q 3588 1313 3677 1609 
Q 3766 1906 3766 2291 
Q 3766 3084 3416 3476 
Q 3066 3869 2500 3869 
Q 1934 3869 1582 3475 
Q 1231 3081 1231 2291 
Q 1231 1488 1582 1089 
Q 1934 691 2472 691 
Q 2672 691 2850 756 
Q 2569 941 2278 1044 
L 2538 1572 
Q 2994 1416 3409 1103 
z
" transform="scale(0.015625)"/>
      <path id="Arial-BoldMT-49" d="M 438 0 
L 438 4581 
L 1363 4581 
L 1363 0 
L 438 0 
z
" transform="scale(0.015625)"/>
      <path id="Arial-BoldMT-44" d="M 463 4581 
L 2153 4581 
Q 2725 4581 3025 4494 
Q 3428 4375 3715 4072 
Q 4003 3769 4153 3330 
Q 4303 2891 4303 2247 
Q 4303 1681 4163 1272 
Q 3991 772 3672 463 
Q 3431 228 3022 97 
Q 2716 0 2203 0 
L 463 0 
L 463 4581 
z
M 1388 3806 
L 1388 772 
L 2078 772 
Q 2466 772 2638 816 
Q 2863 872 3011 1006 
Q 3159 1141 3253 1448 
Q 3347 1756 3347 2288 
Q 3347 2819 3253 3103 
Q 3159 3388 2990 3547 
Q 2822 3706 2563 3763 
Q 2369 3806 1803 3806 
L 1388 3806 
z
" transform="scale(0.015625)"/>
      <path id="Arial-BoldMT-53" d="M 231 1491 
L 1131 1578 
Q 1213 1125 1461 912 
Q 1709 700 2131 700 
Q 2578 700 2804 889 
Q 3031 1078 3031 1331 
Q 3031 1494 2936 1608 
Q 2841 1722 2603 1806 
Q 2441 1863 1863 2006 
Q 1119 2191 819 2459 
Q 397 2838 397 3381 
Q 397 3731 595 4036 
Q 794 4341 1167 4500 
Q 1541 4659 2069 4659 
Q 2931 4659 3367 4281 
Q 3803 3903 3825 3272 
L 2900 3231 
Q 2841 3584 2645 3739 
Q 2450 3894 2059 3894 
Q 1656 3894 1428 3728 
Q 1281 3622 1281 3444 
Q 1281 3281 1419 3166 
Q 1594 3019 2269 2859 
Q 2944 2700 3267 2529 
Q 3591 2359 3773 2064 
Q 3956 1769 3956 1334 
Q 3956 941 3737 597 
Q 3519 253 3119 86 
Q 2719 -81 2122 -81 
Q 1253 -81 787 320 
Q 322 722 231 1491 
z
" transform="scale(0.015625)"/>
     </defs>
     <use xlink:href="#Arial-BoldMT-51"/>
     <use xlink:href="#Arial-BoldMT-49" x="77.783203"/>
     <use xlink:href="#Arial-BoldMT-44" x="105.566406"/>
     <use xlink:href="#Arial-BoldMT-53" x="177.783203"/>
    </g>
   </g>
  </g>
 </g>
 <defs>
  <clipPath id="p981d47364b">
   <rect x="45" y="34.56" width="279" height="221.76"/>
  </clipPath>
 </defs>
</svg>
