<?xml version="1.0" encoding="utf-8" standalone="no"?>
<!DOCTYPE svg PUBLIC "-//W3C//DTD SVG 1.1//EN"
  "http://www.w3.org/Graphics/SVG/1.1/DTD/svg11.dtd">
<svg xmlns:xlink="http://www.w3.org/1999/xlink" width="360pt" height="288pt" viewBox="0 0 360 288" xmlns="http://www.w3.org/2000/svg" version="1.1">
 <metadata>
  <rdf:RDF xmlns:dc="http://purl.org/dc/elements/1.1/" xmlns:cc="http://creativecommons.org/ns#" xmlns:rdf="http://www.w3.org/1999/02/22-rdf-syntax-ns#">
   <cc:Work>
    <dc:type rdf:resource="http://purl.org/dc/dcmitype/StillImage"/>
    <dc:date>2022-11-10T09:40:22.699882</dc:date>
    <dc:format>image/svg+xml</dc:format>
    <dc:creator>
     <cc:Agent>
      <dc:title>Matplotlib v3.5.2, https://matplotlib.org/</dc:title>
     </cc:Agent>
    </dc:creator>
   </cc:Work>
  </rdf:RDF>
 </metadata>
 <defs>
  <style type="text/css">*{stroke-linejoin: round; stroke-linecap: butt}</style>
 </defs>
 <g id="figure_1">
  <g id="patch_1">
   <path d="M 0 288 
L 360 288 
L 360 0 
L 0 0 
z
" style="fill: #ffffff"/>
  </g>
  <g id="axes_1">
   <g id="patch_2">
    <path d="M 45 256.32 
L 324 256.32 
L 324 34.56 
L 45 34.56 
z
" style="fill: #eaeaf2"/>
   </g>
   <g id="matplotlib.axis_1">
    <g id="xtick_1">
     <g id="line2d_1">
      <path d="M 76 256.32 
L 76 34.56 
" clip-path="url(#p55055e7c5c)" style="fill: none; stroke: #ffffff; stroke-width: 0.8; stroke-linecap: round"/>
     </g>
     <g id="text_1">
      <!-- 30 -->
      <g style="fill: #262626" transform="translate(68.214687 273.340937)scale(0.14 -0.14)">
       <defs>
        <path id="ArialMT-33" d="M 269 1209 
L 831 1284 
Q 928 806 1161 595 
Q 1394 384 1728 384 
Q 2125 384 2398 659 
Q 2672 934 2672 1341 
Q 2672 1728 2419 1979 
Q 2166 2231 1775 2231 
Q 1616 2231 1378 2169 
L 1441 2663 
Q 1497 2656 1531 2656 
Q 1891 2656 2178 2843 
Q 2466 3031 2466 3422 
Q 2466 3731 2256 3934 
Q 2047 4138 1716 4138 
Q 1388 4138 1169 3931 
Q 950 3725 888 3313 
L 325 3413 
Q 428 3978 793 4289 
Q 1159 4600 1703 4600 
Q 2078 4600 2393 4439 
Q 2709 4278 2876 4000 
Q 3044 3722 3044 3409 
Q 3044 3113 2884 2869 
Q 2725 2625 2413 2481 
Q 2819 2388 3044 2092 
Q 3269 1797 3269 1353 
Q 3269 753 2831 336 
Q 2394 -81 1725 -81 
Q 1122 -81 723 278 
Q 325 638 269 1209 
z
" transform="scale(0.015625)"/>
        <path id="ArialMT-30" d="M 266 2259 
Q 266 3072 433 3567 
Q 600 4063 929 4331 
Q 1259 4600 1759 4600 
Q 2128 4600 2406 4451 
Q 2684 4303 2865 4023 
Q 3047 3744 3150 3342 
Q 3253 2941 3253 2259 
Q 3253 1453 3087 958 
Q 2922 463 2592 192 
Q 2263 -78 1759 -78 
Q 1097 -78 719 397 
Q 266 969 266 2259 
z
M 844 2259 
Q 844 1131 1108 757 
Q 1372 384 1759 384 
Q 2147 384 2411 759 
Q 2675 1134 2675 2259 
Q 2675 3391 2411 3762 
Q 2147 4134 1753 4134 
Q 1366 4134 1134 3806 
Q 844 3388 844 2259 
z
" transform="scale(0.015625)"/>
       </defs>
       <use xlink:href="#ArialMT-33"/>
       <use xlink:href="#ArialMT-30" x="55.615234"/>
      </g>
     </g>
    </g>
    <g id="xtick_2">
     <g id="line2d_2">
      <path d="M 138 256.32 
L 138 34.56 
" clip-path="url(#p55055e7c5c)" style="fill: none; stroke: #ffffff; stroke-width: 0.8; stroke-linecap: round"/>
     </g>
     <g id="text_2">
      <!-- 40 -->
      <g style="fill: #262626" transform="translate(130.214687 273.340937)scale(0.14 -0.14)">
       <defs>
        <path id="ArialMT-34" d="M 2069 0 
L 2069 1097 
L 81 1097 
L 81 1613 
L 2172 4581 
L 2631 4581 
L 2631 1613 
L 3250 1613 
L 3250 1097 
L 2631 1097 
L 2631 0 
L 2069 0 
z
M 2069 1613 
L 2069 3678 
L 634 1613 
L 2069 1613 
z
" transform="scale(0.015625)"/>
       </defs>
       <use xlink:href="#ArialMT-34"/>
       <use xlink:href="#ArialMT-30" x="55.615234"/>
      </g>
     </g>
    </g>
    <g id="xtick_3">
     <g id="line2d_3">
      <path d="M 200 256.32 
L 200 34.56 
" clip-path="url(#p55055e7c5c)" style="fill: none; stroke: #ffffff; stroke-width: 0.8; stroke-linecap: round"/>
     </g>
     <g id="text_3">
      <!-- 50 -->
      <g style="fill: #262626" transform="translate(192.214687 273.340937)scale(0.14 -0.14)">
       <defs>
        <path id="ArialMT-35" d="M 266 1200 
L 856 1250 
Q 922 819 1161 601 
Q 1400 384 1738 384 
Q 2144 384 2425 690 
Q 2706 997 2706 1503 
Q 2706 1984 2436 2262 
Q 2166 2541 1728 2541 
Q 1456 2541 1237 2417 
Q 1019 2294 894 2097 
L 366 2166 
L 809 4519 
L 3088 4519 
L 3088 3981 
L 1259 3981 
L 1013 2750 
Q 1425 3038 1878 3038 
Q 2478 3038 2890 2622 
Q 3303 2206 3303 1553 
Q 3303 931 2941 478 
Q 2500 -78 1738 -78 
Q 1113 -78 717 272 
Q 322 622 266 1200 
z
" transform="scale(0.015625)"/>
       </defs>
       <use xlink:href="#ArialMT-35"/>
       <use xlink:href="#ArialMT-30" x="55.615234"/>
      </g>
     </g>
    </g>
    <g id="xtick_4">
     <g id="line2d_4">
      <path d="M 262 256.32 
L 262 34.56 
" clip-path="url(#p55055e7c5c)" style="fill: none; stroke: #ffffff; stroke-width: 0.8; stroke-linecap: round"/>
     </g>
     <g id="text_4">
      <!-- 60 -->
      <g style="fill: #262626" transform="translate(254.214687 273.340937)scale(0.14 -0.14)">
       <defs>
        <path id="ArialMT-36" d="M 3184 3459 
L 2625 3416 
Q 2550 3747 2413 3897 
Q 2184 4138 1850 4138 
Q 1581 4138 1378 3988 
Q 1113 3794 959 3422 
Q 806 3050 800 2363 
Q 1003 2672 1297 2822 
Q 1591 2972 1913 2972 
Q 2475 2972 2870 2558 
Q 3266 2144 3266 1488 
Q 3266 1056 3080 686 
Q 2894 316 2569 119 
Q 2244 -78 1831 -78 
Q 1128 -78 684 439 
Q 241 956 241 2144 
Q 241 3472 731 4075 
Q 1159 4600 1884 4600 
Q 2425 4600 2770 4297 
Q 3116 3994 3184 3459 
z
M 888 1484 
Q 888 1194 1011 928 
Q 1134 663 1356 523 
Q 1578 384 1822 384 
Q 2178 384 2434 671 
Q 2691 959 2691 1453 
Q 2691 1928 2437 2201 
Q 2184 2475 1800 2475 
Q 1419 2475 1153 2201 
Q 888 1928 888 1484 
z
" transform="scale(0.015625)"/>
       </defs>
       <use xlink:href="#ArialMT-36"/>
       <use xlink:href="#ArialMT-30" x="55.615234"/>
      </g>
     </g>
    </g>
    <g id="xtick_5">
     <g id="line2d_5">
      <path d="M 324 256.32 
L 324 34.56 
" clip-path="url(#p55055e7c5c)" style="fill: none; stroke: #ffffff; stroke-width: 0.8; stroke-linecap: round"/>
     </g>
     <g id="text_5">
      <!-- 70 -->
      <g style="fill: #262626" transform="translate(316.214688 273.340937)scale(0.14 -0.14)">
       <defs>
        <path id="ArialMT-37" d="M 303 3981 
L 303 4522 
L 3269 4522 
L 3269 4084 
Q 2831 3619 2401 2847 
Q 1972 2075 1738 1259 
Q 1569 684 1522 0 
L 944 0 
Q 953 541 1156 1306 
Q 1359 2072 1739 2783 
Q 2119 3494 2547 3981 
L 303 3981 
z
" transform="scale(0.015625)"/>
       </defs>
       <use xlink:href="#ArialMT-37"/>
       <use xlink:href="#ArialMT-30" x="55.615234"/>
      </g>
     </g>
    </g>
   </g>
   <g id="matplotlib.axis_2">
    <g id="ytick_1">
     <g id="line2d_6">
      <path d="M 45 233.233548 
L 324 233.233548 
" clip-path="url(#p55055e7c5c)" style="fill: none; stroke: #ffffff; stroke-width: 0.8; stroke-linecap: round"/>
     </g>
     <g id="text_6">
      <!-- −10 -->
      <g style="fill: #262626" transform="translate(14.2525 238.244017)scale(0.14 -0.14)">
       <defs>
        <path id="ArialMT-2212" d="M 3381 1997 
L 356 1997 
L 356 2522 
L 3381 2522 
L 3381 1997 
z
" transform="scale(0.015625)"/>
        <path id="ArialMT-31" d="M 2384 0 
L 1822 0 
L 1822 3584 
Q 1619 3391 1289 3197 
Q 959 3003 697 2906 
L 697 3450 
Q 1169 3672 1522 3987 
Q 1875 4303 2022 4600 
L 2384 4600 
L 2384 0 
z
" transform="scale(0.015625)"/>
       </defs>
       <use xlink:href="#ArialMT-2212"/>
       <use xlink:href="#ArialMT-31" x="58.398438"/>
       <use xlink:href="#ArialMT-30" x="114.013672"/>
      </g>
     </g>
    </g>
    <g id="ytick_2">
     <g id="line2d_7">
      <path d="M 45 200.717419 
L 324 200.717419 
" clip-path="url(#p55055e7c5c)" style="fill: none; stroke: #ffffff; stroke-width: 0.8; stroke-linecap: round"/>
     </g>
     <g id="text_7">
      <!-- 0 -->
      <g style="fill: #262626" transform="translate(30.214688 205.727888)scale(0.14 -0.14)">
       <use xlink:href="#ArialMT-30"/>
      </g>
     </g>
    </g>
    <g id="ytick_3">
     <g id="line2d_8">
      <path d="M 45 168.20129 
L 324 168.20129 
" clip-path="url(#p55055e7c5c)" style="fill: none; stroke: #ffffff; stroke-width: 0.8; stroke-linecap: round"/>
     </g>
     <g id="text_8">
      <!-- 10 -->
      <g style="fill: #262626" transform="translate(22.429375 173.211759)scale(0.14 -0.14)">
       <use xlink:href="#ArialMT-31"/>
       <use xlink:href="#ArialMT-30" x="55.615234"/>
      </g>
     </g>
    </g>
    <g id="ytick_4">
     <g id="line2d_9">
      <path d="M 45 135.685161 
L 324 135.685161 
" clip-path="url(#p55055e7c5c)" style="fill: none; stroke: #ffffff; stroke-width: 0.8; stroke-linecap: round"/>
     </g>
     <g id="text_9">
      <!-- 20 -->
      <g style="fill: #262626" transform="translate(22.429375 140.69563)scale(0.14 -0.14)">
       <defs>
        <path id="ArialMT-32" d="M 3222 541 
L 3222 0 
L 194 0 
Q 188 203 259 391 
Q 375 700 629 1000 
Q 884 1300 1366 1694 
Q 2113 2306 2375 2664 
Q 2638 3022 2638 3341 
Q 2638 3675 2398 3904 
Q 2159 4134 1775 4134 
Q 1369 4134 1125 3890 
Q 881 3647 878 3216 
L 300 3275 
Q 359 3922 746 4261 
Q 1134 4600 1788 4600 
Q 2447 4600 2831 4234 
Q 3216 3869 3216 3328 
Q 3216 3053 3103 2787 
Q 2991 2522 2730 2228 
Q 2469 1934 1863 1422 
Q 1356 997 1212 845 
Q 1069 694 975 541 
L 3222 541 
z
" transform="scale(0.015625)"/>
       </defs>
       <use xlink:href="#ArialMT-32"/>
       <use xlink:href="#ArialMT-30" x="55.615234"/>
      </g>
     </g>
    </g>
    <g id="ytick_5">
     <g id="line2d_10">
      <path d="M 45 103.169032 
L 324 103.169032 
" clip-path="url(#p55055e7c5c)" style="fill: none; stroke: #ffffff; stroke-width: 0.8; stroke-linecap: round"/>
     </g>
     <g id="text_10">
      <!-- 30 -->
      <g style="fill: #262626" transform="translate(22.429375 108.179501)scale(0.14 -0.14)">
       <use xlink:href="#ArialMT-33"/>
       <use xlink:href="#ArialMT-30" x="55.615234"/>
      </g>
     </g>
    </g>
    <g id="ytick_6">
     <g id="line2d_11">
      <path d="M 45 70.652903 
L 324 70.652903 
" clip-path="url(#p55055e7c5c)" style="fill: none; stroke: #ffffff; stroke-width: 0.8; stroke-linecap: round"/>
     </g>
     <g id="text_11">
      <!-- 40 -->
      <g style="fill: #262626" transform="translate(22.429375 75.663372)scale(0.14 -0.14)">
       <use xlink:href="#ArialMT-34"/>
       <use xlink:href="#ArialMT-30" x="55.615234"/>
      </g>
     </g>
    </g>
    <g id="ytick_7">
     <g id="line2d_12">
      <path d="M 45 38.136774 
L 324 38.136774 
" clip-path="url(#p55055e7c5c)" style="fill: none; stroke: #ffffff; stroke-width: 0.8; stroke-linecap: round"/>
     </g>
     <g id="text_12">
      <!-- 50 -->
      <g style="fill: #262626" transform="translate(22.429375 43.147243)scale(0.14 -0.14)">
       <use xlink:href="#ArialMT-35"/>
       <use xlink:href="#ArialMT-30" x="55.615234"/>
      </g>
     </g>
    </g>
   </g>
   <g id="PathCollection_1">
    <defs>
     <path id="me70afe9e12" d="M 0 1.322876 
C 0.350831 1.322876 0.68734 1.183489 0.935414 0.935414 
C 1.183489 0.68734 1.322876 0.350831 1.322876 0 
C 1.322876 -0.350831 1.183489 -0.68734 0.935414 -0.935414 
C 0.68734 -1.183489 0.350831 -1.322876 0 -1.322876 
C -0.350831 -1.322876 -0.68734 -1.183489 -0.935414 -0.935414 
C -1.183489 -0.68734 -1.322876 -0.350831 -1.322876 0 
C -1.322876 0.350831 -1.183489 0.68734 -0.935414 0.935414 
C -0.68734 1.183489 -0.350831 1.322876 0 1.322876 
z
" style="stroke: #0000ff; stroke-opacity: 0.5"/>
    </defs>
    <g clip-path="url(#p55055e7c5c)">
     <use xlink:href="#me70afe9e12" x="119.4" y="155.194839" style="fill: #0000ff; fill-opacity: 0.5; stroke: #0000ff; stroke-opacity: 0.5"/>
     <use xlink:href="#me70afe9e12" x="76" y="177.956129" style="fill: #0000ff; fill-opacity: 0.5; stroke: #0000ff; stroke-opacity: 0.5"/>
     <use xlink:href="#me70afe9e12" x="100.8" y="135.685161" style="fill: #0000ff; fill-opacity: 0.5; stroke: #0000ff; stroke-opacity: 0.5"/>
     <use xlink:href="#me70afe9e12" x="131.8" y="194.214194" style="fill: #0000ff; fill-opacity: 0.5; stroke: #0000ff; stroke-opacity: 0.5"/>
     <use xlink:href="#me70afe9e12" x="317.8" y="203.969032" style="fill: #0000ff; fill-opacity: 0.5; stroke: #0000ff; stroke-opacity: 0.5"/>
     <use xlink:href="#me70afe9e12" x="125.6" y="171.452903" style="fill: #0000ff; fill-opacity: 0.5; stroke: #0000ff; stroke-opacity: 0.5"/>
     <use xlink:href="#me70afe9e12" x="131.8" y="171.452903" style="fill: #0000ff; fill-opacity: 0.5; stroke: #0000ff; stroke-opacity: 0.5"/>
     <use xlink:href="#me70afe9e12" x="156.6" y="174.704516" style="fill: #0000ff; fill-opacity: 0.5; stroke: #0000ff; stroke-opacity: 0.5"/>
     <use xlink:href="#me70afe9e12" x="193.8" y="207.220645" style="fill: #0000ff; fill-opacity: 0.5; stroke: #0000ff; stroke-opacity: 0.5"/>
     <use xlink:href="#me70afe9e12" x="200" y="145.44" style="fill: #0000ff; fill-opacity: 0.5; stroke: #0000ff; stroke-opacity: 0.5"/>
     <use xlink:href="#me70afe9e12" x="156.6" y="187.710968" style="fill: #0000ff; fill-opacity: 0.5; stroke: #0000ff; stroke-opacity: 0.5"/>
     <use xlink:href="#me70afe9e12" x="212.4" y="246.24" style="fill: #0000ff; fill-opacity: 0.5; stroke: #0000ff; stroke-opacity: 0.5"/>
     <use xlink:href="#me70afe9e12" x="138" y="174.704516" style="fill: #0000ff; fill-opacity: 0.5; stroke: #0000ff; stroke-opacity: 0.5"/>
     <use xlink:href="#me70afe9e12" x="107" y="194.214194" style="fill: #0000ff; fill-opacity: 0.5; stroke: #0000ff; stroke-opacity: 0.5"/>
     <use xlink:href="#me70afe9e12" x="175.2" y="161.698065" style="fill: #0000ff; fill-opacity: 0.5; stroke: #0000ff; stroke-opacity: 0.5"/>
     <use xlink:href="#me70afe9e12" x="268.2" y="187.710968" style="fill: #0000ff; fill-opacity: 0.5; stroke: #0000ff; stroke-opacity: 0.5"/>
     <use xlink:href="#me70afe9e12" x="218.6" y="223.47871" style="fill: #0000ff; fill-opacity: 0.5; stroke: #0000ff; stroke-opacity: 0.5"/>
     <use xlink:href="#me70afe9e12" x="82.2" y="142.188387" style="fill: #0000ff; fill-opacity: 0.5; stroke: #0000ff; stroke-opacity: 0.5"/>
     <use xlink:href="#me70afe9e12" x="113.2" y="181.207742" style="fill: #0000ff; fill-opacity: 0.5; stroke: #0000ff; stroke-opacity: 0.5"/>
     <use xlink:href="#me70afe9e12" x="138" y="210.472258" style="fill: #0000ff; fill-opacity: 0.5; stroke: #0000ff; stroke-opacity: 0.5"/>
     <use xlink:href="#me70afe9e12" x="156.6" y="207.220645" style="fill: #0000ff; fill-opacity: 0.5; stroke: #0000ff; stroke-opacity: 0.5"/>
     <use xlink:href="#me70afe9e12" x="237.2" y="213.723871" style="fill: #0000ff; fill-opacity: 0.5; stroke: #0000ff; stroke-opacity: 0.5"/>
     <use xlink:href="#me70afe9e12" x="237.2" y="155.194839" style="fill: #0000ff; fill-opacity: 0.5; stroke: #0000ff; stroke-opacity: 0.5"/>
     <use xlink:href="#me70afe9e12" x="162.8" y="151.943226" style="fill: #0000ff; fill-opacity: 0.5; stroke: #0000ff; stroke-opacity: 0.5"/>
     <use xlink:href="#me70afe9e12" x="249.6" y="171.452903" style="fill: #0000ff; fill-opacity: 0.5; stroke: #0000ff; stroke-opacity: 0.5"/>
     <use xlink:href="#me70afe9e12" x="243.4" y="158.446452" style="fill: #0000ff; fill-opacity: 0.5; stroke: #0000ff; stroke-opacity: 0.5"/>
     <use xlink:href="#me70afe9e12" x="255.8" y="203.969032" style="fill: #0000ff; fill-opacity: 0.5; stroke: #0000ff; stroke-opacity: 0.5"/>
    </g>
   </g>
   <g id="PolyCollection_1">
    <defs>
     <path id="m387f315183" d="M 45 -143.233698 
L 45 -103.901974 
L 47.818182 -103.879039 
L 50.636364 -103.962413 
L 53.454545 -104.127837 
L 56.272727 -104.124703 
L 59.090909 -104.218716 
L 61.909091 -104.195878 
L 64.727273 -104.144057 
L 67.545455 -104.265898 
L 70.363636 -104.010562 
L 73.181818 -104.094195 
L 76 -104.160769 
L 78.818182 -104.261165 
L 81.636364 -104.152279 
L 84.454545 -103.991318 
L 87.272727 -103.738389 
L 90.090909 -103.813496 
L 92.909091 -103.766787 
L 95.727273 -103.62161 
L 98.545455 -103.528584 
L 101.363636 -103.533142 
L 104.181818 -103.401597 
L 107 -103.371526 
L 109.818182 -103.116812 
L 112.636364 -103.199612 
L 115.454545 -103.048158 
L 118.272727 -102.907444 
L 121.090909 -102.794058 
L 123.909091 -102.562639 
L 126.727273 -102.396254 
L 129.545455 -102.218457 
L 132.363636 -101.853263 
L 135.181818 -101.518535 
L 138 -101.220157 
L 140.818182 -100.756288 
L 143.636364 -100.394419 
L 146.454545 -100.217385 
L 149.272727 -99.941199 
L 152.090909 -99.601887 
L 154.909091 -99.169406 
L 157.727273 -98.698234 
L 160.545455 -98.191844 
L 163.363636 -97.594274 
L 166.181818 -96.97641 
L 169 -96.547821 
L 171.818182 -95.710764 
L 174.636364 -95.249159 
L 177.454545 -94.894121 
L 180.272727 -94.433175 
L 183.090909 -93.87525 
L 185.909091 -93.232635 
L 188.727273 -92.784226 
L 191.545455 -92.119916 
L 194.363636 -91.462214 
L 197.181818 -90.878062 
L 200 -90.054776 
L 202.818182 -89.526529 
L 205.636364 -88.928264 
L 208.454545 -88.123753 
L 211.272727 -87.338729 
L 214.090909 -86.735293 
L 216.909091 -86.138453 
L 219.727273 -85.54208 
L 222.545455 -84.933445 
L 225.363636 -84.239407 
L 228.181818 -83.394329 
L 231 -82.510167 
L 233.818182 -81.847228 
L 236.636364 -81.175983 
L 239.454545 -80.557026 
L 242.272727 -79.938069 
L 245.090909 -79.103881 
L 247.909091 -78.268099 
L 250.727273 -77.435 
L 253.545455 -76.623053 
L 256.363636 -76.074453 
L 259.181818 -75.53121 
L 262 -74.874871 
L 264.818182 -73.975291 
L 267.636364 -73.363602 
L 270.454545 -72.631917 
L 273.272727 -71.829633 
L 276.090909 -71.027579 
L 278.909091 -70.225525 
L 281.727273 -69.423472 
L 284.545455 -68.621418 
L 287.363636 -67.901259 
L 290.181818 -67.196443 
L 293 -66.491627 
L 295.818182 -65.686239 
L 298.636364 -64.736766 
L 301.454545 -63.793969 
L 304.272727 -62.989242 
L 307.090909 -62.305969 
L 309.909091 -61.6337 
L 312.727273 -60.881281 
L 315.545455 -59.942512 
L 318.363636 -58.975548 
L 321.181818 -58.150861 
L 324 -57.338479 
L 324 -113.287299 
L 324 -113.287299 
L 321.181818 -113.234229 
L 318.363636 -113.103483 
L 315.545455 -112.972736 
L 312.727273 -112.89929 
L 309.909091 -112.938473 
L 307.090909 -112.977656 
L 304.272727 -112.805306 
L 301.454545 -112.629025 
L 298.636364 -112.716485 
L 295.818182 -112.797601 
L 293 -112.671673 
L 290.181818 -112.603556 
L 287.363636 -112.626111 
L 284.545455 -112.646419 
L 281.727273 -112.662766 
L 278.909091 -112.679113 
L 276.090909 -112.69546 
L 273.272727 -112.711806 
L 270.454545 -112.644545 
L 267.636364 -112.601213 
L 264.818182 -112.62849 
L 262 -112.655767 
L 259.181818 -112.683045 
L 256.363636 -112.710322 
L 253.545455 -112.737401 
L 250.727273 -112.767264 
L 247.909091 -112.957007 
L 245.090909 -113.083896 
L 242.272727 -113.003079 
L 239.454545 -113.075223 
L 236.636364 -113.146934 
L 233.818182 -113.190687 
L 231 -113.11967 
L 228.181818 -113.121161 
L 225.363636 -113.294177 
L 222.545455 -113.432089 
L 219.727273 -113.597918 
L 216.909091 -113.841482 
L 214.090909 -113.754071 
L 211.272727 -113.958372 
L 208.454545 -113.918579 
L 205.636364 -113.983625 
L 202.818182 -114.384304 
L 200 -114.684653 
L 197.181818 -114.737575 
L 194.363636 -114.947079 
L 191.545455 -115.089723 
L 188.727273 -115.50774 
L 185.909091 -115.790561 
L 183.090909 -116.011498 
L 180.272727 -116.233684 
L 177.454545 -116.580425 
L 174.636364 -116.775606 
L 171.818182 -116.806281 
L 169 -116.72445 
L 166.181818 -116.946753 
L 163.363636 -117.315594 
L 160.545455 -117.707624 
L 157.727273 -118.091681 
L 154.909091 -118.596327 
L 152.090909 -119.064377 
L 149.272727 -119.52738 
L 146.454545 -120.1161 
L 143.636364 -120.521398 
L 140.818182 -121.087568 
L 138 -121.593674 
L 135.181818 -122.100031 
L 132.363636 -122.571358 
L 129.545455 -123.149218 
L 126.727273 -123.616499 
L 123.909091 -124.144222 
L 121.090909 -124.667823 
L 118.272727 -125.198999 
L 115.454545 -125.878162 
L 112.636364 -126.556827 
L 109.818182 -127.227859 
L 107 -127.66069 
L 104.181818 -128.438354 
L 101.363636 -129.249413 
L 98.545455 -129.699296 
L 95.727273 -130.243688 
L 92.909091 -131.081411 
L 90.090909 -131.690459 
L 87.272727 -132.297569 
L 84.454545 -133.018532 
L 81.636364 -133.757038 
L 78.818182 -134.51955 
L 76 -135.217776 
L 73.181818 -136.011989 
L 70.363636 -136.689674 
L 67.545455 -137.316534 
L 64.727273 -138.170041 
L 61.909091 -139.025003 
L 59.090909 -139.743445 
L 56.272727 -140.339676 
L 53.454545 -140.946474 
L 50.636364 -141.708882 
L 47.818182 -142.47129 
L 45 -143.233698 
z
" style="stroke: #ffffff; stroke-opacity: 0.15"/>
    </defs>
    <g clip-path="url(#p55055e7c5c)">
     <use xlink:href="#m387f315183" x="0" y="288" style="fill: #0000ff; fill-opacity: 0.15; stroke: #ffffff; stroke-opacity: 0.15"/>
    </g>
   </g>
   <g id="PathCollection_2">
    <defs>
     <path id="m564bc63834" d="M 0 1.322876 
C 0.350831 1.322876 0.68734 1.183489 0.935414 0.935414 
C 1.183489 0.68734 1.322876 0.350831 1.322876 0 
C 1.322876 -0.350831 1.183489 -0.68734 0.935414 -0.935414 
C 0.68734 -1.183489 0.350831 -1.322876 0 -1.322876 
C -0.350831 -1.322876 -0.68734 -1.183489 -0.935414 -0.935414 
C -1.183489 -0.68734 -1.322876 -0.350831 -1.322876 0 
C -1.322876 0.350831 -1.183489 0.68734 -0.935414 0.935414 
C -0.68734 1.183489 -0.350831 1.322876 0 1.322876 
z
" style="stroke: #ff0000; stroke-opacity: 0.5"/>
    </defs>
    <g clip-path="url(#p55055e7c5c)">
     <use xlink:href="#m564bc63834" x="88.4" y="187.710968" style="fill: #ff0000; fill-opacity: 0.5; stroke: #ff0000; stroke-opacity: 0.5"/>
     <use xlink:href="#m564bc63834" x="107" y="216.975484" style="fill: #ff0000; fill-opacity: 0.5; stroke: #ff0000; stroke-opacity: 0.5"/>
     <use xlink:href="#m564bc63834" x="100.8" y="116.175484" style="fill: #ff0000; fill-opacity: 0.5; stroke: #ff0000; stroke-opacity: 0.5"/>
     <use xlink:href="#m564bc63834" x="63.6" y="229.981935" style="fill: #ff0000; fill-opacity: 0.5; stroke: #ff0000; stroke-opacity: 0.5"/>
     <use xlink:href="#m564bc63834" x="206.2" y="161.698065" style="fill: #ff0000; fill-opacity: 0.5; stroke: #ff0000; stroke-opacity: 0.5"/>
     <use xlink:href="#m564bc63834" x="150.4" y="129.181935" style="fill: #ff0000; fill-opacity: 0.5; stroke: #ff0000; stroke-opacity: 0.5"/>
     <use xlink:href="#m564bc63834" x="119.4" y="145.44" style="fill: #ff0000; fill-opacity: 0.5; stroke: #ff0000; stroke-opacity: 0.5"/>
     <use xlink:href="#m564bc63834" x="150.4" y="155.194839" style="fill: #ff0000; fill-opacity: 0.5; stroke: #ff0000; stroke-opacity: 0.5"/>
     <use xlink:href="#m564bc63834" x="237.2" y="103.169032" style="fill: #ff0000; fill-opacity: 0.5; stroke: #ff0000; stroke-opacity: 0.5"/>
     <use xlink:href="#m564bc63834" x="249.6" y="132.433548" style="fill: #ff0000; fill-opacity: 0.5; stroke: #ff0000; stroke-opacity: 0.5"/>
     <use xlink:href="#m564bc63834" x="187.6" y="151.943226" style="fill: #ff0000; fill-opacity: 0.5; stroke: #ff0000; stroke-opacity: 0.5"/>
     <use xlink:href="#m564bc63834" x="181.4" y="187.710968" style="fill: #ff0000; fill-opacity: 0.5; stroke: #ff0000; stroke-opacity: 0.5"/>
     <use xlink:href="#m564bc63834" x="156.6" y="158.446452" style="fill: #ff0000; fill-opacity: 0.5; stroke: #ff0000; stroke-opacity: 0.5"/>
     <use xlink:href="#m564bc63834" x="206.2" y="161.698065" style="fill: #ff0000; fill-opacity: 0.5; stroke: #ff0000; stroke-opacity: 0.5"/>
     <use xlink:href="#m564bc63834" x="162.8" y="151.943226" style="fill: #ff0000; fill-opacity: 0.5; stroke: #ff0000; stroke-opacity: 0.5"/>
     <use xlink:href="#m564bc63834" x="262" y="106.420645" style="fill: #ff0000; fill-opacity: 0.5; stroke: #ff0000; stroke-opacity: 0.5"/>
     <use xlink:href="#m564bc63834" x="255.8" y="93.414194" style="fill: #ff0000; fill-opacity: 0.5; stroke: #ff0000; stroke-opacity: 0.5"/>
     <use xlink:href="#m564bc63834" x="156.6" y="44.64" style="fill: #ff0000; fill-opacity: 0.5; stroke: #ff0000; stroke-opacity: 0.5"/>
     <use xlink:href="#m564bc63834" x="218.6" y="119.427097" style="fill: #ff0000; fill-opacity: 0.5; stroke: #ff0000; stroke-opacity: 0.5"/>
     <use xlink:href="#m564bc63834" x="138" y="161.698065" style="fill: #ff0000; fill-opacity: 0.5; stroke: #ff0000; stroke-opacity: 0.5"/>
     <use xlink:href="#m564bc63834" x="169" y="174.704516" style="fill: #ff0000; fill-opacity: 0.5; stroke: #ff0000; stroke-opacity: 0.5"/>
     <use xlink:href="#m564bc63834" x="162.8" y="122.67871" style="fill: #ff0000; fill-opacity: 0.5; stroke: #ff0000; stroke-opacity: 0.5"/>
     <use xlink:href="#m564bc63834" x="293" y="122.67871" style="fill: #ff0000; fill-opacity: 0.5; stroke: #ff0000; stroke-opacity: 0.5"/>
     <use xlink:href="#m564bc63834" x="82.2" y="177.956129" style="fill: #ff0000; fill-opacity: 0.5; stroke: #ff0000; stroke-opacity: 0.5"/>
     <use xlink:href="#m564bc63834" x="69.8" y="190.962581" style="fill: #ff0000; fill-opacity: 0.5; stroke: #ff0000; stroke-opacity: 0.5"/>
     <use xlink:href="#m564bc63834" x="94.6" y="119.427097" style="fill: #ff0000; fill-opacity: 0.5; stroke: #ff0000; stroke-opacity: 0.5"/>
     <use xlink:href="#m564bc63834" x="63.6" y="190.962581" style="fill: #ff0000; fill-opacity: 0.5; stroke: #ff0000; stroke-opacity: 0.5"/>
     <use xlink:href="#m564bc63834" x="107" y="135.685161" style="fill: #ff0000; fill-opacity: 0.5; stroke: #ff0000; stroke-opacity: 0.5"/>
    </g>
   </g>
   <g id="PolyCollection_2">
    <defs>
     <path id="m5f7254e5c8" d="M 45 -131.051886 
L 45 -76.567294 
L 47.818182 -77.7375 
L 50.636364 -79.033041 
L 53.454545 -80.355362 
L 56.272727 -81.681089 
L 59.090909 -83.183447 
L 61.909091 -84.583672 
L 64.727273 -85.849347 
L 67.545455 -87.115022 
L 70.363636 -88.382029 
L 73.181818 -89.660584 
L 76 -90.941112 
L 78.818182 -92.221101 
L 81.636364 -93.587305 
L 84.454545 -94.908313 
L 87.272727 -96.231465 
L 90.090909 -97.555113 
L 92.909091 -98.868441 
L 95.727273 -100.089687 
L 98.545455 -101.265935 
L 101.363636 -102.449847 
L 104.181818 -103.641261 
L 107 -104.817435 
L 109.818182 -106.079525 
L 112.636364 -107.341616 
L 115.454545 -108.609367 
L 118.272727 -109.988313 
L 121.090909 -111.138397 
L 123.909091 -112.399038 
L 126.727273 -113.661433 
L 129.545455 -114.926038 
L 132.363636 -116.128532 
L 135.181818 -117.362365 
L 138 -118.609106 
L 140.818182 -119.879853 
L 143.636364 -120.932315 
L 146.454545 -122.124158 
L 149.272727 -123.178771 
L 152.090909 -124.221928 
L 154.909091 -125.27387 
L 157.727273 -126.422303 
L 160.545455 -127.375735 
L 163.363636 -128.346958 
L 166.181818 -129.474332 
L 169 -130.529518 
L 171.818182 -131.402517 
L 174.636364 -132.432479 
L 177.454545 -133.30772 
L 180.272727 -134.098555 
L 183.090909 -135.112247 
L 185.909091 -136.016797 
L 188.727273 -136.640786 
L 191.545455 -137.469814 
L 194.363636 -138.376883 
L 197.181818 -139.197585 
L 200 -139.967323 
L 202.818182 -140.825723 
L 205.636364 -141.68587 
L 208.454545 -142.542896 
L 211.272727 -143.246824 
L 214.090909 -143.899652 
L 216.909091 -144.296594 
L 219.727273 -145.113534 
L 222.545455 -145.753726 
L 225.363636 -146.4774 
L 228.181818 -147.063521 
L 231 -147.80837 
L 233.818182 -148.348591 
L 236.636364 -149.09567 
L 239.454545 -149.95342 
L 242.272727 -150.523798 
L 245.090909 -151.261245 
L 247.909091 -151.5803 
L 250.727273 -152.387751 
L 253.545455 -152.945128 
L 256.363636 -153.597023 
L 259.181818 -153.733911 
L 262 -153.9342 
L 264.818182 -154.496352 
L 267.636364 -155.064454 
L 270.454545 -155.635217 
L 273.272727 -155.989448 
L 276.090909 -156.282181 
L 278.909091 -156.645858 
L 281.727273 -157.240517 
L 284.545455 -158.012034 
L 287.363636 -158.459006 
L 290.181818 -158.814781 
L 293 -159.599798 
L 295.818182 -160.252192 
L 298.636364 -160.673002 
L 301.454545 -161.141148 
L 304.272727 -161.644864 
L 307.090909 -162.028646 
L 309.909091 -162.466632 
L 312.727273 -162.785089 
L 315.545455 -163.314856 
L 318.363636 -163.79525 
L 321.181818 -164.182526 
L 324 -164.575823 
L 324 -216.871517 
L 324 -216.871517 
L 321.181818 -215.577683 
L 318.363636 -214.047803 
L 315.545455 -212.688616 
L 312.727273 -211.327699 
L 309.909091 -209.966781 
L 307.090909 -208.605864 
L 304.272727 -207.244947 
L 301.454545 -205.88403 
L 298.636364 -204.536519 
L 295.818182 -203.249909 
L 293 -201.963298 
L 290.181818 -200.676687 
L 287.363636 -199.390077 
L 284.545455 -198.102649 
L 281.727273 -196.80751 
L 278.909091 -195.512292 
L 276.090909 -194.217075 
L 273.272727 -192.722983 
L 270.454545 -191.535243 
L 267.636364 -190.348356 
L 264.818182 -189.059505 
L 262 -187.852418 
L 259.181818 -186.653177 
L 256.363636 -185.370669 
L 253.545455 -184.019826 
L 250.727273 -182.823708 
L 247.909091 -181.759354 
L 245.090909 -180.662738 
L 242.272727 -179.440922 
L 239.454545 -178.157363 
L 236.636364 -176.995377 
L 233.818182 -175.82419 
L 231 -174.657604 
L 228.181818 -173.471912 
L 225.363636 -172.327755 
L 222.545455 -171.161571 
L 219.727273 -169.879618 
L 216.909091 -168.682187 
L 214.090909 -167.482879 
L 211.272727 -166.283653 
L 208.454545 -165.074231 
L 205.636364 -163.958924 
L 202.818182 -162.862546 
L 200 -161.881628 
L 197.181818 -160.911039 
L 194.363636 -159.997838 
L 191.545455 -159.077379 
L 188.727273 -158.117258 
L 185.909091 -157.183155 
L 183.090909 -156.282235 
L 180.272727 -155.570779 
L 177.454545 -154.698655 
L 174.636364 -153.708027 
L 171.818182 -152.973065 
L 169 -152.262698 
L 166.181818 -151.692264 
L 163.363636 -151.175831 
L 160.545455 -150.599982 
L 157.727273 -149.851083 
L 154.909091 -149.177181 
L 152.090909 -148.671542 
L 149.272727 -148.054096 
L 146.454545 -147.353889 
L 143.636364 -146.645196 
L 140.818182 -146.081669 
L 138 -145.595384 
L 135.181818 -145.063172 
L 132.363636 -144.645124 
L 129.545455 -144.346533 
L 126.727273 -143.934698 
L 123.909091 -143.259462 
L 121.090909 -142.584101 
L 118.272727 -141.90874 
L 115.454545 -141.233379 
L 112.636364 -140.65649 
L 109.818182 -140.245499 
L 107 -139.65813 
L 104.181818 -139.270439 
L 101.363636 -138.935781 
L 98.545455 -138.549962 
L 95.727273 -138.222157 
L 92.909091 -137.830226 
L 90.090909 -137.289821 
L 87.272727 -136.886668 
L 84.454545 -136.610344 
L 81.636364 -136.20443 
L 78.818182 -136.027198 
L 76 -135.662097 
L 73.181818 -135.085604 
L 70.363636 -134.503527 
L 67.545455 -133.961059 
L 64.727273 -133.597413 
L 61.909091 -133.233766 
L 59.090909 -132.870119 
L 56.272727 -132.506473 
L 53.454545 -132.142826 
L 50.636364 -131.77918 
L 47.818182 -131.415533 
L 45 -131.051886 
z
" style="stroke: #ffffff; stroke-opacity: 0.15"/>
    </defs>
    <g clip-path="url(#p55055e7c5c)">
     <use xlink:href="#m5f7254e5c8" x="0" y="288" style="fill: #ff0000; fill-opacity: 0.15; stroke: #ffffff; stroke-opacity: 0.15"/>
    </g>
   </g>
   <g id="line2d_13">
    <path d="M 45 163.324523 
L 47.818182 163.711192 
L 50.636364 164.09786 
L 53.454545 164.484528 
L 56.272727 164.871197 
L 59.090909 165.257865 
L 61.909091 165.644533 
L 64.727273 166.031202 
L 67.545455 166.41787 
L 70.363636 166.804538 
L 73.181818 167.191207 
L 76 167.577875 
L 78.818182 167.964543 
L 81.636364 168.351212 
L 84.454545 168.73788 
L 87.272727 169.124548 
L 90.090909 169.511217 
L 92.909091 169.897885 
L 95.727273 170.284553 
L 98.545455 170.671222 
L 101.363636 171.05789 
L 104.181818 171.444558 
L 107 171.831227 
L 109.818182 172.217895 
L 112.636364 172.604563 
L 115.454545 172.991232 
L 118.272727 173.3779 
L 121.090909 173.764568 
L 123.909091 174.151237 
L 126.727273 174.537905 
L 129.545455 174.924574 
L 132.363636 175.311242 
L 135.181818 175.69791 
L 138 176.084579 
L 140.818182 176.471247 
L 143.636364 176.857915 
L 146.454545 177.244584 
L 149.272727 177.631252 
L 152.090909 178.01792 
L 154.909091 178.404589 
L 157.727273 178.791257 
L 160.545455 179.177925 
L 163.363636 179.564594 
L 166.181818 179.951262 
L 169 180.33793 
L 171.818182 180.724599 
L 174.636364 181.111267 
L 177.454545 181.497935 
L 180.272727 181.884604 
L 183.090909 182.271272 
L 185.909091 182.65794 
L 188.727273 183.044609 
L 191.545455 183.431277 
L 194.363636 183.817945 
L 197.181818 184.204614 
L 200 184.591282 
L 202.818182 184.97795 
L 205.636364 185.364619 
L 208.454545 185.751287 
L 211.272727 186.137955 
L 214.090909 186.524624 
L 216.909091 186.911292 
L 219.727273 187.29796 
L 222.545455 187.684629 
L 225.363636 188.071297 
L 228.181818 188.457965 
L 231 188.844634 
L 233.818182 189.231302 
L 236.636364 189.61797 
L 239.454545 190.004639 
L 242.272727 190.391307 
L 245.090909 190.777975 
L 247.909091 191.164644 
L 250.727273 191.551312 
L 253.545455 191.93798 
L 256.363636 192.324649 
L 259.181818 192.711317 
L 262 193.097985 
L 264.818182 193.484654 
L 267.636364 193.871322 
L 270.454545 194.25799 
L 273.272727 194.644659 
L 276.090909 195.031327 
L 278.909091 195.417995 
L 281.727273 195.804664 
L 284.545455 196.191332 
L 287.363636 196.578 
L 290.181818 196.964669 
L 293 197.351337 
L 295.818182 197.738005 
L 298.636364 198.124674 
L 301.454545 198.511342 
L 304.272727 198.89801 
L 307.090909 199.284679 
L 309.909091 199.671347 
L 312.727273 200.058015 
L 315.545455 200.444684 
L 318.363636 200.831352 
L 321.181818 201.21802 
L 324 201.604689 
" clip-path="url(#p55055e7c5c)" style="fill: none; stroke: #0000ff; stroke-width: 2.25; stroke-linecap: round"/>
   </g>
   <g id="line2d_14">
    <path d="M 45 188.397715 
L 47.818182 187.464715 
L 50.636364 186.531715 
L 53.454545 185.598715 
L 56.272727 184.665715 
L 59.090909 183.732714 
L 61.909091 182.799714 
L 64.727273 181.866714 
L 67.545455 180.933714 
L 70.363636 180.000714 
L 73.181818 179.067713 
L 76 178.134713 
L 78.818182 177.201713 
L 81.636364 176.268713 
L 84.454545 175.335712 
L 87.272727 174.402712 
L 90.090909 173.469712 
L 92.909091 172.536712 
L 95.727273 171.603712 
L 98.545455 170.670711 
L 101.363636 169.737711 
L 104.181818 168.804711 
L 107 167.871711 
L 109.818182 166.938711 
L 112.636364 166.00571 
L 115.454545 165.07271 
L 118.272727 164.13971 
L 121.090909 163.20671 
L 123.909091 162.27371 
L 126.727273 161.340709 
L 129.545455 160.407709 
L 132.363636 159.474709 
L 135.181818 158.541709 
L 138 157.608709 
L 140.818182 156.675708 
L 143.636364 155.742708 
L 146.454545 154.809708 
L 149.272727 153.876708 
L 152.090909 152.943708 
L 154.909091 152.010707 
L 157.727273 151.077707 
L 160.545455 150.144707 
L 163.363636 149.211707 
L 166.181818 148.278707 
L 169 147.345706 
L 171.818182 146.412706 
L 174.636364 145.479706 
L 177.454545 144.546706 
L 180.272727 143.613706 
L 183.090909 142.680705 
L 185.909091 141.747705 
L 188.727273 140.814705 
L 191.545455 139.881705 
L 194.363636 138.948705 
L 197.181818 138.015704 
L 200 137.082704 
L 202.818182 136.149704 
L 205.636364 135.216704 
L 208.454545 134.283704 
L 211.272727 133.350703 
L 214.090909 132.417703 
L 216.909091 131.484703 
L 219.727273 130.551703 
L 222.545455 129.618703 
L 225.363636 128.685702 
L 228.181818 127.752702 
L 231 126.819702 
L 233.818182 125.886702 
L 236.636364 124.953702 
L 239.454545 124.020701 
L 242.272727 123.087701 
L 245.090909 122.154701 
L 247.909091 121.221701 
L 250.727273 120.288701 
L 253.545455 119.3557 
L 256.363636 118.4227 
L 259.181818 117.4897 
L 262 116.5567 
L 264.818182 115.6237 
L 267.636364 114.690699 
L 270.454545 113.757699 
L 273.272727 112.824699 
L 276.090909 111.891699 
L 278.909091 110.958699 
L 281.727273 110.025698 
L 284.545455 109.092698 
L 287.363636 108.159698 
L 290.181818 107.226698 
L 293 106.293698 
L 295.818182 105.360697 
L 298.636364 104.427697 
L 301.454545 103.494697 
L 304.272727 102.561697 
L 307.090909 101.628697 
L 309.909091 100.695696 
L 312.727273 99.762696 
L 315.545455 98.829696 
L 318.363636 97.896696 
L 321.181818 96.963696 
L 324 96.030695 
" clip-path="url(#p55055e7c5c)" style="fill: none; stroke: #ff0000; stroke-width: 2.25; stroke-linecap: round"/>
   </g>
   <g id="patch_3">
    <path d="M 45 256.32 
L 45 34.56 
" style="fill: none; stroke: #ffffff; stroke-width: 0.8; stroke-linejoin: miter; stroke-linecap: square"/>
   </g>
   <g id="patch_4">
    <path d="M 324 256.32 
L 324 34.56 
" style="fill: none; stroke: #ffffff; stroke-width: 0.8; stroke-linejoin: miter; stroke-linecap: square"/>
   </g>
   <g id="patch_5">
    <path d="M 45 256.32 
L 324 256.32 
" style="fill: none; stroke: #ffffff; stroke-width: 0.8; stroke-linejoin: miter; stroke-linecap: square"/>
   </g>
   <g id="patch_6">
    <path d="M 45 34.56 
L 324 34.56 
" style="fill: none; stroke: #ffffff; stroke-width: 0.8; stroke-linejoin: miter; stroke-linecap: square"/>
   </g>
   <g id="text_13">
    <!-- WEMWBS -->
    <g style="fill: #262626" transform="translate(141.506719 28.56)scale(0.18 -0.18)">
     <defs>
      <path id="Arial-BoldMT-57" d="M 1116 0 
L 22 4581 
L 969 4581 
L 1659 1434 
L 2497 4581 
L 3597 4581 
L 4400 1381 
L 5103 4581 
L 6034 4581 
L 4922 0 
L 3941 0 
L 3028 3425 
L 2119 0 
L 1116 0 
z
" transform="scale(0.015625)"/>
      <path id="Arial-BoldMT-45" d="M 466 0 
L 466 4581 
L 3863 4581 
L 3863 3806 
L 1391 3806 
L 1391 2791 
L 3691 2791 
L 3691 2019 
L 1391 2019 
L 1391 772 
L 3950 772 
L 3950 0 
L 466 0 
z
" transform="scale(0.015625)"/>
      <path id="Arial-BoldMT-4d" d="M 453 0 
L 453 4581 
L 1838 4581 
L 2669 1456 
L 3491 4581 
L 4878 4581 
L 4878 0 
L 4019 0 
L 4019 3606 
L 3109 0 
L 2219 0 
L 1313 3606 
L 1313 0 
L 453 0 
z
" transform="scale(0.015625)"/>
      <path id="Arial-BoldMT-42" d="M 469 4581 
L 2300 4581 
Q 2844 4581 3111 4536 
Q 3378 4491 3589 4347 
Q 3800 4203 3940 3964 
Q 4081 3725 4081 3428 
Q 4081 3106 3907 2837 
Q 3734 2569 3438 2434 
Q 3856 2313 4081 2019 
Q 4306 1725 4306 1328 
Q 4306 1016 4161 720 
Q 4016 425 3764 248 
Q 3513 72 3144 31 
Q 2913 6 2028 0 
L 469 0 
L 469 4581 
z
M 1394 3819 
L 1394 2759 
L 2000 2759 
Q 2541 2759 2672 2775 
Q 2909 2803 3045 2939 
Q 3181 3075 3181 3297 
Q 3181 3509 3064 3642 
Q 2947 3775 2716 3803 
Q 2578 3819 1925 3819 
L 1394 3819 
z
M 1394 1997 
L 1394 772 
L 2250 772 
Q 2750 772 2884 800 
Q 3091 838 3220 983 
Q 3350 1128 3350 1372 
Q 3350 1578 3250 1722 
Q 3150 1866 2961 1931 
Q 2772 1997 2141 1997 
L 1394 1997 
z
" transform="scale(0.015625)"/>
      <path id="Arial-BoldMT-53" d="M 231 1491 
L 1131 1578 
Q 1213 1125 1461 912 
Q 1709 700 2131 700 
Q 2578 700 2804 889 
Q 3031 1078 3031 1331 
Q 3031 1494 2936 1608 
Q 2841 1722 2603 1806 
Q 2441 1863 1863 2006 
Q 1119 2191 819 2459 
Q 397 2838 397 3381 
Q 397 3731 595 4036 
Q 794 4341 1167 4500 
Q 1541 4659 2069 4659 
Q 2931 4659 3367 4281 
Q 3803 3903 3825 3272 
L 2900 3231 
Q 2841 3584 2645 3739 
Q 2450 3894 2059 3894 
Q 1656 3894 1428 3728 
Q 1281 3622 1281 3444 
Q 1281 3281 1419 3166 
Q 1594 3019 2269 2859 
Q 2944 2700 3267 2529 
Q 3591 2359 3773 2064 
Q 3956 1769 3956 1334 
Q 3956 941 3737 597 
Q 3519 253 3119 86 
Q 2719 -81 2122 -81 
Q 1253 -81 787 320 
Q 322 722 231 1491 
z
" transform="scale(0.015625)"/>
     </defs>
     <use xlink:href="#Arial-BoldMT-57"/>
     <use xlink:href="#Arial-BoldMT-45" x="94.384766"/>
     <use xlink:href="#Arial-BoldMT-4d" x="161.083984"/>
     <use xlink:href="#Arial-BoldMT-57" x="244.384766"/>
     <use xlink:href="#Arial-BoldMT-42" x="338.769531"/>
     <use xlink:href="#Arial-BoldMT-53" x="410.986328"/>
    </g>
   </g>
  </g>
 </g>
 <defs>
  <clipPath id="p55055e7c5c">
   <rect x="45" y="34.56" width="279" height="221.76"/>
  </clipPath>
 </defs>
</svg>
