<?xml version="1.0" encoding="utf-8" standalone="no"?>
<!DOCTYPE svg PUBLIC "-//W3C//DTD SVG 1.1//EN"
  "http://www.w3.org/Graphics/SVG/1.1/DTD/svg11.dtd">
<svg xmlns:xlink="http://www.w3.org/1999/xlink" width="360pt" height="288pt" viewBox="0 0 360 288" xmlns="http://www.w3.org/2000/svg" version="1.1">
 <metadata>
  <rdf:RDF xmlns:dc="http://purl.org/dc/elements/1.1/" xmlns:cc="http://creativecommons.org/ns#" xmlns:rdf="http://www.w3.org/1999/02/22-rdf-syntax-ns#">
   <cc:Work>
    <dc:type rdf:resource="http://purl.org/dc/dcmitype/StillImage"/>
    <dc:date>2022-11-10T09:39:40.495796</dc:date>
    <dc:format>image/svg+xml</dc:format>
    <dc:creator>
     <cc:Agent>
      <dc:title>Matplotlib v3.5.2, https://matplotlib.org/</dc:title>
     </cc:Agent>
    </dc:creator>
   </cc:Work>
  </rdf:RDF>
 </metadata>
 <defs>
  <style type="text/css">*{stroke-linejoin: round; stroke-linecap: butt}</style>
 </defs>
 <g id="figure_1">
  <g id="patch_1">
   <path d="M 0 288 
L 360 288 
L 360 0 
L 0 0 
z
" style="fill: #ffffff"/>
  </g>
  <g id="axes_1">
   <g id="patch_2">
    <path d="M 45 256.32 
L 324 256.32 
L 324 34.56 
L 45 34.56 
z
" style="fill: #eaeaf2"/>
   </g>
   <g id="matplotlib.axis_1">
    <g id="xtick_1">
     <g id="line2d_1">
      <path d="M 45 256.32 
L 45 34.56 
" clip-path="url(#pc6fd0d16a7)" style="fill: none; stroke: #ffffff; stroke-width: 0.8; stroke-linecap: round"/>
     </g>
     <g id="text_1">
      <!-- 0 -->
      <g style="fill: #262626" transform="translate(41.107344 273.340937)scale(0.14 -0.14)">
       <defs>
        <path id="ArialMT-30" d="M 266 2259 
Q 266 3072 433 3567 
Q 600 4063 929 4331 
Q 1259 4600 1759 4600 
Q 2128 4600 2406 4451 
Q 2684 4303 2865 4023 
Q 3047 3744 3150 3342 
Q 3253 2941 3253 2259 
Q 3253 1453 3087 958 
Q 2922 463 2592 192 
Q 2263 -78 1759 -78 
Q 1097 -78 719 397 
Q 266 969 266 2259 
z
M 844 2259 
Q 844 1131 1108 757 
Q 1372 384 1759 384 
Q 2147 384 2411 759 
Q 2675 1134 2675 2259 
Q 2675 3391 2411 3762 
Q 2147 4134 1753 4134 
Q 1366 4134 1134 3806 
Q 844 3388 844 2259 
z
" transform="scale(0.015625)"/>
       </defs>
       <use xlink:href="#ArialMT-30"/>
      </g>
     </g>
    </g>
    <g id="xtick_2">
     <g id="line2d_2">
      <path d="M 100.8 256.32 
L 100.8 34.56 
" clip-path="url(#pc6fd0d16a7)" style="fill: none; stroke: #ffffff; stroke-width: 0.8; stroke-linecap: round"/>
     </g>
     <g id="text_2">
      <!-- 20 -->
      <g style="fill: #262626" transform="translate(93.014687 273.340937)scale(0.14 -0.14)">
       <defs>
        <path id="ArialMT-32" d="M 3222 541 
L 3222 0 
L 194 0 
Q 188 203 259 391 
Q 375 700 629 1000 
Q 884 1300 1366 1694 
Q 2113 2306 2375 2664 
Q 2638 3022 2638 3341 
Q 2638 3675 2398 3904 
Q 2159 4134 1775 4134 
Q 1369 4134 1125 3890 
Q 881 3647 878 3216 
L 300 3275 
Q 359 3922 746 4261 
Q 1134 4600 1788 4600 
Q 2447 4600 2831 4234 
Q 3216 3869 3216 3328 
Q 3216 3053 3103 2787 
Q 2991 2522 2730 2228 
Q 2469 1934 1863 1422 
Q 1356 997 1212 845 
Q 1069 694 975 541 
L 3222 541 
z
" transform="scale(0.015625)"/>
       </defs>
       <use xlink:href="#ArialMT-32"/>
       <use xlink:href="#ArialMT-30" x="55.615234"/>
      </g>
     </g>
    </g>
    <g id="xtick_3">
     <g id="line2d_3">
      <path d="M 156.6 256.32 
L 156.6 34.56 
" clip-path="url(#pc6fd0d16a7)" style="fill: none; stroke: #ffffff; stroke-width: 0.8; stroke-linecap: round"/>
     </g>
     <g id="text_3">
      <!-- 40 -->
      <g style="fill: #262626" transform="translate(148.814687 273.340937)scale(0.14 -0.14)">
       <defs>
        <path id="ArialMT-34" d="M 2069 0 
L 2069 1097 
L 81 1097 
L 81 1613 
L 2172 4581 
L 2631 4581 
L 2631 1613 
L 3250 1613 
L 3250 1097 
L 2631 1097 
L 2631 0 
L 2069 0 
z
M 2069 1613 
L 2069 3678 
L 634 1613 
L 2069 1613 
z
" transform="scale(0.015625)"/>
       </defs>
       <use xlink:href="#ArialMT-34"/>
       <use xlink:href="#ArialMT-30" x="55.615234"/>
      </g>
     </g>
    </g>
    <g id="xtick_4">
     <g id="line2d_4">
      <path d="M 212.4 256.32 
L 212.4 34.56 
" clip-path="url(#pc6fd0d16a7)" style="fill: none; stroke: #ffffff; stroke-width: 0.8; stroke-linecap: round"/>
     </g>
     <g id="text_4">
      <!-- 60 -->
      <g style="fill: #262626" transform="translate(204.614688 273.340937)scale(0.14 -0.14)">
       <defs>
        <path id="ArialMT-36" d="M 3184 3459 
L 2625 3416 
Q 2550 3747 2413 3897 
Q 2184 4138 1850 4138 
Q 1581 4138 1378 3988 
Q 1113 3794 959 3422 
Q 806 3050 800 2363 
Q 1003 2672 1297 2822 
Q 1591 2972 1913 2972 
Q 2475 2972 2870 2558 
Q 3266 2144 3266 1488 
Q 3266 1056 3080 686 
Q 2894 316 2569 119 
Q 2244 -78 1831 -78 
Q 1128 -78 684 439 
Q 241 956 241 2144 
Q 241 3472 731 4075 
Q 1159 4600 1884 4600 
Q 2425 4600 2770 4297 
Q 3116 3994 3184 3459 
z
M 888 1484 
Q 888 1194 1011 928 
Q 1134 663 1356 523 
Q 1578 384 1822 384 
Q 2178 384 2434 671 
Q 2691 959 2691 1453 
Q 2691 1928 2437 2201 
Q 2184 2475 1800 2475 
Q 1419 2475 1153 2201 
Q 888 1928 888 1484 
z
" transform="scale(0.015625)"/>
       </defs>
       <use xlink:href="#ArialMT-36"/>
       <use xlink:href="#ArialMT-30" x="55.615234"/>
      </g>
     </g>
    </g>
    <g id="xtick_5">
     <g id="line2d_5">
      <path d="M 268.2 256.32 
L 268.2 34.56 
" clip-path="url(#pc6fd0d16a7)" style="fill: none; stroke: #ffffff; stroke-width: 0.8; stroke-linecap: round"/>
     </g>
     <g id="text_5">
      <!-- 80 -->
      <g style="fill: #262626" transform="translate(260.414688 273.340937)scale(0.14 -0.14)">
       <defs>
        <path id="ArialMT-38" d="M 1131 2484 
Q 781 2613 612 2850 
Q 444 3088 444 3419 
Q 444 3919 803 4259 
Q 1163 4600 1759 4600 
Q 2359 4600 2725 4251 
Q 3091 3903 3091 3403 
Q 3091 3084 2923 2848 
Q 2756 2613 2416 2484 
Q 2838 2347 3058 2040 
Q 3278 1734 3278 1309 
Q 3278 722 2862 322 
Q 2447 -78 1769 -78 
Q 1091 -78 675 323 
Q 259 725 259 1325 
Q 259 1772 486 2073 
Q 713 2375 1131 2484 
z
M 1019 3438 
Q 1019 3113 1228 2906 
Q 1438 2700 1772 2700 
Q 2097 2700 2305 2904 
Q 2513 3109 2513 3406 
Q 2513 3716 2298 3927 
Q 2084 4138 1766 4138 
Q 1444 4138 1231 3931 
Q 1019 3725 1019 3438 
z
M 838 1322 
Q 838 1081 952 856 
Q 1066 631 1291 507 
Q 1516 384 1775 384 
Q 2178 384 2440 643 
Q 2703 903 2703 1303 
Q 2703 1709 2433 1975 
Q 2163 2241 1756 2241 
Q 1359 2241 1098 1978 
Q 838 1716 838 1322 
z
" transform="scale(0.015625)"/>
       </defs>
       <use xlink:href="#ArialMT-38"/>
       <use xlink:href="#ArialMT-30" x="55.615234"/>
      </g>
     </g>
    </g>
    <g id="xtick_6">
     <g id="line2d_6">
      <path d="M 324 256.32 
L 324 34.56 
" clip-path="url(#pc6fd0d16a7)" style="fill: none; stroke: #ffffff; stroke-width: 0.8; stroke-linecap: round"/>
     </g>
     <g id="text_6">
      <!-- 100 -->
      <g style="fill: #262626" transform="translate(312.322031 273.340937)scale(0.14 -0.14)">
       <defs>
        <path id="ArialMT-31" d="M 2384 0 
L 1822 0 
L 1822 3584 
Q 1619 3391 1289 3197 
Q 959 3003 697 2906 
L 697 3450 
Q 1169 3672 1522 3987 
Q 1875 4303 2022 4600 
L 2384 4600 
L 2384 0 
z
" transform="scale(0.015625)"/>
       </defs>
       <use xlink:href="#ArialMT-31"/>
       <use xlink:href="#ArialMT-30" x="55.615234"/>
       <use xlink:href="#ArialMT-30" x="111.230469"/>
      </g>
     </g>
    </g>
   </g>
   <g id="matplotlib.axis_2">
    <g id="ytick_1">
     <g id="line2d_7">
      <path d="M 45 233.233548 
L 324 233.233548 
" clip-path="url(#pc6fd0d16a7)" style="fill: none; stroke: #ffffff; stroke-width: 0.8; stroke-linecap: round"/>
     </g>
     <g id="text_7">
      <!-- −10 -->
      <g style="fill: #262626" transform="translate(14.2525 238.244017)scale(0.14 -0.14)">
       <defs>
        <path id="ArialMT-2212" d="M 3381 1997 
L 356 1997 
L 356 2522 
L 3381 2522 
L 3381 1997 
z
" transform="scale(0.015625)"/>
       </defs>
       <use xlink:href="#ArialMT-2212"/>
       <use xlink:href="#ArialMT-31" x="58.398438"/>
       <use xlink:href="#ArialMT-30" x="114.013672"/>
      </g>
     </g>
    </g>
    <g id="ytick_2">
     <g id="line2d_8">
      <path d="M 45 200.717419 
L 324 200.717419 
" clip-path="url(#pc6fd0d16a7)" style="fill: none; stroke: #ffffff; stroke-width: 0.8; stroke-linecap: round"/>
     </g>
     <g id="text_8">
      <!-- 0 -->
      <g style="fill: #262626" transform="translate(30.214688 205.727888)scale(0.14 -0.14)">
       <use xlink:href="#ArialMT-30"/>
      </g>
     </g>
    </g>
    <g id="ytick_3">
     <g id="line2d_9">
      <path d="M 45 168.20129 
L 324 168.20129 
" clip-path="url(#pc6fd0d16a7)" style="fill: none; stroke: #ffffff; stroke-width: 0.8; stroke-linecap: round"/>
     </g>
     <g id="text_9">
      <!-- 10 -->
      <g style="fill: #262626" transform="translate(22.429375 173.211759)scale(0.14 -0.14)">
       <use xlink:href="#ArialMT-31"/>
       <use xlink:href="#ArialMT-30" x="55.615234"/>
      </g>
     </g>
    </g>
    <g id="ytick_4">
     <g id="line2d_10">
      <path d="M 45 135.685161 
L 324 135.685161 
" clip-path="url(#pc6fd0d16a7)" style="fill: none; stroke: #ffffff; stroke-width: 0.8; stroke-linecap: round"/>
     </g>
     <g id="text_10">
      <!-- 20 -->
      <g style="fill: #262626" transform="translate(22.429375 140.69563)scale(0.14 -0.14)">
       <use xlink:href="#ArialMT-32"/>
       <use xlink:href="#ArialMT-30" x="55.615234"/>
      </g>
     </g>
    </g>
    <g id="ytick_5">
     <g id="line2d_11">
      <path d="M 45 103.169032 
L 324 103.169032 
" clip-path="url(#pc6fd0d16a7)" style="fill: none; stroke: #ffffff; stroke-width: 0.8; stroke-linecap: round"/>
     </g>
     <g id="text_11">
      <!-- 30 -->
      <g style="fill: #262626" transform="translate(22.429375 108.179501)scale(0.14 -0.14)">
       <defs>
        <path id="ArialMT-33" d="M 269 1209 
L 831 1284 
Q 928 806 1161 595 
Q 1394 384 1728 384 
Q 2125 384 2398 659 
Q 2672 934 2672 1341 
Q 2672 1728 2419 1979 
Q 2166 2231 1775 2231 
Q 1616 2231 1378 2169 
L 1441 2663 
Q 1497 2656 1531 2656 
Q 1891 2656 2178 2843 
Q 2466 3031 2466 3422 
Q 2466 3731 2256 3934 
Q 2047 4138 1716 4138 
Q 1388 4138 1169 3931 
Q 950 3725 888 3313 
L 325 3413 
Q 428 3978 793 4289 
Q 1159 4600 1703 4600 
Q 2078 4600 2393 4439 
Q 2709 4278 2876 4000 
Q 3044 3722 3044 3409 
Q 3044 3113 2884 2869 
Q 2725 2625 2413 2481 
Q 2819 2388 3044 2092 
Q 3269 1797 3269 1353 
Q 3269 753 2831 336 
Q 2394 -81 1725 -81 
Q 1122 -81 723 278 
Q 325 638 269 1209 
z
" transform="scale(0.015625)"/>
       </defs>
       <use xlink:href="#ArialMT-33"/>
       <use xlink:href="#ArialMT-30" x="55.615234"/>
      </g>
     </g>
    </g>
    <g id="ytick_6">
     <g id="line2d_12">
      <path d="M 45 70.652903 
L 324 70.652903 
" clip-path="url(#pc6fd0d16a7)" style="fill: none; stroke: #ffffff; stroke-width: 0.8; stroke-linecap: round"/>
     </g>
     <g id="text_12">
      <!-- 40 -->
      <g style="fill: #262626" transform="translate(22.429375 75.663372)scale(0.14 -0.14)">
       <use xlink:href="#ArialMT-34"/>
       <use xlink:href="#ArialMT-30" x="55.615234"/>
      </g>
     </g>
    </g>
    <g id="ytick_7">
     <g id="line2d_13">
      <path d="M 45 38.136774 
L 324 38.136774 
" clip-path="url(#pc6fd0d16a7)" style="fill: none; stroke: #ffffff; stroke-width: 0.8; stroke-linecap: round"/>
     </g>
     <g id="text_13">
      <!-- 50 -->
      <g style="fill: #262626" transform="translate(22.429375 43.147243)scale(0.14 -0.14)">
       <defs>
        <path id="ArialMT-35" d="M 266 1200 
L 856 1250 
Q 922 819 1161 601 
Q 1400 384 1738 384 
Q 2144 384 2425 690 
Q 2706 997 2706 1503 
Q 2706 1984 2436 2262 
Q 2166 2541 1728 2541 
Q 1456 2541 1237 2417 
Q 1019 2294 894 2097 
L 366 2166 
L 809 4519 
L 3088 4519 
L 3088 3981 
L 1259 3981 
L 1013 2750 
Q 1425 3038 1878 3038 
Q 2478 3038 2890 2622 
Q 3303 2206 3303 1553 
Q 3303 931 2941 478 
Q 2500 -78 1738 -78 
Q 1113 -78 717 272 
Q 322 622 266 1200 
z
" transform="scale(0.015625)"/>
       </defs>
       <use xlink:href="#ArialMT-35"/>
       <use xlink:href="#ArialMT-30" x="55.615234"/>
      </g>
     </g>
    </g>
   </g>
   <g id="PathCollection_1">
    <defs>
     <path id="mc6055598ef" d="M 0 1.322876 
C 0.350831 1.322876 0.68734 1.183489 0.935414 0.935414 
C 1.183489 0.68734 1.322876 0.350831 1.322876 0 
C 1.322876 -0.350831 1.183489 -0.68734 0.935414 -0.935414 
C 0.68734 -1.183489 0.350831 -1.322876 0 -1.322876 
C -0.350831 -1.322876 -0.68734 -1.183489 -0.935414 -0.935414 
C -1.183489 -0.68734 -1.322876 -0.350831 -1.322876 0 
C -1.322876 0.350831 -1.183489 0.68734 -0.935414 0.935414 
C -0.68734 1.183489 -0.350831 1.322876 0 1.322876 
z
" style="stroke: #0000ff; stroke-opacity: 0.5"/>
    </defs>
    <g clip-path="url(#pc6fd0d16a7)">
     <use xlink:href="#mc6055598ef" x="72.9" y="155.194839" style="fill: #0000ff; fill-opacity: 0.5; stroke: #0000ff; stroke-opacity: 0.5"/>
     <use xlink:href="#mc6055598ef" x="187.29" y="177.956129" style="fill: #0000ff; fill-opacity: 0.5; stroke: #0000ff; stroke-opacity: 0.5"/>
     <use xlink:href="#mc6055598ef" x="128.7" y="135.685161" style="fill: #0000ff; fill-opacity: 0.5; stroke: #0000ff; stroke-opacity: 0.5"/>
     <use xlink:href="#mc6055598ef" x="201.24" y="194.214194" style="fill: #0000ff; fill-opacity: 0.5; stroke: #0000ff; stroke-opacity: 0.5"/>
     <use xlink:href="#mc6055598ef" x="137.07" y="203.969032" style="fill: #0000ff; fill-opacity: 0.5; stroke: #0000ff; stroke-opacity: 0.5"/>
     <use xlink:href="#mc6055598ef" x="156.6" y="171.452903" style="fill: #0000ff; fill-opacity: 0.5; stroke: #0000ff; stroke-opacity: 0.5"/>
     <use xlink:href="#mc6055598ef" x="142.65" y="171.452903" style="fill: #0000ff; fill-opacity: 0.5; stroke: #0000ff; stroke-opacity: 0.5"/>
     <use xlink:href="#mc6055598ef" x="128.7" y="174.704516" style="fill: #0000ff; fill-opacity: 0.5; stroke: #0000ff; stroke-opacity: 0.5"/>
     <use xlink:href="#mc6055598ef" x="53.37" y="207.220645" style="fill: #0000ff; fill-opacity: 0.5; stroke: #0000ff; stroke-opacity: 0.5"/>
     <use xlink:href="#mc6055598ef" x="184.5" y="145.44" style="fill: #0000ff; fill-opacity: 0.5; stroke: #0000ff; stroke-opacity: 0.5"/>
     <use xlink:href="#mc6055598ef" x="254.25" y="187.710968" style="fill: #0000ff; fill-opacity: 0.5; stroke: #0000ff; stroke-opacity: 0.5"/>
     <use xlink:href="#mc6055598ef" x="58.95" y="246.24" style="fill: #0000ff; fill-opacity: 0.5; stroke: #0000ff; stroke-opacity: 0.5"/>
     <use xlink:href="#mc6055598ef" x="184.5" y="174.704516" style="fill: #0000ff; fill-opacity: 0.5; stroke: #0000ff; stroke-opacity: 0.5"/>
     <use xlink:href="#mc6055598ef" x="58.95" y="194.214194" style="fill: #0000ff; fill-opacity: 0.5; stroke: #0000ff; stroke-opacity: 0.5"/>
     <use xlink:href="#mc6055598ef" x="100.8" y="161.698065" style="fill: #0000ff; fill-opacity: 0.5; stroke: #0000ff; stroke-opacity: 0.5"/>
     <use xlink:href="#mc6055598ef" x="72.9" y="187.710968" style="fill: #0000ff; fill-opacity: 0.5; stroke: #0000ff; stroke-opacity: 0.5"/>
     <use xlink:href="#mc6055598ef" x="72.9" y="223.47871" style="fill: #0000ff; fill-opacity: 0.5; stroke: #0000ff; stroke-opacity: 0.5"/>
     <use xlink:href="#mc6055598ef" x="100.8" y="142.188387" style="fill: #0000ff; fill-opacity: 0.5; stroke: #0000ff; stroke-opacity: 0.5"/>
     <use xlink:href="#mc6055598ef" x="128.7" y="210.472258" style="fill: #0000ff; fill-opacity: 0.5; stroke: #0000ff; stroke-opacity: 0.5"/>
     <use xlink:href="#mc6055598ef" x="86.85" y="207.220645" style="fill: #0000ff; fill-opacity: 0.5; stroke: #0000ff; stroke-opacity: 0.5"/>
     <use xlink:href="#mc6055598ef" x="72.9" y="213.723871" style="fill: #0000ff; fill-opacity: 0.5; stroke: #0000ff; stroke-opacity: 0.5"/>
     <use xlink:href="#mc6055598ef" x="114.75" y="155.194839" style="fill: #0000ff; fill-opacity: 0.5; stroke: #0000ff; stroke-opacity: 0.5"/>
     <use xlink:href="#mc6055598ef" x="229.14" y="151.943226" style="fill: #0000ff; fill-opacity: 0.5; stroke: #0000ff; stroke-opacity: 0.5"/>
     <use xlink:href="#mc6055598ef" x="47.79" y="171.452903" style="fill: #0000ff; fill-opacity: 0.5; stroke: #0000ff; stroke-opacity: 0.5"/>
     <use xlink:href="#mc6055598ef" x="190.08" y="158.446452" style="fill: #0000ff; fill-opacity: 0.5; stroke: #0000ff; stroke-opacity: 0.5"/>
     <use xlink:href="#mc6055598ef" x="184.5" y="203.969032" style="fill: #0000ff; fill-opacity: 0.5; stroke: #0000ff; stroke-opacity: 0.5"/>
     <use xlink:href="#mc6055598ef" x="184.5" y="109.672258" style="fill: #0000ff; fill-opacity: 0.5; stroke: #0000ff; stroke-opacity: 0.5"/>
    </g>
   </g>
   <g id="PolyCollection_1">
    <defs>
     <path id="m6ae3e49bb5" d="M 45 -115.510713 
L 45 -70.904025 
L 47.818182 -71.824718 
L 50.636364 -72.845312 
L 53.454545 -73.908933 
L 56.272727 -74.858315 
L 59.090909 -75.62204 
L 61.909091 -76.614669 
L 64.727273 -77.608786 
L 67.545455 -78.415441 
L 70.363636 -79.357471 
L 73.181818 -80.218722 
L 76 -81.085027 
L 78.818182 -81.991625 
L 81.636364 -82.886329 
L 84.454545 -83.895755 
L 87.272727 -84.949006 
L 90.090909 -85.718475 
L 92.909091 -86.716961 
L 95.727273 -87.494983 
L 98.545455 -88.548964 
L 101.363636 -89.439734 
L 104.181818 -90.147765 
L 107 -91.153851 
L 109.818182 -91.950098 
L 112.636364 -92.641245 
L 115.454545 -93.258216 
L 118.272727 -93.831483 
L 121.090909 -94.486063 
L 123.909091 -95.095305 
L 126.727273 -95.671346 
L 129.545455 -96.321604 
L 132.363636 -97.124724 
L 135.181818 -97.846493 
L 138 -98.246036 
L 140.818182 -98.777345 
L 143.636364 -99.387401 
L 146.454545 -100.014035 
L 149.272727 -100.445647 
L 152.090909 -100.713594 
L 154.909091 -101.306968 
L 157.727273 -101.829208 
L 160.545455 -102.189525 
L 163.363636 -102.594356 
L 166.181818 -103.119365 
L 169 -103.475459 
L 171.818182 -103.789244 
L 174.636364 -104.187405 
L 177.454545 -104.621666 
L 180.272727 -104.899588 
L 183.090909 -104.963127 
L 185.909091 -104.84808 
L 188.727273 -105.213285 
L 191.545455 -105.555219 
L 194.363636 -105.724147 
L 197.181818 -106.009516 
L 200 -106.442922 
L 202.818182 -106.628973 
L 205.636364 -106.964372 
L 208.454545 -107.22946 
L 211.272727 -107.298417 
L 214.090909 -107.226945 
L 216.909091 -107.170953 
L 219.727273 -107.257378 
L 222.545455 -106.993957 
L 225.363636 -107.13386 
L 228.181818 -107.261308 
L 231 -107.498576 
L 233.818182 -107.452169 
L 236.636364 -107.338115 
L 239.454545 -107.44066 
L 242.272727 -107.615778 
L 245.090909 -107.600779 
L 247.909091 -107.545994 
L 250.727273 -107.491209 
L 253.545455 -107.700272 
L 256.363636 -107.911232 
L 259.181818 -108.124939 
L 262 -108.258438 
L 264.818182 -108.273875 
L 267.636364 -108.343466 
L 270.454545 -108.389168 
L 273.272727 -108.337494 
L 276.090909 -108.255283 
L 278.909091 -108.308687 
L 281.727273 -108.313938 
L 284.545455 -108.319188 
L 287.363636 -108.324439 
L 290.181818 -108.330968 
L 293 -108.341892 
L 295.818182 -108.411157 
L 298.636364 -108.59393 
L 301.454545 -108.717559 
L 304.272727 -108.727979 
L 307.090909 -108.669278 
L 309.909091 -108.611119 
L 312.727273 -108.55296 
L 315.545455 -108.557293 
L 318.363636 -108.73895 
L 321.181818 -108.714604 
L 324 -108.637568 
L 324 -187.457498 
L 324 -187.457498 
L 321.181818 -186.502907 
L 318.363636 -185.384075 
L 315.545455 -184.231166 
L 312.727273 -183.07336 
L 309.909091 -181.915554 
L 307.090909 -180.757749 
L 304.272727 -179.599943 
L 301.454545 -178.387255 
L 298.636364 -177.161917 
L 295.818182 -176.133463 
L 293 -174.978633 
L 290.181818 -173.8931 
L 287.363636 -172.68937 
L 284.545455 -171.517683 
L 281.727273 -170.47757 
L 278.909091 -169.467468 
L 276.090909 -168.457367 
L 273.272727 -167.447265 
L 270.454545 -166.437164 
L 267.636364 -165.426946 
L 264.818182 -164.41352 
L 262 -163.400094 
L 259.181818 -162.386669 
L 256.363636 -161.326103 
L 253.545455 -160.190655 
L 250.727273 -159.354562 
L 247.909091 -158.22239 
L 245.090909 -156.918602 
L 242.272727 -155.635028 
L 239.454545 -154.494353 
L 236.636364 -153.438254 
L 233.818182 -152.413816 
L 231 -151.308695 
L 228.181818 -150.363475 
L 225.363636 -149.34708 
L 222.545455 -148.322108 
L 219.727273 -147.293401 
L 216.909091 -146.265511 
L 214.090909 -145.242379 
L 211.272727 -144.219247 
L 208.454545 -143.196115 
L 205.636364 -142.311161 
L 202.818182 -141.320489 
L 200 -140.326466 
L 197.181818 -139.327615 
L 194.363636 -138.318775 
L 191.545455 -137.178523 
L 188.727273 -136.036122 
L 185.909091 -134.955348 
L 183.090909 -133.899206 
L 180.272727 -132.763003 
L 177.454545 -131.9225 
L 174.636364 -130.936615 
L 171.818182 -130.102694 
L 169 -129.373345 
L 166.181818 -128.528841 
L 163.363636 -127.657194 
L 160.545455 -126.803974 
L 157.727273 -125.929874 
L 154.909091 -125.09533 
L 152.090909 -124.260242 
L 149.272727 -123.746867 
L 146.454545 -123.178396 
L 143.636364 -122.483699 
L 140.818182 -121.862507 
L 138 -121.421183 
L 135.181818 -120.988102 
L 132.363636 -120.42555 
L 129.545455 -119.763754 
L 126.727273 -119.38102 
L 123.909091 -118.811772 
L 121.090909 -118.377024 
L 118.272727 -117.8572 
L 115.454545 -117.394876 
L 112.636364 -117.36778 
L 109.818182 -117.034627 
L 107 -116.593097 
L 104.181818 -116.254998 
L 101.363636 -116.028806 
L 98.545455 -116.197805 
L 95.727273 -115.739672 
L 92.909091 -115.655871 
L 90.090909 -115.479569 
L 87.272727 -115.500595 
L 84.454545 -115.555284 
L 81.636364 -115.537713 
L 78.818182 -115.553664 
L 76 -115.413127 
L 73.181818 -115.289007 
L 70.363636 -115.299397 
L 67.545455 -115.199082 
L 64.727273 -115.329957 
L 61.909091 -115.350648 
L 59.090909 -115.37134 
L 56.272727 -115.422422 
L 53.454545 -115.404131 
L 50.636364 -115.419052 
L 47.818182 -115.436526 
L 45 -115.510713 
z
" style="stroke: #ffffff; stroke-opacity: 0.15"/>
    </defs>
    <g clip-path="url(#pc6fd0d16a7)">
     <use xlink:href="#m6ae3e49bb5" x="0" y="288" style="fill: #0000ff; fill-opacity: 0.15; stroke: #ffffff; stroke-opacity: 0.15"/>
    </g>
   </g>
   <g id="PathCollection_2">
    <defs>
     <path id="maebcac4b62" d="M 0 1.322876 
C 0.350831 1.322876 0.68734 1.183489 0.935414 0.935414 
C 1.183489 0.68734 1.322876 0.350831 1.322876 0 
C 1.322876 -0.350831 1.183489 -0.68734 0.935414 -0.935414 
C 0.68734 -1.183489 0.350831 -1.322876 0 -1.322876 
C -0.350831 -1.322876 -0.68734 -1.183489 -0.935414 -0.935414 
C -1.183489 -0.68734 -1.322876 -0.350831 -1.322876 0 
C -1.322876 0.350831 -1.183489 0.68734 -0.935414 0.935414 
C -0.68734 1.183489 -0.350831 1.322876 0 1.322876 
z
" style="stroke: #ff0000; stroke-opacity: 0.5"/>
    </defs>
    <g clip-path="url(#pc6fd0d16a7)">
     <use xlink:href="#maebcac4b62" x="106.38" y="187.710968" style="fill: #ff0000; fill-opacity: 0.5; stroke: #ff0000; stroke-opacity: 0.5"/>
     <use xlink:href="#maebcac4b62" x="318.42" y="216.975484" style="fill: #ff0000; fill-opacity: 0.5; stroke: #ff0000; stroke-opacity: 0.5"/>
     <use xlink:href="#maebcac4b62" x="114.75" y="116.175484" style="fill: #ff0000; fill-opacity: 0.5; stroke: #ff0000; stroke-opacity: 0.5"/>
     <use xlink:href="#maebcac4b62" x="184.5" y="229.981935" style="fill: #ff0000; fill-opacity: 0.5; stroke: #ff0000; stroke-opacity: 0.5"/>
     <use xlink:href="#maebcac4b62" x="229.14" y="161.698065" style="fill: #ff0000; fill-opacity: 0.5; stroke: #ff0000; stroke-opacity: 0.5"/>
     <use xlink:href="#maebcac4b62" x="254.25" y="129.181935" style="fill: #ff0000; fill-opacity: 0.5; stroke: #ff0000; stroke-opacity: 0.5"/>
     <use xlink:href="#maebcac4b62" x="53.37" y="145.44" style="fill: #ff0000; fill-opacity: 0.5; stroke: #ff0000; stroke-opacity: 0.5"/>
     <use xlink:href="#maebcac4b62" x="268.2" y="155.194839" style="fill: #ff0000; fill-opacity: 0.5; stroke: #ff0000; stroke-opacity: 0.5"/>
     <use xlink:href="#maebcac4b62" x="137.07" y="103.169032" style="fill: #ff0000; fill-opacity: 0.5; stroke: #ff0000; stroke-opacity: 0.5"/>
     <use xlink:href="#maebcac4b62" x="248.67" y="132.433548" style="fill: #ff0000; fill-opacity: 0.5; stroke: #ff0000; stroke-opacity: 0.5"/>
     <use xlink:href="#maebcac4b62" x="296.1" y="151.943226" style="fill: #ff0000; fill-opacity: 0.5; stroke: #ff0000; stroke-opacity: 0.5"/>
     <use xlink:href="#maebcac4b62" x="240.3" y="187.710968" style="fill: #ff0000; fill-opacity: 0.5; stroke: #ff0000; stroke-opacity: 0.5"/>
     <use xlink:href="#maebcac4b62" x="184.5" y="158.446452" style="fill: #ff0000; fill-opacity: 0.5; stroke: #ff0000; stroke-opacity: 0.5"/>
     <use xlink:href="#maebcac4b62" x="220.77" y="161.698065" style="fill: #ff0000; fill-opacity: 0.5; stroke: #ff0000; stroke-opacity: 0.5"/>
     <use xlink:href="#maebcac4b62" x="120.33" y="93.414194" style="fill: #ff0000; fill-opacity: 0.5; stroke: #ff0000; stroke-opacity: 0.5"/>
     <use xlink:href="#maebcac4b62" x="173.34" y="44.64" style="fill: #ff0000; fill-opacity: 0.5; stroke: #ff0000; stroke-opacity: 0.5"/>
     <use xlink:href="#maebcac4b62" x="240.3" y="119.427097" style="fill: #ff0000; fill-opacity: 0.5; stroke: #ff0000; stroke-opacity: 0.5"/>
     <use xlink:href="#maebcac4b62" x="156.6" y="161.698065" style="fill: #ff0000; fill-opacity: 0.5; stroke: #ff0000; stroke-opacity: 0.5"/>
     <use xlink:href="#maebcac4b62" x="226.35" y="174.704516" style="fill: #ff0000; fill-opacity: 0.5; stroke: #ff0000; stroke-opacity: 0.5"/>
     <use xlink:href="#maebcac4b62" x="212.4" y="122.67871" style="fill: #ff0000; fill-opacity: 0.5; stroke: #ff0000; stroke-opacity: 0.5"/>
     <use xlink:href="#maebcac4b62" x="268.2" y="122.67871" style="fill: #ff0000; fill-opacity: 0.5; stroke: #ff0000; stroke-opacity: 0.5"/>
     <use xlink:href="#maebcac4b62" x="212.4" y="177.956129" style="fill: #ff0000; fill-opacity: 0.5; stroke: #ff0000; stroke-opacity: 0.5"/>
     <use xlink:href="#maebcac4b62" x="215.19" y="119.427097" style="fill: #ff0000; fill-opacity: 0.5; stroke: #ff0000; stroke-opacity: 0.5"/>
     <use xlink:href="#maebcac4b62" x="184.5" y="190.962581" style="fill: #ff0000; fill-opacity: 0.5; stroke: #ff0000; stroke-opacity: 0.5"/>
     <use xlink:href="#maebcac4b62" x="212.4" y="135.685161" style="fill: #ff0000; fill-opacity: 0.5; stroke: #ff0000; stroke-opacity: 0.5"/>
    </g>
   </g>
   <g id="PolyCollection_2">
    <defs>
     <path id="m25c88472c9" d="M 45 -212.810306 
L 45 -110.976133 
L 47.818182 -111.459739 
L 50.636364 -111.943344 
L 53.454545 -112.42695 
L 56.272727 -112.910555 
L 59.090909 -113.394161 
L 61.909091 -113.843881 
L 64.727273 -114.288779 
L 67.545455 -114.733678 
L 70.363636 -115.178576 
L 73.181818 -115.623475 
L 76 -116.068373 
L 78.818182 -116.513272 
L 81.636364 -116.958171 
L 84.454545 -117.403069 
L 87.272727 -117.847968 
L 90.090909 -118.06939 
L 92.909091 -118.111512 
L 95.727273 -118.153635 
L 98.545455 -118.306621 
L 101.363636 -118.688674 
L 104.181818 -119.077445 
L 107 -119.470435 
L 109.818182 -119.736177 
L 112.636364 -119.939665 
L 115.454545 -120.403154 
L 118.272727 -120.866643 
L 121.090909 -121.330132 
L 123.909091 -121.692314 
L 126.727273 -121.826599 
L 129.545455 -121.960884 
L 132.363636 -122.107338 
L 135.181818 -122.56834 
L 138 -123.075448 
L 140.818182 -123.610548 
L 143.636364 -124.148624 
L 146.454545 -124.388979 
L 149.272727 -124.348917 
L 152.090909 -124.559776 
L 154.909091 -124.797061 
L 157.727273 -124.715862 
L 160.545455 -124.876619 
L 163.363636 -125.23737 
L 166.181818 -125.467442 
L 169 -125.32592 
L 171.818182 -125.356894 
L 174.636364 -125.387869 
L 177.454545 -125.418844 
L 180.272727 -125.454363 
L 183.090909 -125.487335 
L 185.909091 -125.445962 
L 188.727273 -125.549353 
L 191.545455 -125.576294 
L 194.363636 -125.266488 
L 197.181818 -125.269913 
L 200 -125.091075 
L 202.818182 -124.923802 
L 205.636364 -124.82339 
L 208.454545 -124.696628 
L 211.272727 -124.351886 
L 214.090909 -124.054251 
L 216.909091 -123.638807 
L 219.727273 -123.282267 
L 222.545455 -123.007403 
L 225.363636 -122.704948 
L 228.181818 -122.130841 
L 231 -121.493622 
L 233.818182 -120.69196 
L 236.636364 -120.045777 
L 239.454545 -119.539952 
L 242.272727 -119.032891 
L 245.090909 -118.148083 
L 247.909091 -117.498493 
L 250.727273 -116.789813 
L 253.545455 -116.013034 
L 256.363636 -115.339214 
L 259.181818 -114.700263 
L 262 -113.658506 
L 264.818182 -112.835169 
L 267.636364 -112.099827 
L 270.454545 -111.382698 
L 273.272727 -110.571135 
L 276.090909 -109.438377 
L 278.909091 -108.351026 
L 281.727273 -107.259637 
L 284.545455 -106.281974 
L 287.363636 -105.363017 
L 290.181818 -104.478432 
L 293 -103.47155 
L 295.818182 -102.507397 
L 298.636364 -101.39631 
L 301.454545 -100.383059 
L 304.272727 -99.182324 
L 307.090909 -98.069235 
L 309.909091 -96.956146 
L 312.727273 -95.848409 
L 315.545455 -94.744357 
L 318.363636 -93.802948 
L 321.181818 -92.84866 
L 324 -91.840413 
L 324 -156.073415 
L 324 -156.073415 
L 321.181818 -155.57722 
L 318.363636 -155.082551 
L 315.545455 -154.731765 
L 312.727273 -154.603366 
L 309.909091 -154.250425 
L 307.090909 -153.889108 
L 304.272727 -153.522427 
L 301.454545 -152.987934 
L 298.636364 -152.422523 
L 295.818182 -151.99555 
L 293 -152.007533 
L 290.181818 -151.722724 
L 287.363636 -151.683972 
L 284.545455 -151.210254 
L 281.727273 -150.986111 
L 278.909091 -150.964105 
L 276.090909 -150.70113 
L 273.272727 -150.54614 
L 270.454545 -150.054478 
L 267.636364 -150.010885 
L 264.818182 -150.01479 
L 262 -149.520365 
L 259.181818 -149.364285 
L 256.363636 -149.679587 
L 253.545455 -149.710554 
L 250.727273 -149.354156 
L 247.909091 -149.644534 
L 245.090909 -149.692937 
L 242.272727 -149.986051 
L 239.454545 -150.285128 
L 236.636364 -150.637212 
L 233.818182 -150.782339 
L 231 -151.304197 
L 228.181818 -151.930627 
L 225.363636 -152.357065 
L 222.545455 -152.800783 
L 219.727273 -152.908607 
L 216.909091 -153.191912 
L 214.090909 -153.472646 
L 211.272727 -154.068788 
L 208.454545 -154.530078 
L 205.636364 -154.945505 
L 202.818182 -155.318496 
L 200 -156.042929 
L 197.181818 -156.762719 
L 194.363636 -157.35625 
L 191.545455 -158.373924 
L 188.727273 -158.934878 
L 185.909091 -159.666268 
L 183.090909 -160.539514 
L 180.272727 -161.623736 
L 177.454545 -162.409156 
L 174.636364 -163.375615 
L 171.818182 -164.283868 
L 169 -165.016351 
L 166.181818 -166.134539 
L 163.363636 -167.100122 
L 160.545455 -168.038229 
L 157.727273 -168.980242 
L 154.909091 -169.876562 
L 152.090909 -170.853074 
L 149.272727 -171.721538 
L 146.454545 -172.733215 
L 143.636364 -173.670449 
L 140.818182 -174.7911 
L 138 -175.623926 
L 135.181818 -176.870616 
L 132.363636 -178.109505 
L 129.545455 -179.219426 
L 126.727273 -180.609434 
L 123.909091 -182.002707 
L 121.090909 -183.244476 
L 118.272727 -184.459408 
L 115.454545 -185.559287 
L 112.636364 -186.613315 
L 109.818182 -187.597137 
L 107 -188.79292 
L 104.181818 -189.971893 
L 101.363636 -191.094999 
L 98.545455 -192.218105 
L 95.727273 -193.341211 
L 92.909091 -194.464317 
L 90.090909 -195.650026 
L 87.272727 -196.749273 
L 84.454545 -197.824413 
L 81.636364 -198.941044 
L 78.818182 -199.808403 
L 76 -201.0402 
L 73.181818 -202.179006 
L 70.363636 -203.224146 
L 67.545455 -204.269062 
L 64.727273 -205.313977 
L 61.909091 -206.358893 
L 59.090909 -207.490495 
L 56.272727 -208.757607 
L 53.454545 -210.024719 
L 50.636364 -211.126882 
L 47.818182 -211.968594 
L 45 -212.810306 
z
" style="stroke: #ffffff; stroke-opacity: 0.15"/>
    </defs>
    <g clip-path="url(#pc6fd0d16a7)">
     <use xlink:href="#m25c88472c9" x="0" y="288" style="fill: #ff0000; fill-opacity: 0.15; stroke: #ffffff; stroke-opacity: 0.15"/>
    </g>
   </g>
   <g id="line2d_14">
    <path d="M 45 194.403281 
L 47.818182 193.911019 
L 50.636364 193.418757 
L 53.454545 192.926495 
L 56.272727 192.434233 
L 59.090909 191.941971 
L 61.909091 191.449709 
L 64.727273 190.957447 
L 67.545455 190.465185 
L 70.363636 189.972923 
L 73.181818 189.480661 
L 76 188.988399 
L 78.818182 188.496137 
L 81.636364 188.003875 
L 84.454545 187.511613 
L 87.272727 187.019351 
L 90.090909 186.527089 
L 92.909091 186.034827 
L 95.727273 185.542566 
L 98.545455 185.050304 
L 101.363636 184.558042 
L 104.181818 184.06578 
L 107 183.573518 
L 109.818182 183.081256 
L 112.636364 182.588994 
L 115.454545 182.096732 
L 118.272727 181.60447 
L 121.090909 181.112208 
L 123.909091 180.619946 
L 126.727273 180.127684 
L 129.545455 179.635422 
L 132.363636 179.14316 
L 135.181818 178.650898 
L 138 178.158636 
L 140.818182 177.666374 
L 143.636364 177.174112 
L 146.454545 176.68185 
L 149.272727 176.189588 
L 152.090909 175.697326 
L 154.909091 175.205065 
L 157.727273 174.712803 
L 160.545455 174.220541 
L 163.363636 173.728279 
L 166.181818 173.236017 
L 169 172.743755 
L 171.818182 172.251493 
L 174.636364 171.759231 
L 177.454545 171.266969 
L 180.272727 170.774707 
L 183.090909 170.282445 
L 185.909091 169.790183 
L 188.727273 169.297921 
L 191.545455 168.805659 
L 194.363636 168.313397 
L 197.181818 167.821135 
L 200 167.328873 
L 202.818182 166.836611 
L 205.636364 166.344349 
L 208.454545 165.852087 
L 211.272727 165.359825 
L 214.090909 164.867564 
L 216.909091 164.375302 
L 219.727273 163.88304 
L 222.545455 163.390778 
L 225.363636 162.898516 
L 228.181818 162.406254 
L 231 161.913992 
L 233.818182 161.42173 
L 236.636364 160.929468 
L 239.454545 160.437206 
L 242.272727 159.944944 
L 245.090909 159.452682 
L 247.909091 158.96042 
L 250.727273 158.468158 
L 253.545455 157.975896 
L 256.363636 157.483634 
L 259.181818 156.991372 
L 262 156.49911 
L 264.818182 156.006848 
L 267.636364 155.514586 
L 270.454545 155.022324 
L 273.272727 154.530063 
L 276.090909 154.037801 
L 278.909091 153.545539 
L 281.727273 153.053277 
L 284.545455 152.561015 
L 287.363636 152.068753 
L 290.181818 151.576491 
L 293 151.084229 
L 295.818182 150.591967 
L 298.636364 150.099705 
L 301.454545 149.607443 
L 304.272727 149.115181 
L 307.090909 148.622919 
L 309.909091 148.130657 
L 312.727273 147.638395 
L 315.545455 147.146133 
L 318.363636 146.653871 
L 321.181818 146.161609 
L 324 145.669347 
" clip-path="url(#pc6fd0d16a7)" style="fill: none; stroke: #0000ff; stroke-width: 2.25; stroke-linecap: round"/>
   </g>
   <g id="line2d_15">
    <path d="M 45 127.611038 
L 47.818182 127.986753 
L 50.636364 128.362468 
L 53.454545 128.738183 
L 56.272727 129.113898 
L 59.090909 129.489613 
L 61.909091 129.865328 
L 64.727273 130.241043 
L 67.545455 130.616759 
L 70.363636 130.992474 
L 73.181818 131.368189 
L 76 131.743904 
L 78.818182 132.119619 
L 81.636364 132.495334 
L 84.454545 132.871049 
L 87.272727 133.246764 
L 90.090909 133.622479 
L 92.909091 133.998194 
L 95.727273 134.37391 
L 98.545455 134.749625 
L 101.363636 135.12534 
L 104.181818 135.501055 
L 107 135.87677 
L 109.818182 136.252485 
L 112.636364 136.6282 
L 115.454545 137.003915 
L 118.272727 137.37963 
L 121.090909 137.755346 
L 123.909091 138.131061 
L 126.727273 138.506776 
L 129.545455 138.882491 
L 132.363636 139.258206 
L 135.181818 139.633921 
L 138 140.009636 
L 140.818182 140.385351 
L 143.636364 140.761066 
L 146.454545 141.136781 
L 149.272727 141.512497 
L 152.090909 141.888212 
L 154.909091 142.263927 
L 157.727273 142.639642 
L 160.545455 143.015357 
L 163.363636 143.391072 
L 166.181818 143.766787 
L 169 144.142502 
L 171.818182 144.518217 
L 174.636364 144.893932 
L 177.454545 145.269648 
L 180.272727 145.645363 
L 183.090909 146.021078 
L 185.909091 146.396793 
L 188.727273 146.772508 
L 191.545455 147.148223 
L 194.363636 147.523938 
L 197.181818 147.899653 
L 200 148.275368 
L 202.818182 148.651084 
L 205.636364 149.026799 
L 208.454545 149.402514 
L 211.272727 149.778229 
L 214.090909 150.153944 
L 216.909091 150.529659 
L 219.727273 150.905374 
L 222.545455 151.281089 
L 225.363636 151.656804 
L 228.181818 152.032519 
L 231 152.408235 
L 233.818182 152.78395 
L 236.636364 153.159665 
L 239.454545 153.53538 
L 242.272727 153.911095 
L 245.090909 154.28681 
L 247.909091 154.662525 
L 250.727273 155.03824 
L 253.545455 155.413955 
L 256.363636 155.78967 
L 259.181818 156.165386 
L 262 156.541101 
L 264.818182 156.916816 
L 267.636364 157.292531 
L 270.454545 157.668246 
L 273.272727 158.043961 
L 276.090909 158.419676 
L 278.909091 158.795391 
L 281.727273 159.171106 
L 284.545455 159.546822 
L 287.363636 159.922537 
L 290.181818 160.298252 
L 293 160.673967 
L 295.818182 161.049682 
L 298.636364 161.425397 
L 301.454545 161.801112 
L 304.272727 162.176827 
L 307.090909 162.552542 
L 309.909091 162.928257 
L 312.727273 163.303973 
L 315.545455 163.679688 
L 318.363636 164.055403 
L 321.181818 164.431118 
L 324 164.806833 
" clip-path="url(#pc6fd0d16a7)" style="fill: none; stroke: #ff0000; stroke-width: 2.25; stroke-linecap: round"/>
   </g>
   <g id="patch_3">
    <path d="M 45 256.32 
L 45 34.56 
" style="fill: none; stroke: #ffffff; stroke-width: 0.8; stroke-linejoin: miter; stroke-linecap: square"/>
   </g>
   <g id="patch_4">
    <path d="M 324 256.32 
L 324 34.56 
" style="fill: none; stroke: #ffffff; stroke-width: 0.8; stroke-linejoin: miter; stroke-linecap: square"/>
   </g>
   <g id="patch_5">
    <path d="M 45 256.32 
L 324 256.32 
" style="fill: none; stroke: #ffffff; stroke-width: 0.8; stroke-linejoin: miter; stroke-linecap: square"/>
   </g>
   <g id="patch_6">
    <path d="M 45 34.56 
L 324 34.56 
" style="fill: none; stroke: #ffffff; stroke-width: 0.8; stroke-linejoin: miter; stroke-linecap: square"/>
   </g>
   <g id="text_14">
    <!-- WEMWBS -->
    <g style="fill: #262626" transform="translate(141.506719 28.56)scale(0.18 -0.18)">
     <defs>
      <path id="Arial-BoldMT-57" d="M 1116 0 
L 22 4581 
L 969 4581 
L 1659 1434 
L 2497 4581 
L 3597 4581 
L 4400 1381 
L 5103 4581 
L 6034 4581 
L 4922 0 
L 3941 0 
L 3028 3425 
L 2119 0 
L 1116 0 
z
" transform="scale(0.015625)"/>
      <path id="Arial-BoldMT-45" d="M 466 0 
L 466 4581 
L 3863 4581 
L 3863 3806 
L 1391 3806 
L 1391 2791 
L 3691 2791 
L 3691 2019 
L 1391 2019 
L 1391 772 
L 3950 772 
L 3950 0 
L 466 0 
z
" transform="scale(0.015625)"/>
      <path id="Arial-BoldMT-4d" d="M 453 0 
L 453 4581 
L 1838 4581 
L 2669 1456 
L 3491 4581 
L 4878 4581 
L 4878 0 
L 4019 0 
L 4019 3606 
L 3109 0 
L 2219 0 
L 1313 3606 
L 1313 0 
L 453 0 
z
" transform="scale(0.015625)"/>
      <path id="Arial-BoldMT-42" d="M 469 4581 
L 2300 4581 
Q 2844 4581 3111 4536 
Q 3378 4491 3589 4347 
Q 3800 4203 3940 3964 
Q 4081 3725 4081 3428 
Q 4081 3106 3907 2837 
Q 3734 2569 3438 2434 
Q 3856 2313 4081 2019 
Q 4306 1725 4306 1328 
Q 4306 1016 4161 720 
Q 4016 425 3764 248 
Q 3513 72 3144 31 
Q 2913 6 2028 0 
L 469 0 
L 469 4581 
z
M 1394 3819 
L 1394 2759 
L 2000 2759 
Q 2541 2759 2672 2775 
Q 2909 2803 3045 2939 
Q 3181 3075 3181 3297 
Q 3181 3509 3064 3642 
Q 2947 3775 2716 3803 
Q 2578 3819 1925 3819 
L 1394 3819 
z
M 1394 1997 
L 1394 772 
L 2250 772 
Q 2750 772 2884 800 
Q 3091 838 3220 983 
Q 3350 1128 3350 1372 
Q 3350 1578 3250 1722 
Q 3150 1866 2961 1931 
Q 2772 1997 2141 1997 
L 1394 1997 
z
" transform="scale(0.015625)"/>
      <path id="Arial-BoldMT-53" d="M 231 1491 
L 1131 1578 
Q 1213 1125 1461 912 
Q 1709 700 2131 700 
Q 2578 700 2804 889 
Q 3031 1078 3031 1331 
Q 3031 1494 2936 1608 
Q 2841 1722 2603 1806 
Q 2441 1863 1863 2006 
Q 1119 2191 819 2459 
Q 397 2838 397 3381 
Q 397 3731 595 4036 
Q 794 4341 1167 4500 
Q 1541 4659 2069 4659 
Q 2931 4659 3367 4281 
Q 3803 3903 3825 3272 
L 2900 3231 
Q 2841 3584 2645 3739 
Q 2450 3894 2059 3894 
Q 1656 3894 1428 3728 
Q 1281 3622 1281 3444 
Q 1281 3281 1419 3166 
Q 1594 3019 2269 2859 
Q 2944 2700 3267 2529 
Q 3591 2359 3773 2064 
Q 3956 1769 3956 1334 
Q 3956 941 3737 597 
Q 3519 253 3119 86 
Q 2719 -81 2122 -81 
Q 1253 -81 787 320 
Q 322 722 231 1491 
z
" transform="scale(0.015625)"/>
     </defs>
     <use xlink:href="#Arial-BoldMT-57"/>
     <use xlink:href="#Arial-BoldMT-45" x="94.384766"/>
     <use xlink:href="#Arial-BoldMT-4d" x="161.083984"/>
     <use xlink:href="#Arial-BoldMT-57" x="244.384766"/>
     <use xlink:href="#Arial-BoldMT-42" x="338.769531"/>
     <use xlink:href="#Arial-BoldMT-53" x="410.986328"/>
    </g>
   </g>
  </g>
 </g>
 <defs>
  <clipPath id="pc6fd0d16a7">
   <rect x="45" y="34.56" width="279" height="221.76"/>
  </clipPath>
 </defs>
</svg>
