<?xml version="1.0" encoding="utf-8" standalone="no"?>
<!DOCTYPE svg PUBLIC "-//W3C//DTD SVG 1.1//EN"
  "http://www.w3.org/Graphics/SVG/1.1/DTD/svg11.dtd">
<svg xmlns:xlink="http://www.w3.org/1999/xlink" width="360pt" height="288pt" viewBox="0 0 360 288" xmlns="http://www.w3.org/2000/svg" version="1.1">
 <metadata>
  <rdf:RDF xmlns:dc="http://purl.org/dc/elements/1.1/" xmlns:cc="http://creativecommons.org/ns#" xmlns:rdf="http://www.w3.org/1999/02/22-rdf-syntax-ns#">
   <cc:Work>
    <dc:type rdf:resource="http://purl.org/dc/dcmitype/StillImage"/>
    <dc:date>2022-11-10T09:39:33.926697</dc:date>
    <dc:format>image/svg+xml</dc:format>
    <dc:creator>
     <cc:Agent>
      <dc:title>Matplotlib v3.5.2, https://matplotlib.org/</dc:title>
     </cc:Agent>
    </dc:creator>
   </cc:Work>
  </rdf:RDF>
 </metadata>
 <defs>
  <style type="text/css">*{stroke-linejoin: round; stroke-linecap: butt}</style>
 </defs>
 <g id="figure_1">
  <g id="patch_1">
   <path d="M 0 288 
L 360 288 
L 360 0 
L 0 0 
z
" style="fill: #ffffff"/>
  </g>
  <g id="axes_1">
   <g id="patch_2">
    <path d="M 45 256.32 
L 324 256.32 
L 324 34.56 
L 45 34.56 
z
" style="fill: #eaeaf2"/>
   </g>
   <g id="matplotlib.axis_1">
    <g id="xtick_1">
     <g id="line2d_1">
      <path d="M 45 256.32 
L 45 34.56 
" clip-path="url(#p1823dae0cc)" style="fill: none; stroke: #ffffff; stroke-width: 0.8; stroke-linecap: round"/>
     </g>
     <g id="text_1">
      <!-- 0 -->
      <g style="fill: #262626" transform="translate(41.107344 273.340937)scale(0.14 -0.14)">
       <defs>
        <path id="ArialMT-30" d="M 266 2259 
Q 266 3072 433 3567 
Q 600 4063 929 4331 
Q 1259 4600 1759 4600 
Q 2128 4600 2406 4451 
Q 2684 4303 2865 4023 
Q 3047 3744 3150 3342 
Q 3253 2941 3253 2259 
Q 3253 1453 3087 958 
Q 2922 463 2592 192 
Q 2263 -78 1759 -78 
Q 1097 -78 719 397 
Q 266 969 266 2259 
z
M 844 2259 
Q 844 1131 1108 757 
Q 1372 384 1759 384 
Q 2147 384 2411 759 
Q 2675 1134 2675 2259 
Q 2675 3391 2411 3762 
Q 2147 4134 1753 4134 
Q 1366 4134 1134 3806 
Q 844 3388 844 2259 
z
" transform="scale(0.015625)"/>
       </defs>
       <use xlink:href="#ArialMT-30"/>
      </g>
     </g>
    </g>
    <g id="xtick_2">
     <g id="line2d_2">
      <path d="M 100.8 256.32 
L 100.8 34.56 
" clip-path="url(#p1823dae0cc)" style="fill: none; stroke: #ffffff; stroke-width: 0.8; stroke-linecap: round"/>
     </g>
     <g id="text_2">
      <!-- 20 -->
      <g style="fill: #262626" transform="translate(93.014687 273.340937)scale(0.14 -0.14)">
       <defs>
        <path id="ArialMT-32" d="M 3222 541 
L 3222 0 
L 194 0 
Q 188 203 259 391 
Q 375 700 629 1000 
Q 884 1300 1366 1694 
Q 2113 2306 2375 2664 
Q 2638 3022 2638 3341 
Q 2638 3675 2398 3904 
Q 2159 4134 1775 4134 
Q 1369 4134 1125 3890 
Q 881 3647 878 3216 
L 300 3275 
Q 359 3922 746 4261 
Q 1134 4600 1788 4600 
Q 2447 4600 2831 4234 
Q 3216 3869 3216 3328 
Q 3216 3053 3103 2787 
Q 2991 2522 2730 2228 
Q 2469 1934 1863 1422 
Q 1356 997 1212 845 
Q 1069 694 975 541 
L 3222 541 
z
" transform="scale(0.015625)"/>
       </defs>
       <use xlink:href="#ArialMT-32"/>
       <use xlink:href="#ArialMT-30" x="55.615234"/>
      </g>
     </g>
    </g>
    <g id="xtick_3">
     <g id="line2d_3">
      <path d="M 156.6 256.32 
L 156.6 34.56 
" clip-path="url(#p1823dae0cc)" style="fill: none; stroke: #ffffff; stroke-width: 0.8; stroke-linecap: round"/>
     </g>
     <g id="text_3">
      <!-- 40 -->
      <g style="fill: #262626" transform="translate(148.814687 273.340937)scale(0.14 -0.14)">
       <defs>
        <path id="ArialMT-34" d="M 2069 0 
L 2069 1097 
L 81 1097 
L 81 1613 
L 2172 4581 
L 2631 4581 
L 2631 1613 
L 3250 1613 
L 3250 1097 
L 2631 1097 
L 2631 0 
L 2069 0 
z
M 2069 1613 
L 2069 3678 
L 634 1613 
L 2069 1613 
z
" transform="scale(0.015625)"/>
       </defs>
       <use xlink:href="#ArialMT-34"/>
       <use xlink:href="#ArialMT-30" x="55.615234"/>
      </g>
     </g>
    </g>
    <g id="xtick_4">
     <g id="line2d_4">
      <path d="M 212.4 256.32 
L 212.4 34.56 
" clip-path="url(#p1823dae0cc)" style="fill: none; stroke: #ffffff; stroke-width: 0.8; stroke-linecap: round"/>
     </g>
     <g id="text_4">
      <!-- 60 -->
      <g style="fill: #262626" transform="translate(204.614688 273.340937)scale(0.14 -0.14)">
       <defs>
        <path id="ArialMT-36" d="M 3184 3459 
L 2625 3416 
Q 2550 3747 2413 3897 
Q 2184 4138 1850 4138 
Q 1581 4138 1378 3988 
Q 1113 3794 959 3422 
Q 806 3050 800 2363 
Q 1003 2672 1297 2822 
Q 1591 2972 1913 2972 
Q 2475 2972 2870 2558 
Q 3266 2144 3266 1488 
Q 3266 1056 3080 686 
Q 2894 316 2569 119 
Q 2244 -78 1831 -78 
Q 1128 -78 684 439 
Q 241 956 241 2144 
Q 241 3472 731 4075 
Q 1159 4600 1884 4600 
Q 2425 4600 2770 4297 
Q 3116 3994 3184 3459 
z
M 888 1484 
Q 888 1194 1011 928 
Q 1134 663 1356 523 
Q 1578 384 1822 384 
Q 2178 384 2434 671 
Q 2691 959 2691 1453 
Q 2691 1928 2437 2201 
Q 2184 2475 1800 2475 
Q 1419 2475 1153 2201 
Q 888 1928 888 1484 
z
" transform="scale(0.015625)"/>
       </defs>
       <use xlink:href="#ArialMT-36"/>
       <use xlink:href="#ArialMT-30" x="55.615234"/>
      </g>
     </g>
    </g>
    <g id="xtick_5">
     <g id="line2d_5">
      <path d="M 268.2 256.32 
L 268.2 34.56 
" clip-path="url(#p1823dae0cc)" style="fill: none; stroke: #ffffff; stroke-width: 0.8; stroke-linecap: round"/>
     </g>
     <g id="text_5">
      <!-- 80 -->
      <g style="fill: #262626" transform="translate(260.414688 273.340937)scale(0.14 -0.14)">
       <defs>
        <path id="ArialMT-38" d="M 1131 2484 
Q 781 2613 612 2850 
Q 444 3088 444 3419 
Q 444 3919 803 4259 
Q 1163 4600 1759 4600 
Q 2359 4600 2725 4251 
Q 3091 3903 3091 3403 
Q 3091 3084 2923 2848 
Q 2756 2613 2416 2484 
Q 2838 2347 3058 2040 
Q 3278 1734 3278 1309 
Q 3278 722 2862 322 
Q 2447 -78 1769 -78 
Q 1091 -78 675 323 
Q 259 725 259 1325 
Q 259 1772 486 2073 
Q 713 2375 1131 2484 
z
M 1019 3438 
Q 1019 3113 1228 2906 
Q 1438 2700 1772 2700 
Q 2097 2700 2305 2904 
Q 2513 3109 2513 3406 
Q 2513 3716 2298 3927 
Q 2084 4138 1766 4138 
Q 1444 4138 1231 3931 
Q 1019 3725 1019 3438 
z
M 838 1322 
Q 838 1081 952 856 
Q 1066 631 1291 507 
Q 1516 384 1775 384 
Q 2178 384 2440 643 
Q 2703 903 2703 1303 
Q 2703 1709 2433 1975 
Q 2163 2241 1756 2241 
Q 1359 2241 1098 1978 
Q 838 1716 838 1322 
z
" transform="scale(0.015625)"/>
       </defs>
       <use xlink:href="#ArialMT-38"/>
       <use xlink:href="#ArialMT-30" x="55.615234"/>
      </g>
     </g>
    </g>
    <g id="xtick_6">
     <g id="line2d_6">
      <path d="M 324 256.32 
L 324 34.56 
" clip-path="url(#p1823dae0cc)" style="fill: none; stroke: #ffffff; stroke-width: 0.8; stroke-linecap: round"/>
     </g>
     <g id="text_6">
      <!-- 100 -->
      <g style="fill: #262626" transform="translate(312.322031 273.340937)scale(0.14 -0.14)">
       <defs>
        <path id="ArialMT-31" d="M 2384 0 
L 1822 0 
L 1822 3584 
Q 1619 3391 1289 3197 
Q 959 3003 697 2906 
L 697 3450 
Q 1169 3672 1522 3987 
Q 1875 4303 2022 4600 
L 2384 4600 
L 2384 0 
z
" transform="scale(0.015625)"/>
       </defs>
       <use xlink:href="#ArialMT-31"/>
       <use xlink:href="#ArialMT-30" x="55.615234"/>
       <use xlink:href="#ArialMT-30" x="111.230469"/>
      </g>
     </g>
    </g>
   </g>
   <g id="matplotlib.axis_2">
    <g id="ytick_1">
     <g id="line2d_7">
      <path d="M 45 231.306667 
L 324 231.306667 
" clip-path="url(#p1823dae0cc)" style="fill: none; stroke: #ffffff; stroke-width: 0.8; stroke-linecap: round"/>
     </g>
     <g id="text_7">
      <!-- −40 -->
      <g style="fill: #262626" transform="translate(14.2525 236.317135)scale(0.14 -0.14)">
       <defs>
        <path id="ArialMT-2212" d="M 3381 1997 
L 356 1997 
L 356 2522 
L 3381 2522 
L 3381 1997 
z
" transform="scale(0.015625)"/>
       </defs>
       <use xlink:href="#ArialMT-2212"/>
       <use xlink:href="#ArialMT-34" x="58.398438"/>
       <use xlink:href="#ArialMT-30" x="114.013672"/>
      </g>
     </g>
    </g>
    <g id="ytick_2">
     <g id="line2d_8">
      <path d="M 45 193.973333 
L 324 193.973333 
" clip-path="url(#p1823dae0cc)" style="fill: none; stroke: #ffffff; stroke-width: 0.8; stroke-linecap: round"/>
     </g>
     <g id="text_8">
      <!-- −30 -->
      <g style="fill: #262626" transform="translate(14.2525 198.983802)scale(0.14 -0.14)">
       <defs>
        <path id="ArialMT-33" d="M 269 1209 
L 831 1284 
Q 928 806 1161 595 
Q 1394 384 1728 384 
Q 2125 384 2398 659 
Q 2672 934 2672 1341 
Q 2672 1728 2419 1979 
Q 2166 2231 1775 2231 
Q 1616 2231 1378 2169 
L 1441 2663 
Q 1497 2656 1531 2656 
Q 1891 2656 2178 2843 
Q 2466 3031 2466 3422 
Q 2466 3731 2256 3934 
Q 2047 4138 1716 4138 
Q 1388 4138 1169 3931 
Q 950 3725 888 3313 
L 325 3413 
Q 428 3978 793 4289 
Q 1159 4600 1703 4600 
Q 2078 4600 2393 4439 
Q 2709 4278 2876 4000 
Q 3044 3722 3044 3409 
Q 3044 3113 2884 2869 
Q 2725 2625 2413 2481 
Q 2819 2388 3044 2092 
Q 3269 1797 3269 1353 
Q 3269 753 2831 336 
Q 2394 -81 1725 -81 
Q 1122 -81 723 278 
Q 325 638 269 1209 
z
" transform="scale(0.015625)"/>
       </defs>
       <use xlink:href="#ArialMT-2212"/>
       <use xlink:href="#ArialMT-33" x="58.398438"/>
       <use xlink:href="#ArialMT-30" x="114.013672"/>
      </g>
     </g>
    </g>
    <g id="ytick_3">
     <g id="line2d_9">
      <path d="M 45 156.64 
L 324 156.64 
" clip-path="url(#p1823dae0cc)" style="fill: none; stroke: #ffffff; stroke-width: 0.8; stroke-linecap: round"/>
     </g>
     <g id="text_9">
      <!-- −20 -->
      <g style="fill: #262626" transform="translate(14.2525 161.650469)scale(0.14 -0.14)">
       <use xlink:href="#ArialMT-2212"/>
       <use xlink:href="#ArialMT-32" x="58.398438"/>
       <use xlink:href="#ArialMT-30" x="114.013672"/>
      </g>
     </g>
    </g>
    <g id="ytick_4">
     <g id="line2d_10">
      <path d="M 45 119.306667 
L 324 119.306667 
" clip-path="url(#p1823dae0cc)" style="fill: none; stroke: #ffffff; stroke-width: 0.8; stroke-linecap: round"/>
     </g>
     <g id="text_10">
      <!-- −10 -->
      <g style="fill: #262626" transform="translate(14.2525 124.317135)scale(0.14 -0.14)">
       <use xlink:href="#ArialMT-2212"/>
       <use xlink:href="#ArialMT-31" x="58.398438"/>
       <use xlink:href="#ArialMT-30" x="114.013672"/>
      </g>
     </g>
    </g>
    <g id="ytick_5">
     <g id="line2d_11">
      <path d="M 45 81.973333 
L 324 81.973333 
" clip-path="url(#p1823dae0cc)" style="fill: none; stroke: #ffffff; stroke-width: 0.8; stroke-linecap: round"/>
     </g>
     <g id="text_11">
      <!-- 0 -->
      <g style="fill: #262626" transform="translate(30.214688 86.983802)scale(0.14 -0.14)">
       <use xlink:href="#ArialMT-30"/>
      </g>
     </g>
    </g>
    <g id="ytick_6">
     <g id="line2d_12">
      <path d="M 45 44.64 
L 324 44.64 
" clip-path="url(#p1823dae0cc)" style="fill: none; stroke: #ffffff; stroke-width: 0.8; stroke-linecap: round"/>
     </g>
     <g id="text_12">
      <!-- 10 -->
      <g style="fill: #262626" transform="translate(22.429375 49.650469)scale(0.14 -0.14)">
       <use xlink:href="#ArialMT-31"/>
       <use xlink:href="#ArialMT-30" x="55.615234"/>
      </g>
     </g>
    </g>
   </g>
   <g id="PathCollection_1">
    <defs>
     <path id="m00bf02d839" d="M 0 1.322876 
C 0.350831 1.322876 0.68734 1.183489 0.935414 0.935414 
C 1.183489 0.68734 1.322876 0.350831 1.322876 0 
C 1.322876 -0.350831 1.183489 -0.68734 0.935414 -0.935414 
C 0.68734 -1.183489 0.350831 -1.322876 0 -1.322876 
C -0.350831 -1.322876 -0.68734 -1.183489 -0.935414 -0.935414 
C -1.183489 -0.68734 -1.322876 -0.350831 -1.322876 0 
C -1.322876 0.350831 -1.183489 0.68734 -0.935414 0.935414 
C -0.68734 1.183489 -0.350831 1.322876 0 1.322876 
z
" style="stroke: #0000ff; stroke-opacity: 0.5"/>
    </defs>
    <g clip-path="url(#p1823dae0cc)">
     <use xlink:href="#m00bf02d839" x="72.9" y="96.906667" style="fill: #0000ff; fill-opacity: 0.5; stroke: #0000ff; stroke-opacity: 0.5"/>
     <use xlink:href="#m00bf02d839" x="187.29" y="81.973333" style="fill: #0000ff; fill-opacity: 0.5; stroke: #0000ff; stroke-opacity: 0.5"/>
     <use xlink:href="#m00bf02d839" x="128.7" y="156.64" style="fill: #0000ff; fill-opacity: 0.5; stroke: #0000ff; stroke-opacity: 0.5"/>
     <use xlink:href="#m00bf02d839" x="201.24" y="111.84" style="fill: #0000ff; fill-opacity: 0.5; stroke: #0000ff; stroke-opacity: 0.5"/>
     <use xlink:href="#m00bf02d839" x="137.07" y="104.373333" style="fill: #0000ff; fill-opacity: 0.5; stroke: #0000ff; stroke-opacity: 0.5"/>
     <use xlink:href="#m00bf02d839" x="156.6" y="119.306667" style="fill: #0000ff; fill-opacity: 0.5; stroke: #0000ff; stroke-opacity: 0.5"/>
     <use xlink:href="#m00bf02d839" x="142.65" y="85.706667" style="fill: #0000ff; fill-opacity: 0.5; stroke: #0000ff; stroke-opacity: 0.5"/>
     <use xlink:href="#m00bf02d839" x="128.7" y="123.04" style="fill: #0000ff; fill-opacity: 0.5; stroke: #0000ff; stroke-opacity: 0.5"/>
     <use xlink:href="#m00bf02d839" x="53.37" y="44.64" style="fill: #0000ff; fill-opacity: 0.5; stroke: #0000ff; stroke-opacity: 0.5"/>
     <use xlink:href="#m00bf02d839" x="184.5" y="134.24" style="fill: #0000ff; fill-opacity: 0.5; stroke: #0000ff; stroke-opacity: 0.5"/>
     <use xlink:href="#m00bf02d839" x="254.25" y="111.84" style="fill: #0000ff; fill-opacity: 0.5; stroke: #0000ff; stroke-opacity: 0.5"/>
     <use xlink:href="#m00bf02d839" x="58.95" y="81.973333" style="fill: #0000ff; fill-opacity: 0.5; stroke: #0000ff; stroke-opacity: 0.5"/>
     <use xlink:href="#m00bf02d839" x="184.5" y="134.24" style="fill: #0000ff; fill-opacity: 0.5; stroke: #0000ff; stroke-opacity: 0.5"/>
     <use xlink:href="#m00bf02d839" x="58.95" y="89.44" style="fill: #0000ff; fill-opacity: 0.5; stroke: #0000ff; stroke-opacity: 0.5"/>
     <use xlink:href="#m00bf02d839" x="45" y="93.173333" style="fill: #0000ff; fill-opacity: 0.5; stroke: #0000ff; stroke-opacity: 0.5"/>
     <use xlink:href="#m00bf02d839" x="100.8" y="119.306667" style="fill: #0000ff; fill-opacity: 0.5; stroke: #0000ff; stroke-opacity: 0.5"/>
     <use xlink:href="#m00bf02d839" x="72.9" y="81.973333" style="fill: #0000ff; fill-opacity: 0.5; stroke: #0000ff; stroke-opacity: 0.5"/>
     <use xlink:href="#m00bf02d839" x="72.9" y="93.173333" style="fill: #0000ff; fill-opacity: 0.5; stroke: #0000ff; stroke-opacity: 0.5"/>
     <use xlink:href="#m00bf02d839" x="100.8" y="156.64" style="fill: #0000ff; fill-opacity: 0.5; stroke: #0000ff; stroke-opacity: 0.5"/>
     <use xlink:href="#m00bf02d839" x="128.7" y="111.84" style="fill: #0000ff; fill-opacity: 0.5; stroke: #0000ff; stroke-opacity: 0.5"/>
     <use xlink:href="#m00bf02d839" x="86.85" y="85.706667" style="fill: #0000ff; fill-opacity: 0.5; stroke: #0000ff; stroke-opacity: 0.5"/>
     <use xlink:href="#m00bf02d839" x="72.9" y="81.973333" style="fill: #0000ff; fill-opacity: 0.5; stroke: #0000ff; stroke-opacity: 0.5"/>
     <use xlink:href="#m00bf02d839" x="114.75" y="115.573333" style="fill: #0000ff; fill-opacity: 0.5; stroke: #0000ff; stroke-opacity: 0.5"/>
     <use xlink:href="#m00bf02d839" x="229.14" y="205.173333" style="fill: #0000ff; fill-opacity: 0.5; stroke: #0000ff; stroke-opacity: 0.5"/>
     <use xlink:href="#m00bf02d839" x="47.79" y="134.24" style="fill: #0000ff; fill-opacity: 0.5; stroke: #0000ff; stroke-opacity: 0.5"/>
     <use xlink:href="#m00bf02d839" x="190.08" y="160.373333" style="fill: #0000ff; fill-opacity: 0.5; stroke: #0000ff; stroke-opacity: 0.5"/>
     <use xlink:href="#m00bf02d839" x="184.5" y="104.373333" style="fill: #0000ff; fill-opacity: 0.5; stroke: #0000ff; stroke-opacity: 0.5"/>
     <use xlink:href="#m00bf02d839" x="184.5" y="216.373333" style="fill: #0000ff; fill-opacity: 0.5; stroke: #0000ff; stroke-opacity: 0.5"/>
    </g>
   </g>
   <g id="PolyCollection_1">
    <defs>
     <path id="m612e506e11" d="M 45 -219.181999 
L 45 -181.990042 
L 47.818182 -181.662516 
L 50.636364 -181.193126 
L 53.454545 -180.717944 
L 56.272727 -180.177074 
L 59.090909 -179.473042 
L 61.909091 -178.914396 
L 64.727273 -178.355473 
L 67.545455 -177.795496 
L 70.363636 -177.24052 
L 73.181818 -176.973973 
L 76 -176.669878 
L 78.818182 -175.560936 
L 81.636364 -175.061255 
L 84.454545 -174.49945 
L 87.272727 -174.036286 
L 90.090909 -173.508586 
L 92.909091 -172.727227 
L 95.727273 -171.908474 
L 98.545455 -171.179943 
L 101.363636 -170.295539 
L 104.181818 -169.291215 
L 107 -168.261847 
L 109.818182 -167.145503 
L 112.636364 -165.838053 
L 115.454545 -164.339784 
L 118.272727 -163.213317 
L 121.090909 -162.09336 
L 123.909091 -160.709893 
L 126.727273 -159.583291 
L 129.545455 -158.298157 
L 132.363636 -156.940807 
L 135.181818 -155.640043 
L 138 -154.309445 
L 140.818182 -152.761327 
L 143.636364 -151.450583 
L 146.454545 -150.14489 
L 149.272727 -148.816976 
L 152.090909 -147.528031 
L 154.909091 -146.220361 
L 157.727273 -144.75349 
L 160.545455 -143.390921 
L 163.363636 -141.81699 
L 166.181818 -139.904405 
L 169 -138.472248 
L 171.818182 -137.125589 
L 174.636364 -135.488242 
L 177.454545 -134.105596 
L 180.272727 -132.718489 
L 183.090909 -131.219362 
L 185.909091 -129.55514 
L 188.727273 -127.892772 
L 191.545455 -126.230405 
L 194.363636 -124.568038 
L 197.181818 -122.905671 
L 200 -121.243303 
L 202.818182 -119.580936 
L 205.636364 -118.105689 
L 208.454545 -116.464471 
L 211.272727 -114.711287 
L 214.090909 -112.958103 
L 216.909091 -111.478466 
L 219.727273 -110.079657 
L 222.545455 -108.680848 
L 225.363636 -107.194659 
L 228.181818 -105.520047 
L 231 -103.845434 
L 233.818182 -102.170821 
L 236.636364 -100.496209 
L 239.454545 -98.825445 
L 242.272727 -97.155786 
L 245.090909 -95.486128 
L 247.909091 -93.816469 
L 250.727273 -92.180996 
L 253.545455 -90.526073 
L 256.363636 -88.795464 
L 259.181818 -87.118405 
L 262 -85.380124 
L 264.818182 -83.767751 
L 267.636364 -82.090388 
L 270.454545 -80.413025 
L 273.272727 -78.739988 
L 276.090909 -77.069289 
L 278.909091 -75.423465 
L 281.727273 -73.908493 
L 284.545455 -72.284443 
L 287.363636 -70.56646 
L 290.181818 -68.848477 
L 293 -67.130494 
L 295.818182 -65.412511 
L 298.636364 -63.694528 
L 301.454545 -61.998964 
L 304.272727 -60.323059 
L 307.090909 -58.647154 
L 309.909091 -56.944176 
L 312.727273 -55.181306 
L 315.545455 -53.418436 
L 318.363636 -51.661264 
L 321.181818 -49.941051 
L 324 -48.222069 
L 324 -162.174218 
L 324 -162.174218 
L 321.181818 -162.547863 
L 318.363636 -162.921509 
L 315.545455 -163.143211 
L 312.727273 -163.238349 
L 309.909091 -163.560561 
L 307.090909 -163.882774 
L 304.272727 -164.204987 
L 301.454545 -164.5272 
L 298.636364 -164.849413 
L 295.818182 -165.131514 
L 293 -165.497222 
L 290.181818 -165.822178 
L 287.363636 -165.93811 
L 284.545455 -166.235349 
L 281.727273 -166.607607 
L 278.909091 -166.979865 
L 276.090909 -167.352123 
L 273.272727 -167.691244 
L 270.454545 -167.902283 
L 267.636364 -168.113323 
L 264.818182 -168.40574 
L 262 -168.788762 
L 259.181818 -169.067009 
L 256.363636 -169.321648 
L 253.545455 -169.576288 
L 250.727273 -169.829645 
L 247.909091 -170.091717 
L 245.090909 -170.353789 
L 242.272727 -170.615861 
L 239.454545 -170.877934 
L 236.636364 -171.177023 
L 233.818182 -171.487687 
L 231 -171.718409 
L 228.181818 -171.927548 
L 225.363636 -172.18991 
L 222.545455 -172.554132 
L 219.727273 -172.901945 
L 216.909091 -173.314214 
L 214.090909 -173.585478 
L 211.272727 -173.792275 
L 208.454545 -174.063141 
L 205.636364 -174.466051 
L 202.818182 -174.805597 
L 200 -175.307042 
L 197.181818 -175.629705 
L 194.363636 -175.951151 
L 191.545455 -176.328362 
L 188.727273 -176.71669 
L 185.909091 -177.307591 
L 183.090909 -177.509876 
L 180.272727 -177.731855 
L 177.454545 -178.107306 
L 174.636364 -178.463445 
L 171.818182 -178.887007 
L 169 -179.186789 
L 166.181818 -179.529535 
L 163.363636 -179.928241 
L 160.545455 -180.296343 
L 157.727273 -180.782731 
L 154.909091 -181.270982 
L 152.090909 -181.625034 
L 149.272727 -182.095928 
L 146.454545 -182.746352 
L 143.636364 -183.326797 
L 140.818182 -183.901581 
L 138 -184.596339 
L 135.181818 -185.357513 
L 132.363636 -185.991801 
L 129.545455 -186.471221 
L 126.727273 -186.931348 
L 123.909091 -187.608058 
L 121.090909 -188.290362 
L 118.272727 -188.818153 
L 115.454545 -189.568573 
L 112.636364 -189.914822 
L 109.818182 -190.788732 
L 107 -191.484108 
L 104.181818 -192.348726 
L 101.363636 -193.120034 
L 98.545455 -193.93428 
L 95.727273 -194.825283 
L 92.909091 -196.066852 
L 90.090909 -197.016671 
L 87.272727 -198.495843 
L 84.454545 -199.79895 
L 81.636364 -200.909434 
L 78.818182 -202.299549 
L 76 -203.527776 
L 73.181818 -204.813381 
L 70.363636 -206.13241 
L 67.545455 -207.373238 
L 64.727273 -208.562625 
L 61.909091 -209.80951 
L 59.090909 -210.981982 
L 56.272727 -212.324661 
L 53.454545 -213.726969 
L 50.636364 -215.608833 
L 47.818182 -217.158832 
L 45 -219.181999 
z
" style="stroke: #ffffff; stroke-opacity: 0.15"/>
    </defs>
    <g clip-path="url(#p1823dae0cc)">
     <use xlink:href="#m612e506e11" x="0" y="288" style="fill: #0000ff; fill-opacity: 0.15; stroke: #ffffff; stroke-opacity: 0.15"/>
    </g>
   </g>
   <g id="PathCollection_2">
    <defs>
     <path id="m8e1d5c175c" d="M 0 1.322876 
C 0.350831 1.322876 0.68734 1.183489 0.935414 0.935414 
C 1.183489 0.68734 1.322876 0.350831 1.322876 0 
C 1.322876 -0.350831 1.183489 -0.68734 0.935414 -0.935414 
C 0.68734 -1.183489 0.350831 -1.322876 0 -1.322876 
C -0.350831 -1.322876 -0.68734 -1.183489 -0.935414 -0.935414 
C -1.183489 -0.68734 -1.322876 -0.350831 -1.322876 0 
C -1.322876 0.350831 -1.183489 0.68734 -0.935414 0.935414 
C -0.68734 1.183489 -0.350831 1.322876 0 1.322876 
z
" style="stroke: #ff0000; stroke-opacity: 0.5"/>
    </defs>
    <g clip-path="url(#p1823dae0cc)">
     <use xlink:href="#m8e1d5c175c" x="106.38" y="67.04" style="fill: #ff0000; fill-opacity: 0.5; stroke: #ff0000; stroke-opacity: 0.5"/>
     <use xlink:href="#m8e1d5c175c" x="318.42" y="74.506667" style="fill: #ff0000; fill-opacity: 0.5; stroke: #ff0000; stroke-opacity: 0.5"/>
     <use xlink:href="#m8e1d5c175c" x="114.75" y="123.04" style="fill: #ff0000; fill-opacity: 0.5; stroke: #ff0000; stroke-opacity: 0.5"/>
     <use xlink:href="#m8e1d5c175c" x="184.5" y="89.44" style="fill: #ff0000; fill-opacity: 0.5; stroke: #ff0000; stroke-opacity: 0.5"/>
     <use xlink:href="#m8e1d5c175c" x="229.14" y="156.64" style="fill: #ff0000; fill-opacity: 0.5; stroke: #ff0000; stroke-opacity: 0.5"/>
     <use xlink:href="#m8e1d5c175c" x="254.25" y="231.306667" style="fill: #ff0000; fill-opacity: 0.5; stroke: #ff0000; stroke-opacity: 0.5"/>
     <use xlink:href="#m8e1d5c175c" x="53.37" y="130.506667" style="fill: #ff0000; fill-opacity: 0.5; stroke: #ff0000; stroke-opacity: 0.5"/>
     <use xlink:href="#m8e1d5c175c" x="268.2" y="149.173333" style="fill: #ff0000; fill-opacity: 0.5; stroke: #ff0000; stroke-opacity: 0.5"/>
     <use xlink:href="#m8e1d5c175c" x="137.07" y="175.306667" style="fill: #ff0000; fill-opacity: 0.5; stroke: #ff0000; stroke-opacity: 0.5"/>
     <use xlink:href="#m8e1d5c175c" x="184.5" y="208.906667" style="fill: #ff0000; fill-opacity: 0.5; stroke: #ff0000; stroke-opacity: 0.5"/>
     <use xlink:href="#m8e1d5c175c" x="248.67" y="197.706667" style="fill: #ff0000; fill-opacity: 0.5; stroke: #ff0000; stroke-opacity: 0.5"/>
     <use xlink:href="#m8e1d5c175c" x="296.1" y="119.306667" style="fill: #ff0000; fill-opacity: 0.5; stroke: #ff0000; stroke-opacity: 0.5"/>
     <use xlink:href="#m8e1d5c175c" x="254.25" y="100.64" style="fill: #ff0000; fill-opacity: 0.5; stroke: #ff0000; stroke-opacity: 0.5"/>
     <use xlink:href="#m8e1d5c175c" x="240.3" y="111.84" style="fill: #ff0000; fill-opacity: 0.5; stroke: #ff0000; stroke-opacity: 0.5"/>
     <use xlink:href="#m8e1d5c175c" x="184.5" y="137.973333" style="fill: #ff0000; fill-opacity: 0.5; stroke: #ff0000; stroke-opacity: 0.5"/>
     <use xlink:href="#m8e1d5c175c" x="220.77" y="164.106667" style="fill: #ff0000; fill-opacity: 0.5; stroke: #ff0000; stroke-opacity: 0.5"/>
     <use xlink:href="#m8e1d5c175c" x="120.33" y="246.24" style="fill: #ff0000; fill-opacity: 0.5; stroke: #ff0000; stroke-opacity: 0.5"/>
     <use xlink:href="#m8e1d5c175c" x="173.34" y="220.106667" style="fill: #ff0000; fill-opacity: 0.5; stroke: #ff0000; stroke-opacity: 0.5"/>
     <use xlink:href="#m8e1d5c175c" x="240.3" y="175.306667" style="fill: #ff0000; fill-opacity: 0.5; stroke: #ff0000; stroke-opacity: 0.5"/>
     <use xlink:href="#m8e1d5c175c" x="156.6" y="119.306667" style="fill: #ff0000; fill-opacity: 0.5; stroke: #ff0000; stroke-opacity: 0.5"/>
     <use xlink:href="#m8e1d5c175c" x="226.35" y="93.173333" style="fill: #ff0000; fill-opacity: 0.5; stroke: #ff0000; stroke-opacity: 0.5"/>
     <use xlink:href="#m8e1d5c175c" x="212.4" y="182.773333" style="fill: #ff0000; fill-opacity: 0.5; stroke: #ff0000; stroke-opacity: 0.5"/>
     <use xlink:href="#m8e1d5c175c" x="268.2" y="164.106667" style="fill: #ff0000; fill-opacity: 0.5; stroke: #ff0000; stroke-opacity: 0.5"/>
     <use xlink:href="#m8e1d5c175c" x="212.4" y="63.306667" style="fill: #ff0000; fill-opacity: 0.5; stroke: #ff0000; stroke-opacity: 0.5"/>
     <use xlink:href="#m8e1d5c175c" x="215.19" y="119.306667" style="fill: #ff0000; fill-opacity: 0.5; stroke: #ff0000; stroke-opacity: 0.5"/>
     <use xlink:href="#m8e1d5c175c" x="184.5" y="78.24" style="fill: #ff0000; fill-opacity: 0.5; stroke: #ff0000; stroke-opacity: 0.5"/>
     <use xlink:href="#m8e1d5c175c" x="212.4" y="205.173333" style="fill: #ff0000; fill-opacity: 0.5; stroke: #ff0000; stroke-opacity: 0.5"/>
    </g>
   </g>
   <g id="PolyCollection_2">
    <defs>
     <path id="mf89917c2a6" d="M 45 -201.903045 
L 45 -60.838411 
L 47.818182 -62.090194 
L 50.636364 -63.341976 
L 53.454545 -64.593759 
L 56.272727 -65.845542 
L 59.090909 -67.097324 
L 61.909091 -68.349107 
L 64.727273 -69.60089 
L 67.545455 -70.852673 
L 70.363636 -72.104455 
L 73.181818 -73.356238 
L 76 -74.608021 
L 78.818182 -75.859803 
L 81.636364 -77.074299 
L 84.454545 -78.345334 
L 87.272727 -79.596352 
L 90.090909 -80.851082 
L 92.909091 -82.061832 
L 95.727273 -83.250219 
L 98.545455 -84.155227 
L 101.363636 -85.066765 
L 104.181818 -86.593452 
L 107 -88.330221 
L 109.818182 -89.61513 
L 112.636364 -90.747142 
L 115.454545 -92.117734 
L 118.272727 -93.364027 
L 121.090909 -94.61032 
L 123.909091 -95.867344 
L 126.727273 -97.375244 
L 129.545455 -98.738193 
L 132.363636 -99.706061 
L 135.181818 -100.868561 
L 138 -102.10284 
L 140.818182 -102.992861 
L 143.636364 -103.884817 
L 146.454545 -104.776774 
L 149.272727 -105.66873 
L 152.090909 -106.663695 
L 154.909091 -107.669282 
L 157.727273 -108.534109 
L 160.545455 -109.448126 
L 163.363636 -110.653789 
L 166.181818 -111.996291 
L 169 -113.05608 
L 171.818182 -114.265605 
L 174.636364 -115.467314 
L 177.454545 -116.561247 
L 180.272727 -117.550648 
L 183.090909 -117.982231 
L 185.909091 -117.931544 
L 188.727273 -119.239628 
L 191.545455 -120.379871 
L 194.363636 -121.388935 
L 197.181818 -122.134324 
L 200 -122.365779 
L 202.818182 -122.602761 
L 205.636364 -122.75668 
L 208.454545 -123.01006 
L 211.272727 -123.166186 
L 214.090909 -123.436926 
L 216.909091 -123.702955 
L 219.727273 -123.580013 
L 222.545455 -123.865583 
L 225.363636 -124.160697 
L 228.181818 -124.175861 
L 231 -123.785931 
L 233.818182 -123.091957 
L 236.636364 -122.725587 
L 239.454545 -121.968999 
L 242.272727 -121.765979 
L 245.090909 -121.658514 
L 247.909091 -121.582621 
L 250.727273 -120.780699 
L 253.545455 -119.928132 
L 256.363636 -118.997225 
L 259.181818 -118.306634 
L 262 -117.494573 
L 264.818182 -116.764677 
L 267.636364 -116.135513 
L 270.454545 -115.29041 
L 273.272727 -114.330366 
L 276.090909 -113.598387 
L 278.909091 -112.909345 
L 281.727273 -112.091706 
L 284.545455 -111.428713 
L 287.363636 -110.521202 
L 290.181818 -109.672754 
L 293 -108.762194 
L 295.818182 -108.25583 
L 298.636364 -107.314129 
L 301.454545 -106.377437 
L 304.272727 -105.554299 
L 307.090909 -104.482104 
L 309.909091 -103.538352 
L 312.727273 -102.594856 
L 315.545455 -101.72784 
L 318.363636 -100.877842 
L 321.181818 -100.030405 
L 324 -99.260293 
L 324 -189.763524 
L 324 -189.763524 
L 321.181818 -188.601915 
L 318.363636 -187.745159 
L 315.545455 -186.842824 
L 312.727273 -185.867847 
L 309.909091 -185.193194 
L 307.090909 -184.430284 
L 304.272727 -183.335726 
L 301.454545 -182.234566 
L 298.636364 -181.375414 
L 295.818182 -180.428165 
L 293 -179.671583 
L 290.181818 -178.894433 
L 287.363636 -178.122344 
L 284.545455 -177.28853 
L 281.727273 -176.143645 
L 278.909091 -175.062426 
L 276.090909 -174.575791 
L 273.272727 -173.702533 
L 270.454545 -172.909488 
L 267.636364 -172.295209 
L 264.818182 -171.757651 
L 262 -171.063336 
L 259.181818 -170.617906 
L 256.363636 -170.174266 
L 253.545455 -169.628257 
L 250.727273 -168.987864 
L 247.909091 -168.360537 
L 245.090909 -168.03282 
L 242.272727 -167.896288 
L 239.454545 -167.523991 
L 236.636364 -167.08536 
L 233.818182 -166.627665 
L 231 -166.182631 
L 228.181818 -165.776804 
L 225.363636 -165.653192 
L 222.545455 -165.360663 
L 219.727273 -165.260765 
L 216.909091 -165.262197 
L 214.090909 -165.265593 
L 211.272727 -165.154725 
L 208.454545 -164.975322 
L 205.636364 -164.899496 
L 202.818182 -165.182066 
L 200 -165.157571 
L 197.181818 -165.006563 
L 194.363636 -164.812627 
L 191.545455 -165.184619 
L 188.727273 -165.841366 
L 185.909091 -166.352431 
L 183.090909 -166.42633 
L 180.272727 -166.821211 
L 177.454545 -167.098532 
L 174.636364 -167.425904 
L 171.818182 -167.695907 
L 169 -168.385429 
L 166.181818 -168.84425 
L 163.363636 -169.272494 
L 160.545455 -169.545127 
L 157.727273 -169.882957 
L 154.909091 -170.268113 
L 152.090909 -171.072207 
L 149.272727 -171.978788 
L 146.454545 -172.54921 
L 143.636364 -173.305607 
L 140.818182 -174.07013 
L 138 -174.765991 
L 135.181818 -175.60352 
L 132.363636 -176.346395 
L 129.545455 -176.781812 
L 126.727273 -177.543192 
L 123.909091 -177.764543 
L 121.090909 -178.597043 
L 118.272727 -179.429483 
L 115.454545 -180.260075 
L 112.636364 -181.112998 
L 109.818182 -181.980949 
L 107 -182.848486 
L 104.181818 -183.576574 
L 101.363636 -184.409925 
L 98.545455 -185.243276 
L 95.727273 -186.074213 
L 92.909091 -186.989214 
L 90.090909 -187.755111 
L 87.272727 -188.576681 
L 84.454545 -189.410032 
L 81.636364 -190.243383 
L 78.818182 -191.076734 
L 76 -191.910085 
L 73.181818 -192.80612 
L 70.363636 -194.138356 
L 67.545455 -195.034652 
L 64.727273 -195.904512 
L 61.909091 -196.774373 
L 59.090909 -197.644234 
L 56.272727 -198.201954 
L 53.454545 -199.075804 
L 50.636364 -200.134466 
L 47.818182 -201.065496 
L 45 -201.903045 
z
" style="stroke: #ffffff; stroke-opacity: 0.15"/>
    </defs>
    <g clip-path="url(#p1823dae0cc)">
     <use xlink:href="#mf89917c2a6" x="0" y="288" style="fill: #ff0000; fill-opacity: 0.15; stroke: #ffffff; stroke-opacity: 0.15"/>
    </g>
   </g>
   <g id="line2d_13">
    <path d="M 45 88.622266 
L 47.818182 89.397467 
L 50.636364 90.172667 
L 53.454545 90.947868 
L 56.272727 91.723068 
L 59.090909 92.498269 
L 61.909091 93.27347 
L 64.727273 94.04867 
L 67.545455 94.823871 
L 70.363636 95.599071 
L 73.181818 96.374272 
L 76 97.149472 
L 78.818182 97.924673 
L 81.636364 98.699874 
L 84.454545 99.475074 
L 87.272727 100.250275 
L 90.090909 101.025475 
L 92.909091 101.800676 
L 95.727273 102.575876 
L 98.545455 103.351077 
L 101.363636 104.126278 
L 104.181818 104.901478 
L 107 105.676679 
L 109.818182 106.451879 
L 112.636364 107.22708 
L 115.454545 108.00228 
L 118.272727 108.777481 
L 121.090909 109.552682 
L 123.909091 110.327882 
L 126.727273 111.103083 
L 129.545455 111.878283 
L 132.363636 112.653484 
L 135.181818 113.428684 
L 138 114.203885 
L 140.818182 114.979086 
L 143.636364 115.754286 
L 146.454545 116.529487 
L 149.272727 117.304687 
L 152.090909 118.079888 
L 154.909091 118.855088 
L 157.727273 119.630289 
L 160.545455 120.40549 
L 163.363636 121.18069 
L 166.181818 121.955891 
L 169 122.731091 
L 171.818182 123.506292 
L 174.636364 124.281492 
L 177.454545 125.056693 
L 180.272727 125.831894 
L 183.090909 126.607094 
L 185.909091 127.382295 
L 188.727273 128.157495 
L 191.545455 128.932696 
L 194.363636 129.707896 
L 197.181818 130.483097 
L 200 131.258297 
L 202.818182 132.033498 
L 205.636364 132.808699 
L 208.454545 133.583899 
L 211.272727 134.3591 
L 214.090909 135.1343 
L 216.909091 135.909501 
L 219.727273 136.684701 
L 222.545455 137.459902 
L 225.363636 138.235103 
L 228.181818 139.010303 
L 231 139.785504 
L 233.818182 140.560704 
L 236.636364 141.335905 
L 239.454545 142.111105 
L 242.272727 142.886306 
L 245.090909 143.661507 
L 247.909091 144.436707 
L 250.727273 145.211908 
L 253.545455 145.987108 
L 256.363636 146.762309 
L 259.181818 147.537509 
L 262 148.31271 
L 264.818182 149.087911 
L 267.636364 149.863111 
L 270.454545 150.638312 
L 273.272727 151.413512 
L 276.090909 152.188713 
L 278.909091 152.963913 
L 281.727273 153.739114 
L 284.545455 154.514315 
L 287.363636 155.289515 
L 290.181818 156.064716 
L 293 156.839916 
L 295.818182 157.615117 
L 298.636364 158.390317 
L 301.454545 159.165518 
L 304.272727 159.940719 
L 307.090909 160.715919 
L 309.909091 161.49112 
L 312.727273 162.26632 
L 315.545455 163.041521 
L 318.363636 163.816721 
L 321.181818 164.591922 
L 324 165.367123 
" clip-path="url(#p1823dae0cc)" style="fill: none; stroke: #0000ff; stroke-width: 2.25; stroke-linecap: round"/>
   </g>
   <g id="line2d_14">
    <path d="M 45 147.575083 
L 47.818182 147.502456 
L 50.636364 147.42983 
L 53.454545 147.357204 
L 56.272727 147.284578 
L 59.090909 147.211951 
L 61.909091 147.139325 
L 64.727273 147.066699 
L 67.545455 146.994072 
L 70.363636 146.921446 
L 73.181818 146.84882 
L 76 146.776194 
L 78.818182 146.703567 
L 81.636364 146.630941 
L 84.454545 146.558315 
L 87.272727 146.485688 
L 90.090909 146.413062 
L 92.909091 146.340436 
L 95.727273 146.26781 
L 98.545455 146.195183 
L 101.363636 146.122557 
L 104.181818 146.049931 
L 107 145.977304 
L 109.818182 145.904678 
L 112.636364 145.832052 
L 115.454545 145.759426 
L 118.272727 145.686799 
L 121.090909 145.614173 
L 123.909091 145.541547 
L 126.727273 145.46892 
L 129.545455 145.396294 
L 132.363636 145.323668 
L 135.181818 145.251042 
L 138 145.178415 
L 140.818182 145.105789 
L 143.636364 145.033163 
L 146.454545 144.960536 
L 149.272727 144.88791 
L 152.090909 144.815284 
L 154.909091 144.742658 
L 157.727273 144.670031 
L 160.545455 144.597405 
L 163.363636 144.524779 
L 166.181818 144.452152 
L 169 144.379526 
L 171.818182 144.3069 
L 174.636364 144.234274 
L 177.454545 144.161647 
L 180.272727 144.089021 
L 183.090909 144.016395 
L 185.909091 143.943768 
L 188.727273 143.871142 
L 191.545455 143.798516 
L 194.363636 143.72589 
L 197.181818 143.653263 
L 200 143.580637 
L 202.818182 143.508011 
L 205.636364 143.435384 
L 208.454545 143.362758 
L 211.272727 143.290132 
L 214.090909 143.217506 
L 216.909091 143.144879 
L 219.727273 143.072253 
L 222.545455 142.999627 
L 225.363636 142.927 
L 228.181818 142.854374 
L 231 142.781748 
L 233.818182 142.709122 
L 236.636364 142.636495 
L 239.454545 142.563869 
L 242.272727 142.491243 
L 245.090909 142.418616 
L 247.909091 142.34599 
L 250.727273 142.273364 
L 253.545455 142.200738 
L 256.363636 142.128111 
L 259.181818 142.055485 
L 262 141.982859 
L 264.818182 141.910232 
L 267.636364 141.837606 
L 270.454545 141.76498 
L 273.272727 141.692354 
L 276.090909 141.619727 
L 278.909091 141.547101 
L 281.727273 141.474475 
L 284.545455 141.401848 
L 287.363636 141.329222 
L 290.181818 141.256596 
L 293 141.18397 
L 295.818182 141.111343 
L 298.636364 141.038717 
L 301.454545 140.966091 
L 304.272727 140.893464 
L 307.090909 140.820838 
L 309.909091 140.748212 
L 312.727273 140.675586 
L 315.545455 140.602959 
L 318.363636 140.530333 
L 321.181818 140.457707 
L 324 140.38508 
" clip-path="url(#p1823dae0cc)" style="fill: none; stroke: #ff0000; stroke-width: 2.25; stroke-linecap: round"/>
   </g>
   <g id="patch_3">
    <path d="M 45 256.32 
L 45 34.56 
" style="fill: none; stroke: #ffffff; stroke-width: 0.8; stroke-linejoin: miter; stroke-linecap: square"/>
   </g>
   <g id="patch_4">
    <path d="M 324 256.32 
L 324 34.56 
" style="fill: none; stroke: #ffffff; stroke-width: 0.8; stroke-linejoin: miter; stroke-linecap: square"/>
   </g>
   <g id="patch_5">
    <path d="M 45 256.32 
L 324 256.32 
" style="fill: none; stroke: #ffffff; stroke-width: 0.8; stroke-linejoin: miter; stroke-linecap: square"/>
   </g>
   <g id="patch_6">
    <path d="M 45 34.56 
L 324 34.56 
" style="fill: none; stroke: #ffffff; stroke-width: 0.8; stroke-linejoin: miter; stroke-linecap: square"/>
   </g>
   <g id="text_13">
    <!-- STAIT -->
    <g style="fill: #262626" transform="translate(159.166406 28.56)scale(0.18 -0.18)">
     <defs>
      <path id="Arial-BoldMT-53" d="M 231 1491 
L 1131 1578 
Q 1213 1125 1461 912 
Q 1709 700 2131 700 
Q 2578 700 2804 889 
Q 3031 1078 3031 1331 
Q 3031 1494 2936 1608 
Q 2841 1722 2603 1806 
Q 2441 1863 1863 2006 
Q 1119 2191 819 2459 
Q 397 2838 397 3381 
Q 397 3731 595 4036 
Q 794 4341 1167 4500 
Q 1541 4659 2069 4659 
Q 2931 4659 3367 4281 
Q 3803 3903 3825 3272 
L 2900 3231 
Q 2841 3584 2645 3739 
Q 2450 3894 2059 3894 
Q 1656 3894 1428 3728 
Q 1281 3622 1281 3444 
Q 1281 3281 1419 3166 
Q 1594 3019 2269 2859 
Q 2944 2700 3267 2529 
Q 3591 2359 3773 2064 
Q 3956 1769 3956 1334 
Q 3956 941 3737 597 
Q 3519 253 3119 86 
Q 2719 -81 2122 -81 
Q 1253 -81 787 320 
Q 322 722 231 1491 
z
" transform="scale(0.015625)"/>
      <path id="Arial-BoldMT-54" d="M 1497 0 
L 1497 3806 
L 138 3806 
L 138 4581 
L 3778 4581 
L 3778 3806 
L 2422 3806 
L 2422 0 
L 1497 0 
z
" transform="scale(0.015625)"/>
      <path id="Arial-BoldMT-41" d="M 4597 0 
L 3591 0 
L 3191 1041 
L 1359 1041 
L 981 0 
L 0 0 
L 1784 4581 
L 2763 4581 
L 4597 0 
z
M 2894 1813 
L 2263 3513 
L 1644 1813 
L 2894 1813 
z
" transform="scale(0.015625)"/>
      <path id="Arial-BoldMT-49" d="M 438 0 
L 438 4581 
L 1363 4581 
L 1363 0 
L 438 0 
z
" transform="scale(0.015625)"/>
     </defs>
     <use xlink:href="#Arial-BoldMT-53"/>
     <use xlink:href="#Arial-BoldMT-54" x="66.699219"/>
     <use xlink:href="#Arial-BoldMT-41" x="120.408203"/>
     <use xlink:href="#Arial-BoldMT-49" x="192.625"/>
     <use xlink:href="#Arial-BoldMT-54" x="220.408203"/>
    </g>
   </g>
  </g>
 </g>
 <defs>
  <clipPath id="p1823dae0cc">
   <rect x="45" y="34.56" width="279" height="221.76"/>
  </clipPath>
 </defs>
</svg>
