<?xml version="1.0" encoding="utf-8" standalone="no"?>
<!DOCTYPE svg PUBLIC "-//W3C//DTD SVG 1.1//EN"
  "http://www.w3.org/Graphics/SVG/1.1/DTD/svg11.dtd">
<svg xmlns:xlink="http://www.w3.org/1999/xlink" width="360pt" height="288pt" viewBox="0 0 360 288" xmlns="http://www.w3.org/2000/svg" version="1.1">
 <metadata>
  <rdf:RDF xmlns:dc="http://purl.org/dc/elements/1.1/" xmlns:cc="http://creativecommons.org/ns#" xmlns:rdf="http://www.w3.org/1999/02/22-rdf-syntax-ns#">
   <cc:Work>
    <dc:type rdf:resource="http://purl.org/dc/dcmitype/StillImage"/>
    <dc:date>2022-11-10T09:39:47.451909</dc:date>
    <dc:format>image/svg+xml</dc:format>
    <dc:creator>
     <cc:Agent>
      <dc:title>Matplotlib v3.5.2, https://matplotlib.org/</dc:title>
     </cc:Agent>
    </dc:creator>
   </cc:Work>
  </rdf:RDF>
 </metadata>
 <defs>
  <style type="text/css">*{stroke-linejoin: round; stroke-linecap: butt}</style>
 </defs>
 <g id="figure_1">
  <g id="patch_1">
   <path d="M 0 288 
L 360 288 
L 360 0 
L 0 0 
z
" style="fill: #ffffff"/>
  </g>
  <g id="axes_1">
   <g id="patch_2">
    <path d="M 45 256.32 
L 324 256.32 
L 324 34.56 
L 45 34.56 
z
" style="fill: #eaeaf2"/>
   </g>
   <g id="matplotlib.axis_1">
    <g id="xtick_1">
     <g id="line2d_1">
      <path d="M 76 256.32 
L 76 34.56 
" clip-path="url(#pe6fee455bf)" style="fill: none; stroke: #ffffff; stroke-width: 0.8; stroke-linecap: round"/>
     </g>
     <g id="text_1">
      <!-- 30 -->
      <g style="fill: #262626" transform="translate(68.214687 273.340937)scale(0.14 -0.14)">
       <defs>
        <path id="ArialMT-33" d="M 269 1209 
L 831 1284 
Q 928 806 1161 595 
Q 1394 384 1728 384 
Q 2125 384 2398 659 
Q 2672 934 2672 1341 
Q 2672 1728 2419 1979 
Q 2166 2231 1775 2231 
Q 1616 2231 1378 2169 
L 1441 2663 
Q 1497 2656 1531 2656 
Q 1891 2656 2178 2843 
Q 2466 3031 2466 3422 
Q 2466 3731 2256 3934 
Q 2047 4138 1716 4138 
Q 1388 4138 1169 3931 
Q 950 3725 888 3313 
L 325 3413 
Q 428 3978 793 4289 
Q 1159 4600 1703 4600 
Q 2078 4600 2393 4439 
Q 2709 4278 2876 4000 
Q 3044 3722 3044 3409 
Q 3044 3113 2884 2869 
Q 2725 2625 2413 2481 
Q 2819 2388 3044 2092 
Q 3269 1797 3269 1353 
Q 3269 753 2831 336 
Q 2394 -81 1725 -81 
Q 1122 -81 723 278 
Q 325 638 269 1209 
z
" transform="scale(0.015625)"/>
        <path id="ArialMT-30" d="M 266 2259 
Q 266 3072 433 3567 
Q 600 4063 929 4331 
Q 1259 4600 1759 4600 
Q 2128 4600 2406 4451 
Q 2684 4303 2865 4023 
Q 3047 3744 3150 3342 
Q 3253 2941 3253 2259 
Q 3253 1453 3087 958 
Q 2922 463 2592 192 
Q 2263 -78 1759 -78 
Q 1097 -78 719 397 
Q 266 969 266 2259 
z
M 844 2259 
Q 844 1131 1108 757 
Q 1372 384 1759 384 
Q 2147 384 2411 759 
Q 2675 1134 2675 2259 
Q 2675 3391 2411 3762 
Q 2147 4134 1753 4134 
Q 1366 4134 1134 3806 
Q 844 3388 844 2259 
z
" transform="scale(0.015625)"/>
       </defs>
       <use xlink:href="#ArialMT-33"/>
       <use xlink:href="#ArialMT-30" x="55.615234"/>
      </g>
     </g>
    </g>
    <g id="xtick_2">
     <g id="line2d_2">
      <path d="M 138 256.32 
L 138 34.56 
" clip-path="url(#pe6fee455bf)" style="fill: none; stroke: #ffffff; stroke-width: 0.8; stroke-linecap: round"/>
     </g>
     <g id="text_2">
      <!-- 40 -->
      <g style="fill: #262626" transform="translate(130.214687 273.340937)scale(0.14 -0.14)">
       <defs>
        <path id="ArialMT-34" d="M 2069 0 
L 2069 1097 
L 81 1097 
L 81 1613 
L 2172 4581 
L 2631 4581 
L 2631 1613 
L 3250 1613 
L 3250 1097 
L 2631 1097 
L 2631 0 
L 2069 0 
z
M 2069 1613 
L 2069 3678 
L 634 1613 
L 2069 1613 
z
" transform="scale(0.015625)"/>
       </defs>
       <use xlink:href="#ArialMT-34"/>
       <use xlink:href="#ArialMT-30" x="55.615234"/>
      </g>
     </g>
    </g>
    <g id="xtick_3">
     <g id="line2d_3">
      <path d="M 200 256.32 
L 200 34.56 
" clip-path="url(#pe6fee455bf)" style="fill: none; stroke: #ffffff; stroke-width: 0.8; stroke-linecap: round"/>
     </g>
     <g id="text_3">
      <!-- 50 -->
      <g style="fill: #262626" transform="translate(192.214687 273.340937)scale(0.14 -0.14)">
       <defs>
        <path id="ArialMT-35" d="M 266 1200 
L 856 1250 
Q 922 819 1161 601 
Q 1400 384 1738 384 
Q 2144 384 2425 690 
Q 2706 997 2706 1503 
Q 2706 1984 2436 2262 
Q 2166 2541 1728 2541 
Q 1456 2541 1237 2417 
Q 1019 2294 894 2097 
L 366 2166 
L 809 4519 
L 3088 4519 
L 3088 3981 
L 1259 3981 
L 1013 2750 
Q 1425 3038 1878 3038 
Q 2478 3038 2890 2622 
Q 3303 2206 3303 1553 
Q 3303 931 2941 478 
Q 2500 -78 1738 -78 
Q 1113 -78 717 272 
Q 322 622 266 1200 
z
" transform="scale(0.015625)"/>
       </defs>
       <use xlink:href="#ArialMT-35"/>
       <use xlink:href="#ArialMT-30" x="55.615234"/>
      </g>
     </g>
    </g>
    <g id="xtick_4">
     <g id="line2d_4">
      <path d="M 262 256.32 
L 262 34.56 
" clip-path="url(#pe6fee455bf)" style="fill: none; stroke: #ffffff; stroke-width: 0.8; stroke-linecap: round"/>
     </g>
     <g id="text_4">
      <!-- 60 -->
      <g style="fill: #262626" transform="translate(254.214687 273.340937)scale(0.14 -0.14)">
       <defs>
        <path id="ArialMT-36" d="M 3184 3459 
L 2625 3416 
Q 2550 3747 2413 3897 
Q 2184 4138 1850 4138 
Q 1581 4138 1378 3988 
Q 1113 3794 959 3422 
Q 806 3050 800 2363 
Q 1003 2672 1297 2822 
Q 1591 2972 1913 2972 
Q 2475 2972 2870 2558 
Q 3266 2144 3266 1488 
Q 3266 1056 3080 686 
Q 2894 316 2569 119 
Q 2244 -78 1831 -78 
Q 1128 -78 684 439 
Q 241 956 241 2144 
Q 241 3472 731 4075 
Q 1159 4600 1884 4600 
Q 2425 4600 2770 4297 
Q 3116 3994 3184 3459 
z
M 888 1484 
Q 888 1194 1011 928 
Q 1134 663 1356 523 
Q 1578 384 1822 384 
Q 2178 384 2434 671 
Q 2691 959 2691 1453 
Q 2691 1928 2437 2201 
Q 2184 2475 1800 2475 
Q 1419 2475 1153 2201 
Q 888 1928 888 1484 
z
" transform="scale(0.015625)"/>
       </defs>
       <use xlink:href="#ArialMT-36"/>
       <use xlink:href="#ArialMT-30" x="55.615234"/>
      </g>
     </g>
    </g>
    <g id="xtick_5">
     <g id="line2d_5">
      <path d="M 324 256.32 
L 324 34.56 
" clip-path="url(#pe6fee455bf)" style="fill: none; stroke: #ffffff; stroke-width: 0.8; stroke-linecap: round"/>
     </g>
     <g id="text_5">
      <!-- 70 -->
      <g style="fill: #262626" transform="translate(316.214688 273.340937)scale(0.14 -0.14)">
       <defs>
        <path id="ArialMT-37" d="M 303 3981 
L 303 4522 
L 3269 4522 
L 3269 4084 
Q 2831 3619 2401 2847 
Q 1972 2075 1738 1259 
Q 1569 684 1522 0 
L 944 0 
Q 953 541 1156 1306 
Q 1359 2072 1739 2783 
Q 2119 3494 2547 3981 
L 303 3981 
z
" transform="scale(0.015625)"/>
       </defs>
       <use xlink:href="#ArialMT-37"/>
       <use xlink:href="#ArialMT-30" x="55.615234"/>
      </g>
     </g>
    </g>
   </g>
   <g id="matplotlib.axis_2">
    <g id="ytick_1">
     <g id="line2d_6">
      <path d="M 45 241.136908 
L 324 241.136908 
" clip-path="url(#pe6fee455bf)" style="fill: none; stroke: #ffffff; stroke-width: 0.8; stroke-linecap: round"/>
     </g>
     <g id="text_6">
      <!-- −20 -->
      <g style="fill: #262626" transform="translate(14.2525 246.147376)scale(0.14 -0.14)">
       <defs>
        <path id="ArialMT-2212" d="M 3381 1997 
L 356 1997 
L 356 2522 
L 3381 2522 
L 3381 1997 
z
" transform="scale(0.015625)"/>
        <path id="ArialMT-32" d="M 3222 541 
L 3222 0 
L 194 0 
Q 188 203 259 391 
Q 375 700 629 1000 
Q 884 1300 1366 1694 
Q 2113 2306 2375 2664 
Q 2638 3022 2638 3341 
Q 2638 3675 2398 3904 
Q 2159 4134 1775 4134 
Q 1369 4134 1125 3890 
Q 881 3647 878 3216 
L 300 3275 
Q 359 3922 746 4261 
Q 1134 4600 1788 4600 
Q 2447 4600 2831 4234 
Q 3216 3869 3216 3328 
Q 3216 3053 3103 2787 
Q 2991 2522 2730 2228 
Q 2469 1934 1863 1422 
Q 1356 997 1212 845 
Q 1069 694 975 541 
L 3222 541 
z
" transform="scale(0.015625)"/>
       </defs>
       <use xlink:href="#ArialMT-2212"/>
       <use xlink:href="#ArialMT-32" x="58.398438"/>
       <use xlink:href="#ArialMT-30" x="114.013672"/>
      </g>
     </g>
    </g>
    <g id="ytick_2">
     <g id="line2d_7">
      <path d="M 45 201.837526 
L 324 201.837526 
" clip-path="url(#pe6fee455bf)" style="fill: none; stroke: #ffffff; stroke-width: 0.8; stroke-linecap: round"/>
     </g>
     <g id="text_7">
      <!-- −15 -->
      <g style="fill: #262626" transform="translate(14.2525 206.847995)scale(0.14 -0.14)">
       <defs>
        <path id="ArialMT-31" d="M 2384 0 
L 1822 0 
L 1822 3584 
Q 1619 3391 1289 3197 
Q 959 3003 697 2906 
L 697 3450 
Q 1169 3672 1522 3987 
Q 1875 4303 2022 4600 
L 2384 4600 
L 2384 0 
z
" transform="scale(0.015625)"/>
       </defs>
       <use xlink:href="#ArialMT-2212"/>
       <use xlink:href="#ArialMT-31" x="58.398438"/>
       <use xlink:href="#ArialMT-35" x="114.013672"/>
      </g>
     </g>
    </g>
    <g id="ytick_3">
     <g id="line2d_8">
      <path d="M 45 162.538145 
L 324 162.538145 
" clip-path="url(#pe6fee455bf)" style="fill: none; stroke: #ffffff; stroke-width: 0.8; stroke-linecap: round"/>
     </g>
     <g id="text_8">
      <!-- −10 -->
      <g style="fill: #262626" transform="translate(14.2525 167.548613)scale(0.14 -0.14)">
       <use xlink:href="#ArialMT-2212"/>
       <use xlink:href="#ArialMT-31" x="58.398438"/>
       <use xlink:href="#ArialMT-30" x="114.013672"/>
      </g>
     </g>
    </g>
    <g id="ytick_4">
     <g id="line2d_9">
      <path d="M 45 123.238763 
L 324 123.238763 
" clip-path="url(#pe6fee455bf)" style="fill: none; stroke: #ffffff; stroke-width: 0.8; stroke-linecap: round"/>
     </g>
     <g id="text_9">
      <!-- −5 -->
      <g style="fill: #262626" transform="translate(22.037813 128.249232)scale(0.14 -0.14)">
       <use xlink:href="#ArialMT-2212"/>
       <use xlink:href="#ArialMT-35" x="58.398438"/>
      </g>
     </g>
    </g>
    <g id="ytick_5">
     <g id="line2d_10">
      <path d="M 45 83.939382 
L 324 83.939382 
" clip-path="url(#pe6fee455bf)" style="fill: none; stroke: #ffffff; stroke-width: 0.8; stroke-linecap: round"/>
     </g>
     <g id="text_10">
      <!-- 0 -->
      <g style="fill: #262626" transform="translate(30.214688 88.94985)scale(0.14 -0.14)">
       <use xlink:href="#ArialMT-30"/>
      </g>
     </g>
    </g>
    <g id="ytick_6">
     <g id="line2d_11">
      <path d="M 45 44.64 
L 324 44.64 
" clip-path="url(#pe6fee455bf)" style="fill: none; stroke: #ffffff; stroke-width: 0.8; stroke-linecap: round"/>
     </g>
     <g id="text_11">
      <!-- 5 -->
      <g style="fill: #262626" transform="translate(30.214688 49.650469)scale(0.14 -0.14)">
       <use xlink:href="#ArialMT-35"/>
      </g>
     </g>
    </g>
   </g>
   <g id="PathCollection_1">
    <defs>
     <path id="mcf9abb06ec" d="M 0 1.322876 
C 0.350831 1.322876 0.68734 1.183489 0.935414 0.935414 
C 1.183489 0.68734 1.322876 0.350831 1.322876 0 
C 1.322876 -0.350831 1.183489 -0.68734 0.935414 -0.935414 
C 0.68734 -1.183489 0.350831 -1.322876 0 -1.322876 
C -0.350831 -1.322876 -0.68734 -1.183489 -0.935414 -0.935414 
C -1.183489 -0.68734 -1.322876 -0.350831 -1.322876 0 
C -1.322876 0.350831 -1.183489 0.68734 -0.935414 0.935414 
C -0.68734 1.183489 -0.350831 1.322876 0 1.322876 
z
" style="stroke: #0000ff; stroke-opacity: 0.5"/>
    </defs>
    <g clip-path="url(#pe6fee455bf)">
     <use xlink:href="#mcf9abb06ec" x="119.4" y="186.117773" style="fill: #0000ff; fill-opacity: 0.5; stroke: #0000ff; stroke-opacity: 0.5"/>
     <use xlink:href="#mcf9abb06ec" x="76" y="99.659134" style="fill: #0000ff; fill-opacity: 0.5; stroke: #0000ff; stroke-opacity: 0.5"/>
     <use xlink:href="#mcf9abb06ec" x="100.8" y="193.97765" style="fill: #0000ff; fill-opacity: 0.5; stroke: #0000ff; stroke-opacity: 0.5"/>
     <use xlink:href="#mcf9abb06ec" x="131.8" y="131.098639" style="fill: #0000ff; fill-opacity: 0.5; stroke: #0000ff; stroke-opacity: 0.5"/>
     <use xlink:href="#mcf9abb06ec" x="317.8" y="138.958516" style="fill: #0000ff; fill-opacity: 0.5; stroke: #0000ff; stroke-opacity: 0.5"/>
     <use xlink:href="#mcf9abb06ec" x="125.6" y="162.538145" style="fill: #0000ff; fill-opacity: 0.5; stroke: #0000ff; stroke-opacity: 0.5"/>
     <use xlink:href="#mcf9abb06ec" x="131.8" y="115.378887" style="fill: #0000ff; fill-opacity: 0.5; stroke: #0000ff; stroke-opacity: 0.5"/>
     <use xlink:href="#mcf9abb06ec" x="156.6" y="138.958516" style="fill: #0000ff; fill-opacity: 0.5; stroke: #0000ff; stroke-opacity: 0.5"/>
     <use xlink:href="#mcf9abb06ec" x="193.8" y="60.359753" style="fill: #0000ff; fill-opacity: 0.5; stroke: #0000ff; stroke-opacity: 0.5"/>
     <use xlink:href="#mcf9abb06ec" x="200" y="186.117773" style="fill: #0000ff; fill-opacity: 0.5; stroke: #0000ff; stroke-opacity: 0.5"/>
     <use xlink:href="#mcf9abb06ec" x="156.6" y="170.398021" style="fill: #0000ff; fill-opacity: 0.5; stroke: #0000ff; stroke-opacity: 0.5"/>
     <use xlink:href="#mcf9abb06ec" x="212.4" y="91.799258" style="fill: #0000ff; fill-opacity: 0.5; stroke: #0000ff; stroke-opacity: 0.5"/>
     <use xlink:href="#mcf9abb06ec" x="138" y="186.117773" style="fill: #0000ff; fill-opacity: 0.5; stroke: #0000ff; stroke-opacity: 0.5"/>
     <use xlink:href="#mcf9abb06ec" x="107" y="76.079505" style="fill: #0000ff; fill-opacity: 0.5; stroke: #0000ff; stroke-opacity: 0.5"/>
     <use xlink:href="#mcf9abb06ec" x="175.2" y="193.97765" style="fill: #0000ff; fill-opacity: 0.5; stroke: #0000ff; stroke-opacity: 0.5"/>
     <use xlink:href="#mcf9abb06ec" x="268.2" y="115.378887" style="fill: #0000ff; fill-opacity: 0.5; stroke: #0000ff; stroke-opacity: 0.5"/>
     <use xlink:href="#mcf9abb06ec" x="218.6" y="68.219629" style="fill: #0000ff; fill-opacity: 0.5; stroke: #0000ff; stroke-opacity: 0.5"/>
     <use xlink:href="#mcf9abb06ec" x="82.2" y="138.958516" style="fill: #0000ff; fill-opacity: 0.5; stroke: #0000ff; stroke-opacity: 0.5"/>
     <use xlink:href="#mcf9abb06ec" x="113.2" y="131.098639" style="fill: #0000ff; fill-opacity: 0.5; stroke: #0000ff; stroke-opacity: 0.5"/>
     <use xlink:href="#mcf9abb06ec" x="138" y="115.378887" style="fill: #0000ff; fill-opacity: 0.5; stroke: #0000ff; stroke-opacity: 0.5"/>
     <use xlink:href="#mcf9abb06ec" x="156.6" y="99.659134" style="fill: #0000ff; fill-opacity: 0.5; stroke: #0000ff; stroke-opacity: 0.5"/>
     <use xlink:href="#mcf9abb06ec" x="237.2" y="83.939382" style="fill: #0000ff; fill-opacity: 0.5; stroke: #0000ff; stroke-opacity: 0.5"/>
     <use xlink:href="#mcf9abb06ec" x="237.2" y="138.958516" style="fill: #0000ff; fill-opacity: 0.5; stroke: #0000ff; stroke-opacity: 0.5"/>
     <use xlink:href="#mcf9abb06ec" x="162.8" y="178.257897" style="fill: #0000ff; fill-opacity: 0.5; stroke: #0000ff; stroke-opacity: 0.5"/>
     <use xlink:href="#mcf9abb06ec" x="249.6" y="162.538145" style="fill: #0000ff; fill-opacity: 0.5; stroke: #0000ff; stroke-opacity: 0.5"/>
     <use xlink:href="#mcf9abb06ec" x="243.4" y="99.659134" style="fill: #0000ff; fill-opacity: 0.5; stroke: #0000ff; stroke-opacity: 0.5"/>
     <use xlink:href="#mcf9abb06ec" x="255.8" y="99.659134" style="fill: #0000ff; fill-opacity: 0.5; stroke: #0000ff; stroke-opacity: 0.5"/>
    </g>
   </g>
   <g id="PolyCollection_1">
    <defs>
     <path id="m125d8100f6" d="M 45 -171.456723 
L 45 -100.937499 
L 47.818182 -102.006937 
L 50.636364 -103.133743 
L 53.454545 -104.269271 
L 56.272727 -105.497353 
L 59.090909 -106.714932 
L 61.909091 -107.815446 
L 64.727273 -108.795037 
L 67.545455 -109.916659 
L 70.363636 -111.038281 
L 73.181818 -111.909726 
L 76 -112.538166 
L 78.818182 -113.168499 
L 81.636364 -113.803839 
L 84.454545 -114.66228 
L 87.272727 -115.693712 
L 90.090909 -116.743726 
L 92.909091 -117.973803 
L 95.727273 -119.206671 
L 98.545455 -120.198412 
L 101.363636 -121.13326 
L 104.181818 -121.973065 
L 107 -122.907863 
L 109.818182 -124.082238 
L 112.636364 -124.961272 
L 115.454545 -125.414965 
L 118.272727 -126.358464 
L 121.090909 -127.289455 
L 123.909091 -128.094428 
L 126.727273 -128.891613 
L 129.545455 -129.786572 
L 132.363636 -130.745874 
L 135.181818 -131.501479 
L 138 -132.128039 
L 140.818182 -133.03178 
L 143.636364 -133.708607 
L 146.454545 -134.330069 
L 149.272727 -135.014735 
L 152.090909 -135.629603 
L 154.909091 -136.233972 
L 157.727273 -136.851614 
L 160.545455 -137.467068 
L 163.363636 -137.980754 
L 166.181818 -138.526343 
L 169 -138.853425 
L 171.818182 -139.585045 
L 174.636364 -140.434174 
L 177.454545 -140.774988 
L 180.272727 -140.862628 
L 183.090909 -140.945073 
L 185.909091 -141.354908 
L 188.727273 -142.237248 
L 191.545455 -142.840503 
L 194.363636 -143.15896 
L 197.181818 -143.358907 
L 200 -143.679795 
L 202.818182 -144.015648 
L 205.636364 -144.314543 
L 208.454545 -144.595149 
L 211.272727 -144.893243 
L 214.090909 -145.127039 
L 216.909091 -145.040726 
L 219.727273 -145.07677 
L 222.545455 -145.160222 
L 225.363636 -145.358992 
L 228.181818 -145.425554 
L 231 -145.232794 
L 233.818182 -145.173951 
L 236.636364 -145.239991 
L 239.454545 -145.425656 
L 242.272727 -145.329562 
L 245.090909 -145.357027 
L 247.909091 -145.567693 
L 250.727273 -145.403237 
L 253.545455 -145.238781 
L 256.363636 -145.074326 
L 259.181818 -144.90987 
L 262 -145.102226 
L 264.818182 -145.467758 
L 267.636364 -145.83441 
L 270.454545 -146.070349 
L 273.272727 -145.566685 
L 276.090909 -145.070061 
L 278.909091 -144.651331 
L 281.727273 -144.839542 
L 284.545455 -145.039288 
L 287.363636 -144.980297 
L 290.181818 -144.763687 
L 293 -144.752595 
L 295.818182 -144.89511 
L 298.636364 -144.98199 
L 301.454545 -144.820051 
L 304.272727 -144.933491 
L 307.090909 -144.918232 
L 309.909091 -144.805233 
L 312.727273 -144.692234 
L 315.545455 -144.582543 
L 318.363636 -144.632436 
L 321.181818 -144.765581 
L 324 -144.898726 
L 324 -219.017315 
L 324 -219.017315 
L 321.181818 -217.75638 
L 318.363636 -216.655617 
L 315.545455 -215.532657 
L 312.727273 -214.538023 
L 309.909091 -213.543388 
L 307.090909 -212.548754 
L 304.272727 -211.55412 
L 301.454545 -210.559485 
L 298.636364 -209.564851 
L 295.818182 -208.570216 
L 293 -207.575582 
L 290.181818 -206.574789 
L 287.363636 -205.557424 
L 284.545455 -204.595584 
L 281.727273 -203.539694 
L 278.909091 -202.569154 
L 276.090909 -201.594835 
L 273.272727 -200.625215 
L 270.454545 -199.634845 
L 267.636364 -198.643431 
L 264.818182 -197.651887 
L 262 -196.660343 
L 259.181818 -195.666475 
L 256.363636 -194.969289 
L 253.545455 -193.865475 
L 250.727273 -192.684507 
L 247.909091 -191.614157 
L 245.090909 -190.460565 
L 242.272727 -189.350217 
L 239.454545 -188.528793 
L 236.636364 -187.704441 
L 233.818182 -186.717942 
L 231 -185.722459 
L 228.181818 -184.889129 
L 225.363636 -183.832692 
L 222.545455 -182.871177 
L 219.727273 -182.217003 
L 216.909091 -181.403956 
L 214.090909 -180.951123 
L 211.272727 -180.506792 
L 208.454545 -179.882456 
L 205.636364 -178.965187 
L 202.818182 -178.553153 
L 200 -178.12263 
L 197.181818 -177.198274 
L 194.363636 -176.683016 
L 191.545455 -176.196289 
L 188.727273 -175.781381 
L 185.909091 -175.307325 
L 183.090909 -174.836464 
L 180.272727 -174.397343 
L 177.454545 -173.942652 
L 174.636364 -173.487962 
L 171.818182 -173.158974 
L 169 -173.050228 
L 166.181818 -172.912429 
L 163.363636 -172.816445 
L 160.545455 -172.64595 
L 157.727273 -172.637017 
L 154.909091 -172.499318 
L 152.090909 -172.145494 
L 149.272727 -172.103385 
L 146.454545 -171.872597 
L 143.636364 -171.819875 
L 140.818182 -171.655499 
L 138 -171.692473 
L 135.181818 -171.729447 
L 132.363636 -171.392846 
L 129.545455 -171.346338 
L 126.727273 -171.046525 
L 123.909091 -171.02169 
L 121.090909 -170.996856 
L 118.272727 -170.972021 
L 115.454545 -170.947187 
L 112.636364 -171.142257 
L 109.818182 -171.072366 
L 107 -170.88692 
L 104.181818 -170.890446 
L 101.363636 -170.868712 
L 98.545455 -170.795304 
L 95.727273 -170.766057 
L 92.909091 -170.767744 
L 90.090909 -170.775777 
L 87.272727 -170.873248 
L 84.454545 -171.031191 
L 81.636364 -170.859361 
L 78.818182 -170.679802 
L 76 -170.7646 
L 73.181818 -170.614355 
L 70.363636 -170.66867 
L 67.545455 -170.722986 
L 64.727273 -170.777302 
L 61.909091 -170.831618 
L 59.090909 -170.923733 
L 56.272727 -171.057338 
L 53.454545 -170.996118 
L 50.636364 -171.05327 
L 47.818182 -171.166339 
L 45 -171.456723 
z
" style="stroke: #ffffff; stroke-opacity: 0.15"/>
    </defs>
    <g clip-path="url(#pe6fee455bf)">
     <use xlink:href="#m125d8100f6" x="0" y="288" style="fill: #0000ff; fill-opacity: 0.15; stroke: #ffffff; stroke-opacity: 0.15"/>
    </g>
   </g>
   <g id="PathCollection_2">
    <defs>
     <path id="m582e82eca8" d="M 0 1.322876 
C 0.350831 1.322876 0.68734 1.183489 0.935414 0.935414 
C 1.183489 0.68734 1.322876 0.350831 1.322876 0 
C 1.322876 -0.350831 1.183489 -0.68734 0.935414 -0.935414 
C 0.68734 -1.183489 0.350831 -1.322876 0 -1.322876 
C -0.350831 -1.322876 -0.68734 -1.183489 -0.935414 -0.935414 
C -1.183489 -0.68734 -1.322876 -0.350831 -1.322876 0 
C -1.322876 0.350831 -1.183489 0.68734 -0.935414 0.935414 
C -0.68734 1.183489 -0.350831 1.322876 0 1.322876 
z
" style="stroke: #ff0000; stroke-opacity: 0.5"/>
    </defs>
    <g clip-path="url(#pe6fee455bf)">
     <use xlink:href="#m582e82eca8" x="88.4" y="68.219629" style="fill: #ff0000; fill-opacity: 0.5; stroke: #ff0000; stroke-opacity: 0.5"/>
     <use xlink:href="#m582e82eca8" x="107" y="44.64" style="fill: #ff0000; fill-opacity: 0.5; stroke: #ff0000; stroke-opacity: 0.5"/>
     <use xlink:href="#m582e82eca8" x="100.8" y="178.257897" style="fill: #ff0000; fill-opacity: 0.5; stroke: #ff0000; stroke-opacity: 0.5"/>
     <use xlink:href="#m582e82eca8" x="63.6" y="60.359753" style="fill: #ff0000; fill-opacity: 0.5; stroke: #ff0000; stroke-opacity: 0.5"/>
     <use xlink:href="#m582e82eca8" x="206.2" y="154.678268" style="fill: #ff0000; fill-opacity: 0.5; stroke: #ff0000; stroke-opacity: 0.5"/>
     <use xlink:href="#m582e82eca8" x="150.4" y="201.837526" style="fill: #ff0000; fill-opacity: 0.5; stroke: #ff0000; stroke-opacity: 0.5"/>
     <use xlink:href="#m582e82eca8" x="119.4" y="146.818392" style="fill: #ff0000; fill-opacity: 0.5; stroke: #ff0000; stroke-opacity: 0.5"/>
     <use xlink:href="#m582e82eca8" x="150.4" y="217.557279" style="fill: #ff0000; fill-opacity: 0.5; stroke: #ff0000; stroke-opacity: 0.5"/>
     <use xlink:href="#m582e82eca8" x="237.2" y="170.398021" style="fill: #ff0000; fill-opacity: 0.5; stroke: #ff0000; stroke-opacity: 0.5"/>
     <use xlink:href="#m582e82eca8" x="249.6" y="193.97765" style="fill: #ff0000; fill-opacity: 0.5; stroke: #ff0000; stroke-opacity: 0.5"/>
     <use xlink:href="#m582e82eca8" x="187.6" y="91.799258" style="fill: #ff0000; fill-opacity: 0.5; stroke: #ff0000; stroke-opacity: 0.5"/>
     <use xlink:href="#m582e82eca8" x="181.4" y="131.098639" style="fill: #ff0000; fill-opacity: 0.5; stroke: #ff0000; stroke-opacity: 0.5"/>
     <use xlink:href="#m582e82eca8" x="156.6" y="162.538145" style="fill: #ff0000; fill-opacity: 0.5; stroke: #ff0000; stroke-opacity: 0.5"/>
     <use xlink:href="#m582e82eca8" x="206.2" y="146.818392" style="fill: #ff0000; fill-opacity: 0.5; stroke: #ff0000; stroke-opacity: 0.5"/>
     <use xlink:href="#m582e82eca8" x="162.8" y="170.398021" style="fill: #ff0000; fill-opacity: 0.5; stroke: #ff0000; stroke-opacity: 0.5"/>
     <use xlink:href="#m582e82eca8" x="262" y="154.678268" style="fill: #ff0000; fill-opacity: 0.5; stroke: #ff0000; stroke-opacity: 0.5"/>
     <use xlink:href="#m582e82eca8" x="255.8" y="201.837526" style="fill: #ff0000; fill-opacity: 0.5; stroke: #ff0000; stroke-opacity: 0.5"/>
     <use xlink:href="#m582e82eca8" x="156.6" y="186.117773" style="fill: #ff0000; fill-opacity: 0.5; stroke: #ff0000; stroke-opacity: 0.5"/>
     <use xlink:href="#m582e82eca8" x="218.6" y="186.117773" style="fill: #ff0000; fill-opacity: 0.5; stroke: #ff0000; stroke-opacity: 0.5"/>
     <use xlink:href="#m582e82eca8" x="138" y="162.538145" style="fill: #ff0000; fill-opacity: 0.5; stroke: #ff0000; stroke-opacity: 0.5"/>
     <use xlink:href="#m582e82eca8" x="169" y="123.238763" style="fill: #ff0000; fill-opacity: 0.5; stroke: #ff0000; stroke-opacity: 0.5"/>
     <use xlink:href="#m582e82eca8" x="162.8" y="131.098639" style="fill: #ff0000; fill-opacity: 0.5; stroke: #ff0000; stroke-opacity: 0.5"/>
     <use xlink:href="#m582e82eca8" x="293" y="186.117773" style="fill: #ff0000; fill-opacity: 0.5; stroke: #ff0000; stroke-opacity: 0.5"/>
     <use xlink:href="#m582e82eca8" x="82.2" y="52.499876" style="fill: #ff0000; fill-opacity: 0.5; stroke: #ff0000; stroke-opacity: 0.5"/>
     <use xlink:href="#m582e82eca8" x="69.8" y="91.799258" style="fill: #ff0000; fill-opacity: 0.5; stroke: #ff0000; stroke-opacity: 0.5"/>
     <use xlink:href="#m582e82eca8" x="94.6" y="178.257897" style="fill: #ff0000; fill-opacity: 0.5; stroke: #ff0000; stroke-opacity: 0.5"/>
     <use xlink:href="#m582e82eca8" x="63.6" y="99.659134" style="fill: #ff0000; fill-opacity: 0.5; stroke: #ff0000; stroke-opacity: 0.5"/>
     <use xlink:href="#m582e82eca8" x="107" y="193.97765" style="fill: #ff0000; fill-opacity: 0.5; stroke: #ff0000; stroke-opacity: 0.5"/>
    </g>
   </g>
   <g id="PolyCollection_2">
    <defs>
     <path id="mb6b675645d" d="M 45 -225.503065 
L 45 -134.584572 
L 47.818182 -134.238585 
L 50.636364 -133.892597 
L 53.454545 -133.546609 
L 56.272727 -133.200621 
L 59.090909 -132.854633 
L 61.909091 -132.508646 
L 64.727273 -132.162658 
L 67.545455 -131.81667 
L 70.363636 -131.470682 
L 73.181818 -131.124694 
L 76 -130.778706 
L 78.818182 -130.432719 
L 81.636364 -130.086731 
L 84.454545 -129.740743 
L 87.272727 -129.394755 
L 90.090909 -129.048767 
L 92.909091 -128.70278 
L 95.727273 -128.356792 
L 98.545455 -128.010804 
L 101.363636 -127.664816 
L 104.181818 -127.318828 
L 107 -126.972841 
L 109.818182 -126.626853 
L 112.636364 -126.283278 
L 115.454545 -125.943242 
L 118.272727 -125.695941 
L 121.090909 -125.64813 
L 123.909091 -125.349155 
L 126.727273 -124.910371 
L 129.545455 -124.471587 
L 132.363636 -124.03327 
L 135.181818 -123.620779 
L 138 -123.354546 
L 140.818182 -123.000455 
L 143.636364 -122.57251 
L 146.454545 -122.345394 
L 149.272727 -122.123645 
L 152.090909 -121.437036 
L 154.909091 -121.091048 
L 157.727273 -120.755741 
L 160.545455 -120.436098 
L 163.363636 -119.955935 
L 166.181818 -119.798565 
L 169 -119.355775 
L 171.818182 -119.010902 
L 174.636364 -118.727175 
L 177.454545 -117.940247 
L 180.272727 -117.791036 
L 183.090909 -116.814562 
L 185.909091 -115.982359 
L 188.727273 -115.206606 
L 191.545455 -113.86408 
L 194.363636 -112.453787 
L 197.181818 -111.036416 
L 200 -110.042839 
L 202.818182 -108.854801 
L 205.636364 -107.677156 
L 208.454545 -106.440649 
L 211.272727 -105.27926 
L 214.090909 -103.708484 
L 216.909091 -102.37114 
L 219.727273 -101.107878 
L 222.545455 -99.546948 
L 225.363636 -98.132598 
L 228.181818 -96.489353 
L 231 -94.708001 
L 233.818182 -92.927019 
L 236.636364 -91.465143 
L 239.454545 -90.307439 
L 242.272727 -89.14994 
L 245.090909 -87.994251 
L 247.909091 -86.744585 
L 250.727273 -84.98471 
L 253.545455 -83.224836 
L 256.363636 -81.49296 
L 259.181818 -79.722829 
L 262 -78.258255 
L 264.818182 -76.485708 
L 267.636364 -74.695389 
L 270.454545 -72.855333 
L 273.272727 -71.015277 
L 276.090909 -69.175222 
L 278.909091 -67.38095 
L 281.727273 -65.791322 
L 284.545455 -64.131511 
L 287.363636 -62.588402 
L 290.181818 -61.045293 
L 293 -59.506089 
L 295.818182 -57.969684 
L 298.636364 -56.433279 
L 301.454545 -54.896703 
L 304.272727 -53.220383 
L 307.090909 -51.388237 
L 309.909091 -49.721743 
L 312.727273 -48.190037 
L 315.545455 -46.691417 
L 318.363636 -45.172121 
L 321.181818 -43.595384 
L 324 -41.76 
L 324 -112.432703 
L 324 -112.432703 
L 321.181818 -112.897573 
L 318.363636 -113.362443 
L 315.545455 -113.822872 
L 312.727273 -114.07335 
L 309.909091 -114.193347 
L 307.090909 -114.313344 
L 304.272727 -114.854081 
L 301.454545 -115.398379 
L 298.636364 -115.942678 
L 295.818182 -116.291682 
L 293 -116.51505 
L 290.181818 -116.736945 
L 287.363636 -117.165497 
L 284.545455 -117.62576 
L 281.727273 -118.078281 
L 278.909091 -118.296998 
L 276.090909 -118.768344 
L 273.272727 -118.981375 
L 270.454545 -119.059479 
L 267.636364 -119.578624 
L 264.818182 -120.2138 
L 262 -120.571164 
L 259.181818 -121.164403 
L 256.363636 -121.752901 
L 253.545455 -122.341399 
L 250.727273 -122.834505 
L 247.909091 -123.213516 
L 245.090909 -123.590987 
L 242.272727 -123.947354 
L 239.454545 -124.7235 
L 236.636364 -125.495927 
L 233.818182 -126.349856 
L 231 -127.096269 
L 228.181818 -128.142545 
L 225.363636 -129.338068 
L 222.545455 -130.136415 
L 219.727273 -131.187023 
L 216.909091 -132.11018 
L 214.090909 -133.406851 
L 211.272727 -134.558841 
L 208.454545 -136.048059 
L 205.636364 -137.520709 
L 202.818182 -138.622385 
L 200 -140.089925 
L 197.181818 -141.375574 
L 194.363636 -142.658891 
L 191.545455 -143.974531 
L 188.727273 -145.227124 
L 185.909091 -146.561065 
L 183.090909 -147.802336 
L 180.272727 -149.285824 
L 177.454545 -151.007618 
L 174.636364 -152.534395 
L 171.818182 -154.137313 
L 169 -155.817795 
L 166.181818 -157.194861 
L 163.363636 -158.571927 
L 160.545455 -160.060717 
L 157.727273 -161.619799 
L 154.909091 -163.140541 
L 152.090909 -164.76703 
L 149.272727 -166.408895 
L 146.454545 -167.980966 
L 143.636364 -169.428629 
L 140.818182 -171.139262 
L 138 -172.869454 
L 135.181818 -174.529459 
L 132.363636 -176.156869 
L 129.545455 -177.682009 
L 126.727273 -179.412913 
L 123.909091 -181.041461 
L 121.090909 -182.669164 
L 118.272727 -184.461085 
L 115.454545 -186.051148 
L 112.636364 -187.551989 
L 109.818182 -189.175437 
L 107 -190.798885 
L 104.181818 -192.290154 
L 101.363636 -193.773698 
L 98.545455 -195.299384 
L 95.727273 -196.897203 
L 92.909091 -198.495022 
L 90.090909 -200.003093 
L 87.272727 -201.459674 
L 84.454545 -202.916256 
L 81.636364 -204.372838 
L 78.818182 -205.829419 
L 76 -207.284421 
L 73.181818 -209.039792 
L 70.363636 -210.802568 
L 67.545455 -212.565344 
L 64.727273 -214.180178 
L 61.909091 -215.718026 
L 59.090909 -217.251938 
L 56.272727 -218.812705 
L 53.454545 -220.485295 
L 50.636364 -222.157885 
L 47.818182 -223.830475 
L 45 -225.503065 
z
" style="stroke: #ffffff; stroke-opacity: 0.15"/>
    </defs>
    <g clip-path="url(#pe6fee455bf)">
     <use xlink:href="#mb6b675645d" x="0" y="288" style="fill: #ff0000; fill-opacity: 0.15; stroke: #ffffff; stroke-opacity: 0.15"/>
    </g>
   </g>
   <g id="line2d_12">
    <path d="M 45 149.556587 
L 47.818182 149.173263 
L 50.636364 148.789939 
L 53.454545 148.406615 
L 56.272727 148.023291 
L 59.090909 147.639968 
L 61.909091 147.256644 
L 64.727273 146.87332 
L 67.545455 146.489996 
L 70.363636 146.106672 
L 73.181818 145.723348 
L 76 145.340024 
L 78.818182 144.9567 
L 81.636364 144.573376 
L 84.454545 144.190053 
L 87.272727 143.806729 
L 90.090909 143.423405 
L 92.909091 143.040081 
L 95.727273 142.656757 
L 98.545455 142.273433 
L 101.363636 141.890109 
L 104.181818 141.506785 
L 107 141.123462 
L 109.818182 140.740138 
L 112.636364 140.356814 
L 115.454545 139.97349 
L 118.272727 139.590166 
L 121.090909 139.206842 
L 123.909091 138.823518 
L 126.727273 138.440194 
L 129.545455 138.056871 
L 132.363636 137.673547 
L 135.181818 137.290223 
L 138 136.906899 
L 140.818182 136.523575 
L 143.636364 136.140251 
L 146.454545 135.756927 
L 149.272727 135.373603 
L 152.090909 134.99028 
L 154.909091 134.606956 
L 157.727273 134.223632 
L 160.545455 133.840308 
L 163.363636 133.456984 
L 166.181818 133.07366 
L 169 132.690336 
L 171.818182 132.307012 
L 174.636364 131.923688 
L 177.454545 131.540365 
L 180.272727 131.157041 
L 183.090909 130.773717 
L 185.909091 130.390393 
L 188.727273 130.007069 
L 191.545455 129.623745 
L 194.363636 129.240421 
L 197.181818 128.857097 
L 200 128.473774 
L 202.818182 128.09045 
L 205.636364 127.707126 
L 208.454545 127.323802 
L 211.272727 126.940478 
L 214.090909 126.557154 
L 216.909091 126.17383 
L 219.727273 125.790506 
L 222.545455 125.407183 
L 225.363636 125.023859 
L 228.181818 124.640535 
L 231 124.257211 
L 233.818182 123.873887 
L 236.636364 123.490563 
L 239.454545 123.107239 
L 242.272727 122.723915 
L 245.090909 122.340592 
L 247.909091 121.957268 
L 250.727273 121.573944 
L 253.545455 121.19062 
L 256.363636 120.807296 
L 259.181818 120.423972 
L 262 120.040648 
L 264.818182 119.657324 
L 267.636364 119.274 
L 270.454545 118.890677 
L 273.272727 118.507353 
L 276.090909 118.124029 
L 278.909091 117.740705 
L 281.727273 117.357381 
L 284.545455 116.974057 
L 287.363636 116.590733 
L 290.181818 116.207409 
L 293 115.824086 
L 295.818182 115.440762 
L 298.636364 115.057438 
L 301.454545 114.674114 
L 304.272727 114.29079 
L 307.090909 113.907466 
L 309.909091 113.524142 
L 312.727273 113.140818 
L 315.545455 112.757495 
L 318.363636 112.374171 
L 321.181818 111.990847 
L 324 111.607523 
" clip-path="url(#pe6fee455bf)" style="fill: none; stroke: #0000ff; stroke-width: 2.25; stroke-linecap: round"/>
   </g>
   <g id="line2d_13">
    <path d="M 45 99.230855 
L 47.818182 100.377449 
L 50.636364 101.524043 
L 53.454545 102.670637 
L 56.272727 103.817231 
L 59.090909 104.963825 
L 61.909091 106.110419 
L 64.727273 107.257013 
L 67.545455 108.403607 
L 70.363636 109.550201 
L 73.181818 110.696795 
L 76 111.843389 
L 78.818182 112.989983 
L 81.636364 114.136577 
L 84.454545 115.283171 
L 87.272727 116.429765 
L 90.090909 117.576359 
L 92.909091 118.722953 
L 95.727273 119.869547 
L 98.545455 121.016141 
L 101.363636 122.162735 
L 104.181818 123.309329 
L 107 124.455923 
L 109.818182 125.602517 
L 112.636364 126.749111 
L 115.454545 127.895705 
L 118.272727 129.042299 
L 121.090909 130.188893 
L 123.909091 131.335487 
L 126.727273 132.482081 
L 129.545455 133.628675 
L 132.363636 134.775269 
L 135.181818 135.921863 
L 138 137.068457 
L 140.818182 138.215051 
L 143.636364 139.361645 
L 146.454545 140.508239 
L 149.272727 141.654833 
L 152.090909 142.801427 
L 154.909091 143.948021 
L 157.727273 145.094615 
L 160.545455 146.241209 
L 163.363636 147.387803 
L 166.181818 148.534397 
L 169 149.680991 
L 171.818182 150.827585 
L 174.636364 151.974179 
L 177.454545 153.120772 
L 180.272727 154.267366 
L 183.090909 155.41396 
L 185.909091 156.560554 
L 188.727273 157.707148 
L 191.545455 158.853742 
L 194.363636 160.000336 
L 197.181818 161.14693 
L 200 162.293524 
L 202.818182 163.440118 
L 205.636364 164.586712 
L 208.454545 165.733306 
L 211.272727 166.8799 
L 214.090909 168.026494 
L 216.909091 169.173088 
L 219.727273 170.319682 
L 222.545455 171.466276 
L 225.363636 172.61287 
L 228.181818 173.759464 
L 231 174.906058 
L 233.818182 176.052652 
L 236.636364 177.199246 
L 239.454545 178.34584 
L 242.272727 179.492434 
L 245.090909 180.639028 
L 247.909091 181.785622 
L 250.727273 182.932216 
L 253.545455 184.07881 
L 256.363636 185.225404 
L 259.181818 186.371998 
L 262 187.518592 
L 264.818182 188.665186 
L 267.636364 189.81178 
L 270.454545 190.958374 
L 273.272727 192.104968 
L 276.090909 193.251562 
L 278.909091 194.398156 
L 281.727273 195.54475 
L 284.545455 196.691344 
L 287.363636 197.837938 
L 290.181818 198.984532 
L 293 200.131126 
L 295.818182 201.27772 
L 298.636364 202.424314 
L 301.454545 203.570908 
L 304.272727 204.717502 
L 307.090909 205.864096 
L 309.909091 207.01069 
L 312.727273 208.157284 
L 315.545455 209.303878 
L 318.363636 210.450472 
L 321.181818 211.597066 
L 324 212.74366 
" clip-path="url(#pe6fee455bf)" style="fill: none; stroke: #ff0000; stroke-width: 2.25; stroke-linecap: round"/>
   </g>
   <g id="patch_3">
    <path d="M 45 256.32 
L 45 34.56 
" style="fill: none; stroke: #ffffff; stroke-width: 0.8; stroke-linejoin: miter; stroke-linecap: square"/>
   </g>
   <g id="patch_4">
    <path d="M 324 256.32 
L 324 34.56 
" style="fill: none; stroke: #ffffff; stroke-width: 0.8; stroke-linejoin: miter; stroke-linecap: square"/>
   </g>
   <g id="patch_5">
    <path d="M 45 256.32 
L 324 256.32 
" style="fill: none; stroke: #ffffff; stroke-width: 0.8; stroke-linejoin: miter; stroke-linecap: square"/>
   </g>
   <g id="patch_6">
    <path d="M 45 34.56 
L 324 34.56 
" style="fill: none; stroke: #ffffff; stroke-width: 0.8; stroke-linejoin: miter; stroke-linecap: square"/>
   </g>
   <g id="text_12">
    <!-- QIDS -->
    <g style="fill: #262626" transform="translate(162.496406 28.56)scale(0.18 -0.18)">
     <defs>
      <path id="Arial-BoldMT-51" d="M 4153 581 
Q 4494 338 4894 194 
L 4553 -459 
Q 4344 -397 4144 -288 
Q 4100 -266 3528 119 
Q 3078 -78 2531 -78 
Q 1475 -78 876 544 
Q 278 1166 278 2291 
Q 278 3413 878 4036 
Q 1478 4659 2506 4659 
Q 3525 4659 4122 4036 
Q 4719 3413 4719 2291 
Q 4719 1697 4553 1247 
Q 4428 903 4153 581 
z
M 3409 1103 
Q 3588 1313 3677 1609 
Q 3766 1906 3766 2291 
Q 3766 3084 3416 3476 
Q 3066 3869 2500 3869 
Q 1934 3869 1582 3475 
Q 1231 3081 1231 2291 
Q 1231 1488 1582 1089 
Q 1934 691 2472 691 
Q 2672 691 2850 756 
Q 2569 941 2278 1044 
L 2538 1572 
Q 2994 1416 3409 1103 
z
" transform="scale(0.015625)"/>
      <path id="Arial-BoldMT-49" d="M 438 0 
L 438 4581 
L 1363 4581 
L 1363 0 
L 438 0 
z
" transform="scale(0.015625)"/>
      <path id="Arial-BoldMT-44" d="M 463 4581 
L 2153 4581 
Q 2725 4581 3025 4494 
Q 3428 4375 3715 4072 
Q 4003 3769 4153 3330 
Q 4303 2891 4303 2247 
Q 4303 1681 4163 1272 
Q 3991 772 3672 463 
Q 3431 228 3022 97 
Q 2716 0 2203 0 
L 463 0 
L 463 4581 
z
M 1388 3806 
L 1388 772 
L 2078 772 
Q 2466 772 2638 816 
Q 2863 872 3011 1006 
Q 3159 1141 3253 1448 
Q 3347 1756 3347 2288 
Q 3347 2819 3253 3103 
Q 3159 3388 2990 3547 
Q 2822 3706 2563 3763 
Q 2369 3806 1803 3806 
L 1388 3806 
z
" transform="scale(0.015625)"/>
      <path id="Arial-BoldMT-53" d="M 231 1491 
L 1131 1578 
Q 1213 1125 1461 912 
Q 1709 700 2131 700 
Q 2578 700 2804 889 
Q 3031 1078 3031 1331 
Q 3031 1494 2936 1608 
Q 2841 1722 2603 1806 
Q 2441 1863 1863 2006 
Q 1119 2191 819 2459 
Q 397 2838 397 3381 
Q 397 3731 595 4036 
Q 794 4341 1167 4500 
Q 1541 4659 2069 4659 
Q 2931 4659 3367 4281 
Q 3803 3903 3825 3272 
L 2900 3231 
Q 2841 3584 2645 3739 
Q 2450 3894 2059 3894 
Q 1656 3894 1428 3728 
Q 1281 3622 1281 3444 
Q 1281 3281 1419 3166 
Q 1594 3019 2269 2859 
Q 2944 2700 3267 2529 
Q 3591 2359 3773 2064 
Q 3956 1769 3956 1334 
Q 3956 941 3737 597 
Q 3519 253 3119 86 
Q 2719 -81 2122 -81 
Q 1253 -81 787 320 
Q 322 722 231 1491 
z
" transform="scale(0.015625)"/>
     </defs>
     <use xlink:href="#Arial-BoldMT-51"/>
     <use xlink:href="#Arial-BoldMT-49" x="77.783203"/>
     <use xlink:href="#Arial-BoldMT-44" x="105.566406"/>
     <use xlink:href="#Arial-BoldMT-53" x="177.783203"/>
    </g>
   </g>
  </g>
 </g>
 <defs>
  <clipPath id="pe6fee455bf">
   <rect x="45" y="34.56" width="279" height="221.76"/>
  </clipPath>
 </defs>
</svg>
