<?xml version="1.0" encoding="utf-8" standalone="no"?>
<!DOCTYPE svg PUBLIC "-//W3C//DTD SVG 1.1//EN"
  "http://www.w3.org/Graphics/SVG/1.1/DTD/svg11.dtd">
<svg xmlns:xlink="http://www.w3.org/1999/xlink" width="360pt" height="288pt" viewBox="0 0 360 288" xmlns="http://www.w3.org/2000/svg" version="1.1">
 <metadata>
  <rdf:RDF xmlns:dc="http://purl.org/dc/elements/1.1/" xmlns:cc="http://creativecommons.org/ns#" xmlns:rdf="http://www.w3.org/1999/02/22-rdf-syntax-ns#">
   <cc:Work>
    <dc:type rdf:resource="http://purl.org/dc/dcmitype/StillImage"/>
    <dc:date>2022-11-10T09:39:09.862843</dc:date>
    <dc:format>image/svg+xml</dc:format>
    <dc:creator>
     <cc:Agent>
      <dc:title>Matplotlib v3.5.2, https://matplotlib.org/</dc:title>
     </cc:Agent>
    </dc:creator>
   </cc:Work>
  </rdf:RDF>
 </metadata>
 <defs>
  <style type="text/css">*{stroke-linejoin: round; stroke-linecap: butt}</style>
 </defs>
 <g id="figure_1">
  <g id="patch_1">
   <path d="M 0 288 
L 360 288 
L 360 0 
L 0 0 
z
" style="fill: #ffffff"/>
  </g>
  <g id="axes_1">
   <g id="patch_2">
    <path d="M 45 256.32 
L 324 256.32 
L 324 34.56 
L 45 34.56 
z
" style="fill: #eaeaf2"/>
   </g>
   <g id="matplotlib.axis_1">
    <g id="xtick_1">
     <g id="line2d_1">
      <path d="M 45 256.32 
L 45 34.56 
" clip-path="url(#p4119e80a98)" style="fill: none; stroke: #ffffff; stroke-width: 0.8; stroke-linecap: round"/>
     </g>
     <g id="text_1">
      <!-- 0 -->
      <g style="fill: #262626" transform="translate(41.107344 273.340937)scale(0.14 -0.14)">
       <defs>
        <path id="ArialMT-30" d="M 266 2259 
Q 266 3072 433 3567 
Q 600 4063 929 4331 
Q 1259 4600 1759 4600 
Q 2128 4600 2406 4451 
Q 2684 4303 2865 4023 
Q 3047 3744 3150 3342 
Q 3253 2941 3253 2259 
Q 3253 1453 3087 958 
Q 2922 463 2592 192 
Q 2263 -78 1759 -78 
Q 1097 -78 719 397 
Q 266 969 266 2259 
z
M 844 2259 
Q 844 1131 1108 757 
Q 1372 384 1759 384 
Q 2147 384 2411 759 
Q 2675 1134 2675 2259 
Q 2675 3391 2411 3762 
Q 2147 4134 1753 4134 
Q 1366 4134 1134 3806 
Q 844 3388 844 2259 
z
" transform="scale(0.015625)"/>
       </defs>
       <use xlink:href="#ArialMT-30"/>
      </g>
     </g>
    </g>
    <g id="xtick_2">
     <g id="line2d_2">
      <path d="M 100.8 256.32 
L 100.8 34.56 
" clip-path="url(#p4119e80a98)" style="fill: none; stroke: #ffffff; stroke-width: 0.8; stroke-linecap: round"/>
     </g>
     <g id="text_2">
      <!-- 20 -->
      <g style="fill: #262626" transform="translate(93.014687 273.340937)scale(0.14 -0.14)">
       <defs>
        <path id="ArialMT-32" d="M 3222 541 
L 3222 0 
L 194 0 
Q 188 203 259 391 
Q 375 700 629 1000 
Q 884 1300 1366 1694 
Q 2113 2306 2375 2664 
Q 2638 3022 2638 3341 
Q 2638 3675 2398 3904 
Q 2159 4134 1775 4134 
Q 1369 4134 1125 3890 
Q 881 3647 878 3216 
L 300 3275 
Q 359 3922 746 4261 
Q 1134 4600 1788 4600 
Q 2447 4600 2831 4234 
Q 3216 3869 3216 3328 
Q 3216 3053 3103 2787 
Q 2991 2522 2730 2228 
Q 2469 1934 1863 1422 
Q 1356 997 1212 845 
Q 1069 694 975 541 
L 3222 541 
z
" transform="scale(0.015625)"/>
       </defs>
       <use xlink:href="#ArialMT-32"/>
       <use xlink:href="#ArialMT-30" x="55.615234"/>
      </g>
     </g>
    </g>
    <g id="xtick_3">
     <g id="line2d_3">
      <path d="M 156.6 256.32 
L 156.6 34.56 
" clip-path="url(#p4119e80a98)" style="fill: none; stroke: #ffffff; stroke-width: 0.8; stroke-linecap: round"/>
     </g>
     <g id="text_3">
      <!-- 40 -->
      <g style="fill: #262626" transform="translate(148.814687 273.340937)scale(0.14 -0.14)">
       <defs>
        <path id="ArialMT-34" d="M 2069 0 
L 2069 1097 
L 81 1097 
L 81 1613 
L 2172 4581 
L 2631 4581 
L 2631 1613 
L 3250 1613 
L 3250 1097 
L 2631 1097 
L 2631 0 
L 2069 0 
z
M 2069 1613 
L 2069 3678 
L 634 1613 
L 2069 1613 
z
" transform="scale(0.015625)"/>
       </defs>
       <use xlink:href="#ArialMT-34"/>
       <use xlink:href="#ArialMT-30" x="55.615234"/>
      </g>
     </g>
    </g>
    <g id="xtick_4">
     <g id="line2d_4">
      <path d="M 212.4 256.32 
L 212.4 34.56 
" clip-path="url(#p4119e80a98)" style="fill: none; stroke: #ffffff; stroke-width: 0.8; stroke-linecap: round"/>
     </g>
     <g id="text_4">
      <!-- 60 -->
      <g style="fill: #262626" transform="translate(204.614688 273.340937)scale(0.14 -0.14)">
       <defs>
        <path id="ArialMT-36" d="M 3184 3459 
L 2625 3416 
Q 2550 3747 2413 3897 
Q 2184 4138 1850 4138 
Q 1581 4138 1378 3988 
Q 1113 3794 959 3422 
Q 806 3050 800 2363 
Q 1003 2672 1297 2822 
Q 1591 2972 1913 2972 
Q 2475 2972 2870 2558 
Q 3266 2144 3266 1488 
Q 3266 1056 3080 686 
Q 2894 316 2569 119 
Q 2244 -78 1831 -78 
Q 1128 -78 684 439 
Q 241 956 241 2144 
Q 241 3472 731 4075 
Q 1159 4600 1884 4600 
Q 2425 4600 2770 4297 
Q 3116 3994 3184 3459 
z
M 888 1484 
Q 888 1194 1011 928 
Q 1134 663 1356 523 
Q 1578 384 1822 384 
Q 2178 384 2434 671 
Q 2691 959 2691 1453 
Q 2691 1928 2437 2201 
Q 2184 2475 1800 2475 
Q 1419 2475 1153 2201 
Q 888 1928 888 1484 
z
" transform="scale(0.015625)"/>
       </defs>
       <use xlink:href="#ArialMT-36"/>
       <use xlink:href="#ArialMT-30" x="55.615234"/>
      </g>
     </g>
    </g>
    <g id="xtick_5">
     <g id="line2d_5">
      <path d="M 268.2 256.32 
L 268.2 34.56 
" clip-path="url(#p4119e80a98)" style="fill: none; stroke: #ffffff; stroke-width: 0.8; stroke-linecap: round"/>
     </g>
     <g id="text_5">
      <!-- 80 -->
      <g style="fill: #262626" transform="translate(260.414688 273.340937)scale(0.14 -0.14)">
       <defs>
        <path id="ArialMT-38" d="M 1131 2484 
Q 781 2613 612 2850 
Q 444 3088 444 3419 
Q 444 3919 803 4259 
Q 1163 4600 1759 4600 
Q 2359 4600 2725 4251 
Q 3091 3903 3091 3403 
Q 3091 3084 2923 2848 
Q 2756 2613 2416 2484 
Q 2838 2347 3058 2040 
Q 3278 1734 3278 1309 
Q 3278 722 2862 322 
Q 2447 -78 1769 -78 
Q 1091 -78 675 323 
Q 259 725 259 1325 
Q 259 1772 486 2073 
Q 713 2375 1131 2484 
z
M 1019 3438 
Q 1019 3113 1228 2906 
Q 1438 2700 1772 2700 
Q 2097 2700 2305 2904 
Q 2513 3109 2513 3406 
Q 2513 3716 2298 3927 
Q 2084 4138 1766 4138 
Q 1444 4138 1231 3931 
Q 1019 3725 1019 3438 
z
M 838 1322 
Q 838 1081 952 856 
Q 1066 631 1291 507 
Q 1516 384 1775 384 
Q 2178 384 2440 643 
Q 2703 903 2703 1303 
Q 2703 1709 2433 1975 
Q 2163 2241 1756 2241 
Q 1359 2241 1098 1978 
Q 838 1716 838 1322 
z
" transform="scale(0.015625)"/>
       </defs>
       <use xlink:href="#ArialMT-38"/>
       <use xlink:href="#ArialMT-30" x="55.615234"/>
      </g>
     </g>
    </g>
    <g id="xtick_6">
     <g id="line2d_6">
      <path d="M 324 256.32 
L 324 34.56 
" clip-path="url(#p4119e80a98)" style="fill: none; stroke: #ffffff; stroke-width: 0.8; stroke-linecap: round"/>
     </g>
     <g id="text_6">
      <!-- 100 -->
      <g style="fill: #262626" transform="translate(312.322031 273.340937)scale(0.14 -0.14)">
       <defs>
        <path id="ArialMT-31" d="M 2384 0 
L 1822 0 
L 1822 3584 
Q 1619 3391 1289 3197 
Q 959 3003 697 2906 
L 697 3450 
Q 1169 3672 1522 3987 
Q 1875 4303 2022 4600 
L 2384 4600 
L 2384 0 
z
" transform="scale(0.015625)"/>
       </defs>
       <use xlink:href="#ArialMT-31"/>
       <use xlink:href="#ArialMT-30" x="55.615234"/>
       <use xlink:href="#ArialMT-30" x="111.230469"/>
      </g>
     </g>
    </g>
   </g>
   <g id="matplotlib.axis_2">
    <g id="ytick_1">
     <g id="line2d_7">
      <path d="M 45 204.991658 
L 324 204.991658 
" clip-path="url(#p4119e80a98)" style="fill: none; stroke: #ffffff; stroke-width: 0.8; stroke-linecap: round"/>
     </g>
     <g id="text_7">
      <!-- −20 -->
      <g style="fill: #262626" transform="translate(14.2525 210.002126)scale(0.14 -0.14)">
       <defs>
        <path id="ArialMT-2212" d="M 3381 1997 
L 356 1997 
L 356 2522 
L 3381 2522 
L 3381 1997 
z
" transform="scale(0.015625)"/>
       </defs>
       <use xlink:href="#ArialMT-2212"/>
       <use xlink:href="#ArialMT-32" x="58.398438"/>
       <use xlink:href="#ArialMT-30" x="114.013672"/>
      </g>
     </g>
    </g>
    <g id="ytick_2">
     <g id="line2d_8">
      <path d="M 45 143.317943 
L 324 143.317943 
" clip-path="url(#p4119e80a98)" style="fill: none; stroke: #ffffff; stroke-width: 0.8; stroke-linecap: round"/>
     </g>
     <g id="text_8">
      <!-- −10 -->
      <g style="fill: #262626" transform="translate(14.2525 148.328412)scale(0.14 -0.14)">
       <use xlink:href="#ArialMT-2212"/>
       <use xlink:href="#ArialMT-31" x="58.398438"/>
       <use xlink:href="#ArialMT-30" x="114.013672"/>
      </g>
     </g>
    </g>
    <g id="ytick_3">
     <g id="line2d_9">
      <path d="M 45 81.644229 
L 324 81.644229 
" clip-path="url(#p4119e80a98)" style="fill: none; stroke: #ffffff; stroke-width: 0.8; stroke-linecap: round"/>
     </g>
     <g id="text_9">
      <!-- 0 -->
      <g style="fill: #262626" transform="translate(30.214688 86.654697)scale(0.14 -0.14)">
       <use xlink:href="#ArialMT-30"/>
      </g>
     </g>
    </g>
   </g>
   <g id="PathCollection_1">
    <defs>
     <path id="m92745c719a" d="M 0 1.322876 
C 0.350831 1.322876 0.68734 1.183489 0.935414 0.935414 
C 1.183489 0.68734 1.322876 0.350831 1.322876 0 
C 1.322876 -0.350831 1.183489 -0.68734 0.935414 -0.935414 
C 0.68734 -1.183489 0.350831 -1.322876 0 -1.322876 
C -0.350831 -1.322876 -0.68734 -1.183489 -0.935414 -0.935414 
C -1.183489 -0.68734 -1.322876 -0.350831 -1.322876 0 
C -1.322876 0.350831 -1.183489 0.68734 -0.935414 0.935414 
C -0.68734 1.183489 -0.350831 1.322876 0 1.322876 
z
" style="stroke: #0000ff; stroke-opacity: 0.5"/>
    </defs>
    <g clip-path="url(#p4119e80a98)">
     <use xlink:href="#m92745c719a" x="72.9" y="149.485315" style="fill: #0000ff; fill-opacity: 0.5; stroke: #0000ff; stroke-opacity: 0.5"/>
     <use xlink:href="#m92745c719a" x="187.29" y="93.978972" style="fill: #0000ff; fill-opacity: 0.5; stroke: #0000ff; stroke-opacity: 0.5"/>
     <use xlink:href="#m92745c719a" x="128.7" y="137.150572" style="fill: #0000ff; fill-opacity: 0.5; stroke: #0000ff; stroke-opacity: 0.5"/>
     <use xlink:href="#m92745c719a" x="201.24" y="112.481086" style="fill: #0000ff; fill-opacity: 0.5; stroke: #0000ff; stroke-opacity: 0.5"/>
     <use xlink:href="#m92745c719a" x="137.07" y="100.146343" style="fill: #0000ff; fill-opacity: 0.5; stroke: #0000ff; stroke-opacity: 0.5"/>
     <use xlink:href="#m92745c719a" x="156.6" y="124.815829" style="fill: #0000ff; fill-opacity: 0.5; stroke: #0000ff; stroke-opacity: 0.5"/>
     <use xlink:href="#m92745c719a" x="142.65" y="106.313714" style="fill: #0000ff; fill-opacity: 0.5; stroke: #0000ff; stroke-opacity: 0.5"/>
     <use xlink:href="#m92745c719a" x="128.7" y="106.313714" style="fill: #0000ff; fill-opacity: 0.5; stroke: #0000ff; stroke-opacity: 0.5"/>
     <use xlink:href="#m92745c719a" x="53.37" y="56.974743" style="fill: #0000ff; fill-opacity: 0.5; stroke: #0000ff; stroke-opacity: 0.5"/>
     <use xlink:href="#m92745c719a" x="184.5" y="167.987429" style="fill: #0000ff; fill-opacity: 0.5; stroke: #0000ff; stroke-opacity: 0.5"/>
     <use xlink:href="#m92745c719a" x="254.25" y="137.150572" style="fill: #0000ff; fill-opacity: 0.5; stroke: #0000ff; stroke-opacity: 0.5"/>
     <use xlink:href="#m92745c719a" x="58.95" y="87.8116" style="fill: #0000ff; fill-opacity: 0.5; stroke: #0000ff; stroke-opacity: 0.5"/>
     <use xlink:href="#m92745c719a" x="184.5" y="124.815829" style="fill: #0000ff; fill-opacity: 0.5; stroke: #0000ff; stroke-opacity: 0.5"/>
     <use xlink:href="#m92745c719a" x="58.95" y="87.8116" style="fill: #0000ff; fill-opacity: 0.5; stroke: #0000ff; stroke-opacity: 0.5"/>
     <use xlink:href="#m92745c719a" x="45" y="87.8116" style="fill: #0000ff; fill-opacity: 0.5; stroke: #0000ff; stroke-opacity: 0.5"/>
     <use xlink:href="#m92745c719a" x="100.8" y="100.146343" style="fill: #0000ff; fill-opacity: 0.5; stroke: #0000ff; stroke-opacity: 0.5"/>
     <use xlink:href="#m92745c719a" x="72.9" y="87.8116" style="fill: #0000ff; fill-opacity: 0.5; stroke: #0000ff; stroke-opacity: 0.5"/>
     <use xlink:href="#m92745c719a" x="72.9" y="81.644229" style="fill: #0000ff; fill-opacity: 0.5; stroke: #0000ff; stroke-opacity: 0.5"/>
     <use xlink:href="#m92745c719a" x="100.8" y="100.146343" style="fill: #0000ff; fill-opacity: 0.5; stroke: #0000ff; stroke-opacity: 0.5"/>
     <use xlink:href="#m92745c719a" x="128.7" y="93.978972" style="fill: #0000ff; fill-opacity: 0.5; stroke: #0000ff; stroke-opacity: 0.5"/>
     <use xlink:href="#m92745c719a" x="86.85" y="44.64" style="fill: #0000ff; fill-opacity: 0.5; stroke: #0000ff; stroke-opacity: 0.5"/>
     <use xlink:href="#m92745c719a" x="72.9" y="75.476857" style="fill: #0000ff; fill-opacity: 0.5; stroke: #0000ff; stroke-opacity: 0.5"/>
     <use xlink:href="#m92745c719a" x="114.75" y="124.815829" style="fill: #0000ff; fill-opacity: 0.5; stroke: #0000ff; stroke-opacity: 0.5"/>
     <use xlink:href="#m92745c719a" x="229.14" y="198.824286" style="fill: #0000ff; fill-opacity: 0.5; stroke: #0000ff; stroke-opacity: 0.5"/>
     <use xlink:href="#m92745c719a" x="47.79" y="81.644229" style="fill: #0000ff; fill-opacity: 0.5; stroke: #0000ff; stroke-opacity: 0.5"/>
     <use xlink:href="#m92745c719a" x="190.08" y="155.652686" style="fill: #0000ff; fill-opacity: 0.5; stroke: #0000ff; stroke-opacity: 0.5"/>
     <use xlink:href="#m92745c719a" x="184.5" y="87.8116" style="fill: #0000ff; fill-opacity: 0.5; stroke: #0000ff; stroke-opacity: 0.5"/>
     <use xlink:href="#m92745c719a" x="184.5" y="198.824286" style="fill: #0000ff; fill-opacity: 0.5; stroke: #0000ff; stroke-opacity: 0.5"/>
    </g>
   </g>
   <g id="PolyCollection_1">
    <defs>
     <path id="m5cbbafaccd" d="M 45 -228.167259 
L 45 -197.960451 
L 47.818182 -197.246128 
L 50.636364 -196.450856 
L 53.454545 -195.655583 
L 56.272727 -194.864565 
L 59.090909 -194.077816 
L 61.909091 -193.474902 
L 64.727273 -192.519897 
L 67.545455 -191.693728 
L 70.363636 -190.861562 
L 73.181818 -189.868202 
L 76 -189.009256 
L 78.818182 -187.870895 
L 81.636364 -186.997986 
L 84.454545 -185.693632 
L 87.272727 -184.824699 
L 90.090909 -183.958923 
L 92.909091 -182.796759 
L 95.727273 -181.576646 
L 98.545455 -180.447914 
L 101.363636 -179.271767 
L 104.181818 -177.8777 
L 107 -176.765449 
L 109.818182 -175.473924 
L 112.636364 -173.888201 
L 115.454545 -172.623905 
L 118.272727 -171.272394 
L 121.090909 -169.782506 
L 123.909091 -168.24446 
L 126.727273 -166.579488 
L 129.545455 -165.189682 
L 132.363636 -163.391899 
L 135.181818 -161.835142 
L 138 -160.120069 
L 140.818182 -158.532338 
L 143.636364 -157.030396 
L 146.454545 -155.348144 
L 149.272727 -153.554 
L 152.090909 -151.96557 
L 154.909091 -150.141825 
L 157.727273 -148.380865 
L 160.545455 -146.637516 
L 163.363636 -144.89517 
L 166.181818 -143.113057 
L 169 -141.359471 
L 171.818182 -139.592776 
L 174.636364 -137.826081 
L 177.454545 -136.047211 
L 180.272727 -134.287485 
L 183.090909 -132.51824 
L 185.909091 -130.750365 
L 188.727273 -128.982489 
L 191.545455 -127.214613 
L 194.363636 -125.449434 
L 197.181818 -123.812287 
L 200 -122.089569 
L 202.818182 -120.240323 
L 205.636364 -118.391077 
L 208.454545 -116.610918 
L 211.272727 -114.840928 
L 214.090909 -113.071609 
L 216.909091 -111.09681 
L 219.727273 -109.383191 
L 222.545455 -107.684361 
L 225.363636 -105.795271 
L 228.181818 -103.987617 
L 231 -102.082406 
L 233.818182 -100.329547 
L 236.636364 -98.576688 
L 239.454545 -96.823829 
L 242.272727 -95.071871 
L 245.090909 -93.322652 
L 247.909091 -91.573432 
L 250.727273 -89.824213 
L 253.545455 -87.959487 
L 256.363636 -86.05221 
L 259.181818 -84.146322 
L 262 -82.240434 
L 264.818182 -80.525672 
L 267.636364 -78.705356 
L 270.454545 -76.660604 
L 273.272727 -74.740206 
L 276.090909 -72.956355 
L 278.909091 -71.014547 
L 281.727273 -69.194443 
L 284.545455 -67.395829 
L 287.363636 -65.597215 
L 290.181818 -63.798601 
L 293 -61.999986 
L 295.818182 -60.201372 
L 298.636364 -58.402758 
L 301.454545 -56.60449 
L 304.272727 -54.807775 
L 307.090909 -53.011517 
L 309.909091 -51.215259 
L 312.727273 -49.324498 
L 315.545455 -47.433373 
L 318.363636 -45.542249 
L 321.181818 -43.651124 
L 324 -41.76 
L 324 -144.62374 
L 324 -144.62374 
L 321.181818 -145.204097 
L 318.363636 -145.784454 
L 315.545455 -146.364811 
L 312.727273 -146.945167 
L 309.909091 -147.525524 
L 307.090909 -148.139596 
L 304.272727 -148.794138 
L 301.454545 -149.44868 
L 298.636364 -150.103221 
L 295.818182 -150.757763 
L 293 -151.412304 
L 290.181818 -152.066846 
L 287.363636 -152.637257 
L 284.545455 -153.197447 
L 281.727273 -153.757638 
L 278.909091 -154.365992 
L 276.090909 -155.006259 
L 273.272727 -155.496327 
L 270.454545 -155.989124 
L 267.636364 -156.548995 
L 264.818182 -157.108867 
L 262 -157.668738 
L 259.181818 -158.22861 
L 256.363636 -158.807872 
L 253.545455 -159.437622 
L 250.727273 -160.067372 
L 247.909091 -160.697122 
L 245.090909 -161.326872 
L 242.272727 -161.954851 
L 239.454545 -162.575344 
L 236.636364 -163.195838 
L 233.818182 -163.808659 
L 231 -164.4549 
L 228.181818 -165.085477 
L 225.363636 -165.664112 
L 222.545455 -166.14796 
L 219.727273 -166.722477 
L 216.909091 -167.406947 
L 214.090909 -168.091417 
L 211.272727 -168.775887 
L 208.454545 -169.460357 
L 205.636364 -170.119187 
L 202.818182 -170.758903 
L 200 -171.516745 
L 197.181818 -172.204982 
L 194.363636 -172.89271 
L 191.545455 -173.57554 
L 188.727273 -174.161406 
L 185.909091 -174.720265 
L 183.090909 -175.279088 
L 180.272727 -175.837911 
L 177.454545 -176.412983 
L 174.636364 -176.955558 
L 171.818182 -177.514381 
L 169 -178.073204 
L 166.181818 -178.815393 
L 163.363636 -179.559415 
L 160.545455 -180.142769 
L 157.727273 -180.746611 
L 154.909091 -181.474825 
L 152.090909 -182.272534 
L 149.272727 -182.884918 
L 146.454545 -183.663823 
L 143.636364 -184.46553 
L 140.818182 -185.326707 
L 138 -186.195494 
L 135.181818 -186.854855 
L 132.363636 -187.651593 
L 129.545455 -188.508737 
L 126.727273 -189.24456 
L 123.909091 -190.043092 
L 121.090909 -190.904391 
L 118.272727 -191.763453 
L 115.454545 -192.661192 
L 112.636364 -193.586035 
L 109.818182 -194.409192 
L 107 -195.436674 
L 104.181818 -196.56987 
L 101.363636 -197.811451 
L 98.545455 -198.867014 
L 95.727273 -199.907855 
L 92.909091 -201.036094 
L 90.090909 -202.547467 
L 87.272727 -203.861323 
L 84.454545 -205.260406 
L 81.636364 -206.642342 
L 78.818182 -208.183285 
L 76 -209.962147 
L 73.181818 -211.55545 
L 70.363636 -213.009409 
L 67.545455 -214.658161 
L 64.727273 -216.349267 
L 61.909091 -218.034971 
L 59.090909 -219.806912 
L 56.272727 -221.564485 
L 53.454545 -223.434827 
L 50.636364 -224.800595 
L 47.818182 -226.485871 
L 45 -228.167259 
z
" style="stroke: #ffffff; stroke-opacity: 0.15"/>
    </defs>
    <g clip-path="url(#p4119e80a98)">
     <use xlink:href="#m5cbbafaccd" x="0" y="288" style="fill: #0000ff; fill-opacity: 0.15; stroke: #ffffff; stroke-opacity: 0.15"/>
    </g>
   </g>
   <g id="PathCollection_2">
    <defs>
     <path id="mcaf5cd9623" d="M 0 1.322876 
C 0.350831 1.322876 0.68734 1.183489 0.935414 0.935414 
C 1.183489 0.68734 1.322876 0.350831 1.322876 0 
C 1.322876 -0.350831 1.183489 -0.68734 0.935414 -0.935414 
C 0.68734 -1.183489 0.350831 -1.322876 0 -1.322876 
C -0.350831 -1.322876 -0.68734 -1.183489 -0.935414 -0.935414 
C -1.183489 -0.68734 -1.322876 -0.350831 -1.322876 0 
C -1.322876 0.350831 -1.183489 0.68734 -0.935414 0.935414 
C -0.68734 1.183489 -0.350831 1.322876 0 1.322876 
z
" style="stroke: #ff0000; stroke-opacity: 0.5"/>
    </defs>
    <g clip-path="url(#p4119e80a98)">
     <use xlink:href="#mcaf5cd9623" x="318.42" y="106.313714" style="fill: #ff0000; fill-opacity: 0.5; stroke: #ff0000; stroke-opacity: 0.5"/>
     <use xlink:href="#mcaf5cd9623" x="114.75" y="174.1548" style="fill: #ff0000; fill-opacity: 0.5; stroke: #ff0000; stroke-opacity: 0.5"/>
     <use xlink:href="#mcaf5cd9623" x="184.5" y="81.644229" style="fill: #ff0000; fill-opacity: 0.5; stroke: #ff0000; stroke-opacity: 0.5"/>
     <use xlink:href="#mcaf5cd9623" x="229.14" y="130.9832" style="fill: #ff0000; fill-opacity: 0.5; stroke: #ff0000; stroke-opacity: 0.5"/>
     <use xlink:href="#mcaf5cd9623" x="254.25" y="174.1548" style="fill: #ff0000; fill-opacity: 0.5; stroke: #ff0000; stroke-opacity: 0.5"/>
     <use xlink:href="#mcaf5cd9623" x="53.37" y="149.485315" style="fill: #ff0000; fill-opacity: 0.5; stroke: #ff0000; stroke-opacity: 0.5"/>
     <use xlink:href="#mcaf5cd9623" x="268.2" y="186.489543" style="fill: #ff0000; fill-opacity: 0.5; stroke: #ff0000; stroke-opacity: 0.5"/>
     <use xlink:href="#mcaf5cd9623" x="137.07" y="174.1548" style="fill: #ff0000; fill-opacity: 0.5; stroke: #ff0000; stroke-opacity: 0.5"/>
     <use xlink:href="#mcaf5cd9623" x="184.5" y="174.1548" style="fill: #ff0000; fill-opacity: 0.5; stroke: #ff0000; stroke-opacity: 0.5"/>
     <use xlink:href="#mcaf5cd9623" x="248.67" y="174.1548" style="fill: #ff0000; fill-opacity: 0.5; stroke: #ff0000; stroke-opacity: 0.5"/>
     <use xlink:href="#mcaf5cd9623" x="296.1" y="118.648457" style="fill: #ff0000; fill-opacity: 0.5; stroke: #ff0000; stroke-opacity: 0.5"/>
     <use xlink:href="#mcaf5cd9623" x="254.25" y="124.815829" style="fill: #ff0000; fill-opacity: 0.5; stroke: #ff0000; stroke-opacity: 0.5"/>
     <use xlink:href="#mcaf5cd9623" x="240.3" y="174.1548" style="fill: #ff0000; fill-opacity: 0.5; stroke: #ff0000; stroke-opacity: 0.5"/>
     <use xlink:href="#mcaf5cd9623" x="184.5" y="180.322172" style="fill: #ff0000; fill-opacity: 0.5; stroke: #ff0000; stroke-opacity: 0.5"/>
     <use xlink:href="#mcaf5cd9623" x="220.77" y="130.9832" style="fill: #ff0000; fill-opacity: 0.5; stroke: #ff0000; stroke-opacity: 0.5"/>
     <use xlink:href="#mcaf5cd9623" x="120.33" y="186.489543" style="fill: #ff0000; fill-opacity: 0.5; stroke: #ff0000; stroke-opacity: 0.5"/>
     <use xlink:href="#mcaf5cd9623" x="173.34" y="167.987429" style="fill: #ff0000; fill-opacity: 0.5; stroke: #ff0000; stroke-opacity: 0.5"/>
     <use xlink:href="#mcaf5cd9623" x="240.3" y="161.820057" style="fill: #ff0000; fill-opacity: 0.5; stroke: #ff0000; stroke-opacity: 0.5"/>
     <use xlink:href="#mcaf5cd9623" x="156.6" y="174.1548" style="fill: #ff0000; fill-opacity: 0.5; stroke: #ff0000; stroke-opacity: 0.5"/>
     <use xlink:href="#mcaf5cd9623" x="226.35" y="137.150572" style="fill: #ff0000; fill-opacity: 0.5; stroke: #ff0000; stroke-opacity: 0.5"/>
     <use xlink:href="#mcaf5cd9623" x="212.4" y="137.150572" style="fill: #ff0000; fill-opacity: 0.5; stroke: #ff0000; stroke-opacity: 0.5"/>
     <use xlink:href="#mcaf5cd9623" x="268.2" y="180.322172" style="fill: #ff0000; fill-opacity: 0.5; stroke: #ff0000; stroke-opacity: 0.5"/>
     <use xlink:href="#mcaf5cd9623" x="212.4" y="100.146343" style="fill: #ff0000; fill-opacity: 0.5; stroke: #ff0000; stroke-opacity: 0.5"/>
     <use xlink:href="#mcaf5cd9623" x="215.19" y="161.820057" style="fill: #ff0000; fill-opacity: 0.5; stroke: #ff0000; stroke-opacity: 0.5"/>
     <use xlink:href="#mcaf5cd9623" x="184.5" y="75.476857" style="fill: #ff0000; fill-opacity: 0.5; stroke: #ff0000; stroke-opacity: 0.5"/>
     <use xlink:href="#mcaf5cd9623" x="212.4" y="161.820057" style="fill: #ff0000; fill-opacity: 0.5; stroke: #ff0000; stroke-opacity: 0.5"/>
    </g>
   </g>
   <g id="PolyCollection_2">
    <defs>
     <path id="m31c508f298" d="M 45 -153.092985 
L 45 -78.411747 
L 47.818182 -79.335281 
L 50.636364 -80.264342 
L 53.454545 -81.195596 
L 56.272727 -82.129836 
L 59.090909 -83.064077 
L 61.909091 -83.998317 
L 64.727273 -84.933622 
L 67.545455 -85.883987 
L 70.363636 -86.879013 
L 73.181818 -87.781924 
L 76 -88.742822 
L 78.818182 -89.730207 
L 81.636364 -90.71536 
L 84.454545 -91.701464 
L 87.272727 -92.690403 
L 90.090909 -93.679342 
L 92.909091 -94.649882 
L 95.727273 -95.57516 
L 98.545455 -96.420897 
L 101.363636 -97.21306 
L 104.181818 -98.114039 
L 107 -99.139711 
L 109.818182 -100.005869 
L 112.636364 -100.83732 
L 115.454545 -101.878876 
L 118.272727 -102.697138 
L 121.090909 -103.590886 
L 123.909091 -104.523011 
L 126.727273 -105.390408 
L 129.545455 -106.355996 
L 132.363636 -107.317686 
L 135.181818 -108.249559 
L 138 -108.841311 
L 140.818182 -109.548576 
L 143.636364 -110.215571 
L 146.454545 -111.139966 
L 149.272727 -111.961607 
L 152.090909 -112.783107 
L 154.909091 -113.580515 
L 157.727273 -114.266246 
L 160.545455 -114.876293 
L 163.363636 -115.524109 
L 166.181818 -116.23942 
L 169 -116.565631 
L 171.818182 -117.096666 
L 174.636364 -117.657137 
L 177.454545 -117.993336 
L 180.272727 -118.308529 
L 183.090909 -118.455766 
L 185.909091 -118.937883 
L 188.727273 -119.372871 
L 191.545455 -119.901252 
L 194.363636 -119.904191 
L 197.181818 -119.98228 
L 200 -119.999682 
L 202.818182 -120.119393 
L 205.636364 -120.033125 
L 208.454545 -119.896104 
L 211.272727 -119.759083 
L 214.090909 -119.651583 
L 216.909091 -119.761933 
L 219.727273 -119.686172 
L 222.545455 -119.574145 
L 225.363636 -119.906474 
L 228.181818 -120.178982 
L 231 -120.017606 
L 233.818182 -119.764273 
L 236.636364 -119.774037 
L 239.454545 -119.70649 
L 242.272727 -119.830615 
L 245.090909 -119.954739 
L 247.909091 -119.838316 
L 250.727273 -119.88909 
L 253.545455 -119.809315 
L 256.363636 -119.660507 
L 259.181818 -119.520127 
L 262 -119.379746 
L 264.818182 -119.300359 
L 267.636364 -119.381992 
L 270.454545 -119.483611 
L 273.272727 -119.624159 
L 276.090909 -119.624924 
L 278.909091 -119.510301 
L 281.727273 -119.606399 
L 284.545455 -119.702904 
L 287.363636 -119.799408 
L 290.181818 -119.737409 
L 293 -119.825939 
L 295.818182 -119.835887 
L 298.636364 -119.738515 
L 301.454545 -119.641143 
L 304.272727 -119.543771 
L 307.090909 -119.446399 
L 309.909091 -119.349027 
L 312.727273 -119.251656 
L 315.545455 -119.154284 
L 318.363636 -119.056912 
L 321.181818 -118.95954 
L 324 -118.862168 
L 324 -177.656995 
L 324 -177.656995 
L 321.181818 -176.850938 
L 318.363636 -175.951635 
L 315.545455 -175.004862 
L 312.727273 -174.060111 
L 309.909091 -173.09129 
L 307.090909 -172.063957 
L 304.272727 -171.148686 
L 301.454545 -170.276908 
L 298.636364 -169.381012 
L 295.818182 -168.607915 
L 293 -167.676963 
L 290.181818 -166.63297 
L 287.363636 -165.588977 
L 284.545455 -164.702326 
L 281.727273 -163.873734 
L 278.909091 -162.842373 
L 276.090909 -161.812743 
L 273.272727 -160.827519 
L 270.454545 -160.214698 
L 267.636364 -159.599052 
L 264.818182 -158.686872 
L 262 -158.085996 
L 259.181818 -157.287968 
L 256.363636 -156.507767 
L 253.545455 -155.871291 
L 250.727273 -155.210317 
L 247.909091 -154.673393 
L 245.090909 -154.06423 
L 242.272727 -153.935866 
L 239.454545 -153.551939 
L 236.636364 -153.084624 
L 233.818182 -152.758982 
L 231 -152.126606 
L 228.181818 -151.810179 
L 225.363636 -151.597253 
L 222.545455 -151.340264 
L 219.727273 -151.213034 
L 216.909091 -150.900055 
L 214.090909 -150.66616 
L 211.272727 -150.494177 
L 208.454545 -150.128904 
L 205.636364 -150.000141 
L 202.818182 -149.695828 
L 200 -149.610888 
L 197.181818 -149.764154 
L 194.363636 -149.614159 
L 191.545455 -149.40523 
L 188.727273 -149.30552 
L 185.909091 -149.227773 
L 183.090909 -149.269275 
L 180.272727 -149.371979 
L 177.454545 -149.235848 
L 174.636364 -149.266218 
L 171.818182 -149.44397 
L 169 -149.571197 
L 166.181818 -149.443654 
L 163.363636 -149.687981 
L 160.545455 -149.77495 
L 157.727273 -149.545979 
L 154.909091 -149.47685 
L 152.090909 -149.564347 
L 149.272727 -149.492182 
L 146.454545 -149.420017 
L 143.636364 -149.347852 
L 140.818182 -149.327974 
L 138 -149.22543 
L 135.181818 -149.148366 
L 132.363636 -149.303316 
L 129.545455 -149.40671 
L 126.727273 -149.607041 
L 123.909091 -149.733065 
L 121.090909 -149.869594 
L 118.272727 -149.760767 
L 115.454545 -149.85737 
L 112.636364 -150.18605 
L 109.818182 -149.964841 
L 107 -149.740985 
L 104.181818 -149.508231 
L 101.363636 -149.554373 
L 98.545455 -149.7799 
L 95.727273 -150.005428 
L 92.909091 -150.230955 
L 90.090909 -150.341867 
L 87.272727 -150.253587 
L 84.454545 -150.355756 
L 81.636364 -150.573631 
L 78.818182 -150.791506 
L 76 -150.761936 
L 73.181818 -150.713861 
L 70.363636 -151.012056 
L 67.545455 -151.32922 
L 64.727273 -151.646384 
L 61.909091 -151.963547 
L 59.090909 -152.280711 
L 56.272727 -152.590209 
L 53.454545 -152.816666 
L 50.636364 -152.953995 
L 47.818182 -153.02349 
L 45 -153.092985 
z
" style="stroke: #ffffff; stroke-opacity: 0.15"/>
    </defs>
    <g clip-path="url(#p4119e80a98)">
     <use xlink:href="#m31c508f298" x="0" y="288" style="fill: #ff0000; fill-opacity: 0.15; stroke: #ffffff; stroke-opacity: 0.15"/>
    </g>
   </g>
   <g id="line2d_10">
    <path d="M 45 77.707956 
L 47.818182 78.768233 
L 50.636364 79.82851 
L 53.454545 80.888787 
L 56.272727 81.949064 
L 59.090909 83.009341 
L 61.909091 84.069618 
L 64.727273 85.129894 
L 67.545455 86.190171 
L 70.363636 87.250448 
L 73.181818 88.310725 
L 76 89.371002 
L 78.818182 90.431279 
L 81.636364 91.491556 
L 84.454545 92.551833 
L 87.272727 93.61211 
L 90.090909 94.672386 
L 92.909091 95.732663 
L 95.727273 96.79294 
L 98.545455 97.853217 
L 101.363636 98.913494 
L 104.181818 99.973771 
L 107 101.034048 
L 109.818182 102.094325 
L 112.636364 103.154602 
L 115.454545 104.214878 
L 118.272727 105.275155 
L 121.090909 106.335432 
L 123.909091 107.395709 
L 126.727273 108.455986 
L 129.545455 109.516263 
L 132.363636 110.57654 
L 135.181818 111.636817 
L 138 112.697094 
L 140.818182 113.75737 
L 143.636364 114.817647 
L 146.454545 115.877924 
L 149.272727 116.938201 
L 152.090909 117.998478 
L 154.909091 119.058755 
L 157.727273 120.119032 
L 160.545455 121.179309 
L 163.363636 122.239586 
L 166.181818 123.299862 
L 169 124.360139 
L 171.818182 125.420416 
L 174.636364 126.480693 
L 177.454545 127.54097 
L 180.272727 128.601247 
L 183.090909 129.661524 
L 185.909091 130.721801 
L 188.727273 131.782078 
L 191.545455 132.842355 
L 194.363636 133.902631 
L 197.181818 134.962908 
L 200 136.023185 
L 202.818182 137.083462 
L 205.636364 138.143739 
L 208.454545 139.204016 
L 211.272727 140.264293 
L 214.090909 141.32457 
L 216.909091 142.384847 
L 219.727273 143.445123 
L 222.545455 144.5054 
L 225.363636 145.565677 
L 228.181818 146.625954 
L 231 147.686231 
L 233.818182 148.746508 
L 236.636364 149.806785 
L 239.454545 150.867062 
L 242.272727 151.927339 
L 245.090909 152.987615 
L 247.909091 154.047892 
L 250.727273 155.108169 
L 253.545455 156.168446 
L 256.363636 157.228723 
L 259.181818 158.289 
L 262 159.349277 
L 264.818182 160.409554 
L 267.636364 161.469831 
L 270.454545 162.530107 
L 273.272727 163.590384 
L 276.090909 164.650661 
L 278.909091 165.710938 
L 281.727273 166.771215 
L 284.545455 167.831492 
L 287.363636 168.891769 
L 290.181818 169.952046 
L 293 171.012323 
L 295.818182 172.072599 
L 298.636364 173.132876 
L 301.454545 174.193153 
L 304.272727 175.25343 
L 307.090909 176.313707 
L 309.909091 177.373984 
L 312.727273 178.434261 
L 315.545455 179.494538 
L 318.363636 180.554815 
L 321.181818 181.615091 
L 324 182.675368 
" clip-path="url(#p4119e80a98)" style="fill: none; stroke: #0000ff; stroke-width: 2.25; stroke-linecap: round"/>
   </g>
   <g id="line2d_11">
    <path d="M 45 172.974454 
L 47.818182 172.625117 
L 50.636364 172.27578 
L 53.454545 171.926443 
L 56.272727 171.577105 
L 59.090909 171.227768 
L 61.909091 170.878431 
L 64.727273 170.529094 
L 67.545455 170.179757 
L 70.363636 169.83042 
L 73.181818 169.481083 
L 76 169.131746 
L 78.818182 168.782409 
L 81.636364 168.433072 
L 84.454545 168.083735 
L 87.272727 167.734397 
L 90.090909 167.38506 
L 92.909091 167.035723 
L 95.727273 166.686386 
L 98.545455 166.337049 
L 101.363636 165.987712 
L 104.181818 165.638375 
L 107 165.289038 
L 109.818182 164.939701 
L 112.636364 164.590364 
L 115.454545 164.241027 
L 118.272727 163.891689 
L 121.090909 163.542352 
L 123.909091 163.193015 
L 126.727273 162.843678 
L 129.545455 162.494341 
L 132.363636 162.145004 
L 135.181818 161.795667 
L 138 161.44633 
L 140.818182 161.096993 
L 143.636364 160.747656 
L 146.454545 160.398318 
L 149.272727 160.048981 
L 152.090909 159.699644 
L 154.909091 159.350307 
L 157.727273 159.00097 
L 160.545455 158.651633 
L 163.363636 158.302296 
L 166.181818 157.952959 
L 169 157.603622 
L 171.818182 157.254285 
L 174.636364 156.904948 
L 177.454545 156.55561 
L 180.272727 156.206273 
L 183.090909 155.856936 
L 185.909091 155.507599 
L 188.727273 155.158262 
L 191.545455 154.808925 
L 194.363636 154.459588 
L 197.181818 154.110251 
L 200 153.760914 
L 202.818182 153.411577 
L 205.636364 153.06224 
L 208.454545 152.712902 
L 211.272727 152.363565 
L 214.090909 152.014228 
L 216.909091 151.664891 
L 219.727273 151.315554 
L 222.545455 150.966217 
L 225.363636 150.61688 
L 228.181818 150.267543 
L 231 149.918206 
L 233.818182 149.568869 
L 236.636364 149.219532 
L 239.454545 148.870194 
L 242.272727 148.520857 
L 245.090909 148.17152 
L 247.909091 147.822183 
L 250.727273 147.472846 
L 253.545455 147.123509 
L 256.363636 146.774172 
L 259.181818 146.424835 
L 262 146.075498 
L 264.818182 145.726161 
L 267.636364 145.376824 
L 270.454545 145.027486 
L 273.272727 144.678149 
L 276.090909 144.328812 
L 278.909091 143.979475 
L 281.727273 143.630138 
L 284.545455 143.280801 
L 287.363636 142.931464 
L 290.181818 142.582127 
L 293 142.23279 
L 295.818182 141.883453 
L 298.636364 141.534116 
L 301.454545 141.184778 
L 304.272727 140.835441 
L 307.090909 140.486104 
L 309.909091 140.136767 
L 312.727273 139.78743 
L 315.545455 139.438093 
L 318.363636 139.088756 
L 321.181818 138.739419 
L 324 138.390082 
" clip-path="url(#p4119e80a98)" style="fill: none; stroke: #ff0000; stroke-width: 2.25; stroke-linecap: round"/>
   </g>
   <g id="patch_3">
    <path d="M 45 256.32 
L 45 34.56 
" style="fill: none; stroke: #ffffff; stroke-width: 0.8; stroke-linejoin: miter; stroke-linecap: square"/>
   </g>
   <g id="patch_4">
    <path d="M 324 256.32 
L 324 34.56 
" style="fill: none; stroke: #ffffff; stroke-width: 0.8; stroke-linejoin: miter; stroke-linecap: square"/>
   </g>
   <g id="patch_5">
    <path d="M 45 256.32 
L 324 256.32 
" style="fill: none; stroke: #ffffff; stroke-width: 0.8; stroke-linejoin: miter; stroke-linecap: square"/>
   </g>
   <g id="patch_6">
    <path d="M 45 34.56 
L 324 34.56 
" style="fill: none; stroke: #ffffff; stroke-width: 0.8; stroke-linejoin: miter; stroke-linecap: square"/>
   </g>
   <g id="text_10">
    <!-- HAMD -->
    <g style="fill: #262626" transform="translate(157.504219 28.56)scale(0.18 -0.18)">
     <defs>
      <path id="Arial-BoldMT-48" d="M 469 0 
L 469 4581 
L 1394 4581 
L 1394 2778 
L 3206 2778 
L 3206 4581 
L 4131 4581 
L 4131 0 
L 3206 0 
L 3206 2003 
L 1394 2003 
L 1394 0 
L 469 0 
z
" transform="scale(0.015625)"/>
      <path id="Arial-BoldMT-41" d="M 4597 0 
L 3591 0 
L 3191 1041 
L 1359 1041 
L 981 0 
L 0 0 
L 1784 4581 
L 2763 4581 
L 4597 0 
z
M 2894 1813 
L 2263 3513 
L 1644 1813 
L 2894 1813 
z
" transform="scale(0.015625)"/>
      <path id="Arial-BoldMT-4d" d="M 453 0 
L 453 4581 
L 1838 4581 
L 2669 1456 
L 3491 4581 
L 4878 4581 
L 4878 0 
L 4019 0 
L 4019 3606 
L 3109 0 
L 2219 0 
L 1313 3606 
L 1313 0 
L 453 0 
z
" transform="scale(0.015625)"/>
      <path id="Arial-BoldMT-44" d="M 463 4581 
L 2153 4581 
Q 2725 4581 3025 4494 
Q 3428 4375 3715 4072 
Q 4003 3769 4153 3330 
Q 4303 2891 4303 2247 
Q 4303 1681 4163 1272 
Q 3991 772 3672 463 
Q 3431 228 3022 97 
Q 2716 0 2203 0 
L 463 0 
L 463 4581 
z
M 1388 3806 
L 1388 772 
L 2078 772 
Q 2466 772 2638 816 
Q 2863 872 3011 1006 
Q 3159 1141 3253 1448 
Q 3347 1756 3347 2288 
Q 3347 2819 3253 3103 
Q 3159 3388 2990 3547 
Q 2822 3706 2563 3763 
Q 2369 3806 1803 3806 
L 1388 3806 
z
" transform="scale(0.015625)"/>
     </defs>
     <use xlink:href="#Arial-BoldMT-48"/>
     <use xlink:href="#Arial-BoldMT-41" x="72.216797"/>
     <use xlink:href="#Arial-BoldMT-4d" x="144.433594"/>
     <use xlink:href="#Arial-BoldMT-44" x="227.734375"/>
    </g>
   </g>
  </g>
 </g>
 <defs>
  <clipPath id="p4119e80a98">
   <rect x="45" y="34.56" width="279" height="221.76"/>
  </clipPath>
 </defs>
</svg>
